<svg xmlns="http://www.w3.org/2000/svg" viewBox="0 0 104.16942 117.48161"><defs><style>.cls-1{fill:#1d1d1b;}.cls-2{fill:#c3c66e;}</style></defs><title>Exclamation_06</title><g id="Layer_2" data-name="Layer 2"><g id="Layer_1-2" data-name="Layer 1"><path class="cls-1" d="M103.12094,52.5457a50,50,0,1,0-60.06739,48.98584l4.3429,6.32794,5.72449,8.34107,5.72442-8.34107,4.3429-6.32788A50.01724,50.01724,0,0,0,103.12094,52.5457Z"/><path class="cls-2" d="M100.66942,52.91178c.0581-.46267-.36853-.29678-.44055-.36609C100.28587,53.31294,100.77928,52.89457,100.66942,52.91178Z"/><path class="cls-2" d="M100.94078,60.67326l-.15051-.16464a9.16308,9.16308,0,0,1,.21362,1.2041A7.54966,7.54966,0,0,0,100.94078,60.67326Z"/><path class="cls-2" d="M99.16148,67.72553c.86963-.44937.75452-2.53656,1.21436-3.749l.20495-.17184-.43164-.7c-.1427.77018-.17419,1.69324-.34948,2.52405A9.00386,9.00386,0,0,1,99.16148,67.72553Z"/><path class="cls-2" d="M96.376,70.75758c.34522-.10626-.09241.84479.41736-.77683a1.36555,1.36555,0,0,1-.12647.12046C96.61253,70.2432,96.53111,70.43638,96.376,70.75758Z"/><path class="cls-2" d="M96.66685,70.10121c.26685-.69217-.40295.3605,0,0Z"/><path class="cls-2" d="M95.42113,73.3043l.22668-.97626c-.23767.11469-.67578.86252-.63269.52637C94.67686,73.79572,94.91466,73.69309,95.42113,73.3043Z"/><path class="cls-2" d="M95.45409,74.36888l.14355-.50345C95.49449,73.91456,95.41112,74.02284,95.45409,74.36888Z"/><path class="cls-2" d="M95.90074,72.80543l-.3031,1.06c.16907-.07486.38428.01257.15906-.47827C95.90526,73.55946,95.823,73.27775,95.90074,72.80543Z"/><path class="cls-2" d="M96.25731,72.29493c.35241-.44617.71985-1.07672.56213-.0516C97.46214,70.43873,96.8867,70.51374,96.25731,72.29493Z"/><path class="cls-2" d="M99.74852,68.31638l.43176-.66918-.02637-.70676C100.166,67.29386,99.52171,68.29133,99.74852,68.31638Z"/><path class="cls-2" d="M92.06724,78.39659c.09363.13616.51282-.0543.71534-.011l.24194-.709C92.7368,77.93665,92.28038,78.48039,92.06724,78.39659Z"/><path class="cls-2" d="M92.78258,78.3856l-.3667,1.06988C92.964,78.64356,92.956,78.42475,92.78258,78.3856Z"/><polygon class="cls-2" points="96.075 74.892 96.426 73.033 95.919 75.209 96.075 74.892"/><polygon class="cls-2" points="89.632 81.707 89.723 81.004 89.484 82.201 89.632 81.707"/><path class="cls-2" d="M87.90159,83.81455c.08338-.52844-.77685.12775-.593-.3453a7.2616,7.2616,0,0,0-.91309,1.789A4.479,4.479,0,0,1,87.90159,83.81455Z"/><path class="cls-2" d="M85.92808,86.14588a6.94754,6.94754,0,0,0,.46741-.88766A3.66062,3.66062,0,0,0,85.92808,86.14588Z"/><path class="cls-2" d="M91.24254,80.90977a1.22776,1.22776,0,0,0-.863.4216l.59766-.08182Z"/><path class="cls-2" d="M90.99718,81.24577l-.02.00378c-.29126.36517-.49341.6185-.58.72705C90.473,81.88435,90.65355,81.66441,90.99718,81.24577Z"/><path class="cls-2" d="M91.30968,80.82441l-.06714.08536C91.30125,80.90183,91.32774,80.89021,91.30968,80.82441Z"/><path class="cls-2" d="M94.32762,77.24821c-.14111.66815-.66138,1.97046.35876,1.03931C94.68968,77.7356,94.1096,78.26356,94.32762,77.24821Z"/><path class="cls-2" d="M92.06541,80.71177c.25782-.29706.5398-.57831.7793-.88986-.10559-.044-.35327.04065-.28015-.29755C92.43065,79.93946,92.23106,80.31227,92.06541,80.71177Z"/><polygon class="cls-2" points="91.827 81.251 92.065 80.712 91.773 81.038 91.827 81.251"/><path class="cls-2" d="M87.602,85.02088a3.85971,3.85971,0,0,1-.99975,1.35749,8.023,8.023,0,0,0,1.48535-1.36023C88.05138,84.85746,88.06493,84.48167,87.602,85.02088Z"/><path class="cls-2" d="M89.33922,83.26472l-.056.09872C89.35655,83.33586,89.40233,83.30247,89.33922,83.26472Z"/><polygon class="cls-2" points="81.984 90.387 82.109 90.387 82.082 90.314 81.984 90.387"/><path class="cls-2" d="M88.22093,84.98869a1.68315,1.68315,0,0,0,.613-.913,11.40858,11.40858,0,0,1-.74634.94248C88.10411,85.09031,88.12828,85.12336,88.22093,84.98869Z"/><path class="cls-2" d="M84.8358,87.44889a8.17644,8.17644,0,0,0,.7865-.41873C85.344,87.10633,84.82713,87.304,84.8358,87.44889Z"/><path class="cls-2" d="M89.08067,83.41166l.03552-.06784C88.93724,83.4054,88.985,83.41953,89.08067,83.41166Z"/><path class="cls-2" d="M89.08067,83.41166a3.39772,3.39772,0,0,0-.2467.664,6.03547,6.03547,0,0,0,.44922-.71222A.74448.74448,0,0,1,89.08067,83.41166Z"/><path class="cls-2" d="M82.07432,93.73069c-.077-.19092.12732-.54193.48572-.906a3.5272,3.5272,0,0,1,1.44983-.97547c.736-.96441-.6991-1.48822-1.90137-1.462.07666.159.17908.28418-.59582,1.19708.44311-.07373,2.34387-1.21906,1.78711-.31708-1.11633,1.13031-1.074.71948-1.83167.96424.83277.0379-1.25317,1.6975-.57019,2.11456l1.02539-.99048C82.01109,93.43253,81.689,93.86393,82.07432,93.73069Z"/><path class="cls-2" d="M83.85411,89.05143l.34009-.332a5.60458,5.60458,0,0,1-1.6211.6004c-.49023.63678-.52978.85669-.49157.99463l1.86157-1.409Z"/><path class="cls-2" d="M85.75133,87.2674c.028.56583-.69324,1.4979.1361,1.3566,1.01551-.99795.4795-.94635.96216-1.65735-1.57776,1.63178.3053-.61685-1.05175.32477a10.0432,10.0432,0,0,1,.80444-.913c-.33118.23953-.65943.45926-.98.65179l.05566-.01565.00672-.00821.00317.00644c.10693-.027.15271-.02521.052.02676a.16093.16093,0,0,1-.028.03839.40788.40788,0,0,1,.03784.18777c-.53381.38086-.15064-.0119-.03784-.18777a.28307.28307,0,0,0-.02405-.06515l-.00989.00177c-.49353.56384-.97058,1.15228-1.48376,1.70489A10.8121,10.8121,0,0,0,85.75133,87.2674Z"/><path class="cls-2" d="M94.80321,79.8361a.10522.10522,0,0,1-.12378.00851C94.64244,80.00187,94.64146,80.07078,94.80321,79.8361Z"/><path class="cls-2" d="M94.07139,80.50666a1.36221,1.36221,0,0,1,.30506-.83413c.36377-.33323.17163.115.303.17208.08435-.347.36218-1.15075-.36878-.38681l-.03894.17108c-.59692.73423-1.76526,1.36265-1.71789,1.195A2.93193,2.93193,0,0,0,94.07139,80.50666Z"/><path class="cls-2" d="M90.09849,84.27064l-1.12475,1.56854.93262-.48038-.20044-.11215C90.5056,84.48805,90.13866,84.48383,90.09849,84.27064Z"/><polygon class="cls-2" points="81.688 90.349 81.604 89.834 81.15 91.018 81.688 90.349"/><polygon class="cls-2" points="79.747 91.794 79.598 91.417 79.202 91.968 79.747 91.794"/><path class="cls-2" d="M5.03575,31.79731l.15894-.59085A3.62633,3.62633,0,0,0,5.03575,31.79731Z"/><path class="cls-2" d="M3.46849,35.88383l.14807.16247C3.58385,35.82246,3.53758,35.71858,3.46849,35.88383Z"/><path class="cls-2" d="M36.78587,97.13291c-.31421-.30346-.62658-.6596-.8678-.88336-.23144-.24878-.39721-.35895-.43786-.13306l.06067.50177A3.91364,3.91364,0,0,1,36.78587,97.13291Z"/><path class="cls-2" d="M6.2556,70.23921l-.02844.27459c.217.13413.42016.25971.60461.37366C6.6577,70.69166,6.46153,70.4709,6.2556,70.23921Z"/><path class="cls-2" d="M4.34788,70.30213,4.26329,69.1164A6.40691,6.40691,0,0,0,4.34788,70.30213Z"/><path class="cls-2" d="M18.82262,12.40046l.24462-.817C18.23668,12.33817,18.748,12.17585,18.82262,12.40046Z"/><path class="cls-2" d="M57.56993,105.51994a9.56482,9.56482,0,0,0-1.23987,1.34393C57.02989,106.28422,57.73717,105.91471,57.56993,105.51994Z"/><path class="cls-2" d="M8.69078,35.08418c.04248-.34555.01013-.51493-.083-.54181C8.557,34.89826,8.56712,35.113,8.69078,35.08418Z"/><path class="cls-2" d="M55.146,108.5919c.10815-.08081.19727-.17182.301-.25836a9.13023,9.13023,0,0,1,.88305-1.46967A3.09435,3.09435,0,0,0,55.146,108.5919Z"/><path class="cls-2" d="M95.71751,21.976c.02185.06195.05982.1283.07532.18756C95.852,22.14485,95.80247,22.07285,95.71751,21.976Z"/><path class="cls-2" d="M100.69371,45.82856c-.06128-.22189-.11792-.58969-.17651-.93576A3.59614,3.59614,0,0,0,100.69371,45.82856Z"/><path class="cls-2" d="M71.11973,96.24528c.45618-.23456.05567-.07727,0,0Z"/><path class="cls-2" d="M74.13023,96.7841a.28971.28971,0,0,0-.10388.27685A.37071.37071,0,0,1,74.13023,96.7841Z"/><path class="cls-2" d="M54.2877,114.61442l-.02734.03723C54.37877,114.62931,54.35826,114.63065,54.2877,114.61442Z"/><path class="cls-2" d="M71.901,96.113a4.72854,4.72854,0,0,0-.64953.14837A4.88851,4.88851,0,0,0,71.901,96.113Z"/><path class="cls-2" d="M71.72508,95.96684l.42542-.14337C72.18016,95.73118,72.11,95.71256,71.72508,95.96684Z"/><path class="cls-2" d="M70.47764,96.55784a5.72838,5.72838,0,0,1,.77381-.29645c-.10315.01392-.15088.00843-.13172-.01611Z"/><path class="cls-2" d="M56.26524,1.38838c.03589.01553.07764.02645.11634.04705C56.95311,1.2841,56.70543,1.3003,56.26524,1.38838Z"/><path class="cls-2" d="M22.35484,94.48057c.02332.01282.0409.01233.06287.023l-.05615-.0639Z"/><path class="cls-2" d="M20.57017,93.476a2.36,2.36,0,0,1,1.79139.96369l.23034-1.4137Q21.59728,93.26366,20.57017,93.476Z"/><path class="cls-2" d="M10.03368,22.59315a10.36865,10.36865,0,0,0-1.12928.97107,7.96505,7.96505,0,0,1,.71021-1.92945c.14306-.348.06445-.37976-.57154.01526.247.23749.16492.64383-.07556,1.1348a14.27964,14.27964,0,0,1-.90539,1.73892C7.359,25.7454,6.66,26.96958,7.2047,27.3787a9.39977,9.39977,0,0,0-.68323.70468c.12988-.23816.07825-.31494.2074-.55038-1.38331,1.36572.27514,1.68371-.90967,3.70026-.44788.69171-.87781,1.13336-.78345.564-.17773.58893-.23486,1.22479-.35535,1.82953-.20715.48831-.38318.28317-.176-.206l-.85694,2.65756-.03088-.03208c.05737.44043.07007,1.38157.12329,1.84906-.36218.62336-.05029-.38119-.25732-.2565l-.06531,1.57019c-.49609.5152-.50891-.80618-.19214-1.82788-1.66565,1.02979.00806,1.324-1.53369,4.15808l.19653-1.46444a3.12619,3.12619,0,0,0-.98169,1.4429c-.23315.58652-.35388,1.28714-.73132,2.083.15442-.17911.58167-.96408.97742-1.47.4093-.50522.80688-.73044.79712.12121a3.78343,3.78343,0,0,0-.18311,1.99469c-.4779-.06927-.4956.82858-.63391,1.92768l-.62366-.15284c-.005,1.22052.33655,1.15821.59156,1.88794A2.03587,2.03587,0,0,1,.02708,49.77781c-.20971,2.15372.86756-1.44284.86109,1.09845-.39038,1.76736.00879,3.03445.46863,5.1145-.164,1.2504-.40015-.1893-.56275.26663.19067.35578.36316.70951.56848,1.057.023.26675-.14441.196-.229.15952.31787.89691.64624.01693,1.00818,1.42114.761.26666-.69348,3.10379.56848,4.69943-.08106.46927-.42957-.12405-.64209.05939a12.45353,12.45353,0,0,0,2.07861,3.71005l.11658,1.75253c.09375-1.35281,1.06274.02341,1.99231,1.12281.03882-.47745.12268-.89679.14221-1.164a21.61889,21.61889,0,0,0,1.1023,1.87836c.00195.278-.2837.16333-.66834-.0661.10571.117.208.22672.29443.309.07789.80268-.41442.58029-.96313.19126.01392-.29474.0376-.589.06409-.874-.5802-.35415-1.15772-.69235-1.46534-.45984a3.66631,3.66631,0,0,1,.42786.62168c-.15369-.09567-.27746-.14823-.31164-.06391-.03406.09382.18835.261.48022.53864l-.46716.734.31042.00915c.2461.95822.46387,1.93921.74512,2.89972a46.25887,46.25887,0,0,1,5.34485,5.24411c-.86865-.395-.80921.31818-1.34986.62238A2.436,2.436,0,0,0,9.05968,79.035c-.25245-.28283-.55225-.56958-.80433-.90259a5.84319,5.84319,0,0,1-.64123-1.10382c.35669.83417.00806.80362-.18994.647A29.64309,29.64309,0,0,0,9.52476,80.0312c-.46582.21164.03016.75854.29151,1.56152.26184-.54394.67785-.12732,1.217.47455a22.2448,22.2448,0,0,0,1.667,1.8269c-.21814.269-.67187.23957-1.53491-1.03549.44336,1.80268,2.21448,1.04944,2.771,2.69629-.2539-.27148-.35107-.44971-.56665-.46274.786.473,2.03589,2.18759,1.48279,2.01984l-.25427-.27277c.39221.4812.90454,1.07407,1.46558,1.6865.59179.58209,1.2644,1.15234,1.89184,1.66858a12.155,12.155,0,0,0,1.73584,1.23327c.52368.25354.92883.36322,1.13526.25586a3.896,3.896,0,0,1-1.1366.62494q1.33191.147,2.61767.25446a23.54621,23.54621,0,0,0,2.5608.12506c-.745.37475-.506,2.64471-2.45093,1.81561a5.80782,5.80782,0,0,0,2.16211,1.41736c-.2843-.31439-.24365-1.43176.24621-1.18549A10.26954,10.26954,0,0,0,26.6616,97.2581c-.45-.42749.72876-1.08405,1.52442-.60413-.21387.07782-.48731,1.02258-.85364.9566l2.60913.15332c-.605-.1018-.53332.79438-.203,1.338-.14588-.26563,1.87646.87774,2.50537,1.04059l-.818-.64911c2.40405,1.2525,3.01086-.33423,5.43408.53589a.872.872,0,0,0,.02038,1.66906c.389-.185,1.23914-.57824,2.27332-1.00067a11.739,11.739,0,0,1,1.64868-.56543,4.64946,4.64946,0,0,1,1.94934-.13769c.15454.15191.29053.29876.418.44372l.60144.054c.13159.123.2572.26044.38916.39453l.80957.84833c-.387-.181-.89038-.42585-1.3927-.62067-.0636-.02331-.124-.05066-.19018-.06848l-.27027.05322-.52612.11536c-.34253.08069-.66541.16919-.95288.26562a21.99945,21.99945,0,0,1-3.51294.79431c.89819.52643.16162.44989,1.64477.799.44678.43029-.93017.24932-1.37585.15509l1.712.5332.85583.26532.136.08276c.106-.29065.451-.4989.67627-.34387.1333.05768.25122.09918.41308.17706.20777.1446.37769.20649.47486.10059-.10279-.09851-.23938-.24615-.31446-.30426l-.2019-.14032q-.19611-.13166-.36865-.22913a4.59409,4.59409,0,0,0-.46912.05976l-.18457.045a.50043.50043,0,0,1-.18066,0l-.24439-.01617c.00171-.17243.16663-.34058.44629-.4856a2.0154,2.0154,0,0,1,.80139-.43085c.09241-.02557.19129-.04791.29578-.06683l.161-.02564a.40983.40983,0,0,1,.11816.05317,2.92216,2.92216,0,0,1,.48267.34637,5.81571,5.81571,0,0,1,1.03992,1.27643c.12524.65527-1.24536.30023-1.40186.46838a5.575,5.575,0,0,1,1.64441,1.905l-.873-.637c.54834,1.24591,1.96985,1.29553,2.35047,2.98394.27844.48163.22351,1.85566.606,1.70954.12037-1.18006,1.97693-2.66876,2.79322-2.49744a24.32479,24.32479,0,0,1,1.08239,3.54279c.01319.5506-.42785.54138-.962.37768-.49036-.09985-.98157-.21978-.97449.247a.60091.60091,0,0,1,.40759.09369,3.30378,3.30378,0,0,1,.48108.34772c.3291.75653-.62719.09149.46436,1.53528.58044-.35889,1.97424,2.97839.79651.14227.98755,1.09479.90283,1.56317,2.01916,3.13721-.1615-.67438.25305-.85651.64405-.95069a20.56079,20.56079,0,0,1,.84667-2.33728.39483.39483,0,0,0,.32007.42078c1.45386-2.00964,2.5763-3.09814,3.89173-5.00458.25952-.08648,1.07055-.91516,1.03723-.34814a3.32751,3.32751,0,0,1,.47925-1.34894c1.28552-.83148-.84546,1.39416.3479.90674-.27454-.29993.61792-1.86609,1.00219-2.86347-.68554-.08246-1.45629,1.91468-1.84179,2.91309-.69849-.47345-.40125-2.4682.67712-4.729.93994-1.73981.932-.39423,1.02625-.74366a9.72777,9.72777,0,0,0,.66357-1.00189c.17053-.2998.36719-.67261.49732-.96985.13952-.31073.25231-.60388.35449-.889a2.69,2.69,0,0,1,.574-.4295,7.30972,7.30972,0,0,1,.6405-.38165c.11866-.0622.24451-.12323.37977-.18274l.34545-.15027a4.746,4.746,0,0,1,1.65906-.31073c1.2926.23144.34363,1.0163.70215,1.32629a5.7723,5.7723,0,0,1-1.9198.38605,8.33445,8.33445,0,0,0-1.7699.20837l1.54261-.12445c-.46717.37183-1.5813.48169-1.86023,1.096a1.93634,1.93634,0,0,0,.42175-.361l.06226-.06549.10314-.01319.21644-.03161.47009-.08234c.6427-.12127,1.46826-.31714,2.33911-.52563a26.76658,26.76658,0,0,0,2.65332-.7569,22.59643,22.59643,0,0,1,2.42688-.6214c.41443-.34466,1.132-.894.67432-.91907-.26587.14026-.52442.3-.79737.42475-.47265-.077-.11438-.324.18286-.6026.303-.26715.57727-.49.02735-.35578a10.69515,10.69515,0,0,1,3.56824-2.21533l.5531.395c-.11-.12988-1.119.198-1.47828.53149.52991-.46618,2.6554-.45855,2.95154-1.51617l-1.224.18939a14.66788,14.66788,0,0,1,3.12268-2.719c-.86975-.14972-.24194.25067-1.46325.20361,1.22668.32947-3.22657,1.7312-1.53321,1.85706a2.74321,2.74321,0,0,0-1.55627.208,4.15242,4.15242,0,0,1-1.752.275c.12243.16693.60168.15576-.53479.5517a1.21848,1.21848,0,0,1-.16944.27038L71.901,96.113l.07007-.00507c-.03564.049-.03735.0567.02588-.00244a1.44376,1.44376,0,0,1,.68616.03155c-.36157.661-2.132,1.47791-2.69348,1.86231-.72107.1466.20678-.31641-.24292-.38977l-.80689.65808c-.24646-.3905-2.03955-.08453-.53271-.88385l-1.43311.475a7.12358,7.12358,0,0,0-2.80957.56458,4.88915,4.88915,0,0,0-.86218.24957c-.34106.124-.63623.25373-.85535.35614-.43737.20471-.60193.30841-.16516.018-.77929.03546-1.00268.84637-1.38061,1.41015l-.52491.88776-.30017.56043-.10571-.04456c-1.442,2.00128-2.25952,4.60669-4.52331,6.47266-.18824.37439-.37513.758-.62635,1.18225-.12561.21209-.26733.43432-.43323.67059a1.54064,1.54064,0,0,1-.2622.29321,2.774,2.774,0,0,1-.3114-.233c-.04212.18122-.2323.2865-.35266.34973-.12635.07172-.20057.12714-.21473.50531a4.87119,4.87119,0,0,0-.12548-.48925c-.08045-.4889-.1344-.514-.26819-.5965a1.24191,1.24191,0,0,1-.21118-.14075.50414.50414,0,0,1-.089-.09906c-.11524-.16931-.24488-.37317-.33545-.53937l-.45838.22864a27.46289,27.46289,0,0,0-2.59985-3.22455l-.31372.33484c-1.08521-.93036-1.74634-3.10791-3.02039-4.883.22547.02551.502.50769.63843.88958A5.76953,5.76953,0,0,0,45.354,100.394l-.49134-.67486-.25109-.327c-.09278-.09522-.2677-.07129-.39734-.11139l-1.67676-.26941L42.137,98.9528l-.24207-.01837-.48132-.04035c-.31922-.02972-.63416-.06659-.94007-.12a3.4729,3.4729,0,0,1-1.66333-.65369,2.2907,2.2907,0,0,1-1.28979-.45148.4468.4468,0,0,0,.13965.02332c-.05274-.02393-.13343-.05273-.2168-.08051-.20972-.15387-.421-.32165-.65735-.47882a3.18662,3.18662,0,0,0,.53955.43976,12.54376,12.54376,0,0,0-1.70886-.40008l-.07568-.55433-.14051-.04779c-.50634-.42065-.55163.00342-.37805.47724a4.17623,4.17623,0,0,0-.89929-.0827c-.15918-.9217-1.67786-.4596-1.968-1.49408-.58166.19555-2.99353-1.28913-3.741-.71619.03613-.10651-.1073-.24548.20813-.0799A6.12936,6.12936,0,0,0,26.787,93.59629l.07459-.68622-1.79236-.2052c-.60279-.84954-.79724-1.238.27148-1.09332-2.29065-.78339-1.63452-.92181-3.65466-1.58435l.3302-.2431c-.58362-.39771-1.74744-.80493-1.84326-1.34-.32019-.82721-1.76734-2.1311-3.21277-3.87482-.37244-.42434-.75769-.86316-1.14673-1.30648-.3429-.48017-.68933-.96521-1.03162-1.44458a13.94861,13.94861,0,0,1-1.67529-2.88129c-.55871,1.29684-.55823-1.86093-1.4093-1.515.109-.34228-.05432-.89019.49853-.46612a7.26149,7.26149,0,0,1-1.17822-2.16733,3.38248,3.38248,0,0,0-1.23425-1.6207c.14221-.32568.56653.21225.6178-.0429-.12488-.11908-.52649-.46415-.44361-.73539.07215-.25988.313.18235.58338.40628C9.657,70.948,8.83226,71.05955,8.02318,71.22727a2.39025,2.39025,0,0,0-1.07959-2.15854c.13073-.44931.20251-1.12753.68664.092-.17029-.73188-1.03467-4.38352-1.59826-4.3165a2.18257,2.18257,0,0,0-.29468-1.19751c-.15674-.818-.24207-1.26328-.32666-1.70456-.09412-.43918-.19531-.87235-.31482-1.68146l-.04346.467c-.84631-.51913-.35022-1.3324-.61743-2.631l.08362.02866a8.05127,8.05127,0,0,0-.04761-2.1717,5.00529,5.00529,0,0,1,.11939-2.13907l-.47205.17591c-.51294-.12406-.41992-.80539-.18591-1.655a6.12183,6.12183,0,0,0,.48535-2.73831l-.30518.61386c-.15222-.48587.23194-1.13754.674-1.761.22437-.3078.45288-.62158.6576-.9024a2.57129,2.57129,0,0,0,.46545-.7659c.12-.18891.09424.33291.11719.61779.97278-2.31665-.57593-.38195-.44348-2.21011.38513-.27887.78759.55335,1.03173-.63354a1.64417,1.64417,0,0,0,.0785-.82779A9.65766,9.65766,0,0,1,6.64854,42.328a5.59691,5.59691,0,0,1,.66565-2.92438c-.34179.28278-.686.57557-.66247-.30685a3.73919,3.73919,0,0,1,.39087-1.0556c.21826-.35892.45251-.74427.68274-1.12287a3.12718,3.12718,0,0,0,.61206-2.2312c.12316-.12967.20788-.16263.27038-.14474A11.49924,11.49924,0,0,1,9.154,32.525a5.063,5.063,0,0,0,.33667-1.82156c.4718-.02533.82922-.4068,1.12243-.958a15.77346,15.77346,0,0,0,.90723-1.8909c.56055-1.341,1.06067-2.61722,1.68628-2.17728l1.77-2.50646.07593.15945a6.87944,6.87944,0,0,0,1.64782-2.98972c.38587-.26977.26709.07273.302.15342a15.706,15.706,0,0,0,2.09729-2.08738,13.1764,13.1764,0,0,0,1.48986-2.24343l.51612.20043a2.4095,2.4095,0,0,1,.71179-.66024c.19006-.13535.40124-.29285.645-.44718.25281-.14236.52673-.29657.81518-.45892a20.70482,20.70482,0,0,0,1.78284-1.129c.60107-.41467,1.13928-.939,1.68018-1.39569a.42006.42006,0,0,1-.14136.34509,9.74847,9.74847,0,0,1,2.12817-1.35971,16.016,16.016,0,0,1,2.37537-1.00018c1.55591-.53467,2.78845-1.08972,2.95788-2.17337.57789-.42313,1.19629-.76666,1.80152-1.1582-2.631.81231.102-.871-1.07288-.76062,1.00391-.48008,2.8451-.46161,1.618.08633l-.22717-.013c-.13782,1.04279,3.31384-.86859,3.45813-.13065,5.1211-1.63211,10.43421-1.51944,15.33667-1.33252l-.54993-.76046,1.74756.13061c.44886.193.5719.60172-.6582.50955.62024.44669,2.09265-.24337,2.15149-.39962,1.20215.24731.93066.48462.4751.57492-.46143.13226-1.12451.26077-.75708.28216a6.62478,6.62478,0,0,1,1.00036.03449l-.21386-.11954a3.99187,3.99187,0,0,1,2.42309-.214c.91138.287.40491.51795.76575.60141-.01087.05072.10754.09342.5553.10532a14.35877,14.35877,0,0,1,2.10815.5177l-.71924-.78214c1.004-.03424,2.00025.547,1.16284-.34411a4.746,4.746,0,0,0,1.75477.954c.40234.14782.84545.28881,1.30749.42523.44751.18259.91382.36062,1.37781.53171.93152.33328,1.84607.66055,2.58154.9237a4.6348,4.6348,0,0,1,1.42261.73627,8.74319,8.74319,0,0,1,2.0282.5798,10.47271,10.47271,0,0,1,2.05468,1.06757c-.29626-.321-.20227-1.02292,1.01563-.18964-.56506.44031-.07.91181.6217,1.44687.68689.5426,1.60938,1.11337,1.771,1.8888-.465-1.14466,3.34936,2.30917,2.59961.61483.90307.80976-.24829.44062.28369,1.23081A15.37851,15.37851,0,0,1,86.78,18.16551c1.09107,1.24572,2.0708,2.68429,3.33069,3.90457.1676-.06482-.0011-.69574.678-.27133l.4198,2.03186c.47864.49569,1.20117-.08826,1.46643,1.28338.0144-.22735.03467-.57229.36255-.22842a11.06823,11.06823,0,0,1,.6156,1.15628l.60632,1.16385c.41687.76849.858,1.52383,1.31568,2.2738q.58979,1.17805,1.183,2.36289c.37939.7966.8645,1.55185,1.16528,2.3872A22.72378,22.72378,0,0,1,100.0742,44.5554c.19495-.98743.32154-.37589.443.3374.00964-.47784.43042-.05936.65185-.18823l-.21765,2.99554c.684.47519.20044,3.13367.84851,3.41666l-.16125-.93225c.80993,1.235,1.568-1.85306,2.53076-1.76758a2.09131,2.09131,0,0,1-.2594-1.24072,14.24228,14.24228,0,0,1,.10742-1.54947,4.8218,4.8218,0,0,0-.6471-3.44272c.07361-.56039.39441.38425.54847.062a3.93409,3.93409,0,0,1-.97022-2.58694l.13709.12549c-.26514-.93094-.46582-1.73468-.63135-2.48645-.21607-.73594-.42554-1.411-.61182-2.11216a30.27106,30.27106,0,0,0-1.57458-4.92007l-.28821.49325a5.37183,5.37183,0,0,1-.387-1.5643c-1.10852-.64663,1.10766,2.39191-.03418,1.84675.14856-.74427-.49475-2.2782-1.27429-3.67212-.81177-1.37876-1.58387-2.71781-1.347-3.38086-.759-1.23957-.22156.65262-.99976-.56269l.01526-.475-.53149-.07413c-.51172-.79095-.501-1.39517-.32178-1.57468a5.6985,5.6985,0,0,0,.618.67386c-.47693-1.19555-2.1654-2.757-2.38855-3.11615a12.35638,12.35638,0,0,1,.72888,1.21152c-.61718-.77841-1.38281-1.49963-2.10253-2.29224-.73975-.77377-1.43946-1.62213-2.229-2.37478-.811-.731-1.62732-1.451-2.44128-2.11856-.41114-.32871-.80384-.66553-1.22669-.94486-.43383-.26614-.86486-.51446-1.29138-.73971l.09314.34912a7.96037,7.96037,0,0,1-2.14563-1.53394,9.15633,9.15633,0,0,0-.78345-.73093,14.16062,14.16062,0,0,0-1.53869-.92019l.127.01483A6.83693,6.83693,0,0,1,78.352,7.82633c.81775.18949-1.04577-1.228-.00231-.93423-3.01551-1.0528-1.57166-.39719-3.77759-.558l-.27234-.54226a7.00171,7.00171,0,0,1-.91541-.0033,13.54751,13.54751,0,0,1-1.45813-.35486c1.32874.14844-.7362-.87179.78455-.76172a9.13229,9.13229,0,0,0-3.66931-1.38864c-1.00037-.20651-1.80286-.21933-2.387-1.00677-1.74328.6112,2.63465,1.26593,1.74427,1.26733.57666.51462-1.42566.4079-2.38928.06757a4.34279,4.34279,0,0,1-1.4087-1.04587,5.88356,5.88356,0,0,0-1.0354-.719A6.33854,6.33854,0,0,0,61.93333,1.401c.2638.04544.29541-.02832.55909.01669-.95862-.41208-2.00367.05146-3.16956-.555-.75012.48166-1.5929-.21146-1.86072.57266a17.51893,17.51893,0,0,1,2.44556.09519c-1.40735-.06156-2.75891.84134-4.97888.27789a4.52562,4.52562,0,0,1,1.33642-.42c-.65454-.26691-1.28686.08993-1.96863-.184C54.5172.438,57.27684,1.14408,58.82408.69508c-.6925-.44464-2.88464.40451-2.066-.42844A2.24219,2.24219,0,0,1,54.76744.611a3.76743,3.76743,0,0,0-2.5105.2124l.11292-.48046a5.34425,5.34425,0,0,1-1.411.35693l.94567-.66293c-1.46179.60379-2.90283-.32831-4.32128.062,2.99707-.20078.723.52618,2.005.79989a6.22627,6.22627,0,0,1-1.91748.19272A2.65919,2.65919,0,0,1,46.63341.81217c-.61866-.27111-1.32019-.5834-3.36194-.15332.54907-.153,2.13476-.0394,1.30261.31034a11.45367,11.45367,0,0,1-2.38049-.1399c-2.64783.77765.51281.37235-.55664.94623-1.0304-.33288-1.24573.56211-2.33631,1.03424l-.13708-.46283c-1.54944.23188-1.67261.53833-1.75086.8356-.08325.28913-.12634.55472-1.48205.85117l.88684-1.03577-1.31079.6626.09839-.6203A9.38927,9.38927,0,0,1,32.248,4.48289c.46033.156.1637.8913-1.04919,1.492-.96.14435.27356-.64114-1.44251.26279a1.4597,1.4597,0,0,1,1.48755-.979c.01184-.18024.26538-.46354.28333-.64429a10.82377,10.82377,0,0,0-2.97974,1.35794,3.08347,3.08347,0,0,1,.74487-.235l-1.11865.91846L27.13194,7.67738c-.46972.07306-.244-.23413-.01452-.53977-.4657.3433-.69141.7395-1.38611,1.21039-.0199-.44659-.28052-.7626.66089-1.54959L24.29344,8.584a3.7126,3.7126,0,0,0-.78967.11658c-.2909.07459-.52808.11334-.42615-.05255a8.81026,8.81026,0,0,0-1.99976,1.81186,14.79046,14.79046,0,0,1-2.24743,2.05093,1.75135,1.75135,0,0,1-.41089.64923c-.72205.59537-1.47315,1.08612-2.20581,1.66782a7.5662,7.5662,0,0,0-1.9093,2.34186l-1.37744.47152c-1.05164,1.39814,1.811-.6799.07617,1.62922-1.06739,1.74783-.92945.22677-1.52027.67742a14.39561,14.39561,0,0,1-.729,1.97471,7.333,7.333,0,0,1-1.59106,2.12072A5.96273,5.96273,0,0,1,10.03368,22.59315ZM1.96434,42.21342c-.03259-.42481-.10754-1.29056.23743-1.52219C2.63145,41.27268,2.25963,41.55445,1.96434,42.21342ZM6.5648,73.39765a1.74585,1.74585,0,0,1-.40039-1.22818A3.61819,3.61819,0,0,1,6.5648,73.39765Zm59.363,25.045a.21407.21407,0,0,0-.03284.03228C65.03087,98.49668,65.33909,98.49619,65.92784,98.44267Zm1.7334-.301c.146-.1217.11377-.18127.02319-.22125-.07763.15607-.44726.29278-.87964.40668C66.958,98.40763,67.199,98.41642,67.66124,98.14164ZM61.58287,5.26948l-.31738-.176C62.057,5.07337,61.81969,5.16419,61.58287,5.26948Z"/><path class="cls-2" d="M4.56847,70.30976a.45186.45186,0,0,1,.19335-.2558C4.63707,69.92933,4.54747,69.957,4.56847,70.30976Z"/><path class="cls-2" d="M18.7783,12.55067l.05213-.03989a.20707.20707,0,0,0-.00781-.11032Z"/><path class="cls-2" d="M48.61473,113.11216a1.78357,1.78357,0,0,1-.30652-.88672c-.05456.025-.078.08686-.05041.2041a1.14766,1.14766,0,0,0,.08227.21967C48.40294,112.76835,48.49913,112.92991,48.61473,113.11216Z"/><path class="cls-2" d="M75.777,93.74955l-.90845.64459a2.35112,2.35112,0,0,1,.94861-.34283C75.74107,93.96446,75.4785,93.92289,75.777,93.74955Z"/><path class="cls-2" d="M85.59776,90.60258c.09546-.15192.28369-.22772.363-.39386l-.18128-.137C85.237,90.55229,84.94163,90.996,85.59776,90.60258Z"/><path class="cls-2" d="M77.47642,94.644c.27234.29114.87049-.12085,1.48218-.65533a1.04509,1.04509,0,0,1-.118.07879C78.7379,93.45933,78.13988,94.09617,77.47642,94.644Z"/><path class="cls-2" d="M79.10618,93.87364a4.77722,4.77722,0,0,1,.61158-.42029C79.67149,93.21073,79.44273,93.57975,79.10618,93.87364Z"/><path class="cls-2" d="M69.66942,97.16435c.38769-.02277.037-.56079.29248-.474C70.1754,96.07035,67.84813,98.07792,69.66942,97.16435Z"/><polygon class="cls-2" points="78.73 95.48 78.217 95.19 78.02 95.76 78.73 95.48"/><path class="cls-2" d="M72.80247,98.07285l1.24915-.40344c-.05335-.06817.07739-.18017.24683-.29663C73.55748,97.68376,72.71556,97.949,72.80247,98.07285Z"/><path class="cls-2" d="M74.29845,97.37278a2.96317,2.96317,0,0,0,.91662-.50812C75.01951,96.97776,74.577,97.17759,74.29845,97.37278Z"/><polygon class="cls-2" points="77.23 96.477 76.84 96.573 76.01 96.988 77.23 96.477"/><path class="cls-2" d="M60.62718,104.43827l-.69238,1.26264c.05908.21759.36658-.04493.61218-.5235C60.64232,104.82688,60.88841,104.35105,60.62718,104.43827Z"/><path class="cls-2" d="M64.10338,102.2349a1.22488,1.22488,0,0,1-.37952-.07757.46548.46548,0,0,0-.28589-.06287l.37537.55072C63.81981,102.40153,63.99156,102.373,64.10338,102.2349Z"/><path class="cls-2" d="M61.96556,105.16917c.0614.21521-.7688,1.99438.22668.47491C62.13353,105.42759,62.82762,104.16337,61.96556,105.16917Z"/><polygon class="cls-2" points="48.665 110.175 48.878 110.471 49.688 109.852 48.665 110.175"/><path class="cls-2" d="M33.70457,101.5493c1.59876.83178.62171-.44349,2.03455.37164.47241-.09131-1.15393-.66181-.67835-.71741C33.95775,101.11247,33.50047,100.72569,33.70457,101.5493Z"/><path class="cls-2" d="M35.06077,101.20353a5.55785,5.55785,0,0,0,.56592.03186A2.52389,2.52389,0,0,0,35.06077,101.20353Z"/><polygon class="cls-2" points="100.524 49.686 100.365 50.732 100.673 50.047 100.524 49.686"/><path class="cls-2" d="M101.38133,51.66447l-.63611.25662.62036.6246C101.3242,52.30747,101.24425,51.84806,101.38133,51.66447Z"/><path class="cls-2" d="M.18931,45.16371l.14148.10922c.19434-.1554.24756-.42194.35584-.956Z"/><polygon class="cls-2" points="5.084 30.23 4.955 30.468 5.705 30.263 5.084 30.23"/><path class="cls-2" d="M11.44823,18.60264c-.34717.42075-.62891,1.01407-.976,1.4361C11.10313,19.01991,12.10423,18.94743,11.44823,18.60264Z"/><path class="cls-2" d="M48.28233,83.35124c.0918.05737.134-.067.11682-.04572C48.36131,83.25578,48.30247,83.34464,48.28233,83.35124Z"/><polygon class="cls-2" points="49.277 83.813 49.458 83.814 49.317 83.789 49.277 83.813"/><path class="cls-2" d="M49.68724,84.0048l-.00086-.04889-.14184.07929c.18372.09631.45789.14471.55945.25445C50.11265,84.09135,49.79332,84.1536,49.68724,84.0048Z"/><path class="cls-2" d="M50.31163,84.81419a.68.68,0,0,1,.09106.04468c-.00268-.07709.12818-.00879-.10437-.06977Z"/><path class="cls-2" d="M50.31163,84.81419c-.09815-.03791.03906.08111,0,0Z"/><path class="cls-2" d="M50.623,84.96708c.01221.04858.12549.10126.07214.11292.14612.01837.13062-.03186.07825-.12226Z"/><path class="cls-2" d="M50.93761,84.87614l-.07471.00342C50.86876,84.89958,50.88475,84.911,50.93761,84.87614Z"/><path class="cls-2" d="M50.79222,84.875c.02917-.04547-.015-.00787-.08752.0047l.1582-.00018C50.85362,84.84648,50.87169,84.79093,50.79222,84.875Z"/><path class="cls-2" d="M50.64586,84.69456c-.24329-.07507-.262.05688-.01038.12976C50.57823,84.761,50.49815,84.70414,50.64586,84.69456Z"/><path class="cls-2" d="M50.07323,84.07072c.04821-.004.13732.12952.15844.07672l-.0592-.08875Z"/><path class="cls-2" d="M51.57091,85.28062c.01635-.03534-.02332-.10846-.02222-.1579l-.10742.02051C51.48509,85.18125,51.576,85.22373,51.57091,85.28062Z"/><path class="cls-2" d="M51.54869,85.12272l.15869-.0329C51.58018,85.055,51.54979,85.08012,51.54869,85.12272Z"/><path class="cls-2" d="M50.7523,84.745c.10535-.00769.21045-.02105.31409-.03747l-.04382-.01215C50.93309,84.716,50.84325,84.73155,50.7523,84.745Z"/><polygon class="cls-2" points="52.043 85.461 52.213 85.349 52.141 85.386 52.043 85.461"/><path class="cls-2" d="M52.522,85.41129c-.06934.06818.077.12867.00634.16877a.61079.61079,0,0,0,.28138-.11347A.34259.34259,0,0,1,52.522,85.41129Z"/><path class="cls-2" d="M52.008,85.16441l-.05713-.01087a.17629.17629,0,0,0,.09863.12567Z"/><path class="cls-2" d="M52.00645,85.16068l.00159.00373.1228.02575Z"/><path class="cls-2" d="M51.4984,84.71079c-.07593.05555.006.13092-.14026.18506C51.457,84.86057,51.63878,84.8419,51.4984,84.71079Z"/><path class="cls-2" d="M51.7119,85.04923l.177-.0415-.14612-.05316C51.7401,84.98283,51.75951,85.029,51.7119,85.04923Z"/><polygon class="cls-2" points="51.969 84.986 51.889 85.008 51.944 85.026 51.969 84.986"/><path class="cls-2" d="M52.68126,85.276a.48222.48222,0,0,1,.22571-.04657,1.49624,1.49624,0,0,0-.26429-.04614C52.62828,85.216,52.58543,85.27342,52.68126,85.276Z"/><polygon class="cls-2" points="53.722 85.214 53.708 85.195 53.706 85.214 53.722 85.214"/><path class="cls-2" d="M52.48277,85.19108a.828.828,0,0,1,.15991-.00781c.00647-.01471.00818-.02466-.01342-.02082A.13717.13717,0,0,0,52.48277,85.19108Z"/><path class="cls-2" d="M53.0598,85.2819c.03332.03455.10315.08868.1156.0611A.82068.82068,0,0,0,53.0598,85.2819Z"/><path class="cls-2" d="M52.38829,85.24613a.35949.35949,0,0,0,.09448-.055.48587.48587,0,0,0-.114.02313A.12961.12961,0,0,1,52.38829,85.24613Z"/><path class="cls-2" d="M53.4149,85.201l-.06274.01373a.63564.63564,0,0,1,.22558.12647c.10437-.05567.123-.09388.12805-.12726-.10424.003-.20837.00634-.312.00238Z"/><path class="cls-2" d="M53.06993,85.21684c.05066-.10517.19727-.15216.10706-.268-.17749.00372-.12549.0874-.23438.13178.29248-.02039-.08606.0581.12512.12384a.725.725,0,0,1-.16076.025,1.10968,1.10968,0,0,1,.15283.05249l-.00672-.00684-.00134.00031.00025-.00165c-.01258-.01373-.01673-.022-.00232-.01385l.00622-.00208a.13616.13616,0,0,1,.014-.0404c.08557.024.01318.02826-.014.0404l-.0039.01593.00109.00134.29908-.06036A1.17782,1.17782,0,0,0,53.06993,85.21684Z"/><path class="cls-2" d="M51.69847,84.51988a.03416.03416,0,0,1,.00317.02624C51.72215,84.537,51.7307,84.52958,51.69847,84.51988Z"/><path class="cls-2" d="M51.65916,84.6696l.02283-.01014c.1023.06012.22437.22248.20239.23182a.86535.86535,0,0,0-.0874-.284c-.02295.0105-.04858.04913-.11145.02441-.04944-.04358.0116-.05035.01611-.08557C51.65721,84.5659,51.547,84.5922,51.65916,84.6696Z"/><path class="cls-2" d="M52.42052,84.91477l.24255-.03283-.11292-.101.00135.05622C52.41954,84.80351,52.44176,84.87309,52.42052,84.91477Z"/><polygon class="cls-2" points="53.73 85.381 53.863 85.21 53.755 85.265 53.73 85.381"/><polygon class="cls-2" points="54.081 85.317 54.16 85.247 54.081 85.217 54.081 85.317"/><path class="cls-2" d="M59.89329,79.90959l-.1134.0108a.25875.25875,0,0,1-.05591.17621C59.83763,80.013,60.00535,79.91886,59.89329,79.90959Z"/><path class="cls-2" d="M57.14842,83.89951a.66125.66125,0,0,0,.22107-.09521C57.24217,83.82774,57.11619,83.80985,57.14842,83.89951Z"/><path class="cls-2" d="M57.5731,83.6284l-.05346.01367a.51121.51121,0,0,1-.15015.16223A.21271.21271,0,0,0,57.5731,83.6284Z"/><path class="cls-2" d="M55.30321,84.9893l-.06214.0097C55.23814,85.019,55.24925,85.02732,55.30321,84.9893Z"/><path class="cls-2" d="M55.39012,84.95793l.09143-.03772a.4154.4154,0,0,1-.11218.02667C55.38487,84.94938,55.39244,84.95329,55.39012,84.95793Z"/><path class="cls-2" d="M59.65416,79.93125l.12573-.01086.0011-.02051c.06226-.07562-.041-.07819-.13953-.05237a.35456.35456,0,0,0-.05-.12457c.20166-.034-.02392-.22845.19019-.29114-.08887-.0708-.0282-.43872-.24182-.495.02783-.0011.04272-.02478.04126.02008a.28066.28066,0,0,0,0-.2677l.15393-.03644-.205-.20306c.09058-.12195.14344-.17792.264-.056-.18652-.29267-.07837-.24268-.27234-.47864l.09949.00342c-.011-.09058-.1615-.21619-.08594-.27948.16931-.23114-.14038-.9845-.18786-1.52973-.23084.20368.02941-.27954-.19129-.20892.05054-.05567.05518-.14063.14539-.08588-.17383-.21844-.083-.42578-.34387-.4967.04443-.06153.11718.00085.13891-.0434-.02417-.01214-.0957-.04608-.07458-.09167.02124-.04529.07019.00573.1184.02929-.15222-.2445-.35388-.14843-.53015-.05859.00635-.16528-.04419-.2182-.20849-.22046.02612-.07532.03442-.181.15173-.05749-.04114-.08484-.2749-.52369-.40637-.42554.01184-.04822-.077-.10651-.10694-.11273a1.85058,1.85058,0,0,0-.28833-.32386l.02076.05945c-.19214.07569-.14917-.0896-.28467-.18689l.017-.01117c-.18824-.35724-.15943-.06134-.34571-.4226l-.05932.106c-.18408.17975-.1637-.32428-.40625-.36987l.025.10138c-.14209.00794-.08252-.4776-.17993-.57117-.01245-.03308.05591-.00927.0979-.004-.21-.29743-.11816.113-.34485.02423.00086-.09552.15686-.162.016-.2536-.04773-.10474-.54712.03027-.69153-.19391.02259.07885.04187.15619-.07934.16186-.15967-.0404-.35913-.39178-.56836-.23279a.072.072,0,0,1-.01624-.05743c-.13989.012-.43408-.01318-.52917.08154-.05383-.43969-.807.0915-.76624-.2771-.1333-.00476-.26587.00092-.39819.00476l.01086-.03881a.42046.42046,0,0,0-.42614.1632c-.05872-.02252-.01844-.0606-.01441-.081a.6375.6375,0,0,0-.69287.19574l-.04968-.11749c-.06567.08081-.57178-.1037-.89282.145a.082.082,0,0,1,.02343-.0644c-.34265.23914-1.085.03382-1.02441.51831-.06421.07367-.127.14643-.18506.22449.3158-.13556.04981.19507.20777.193-.09742.08636-.36133.05041-.23255-.05024l.03345.00678c-.06836-.23908-.405.14935-.48377.014a8.02154,8.02154,0,0,0-1.56286,1.26483l.18909.05981-.1471.16669c-.06946.01984-.16223-.02454-.05652-.14795-.13415.00421-.09888.26666-.06665.2937-.2417.21405-.10119-.22662-.15979-.15094l-.06628.11749.03479-.0122c0,.13293.05542.18145-.056.33874-.09619.08344-.12879-.00732-.16089.03-.01074-.00714-.0249.00372-.04456.06073l-.158.24335.18238-.02942c.00012.14441-.13684.22723.07031.19275-.329.041-.52234.91418-.60816,1.004a1.07231,1.07231,0,0,1-.057.56634c.0404-.04553.20495-.03857.14831.13086-.31775-.13153-.20605.29688-.45923.41516.16932-.1134-.01452.53131.23255.34119-.03723.14917-.12561-.00073-.21216.11078.10718.36963-.10522.811-.00915,1.27246.04443.00165.10266-.08057.17871.008-.064.08716-.12793.17676-.18579.26862.03686.08838.26257.04053.14147.22986.0315-.03.07959-.07373.10535-.01776-.03113.95092.68823,1.64953.88843,2.59808-.00293-.1521.05225-.08838.10913-.0133-.01892-.0622.08838-.06312.12939-.10834l.10145.39917c.17041-.05286.2738.30127.41992.21985l-.10144-.06665c.139-.00733.17443-.15314.21789-.30127.08057.09149.1416.1911.22876.28A5.87756,5.87756,0,0,0,53.17772,84.642c.05188,0,.10132-.00592.15271-.00708a.05807.05807,0,0,0-.035.01019l.00647.05591c.08-.00519.1239-.04444.06092-.06763.07653-.00213.15246-.00586.228-.01062-.12793.08637-.02783.40137.1167.57251.0011-.04376-.00061-.08246.14429-.153-.0592-.04834-.33972-.1023-.22107-.20014.18872-.06488.16052.02533.26074.06592-.08117-.101.14661-.19.15222-.33087a5.83124,5.83124,0,0,0,.59363-.11237l.0531-.00757h-.0227q.25763-.06426.50635-.15149c-.00464.01923-.0149.04.00683.05237l.09351-.05285c.13171.06817-.13989.2091.00635.21087a.62547.62547,0,0,1-.4618.28315l-.07592-.138c.01464.04242.15441.05182.19812-.00891-.06824.09259-.35511-.11859-.40235.09418l.16675.07147c-.12659.11011-.28491.30841-.4845.29.11084.13471.03955-.02417.20716.12683-.1576-.18878.49231-.09265.25354-.27936.18591.17157.25512.02454.48608.143-.02087-.04846-.09119-.0705.07324-.09949a.22414.22414,0,0,1,.02063-.05389l.01172.00006-.0105-.00281c.0044-.00946.00452-.01117-.00378-.00085a.18793.18793,0,0,1-.10254-.04682c.04175-.136.28284-.21209.33874-.30334.09644-.01233-.01538.06848.05225.09973l.08545-.13055c.05444.10229.308.066.125.22174l.19141-.08149a.47345.47345,0,0,0,.37194-.14111c.10059-.02405.15235-.23205.12366-.11157.08118-.07611.16419-.14758.2395-.228l.0177.022c.28247-.1623.41651-.5199.81739-.6a.89613.89613,0,0,1,.26562-.28949l.09265.0451c.07581-.11615.35474-.22863.321-.33953.29614.06536.48181-.47126.651-.647l-.09827-.08075a1.45115,1.45115,0,0,0,.22315-.48816l-.10254-.04663c.00793-.19446.2937-.34906.39807-.61334.03125.035-.00855.09564-.05261.13013.37927-.20594.104-.71668.36181-.94135A.1746.1746,0,0,1,59.63,80.1945a.03567.03567,0,0,0,.00061.01965l.00964-.02966a.87757.87757,0,0,0,.08374-.08789.43259.43259,0,0,0-.07971.07171A.79177.79177,0,0,0,59.65416,79.93125ZM58.2827,74.99107c.07446.05279.14758.10791.21777.16656-.00476.041-.06543.04834-.1438.04993l.0575.01855a.09124.09124,0,0,1-.05847.08869c-.022-.03436-.03492-.07221-.05762-.10626l.05859-.001-.07373-.02661c-.00989-.01465-.02087-.02881-.031-.0434A1.09044,1.09044,0,0,0,58.2827,74.99107Zm-10.77844.095.05078-.02124C47.5305,75.16837,47.5189,75.12809,47.50426,75.086Zm6.09521,9.53638c.07971-.00507.16028-.00745.23889-.01545A.19383.19383,0,0,1,53.59947,84.62242Zm.29382-.0138.00293-.01007.02161-.00311Zm2.1698-.03979.0022-.00776C56.18736,84.55039,56.14317,84.55259,56.06309,84.56883Zm.67139-.71369c-.17139.17822-.163-.05505-.18091-.00671-.391.2066-.1383.52453-.55261.57178-.19507-.05372-.12353-.23621-.19666-.30829.14295-.13312.29883-.0567.408-.13043l-.16919.024c.0326-.06683.12122-.16174.20057-.16247a.31017.31017,0,0,0-.11695.02563,6.01676,6.01676,0,0,0,.76319-.52936A.73551.73551,0,0,1,56.73448,83.85514Zm.95752-1.11285a.1947.1947,0,0,0-.11267-.05341c.04846-.05176.08484-.10736.13122-.15979A.4133.4133,0,0,1,57.692,82.74229Zm.49524-.678a.1312.1312,0,0,1-.06738-.03345c.0415-.05676.09729-.10889.13659-.16638l.16138.10467-.14221-.12951c.04175-.06165.06543-.12927.10461-.19184a.9486.9486,0,0,1,.2771.22022A1.58356,1.58356,0,0,1,58.18724,82.06425Zm.93726-1.00183c-.05811-.09461-.14991-.2442-.24366-.3982.04187-.10742.06592-.22064.101-.3302a.79886.79886,0,0,1,.23669.47327l-.09607.0199C59.12645,80.90586,59.12645,80.984,59.1245,81.06242Zm.15161-2.62812c-.00074-.05322-.01233-.10229-.01441-.155.08081.05181.16455.09356.24353.14935A.82634.82634,0,0,0,59.27611,78.4343Z"/><path class="cls-2" d="M54.69639,85.13951c.00953.02673.04749.06005.00074.0725l.14319-.06439A.20377.20377,0,0,1,54.69639,85.13951Z"/><path class="cls-2" d="M54.28734,84.83524c-.00623.1446.0946.08149.191.015-.03113-.09534-.11231-.04779-.20862-.0119Z"/><path class="cls-2" d="M54.156,84.86369c-.00342.05822.03918.00537.09131-.01813A.302.302,0,0,1,54.156,84.86369Z"/><path class="cls-2" d="M55.55369,84.9036c-.00463.14087.25733-.26995.02454-.10467C55.522,84.79307,55.59544,84.9315,55.55369,84.9036Z"/><polygon class="cls-2" points="54.336 84.537 54.394 84.654 54.427 84.544 54.336 84.537"/><path class="cls-2" d="M54.9398,84.44956c.0083.01947-.00708.03656-.02795.05219.09424-.01959.20117-.03369.1864-.06665Z"/><path class="cls-2" d="M56.61656,83.58946c-.01453.04864-.05676.09838-.01172.11749l.11621-.1297C56.70933,83.53257,56.657,83.53855,56.61656,83.58946Z"/><polygon class="cls-2" points="48.156 83.132 48.158 83.009 48.101 82.994 48.156 83.132"/><path class="cls-2" d="M48.41905,83.05937l-.09521.13562.16174-.04236C48.45946,83.13535,48.40843,83.1016,48.41905,83.05937Z"/><path class="cls-2" d="M46.23363,25.88255c.03247.2528.14575.11316.11877.11956C46.35594,25.85105,46.25328,25.90525,46.23363,25.88255Z"/><polygon class="cls-2" points="46.637 28.45 46.755 28.816 46.681 28.493 46.637 28.45"/><path class="cls-2" d="M46.76463,30.82334c.17041-.22271-.05969-.84381-.01135-1.2597l.03809-.06885L46.641,29.309A11.66322,11.66322,0,0,1,46.76463,30.82334Z"/><path class="cls-2" d="M46.42418,32.07249c.06665-.078.0697.26788.01111-.29041l-.01563.05286Z"/><path class="cls-2" d="M46.41966,31.83494c-.014-.24561-.05249.16168,0,0Z"/><path class="cls-2" d="M46.501,32.96842l-.07385-.32226c-.03858.06836-.03723.35663-.07093.25024C46.40221,33.2277,46.44054,33.15849,46.501,32.96842Z"/><path class="cls-2" d="M46.64244,33.27238l-.03247-.167C46.59386,33.13511,46.58958,33.17954,46.64244,33.27238Z"/><path class="cls-2" d="M46.54161,32.751l.06836.35431c.0271-.04743.08484-.05353-.02588-.16272C46.63792,32.97062,46.58458,32.90135,46.54161,32.751Z"/><path class="cls-2" d="M46.68309,32.45573c-.04712-.6181-.16931-.52484-.12158.0935C46.59361,32.367,46.60948,32.1323,46.68309,32.45573Z"/><path class="cls-2" d="M46.9536,30.93955l.04333-.24292-.0675-.20874C46.963,30.59214,46.89818,30.95542,46.9536,30.93955Z"/><path class="cls-2" d="M46.62718,34.84934l-.05225-.23779c-.02148.12348-.03686.35687-.09252.37463C46.5211,35.00541,46.57957,34.87473,46.62718,34.84934Z"/><path class="cls-2" d="M46.62718,34.84934l.07825.35572C46.7014,34.88566,46.66832,34.8281,46.62718,34.84934Z"/><polygon class="cls-2" points="46.843 33.326 46.684 32.742 46.848 33.439 46.843 33.326"/><polygon class="cls-2" points="46.578 36.509 46.528 36.352 46.432 36.152 46.578 36.509"/><path class="cls-2" d="M46.57616,37.25767c-.07825-.14764-.11561.20978-.16614.05261a2.70673,2.70673,0,0,0,.15527.64118A1.84958,1.84958,0,0,1,46.57616,37.25767Z"/><path class="cls-2" d="M46.709,35.81443a.43539.43539,0,0,0-.098.28449l.10156-.14368Z"/><path class="cls-2" d="M46.7158,35.95017l-.00329.00507.00512.30383Z"/><path class="cls-2" d="M46.78026,34.26451c.06738.20855.14746.64428.2229.21868C46.92454,34.33451,46.88158,34.57816,46.78026,34.26451Z"/><path class="cls-2" d="M46.74583,35.19511l.08948.40552.0105-.38013C46.81785,35.22874,46.77928,35.29826,46.74583,35.19511Z"/><polygon class="cls-2" points="46.876 35.786 46.835 35.601 46.831 35.742 46.876 35.786"/><path class="cls-2" d="M46.73485,37.61228a2.351,2.351,0,0,1,.07788.54407c.01294-.218.01611-.44281.008-.65607C46.78612,37.47135,46.72252,37.37968,46.73485,37.61228Z"/><polygon class="cls-2" points="46.885 40.151 46.903 40.118 46.885 40.112 46.885 40.151"/><path class="cls-2" d="M46.83934,37.46317a.6941.6941,0,0,0-.05139-.35247c.01526.12176.02685.25085.03283.38958C46.83641,37.51335,46.84654,37.51554,46.83934,37.46317Z"/><path class="cls-2" d="M46.77733,38.53623c-.03076.08435-.07715.25586-.04822.28492C46.74827,38.73527,46.76366,38.63816,46.77733,38.53623Z"/><path class="cls-2" d="M46.71483,36.89646l-.00562-.02429C46.68822,36.92643,46.6992,36.91941,46.71483,36.89646Z"/><path class="cls-2" d="M46.71483,36.89646a1.32912,1.32912,0,0,0,.07312.21424,2.55889,2.55889,0,0,0-.04553-.27021A.24536.24536,0,0,1,46.71483,36.89646Z"/><path class="cls-2" d="M46.88719,39.40318l-.01782-.15387a2.2565,2.2565,0,0,1-.11475.53924c.05774.255.09632.30677.12989.32312l-.014-.76068Z"/><path class="cls-2" d="M47.12315,38.81034c-.02405-.45233-.10156-.31384-.1582-.5827.05347.7298-.06763-.20782-.10938.32251-.02356-.143-.03393-.272-.04284-.3938-.0083.13208-.01978.25958-.0354.37988l.0061-.017-.00049-.00341.00183.00067c.01221-.032.02-.04273.01355-.0069l.00269.0152a.10351.10351,0,0,1,.04187.03149c-.01453.21253-.02673.03437-.04187-.03149-.00537-.00226-.0105-.00781-.01624-.0083l-.00134.00274.08594.73011a5.69364,5.69364,0,0,0-.02588-.69306C46.95555,38.67289,47.01488,39.04167,47.12315,38.81034Z"/><path class="cls-2" d="M47.149,37.19389c.00928-.34711-.05688-.27008-.10156-.31177l.07519.60754.08179-.31329Z"/><polygon class="cls-2" points="46.834 40.223 46.717 40.147 46.891 40.493 46.834 40.223"/><polygon class="cls-2" points="46.877 41.015 46.777 40.99 46.844 41.197 46.877 41.015"/><path class="cls-2" d="M47.60057,60.41972c-.08276.26056-.21545.55133-.10523.51965l.10547-.08026A1.42192,1.42192,0,0,1,47.60057,60.41972Z"/><path class="cls-2" d="M47.21373,49.1121a3.63527,3.63527,0,0,0-.0448.56238C47.2213,49.4019,47.30662,49.18022,47.21373,49.1121Z"/><path class="cls-2" d="M58.85631,51.69419c-.01538-.10986-.03577-.15722-.06006-.15478C58.81053,51.65251,58.82884,51.71671,58.85631,51.69419Z"/><path class="cls-2" d="M47.1931,50.32261l.02112-.11945a3.50349,3.50349,0,0,1-.04529-.52868A1.1761,1.1761,0,0,0,47.1931,50.32261Z"/><path class="cls-2" d="M47.2722,23.26438a1.32963,1.32963,0,0,0-.18506.29438A2.72934,2.72934,0,0,1,47.2722,23.26438Z"/><path class="cls-2" d="M46.94627,44.20567c-.01318-.16712-.01294-.02594,0,0Z"/><path class="cls-2" d="M47.92918,51.97111l.00012.01453C47.94871,51.93516,47.94505,51.94383,47.92918,51.97111Z"/><path class="cls-2" d="M46.98631,43.951a2.0139,2.0139,0,0,0-.02429.21594A2.06884,2.06884,0,0,0,46.98631,43.951Z"/><path class="cls-2" d="M46.93638,43.98771l.00513-.14746C46.92259,43.82,46.912,43.83946,46.93638,43.98771Z"/><path class="cls-2" d="M46.96068,44.43864A2.50675,2.50675,0,0,1,46.962,44.167c-.0061.03327-.01172.04736-.01575.0387Z"/><path class="cls-2" d="M46.6682,25.399c-.00257-.10682.00781-.21393.01159-.32184.0625.23724.21472.05926.37683-.1203a4.5,4.5,0,0,0-.1.92572c0,2.12262.07837,5.10254.23083,8.89148-.03027-.08728-.06591-.14142-.0935.08288l.01648.05139a1.53312,1.53312,0,0,1-.16333.62659.96627.96627,0,0,0,.24792-.36493.50462.50462,0,0,1-.05688-.269c.01733-.09686.03393-.069.05273-.03943.06091,1.50446.134,3.14453.21875,4.90961-.12915-.132-.36633.07934-.50635.34729.04358.00952.08338.00793.15564.38043.0492-.13361.09583-.8371.1969-.52448.06922.49427-.02.40821-.0636.6518.09192-.16681.16614.31756.28113.46948.01319.26367.02808.54822.04163.81732l-.09436.07526.10522.13678c.03028.5993.05933,1.18469.092,1.81055.00415.07818.00757.14837.01148.22613-.0166-.02222-.033-.02862-.04859.01276l.02906.2785c-.09888.26227-.16907-.51819-.20655-.162a3.86115,3.86115,0,0,1-.1831-1.31677l.14953-.10681a.78665.78665,0,0,0-.02648.49591c-.07593-.217.17749-.82-.03174-1.05151l-.09253.37542a4.26958,4.26958,0,0,1-.23926-1.30236c-.14343.22009.02124.10717-.14343.44836.20947-.29889.03467,1.19928.2489.72449-.19275.35162-.06531.59546-.224,1.05108.04993-.01642.0907-.16314.08032.23151a.419.419,0,0,1,.04761.08405l-.00281.02673.00513-.022c.0083.01666.00989.01806.00183-.00824a.53646.53646,0,0,1,.06946-.20435,6.27276,6.27276,0,0,1,.21008,1.02106c-.0155.234-.06152-.09442-.11072.03534l.10132.3106c-.11108.03681-.16369.62708-.24951.08234l.01318.49341a2.72634,2.72634,0,0,0-.00647.9378c-.01574.23359.14576.582.05054.38324l.0979.77051-.02783.0083a10.63352,10.63352,0,0,1,.073,2.44409,4.525,4.525,0,0,1,.06616.95124l-.094.08685c.046.32874-.06079.9931.04554,1.132-.24817.36285.00183,1.60168-.0232,2.1828l.12757.01923a10.55874,10.55874,0,0,0,.12671,1.2763l.111-.03253a14.66923,14.66923,0,0,1-.00305,1.77637.54924.54924,0,0,1-.01819-.33875c-.22339.81049.24695,1.70233.08935,2.43677a.95186.95186,0,0,1,.015.44275.186.186,0,0,0-.00757-.04523l.00146.075-.05041.25385a1.25526,1.25526,0,0,0,.05225-.21356,5.24231,5.24231,0,0,0,.06506.56341l-.11707.08954.00513.0484c-.03686.20544.06311.165.14966.05512a1.68756,1.68756,0,0,0,.08276.27673c-.188.16907.08533.545-.11279.78137.05835.08142.07263.3786.16577.66821.08362.28882.22949.55567.35681.568-.02258.01764-.0072.08685-.05908-.02961a1.26785,1.26785,0,0,0,.38025.657l-.0481.1842a2.72329,2.72329,0,0,0,.55359.26367c.21094.27149.31641.41358-.0437.29731a6.86515,6.86515,0,0,0,.70606.27423,1.97957,1.97957,0,0,0,.62072.10968l-.06164.08362c.23388.078.63171.03576.75329.13879a8.84893,8.84893,0,0,0,3.96045.13647c-.33642-.2041.6615-.05066.6388-.30114.09875.03766.29651.00219.10534.13983.63392-.32648,1.0409-.33832,1.37635-.80359.11255.00439-.07508.17816.012.16608.04394-.04786.16479-.19275.2533-.21558.0885-.02173-.05188.12292-.13807.218.65137-.52356.49622-.79663.38306-.94184a.78953.78953,0,0,0,.36194-.76593c.09827-.1026.245-.31219.10705.16358a2.57443,2.57443,0,0,0,.2201-.92328c.015-.36658.00866-.65076-.07093-.67017a.87812.87812,0,0,0,.00843-.39239c.02966-.53.0459-.57648.05053-1.097l-.03161.14411c-.18482-.20667-.02649-.43305-.03369-.85279l.01941.01215c.17566-.96082-.05091-.4162.144-1.36359l-.12183.05017c-.25451-.09192.18409-.83917.10645-1.39129l-.07605.19781c-.07678-.30261.38269-.83508.42639-1.13611.025-.06536.0321.10462.04517.19678.18225-.78723-.1532-.10541-.16724-.69525.08887-.10687.21008.14435.241-.25159.076-.19555-.23108-1.15619-.0481-1.69311-.06982.11749-.13953.23419-.1781-.04084-.00732-.42047.28992-1.12683.09863-1.51184.01978-.05279.03772-.07238.054-.07409a6.66369,6.66369,0,0,0-.15259-1.24213c.42517-.28107-.12537-2.00214.2561-1.97986l.01709-.98718.038.02747a2.136,2.136,0,0,0-.11682-1.0824c.03149-.14453.063-.03638.08252-.02338a3.90931,3.90931,0,0,0-.06128-1.79223l.12683-.0738a18.03181,18.03181,0,0,0,.135-2.23767c.01367.00959.037.02954.05163.10236-.10632-1.02557.43653-2.42621-.00024-2.81867L59.087,38.755c-.057.72608-.152.14978-.23328.14637.00635-.12891.01331-.26569.01953-.39313.04883-.16138.1073-.22821.11133.00684l-.025.06488c.22912.16339.12439-1.07758.28357-1.04853.05371-1.71228.24731-3.37768.31848-4.98217l-.18994.181.03186-.55915c.04822-.14593.15051-.19439.12781.20465a.89754.89754,0,0,0-.10071-.6831c.10388-.78021.20166.309.21509.06939l-.00123-.3258-.02417.07306a1.608,1.608,0,0,1-.11572-.76935c.04822-.303.11878-.15411.13037-.27356.01294.00092.02051-.03937.01221-.18323l.04248-.705-.15515.28027c-.05933-.31323.03284-.6626-.14319-.33923a17.60725,17.60725,0,0,0,.28-2.92054c-.09473-.43115-.038-.86761-.1217-1.45288-.01441.14893-.14685.24469-.21912-.2265.39221.09577-.08691-.9126-.15137-1.37365.02722.20635-.16321-.11634-.3938-.36414-.23046-.25079-.4707-.43439-.35205-.15759-.27124-.31147.07581-.10852-.10351-.38471A8.00352,8.00352,0,0,0,55.33848,21.094c-.02722.03888.15015.14856-.11242.15625-.18677-.11743-.38037-.2279-.57923-.33129-.2406-.01209-.246.21746-.65576.0263.05738.04151.141.10388-.01513.106a7.75219,7.75219,0,0,0-3.4867.25421,8.29552,8.29552,0,0,0-3.2041,1.78076c.28992-.21539.13916-.03558-.01294.1781.119-.12426.085.06763.15344.07569a3.933,3.933,0,0,0-.6466.83636C46.8314,24.40263,46.495,25.27024,46.6682,25.399Zm.44348,20.63763.00635.01282C47.08116,46.32444,47.09605,46.22679,47.11168,46.0366ZM59.593,30.40281l-.03589.11017C59.532,30.26274,59.56065,30.33311,59.593,30.40281ZM47.95042,50.78092c.02906.65314.05738,1.2995.08252,1.91065a1.95429,1.95429,0,0,1-.22534-.61133c.04419.02148.09741-.06653.12158-.10913C47.92088,51.49131,47.93956,51.14359,47.95042,50.78092Zm-.4834-2.43676c-.0747-.60688.12659-.26954.09266-.37409-.00525-1.14606-.40381-.95874-.28663-1.915.12037-.38305.26648-.02942.36023-.11749a7.05735,7.05735,0,0,1-.03942,1.10217l.04821-.417a1.78171,1.78171,0,0,1,.06421.66821,4.39289,4.39289,0,0,0,.03223-.98455c.05664,1.13159.10986,2.22515.15771,3.25933A2.68594,2.68594,0,0,1,47.467,48.34416Zm.23523,7.0382a9.16991,9.16991,0,0,1,.23768-1.10455c.04418-.09045.0979-.07782.15429-.03192.01612.42291.03052.82886.04456,1.229A.50653.50653,0,0,1,47.70225,55.38236Zm.0918,3.00965.07727-.13642-.11365-.54095a9.06306,9.06306,0,0,1,.47425.83691c.00708.29242.01233.56513.01782.8404A2.775,2.775,0,0,1,47.79405,58.392Zm1.34363,5.95648a.36994.36994,0,0,0,.1394-.19373,2.942,2.942,0,0,0,.3147.22663A2.909,2.909,0,0,1,49.13768,64.34849Zm8.51977-.89734c-.07421.05591-.07006-.03534-.067-.16669l-.03919.12671c-.09424.07929-.13855.0791-.15905.04065a2.33136,2.33136,0,0,0,.19714-.2865c0,.04.0011.08173.0011.11914a2.28225,2.28225,0,0,0,.061-.25311l.00159-.00342a1.413,1.413,0,0,0,.24438-.25763A2.37835,2.37835,0,0,1,57.65745,63.45115Z"/><path class="cls-2" d="M46.82811,42.46909l.0448.36286a1.00458,1.00458,0,0,1,.02746-.33C46.87242,42.51139,46.83433,42.58293,46.82811,42.46909Z"/><path class="cls-2" d="M47.21605,42.113c.10034-.03363.05762-.26025.02942-.51434l.00171.04511C47.10264,41.575,47.15953,41.84464,47.21605,42.113Z"/><path class="cls-2" d="M47.24,41.53965a1.91449,1.91449,0,0,1-.01123-.23547C47.17088,41.27683,47.22044,41.40025,47.24,41.53965Z"/><path class="cls-2" d="M47.04967,44.75187c.0216-.12189-.13233-.06915-.09351-.13946C46.82213,44.48423,47.14171,45.40843,47.04967,44.75187Z"/><path class="cls-2" d="M47.54405,43.49809c-.02075.00726-.035-.04383-.04675-.10688.00513.251-.00977.52729.027.51575Z"/><path class="cls-2" d="M47.4973,43.39121a1.33,1.33,0,0,0-.03272-.32666A3.04923,3.04923,0,0,0,47.4973,43.39121Z"/><path class="cls-2" d="M47.66075,48.28184l.05225.44263c.04455.04358.06628-.07843.04321-.24317C47.7224,48.37614,47.69969,48.21208,47.66075,48.28184Z"/><polygon class="cls-2" points="48.082 54.808 47.827 54.829 48.088 54.921 48.082 54.808"/><path class="cls-2" d="M46.45018,24.83055c-.04505.12371-.08325.24914-.11633.376l.12158-.23486Z"/><path class="cls-2" d="M46.51781,25.88255a.68044.68044,0,0,1,.02441-.30707l-.16553.08Z"/></g></g></svg>