<svg xmlns="http://www.w3.org/2000/svg" viewBox="0 0 104.16936 117.48161"><defs><style>.cls-1{fill:#1d1d1b;}.cls-2{fill:#c3c66e;}</style></defs><title>Exclamation_04</title><g id="Layer_2" data-name="Layer 2"><g id="Layer_1-2" data-name="Layer 1"><path class="cls-1" d="M103.12093,52.5457a50,50,0,1,0-60.06739,48.98584l4.3429,6.32794,5.72449,8.34107,5.72442-8.34107,4.3429-6.32788A50.01724,50.01724,0,0,0,103.12093,52.5457Z"/><path class="cls-2" d="M100.66936,52.91178c.0581-.46267-.36853-.29678-.44056-.36609C100.28593,53.31294,100.77922,52.89457,100.66936,52.91178Z"/><path class="cls-2" d="M100.94072,60.67326l-.15051-.16464a9.12358,9.12358,0,0,1,.21362,1.2041A7.54966,7.54966,0,0,0,100.94072,60.67326Z"/><path class="cls-2" d="M99.16154,67.72553c.86951-.44937.7544-2.53656,1.21424-3.749l.20508-.17184-.43177-.7c-.1427.77018-.17407,1.69324-.34948,2.52405A9.00434,9.00434,0,0,1,99.16154,67.72553Z"/><path class="cls-2" d="M96.3759,70.75758c.34534-.10626-.09229.84479.41748-.77683a1.38106,1.38106,0,0,1-.12647.12046C96.61259,70.2432,96.531,70.43638,96.3759,70.75758Z"/><path class="cls-2" d="M96.66691,70.10121c.26673-.69217-.40307.3605,0,0Z"/><path class="cls-2" d="M95.42107,73.3043l.22668-.97626c-.23767.11469-.67566.86252-.63269.52637C94.6768,73.79572,94.9146,73.69309,95.42107,73.3043Z"/><path class="cls-2" d="M95.454,74.36888l.14368-.50345C95.49455,73.91456,95.41118,74.02284,95.454,74.36888Z"/><path class="cls-2" d="M95.90068,72.80543l-.303,1.06c.16895-.07486.38416.01257.15906-.47827C95.9052,73.55946,95.82292,73.27775,95.90068,72.80543Z"/><path class="cls-2" d="M96.25737,72.29493c.35229-.44617.71973-1.07672.56213-.0516C97.46208,70.43873,96.88676,70.51374,96.25737,72.29493Z"/><path class="cls-2" d="M99.74846,68.31638l.43188-.66918-.02649-.70676C100.16594,67.29386,99.52177,68.29133,99.74846,68.31638Z"/><path class="cls-2" d="M92.06731,78.39659c.09362.13616.51269-.0543.71521-.011l.24206-.709C92.73674,77.93665,92.28032,78.48039,92.06731,78.39659Z"/><path class="cls-2" d="M92.78252,78.3856l-.3667,1.06988C92.96391,78.64356,92.956,78.42475,92.78252,78.3856Z"/><polygon class="cls-2" points="96.075 74.892 96.426 73.033 95.919 75.209 96.075 74.892"/><polygon class="cls-2" points="89.632 81.707 89.723 81.004 89.484 82.201 89.632 81.707"/><path class="cls-2" d="M87.90153,83.81455c.08338-.52844-.77685.12775-.59289-.3453a7.25331,7.25331,0,0,0-.91309,1.789A4.47724,4.47724,0,0,1,87.90153,83.81455Z"/><path class="cls-2" d="M85.928,86.14588a6.93109,6.93109,0,0,0,.46753-.88766A3.66509,3.66509,0,0,0,85.928,86.14588Z"/><path class="cls-2" d="M91.2426,80.90977a1.22794,1.22794,0,0,0-.86316.4216l.59766-.08182C91.058,81.14594,91.14958,81.02873,91.2426,80.90977Z"/><path class="cls-2" d="M90.99724,81.24577l-.02014.00378c-.29126.36517-.49329.6185-.57984.72705C90.473,81.88435,90.65349,81.66441,90.99724,81.24577Z"/><path class="cls-2" d="M91.30961,80.82441l-.067.08536C91.30131,80.90183,91.3278,80.89021,91.30961,80.82441Z"/><path class="cls-2" d="M94.32756,77.24821c-.14111.66815-.66138,1.97046.35889,1.03931C94.68974,77.7356,94.10954,78.26356,94.32756,77.24821Z"/><path class="cls-2" d="M92.06547,80.71177c.25769-.29706.53968-.57831.77918-.88986-.10559-.044-.35327.04065-.28015-.29755C92.43071,79.93946,92.231,80.31227,92.06547,80.71177Z"/><polygon class="cls-2" points="91.826 81.251 92.065 80.712 91.773 81.038 91.826 81.251"/><path class="cls-2" d="M87.602,85.02088a3.85971,3.85971,0,0,1-.99975,1.35749,8.02341,8.02341,0,0,0,1.48547-1.36023C88.05144,84.85746,88.065,84.48167,87.602,85.02088Z"/><path class="cls-2" d="M89.33928,83.26472l-.05615.09872C89.35649,83.33586,89.40239,83.30247,89.33928,83.26472Z"/><polygon class="cls-2" points="81.984 90.387 82.109 90.387 82.081 90.314 81.984 90.387"/><path class="cls-2" d="M88.221,84.98869a1.68382,1.68382,0,0,0,.613-.913,11.43406,11.43406,0,0,1-.74634.94248C88.10417,85.09031,88.12822,85.12336,88.221,84.98869Z"/><path class="cls-2" d="M84.83574,87.44889a8.16233,8.16233,0,0,0,.78662-.41873C85.344,87.10633,84.82707,87.304,84.83574,87.44889Z"/><path class="cls-2" d="M89.08073,83.41166l.03553-.06784C88.9373,83.4054,88.985,83.41953,89.08073,83.41166Z"/><path class="cls-2" d="M89.08073,83.41166a3.39,3.39,0,0,0-.2467.664,6.0179,6.0179,0,0,0,.4491-.71222A.74473.74473,0,0,1,89.08073,83.41166Z"/><path class="cls-2" d="M82.07439,93.73069c-.077-.19092.12731-.54193.48571-.906a3.52647,3.52647,0,0,1,1.44983-.97547c.73584-.96441-.69909-1.48822-1.90136-1.462.07653.159.179.28418-.596,1.19708.44311-.07373,2.344-1.21906,1.78723-.31708-1.11633,1.13031-1.0741.71948-1.83179.96424.83289.0379-1.253,1.6975-.57007,2.11456l1.02539-.99048C82.01115,93.43253,81.68889,93.86393,82.07439,93.73069Z"/><path class="cls-2" d="M83.85405,89.05143l.34021-.332a5.60729,5.60729,0,0,1-1.6211.6004c-.49023.63678-.5299.85669-.49169.99463l1.86157-1.409Z"/><path class="cls-2" d="M85.75139,87.2674c.028.56583-.69324,1.4979.136,1.3566,1.01563-.99795.4795-.94635.96228-1.65735-1.57775,1.63178.30518-.61685-1.05188.32477a10.08158,10.08158,0,0,1,.80445-.913c-.33106.23953-.65943.45926-.97986.65179l.05566-.01565.00672-.00821.00305.00644c.107-.027.15283-.02521.05212.02676a.16786.16786,0,0,1-.02795.03839.40784.40784,0,0,1,.03772.18777c-.53382.38086-.15051-.0119-.03772-.18777a.289.289,0,0,0-.02417-.06515l-.00977.00177c-.49353.56384-.9707,1.15228-1.48376,1.70489A10.818,10.818,0,0,0,85.75139,87.2674Z"/><path class="cls-2" d="M94.80327,79.8361a.10541.10541,0,0,1-.1239.00851C94.64238,80.00187,94.64152,80.07078,94.80327,79.8361Z"/><path class="cls-2" d="M94.07133,80.50666a1.363,1.363,0,0,1,.30506-.83413c.36389-.33323.17163.115.303.17208.08447-.347.36218-1.15075-.36878-.38681l-.03882.17108c-.59692.73423-1.76538,1.36265-1.718,1.195A2.93171,2.93171,0,0,0,94.07133,80.50666Z"/><path class="cls-2" d="M90.09843,84.27064l-1.12475,1.56854.93261-.48038-.20043-.11215C90.50554,84.48805,90.13872,84.48383,90.09843,84.27064Z"/><polygon class="cls-2" points="81.688 90.349 81.604 89.834 81.15 91.018 81.688 90.349"/><polygon class="cls-2" points="79.747 91.794 79.598 91.417 79.202 91.968 79.747 91.794"/><path class="cls-2" d="M5.03575,31.79731l.15894-.59085A3.63265,3.63265,0,0,0,5.03575,31.79731Z"/><path class="cls-2" d="M3.46843,35.88383l.14813.16247C3.58385,35.82246,3.53752,35.71858,3.46843,35.88383Z"/><path class="cls-2" d="M36.78593,97.13291c-.31421-.30346-.62671-.6596-.86792-.88336-.23144-.24878-.39721-.35895-.43786-.13306l.06079.50177A3.91494,3.91494,0,0,1,36.78593,97.13291Z"/><path class="cls-2" d="M6.25566,70.23921l-.02856.27459c.217.13413.42028.25971.60461.37366C6.65776,70.69166,6.46153,70.4709,6.25566,70.23921Z"/><path class="cls-2" d="M4.34782,70.30213,4.26323,69.1164A6.41224,6.41224,0,0,0,4.34782,70.30213Z"/><path class="cls-2" d="M18.82262,12.40046l.24462-.817C18.23662,12.33817,18.748,12.17585,18.82262,12.40046Z"/><path class="cls-2" d="M57.56987,105.51994a9.57035,9.57035,0,0,0-1.23975,1.34393C57.03,106.28422,57.73711,105.91471,57.56987,105.51994Z"/><path class="cls-2" d="M8.69084,35.08418c.04236-.34555.01-.51493-.083-.54181C8.557,34.89826,8.56706,35.113,8.69084,35.08418Z"/><path class="cls-2" d="M55.146,108.5919c.108-.08081.19714-.17182.301-.25836a9.12151,9.12151,0,0,1,.88305-1.46967A3.0944,3.0944,0,0,0,55.146,108.5919Z"/><path class="cls-2" d="M95.71745,21.976c.022.06195.05982.1283.07544.18756C95.852,22.14485,95.80253,22.07285,95.71745,21.976Z"/><path class="cls-2" d="M100.69365,45.82856c-.06116-.22189-.11792-.58969-.17652-.93576A3.60212,3.60212,0,0,0,100.69365,45.82856Z"/><path class="cls-2" d="M71.11967,96.24528c.4563-.23456.05579-.07727,0,0Z"/><path class="cls-2" d="M74.13017,96.7841a.28987.28987,0,0,0-.10376.27685A.37062.37062,0,0,1,74.13017,96.7841Z"/><path class="cls-2" d="M54.28776,114.61442l-.02746.03723C54.37871,114.62931,54.3582,114.63065,54.28776,114.61442Z"/><path class="cls-2" d="M71.90092,96.113a4.73252,4.73252,0,0,0-.64953.14837A4.88887,4.88887,0,0,0,71.90092,96.113Z"/><path class="cls-2" d="M71.72514,95.96684l.4253-.14337C72.1801,95.73118,72.11,95.71256,71.72514,95.96684Z"/><path class="cls-2" d="M70.47758,96.55784a5.73449,5.73449,0,0,1,.77381-.29645c-.10315.01392-.15088.00843-.13172-.01611C70.98454,96.31114,70.79375,96.404,70.47758,96.55784Z"/><path class="cls-2" d="M56.2653,1.38838c.03577.01553.07752.02645.11634.04705C56.95305,1.2841,56.70537,1.3003,56.2653,1.38838Z"/><path class="cls-2" d="M22.3549,94.48057c.02326.01282.04077.01233.06275.023l-.05616-.0639Z"/><path class="cls-2" d="M20.57024,93.476a2.35955,2.35955,0,0,1,1.79125.96369l.23035-1.4137Q21.59722,93.26366,20.57024,93.476Z"/><path class="cls-2" d="M10.03361,22.59315a10.37515,10.37515,0,0,0-1.12927.97107,7.96969,7.96969,0,0,1,.71027-1.92945c.143-.348.06439-.37976-.5716.01526.247.23749.165.64383-.0755,1.1348a14.27222,14.27222,0,0,1-.90545,1.73892C7.359,25.7454,6.66,26.96958,7.20463,27.3787a9.41345,9.41345,0,0,0-.68322.70468c.12994-.23816.07831-.31494.20752-.55038-1.3833,1.36572.27514,1.68371-.90973,3.70026-.44782.69171-.87775,1.13336-.78345.564-.1778.58893-.23486,1.22479-.35535,1.82953-.20709.48831-.38318.28317-.176-.206l-.85694,2.65756-.03088-.03208c.05737.44043.07,1.38157.12323,1.84906-.36206.62336-.05029-.38119-.25726-.2565l-.06537,1.57019c-.496.5152-.50885-.80618-.19208-1.82788-1.66559,1.02979.008,1.324-1.53369,4.15808L1.888,40.07481a3.12648,3.12648,0,0,0-.98181,1.4429c-.233.58652-.35382,1.28714-.7312,2.083.15436-.17911.58161-.96408.9773-1.47.4093-.50522.80688-.73044.79724.12121a3.78319,3.78319,0,0,0-.18323,1.99469c-.47791-.06927-.49548.82858-.63391,1.92768l-.6236-.15284c-.00506,1.22052.33649,1.15821.59156,1.88794A2.036,2.036,0,0,1,.02708,49.77781c-.20971,2.15372.86756-1.44284.86109,1.09845-.39044,1.76736.00879,3.03445.46863,5.1145-.16388,1.2504-.40009-.1893-.56269.26663.19068.35578.36316.70951.56848,1.057.02283.26675-.14453.196-.22906.15952.31787.89691.64624.01693,1.00812,1.42114.761.26666-.69336,3.10379.56854,4.69943-.081.46927-.42951-.12405-.64215.05939a12.45621,12.45621,0,0,0,2.07867,3.71005l.11652,1.75253c.09381-1.35281,1.06274.02341,1.99243,1.12281.0387-.47745.12262-.89679.14209-1.164a21.6501,21.6501,0,0,0,1.10236,1.87836c.00189.278-.28376.16333-.6684-.0661.10571.117.208.22672.29456.309.07782.80268-.41456.58029-.96326.19126.014-.29474.03766-.589.06409-.874-.5802-.35415-1.15772-.69235-1.46528-.45984a3.66983,3.66983,0,0,1,.42786.62168c-.15369-.09567-.27753-.14823-.31171-.06391-.034.09382.18842.261.48023.53864l-.4671.734.31042.00915c.246.95822.46381,1.93921.74512,2.89972a46.25894,46.25894,0,0,1,5.34479,5.24411c-.86866-.395-.80921.31818-1.3498.62238A2.4365,2.4365,0,0,0,9.05968,79.035c-.25245-.28283-.55225-.56958-.80433-.90259a5.84665,5.84665,0,0,1-.64129-1.10382c.35675.83417.00812.80362-.18988.647A29.64309,29.64309,0,0,0,9.52476,80.0312c-.46582.21164.03016.75854.29145,1.56152.2619-.54394.67791-.12732,1.2171.47455a22.25559,22.25559,0,0,0,1.66693,1.8269c-.218.269-.67188.23957-1.53479-1.03549.4433,1.80268,2.21436,1.04944,2.77093,2.69629-.254-.27148-.351-.44971-.56665-.46274.786.473,2.03583,2.18759,1.48273,2.01984l-.25427-.27277c.39227.4812.9046,1.07407,1.46558,1.6865.59185.58209,1.2644,1.15234,1.892,1.66858a12.15806,12.15806,0,0,0,1.73572,1.23327c.52374.25354.92889.36322,1.13538.25586a3.89762,3.89762,0,0,1-1.13672.62494q1.332.147,2.61767.25446a23.54838,23.54838,0,0,0,2.56079.12506c-.74487.37475-.50592,2.64471-2.45092,1.81561a5.80924,5.80924,0,0,0,2.16217,1.41736c-.2843-.31439-.24372-1.43176.24615-1.18549A10.27306,10.27306,0,0,0,26.6616,97.2581c-.45-.42749.7287-1.08405,1.52442-.60413-.21387.07782-.48724,1.02258-.85364.9566l2.60907.15332c-.605-.1018-.5332.79438-.20294,1.338-.14588-.26563,1.87646.87774,2.50537,1.04059l-.818-.64911c2.40417,1.2525,3.01092-.33423,5.43408.53589a.872.872,0,0,0,.02051,1.66906c.38891-.185,1.239-.57824,2.27331-1.00067a11.73743,11.73743,0,0,1,1.64856-.56543,4.65007,4.65007,0,0,1,1.94946-.13769c.15442.15191.29041.29876.41785.44372l.60156.054c.13159.123.25708.26044.389.39453l.80969.84833c-.38708-.181-.89038-.42585-1.3927-.62067-.06372-.02331-.124-.05066-.1903-.06848l-.27015.05322-.52612.11536c-.34253.08069-.66553.16919-.953.26562a21.99368,21.99368,0,0,1-3.51294.79431c.89831.52643.16174.44989,1.64477.799.44678.43029-.93005.24932-1.37573.15509l1.71192.5332.85583.26532.136.08276c.106-.29065.45105-.4989.67639-.34387.1333.05768.2511.09918.41308.17706.20765.1446.37757.20649.47474.10059-.10279-.09851-.23938-.24615-.31446-.30426l-.2019-.14032q-.19611-.13166-.36853-.22913a4.59008,4.59008,0,0,0-.46912.05976l-.18469.045a.49987.49987,0,0,1-.18054,0l-.24439-.01617c.00159-.17243.16651-.34058.44617-.4856a2.01512,2.01512,0,0,1,.80151-.43085q.13862-.03835.29578-.06683l.161-.02564a.4106.4106,0,0,1,.118.05317,2.91716,2.91716,0,0,1,.48267.34637,5.80859,5.80859,0,0,1,1.03992,1.27643c.12536.65527-1.24537.30023-1.40186.46838a5.57361,5.57361,0,0,1,1.64441,1.905l-.873-.637c.54834,1.24591,1.97,1.29553,2.35047,2.98394.27844.48163.22363,1.85566.606,1.70954.12049-1.18006,1.97705-2.66876,2.79334-2.49744a24.35574,24.35574,0,0,1,1.0824,3.54279c.01306.5506-.428.54138-.96216.37768-.49036-.09985-.98157-.21978-.97449.247a.60079.60079,0,0,1,.40759.09369,3.31208,3.31208,0,0,1,.4812.34772c.329.75653-.62719.09149.46436,1.53528.58044-.35889,1.97412,2.97839.79639.14227.98767,1.09479.90295,1.56317,2.01916,3.13721-.1615-.67438.25305-.85651.644-.95069a20.58592,20.58592,0,0,1,.84668-2.33728.39491.39491,0,0,0,.32019.42078c1.45374-2.00964,2.57618-3.09814,3.89173-5.00458.2594-.08648,1.07043-.91516,1.03711-.34814a3.32936,3.32936,0,0,1,.47925-1.34894c1.28552-.83148-.84546,1.39416.3479.90674-.27442-.29993.618-1.86609,1.00219-2.86347-.68542-.08246-1.45617,1.91468-1.84167,2.91309-.69849-.47345-.40125-2.4682.677-4.729.93994-1.73981.93213-.39423,1.02625-.74366a9.711,9.711,0,0,0,.66369-1.00189c.17053-.2998.36707-.67261.49732-.96985.1394-.31073.25219-.60388.35449-.889a2.69029,2.69029,0,0,1,.574-.4295,7.30689,7.30689,0,0,1,.64038-.38165c.11878-.0622.24451-.12323.37976-.18274l.34559-.15027a4.74513,4.74513,0,0,1,1.65893-.31073c1.2926.23144.34363,1.0163.70215,1.32629a5.77224,5.77224,0,0,1-1.91968.38605,8.3356,8.3356,0,0,0-1.77.20837l1.5426-.12445c-.467.37183-1.58129.48169-1.86022,1.096a1.93926,1.93926,0,0,0,.42187-.361l.06213-.06549.10328-.01319.21643-.03161.47009-.08234c.64258-.12127,1.46826-.31714,2.33911-.52563a26.76439,26.76439,0,0,0,2.6532-.7569,22.603,22.603,0,0,1,2.42688-.6214c.41443-.34466,1.13208-.894.67444-.91907-.26587.14026-.52454.3-.79749.42475-.47265-.077-.11438-.324.183-.6026.303-.26715.57727-.49.02734-.35578a10.69458,10.69458,0,0,1,3.56811-2.21533l.5531.395c-.10986-.12988-1.119.198-1.47814.53149.5299-.46618,2.65539-.45855,2.95141-1.51617l-1.224.18939a14.66788,14.66788,0,0,1,3.12268-2.719c-.86975-.14972-.24182.25067-1.46325.20361,1.2268.32947-3.22657,1.7312-1.53321,1.85706a2.74321,2.74321,0,0,0-1.55627.208,4.15208,4.15208,0,0,1-1.75195.275c.12243.16693.6018.15576-.53479.5517a1.2178,1.2178,0,0,1-.16932.27038l-.0802.01917.07019-.00507c-.03564.049-.03735.0567.02588-.00244a1.44388,1.44388,0,0,1,.68616.03155c-.36169.661-2.132,1.47791-2.69348,1.86231-.72119.1466.20679-.31641-.243-.38977l-.80689.65808c-.24646-.3905-2.03943-.08453-.53259-.88385l-1.43311.475a7.12418,7.12418,0,0,0-2.80969.56458,4.89492,4.89492,0,0,0-.86218.24957c-.34094.124-.63623.25373-.85535.35614-.43738.20471-.60193.30841-.16516.018-.7793.03546-1.00256.84637-1.38049,1.41015l-.5249.88776-.3003.56043-.10559-.04456c-1.44214,2.00128-2.25964,4.60669-4.52331,6.47266-.18824.37439-.37513.758-.62635,1.18225-.12573.21209-.26733.43432-.43335.67059a1.53659,1.53659,0,0,1-.2622.29321,2.78492,2.78492,0,0,1-.3114-.233c-.04212.18122-.23218.2865-.35267.34973-.12622.07172-.20056.12714-.2146.50531a4.82616,4.82616,0,0,0-.12561-.48925c-.08032-.4889-.1344-.514-.26818-.5965a1.24235,1.24235,0,0,1-.21119-.14075.51251.51251,0,0,1-.089-.09906c-.11523-.16931-.24487-.37317-.33544-.53937l-.45838.22864a27.46092,27.46092,0,0,0-2.59973-3.22455l-.31384.33484c-1.08509-.93036-1.74634-3.10791-3.02027-4.883.22535.02551.50183.50769.63843.88958a5.77313,5.77313,0,0,0-1.10925-2.18817l-.49146-.67486-.251-.327c-.0929-.09522-.26783-.07129-.39746-.11139l-1.67676-.26941-.40051-.05853-.24207-.01837-.48132-.04035c-.31909-.02972-.63416-.06659-.94007-.12a3.47239,3.47239,0,0,1-1.6632-.65369,2.29078,2.29078,0,0,1-1.28992-.45148.44751.44751,0,0,0,.13977.02332c-.05286-.02393-.13355-.05273-.2168-.08051-.20971-.15387-.421-.32165-.65735-.47882a3.19087,3.19087,0,0,0,.53943.43976,12.5372,12.5372,0,0,0-1.70874-.40008l-.07568-.55433-.14063-.04779c-.50634-.42065-.55157.00342-.378.47724a4.17623,4.17623,0,0,0-.89929-.0827c-.15918-.9217-1.6778-.4596-1.968-1.49408-.5816.19555-2.99353-1.28913-3.741-.71619.03619-.10651-.10724-.24548.20819-.0799a6.12976,6.12976,0,0,0-1.83527-1.07855l.07465-.68622-1.79242-.2052c-.60279-.84954-.79712-1.238.2716-1.09332-2.29077-.78339-1.63458-.92181-3.65472-1.58435l.3302-.2431c-.58362-.39771-1.74744-.80493-1.84332-1.34-.32019-.82721-1.76722-2.1311-3.21277-3.87482-.37244-.42434-.75757-.86316-1.14673-1.30648-.3429-.48017-.68927-.96521-1.03162-1.44458a13.95086,13.95086,0,0,1-1.67529-2.88129c-.55865,1.29684-.55817-1.86093-1.4093-1.515.10907-.34228-.05426-.89019.49859-.46612a7.25682,7.25682,0,0,1-1.17816-2.16733,3.38305,3.38305,0,0,0-1.23431-1.6207c.14215-.32568.56653.21225.6178-.0429-.12488-.11908-.52649-.46415-.44361-.73539.07215-.25988.313.18235.58338.40628C9.657,70.948,8.83226,71.05955,8.02318,71.22727a2.39041,2.39041,0,0,0-1.07965-2.15854c.13079-.44931.20251-1.12753.6867.092-.17029-.73188-1.03467-4.38352-1.59826-4.3165a2.1826,2.1826,0,0,0-.29474-1.19751c-.15674-.818-.24207-1.26328-.32666-1.70456-.09406-.43918-.19532-.87235-.31476-1.68146l-.04346.467c-.84631-.51913-.35028-1.3324-.61749-2.631l.08362.02866a8.047,8.047,0,0,0-.04755-2.1717,5.00473,5.00473,0,0,1,.11932-2.13907l-.472.17591c-.51288-.12406-.41986-.80539-.18591-1.655a6.11941,6.11941,0,0,0,.48541-2.73831l-.30518.61386c-.15228-.48587.23188-1.13754.674-1.761.22431-.3078.45294-.62158.65753-.9024a2.56861,2.56861,0,0,0,.46546-.7659c.12-.18891.09436.33291.11725.61779.97284-2.31665-.576-.38195-.44355-2.21011.3852-.27887.78766.55335,1.03174-.63354a1.64451,1.64451,0,0,0,.07862-.82779A9.64059,9.64059,0,0,1,6.6486,42.328a5.59518,5.59518,0,0,1,.66565-2.92438c-.34185.28278-.68609.57557-.66253-.30685a3.73579,3.73579,0,0,1,.39093-1.0556c.2182-.35892.45251-.74427.68268-1.12287a3.12751,3.12751,0,0,0,.61206-2.2312c.12316-.12967.20788-.16263.27044-.14474A11.50818,11.50818,0,0,1,9.154,32.525a5.06366,5.06366,0,0,0,.33679-1.82156c.4718-.02533.8291-.4068,1.12231-.958a15.76431,15.76431,0,0,0,.90723-1.8909c.56055-1.341,1.06073-2.61722,1.68628-2.17728l1.77008-2.50646.07586.15945a6.88039,6.88039,0,0,0,1.64789-2.98972c.38593-.26977.267.07273.30194.15342a15.70166,15.70166,0,0,0,2.09729-2.08738,13.17893,13.17893,0,0,0,1.48993-2.24343l.51618.20043a2.40788,2.40788,0,0,1,.71179-.66024c.18994-.13535.40118-.29285.6449-.44718l.81518-.45892a20.69712,20.69712,0,0,0,1.78284-1.129c.60107-.41467,1.13934-.939,1.68024-1.39569a.42006.42006,0,0,1-.14136.34509,9.746,9.746,0,0,1,2.12823-1.35971,16.01265,16.01265,0,0,1,2.37531-1.00018c1.55591-.53467,2.78845-1.08972,2.95788-2.17337.578-.42313,1.19635-.76666,1.80158-1.1582-2.631.81231.10193-.871-1.073-.76062,1.00391-.48008,2.84509-.46161,1.618.08633l-.227-.013c-.13781,1.04279,3.31372-.86859,3.458-.13065,5.12122-1.63211,10.4342-1.51944,15.33679-1.33252l-.55005-.76046,1.74768.13061c.44873.193.57178.60172-.6582.50955.62012.44669,2.09253-.24337,2.15137-.39962,1.20215.24731.93078.48462.47522.57492-.46155.13226-1.12464.26077-.75708.28216a6.62587,6.62587,0,0,1,1.00036.03449l-.214-.11954a3.99219,3.99219,0,0,1,2.4231-.214c.9115.287.405.51795.76587.60141-.01086.05072.10742.09342.55518.10532a14.35657,14.35657,0,0,1,2.10827.5177l-.71936-.78214c1.004-.03424,2.00037.547,1.16284-.34411a4.74709,4.74709,0,0,0,1.75476.954c.40235.14782.84559.28881,1.3075.42523.44763.18259.91394.36062,1.37793.53171.9314.33328,1.84607.66055,2.58154.9237a4.63366,4.63366,0,0,1,1.42249.73627,8.74333,8.74333,0,0,1,2.0282.5798,10.466,10.466,0,0,1,2.05468,1.06757c-.29626-.321-.20227-1.02292,1.01563-.18964-.56507.44031-.06995.91181.6217,1.44687.68689.5426,1.6095,1.11337,1.77112,1.8888-.465-1.14466,3.34924,2.30917,2.59949.61483.9032.80976-.24817.44062.28381,1.23081a15.3836,15.3836,0,0,1,3.49487,3.04355c1.09107,1.24572,2.0708,2.68429,3.33069,3.90457.1676-.06482-.00122-.69574.67786-.27133l.4198,2.03186c.47876.49569,1.20117-.08826,1.46655,1.28338.01441-.22735.03455-.57229.36243-.22842a11.0691,11.0691,0,0,1,.61572,1.15628l.6062,1.16385c.41687.76849.85816,1.52383,1.31568,2.2738q.59,1.17805,1.1831,2.36289c.37927.7966.8645,1.55185,1.16528,2.3872a22.72524,22.72524,0,0,1,2.15076,10.32581c.19507-.98743.32153-.37589.443.3374.00977-.47784.43042-.05936.65186-.18823l-.21765,2.99554c.68408.47519.20056,3.13367.84851,3.41666l-.16113-.93225c.80981,1.235,1.56787-1.85306,2.53064-1.76758a2.09309,2.09309,0,0,1-.2594-1.24072,14.30293,14.30293,0,0,1,.10742-1.54947,4.82119,4.82119,0,0,0-.6471-3.44272c.07361-.56039.39441.38425.54847.062a3.93409,3.93409,0,0,1-.97022-2.58694l.13721.12549c-.26514-.93094-.46582-1.73468-.63135-2.48645-.21619-.73594-.42554-1.411-.61194-2.11216a30.25918,30.25918,0,0,0-1.57458-4.92007l-.28821.49325a5.36644,5.36644,0,0,1-.38684-1.5643c-1.10852-.64663,1.10766,2.39191-.0343,1.84675.14856-.74427-.49475-2.2782-1.2743-3.67212-.81164-1.37876-1.58386-2.71781-1.347-3.38086-.759-1.23957-.22144.65262-.99976-.56269l.01538-.475-.53149-.07413c-.51184-.79095-.5011-1.39517-.32178-1.57468a5.69723,5.69723,0,0,0,.61792.67386c-.47693-1.19555-2.1654-2.757-2.38855-3.11615a12.30955,12.30955,0,0,1,.72888,1.21152c-.61718-.77841-1.38269-1.49963-2.10241-2.29224-.73987-.77377-1.43958-1.62213-2.22913-2.37478-.81091-.731-1.6272-1.451-2.44128-2.11856-.411-.32871-.80384-.66553-1.22669-.94486-.43384-.26614-.86487-.51446-1.29138-.73971l.09314.34912a7.957,7.957,0,0,1-2.14551-1.53394,9.16149,9.16149,0,0,0-.78357-.73093,14.16062,14.16062,0,0,0-1.53869-.92019l.127.01483a6.8349,6.8349,0,0,1-2.16711-.95377c.81762.18949-1.0459-1.228-.00245-.93423-3.01538-1.0528-1.57153-.39719-3.77758-.558l-.27234-.54226a7.00205,7.00205,0,0,1-.91541-.0033,13.54693,13.54693,0,0,1-1.45813-.35486c1.32874.14844-.7362-.87179.78467-.76172a9.13224,9.13224,0,0,0-3.66931-1.38864c-1.00037-.20651-1.803-.21933-2.38709-1.00677-1.74328.6112,2.63477,1.26593,1.74427,1.26733.57666.51462-1.42554.4079-2.38929.06757a4.34287,4.34287,0,0,1-1.40869-1.04587,5.88673,5.88673,0,0,0-1.03528-.719,6.33957,6.33957,0,0,0-1.6322-.44553c.26392.04544.29541-.02832.55921.01669-.95862-.41208-2.00367.05146-3.16956-.555-.75024.48166-1.59289-.21146-1.86084.57266a17.51822,17.51822,0,0,1,2.44556.09519c-1.40735-.06156-2.75879.84134-4.97876.27789a4.52442,4.52442,0,0,1,1.33642-.42c-.65466-.26691-1.28686.08993-1.96875-.184C54.51726.438,57.2769,1.14408,58.824.69508c-.69251-.44464-2.88464.40451-2.066-.42844A2.24194,2.24194,0,0,1,54.7675.611,3.76738,3.76738,0,0,0,52.257.8234l.11292-.48046a5.34526,5.34526,0,0,1-1.41114.35693l.94581-.66293c-1.4618.60379-2.903-.32831-4.32142.062,2.99707-.20078.723.52618,2.005.79989a6.22573,6.22573,0,0,1-1.91748.19272A2.65978,2.65978,0,0,1,46.63335.81217c-.61853-.27111-1.32019-.5834-3.36182-.15332.549-.153,2.13464-.0394,1.30249.31034a11.45186,11.45186,0,0,1-2.38037-.1399c-2.648.77765.51269.37235-.55664.94623-1.03052-.33288-1.24585.56211-2.33643,1.03424l-.13708-.46283c-1.54932.23188-1.67261.53833-1.75074.8356-.08337.28913-.12646.55472-1.48205.85117l.88672-1.03577-1.31079.6626.09851-.6203A9.38936,9.38936,0,0,1,32.248,4.48289c.46039.156.16376.8913-1.04919,1.492-.9599.14435.27362-.64114-1.44251.26279a1.45989,1.45989,0,0,1,1.48761-.979c.01184-.18024.26538-.46354.28326-.64429a10.82214,10.82214,0,0,0-2.97961,1.35794,3.08231,3.08231,0,0,1,.74481-.235l-1.11865.91846L27.13194,7.67738c-.46979.07306-.244-.23413-.01452-.53977-.4657.3433-.69147.7395-1.38617,1.21039-.01984-.44659-.28046-.7626.66095-1.54959L24.29344,8.584a3.713,3.713,0,0,0-.78973.11658c-.29084.07459-.528.11334-.426-.05255a8.81185,8.81185,0,0,0-1.99988,1.81186,14.77909,14.77909,0,0,1-2.24743,2.05093,1.75174,1.75174,0,0,1-.41083.64923c-.72205.59537-1.47321,1.08612-2.20587,1.66782a7.5651,7.5651,0,0,0-1.90918,2.34186l-1.37757.47152c-1.05157,1.39814,1.81116-.6799.07624,1.62922-1.06745,1.74783-.92945.22677-1.52033.67742a14.37178,14.37178,0,0,1-.729,1.97471,7.33168,7.33168,0,0,1-1.591,2.12072A5.96474,5.96474,0,0,1,10.03361,22.59315ZM1.96434,42.21342c-.03265-.42481-.10761-1.29056.23743-1.52219C2.63145,41.27268,2.25963,41.55445,1.96434,42.21342ZM6.5648,73.39765a1.74641,1.74641,0,0,1-.40045-1.22818A3.61818,3.61818,0,0,1,6.5648,73.39765Zm59.363,25.045a.21407.21407,0,0,0-.03284.03228C65.03081,98.49668,65.339,98.49619,65.92778,98.44267Zm1.73352-.301c.146-.1217.11365-.18127.02307-.22125-.07764.15607-.44726.29278-.87952.40668C66.95793,98.40763,67.1989,98.41642,67.6613,98.14164ZM61.58293,5.26948l-.31738-.176C62.05693,5.07337,61.81975,5.16419,61.58293,5.26948Z"/><path class="cls-2" d="M4.56847,70.30976a.45161.45161,0,0,1,.19335-.2558C4.637,69.92933,4.54747,69.957,4.56847,70.30976Z"/><path class="cls-2" d="M18.7783,12.55067l.05207-.03989a.20713.20713,0,0,0-.00775-.11032Z"/><path class="cls-2" d="M48.61467,113.11216a1.78357,1.78357,0,0,1-.30652-.88672c-.05444.025-.078.08686-.05041.2041a1.14766,1.14766,0,0,0,.08227.21967C48.40288,112.76835,48.49907,112.92991,48.61467,113.11216Z"/><path class="cls-2" d="M75.777,93.74955l-.90857.64459a2.35171,2.35171,0,0,1,.94861-.34283C75.74113,93.96446,75.47844,93.92289,75.777,93.74955Z"/><path class="cls-2" d="M85.5977,90.60258c.09546-.15192.28369-.22772.36316-.39386l-.1814-.137C85.237,90.55229,84.94157,90.996,85.5977,90.60258Z"/><path class="cls-2" d="M77.47636,94.644c.27234.29114.87049-.12085,1.4823-.65533a1.05836,1.05836,0,0,1-.11816.07879C78.73784,93.45933,78.13982,94.09617,77.47636,94.644Z"/><path class="cls-2" d="M79.10612,93.87364a4.77722,4.77722,0,0,1,.61158-.42029C79.67143,93.21073,79.44279,93.57975,79.10612,93.87364Z"/><path class="cls-2" d="M69.66936,97.16435c.38769-.02277.037-.56079.29248-.474C70.17534,96.07035,67.84807,98.07792,69.66936,97.16435Z"/><polygon class="cls-2" points="78.73 95.48 78.217 95.19 78.02 95.76 78.73 95.48"/><path class="cls-2" d="M72.80241,98.07285l1.24927-.40344c-.05347-.06817.07727-.18017.24683-.29663C73.55742,97.68376,72.7155,97.949,72.80241,98.07285Z"/><path class="cls-2" d="M74.29851,97.37278a2.96606,2.96606,0,0,0,.91662-.50812C75.01945,96.97776,74.577,97.17759,74.29851,97.37278Z"/><polygon class="cls-2" points="77.23 96.477 76.84 96.573 76.01 96.988 77.23 96.477"/><path class="cls-2" d="M60.62724,104.43827l-.69238,1.26264c.059.21759.36658-.04493.61206-.5235C60.64238,104.82688,60.88847,104.35105,60.62724,104.43827Z"/><path class="cls-2" d="M64.10332,102.2349a1.22645,1.22645,0,0,1-.37952-.07757.46513.46513,0,0,0-.28577-.06287l.37525.55072C63.81975,102.40153,63.99162,102.373,64.10332,102.2349Z"/><path class="cls-2" d="M61.96562,105.16917c.0614.21521-.76892,1.99438.22656.47491C62.13359,105.42759,62.82768,104.16337,61.96562,105.16917Z"/><polygon class="cls-2" points="48.665 110.175 48.878 110.471 49.688 109.852 48.665 110.175"/><path class="cls-2" d="M33.70463,101.5493c1.59864.83178.62165-.44349,2.03455.37164.47241-.09131-1.154-.66181-.67834-.71741C33.95769,101.11247,33.50053,100.72569,33.70463,101.5493Z"/><path class="cls-2" d="M35.06084,101.20353a5.55531,5.55531,0,0,0,.56591.03186A2.52419,2.52419,0,0,0,35.06084,101.20353Z"/><polygon class="cls-2" points="100.524 49.686 100.365 50.732 100.673 50.047 100.524 49.686"/><path class="cls-2" d="M101.38139,51.66447l-.63611.25662.62024.6246C101.32426,52.30747,101.24419,51.84806,101.38139,51.66447Z"/><path class="cls-2" d="M.18925,45.16371l.14148.10922c.1944-.1554.24762-.42194.356-.956Z"/><polygon class="cls-2" points="5.084 30.23 4.955 30.468 5.705 30.263 5.084 30.23"/><path class="cls-2" d="M11.44816,18.60264c-.3471.42075-.62878,1.01407-.97589,1.4361C11.10313,19.01991,12.10417,18.94743,11.44816,18.60264Z"/><path class="cls-2" d="M48.28227,83.35124c.09192.05737.134-.067.11682-.04572C48.36137,83.25578,48.30241,83.34464,48.28227,83.35124Z"/><polygon class="cls-2" points="49.277 83.813 49.458 83.814 49.317 83.789 49.277 83.813"/><path class="cls-2" d="M49.68718,84.0048l-.00073-.04889-.14185.07929c.18372.09631.45776.14471.55945.25445C50.11259,84.09135,49.79326,84.1536,49.68718,84.0048Z"/><path class="cls-2" d="M50.31157,84.81419a.67291.67291,0,0,1,.09106.04468c-.00268-.07709.1283-.00879-.10437-.06977Z"/><path class="cls-2" d="M50.31157,84.81419c-.09815-.03791.03906.08111,0,0Z"/><path class="cls-2" d="M50.62309,84.96708c.01221.04858.12537.10126.072.11292.14624.01837.13074-.03186.07825-.12226Z"/><path class="cls-2" d="M50.93754,84.87614l-.0747.00342C50.86882,84.89958,50.88469,84.911,50.93754,84.87614Z"/><path class="cls-2" d="M50.79228,84.875c.02905-.04547-.01514-.00787-.08765.0047l.15821-.00018C50.85356,84.84648,50.87163,84.79093,50.79228,84.875Z"/><path class="cls-2" d="M50.64592,84.69456c-.24341-.07507-.26209.05688-.0105.12976C50.57817,84.761,50.49809,84.70414,50.64592,84.69456Z"/><path class="cls-2" d="M50.07316,84.07072c.04834-.004.13733.12952.15857.07672l-.05932-.08875Z"/><path class="cls-2" d="M51.571,85.28062c.01635-.03534-.02344-.10846-.02234-.1579l-.10742.02051C51.485,85.18125,51.57609,85.22373,51.571,85.28062Z"/><path class="cls-2" d="M51.54863,85.12272l.15869-.0329C51.58024,85.055,51.54985,85.08012,51.54863,85.12272Z"/><path class="cls-2" d="M50.75224,84.745c.10547-.00769.21045-.02105.31421-.03747l-.04382-.01215C50.933,84.716,50.84331,84.73155,50.75224,84.745Z"/><polygon class="cls-2" points="52.043 85.461 52.213 85.349 52.141 85.386 52.043 85.461"/><path class="cls-2" d="M52.5219,85.41129c-.06934.06818.077.12867.00634.16877a.61075.61075,0,0,0,.28137-.11347A.34257.34257,0,0,1,52.5219,85.41129Z"/><path class="cls-2" d="M52.008,85.16441l-.057-.01087a.17594.17594,0,0,0,.09864.12567Z"/><path class="cls-2" d="M52.00651,85.16068l.00147.00373.12292.02575Z"/><path class="cls-2" d="M51.49834,84.71079c-.07593.05555.006.13092-.14026.18506C51.45708,84.86057,51.63884,84.8419,51.49834,84.71079Z"/><path class="cls-2" d="M51.712,85.04923l.177-.0415-.14612-.05316C51.74,84.98283,51.75944,85.029,51.712,85.04923Z"/><polygon class="cls-2" points="51.969 84.986 51.889 85.008 51.944 85.026 51.969 84.986"/><path class="cls-2" d="M52.6812,85.276a.4824.4824,0,0,1,.22583-.04657,1.49753,1.49753,0,0,0-.26441-.04614C52.62834,85.216,52.58537,85.27342,52.6812,85.276Z"/><polygon class="cls-2" points="53.722 85.214 53.707 85.195 53.706 85.214 53.722 85.214"/><path class="cls-2" d="M52.48283,85.19108a.8267.8267,0,0,1,.15979-.00781c.00659-.01471.0083-.02466-.0133-.02082A.13711.13711,0,0,0,52.48283,85.19108Z"/><path class="cls-2" d="M53.05986,85.2819c.03332.03455.103.08868.11548.0611A.81919.81919,0,0,0,53.05986,85.2819Z"/><path class="cls-2" d="M52.38823,85.24613a.36019.36019,0,0,0,.0946-.055.48472.48472,0,0,0-.114.02313A.129.129,0,0,1,52.38823,85.24613Z"/><path class="cls-2" d="M53.41484,85.201l-.06262.01373a.63433.63433,0,0,1,.22546.12647c.10437-.05567.12317-.09388.12805-.12726-.10424.003-.20837.00634-.312.00238Z"/><path class="cls-2" d="M53.06987,85.21684c.05078-.10517.19726-.15216.10718-.268-.17749.00372-.12549.0874-.2345.13178.2926-.02039-.08594.0581.12524.12384a.72709.72709,0,0,1-.16076.025,1.1208,1.1208,0,0,1,.15283.05249l-.00671-.00684-.00147.00031.00037-.00165c-.0127-.01373-.01673-.022-.00244-.01385l.00622-.00208a.13963.13963,0,0,1,.014-.0404c.08569.024.0133.02826-.014.0404l-.00378.01593.0011.00134.29907-.06036A1.179,1.179,0,0,0,53.06987,85.21684Z"/><path class="cls-2" d="M51.69841,84.51988a.03428.03428,0,0,1,.00329.02624C51.72221,84.537,51.73064,84.52958,51.69841,84.51988Z"/><path class="cls-2" d="M51.6591,84.6696l.02283-.01014c.10242.06012.22436.22248.20251.23182a.86574.86574,0,0,0-.08752-.284c-.02283.0105-.04846.04913-.11145.02441-.04944-.04358.0116-.05035.01623-.08557C51.65727,84.5659,51.547,84.5922,51.6591,84.6696Z"/><path class="cls-2" d="M52.42058,84.91477l.24255-.03283-.113-.101.00135.05622C52.41948,84.80351,52.44182,84.87309,52.42058,84.91477Z"/><polygon class="cls-2" points="53.73 85.381 53.863 85.21 53.755 85.265 53.73 85.381"/><polygon class="cls-2" points="54.081 85.317 54.16 85.247 54.081 85.217 54.081 85.317"/><path class="cls-2" d="M59.89336,79.90959l-.11341.0108a.25936.25936,0,0,1-.05591.17621C59.83769,80.013,60.00529,79.91886,59.89336,79.90959Z"/><path class="cls-2" d="M57.14836,83.89951a.6621.6621,0,0,0,.22119-.09521C57.24211,83.82774,57.11626,83.80985,57.14836,83.89951Z"/><path class="cls-2" d="M57.57316,83.6284l-.05346.01367a.5141.5141,0,0,1-.15015.16223A.21291.21291,0,0,0,57.57316,83.6284Z"/><path class="cls-2" d="M55.30315,84.9893l-.062.0097C55.23808,85.019,55.24931,85.02732,55.30315,84.9893Z"/><path class="cls-2" d="M55.39018,84.95793l.09143-.03772a.41516.41516,0,0,1-.1123.02667C55.38493,84.94938,55.3925,84.95329,55.39018,84.95793Z"/><path class="cls-2" d="M59.6541,79.93125l.12585-.01086.001-.02051c.06225-.07562-.041-.07819-.13953-.05237a.35233.35233,0,0,0-.04992-.12457c.20153-.034-.02393-.22845.19018-.29114-.089-.0708-.02832-.43872-.24194-.495.02783-.0011.04272-.02478.04126.02008a.28033.28033,0,0,0,0-.2677l.15393-.03644-.205-.20306c.09058-.12195.14356-.17792.26416-.056-.18652-.29267-.07837-.24268-.27234-.47864l.09937.00342c-.01087-.09058-.1615-.21619-.08582-.27948.16919-.23114-.14038-.9845-.18786-1.52973-.231.20368.02942-.27954-.19129-.20892.05054-.05567.05506-.14063.14527-.08588-.17383-.21844-.08289-.42578-.34375-.4967.04443-.06153.11706.00085.13879-.0434-.02417-.01214-.0957-.04608-.07458-.09167.02124-.04529.07019.00573.1184.02929-.1521-.2445-.35388-.14843-.53015-.05859.00647-.16528-.04419-.2182-.20849-.22046.02624-.07532.03442-.181.15185-.05749-.04126-.08484-.275-.52369-.40637-.42554.01172-.04822-.07715-.10651-.10706-.11273a1.85031,1.85031,0,0,0-.2882-.32386l.02063.05945c-.192.07569-.149-.0896-.28455-.18689l.01685-.01117c-.18811-.35724-.15931-.06134-.34571-.4226l-.0592.106c-.18421.17975-.16382-.32428-.40637-.36987l.025.10138c-.142.00794-.0824-.4776-.17993-.57117-.01233-.03308.05591-.00927.098-.004-.21008-.29743-.11816.113-.345.02423.001-.09552.157-.162.01611-.2536-.04773-.10474-.54724.03027-.69165-.19391.02271.07885.04187.15619-.07934.16186-.15955-.0404-.359-.39178-.56836-.23279a.07251.07251,0,0,1-.01624-.05743c-.13989.012-.43408-.01318-.52905.08154-.05395-.43969-.807.0915-.76623-.2771-.13331-.00476-.266.00092-.39832.00476l.01086-.03881a.42058.42058,0,0,0-.42614.1632c-.05872-.02252-.01844-.0606-.01441-.081a.63762.63762,0,0,0-.69287.19574l-.04968-.11749c-.06568.08081-.57166-.1037-.8927.145a.0811.0811,0,0,1,.02344-.0644c-.34278.23914-1.08509.03382-1.02454.51831-.06421.07367-.12695.14643-.18494.22449.31568-.13556.04981.19507.20764.193-.09729.08636-.36132.05041-.23254-.05024l.03357.00678c-.06848-.23908-.40515.14935-.48389.014a8.02869,8.02869,0,0,0-1.56286,1.26483l.18921.05981-.14722.16669c-.06934.01984-.16223-.02454-.05652-.14795-.13415.00421-.09888.26666-.06665.2937-.24158.21405-.1012-.22662-.15967-.15094l-.06628.11749.03467-.0122c0,.13293.05542.18145-.05591.33874-.09619.08344-.12891-.00732-.16089.03-.01086-.00714-.0249.00372-.04456.06073l-.15808.24335.18238-.02942c.00012.14441-.13672.22723.07031.19275-.329.041-.52234.91418-.60816,1.004a1.07121,1.07121,0,0,1-.057.56634c.04052-.04553.20495-.03857.14843.13086-.31787-.13153-.20617.29688-.45935.41516.16932-.1134-.01452.53131.23267.34119-.03723.14917-.12561-.00073-.21216.11078.10706.36963-.10534.811-.00928,1.27246.04444.00165.10279-.08057.17872.008-.064.08716-.12781.17676-.18567.26862.03686.08838.26257.04053.14135.22986.0315-.03.07959-.07373.10547-.01776-.03113.95092.68811,1.64953.88843,2.59808-.00305-.1521.05212-.08838.10913-.0133-.019-.0622.08838-.06312.12927-.10834l.10144.39917c.17041-.05286.27381.30127.41993.21985l-.10144-.06665c.139-.00733.17456-.15314.21789-.30127.08069.09149.1416.1911.22876.28a5.87782,5.87782,0,0,0,4.379,1.79676c.05188,0,.10132-.00592.15271-.00708a.05865.05865,0,0,0-.03516.01019l.00659.05591c.07984-.00519.12378-.04444.0608-.06763.07653-.00213.15246-.00592.228-.01062-.1278.08637-.02783.40137.1167.57251.0011-.04376-.00061-.08246.14441-.153-.05932-.04834-.33972-.1023-.22107-.20014.1886-.06488.1604.02533.26074.06592-.081-.101.14649-.19.15235-.33087a5.84957,5.84957,0,0,0,.59338-.11231l.05322-.00763h-.02282q.25762-.06426.50634-.15149c-.00463.01923-.01489.04.00684.05237l.09363-.05285c.13159.06817-.14.2091.00622.21087a.62541.62541,0,0,1-.46167.28315l-.07605-.138c.01478.04242.15455.05182.19812-.00891-.06811.09259-.355-.11859-.40234.09418l.16687.07147c-.12659.11011-.285.30841-.48462.29.111.13471.03967-.02417.20716.12683-.15748-.18878.49243-.09265.25354-.27936.18591.17157.25512.02454.4862.143-.021-.04846-.09119-.0705.07324-.09949a.219.219,0,0,1,.02051-.05389l.01184.00006-.0105-.00281c.0044-.00946.0044-.01117-.0039-.00085a.18793.18793,0,0,1-.10254-.04682c.04187-.136.283-.21209.33887-.30334.09631-.01233-.01551.06848.05212.09973l.08545-.13055c.05456.10229.308.066.12512.22174l.19129-.08149a.47345.47345,0,0,0,.37194-.14111c.10059-.02405.15235-.23205.12366-.11157.08118-.07611.16431-.14758.23962-.228l.01771.022c.28234-.1623.41638-.5199.81738-.6a.89555.89555,0,0,1,.2655-.28949l.09277.0451c.07569-.11615.35462-.22863.321-.33953.296.06536.48169-.47126.65088-.647l-.09815-.08075a1.45109,1.45109,0,0,0,.223-.48816l-.10242-.04663c.00793-.19446.29358-.34906.39807-.61334.03113.035-.00854.09564-.05273.13013.37927-.20594.104-.71668.36181-.94135a.1746.1746,0,0,1,.05042-.17651.03556.03556,0,0,0,.00073.01965l.00952-.02966a.87855.87855,0,0,0,.08386-.08789.42867.42867,0,0,0-.07971.07171A.7926.7926,0,0,0,59.6541,79.93125Zm-1.37134-4.94018c.07434.05279.14746.10791.21777.16656-.00488.041-.06543.04834-.14392.04993l.05762.01855a.0914.0914,0,0,1-.05847.08869c-.022-.03436-.035-.07221-.05774-.10626l.05859-.001-.07373-.02667c-.00976-.01465-.02087-.02875-.03088-.04328A1.13216,1.13216,0,0,0,58.28276,74.99107Zm-10.77856.095.05078-.02124C47.53056,75.16837,47.519,75.12809,47.5042,75.086Zm6.09521,9.53638c.07971-.00507.16028-.00745.23889-.01545A.19383.19383,0,0,1,53.59941,84.62242Zm.29382-.0138.00293-.01.02161-.00317Zm2.1698-.03979.0022-.00776C56.1873,84.55039,56.14311,84.55259,56.063,84.56883Zm.67151-.71369c-.17151.17822-.16308-.05505-.181-.00671-.391.2066-.13818.52453-.55261.57178-.19495-.05372-.12341-.23621-.19666-.30829.14307-.13312.29895-.0567.40808-.13043l-.16918.024c.03247-.06683.12109-.16174.20043-.16247a.30964.30964,0,0,0-.11682.02563,6.05155,6.05155,0,0,0,.76331-.52942A.73748.73748,0,0,1,56.73454,83.85514Zm.95752-1.11285a.19476.19476,0,0,0-.11267-.05347c.04846-.05163.08484-.10736.13123-.15973A.41468.41468,0,0,1,57.69206,82.74229Zm.49512-.678a.13169.13169,0,0,1-.06738-.03345c.04162-.05676.09729-.10895.13659-.16638l.16138.10467-.14209-.12951c.04175-.06165.06543-.12921.10461-.19177a.94927.94927,0,0,1,.277.22015A1.58228,1.58228,0,0,1,58.18718,82.06425Zm.93725-1.00183c-.0581-.09461-.1499-.24414-.24365-.39813.042-.10743.06592-.22071.10108-.33033a.80037.80037,0,0,1,.23669.47333l-.09619.0199C59.12639,80.90586,59.12651,80.984,59.12443,81.06242Zm.15162-2.62812c-.00074-.05322-.01221-.10229-.01429-.155.08094.05181.16455.09356.24353.14935A.82724.82724,0,0,0,59.27605,78.4343Z"/><path class="cls-2" d="M54.69646,85.13951c.0094.02673.04736.06005.00061.0725l.14318-.06439A.20338.20338,0,0,1,54.69646,85.13951Z"/><path class="cls-2" d="M54.2874,84.83524c-.00635.1446.0946.08149.19092.015-.031-.09534-.11231-.04779-.2085-.0119Z"/><path class="cls-2" d="M54.15593,84.86369c-.00342.05822.03931.00537.09143-.01813A.30351.30351,0,0,1,54.15593,84.86369Z"/><path class="cls-2" d="M55.55376,84.9036c-.00464.14087.2572-.26995.02441-.10467C55.522,84.79307,55.5955,84.9315,55.55376,84.9036Z"/><polygon class="cls-2" points="54.336 84.537 54.394 84.654 54.428 84.544 54.336 84.537"/><path class="cls-2" d="M54.93986,84.44956c.0083.01947-.0072.03656-.02807.05219.09436-.01959.20117-.03369.1864-.06665Z"/><path class="cls-2" d="M56.61662,83.58946c-.01465.04864-.05676.09838-.01184.11749l.11633-.1297C56.7094,83.53257,56.65691,83.53855,56.61662,83.58946Z"/><polygon class="cls-2" points="48.156 83.132 48.158 83.009 48.101 82.994 48.156 83.132"/><path class="cls-2" d="M48.419,83.05937l-.09521.13562.16174-.04236C48.4594,83.13535,48.40849,83.1016,48.419,83.05937Z"/><path class="cls-2" d="M46.23357,25.88255c.03247.2528.14575.11316.11877.11956C46.356,25.85105,46.25322,25.90525,46.23357,25.88255Z"/><polygon class="cls-2" points="46.637 28.45 46.755 28.816 46.681 28.493 46.637 28.45"/><path class="cls-2" d="M46.76469,30.82334c.17029-.22271-.05981-.84381-.01147-1.2597l.03808-.06885-.15039-.18579A11.66552,11.66552,0,0,1,46.76469,30.82334Z"/><path class="cls-2" d="M46.42424,32.07249c.06665-.078.06958.26788.01111-.29041l-.01575.05286Z"/><path class="cls-2" d="M46.4196,31.83494c-.01392-.24561-.05237.16168,0,0Z"/><path class="cls-2" d="M46.5009,32.96842l-.07373-.32226c-.03858.06836-.03735.35663-.071.25024C46.40227,33.2277,46.44047,33.15849,46.5009,32.96842Z"/><path class="cls-2" d="M46.64238,33.27238l-.03235-.167C46.59392,33.13511,46.58952,33.17954,46.64238,33.27238Z"/><path class="cls-2" d="M46.54155,32.751l.06848.35431c.0271-.04743.08472-.05353-.026-.16272C46.638,32.97062,46.58464,32.90135,46.54155,32.751Z"/><path class="cls-2" d="M46.683,32.45573c-.04712-.6181-.16919-.52484-.12158.0935C46.59367,32.367,46.60942,32.1323,46.683,32.45573Z"/><path class="cls-2" d="M46.95354,30.93955l.04333-.24292-.06738-.20874C46.96294,30.59214,46.89824,30.95542,46.95354,30.93955Z"/><path class="cls-2" d="M46.62724,34.84934l-.05237-.23779c-.02148.12348-.03686.35687-.09253.37463C46.521,35.00541,46.57951,34.87473,46.62724,34.84934Z"/><path class="cls-2" d="M46.62724,34.84934l.07825.35572C46.70146,34.88566,46.66838,34.8281,46.62724,34.84934Z"/><polygon class="cls-2" points="46.843 33.326 46.684 32.742 46.849 33.439 46.843 33.326"/><polygon class="cls-2" points="46.578 36.509 46.528 36.352 46.432 36.152 46.578 36.509"/><path class="cls-2" d="M46.57609,37.25767c-.07812-.14764-.11547.20978-.16613.05261a2.71257,2.71257,0,0,0,.15527.64118A1.85228,1.85228,0,0,1,46.57609,37.25767Z"/><path class="cls-2" d="M46.70891,35.81443a.43689.43689,0,0,0-.098.28449l.10169-.14368Z"/><path class="cls-2" d="M46.71574,35.95017l-.00317.00507c.00256.15247.00427.25836.00513.30383Z"/><path class="cls-2" d="M46.7802,34.26451c.06738.20855.14746.64428.223.21868C46.92461,34.33451,46.88164,34.57816,46.7802,34.26451Z"/><path class="cls-2" d="M46.74577,35.19511l.08948.40552.0105-.38013C46.81779,35.22874,46.77922,35.29826,46.74577,35.19511Z"/><polygon class="cls-2" points="46.876 35.786 46.835 35.601 46.831 35.742 46.876 35.786"/><path class="cls-2" d="M46.73491,37.61228a2.35823,2.35823,0,0,1,.07776.54407c.01306-.218.01611-.44281.00818-.65607C46.78618,37.47135,46.72258,37.37968,46.73491,37.61228Z"/><polygon class="cls-2" points="46.885 40.151 46.903 40.118 46.885 40.112 46.885 40.151"/><path class="cls-2" d="M46.83928,37.46317a.6941.6941,0,0,0-.05139-.35247c.01526.12176.027.25085.033.38958C46.83635,37.51335,46.84648,37.51554,46.83928,37.46317Z"/><path class="cls-2" d="M46.77739,38.53623c-.03076.08435-.07727.25586-.04834.28492C46.74821,38.73527,46.76359,38.63816,46.77739,38.53623Z"/><path class="cls-2" d="M46.71489,36.89646l-.00562-.02429C46.68828,36.92643,46.69926,36.91941,46.71489,36.89646Z"/><path class="cls-2" d="M46.71489,36.89646a1.34122,1.34122,0,0,0,.073.21424,2.52566,2.52566,0,0,0-.04554-.27021A.24983.24983,0,0,1,46.71489,36.89646Z"/><path class="cls-2" d="M46.88713,39.40318l-.01782-.15387a2.2565,2.2565,0,0,1-.11475.53924c.05774.255.09644.30677.13.32312l-.014-.76068Z"/><path class="cls-2" d="M47.12309,38.81034c-.024-.45233-.10156-.31384-.1582-.5827.05347.7298-.06751-.20782-.10938.32251-.02356-.143-.03381-.272-.04284-.3938-.00818.13208-.01978.25958-.03528.37988l.0061-.017-.00049-.00341.00171.00067c.01221-.032.02-.04273.01355-.0069l.00281.0152a.10319.10319,0,0,1,.04175.03149c-.01441.21253-.02674.03437-.04175-.03149-.00537-.00226-.01062-.00781-.01636-.0083l-.00122.00274.08582.73011a5.66851,5.66851,0,0,0-.02588-.69306C46.95561,38.67289,47.01494,39.04167,47.12309,38.81034Z"/><path class="cls-2" d="M47.149,37.19389c.00928-.34711-.05688-.27008-.10156-.31177l.07519.60754.08179-.31329Z"/><polygon class="cls-2" points="46.834 40.223 46.717 40.147 46.891 40.493 46.834 40.223"/><polygon class="cls-2" points="46.877 41.015 46.777 40.99 46.844 41.197 46.877 41.015"/><path class="cls-2" d="M47.60063,60.41972c-.08289.26056-.21558.55133-.10535.51965l.10547-.08026A1.41766,1.41766,0,0,1,47.60063,60.41972Z"/><path class="cls-2" d="M47.21379,49.1121a3.62035,3.62035,0,0,0-.0448.56238C47.22124,49.4019,47.30669,49.18022,47.21379,49.1121Z"/><path class="cls-2" d="M58.85637,51.69419c-.01551-.10986-.03577-.15722-.06006-.15478C58.81059,51.65251,58.8289,51.71671,58.85637,51.69419Z"/><path class="cls-2" d="M47.19316,50.32261l.02112-.11945a3.488,3.488,0,0,1-.04529-.52868A1.17387,1.17387,0,0,0,47.19316,50.32261Z"/><path class="cls-2" d="M47.27214,23.26438a1.33425,1.33425,0,0,0-.18506.29438A2.74685,2.74685,0,0,1,47.27214,23.26438Z"/><path class="cls-2" d="M46.94633,44.20567c-.01318-.16712-.01294-.02594,0,0Z"/><path class="cls-2" d="M47.92924,51.97111l.00013.01453C47.94878,51.93516,47.945,51.94383,47.92924,51.97111Z"/><path class="cls-2" d="M46.98625,43.951a2.01134,2.01134,0,0,0-.02429.21594A2.03446,2.03446,0,0,0,46.98625,43.951Z"/><path class="cls-2" d="M46.93632,43.98771l.00513-.14746C46.92265,43.82,46.912,43.83946,46.93632,43.98771Z"/><path class="cls-2" d="M46.96074,44.43864A2.47751,2.47751,0,0,1,46.962,44.167c-.0061.03327-.01172.04736-.01563.0387Z"/><path class="cls-2" d="M46.66814,25.399c-.00257-.10682.00781-.21393.01159-.32184.06262.23724.21472.05926.37683-.1203a4.491,4.491,0,0,0-.1.92572c0,2.12268.07849,5.10266.23083,8.89166-.03027-.08734-.06592-.14179-.0935.0827l.0166.05139a1.53747,1.53747,0,0,1-.16333.62659.96627.96627,0,0,0,.24792-.36493.50472.50472,0,0,1-.05688-.269c.01721-.0968.03393-.06909.05273-.03949.06092,1.50445.134,3.14453.21863,4.90961-.12915-.1319-.36633.07946-.50635.34735.04358.00952.0835.00793.15564.38043.0492-.13361.09583-.8371.197-.52448.0691.49427-.02014.40821-.06359.6518.09191-.16687.16613.31756.28112.46948.01306.26367.028.54816.04163.81726l-.09436.07532.1051.13672c.03027.5993.05933,1.18475.092,1.81061.00415.07818.00757.14843.0116.22625-.01672-.02234-.03308-.02881-.04871.01264l.02906.2785c-.09876.26227-.16895-.51819-.20655-.162a3.86707,3.86707,0,0,1-.1831-1.31677l.14953-.10681a.78684.78684,0,0,0-.02636.49591c-.07605-.217.17749-.82-.03186-1.05151l-.09253.37542a4.26958,4.26958,0,0,1-.23926-1.30236c-.14331.22009.02136.10717-.14343.44836.20959-.29889.03466,1.19928.249.72449-.19287.35162-.06543.59546-.22412,1.05108.04993-.01642.09082-.16314.08032.23151a.419.419,0,0,1,.04761.08405l-.00281.02673.00525-.022c.00818.01666.00977.01806.00171-.00824a.53856.53856,0,0,1,.06946-.20435,6.259,6.259,0,0,1,.21008,1.02106c-.0155.234-.06152-.09442-.11072.03534l.10132.3106c-.11108.03681-.16357.62708-.24939.08234l.01306.49341a2.72618,2.72618,0,0,0-.00635.9378c-.01574.23359.14576.582.05042.38324l.0979.77051-.02771.0083a10.647,10.647,0,0,1,.073,2.44409,4.5346,4.5346,0,0,1,.066.95124l-.094.08685c.046.32874-.06079.9931.04566,1.132-.24817.36285.00183,1.60168-.02332,2.1828l.12769.01923a10.50835,10.50835,0,0,0,.12671,1.2763l.11084-.03253a14.66369,14.66369,0,0,1-.00293,1.77637.54738.54738,0,0,1-.01819-.33875c-.22351.81049.24683,1.70233.08935,2.43677a.95.95,0,0,1,.0149.44275.18627.18627,0,0,0-.00745-.04523l.00134.075-.05029.25385a1.25305,1.25305,0,0,0,.05212-.21356,5.27621,5.27621,0,0,0,.06507.56341l-.11707.08954.00525.0484c-.03686.20544.063.165.14954.05512a1.67523,1.67523,0,0,0,.08288.27673c-.18811.16907.08521.545-.11291.78137.05847.08142.07275.3786.16577.66821.08374.28882.22961.55567.35681.568-.02258.01764-.0072.08685-.059-.02961a1.26624,1.26624,0,0,0,.38025.657l-.0481.1842a2.7224,2.7224,0,0,0,.55347.26367c.21106.27149.31641.41358-.0437.29731a6.86515,6.86515,0,0,0,.70606.27423,1.98118,1.98118,0,0,0,.62072.10968l-.06164.08362c.23388.078.63183.03576.75342.13879a8.84874,8.84874,0,0,0,3.96044.13647c-.33642-.2041.66138-.05066.63868-.30114.09875.03766.29651.00219.10534.13983.634-.32648,1.041-.33832,1.37635-.80359.11267.00439-.07508.17816.012.16608.04407-.04786.16479-.19275.25329-.21558.08863-.02173-.05188.12292-.13806.218.65137-.52356.49634-.79663.38318-.94184a.78942.78942,0,0,0,.36182-.76593c.09839-.1026.245-.31219.10705.16358a2.5765,2.5765,0,0,0,.22022-.92328c.01489-.36658.00854-.65076-.07092-.67017a.87819.87819,0,0,0,.0083-.39239c.02978-.53.0459-.57648.05066-1.097l-.03162.14411c-.18494-.20667-.02649-.43305-.03369-.85279l.01929.01215c.17578-.96082-.05079-.4162.144-1.36359l-.12183.05017c-.25451-.09192.18421-.83917.10657-1.39129l-.07605.19781c-.07678-.30261.38269-.83508.42639-1.13611.0249-.06536.032.10462.04517.19678.18213-.78723-.1532-.10541-.16724-.69525.08887-.10687.21008.14435.24085-.25159.07617-.19555-.23108-1.15619-.0481-1.69311-.0697.11749-.1394.23419-.1781-.04084-.00732-.42047.28992-1.12683.09863-1.51184.0199-.05279.03772-.07238.05408-.07409a6.673,6.673,0,0,0-.15271-1.24213c.42517-.28107-.12524-2.00214.2561-1.97986l.01709-.98718.038.02747a2.136,2.136,0,0,0-.11682-1.0824c.03149-.14453.06311-.03638.08264-.02338a3.90921,3.90921,0,0,0-.0614-1.79223l.12683-.0738a18.00736,18.00736,0,0,0,.135-2.23767c.01367.00959.037.02954.05175.10236-.10644-1.02557.43641-2.42621-.00024-2.81867L59.087,38.755c-.057.7262-.15173.14966-.23328.14637.00635-.12879.01343-.26551.01953-.39289.04883-.16156.10743-.22857.11133.0066l-.025.06488c.22925.16339.12451-1.07758.28369-1.04853.05359-1.71228.24731-3.37768.31836-4.98217l-.18982.181.03174-.55915c.04821-.14593.15063-.19439.1278.20465a.89813.89813,0,0,0-.10058-.6831c.10376-.78021.20154.309.21509.06939l-.00135-.3258-.02417.07306a1.60826,1.60826,0,0,1-.1156-.76935c.0481-.303.11866-.15411.13025-.27356.01294.00092.02063-.03937.01221-.18323l.04248-.705-.155.28027c-.05933-.31323.03272-.6626-.14319-.33923a17.62014,17.62014,0,0,0,.28-2.92054c-.09485-.43115-.03808-.86761-.12182-1.45288-.01429.14893-.14686.24469-.21912-.2265.39221.09577-.08692-.9126-.15125-1.37365.02723.20635-.1632-.11634-.39392-.36414-.23047-.25079-.4707-.43439-.352-.15759-.27124-.31147.07581-.10852-.10339-.38471A8.00539,8.00539,0,0,0,55.33855,21.094c-.02735.03888.15014.14856-.11255.15625-.18677-.11743-.38037-.2279-.57923-.33129-.24048-.01209-.24585.21746-.65576.0263.05737.04151.141.10388-.01514.106a7.75152,7.75152,0,0,0-3.48657.25421,8.29381,8.29381,0,0,0-3.2041,1.78076c.2898-.21539.13916-.03558-.01306.1781.119-.12426.085.06763.15356.07569a3.92527,3.92527,0,0,0-.6466.83636C46.83147,24.40263,46.495,25.27024,46.66814,25.399Zm.4436,20.63763.00635.01282C47.0811,46.32444,47.09611,46.22679,47.11174,46.0366Zm12.4812-15.63379-.03577.11017C59.532,30.26274,59.56071,30.33311,59.59294,30.40281ZM47.95036,50.7805c.029.65326.0575,1.29986.08264,1.91113a1.95464,1.95464,0,0,1-.22534-.61139c.04407.02148.09729-.06653.12158-.10913C47.92107,51.49113,47.93962,51.14329,47.95036,50.7805Zm-.4834-2.43634c-.0747-.60688.12659-.26954.09265-.37409-.00512-1.14606-.4038-.95874-.28662-1.915.12049-.38305.26661-.02942.36036-.11749a7.04018,7.04018,0,0,1-.03956,1.10217l.04834-.417a1.78664,1.78664,0,0,1,.06421.66821,4.39289,4.39289,0,0,0,.03223-.98455c.05664,1.13159.10986,2.22515.15759,3.25933A2.68421,2.68421,0,0,1,47.467,48.34416Zm.23523,7.0382a9.195,9.195,0,0,1,.23767-1.10455c.04419-.09045.098-.07782.1543-.03192.01611.42291.03064.82886.04468,1.229A.5067.5067,0,0,1,47.70219,55.38236ZM47.794,58.392l.07739-.13642-.11377-.54095a9.038,9.038,0,0,1,.47425.83679c.00708.29242.01245.56519.01782.84052A2.77857,2.77857,0,0,1,47.794,58.392Zm1.34363,5.95648a.36987.36987,0,0,0,.1394-.19379,2.96465,2.96465,0,0,0,.31482.22669A2.91052,2.91052,0,0,1,49.13762,64.34849Zm8.5199-.89734c-.07435.05591-.0702-.03534-.06714-.16669l-.03907.12671c-.09423.07929-.13855.0791-.15905.04065a2.35822,2.35822,0,0,0,.19714-.2865c-.00012.04.0011.08173.001.11914a2.21974,2.21974,0,0,0,.06091-.25287l.00183-.00378a1.41851,1.41851,0,0,0,.24426-.25751A2.382,2.382,0,0,1,57.65752,63.45115Z"/><path class="cls-2" d="M46.82817,42.46909l.04468.36286a1.0043,1.0043,0,0,1,.02746-.33C46.87248,42.51139,46.83427,42.58293,46.82817,42.46909Z"/><path class="cls-2" d="M47.21611,42.113c.10022-.03363.05749-.26025.02942-.51434l.00158.04511C47.10258,41.575,47.15947,41.84464,47.21611,42.113Z"/><path class="cls-2" d="M47.23991,41.53965a1.963,1.963,0,0,1-.01123-.23547C47.17082,41.27683,47.22038,41.40025,47.23991,41.53965Z"/><path class="cls-2" d="M47.04961,44.75187c.02172-.12189-.13221-.06915-.09351-.13946C46.82219,44.48423,47.14165,45.40843,47.04961,44.75187Z"/><path class="cls-2" d="M47.544,43.49809c-.02075.00726-.03491-.04383-.04663-.10688.005.251-.00977.52729.027.51575Z"/><path class="cls-2" d="M47.49736,43.39121a1.34186,1.34186,0,0,0-.03272-.32666A3.016,3.016,0,0,0,47.49736,43.39121Z"/><path class="cls-2" d="M47.66081,48.28184l.05213.44263c.04455.04358.0664-.07843.04321-.24317C47.72233,48.37614,47.69975,48.21208,47.66081,48.28184Z"/><polygon class="cls-2" points="48.081 54.808 47.827 54.829 48.088 54.921 48.081 54.808"/><path class="cls-2" d="M46.45012,24.83055c-.045.12371-.08313.24914-.11634.376l.12159-.23486Z"/><path class="cls-2" d="M46.51774,25.88255a.68053.68053,0,0,1,.02454-.30707l-.16565.08Z"/></g></g></svg>