<svg xmlns="http://www.w3.org/2000/svg" viewBox="0 0 104.16944 117.48161"><defs><style>.cls-1{fill:#1d1d1b;}.cls-2{fill:#c3c66e;}</style></defs><title>Exclamation_05</title><g id="Layer_2" data-name="Layer 2"><g id="Layer_1-2" data-name="Layer 1"><path class="cls-1" d="M103.12091,52.5457a50,50,0,1,0-60.06738,48.98584l4.34289,6.32794,5.72449,8.34107,5.72443-8.34107,4.34289-6.32788A50.01724,50.01724,0,0,0,103.12091,52.5457Z"/><path class="cls-2" d="M100.66932,52.91178c.05811-.46267-.36853-.29678-.44055-.36609C100.2859,53.31294,100.77919,52.89457,100.66932,52.91178Z"/><path class="cls-2" d="M100.94081,60.67326l-.15052-.16464a9.14112,9.14112,0,0,1,.2135,1.2041A7.54939,7.54939,0,0,0,100.94081,60.67326Z"/><path class="cls-2" d="M99.16151,67.72553c.86963-.44937.75452-2.53656,1.21423-3.749l.20508-.17184-.43176-.7c-.14258.77018-.17407,1.69324-.34949,2.52405A9.00486,9.00486,0,0,1,99.16151,67.72553Z"/><path class="cls-2" d="M96.37587,70.75758c.34533-.10626-.09229.84479.41748-.77683a1.36683,1.36683,0,0,1-.12647.12046C96.61256,70.2432,96.53114,70.43638,96.37587,70.75758Z"/><path class="cls-2" d="M96.66688,70.10121c.26672-.69217-.40308.3605,0,0Z"/><path class="cls-2" d="M95.421,73.3043l.22681-.97626c-.23767.11469-.67578.86252-.63281.52637C94.67677,73.79572,94.91468,73.69309,95.421,73.3043Z"/><path class="cls-2" d="M95.454,74.36888l.14368-.50345C95.49452,73.91456,95.41114,74.02284,95.454,74.36888Z"/><path class="cls-2" d="M95.90065,72.80543l-.303,1.06c.16894-.07486.38415.01257.15905-.47827C95.90528,73.55946,95.823,73.27775,95.90065,72.80543Z"/><path class="cls-2" d="M96.25733,72.29493c.3523-.44617.71973-1.07672.56214-.0516C97.46205,70.43873,96.88673,70.51374,96.25733,72.29493Z"/><path class="cls-2" d="M99.74842,68.31638l.43189-.66918-.02649-.70676C100.1659,67.29386,99.52174,68.29133,99.74842,68.31638Z"/><path class="cls-2" d="M92.06727,78.39659c.09363.13616.5127-.0543.71521-.011l.24207-.709C92.7367,77.93665,92.28041,78.48039,92.06727,78.39659Z"/><path class="cls-2" d="M92.78248,78.3856l-.3667,1.06988C92.96388,78.64356,92.95594,78.42475,92.78248,78.3856Z"/><polygon class="cls-2" points="96.075 74.892 96.426 73.033 95.919 75.209 96.075 74.892"/><polygon class="cls-2" points="89.632 81.707 89.723 81.004 89.484 82.201 89.632 81.707"/><path class="cls-2" d="M87.9015,83.81455c.0835-.52844-.77686.12775-.5929-.3453a7.2574,7.2574,0,0,0-.91308,1.789A4.47724,4.47724,0,0,1,87.9015,83.81455Z"/><path class="cls-2" d="M85.928,86.14588a6.93236,6.93236,0,0,0,.46753-.88766A3.66509,3.66509,0,0,0,85.928,86.14588Z"/><path class="cls-2" d="M91.24256,80.90977a1.22794,1.22794,0,0,0-.86315.4216l.59765-.08182Z"/><path class="cls-2" d="M90.9972,81.24577l-.02014.00378c-.29126.36517-.49328.6185-.57983.72705C90.47291,81.88435,90.65345,81.66441,90.9972,81.24577Z"/><path class="cls-2" d="M91.3097,80.82441l-.06714.08536C91.30128,80.90183,91.32777,80.89021,91.3097,80.82441Z"/><path class="cls-2" d="M94.32753,77.24821c-.141.66815-.66138,1.97046.35888,1.03931C94.68971,77.7356,94.10963,78.26356,94.32753,77.24821Z"/><path class="cls-2" d="M92.06544,80.71177c.25769-.29706.53967-.57831.77918-.88986-.10547-.044-.35315.04065-.28016-.29755C92.43067,79.93946,92.231,80.31227,92.06544,80.71177Z"/><polygon class="cls-2" points="91.826 81.251 92.065 80.712 91.773 81.038 91.826 81.251"/><path class="cls-2" d="M87.60194,85.02088a3.85932,3.85932,0,0,1-.99963,1.35749,8.02681,8.02681,0,0,0,1.48535-1.36023C88.0514,84.85746,88.065,84.48167,87.60194,85.02088Z"/><path class="cls-2" d="M89.33924,83.26472l-.05615.09872C89.35658,83.33586,89.40235,83.30247,89.33924,83.26472Z"/><polygon class="cls-2" points="81.984 90.387 82.109 90.387 82.082 90.314 81.984 90.387"/><path class="cls-2" d="M88.221,84.98869a1.68306,1.68306,0,0,0,.613-.913,11.40626,11.40626,0,0,1-.74633.94248C88.10414,85.09031,88.12818,85.12336,88.221,84.98869Z"/><path class="cls-2" d="M84.8357,87.44889a8.16361,8.16361,0,0,0,.78663-.41873C85.344,87.10633,84.827,87.304,84.8357,87.44889Z"/><path class="cls-2" d="M89.0807,83.41166l.03552-.06784C88.93727,83.4054,88.985,83.41953,89.0807,83.41166Z"/><path class="cls-2" d="M89.0807,83.41166a3.39843,3.39843,0,0,0-.24671.664,6.01531,6.01531,0,0,0,.4491-.71222A.74466.74466,0,0,1,89.0807,83.41166Z"/><path class="cls-2" d="M82.07435,93.73069c-.077-.19092.12732-.54193.48572-.906a3.5272,3.5272,0,0,1,1.44983-.97547c.73584-.96441-.6991-1.48822-1.90137-1.462.07666.159.179.28418-.596,1.19708.44324-.07373,2.344-1.21906,1.78724-.31708-1.11634,1.13031-1.0741.71948-1.83179.96424.83288.0379-1.25305,1.6975-.57007,2.11456l1.02539-.99048C82.01112,93.43253,81.689,93.86393,82.07435,93.73069Z"/><path class="cls-2" d="M83.854,89.05143l.34021-.332a5.60722,5.60722,0,0,1-1.62109.6004c-.49023.63678-.52991.85669-.49158.99463l1.86145-1.409Z"/><path class="cls-2" d="M85.75135,87.2674c.028.56583-.69323,1.4979.13611,1.3566,1.0155-.99795.47949-.94635.96216-1.65735-1.57776,1.63178.30518-.61685-1.05188.32477a10.06027,10.06027,0,0,1,.80457-.913c-.33118.23953-.65955.45926-.98.65179l.05566-.01565.00671-.00821.003.00644c.10706-.027.15284-.02521.05213.02676a.16763.16763,0,0,1-.028.03839.40943.40943,0,0,1,.03785.18777c-.53394.38086-.15064-.0119-.03785-.18777a.289.289,0,0,0-.02417-.06515l-.00976.00177c-.49353.56384-.9707,1.15228-1.48377,1.70489A10.818,10.818,0,0,0,85.75135,87.2674Z"/><path class="cls-2" d="M94.80323,79.8361a.10542.10542,0,0,1-.1239.00851C94.64234,80.00187,94.64149,80.07078,94.80323,79.8361Z"/><path class="cls-2" d="M94.0713,80.50666a1.363,1.363,0,0,1,.30505-.83413c.36389-.33323.17163.115.303.17208.08447-.347.36218-1.15075-.36877-.38681l-.03882.17108c-.59692.73423-1.76538,1.36265-1.7179,1.195A2.93154,2.93154,0,0,0,94.0713,80.50666Z"/><path class="cls-2" d="M90.09852,84.27064l-1.12488,1.56854.93274-.48038-.20056-.11215C90.50563,84.48805,90.13868,84.48383,90.09852,84.27064Z"/><polygon class="cls-2" points="81.688 90.349 81.604 89.834 81.15 91.018 81.688 90.349"/><polygon class="cls-2" points="79.746 91.794 79.598 91.417 79.202 91.968 79.746 91.794"/><path class="cls-2" d="M5.03578,31.79731l.15893-.59085A3.61452,3.61452,0,0,0,5.03578,31.79731Z"/><path class="cls-2" d="M3.46839,35.88383l.1482.16247C3.58375,35.82246,3.53749,35.71858,3.46839,35.88383Z"/><path class="cls-2" d="M36.7859,97.13291c-.31421-.30346-.62671-.6596-.86792-.88336-.23145-.24878-.39722-.35895-.43787-.13306l.06079.50177A3.91491,3.91491,0,0,1,36.7859,97.13291Z"/><path class="cls-2" d="M6.25563,70.23921l-.02857.27459c.217.13413.42029.25971.60462.37366C6.65773,70.69166,6.46156,70.4709,6.25563,70.23921Z"/><path class="cls-2" d="M4.34779,70.30213l-.0846-1.18573A6.40711,6.40711,0,0,0,4.34779,70.30213Z"/><path class="cls-2" d="M18.82264,12.40046l.24451-.817C18.23658,12.33817,18.74794,12.17585,18.82264,12.40046Z"/><path class="cls-2" d="M57.56983,105.51994a9.57081,9.57081,0,0,0-1.23974,1.34393C57.02992,106.28422,57.73719,105.91471,57.56983,105.51994Z"/><path class="cls-2" d="M8.69081,35.08418c.04235-.34555.01-.51493-.083-.54181C8.557,34.89826,8.567,35.113,8.69081,35.08418Z"/><path class="cls-2" d="M55.146,108.5919c.108-.08081.19726-.17182.301-.25836a9.12088,9.12088,0,0,1,.88306-1.46967A3.09435,3.09435,0,0,0,55.146,108.5919Z"/><path class="cls-2" d="M95.71742,21.976c.022.06195.05993.1283.07544.18756C95.85194,22.14485,95.8025,22.07285,95.71742,21.976Z"/><path class="cls-2" d="M100.69361,45.82856c-.06115-.22189-.11792-.58969-.17651-.93576A3.6024,3.6024,0,0,0,100.69361,45.82856Z"/><path class="cls-2" d="M71.11964,96.24528c.4563-.23456.05579-.07727,0,0Z"/><path class="cls-2" d="M74.13014,96.7841a.28985.28985,0,0,0-.10376.27685A.37058.37058,0,0,1,74.13014,96.7841Z"/><path class="cls-2" d="M54.28773,114.61442l-.02747.03723C54.37879,114.62931,54.35816,114.63065,54.28773,114.61442Z"/><path class="cls-2" d="M71.90089,96.113a4.7323,4.7323,0,0,0-.64954.14837A4.88462,4.88462,0,0,0,71.90089,96.113Z"/><path class="cls-2" d="M71.72511,95.96684l.42529-.14337C72.18006,95.73118,72.11,95.71256,71.72511,95.96684Z"/><path class="cls-2" d="M70.47755,96.55784a5.73438,5.73438,0,0,1,.7738-.29645c-.103.01392-.15075.00843-.13171-.01611C70.98451,96.31114,70.79371,96.404,70.47755,96.55784Z"/><path class="cls-2" d="M56.26527,1.38838c.03577.01553.07751.02645.11633.04705C56.953,1.2841,56.70533,1.3003,56.26527,1.38838Z"/><path class="cls-2" d="M22.35487,94.48057c.02331.01282.04077.01233.06274.023l-.05615-.0639Z"/><path class="cls-2" d="M20.5702,93.476a2.35946,2.35946,0,0,1,1.79126.96369l.23035-1.4137Q21.59718,93.26366,20.5702,93.476Z"/><path class="cls-2" d="M10.03358,22.59315a10.36948,10.36948,0,0,0-1.12927.97107,7.97592,7.97592,0,0,1,.7102-1.92945c.14307-.348.06446-.37976-.57153.01526.24707.23749.165.64383-.07544,1.1348A14.28194,14.28194,0,0,1,8.062,24.52375c-.703,1.22165-1.4021,2.44583-.85742,2.85495a9.42548,9.42548,0,0,0-.68323.70468c.13-.23816.07837-.31494.20752-.55038-1.3833,1.36572.27515,1.68371-.90979,3.70026-.44775.69171-.87768,1.13336-.78332.564-.17786.58893-.235,1.22479-.35535,1.82953-.20715.48831-.38318.28317-.176-.206l-.85694,2.65756-.03088-.03208c.05725.44043.06994,1.38157.12317,1.84906-.36206.62336-.0503-.38119-.25733-.2565l-.06531,1.57019c-.496.5152-.50878-.80618-.192-1.82788-1.66565,1.02979.00793,1.324-1.53369,4.15808L1.888,40.07481a3.12641,3.12641,0,0,0-.98181,1.4429c-.233.58652-.35376,1.28714-.7312,2.083.15442-.17911.58166-.96408.97729-1.47.4093-.50522.80689-.73044.79724.12121a3.78332,3.78332,0,0,0-.18322,1.99469c-.47791-.06927-.49549.82858-.63392,1.92768l-.62365-.15284c-.005,1.22052.33655,1.15821.59167,1.88794A2.03607,2.03607,0,0,1,.02711,49.77781c-.20984,2.15372.86755-1.44284.86108,1.09845-.3905,1.76736.00879,3.03445.46863,5.1145-.16394,1.2504-.40014-.1893-.56274.26663.19067.35578.36316.70951.56848,1.057.02283.26675-.14453.196-.229.15952.31787.89691.64624.01693,1.00805,1.42114.76111.26666-.69336,3.10379.56848,4.69943-.08093.46927-.42944-.12405-.64209.05939a12.45649,12.45649,0,0,0,2.07874,3.71005l.11645,1.75253c.09388-1.35281,1.06275.02341,1.99244,1.12281.03869-.47745.12268-.89679.14209-1.164a21.65062,21.65062,0,0,0,1.10241,1.87836c.00183.278-.28381.16333-.66845-.0661.10571.117.208.22672.29455.309.07788.80268-.41455.58029-.96326.19126.014-.29474.03772-.589.06409-.874-.5802-.35415-1.15771-.69235-1.46521-.45984a3.67336,3.67336,0,0,1,.42786.62168c-.15381-.09567-.27759-.14823-.31177-.06391-.03394.09382.18848.261.48022.53864l-.467.734.31043.00915c.246.95822.46374,1.93921.745,2.89972a46.24848,46.24848,0,0,1,5.34485,5.24411c-.86865-.395-.8092.31818-1.34973.62238a2.437,2.437,0,0,0-.882-1.62473c-.25256-.28283-.55237-.56958-.80444-.90259A5.85672,5.85672,0,0,1,7.614,77.02857c.35682.83417.00818.80362-.18982.647A29.62155,29.62155,0,0,0,9.52479,80.0312c-.46582.21164.03.75854.29138,1.56152.26184-.54394.678-.12732,1.21717.47455a22.26459,22.26459,0,0,0,1.66687,1.8269c-.218.269-.67188.23957-1.53479-1.03549.44323,1.80268,2.21435,1.04944,2.771,2.69629-.254-.27148-.35107-.44971-.56665-.46274.786.473,2.03577,2.18759,1.48267,2.01984l-.25427-.27277c.39221.4812.90466,1.07407,1.46557,1.6865.59192.58209,1.26441,1.15234,1.892,1.66858a12.15357,12.15357,0,0,0,1.73572,1.23327c.5238.25354.92883.36322,1.13537.25586a3.89683,3.89683,0,0,1-1.13672.62494q1.33211.147,2.61768.25446a23.54912,23.54912,0,0,0,2.56079.12506c-.74487.37475-.50586,2.64471-2.45093,1.81561a5.81,5.81,0,0,0,2.16211,1.41736c-.28418-.31439-.24365-1.43176.24622-1.18549a10.27318,10.27318,0,0,0,1.83569,2.52265c-.45007-.42749.72864-1.08405,1.52429-.60413-.21374.07782-.48718,1.02258-.85363.9566l2.60913.15332c-.605-.1018-.53321.79438-.20288,1.338-.14588-.26563,1.87646.87774,2.50537,1.04059l-.81812-.64911c2.40418,1.2525,3.011-.33423,5.43421.53589a.872.872,0,0,0,.02038,1.66906c.38892-.185,1.23914-.57824,2.27332-1.00067a11.7333,11.7333,0,0,1,1.64868-.56543,4.64945,4.64945,0,0,1,1.94934-.13769c.15442.15191.2904.29876.418.44372l.60144.054c.13159.123.25708.26044.389.39453l.80969.84833c-.38709-.181-.89038-.42585-1.3927-.62067-.06372-.02331-.124-.05066-.19031-.06848l-.27014.05322-.52612.11536c-.34253.08069-.66553.16919-.953.26562a21.99344,21.99344,0,0,1-3.51294.79431c.89832.52643.16175.44989,1.64478.799.44678.43029-.93.24932-1.37573.15509l1.71191.5332.85584.26532.1361.08276c.10584-.29065.45093-.4989.67627-.34387.13331.05768.25123.09918.41309.17706.20764.1446.37769.20649.47473.10059-.10278-.09851-.23938-.24615-.31445-.30426l-.20191-.14032q-.19591-.13166-.36853-.22913a4.5895,4.5895,0,0,0-.46911.05976l-.18457.045a.50065.50065,0,0,1-.18067,0l-.24438-.01617c.00159-.17243.1665-.34058.44629-.4856a2.01364,2.01364,0,0,1,.80139-.43085q.13862-.03835.29578-.06683l.161-.02564a.41072.41072,0,0,1,.118.05317,2.91669,2.91669,0,0,1,.48266.34637,5.80831,5.80831,0,0,1,1.03992,1.27643c.12537.65527-1.24524.30023-1.40185.46838a5.57542,5.57542,0,0,1,1.64453,1.905l-.87317-.637c.54834,1.24591,1.97,1.29553,2.35046,2.98394.27844.48163.22363,1.85566.606,1.70954.12048-1.18006,1.977-2.66876,2.79333-2.49744a24.35449,24.35449,0,0,1,1.0824,3.54279c.01306.5506-.428.54138-.962.37768-.49048-.09985-.98169-.21978-.97461.247a.6008.6008,0,0,1,.40759.09369,3.30548,3.30548,0,0,1,.4812.34772c.329.75653-.6272.09149.46436,1.53528.58044-.35889,1.97424,2.97839.7965.14227.98755,1.09479.90284,1.56317,2.01905,3.13721-.1615-.67438.25317-.85651.644-.95069a20.559,20.559,0,0,1,.8468-2.33728.39483.39483,0,0,0,.32007.42078c1.45374-2.00964,2.57617-3.09814,3.89172-5.00458.25953-.08648,1.07044-.91516,1.03724-.34814a3.32883,3.32883,0,0,1,.47912-1.34894c1.28552-.83148-.84546,1.39416.3479.90674-.27441-.29993.618-1.86609,1.0022-2.86347-.68543-.08246-1.45618,1.91468-1.84168,2.91309-.69848-.47345-.40124-2.4682.677-4.729.94006-1.73981.93213-.39423,1.02624-.74366a9.70962,9.70962,0,0,0,.6637-1.00189c.17053-.2998.36706-.67261.49731-.96985.13941-.31073.2522-.60388.35449-.889a2.69034,2.69034,0,0,1,.574-.4295,7.292,7.292,0,0,1,.6405-.38165c.11865-.0622.24439-.12323.37976-.18274l.34546-.15027a4.74584,4.74584,0,0,1,1.65894-.31073c1.2926.23144.34375,1.0163.70227,1.32629a5.77347,5.77347,0,0,1-1.9198.38605,8.33553,8.33553,0,0,0-1.77.20837l1.5426-.12445c-.467.37183-1.5813.48169-1.86023,1.096a1.9395,1.9395,0,0,0,.42188-.361l.06213-.06549.10327-.01319.21643-.03161.47009-.08234c.64258-.12127,1.46827-.31714,2.33912-.52563a26.77586,26.77586,0,0,0,2.65332-.7569,22.59471,22.59471,0,0,1,2.42675-.6214c.41443-.34466,1.13208-.894.67444-.91907-.26587.14026-.52453.3-.79748.42475-.47266-.077-.11438-.324.183-.6026.303-.26715.57727-.49.02734-.35578a10.69473,10.69473,0,0,1,3.56812-2.21533l.55322.395c-.11-.12988-1.119.198-1.47827.53149.52991-.46618,2.6554-.45855,2.95142-1.51617l-1.224.18939a14.67057,14.67057,0,0,1,3.12268-2.719c-.86975-.14972-.24182.25067-1.46326.20361,1.22681.32947-3.22656,1.7312-1.5332,1.85706a2.74339,2.74339,0,0,0-1.55628.208,4.15176,4.15176,0,0,1-1.75183.275c.12232.16693.60169.15576-.53491.5517a1.213,1.213,0,0,1-.16931.27038l-.0802.01917.07019-.00507c-.03564.049-.03735.0567.02588-.00244a1.44391,1.44391,0,0,1,.68616.03155c-.3617.661-2.132,1.47791-2.69349,1.86231-.72119.1466.20679-.31641-.243-.38977l-.80688.65808c-.24646-.3905-2.03943-.08453-.53259-.88385l-1.43311.475a7.12415,7.12415,0,0,0-2.80969.56458,4.895,4.895,0,0,0-.86219.24957c-.34094.124-.63623.25373-.85534.35614-.43738.20471-.60193.30841-.165.018-.7793.03546-1.00269.84637-1.38062,1.41015l-.5249.88776-.30017.56043-.10571-.04456c-1.44214,2.00128-2.25965,4.60669-4.52332,6.47266-.18823.37439-.37512.758-.62634,1.18225-.12561.21209-.26733.43432-.43335.67059a1.53226,1.53226,0,0,1-.26221.29321,2.78584,2.78584,0,0,1-.3114-.233c-.04211.18122-.23218.2865-.35266.34973-.12622.07172-.20056.12714-.2146.50531a4.82892,4.82892,0,0,0-.12561-.48925c-.08032-.4889-.1344-.514-.26819-.5965a1.246,1.246,0,0,1-.21106-.14075.50478.50478,0,0,1-.089-.09906c-.11523-.16931-.245-.37317-.33557-.53937l-.45837.22864a27.46092,27.46092,0,0,0-2.59973-3.22455l-.31385.33484c-1.08508-.93036-1.74633-3.10791-3.02026-4.883.22534.02551.50183.50769.63843.88958A5.77123,5.77123,0,0,0,45.354,100.394l-.49133-.67486-.2511-.327c-.09277-.09522-.26782-.07129-.39746-.11139l-1.67676-.26941L42.137,98.9528l-.24206-.01837-.48145-.04035c-.31909-.02972-.63415-.06659-.94006-.12a3.47242,3.47242,0,0,1-1.66321-.65369,2.29081,2.29081,0,0,1-1.28992-.45148.44811.44811,0,0,0,.13977.02332c-.05285-.02393-.13354-.05273-.21679-.08051-.20972-.15387-.421-.32165-.65735-.47882a3.19087,3.19087,0,0,0,.53943.43976,12.53756,12.53756,0,0,0-1.70874-.40008l-.07569-.55433-.14062-.04779c-.50635-.42065-.55151.00342-.37805.47724a4.17628,4.17628,0,0,0-.89929-.0827c-.15918-.9217-1.67774-.4596-1.968-1.49408-.58155.19555-2.99353-1.28913-3.741-.71619.03626-.10651-.10718-.24548.20825-.0799a6.13,6.13,0,0,0-1.83532-1.07855l.07458-.68622-1.79236-.2052c-.60278-.84954-.79712-1.238.27161-1.09332-2.29077-.78339-1.63452-.92181-3.65466-1.58435l.3302-.2431c-.58374-.39771-1.74756-.80493-1.84339-1.34-.32019-.82721-1.76721-2.1311-3.21277-3.87482-.37243-.42434-.75756-.86316-1.14672-1.30648-.3429-.48017-.68921-.96521-1.03162-1.44458a13.95312,13.95312,0,0,1-1.67529-2.88129c-.5586,1.29684-.55823-1.86093-1.40931-1.515.10914-.34228-.0542-.89019.49866-.46612a7.2558,7.2558,0,0,1-1.17822-2.16733,3.38329,3.38329,0,0,0-1.23425-1.6207c.14209-.32568.56652.21225.61779-.0429-.125-.11908-.52649-.46415-.4436-.73539.07214-.25988.313.18235.58337.40628C9.657,70.948,8.83229,71.05955,8.0232,71.22727a2.39053,2.39053,0,0,0-1.07971-2.15854c.13074-.44931.20252-1.12753.68677.092C7.46,68.42887,6.59559,64.77723,6.032,64.84425a2.18255,2.18255,0,0,0-.2948-1.19751c-.15674-.818-.24206-1.26328-.32666-1.70456-.094-.43918-.19531-.87235-.31482-1.68146l-.04333.467c-.84631-.51913-.35034-1.3324-.61755-2.631l.08361.02866a8.03929,8.03929,0,0,0-.0476-2.1717,5.00767,5.00767,0,0,1,.11938-2.13907l-.47205.17591c-.51281-.12406-.4198-.80539-.18591-1.655a6.1203,6.1203,0,0,0,.48548-2.73831l-.30518.61386c-.15234-.48587.23181-1.13754.67395-1.761l.65747-.9024a2.56855,2.56855,0,0,0,.46545-.7659c.12-.18891.09436.33291.11719.61779.9729-2.31665-.57593-.38195-.44348-2.21011.38525-.27887.78772.55335,1.03174-.63354a1.64512,1.64512,0,0,0,.07861-.82779A9.65777,9.65777,0,0,1,6.64857,42.328a5.59556,5.59556,0,0,1,.66565-2.92438c-.3418.28278-.686.57557-.66248-.30685a3.73551,3.73551,0,0,1,.39087-1.0556c.21826-.35892.45252-.74427.68274-1.12287a3.127,3.127,0,0,0,.61194-2.2312c.12317-.12967.208-.16263.27051-.14474A11.50716,11.50716,0,0,1,9.15394,32.525a5.0661,5.0661,0,0,0,.33679-1.82156c.47181-.02533.8291-.4068,1.12232-.958a15.75671,15.75671,0,0,0,.90722-1.8909c.56055-1.341,1.0608-2.61722,1.68628-2.17728l1.77015-2.50646.0758.15945a6.88163,6.88163,0,0,0,1.64795-2.98972c.38586-.26977.267.07273.30188.15342a15.7054,15.7054,0,0,0,2.09729-2.08738,13.18273,13.18273,0,0,0,1.49-2.24343l.51611.20043a2.408,2.408,0,0,1,.7118-.66024c.18994-.13535.40112-.29285.64489-.44718.25293-.14236.52686-.29657.81519-.45892a20.68789,20.68789,0,0,0,1.78284-1.129c.60107-.41467,1.1394-.939,1.68017-1.39569a.41932.41932,0,0,1-.14123.34509,9.74536,9.74536,0,0,1,2.12817-1.35971,16.01016,16.01016,0,0,1,2.37537-1.00018c1.5559-.53467,2.78845-1.08972,2.95788-2.17337.57788-.42313,1.19629-.76666,1.80152-1.1582-2.631.81231.10192-.871-1.073-.76062,1.0039-.48008,2.84509-.46161,1.61816.08633l-.22717-.013c-.13782,1.04279,3.31372-.86859,3.45813-.13065,5.12109-1.63211,10.4342-1.51944,15.33667-1.33252l-.55-.76046,1.74768.13061c.44873.193.57178.60172-.6582.50955.62011.44669,2.09253-.24337,2.15136-.39962,1.20227.24731.93079.48462.47522.57492-.46154.13226-1.12451.26077-.75708.28216a6.626,6.626,0,0,1,1.00037.03449l-.214-.11954a3.99219,3.99219,0,0,1,2.4231-.214c.9115.287.405.51795.76587.60141-.01087.05072.10742.09342.55517.10532a14.3567,14.3567,0,0,1,2.10828.5177l-.71936-.78214c1.00415-.03424,2.00036.547,1.16284-.34411a4.74678,4.74678,0,0,0,1.75488.954c.40222.14782.84546.28881,1.30738.42523.44763.18259.91394.36062,1.37792.53171.9314.33328,1.84607.66055,2.58155.9237a4.63357,4.63357,0,0,1,1.42248.73627,8.74581,8.74581,0,0,1,2.02832.5798,10.46864,10.46864,0,0,1,2.05457,1.06757c-.29627-.321-.20227-1.02292,1.01575-.18964-.56507.44031-.07007.91181.6217,1.44687.68677.5426,1.60937,1.11337,1.771,1.8888-.465-1.14466,3.34936,2.30917,2.59961.61483.90307.80976-.2483.44062.28369,1.23081A15.38381,15.38381,0,0,1,86.78,18.16551c1.09106,1.24572,2.0708,2.68429,3.33069,3.90457.1676-.06482-.00122-.69574.678-.27133l.41967,2.03186c.47876.49569,1.20118-.08826,1.46656,1.28338.0144-.22735.03467-.57229.36242-.22842a11.06728,11.06728,0,0,1,.61573,1.15628l.6062,1.16385c.41687.76849.85815,1.52383,1.31579,2.2738q.58979,1.17805,1.183,2.36289c.37927.7966.8645,1.55185,1.16528,2.3872a22.72524,22.72524,0,0,1,2.15076,10.32581c.19507-.98743.32153-.37589.443.3374.00977-.47784.43054-.05936.65186-.18823l-.21766,2.99554c.68409.47519.20057,3.13367.84852,3.41666l-.16114-.93225c.80982,1.235,1.56787-1.85306,2.53076-1.76758a2.09146,2.09146,0,0,1-.2594-1.24072,14.27565,14.27565,0,0,1,.1073-1.54947,4.82171,4.82171,0,0,0-.647-3.44272c.07349-.56039.39441.38425.54834.062a3.93414,3.93414,0,0,1-.97021-2.58694l.1372.12549c-.26513-.93094-.46582-1.73468-.63134-2.48645-.21619-.73594-.42554-1.411-.61194-2.11216a30.24749,30.24749,0,0,0-1.57459-4.92007l-.28808.49325a5.36825,5.36825,0,0,1-.387-1.5643c-1.10852-.64663,1.10767,2.39191-.03418,1.84675.14844-.74427-.49475-2.2782-1.27441-3.67212-.81165-1.37876-1.58374-2.71781-1.347-3.38086-.759-1.23957-.22143.65262-.99975-.56269l.01538-.475-.53149-.07413c-.51185-.79095-.501-1.39517-.32178-1.57468a5.70666,5.70666,0,0,0,.61792.67386c-.47681-1.19555-2.16541-2.757-2.38855-3.11615a12.3115,12.3115,0,0,1,.72888,1.21152c-.61707-.77841-1.38269-1.49963-2.10242-2.29224-.73987-.77377-1.43957-1.62213-2.22912-2.37478-.81092-.731-1.6272-1.451-2.44117-2.11856-.41113-.32871-.804-.66553-1.2268-.94486-.43372-.26614-.86487-.51446-1.29138-.73971l.09314.34912a7.95687,7.95687,0,0,1-2.14551-1.53394,9.163,9.163,0,0,0-.78357-.73093,14.148,14.148,0,0,0-1.5387-.92019l.12708.01483a6.83442,6.83442,0,0,1-2.16724-.95377c.81775.18949-1.04577-1.228-.00232-.93423-3.0155-1.0528-1.57165-.39719-3.77771-.558l-.27234-.54226a7.00189,7.00189,0,0,1-.9154-.0033,13.54635,13.54635,0,0,1-1.45813-.35486c1.32886.14844-.73621-.87179.78467-.76172a9.13228,9.13228,0,0,0-3.66932-1.38864c-1.00036-.20651-1.803-.21933-2.387-1.00677-1.74341.6112,2.63465,1.26593,1.74414,1.26733.57678.51462-1.42553.4079-2.38928.06757a4.344,4.344,0,0,1-1.40869-1.04587,5.88748,5.88748,0,0,0-1.03528-.719,6.33968,6.33968,0,0,0-1.6322-.44553c.26391.04544.29553-.02832.5592.01669-.95862-.41208-2.00366.05146-3.16955-.555-.75025.48166-1.5929-.21146-1.86084.57266a17.52071,17.52071,0,0,1,2.44568.09519c-1.40748-.06156-2.75892.84134-4.97889.27789a4.5245,4.5245,0,0,1,1.33643-.42c-.65466-.26691-1.28687.08993-1.96875-.184C54.51722.438,57.27687,1.14408,58.824.69508c-.69251-.44464-2.88465.40451-2.066-.42844A2.242,2.242,0,0,1,54.76747.611,3.76737,3.76737,0,0,0,52.257.8234l.11291-.48046a5.34528,5.34528,0,0,1-1.41113.35693l.9458-.66293c-1.46179.60379-2.90295-.32831-4.32129.062,2.99695-.20078.7229.52618,2.00489.79989a6.22579,6.22579,0,0,1-1.91749.19272A2.65983,2.65983,0,0,1,46.63331.81217c-.61853-.27111-1.32019-.5834-3.36182-.15332.54908-.153,2.13477-.0394,1.3025.31034a11.45252,11.45252,0,0,1-2.38038-.1399c-2.648.77765.5127.37235-.55664.94623-1.03039-.33288-1.24585.56211-2.3363,1.03424l-.13721-.46283c-1.54931.23188-1.6726.53833-1.75073.8356-.08325.28913-.12646.55472-1.48206.85117l.88672-1.03577-1.31079.6626.09851-.6203a9.38886,9.38886,0,0,1-3.35717,1.44266c.46044.156.16381.8913-1.0492,1.492-.95984.14435.27368-.64114-1.4425.26279a1.45985,1.45985,0,0,1,1.48767-.979c.01184-.18024.26538-.46354.2832-.64429A10.82283,10.82283,0,0,0,28.5475,5.97233a3.08347,3.08347,0,0,1,.74487-.235l-1.11865.91846L27.13185,7.67738c-.46973.07306-.2439-.23413-.01441-.53977-.4657.3433-.69153.7395-1.38623,1.21039-.01977-.44659-.28052-.7626.661-1.54959L24.29335,8.584a3.71267,3.71267,0,0,0-.78968.11658c-.29077.07459-.52807.11334-.426-.05255a8.81311,8.81311,0,0,0-1.99988,1.81186,14.77869,14.77869,0,0,1-2.24744,2.05093,1.7519,1.7519,0,0,1-.41076.64923c-.722.59537-1.47327,1.08612-2.20594,1.66782a7.5644,7.5644,0,0,0-1.90918,2.34186l-1.37756.47152c-1.05164,1.39814,1.81116-.6799.07629,1.62922-1.0675,1.74783-.92944.22677-1.52038.67742a14.36275,14.36275,0,0,1-.729,1.97471,7.33016,7.33016,0,0,1-1.59094,2.12072A5.96272,5.96272,0,0,1,10.03358,22.59315ZM1.96437,42.21342c-.03272-.42481-.10767-1.29056.2373-1.52219C2.63148,41.27268,2.25965,41.55445,1.96437,42.21342ZM6.56483,73.39765a1.74575,1.74575,0,0,1-.40051-1.22818A3.61839,3.61839,0,0,1,6.56483,73.39765Zm59.36291,25.045a.21444.21444,0,0,0-.03283.03228C65.03077,98.49668,65.33912,98.49619,65.92774,98.44267Zm1.73353-.301c.146-.1217.11364-.18127.02319-.22125-.07776.15607-.44739.29278-.87964.40668C66.9579,98.40763,67.199,98.41642,67.66127,98.14164ZM61.5829,5.26948l-.31739-.176C62.0569,5.07337,61.81971,5.16419,61.5829,5.26948Z"/><path class="cls-2" d="M4.56837,70.30976a.452.452,0,0,1,.19348-.2558C4.637,69.92933,4.5475,69.957,4.56837,70.30976Z"/><path class="cls-2" d="M18.77833,12.55067l.052-.03989a.2071.2071,0,0,0-.00769-.11032Z"/><path class="cls-2" d="M48.61463,113.11216a1.78487,1.78487,0,0,1-.30651-.88672c-.05445.025-.078.08686-.05042.2041a1.1414,1.1414,0,0,0,.0824.21967C48.403,112.76835,48.499,112.92991,48.61463,113.11216Z"/><path class="cls-2" d="M75.777,93.74955l-.90857.64459a2.352,2.352,0,0,1,.94873-.34283C75.7411,93.96446,75.47853,93.92289,75.777,93.74955Z"/><path class="cls-2" d="M85.59767,90.60258c.09546-.15192.28369-.22772.36316-.39386l-.1814-.137C85.23695,90.55229,84.94154,90.996,85.59767,90.60258Z"/><path class="cls-2" d="M77.47633,94.644c.27234.29114.87048-.12085,1.4823-.65533a1.05756,1.05756,0,0,1-.11817.07879C78.7378,93.45933,78.13978,94.09617,77.47633,94.644Z"/><path class="cls-2" d="M79.10609,93.87364a4.77782,4.77782,0,0,1,.61157-.42029C79.6714,93.21073,79.44276,93.57975,79.10609,93.87364Z"/><path class="cls-2" d="M69.66944,97.16435c.38758-.02277.03687-.56079.29236-.474C70.1753,96.07035,67.848,98.07792,69.66944,97.16435Z"/><polygon class="cls-2" points="78.73 95.48 78.217 95.19 78.02 95.76 78.73 95.48"/><path class="cls-2" d="M72.80238,98.07285l1.24927-.40344c-.05347-.06817.07727-.18017.24682-.29663C73.55751,97.68376,72.71546,97.949,72.80238,98.07285Z"/><path class="cls-2" d="M74.29847,97.37278a2.96469,2.96469,0,0,0,.91663-.50812C75.01942,96.97776,74.577,97.17759,74.29847,97.37278Z"/><polygon class="cls-2" points="77.23 96.477 76.839 96.573 76.01 96.988 77.23 96.477"/><path class="cls-2" d="M60.62721,104.43827l-.69238,1.26264c.059.21759.36657-.04493.61218-.5235C60.64234,104.82688,60.88844,104.35105,60.62721,104.43827Z"/><path class="cls-2" d="M64.10328,102.2349a1.22644,1.22644,0,0,1-.37951-.07757.46514.46514,0,0,0-.28577-.06287l.37524.55072C63.81971,102.40153,63.99159,102.373,64.10328,102.2349Z"/><path class="cls-2" d="M61.96559,105.16917c.0614.21521-.76892,1.99438.22668.47491C62.13356,105.42759,62.82765,104.16337,61.96559,105.16917Z"/><polygon class="cls-2" points="48.665 110.175 48.878 110.471 49.688 109.852 48.665 110.175"/><path class="cls-2" d="M33.7046,101.5493c1.59863.83178.62158-.44349,2.03455.37164.47241-.09131-1.15406-.66181-.67835-.71741C33.95765,101.11247,33.5005,100.72569,33.7046,101.5493Z"/><path class="cls-2" d="M35.0608,101.20353a5.55568,5.55568,0,0,0,.56592.03186A2.52428,2.52428,0,0,0,35.0608,101.20353Z"/><polygon class="cls-2" points="100.524 49.686 100.365 50.732 100.672 50.047 100.524 49.686"/><path class="cls-2" d="M101.38136,51.66447l-.63611.25662.62024.6246C101.32423,52.30747,101.24415,51.84806,101.38136,51.66447Z"/><path class="cls-2" d="M.18922,45.16371l.14148.10922c.19446-.1554.24768-.42194.356-.956Z"/><polygon class="cls-2" points="5.084 30.23 4.955 30.468 5.704 30.263 5.084 30.23"/><path class="cls-2" d="M11.44813,18.60264c-.34705.42075-.62878,1.01407-.97583,1.4361C11.10316,19.01991,12.10414,18.94743,11.44813,18.60264Z"/><path class="cls-2" d="M48.28224,83.35124c.09192.05737.13415-.067.11694-.04572C48.36134,83.25578,48.3025,83.34464,48.28224,83.35124Z"/><polygon class="cls-2" points="49.277 83.813 49.458 83.814 49.317 83.789 49.277 83.813"/><path class="cls-2" d="M49.68714,84.0048l-.00073-.04889-.14184.07929c.18371.09631.45776.14471.55944.25445C50.11256,84.09135,49.79322,84.1536,49.68714,84.0048Z"/><path class="cls-2" d="M50.31153,84.81419a.67286.67286,0,0,1,.09107.04468c-.00256-.07709.12829-.00879-.10425-.06977Z"/><path class="cls-2" d="M50.31153,84.81419c-.098-.03791.03919.08111,0,0Z"/><path class="cls-2" d="M50.62306,84.96708c.0122.04858.12536.10126.072.11292.14624.01837.13074-.03186.07825-.12226Z"/><path class="cls-2" d="M50.93751,84.87614l-.07471.00342C50.86879,84.89958,50.88465,84.911,50.93751,84.87614Z"/><path class="cls-2" d="M50.79225,84.875c.02917-.04547-.015-.00787-.08765.0047l.1582-.00018C50.85353,84.84648,50.87159,84.79093,50.79225,84.875Z"/><path class="cls-2" d="M50.64588,84.69456c-.2434-.07507-.26208.05688-.01049.12976C50.57826,84.761,50.49806,84.70414,50.64588,84.69456Z"/><path class="cls-2" d="M50.07313,84.07072c.04834-.004.13733.12952.15857.07672l-.0592-.08875Z"/><path class="cls-2" d="M51.57093,85.28062c.01636-.03534-.02331-.10846-.02234-.1579l-.10742.02051C51.485,85.18125,51.57606,85.22373,51.57093,85.28062Z"/><path class="cls-2" d="M51.54859,85.12272l.15882-.0329C51.58021,85.055,51.54982,85.08012,51.54859,85.12272Z"/><path class="cls-2" d="M50.75221,84.745c.10547-.00769.21045-.02105.31421-.03747l-.04383-.01215C50.933,84.716,50.84327,84.73155,50.75221,84.745Z"/><polygon class="cls-2" points="52.043 85.461 52.213 85.349 52.141 85.386 52.043 85.461"/><path class="cls-2" d="M52.52186,85.41129c-.06933.06818.077.12867.00635.16877a.61027.61027,0,0,0,.28137-.11347A.3426.3426,0,0,1,52.52186,85.41129Z"/><path class="cls-2" d="M52.008,85.16441l-.057-.01087a.17592.17592,0,0,0,.09863.12567Z"/><path class="cls-2" d="M52.00648,85.16068l.00147.00373.12292.02575Z"/><path class="cls-2" d="M51.4983,84.71079c-.07593.05555.006.13092-.14026.18506C51.457,84.86057,51.6388,84.8419,51.4983,84.71079Z"/><path class="cls-2" d="M51.71192,85.04923l.177-.0415-.14612-.05316C51.74,84.98283,51.75941,85.029,51.71192,85.04923Z"/><polygon class="cls-2" points="51.969 84.986 51.889 85.008 51.944 85.026 51.969 84.986"/><path class="cls-2" d="M52.68116,85.276a.4824.4824,0,0,1,.22583-.04657,1.496,1.496,0,0,0-.26428-.04614C52.62831,85.216,52.58546,85.27342,52.68116,85.276Z"/><polygon class="cls-2" points="53.722 85.214 53.707 85.195 53.706 85.214 53.722 85.214"/><path class="cls-2" d="M52.4828,85.19108a.82742.82742,0,0,1,.15991-.00781c.00647-.01471.00818-.02466-.01343-.02082A.1371.1371,0,0,0,52.4828,85.19108Z"/><path class="cls-2" d="M53.05983,85.2819c.03332.03455.103.08868.11547.0611A.81251.81251,0,0,0,53.05983,85.2819Z"/><path class="cls-2" d="M52.38819,85.24613a.36025.36025,0,0,0,.09461-.055.48587.48587,0,0,0-.114.02313A.12925.12925,0,0,1,52.38819,85.24613Z"/><path class="cls-2" d="M53.41481,85.201l-.06263.01373a.63436.63436,0,0,1,.22547.12647c.10437-.05567.12317-.09388.12805-.12726-.10425.003-.20837.00634-.31189.00238Z"/><path class="cls-2" d="M53.06983,85.21684c.05079-.10517.19727-.15216.10718-.268-.17749.00372-.12549.0874-.23449.13178.2926-.02039-.08594.0581.12524.12384a.726.726,0,0,1-.16077.025,1.12141,1.12141,0,0,1,.15284.05249l-.00672-.00684-.00146.00031.00036-.00165c-.01269-.01373-.01672-.022-.00244-.01385l.00623-.00208a.13962.13962,0,0,1,.014-.0404c.0857.024.01331.02826-.014.0404l-.00379.01593.0011.00134.29907-.06036A1.17894,1.17894,0,0,0,53.06983,85.21684Z"/><path class="cls-2" d="M51.6985,84.51988a.03476.03476,0,0,1,.00317.02624C51.72218,84.537,51.73072,84.52958,51.6985,84.51988Z"/><path class="cls-2" d="M51.65907,84.6696l.02283-.01014c.10241.06012.22436.22248.20251.23182a.86622.86622,0,0,0-.08752-.284c-.02283.0105-.04847.04913-.11145.02441-.04932-.04358.01159-.05035.01623-.08557C51.65724,84.5659,51.547,84.5922,51.65907,84.6696Z"/><path class="cls-2" d="M52.42054,84.91477l.24256-.03283-.113-.101.00134.05622C52.41944,84.80351,52.44178,84.87309,52.42054,84.91477Z"/><polygon class="cls-2" points="53.73 85.381 53.863 85.21 53.755 85.265 53.73 85.381"/><polygon class="cls-2" points="54.081 85.317 54.16 85.247 54.081 85.217 54.081 85.317"/><path class="cls-2" d="M59.89332,79.90959l-.1134.0108a.25936.25936,0,0,1-.05591.17621C59.83766,80.013,60.00526,79.91886,59.89332,79.90959Z"/><path class="cls-2" d="M57.14845,83.89951a.66254.66254,0,0,0,.22107-.09521C57.2422,83.82774,57.11622,83.80985,57.14845,83.89951Z"/><path class="cls-2" d="M57.57313,83.6284l-.05347.01367a.51267.51267,0,0,1-.15014.16223A.21272.21272,0,0,0,57.57313,83.6284Z"/><path class="cls-2" d="M55.30311,84.9893l-.062.0097C55.23805,85.019,55.24928,85.02732,55.30311,84.9893Z"/><path class="cls-2" d="M55.39015,84.95793l.09143-.03772a.41522.41522,0,0,1-.11231.02667C55.3849,84.94938,55.39247,84.95329,55.39015,84.95793Z"/><path class="cls-2" d="M59.65419,79.93125l.12573-.01086.001-.02051c.06226-.07562-.041-.07819-.13952-.05237a.35234.35234,0,0,0-.04993-.12457c.20154-.034-.02392-.22845.19019-.29114-.08887-.0708-.02832-.43872-.242-.495.02784-.0011.04273-.02478.04139.02008a.28065.28065,0,0,0-.00013-.2677l.15406-.03644-.20508-.20306c.09057-.12195.14355-.17792.26416-.056-.18653-.29267-.07837-.24268-.27234-.47864l.09936.00342c-.01086-.09058-.16149-.21619-.08581-.27948.16919-.23114-.14038-.9845-.18787-1.52973-.23095.20368.02942-.27954-.19128-.20892.05054-.05567.05505-.14063.14526-.08588-.17383-.21844-.08288-.42578-.34375-.4967.04444-.06153.11719.00085.1388-.0434-.02417-.01214-.09571-.04608-.07459-.09167.02124-.04529.07019.00573.11841.02929-.1521-.2445-.35376-.14843-.53015-.05859.00647-.16528-.04419-.2182-.20838-.22046.02613-.07532.03431-.181.15174-.05749-.04126-.08484-.2749-.52369-.40637-.42554.01171-.04822-.07715-.10651-.10706-.11273a1.85,1.85,0,0,0-.28821-.32386l.02063.05945c-.192.07569-.149-.0896-.28454-.18689l.01684-.01117c-.18811-.35724-.1593-.06134-.3457-.4226l-.05921.106c-.18408.17975-.16381-.32428-.40637-.36987l.025.10138c-.142.00794-.0824-.4776-.17994-.57117-.01232-.03308.056-.00927.098-.004-.21009-.29743-.11817.113-.345.02423.001-.09552.157-.162.01611-.2536-.04773-.10474-.54712.03027-.69165-.19391.0227.07885.04187.15619-.07922.16186-.15967-.0404-.35914-.39178-.56849-.23279a.07184.07184,0,0,1-.01611-.05743c-.14.012-.4342-.01318-.52917.08154-.05384-.43969-.807.0915-.76624-.2771-.1333-.00476-.26587.00092-.39831.00476l.01086-.03881a.42058.42058,0,0,0-.42615.1632c-.05871-.02252-.01843-.0606-.0144-.081a.63762.63762,0,0,0-.69287.19574l-.04956-.11749c-.06568.08081-.57178-.1037-.89283.145a.08114.08114,0,0,1,.02344-.0644c-.34265.23914-1.08508.03382-1.02453.51831-.06409.07367-.127.14643-.18494.22449.31567-.13556.0498.19507.20764.193-.09729.08636-.36133.05041-.23242-.05024l.03345.00678c-.06849-.23908-.405.14935-.48389.014a8.0243,8.0243,0,0,0-1.56274,1.26483l.18908.05981-.14721.16669c-.06934.01984-.16224-.02454-.0564-.14795-.13428.00421-.099.26666-.06677.2937-.24158.21405-.1012-.22662-.15967-.15094l-.06629.11749.03467-.0122c0,.13293.05542.18145-.05591.33874-.09619.08344-.1289-.00732-.16088.03-.01087-.00714-.02491.00372-.04456.06073l-.15808.24335.18249-.02942c0,.14441-.13684.22723.07032.19275-.32911.041-.52234.91418-.60828,1.004a1.07121,1.07121,0,0,1-.057.56634c.04053-.04553.205-.03857.14844.13086-.31787-.13153-.20618.29688-.45923.41516.16919-.1134-.01465.53131.23255.34119-.03724.14917-.12561-.00073-.21216.11078.10705.36963-.10535.811-.00916,1.27246.04444.00165.10266-.08057.17871.008-.06408.08716-.12793.17676-.18579.26862.03687.08838.26258.04053.14136.22986.03149-.03.07959-.07373.10547-.01776-.03113.95092.68823,1.64953.88843,2.59808-.00306-.1521.05212-.08838.10913-.0133-.01905-.0622.08838-.06312.12939-.10834l.10144.39917c.17041-.05286.27368.30127.41992.21985l-.10156-.06665c.13916-.00733.17456-.15314.2179-.30127.08069.09149.14172.1911.22888.28a5.87716,5.87716,0,0,0,4.3789,1.79676c.05176,0,.10132-.00592.15259-.00708a.05827.05827,0,0,0-.035.01019l.00659.05591c.08-.00519.1239-.04444.06091-.06763.07642-.00213.15235-.00592.22779-.01062-.12769.08637-.02759.40137.11682.57251.00122-.04376-.00061-.08246.14441-.153-.05933-.04834-.33972-.1023-.22107-.20014.1886-.06488.1604.02533.26074.06592-.08118-.101.14661-.19.15222-.33087a5.84582,5.84582,0,0,0,.59351-.11231l.05322-.00763h-.0227q.25744-.06426.50634-.15149c-.00464.01923-.01513.04.00672.05237l.09362-.05285c.13172.06817-.14.2091.00623.21087a.62519.62519,0,0,1-.46167.28315l-.07605-.138c.01477.04242.15454.05182.19812-.00891-.06811.09259-.355-.11859-.40222.09418l.16675.07147c-.12659.11011-.285.30841-.48462.29.111.13471.03967-.02417.20715.12683-.15747-.18878.49243-.09265.25354-.27936.18591.17157.25513.02454.48621.143-.021-.04846-.09119-.0705.07324-.09949a.21417.21417,0,0,1,.02063-.05389l.01172.00006-.0105-.00281c.00439-.00946.00452-.01117-.00391-.00085a.188.188,0,0,1-.10254-.04682c.04187-.136.283-.21209.33887-.30334.09632-.01233-.0155.06848.05225.09973l.08533-.13055c.05456.10229.308.066.12512.22174l.19128-.08149a.47313.47313,0,0,0,.37195-.14111c.10071-.02405.15234-.23205.12378-.11157.08118-.07611.16418-.14758.2395-.228l.0177.022c.28235-.1623.41638-.5199.81738-.6a.8963.8963,0,0,1,.26563-.28949l.09265.0451c.07568-.11615.35461-.22863.321-.33953.296.06536.48168-.47126.65087-.647l-.09814-.08075a1.44876,1.44876,0,0,0,.223-.48816l-.10241-.04663c.00793-.19446.29357-.34906.39807-.61334.03112.035-.00855.09564-.05262.13013.37928-.20594.10389-.71668.3617-.94135a.17486.17486,0,0,1,.05041-.17651.03681.03681,0,0,0,.00074.01965l.00952-.02966a.87968.87968,0,0,0,.08386-.08789.42835.42835,0,0,0-.07971.07171A.7921.7921,0,0,0,59.65419,79.93125Zm-1.37146-4.94018c.07434.05279.14758.10791.21777.16656-.00476.041-.06543.04834-.14392.04993l.05762.01855a.09139.09139,0,0,1-.05848.08869c-.022-.03436-.03491-.07221-.05774-.10626l.0586-.001-.07361-.02667c-.01-.01465-.021-.02875-.031-.04328A1.1308,1.1308,0,0,0,58.28273,74.99107Zm-10.77857.095.0509-.02124C47.53053,75.16837,47.51893,75.12809,47.50416,75.086Zm6.09522,9.53638c.07971-.00507.1604-.00745.239-.01545A.194.194,0,0,1,53.59938,84.62242Zm.29382-.0138.00305-.01.02149-.00317Zm2.1698-.03979.0022-.00776C56.18727,84.55039,56.14308,84.55259,56.063,84.56883Zm.67151-.71369c-.17151.17822-.16309-.05505-.181-.00671-.39087.2066-.13819.52453-.55261.57178-.19495-.05372-.12342-.23621-.19666-.30829.14307-.13312.299-.0567.40808-.13043l-.16919.024c.03247-.06683.1211-.16174.20056-.16247a.30918.30918,0,0,0-.11694.02569,6.01885,6.01885,0,0,0,.76318-.52942A.736.736,0,0,1,56.73451,83.85514Zm.95752-1.11285a.19516.19516,0,0,0-.11267-.05347c.04846-.05163.08471-.10736.1311-.15973A.41479.41479,0,0,1,57.692,82.74229Zm.49524-.678a.13169.13169,0,0,1-.06751-.03351c.04163-.0567.09729-.10889.1366-.16632l.16138.10467-.14209-.12951c.04174-.06165.06543-.12927.10449-.19184a.947.947,0,0,1,.2771.22022A1.58148,1.58148,0,0,1,58.18727,82.06425Zm.93725-1.00183c-.05823-.09461-.15-.2442-.24365-.3982.04175-.10742.0658-.2207.10083-.33026a.79918.79918,0,0,1,.23682.47333l-.09619.0199C59.12648,80.90586,59.12648,80.984,59.12452,81.06242Zm.15161-2.62812c-.00085-.05322-.01245-.10229-.0144-.155.08081.05181.16455.09356.24353.14935A.82636.82636,0,0,0,59.27613,78.4343Z"/><path class="cls-2" d="M54.69642,85.13951c.0094.02673.04737.06005.00061.0725l.14331-.06439A.20367.20367,0,0,1,54.69642,85.13951Z"/><path class="cls-2" d="M54.28736,84.83524c-.00622.1446.09461.08149.191.015-.03112-.09534-.11242-.04779-.20861-.0119Z"/><path class="cls-2" d="M54.15589,84.86369c-.00329.05822.03931.00537.09144-.01813A.30207.30207,0,0,1,54.15589,84.86369Z"/><path class="cls-2" d="M55.55372,84.9036c-.00464.14087.2572-.26995.02454-.10467C55.522,84.79307,55.59547,84.9315,55.55372,84.9036Z"/><polygon class="cls-2" points="54.336 84.537 54.394 84.654 54.428 84.544 54.336 84.537"/><path class="cls-2" d="M54.93983,84.44956c.0083.01947-.0072.03656-.02808.05219.09436-.01959.2013-.03369.18641-.06665Z"/><path class="cls-2" d="M56.61659,83.58946c-.01453.04864-.05676.09838-.01172.11749l.11621-.1297C56.70936,83.53257,56.65687,83.53855,56.61659,83.58946Z"/><polygon class="cls-2" points="48.156 83.132 48.158 83.009 48.101 82.994 48.156 83.132"/><path class="cls-2" d="M48.41908,83.05937l-.09534.13562.16174-.04236C48.45948,83.13535,48.40846,83.1016,48.41908,83.05937Z"/><path class="cls-2" d="M46.23353,25.88255c.03247.2528.14575.11316.11878.11956C46.356,25.85105,46.25318,25.90525,46.23353,25.88255Z"/><polygon class="cls-2" points="46.637 28.45 46.755 28.816 46.681 28.493 46.637 28.45"/><path class="cls-2" d="M46.76466,30.82334c.17041-.22271-.05969-.84381-.01148-1.2597l.03821-.06885-.15051-.18579A11.66728,11.66728,0,0,1,46.76466,30.82334Z"/><path class="cls-2" d="M46.4242,32.07249c.06666-.078.06959.26788.01111-.29041l-.01574.05286Z"/><path class="cls-2" d="M46.41957,31.83494c-.01392-.24561-.05237.16168,0,0Z"/><path class="cls-2" d="M46.50087,32.96842l-.07374-.32226c-.03857.06836-.03735.35663-.071.25024C46.40223,33.2277,46.44044,33.15849,46.50087,32.96842Z"/><path class="cls-2" d="M46.64234,33.27238l-.03234-.167C46.59388,33.13511,46.58949,33.17954,46.64234,33.27238Z"/><path class="cls-2" d="M46.54164,32.751l.06836.35431c.0271-.04743.08471-.05353-.026-.16272C46.63795,32.97062,46.58461,32.90135,46.54164,32.751Z"/><path class="cls-2" d="M46.68312,32.45573c-.04725-.6181-.16932-.52484-.12171.0935C46.59364,32.367,46.60939,32.1323,46.68312,32.45573Z"/><path class="cls-2" d="M46.9535,30.93955l.04346-.24292-.06751-.20874C46.9629,30.59214,46.8982,30.95542,46.9535,30.93955Z"/><path class="cls-2" d="M46.62721,34.84934l-.05237-.23779c-.02148.12348-.03687.35687-.09253.37463C46.521,35.00541,46.57948,34.87473,46.62721,34.84934Z"/><path class="cls-2" d="M46.62721,34.84934l.07824.35572C46.70143,34.88566,46.66835,34.8281,46.62721,34.84934Z"/><polygon class="cls-2" points="46.843 33.326 46.684 32.742 46.849 33.439 46.843 33.326"/><polygon class="cls-2" points="46.578 36.509 46.528 36.352 46.432 36.152 46.578 36.509"/><path class="cls-2" d="M46.57618,37.25767c-.07824-.14764-.1156.20978-.16626.05261a2.707,2.707,0,0,0,.1554.64118A1.84705,1.84705,0,0,1,46.57618,37.25767Z"/><path class="cls-2" d="M46.709,35.81443a.43592.43592,0,0,0-.09814.28449l.10169-.14368Z"/><path class="cls-2" d="M46.71571,35.95017l-.00317.00507.00512.30383Z"/><path class="cls-2" d="M46.78016,34.26451c.06738.20855.14746.64428.223.21868C46.92457,34.33451,46.8816,34.57816,46.78016,34.26451Z"/><path class="cls-2" d="M46.74574,35.19511l.08948.40552.01049-.38013C46.81788,35.22874,46.77919,35.29826,46.74574,35.19511Z"/><polygon class="cls-2" points="46.876 35.786 46.835 35.601 46.831 35.742 46.876 35.786"/><path class="cls-2" d="M46.73487,37.61228a2.34476,2.34476,0,0,1,.07776.54407c.01306-.218.01612-.44281.00818-.65607C46.78614,37.47135,46.72254,37.37968,46.73487,37.61228Z"/><polygon class="cls-2" points="46.885 40.151 46.903 40.118 46.885 40.112 46.885 40.151"/><path class="cls-2" d="M46.83937,37.46317a.69539.69539,0,0,0-.0514-.35247c.01514.12176.02686.25085.03284.38958C46.83644,37.51335,46.84645,37.51554,46.83937,37.46317Z"/><path class="cls-2" d="M46.77735,38.53623c-.03076.08435-.07727.25586-.04834.28492C46.7483,38.73527,46.76356,38.63816,46.77735,38.53623Z"/><path class="cls-2" d="M46.71485,36.89646l-.00561-.02429C46.68824,36.92643,46.69923,36.91941,46.71485,36.89646Z"/><path class="cls-2" d="M46.71485,36.89646a1.33107,1.33107,0,0,0,.07312.21424,2.55206,2.55206,0,0,0-.04565-.27021A.24523.24523,0,0,1,46.71485,36.89646Z"/><path class="cls-2" d="M46.88722,39.40318l-.01795-.15387a2.2609,2.2609,0,0,1-.11462.53924c.05762.255.09631.30677.12988.32312l-.014-.76068Z"/><path class="cls-2" d="M47.12306,38.81034c-.02405-.45233-.10157-.31384-.15821-.5827.05359.7298-.0675-.20782-.10925.32251-.02356-.143-.03393-.272-.043-.3938-.00818.13208-.01977.25958-.03528.37988l.00611-.017-.00049-.00341.00171.00067c.01233-.032.02-.04273.01355-.0069l.00281.0152a.10323.10323,0,0,1,.04174.03149c-.0144.21253-.02673.03437-.04174-.03149-.00538-.00226-.01062-.00781-.01636-.0083l-.00122.00274.08581.73011a5.66434,5.66434,0,0,0-.02588-.69306C46.95558,38.67289,47.0149,39.04167,47.12306,38.81034Z"/><path class="cls-2" d="M47.14906,37.19389c.00915-.34711-.057-.27008-.10169-.31177l.0752.60754.08179-.31329Z"/><polygon class="cls-2" points="46.834 40.223 46.717 40.147 46.891 40.493 46.834 40.223"/><polygon class="cls-2" points="46.877 41.015 46.777 40.99 46.844 41.197 46.877 41.015"/><path class="cls-2" d="M47.6006,60.41972c-.08289.26056-.21546.55133-.10535.51965l.10547-.08026A1.41735,1.41735,0,0,1,47.6006,60.41972Z"/><path class="cls-2" d="M47.21376,49.1121a3.63527,3.63527,0,0,0-.0448.56238C47.2212,49.4019,47.30665,49.18022,47.21376,49.1121Z"/><path class="cls-2" d="M58.85633,51.69419c-.0155-.10986-.03576-.15722-.06-.15478C58.81056,51.65251,58.82887,51.71671,58.85633,51.69419Z"/><path class="cls-2" d="M47.19313,50.32261l.02111-.11945a3.48674,3.48674,0,0,1-.04528-.52868A1.17369,1.17369,0,0,0,47.19313,50.32261Z"/><path class="cls-2" d="M47.27211,23.26438a1.33425,1.33425,0,0,0-.18506.29438A2.76619,2.76619,0,0,1,47.27211,23.26438Z"/><path class="cls-2" d="M46.9463,44.20567c-.01318-.16712-.01294-.02594,0,0Z"/><path class="cls-2" d="M47.92921,51.97111l.00012.01453C47.94874,51.93516,47.945,51.94383,47.92921,51.97111Z"/><path class="cls-2" d="M46.98634,43.951a2.043,2.043,0,0,0-.02442.21594A2.05529,2.05529,0,0,0,46.98634,43.951Z"/><path class="cls-2" d="M46.93629,43.98771l.00513-.14746C46.92262,43.82,46.912,43.83946,46.93629,43.98771Z"/><path class="cls-2" d="M46.9607,44.43864a2.48,2.48,0,0,1,.00122-.27167c-.0061.03327-.01171.04736-.01562.0387Z"/><path class="cls-2" d="M46.6681,25.399c-.00244-.10682.00781-.21393.0116-.32184.0625.2373.21472.0592.377-.12036a4.4915,4.4915,0,0,0-.1001.92578c0,2.12268.07837,5.10266.231,8.89166-.03039-.08734-.06592-.14179-.09351.0827l.01648.05139a1.5371,1.5371,0,0,1-.16333.62659.96628.96628,0,0,0,.24793-.36493.50459.50459,0,0,1-.05689-.269c.01734-.0968.03394-.06909.05274-.03949.06079,1.50445.134,3.14453.21875,4.90961-.12927-.1319-.36646.07946-.50647.34735.04358.00952.08349.00793.15564.38043.04919-.13361.096-.8371.197-.52448.06909.49427-.02014.40821-.0636.6518.09192-.16687.16614.31756.28113.46948.01306.26367.02808.54816.0415.81726l-.09424.07532.10511.13672c.03039.5993.05932,1.18475.09216,1.81061l.01148.22625c-.01661-.02234-.03309-.02881-.04871.01264l.029.2785c-.09875.26227-.16894-.51819-.20642-.162a3.86115,3.86115,0,0,1-.1831-1.31677l.14941-.10681a.78689.78689,0,0,0-.02637.49591c-.076-.217.17749-.82-.03186-1.05151l-.09253.37542a4.26965,4.26965,0,0,1-.23913-1.30236c-.14344.22009.02124.10717-.14356.44836.2096-.29889.03467,1.19928.249.72449-.19288.35162-.06543.59546-.22413,1.05108.05005-.01642.09082-.16314.08033.23151a.41961.41961,0,0,1,.04773.08405l-.00281.02673.00513-.022c.00817.01666.00976.01806.00183-.00824a.53684.53684,0,0,1,.06933-.20435,6.259,6.259,0,0,1,.21009,1.02106c-.01539.234-.06141-.09442-.11072.03534l.10132.3106c-.111.03681-.16358.62708-.24939.08234l.01306.49341a2.72594,2.72594,0,0,0-.00635.9378c-.01575.23359.14575.582.05042.38324l.0979.77051-.02771.0083a10.63972,10.63972,0,0,1,.073,2.44409,4.53392,4.53392,0,0,1,.066.95124l-.094.08685c.046.32874-.06067.9931.04565,1.132-.24816.36285.00184,1.60168-.02319,2.1828l.12756.01923a10.51236,10.51236,0,0,0,.12671,1.2763l.11084-.03253a14.66163,14.66163,0,0,1-.00293,1.77637c-.04455-.04547-.03955-.217-.01819-.33875-.22351.81049.24683,1.70233.08936,2.43677a.95.95,0,0,1,.01489.44275.18581.18581,0,0,0-.00744-.04523l.00134.075-.05029.25385a1.24181,1.24181,0,0,0,.05212-.21356,5.27846,5.27846,0,0,0,.06506.56341l-.11706.08954.00525.0484c-.03687.20544.063.165.14953.05512a1.67614,1.67614,0,0,0,.08289.27673c-.188.16907.0852.545-.11292.78137.05848.08142.07276.3786.16578.66821.08374.28882.22961.55567.35681.568-.02246.01764-.0072.08685-.059-.02961a1.26617,1.26617,0,0,0,.38025.657l-.0481.1842a2.72517,2.72517,0,0,0,.55347.26367c.21106.27149.31653.41358-.0437.29731a6.851,6.851,0,0,0,.70617.27423,1.97971,1.97971,0,0,0,.62073.10968l-.06177.08362c.23389.078.63184.03576.75342.13879a8.84893,8.84893,0,0,0,3.96045.13647c-.33643-.2041.66138-.05066.63867-.30114.09876.03766.29663.00219.10535.13983.634-.32648,1.041-.33832,1.37634-.80359.11267.00439-.07507.17816.012.16608.04407-.04786.1648-.19275.2533-.21558.08862-.02173-.05188.12292-.13806.218.65137-.52356.49634-.79663.38318-.94184a.78941.78941,0,0,0,.36181-.76593c.09839-.1026.245-.31219.10706.16358a2.57138,2.57138,0,0,0,.22021-.92328c.0149-.36658.00867-.65076-.07092-.67017a.87791.87791,0,0,0,.0083-.39239c.02979-.53.0459-.57648.05066-1.097l-.03161.14411c-.18494-.20667-.02649-.43305-.0337-.85279l.01929.01215c.17578-.96082-.05078-.4162.144-1.36359l-.12182.05017c-.25452-.09192.1842-.83917.10657-1.39129l-.07605.19781c-.07679-.30261.38269-.83508.42639-1.13611.0249-.06536.032.10462.04516.19678.18213-.78723-.1532-.10541-.16723-.69525.08886-.10687.21008.14435.241-.25159.076-.19555-.2312-1.15619-.04809-1.69311-.06983.11749-.13953.23419-.1781-.04084-.00733-.42047.28991-1.12683.09851-1.51184.0199-.05279.03772-.07238.05408-.07409a6.6646,6.6646,0,0,0-.15271-1.24213c.42529-.28107-.12525-2.00214.2561-1.97986l.01709-.98718.03808.02747a2.13681,2.13681,0,0,0-.11694-1.0824c.03162-.14453.06311-.03638.08264-.02338a3.90908,3.90908,0,0,0-.0614-1.79223l.12683-.0738a18.02025,18.02025,0,0,0,.13513-2.23767c.01368.00959.037.02954.05164.10236-.10645-1.02557.4364-2.42621-.00024-2.81867l-.08545-.67688c-.057.72626-.152.14954-.23328.14637.00623-.12879.01318-.26551.01941-.39289.049-.16156.10742-.22857.11145.0066l-.02515.06488c.22925.16339.12451-1.07758.28369-1.04853.05359-1.71228.24732-3.37768.31836-4.98217l-.18982.181.03174-.55915c.04822-.14593.15064-.19439.12781.20465a.89763.89763,0,0,0-.10059-.6831c.10376-.78021.20154.309.21509.06939l-.00122-.3258-.02417.07306a1.60635,1.60635,0,0,1-.11572-.76935c.04809-.303.11865-.15411.13037-.27356.01282.00092.02051-.03937.01221-.18323l.04236-.705-.155.28027c-.05933-.31323.03271-.6626-.14319-.33923a17.62121,17.62121,0,0,0,.28-2.92054c-.09485-.43115-.03809-.86761-.12183-1.45288-.01428.14893-.14685.24469-.21912-.2265.39234.09577-.08691-.9126-.15124-1.37365.02722.20635-.16321-.11634-.3938-.36414-.23059-.25079-.4707-.43439-.35217-.15759-.27124-.31147.0758-.10852-.1034-.38471A8.00355,8.00355,0,0,0,55.33851,21.094c-.02734.03888.15015.14856-.11255.15625-.18664-.11743-.38037-.2279-.57922-.33129-.24048-.01209-.24585.21746-.65576.0263.05737.04151.141.10388-.015.106a7.75216,7.75216,0,0,0-3.48669.25421,8.29374,8.29374,0,0,0-3.2041,1.78076c.28979-.21539.13916-.03558-.01306.1781.119-.12426.08508.06763.15356.07569a3.92563,3.92563,0,0,0-.64661.83636C46.83143,24.40263,46.495,25.27024,46.6681,25.399Zm.4436,20.63763.00635.01282C47.08107,46.32444,47.09608,46.22679,47.1117,46.0366ZM59.59291,30.40281l-.03577.11017C59.532,30.26274,59.56068,30.33311,59.59291,30.40281ZM47.95045,50.7805c.02893.65326.05737,1.29986.08252,1.91113a1.94846,1.94846,0,0,1-.22534-.61139c.04407.02148.09729-.06653.12158-.10913C47.92091,51.49113,47.93946,51.14329,47.95045,50.7805Zm-.48352-2.43634c-.07459-.60688.12659-.26954.09277-.37409-.00525-1.14606-.40393-.95874-.28674-1.915.12048-.38305.2666-.02942.36035-.11749a7.04035,7.04035,0,0,1-.03955,1.10217l.04834-.417a1.78664,1.78664,0,0,1,.06421.66821,4.40861,4.40861,0,0,0,.03223-.98455c.05664,1.13159.10986,2.22515.15771,3.25933A2.6853,2.6853,0,0,1,47.46693,48.34416Zm.23535,7.0382a9.16608,9.16608,0,0,1,.23755-1.10455c.04419-.09045.098-.07782.15442-.03192.016.42291.03052.82886.04443,1.229A.50625.50625,0,0,1,47.70228,55.38236Zm.0918,3.00965.07727-.13642-.11365-.54095a9.04025,9.04025,0,0,1,.47412.83679c.00708.29242.01233.56519.01795.84052A2.775,2.775,0,0,1,47.79408,58.392Zm1.34363,5.95648a.37.37,0,0,0,.1394-.19373,2.94,2.94,0,0,0,.3147.22663A2.908,2.908,0,0,1,49.13771,64.34849Zm8.51977-.89734c-.07434.05591-.07007-.03534-.06714-.16669l-.03906.12671c-.09424.07929-.13867.0791-.15918.04065a2.33138,2.33138,0,0,0,.19727-.2865c0,.04.001.08173.001.11914a2.24683,2.24683,0,0,0,.061-.25287l.00171-.00378a1.416,1.416,0,0,0,.24438-.25751A2.38228,2.38228,0,0,1,57.65748,63.45115Z"/><path class="cls-2" d="M46.82814,42.46909l.04467.36286a1.00424,1.00424,0,0,1,.02747-.33C46.87245,42.51139,46.83424,42.58293,46.82814,42.46909Z"/><path class="cls-2" d="M47.21608,42.113c.10034-.03363.05749-.26025.02941-.51434l.00159.04511C47.10255,41.575,47.15943,41.84464,47.21608,42.113Z"/><path class="cls-2" d="M47.23988,41.53965a1.93815,1.93815,0,0,1-.01111-.23547C47.17079,41.27683,47.22035,41.40025,47.23988,41.53965Z"/><path class="cls-2" d="M47.04957,44.75187c.02173-.12189-.1322-.06915-.0935-.13946C46.82215,44.48423,47.14161,45.40843,47.04957,44.75187Z"/><path class="cls-2" d="M47.544,43.49809c-.02076.00726-.03492-.04383-.04663-.10688.005.251-.00977.52729.027.51575Z"/><path class="cls-2" d="M47.49733,43.39121a1.33637,1.33637,0,0,0-.03272-.32666A3.04664,3.04664,0,0,0,47.49733,43.39121Z"/><path class="cls-2" d="M47.66078,48.28184l.05212.44263c.04456.04358.06641-.07843.04321-.24317C47.7223,48.37614,47.69972,48.21208,47.66078,48.28184Z"/><polygon class="cls-2" points="48.081 54.808 47.828 54.829 48.088 54.921 48.081 54.808"/><path class="cls-2" d="M46.45008,24.83055c-.045.12371-.08313.24914-.11633.376l.12158-.23486Z"/><path class="cls-2" d="M46.51771,25.88255a.68053.68053,0,0,1,.02454-.30707l-.16565.08Z"/></g></g></svg>