<svg xmlns="http://www.w3.org/2000/svg" viewBox="0 0 104.16941 117.48161"><defs><style>.cls-1{fill:#1d1d1b;}.cls-2{fill:#c3c66e;}</style></defs><title>Exclamation_07</title><g id="Layer_2" data-name="Layer 2"><g id="Layer_1-2" data-name="Layer 1"><path class="cls-1" d="M103.121,52.5457A50,50,0,1,0,43.0536,101.53154l4.34289,6.32794,5.72449,8.34107,5.72443-8.34107,4.34289-6.32788A50.01724,50.01724,0,0,0,103.121,52.5457Z"/><path class="cls-2" d="M100.66941,52.91178c.05811-.46267-.36853-.29678-.44055-.36609C100.28587,53.31294,100.77928,52.89457,100.66941,52.91178Z"/><path class="cls-2" d="M100.94078,60.67326l-.15052-.16464a9.122,9.122,0,0,1,.21363,1.2041A7.55123,7.55123,0,0,0,100.94078,60.67326Z"/><path class="cls-2" d="M99.1616,67.72553c.86951-.44937.7544-2.53656,1.21424-3.749l.20507-.17184-.43176-.7c-.1427.77018-.17407,1.69324-.34949,2.52405A9.00438,9.00438,0,0,1,99.1616,67.72553Z"/><path class="cls-2" d="M96.376,70.75758c.34533-.10626-.09229.84479.41748-.77683a1.38237,1.38237,0,0,1-.12647.12046C96.61253,70.2432,96.53111,70.43638,96.376,70.75758Z"/><path class="cls-2" d="M96.667,70.10121c.26673-.69217-.40307.3605,0,0Z"/><path class="cls-2" d="M95.42112,73.3043l.22669-.97626c-.23767.11469-.67566.86252-.63269.52637C94.67686,73.79572,94.91465,73.69309,95.42112,73.3043Z"/><path class="cls-2" d="M95.45408,74.36888l.14368-.50345C95.49461,73.91456,95.41124,74.02284,95.45408,74.36888Z"/><path class="cls-2" d="M95.90074,72.80543l-.303,1.06c.16894-.07486.38415.01257.15906-.47827C95.90525,73.55946,95.823,73.27775,95.90074,72.80543Z"/><path class="cls-2" d="M96.25731,72.29493c.35241-.44617.71984-1.07672.56225-.0516C97.46214,70.43873,96.88682,70.51374,96.25731,72.29493Z"/><path class="cls-2" d="M99.74852,68.31638l.43188-.66918-.02649-.70676C100.166,67.29386,99.52171,68.29133,99.74852,68.31638Z"/><path class="cls-2" d="M92.06736,78.39659c.09363.13616.5127-.0543.71521-.011l.24207-.709C92.7368,77.93665,92.28038,78.48039,92.06736,78.39659Z"/><path class="cls-2" d="M92.78257,78.3856l-.3667,1.06988C92.964,78.64356,92.956,78.42475,92.78257,78.3856Z"/><polygon class="cls-2" points="96.075 74.892 96.426 73.033 95.919 75.209 96.075 74.892"/><polygon class="cls-2" points="89.632 81.707 89.723 81.004 89.484 82.201 89.632 81.707"/><path class="cls-2" d="M87.90159,83.81455c.08338-.52844-.77685.12775-.59289-.3453a7.253,7.253,0,0,0-.91309,1.789A4.47724,4.47724,0,0,1,87.90159,83.81455Z"/><path class="cls-2" d="M85.92808,86.14588a6.93236,6.93236,0,0,0,.46753-.88766A3.66509,3.66509,0,0,0,85.92808,86.14588Z"/><path class="cls-2" d="M91.24266,80.90977a1.22794,1.22794,0,0,0-.86316.4216l.59765-.08182C91.05809,81.14594,91.14964,81.02873,91.24266,80.90977Z"/><path class="cls-2" d="M90.99717,81.24577l-.02.00378c-.29126.36517-.49328.6185-.57983.72705C90.473,81.88435,90.65355,81.66441,90.99717,81.24577Z"/><path class="cls-2" d="M91.30967,80.82441l-.067.08536C91.30137,80.90183,91.32786,80.89021,91.30967,80.82441Z"/><path class="cls-2" d="M94.32762,77.24821c-.14112.66815-.66138,1.97046.35888,1.03931C94.6898,77.7356,94.1096,78.26356,94.32762,77.24821Z"/><path class="cls-2" d="M92.06553,80.71177c.25769-.29706.53968-.57831.77918-.88986-.10559-.044-.35327.04065-.28015-.29755C92.43077,79.93946,92.23106,80.31227,92.06553,80.71177Z"/><polygon class="cls-2" points="91.827 81.251 92.066 80.712 91.773 81.038 91.827 81.251"/><path class="cls-2" d="M87.602,85.02088a3.85971,3.85971,0,0,1-.99975,1.35749,8.02372,8.02372,0,0,0,1.48547-1.36023C88.05149,84.85746,88.065,84.48167,87.602,85.02088Z"/><path class="cls-2" d="M89.33934,83.26472l-.05616.09872C89.35655,83.33586,89.40245,83.30247,89.33934,83.26472Z"/><polygon class="cls-2" points="81.984 90.387 82.109 90.387 82.082 90.314 81.984 90.387"/><path class="cls-2" d="M88.22105,84.98869a1.68382,1.68382,0,0,0,.613-.913,11.43406,11.43406,0,0,1-.74634.94248C88.10423,85.09031,88.12828,85.12336,88.22105,84.98869Z"/><path class="cls-2" d="M84.8358,87.44889a8.1635,8.1635,0,0,0,.78662-.41873C85.3441,87.10633,84.82713,87.304,84.8358,87.44889Z"/><path class="cls-2" d="M89.08079,83.41166l.03552-.06784C88.93736,83.4054,88.985,83.41953,89.08079,83.41166Z"/><path class="cls-2" d="M89.08079,83.41166a3.39,3.39,0,0,0-.2467.664,6.01644,6.01644,0,0,0,.44909-.71222A.74466.74466,0,0,1,89.08079,83.41166Z"/><path class="cls-2" d="M82.07432,93.73069c-.0769-.19092.12744-.54193.48584-.906A3.5264,3.5264,0,0,1,84.01,91.84922c.73584-.96441-.6991-1.48822-1.90149-1.462.07666.159.17908.28418-.59582,1.19708.44311-.07373,2.344-1.21906,1.78723-.31708-1.11634,1.13031-1.0741.71948-1.83179.96424.83276.0379-1.25305,1.6975-.57007,2.11456l1.02539-.99048C82.01121,93.43253,81.689,93.86393,82.07432,93.73069Z"/><path class="cls-2" d="M83.85411,89.05143l.34021-.332a5.60729,5.60729,0,0,1-1.6211.6004c-.49023.63678-.5299.85669-.4917.99463l1.86158-1.409Z"/><path class="cls-2" d="M85.75145,87.2674c.02795.56583-.69324,1.4979.136,1.3566,1.01563-.99795.47949-.94635.96228-1.65735-1.57776,1.63178.30518-.61685-1.05188.32477a10.08158,10.08158,0,0,1,.80445-.913c-.33106.23953-.65943.45926-.97986.65179l.05566-.01565.00672-.00821.00305.00644c.10705-.027.15283-.02521.05212.02676a.16786.16786,0,0,1-.028.03839.40784.40784,0,0,1,.03772.18777c-.53382.38086-.15052-.0119-.03772-.18777a.28953.28953,0,0,0-.02417-.06515l-.00977.00177c-.49353.56384-.9707,1.15228-1.48376,1.70489A10.81905,10.81905,0,0,0,85.75145,87.2674Z"/><path class="cls-2" d="M94.80333,79.8361a.10541.10541,0,0,1-.12391.00851C94.64244,80.00187,94.64158,80.07078,94.80333,79.8361Z"/><path class="cls-2" d="M94.07139,80.50666a1.363,1.363,0,0,1,.30506-.83413c.36389-.33323.17163.115.303.17208.08448-.347.36219-1.15075-.36877-.38681l-.03882.17108c-.59692.73423-1.76538,1.36265-1.718,1.195A2.93173,2.93173,0,0,0,94.07139,80.50666Z"/><path class="cls-2" d="M90.09849,84.27064l-1.12475,1.56854.93261-.48038-.20044-.11215C90.5056,84.48805,90.13877,84.48383,90.09849,84.27064Z"/><polygon class="cls-2" points="81.688 90.349 81.604 89.834 81.15 91.018 81.688 90.349"/><polygon class="cls-2" points="79.747 91.794 79.598 91.417 79.202 91.968 79.747 91.794"/><path class="cls-2" d="M5.03587,31.79731l.15894-.59085A3.61376,3.61376,0,0,0,5.03587,31.79731Z"/><path class="cls-2" d="M3.46849,35.88383l.14819.16247C3.58384,35.82246,3.53758,35.71858,3.46849,35.88383Z"/><path class="cls-2" d="M36.786,97.13291c-.31421-.30346-.62671-.6596-.86792-.88336-.23144-.24878-.39722-.35895-.43786-.13306l.06079.50177A3.91494,3.91494,0,0,1,36.786,97.13291Z"/><path class="cls-2" d="M6.25572,70.23921l-.02857.27459c.217.13413.42029.25971.60462.37366C6.65782,70.69166,6.46165,70.4709,6.25572,70.23921Z"/><path class="cls-2" d="M4.34788,70.30213,4.26329,69.1164A6.406,6.406,0,0,0,4.34788,70.30213Z"/><path class="cls-2" d="M18.82261,12.40046l.24463-.817C18.23668,12.33817,18.748,12.17585,18.82261,12.40046Z"/><path class="cls-2" d="M57.56993,105.51994a9.563,9.563,0,0,0-1.23975,1.34393C57.03,106.28422,57.73716,105.91471,57.56993,105.51994Z"/><path class="cls-2" d="M8.6909,35.08418c.04236-.34555.01-.51493-.083-.54181C8.55711,34.89826,8.56712,35.113,8.6909,35.08418Z"/><path class="cls-2" d="M55.1461,108.5919c.108-.08081.19714-.17182.301-.25836a9.12233,9.12233,0,0,1,.88306-1.46967A3.09435,3.09435,0,0,0,55.1461,108.5919Z"/><path class="cls-2" d="M95.71751,21.976c.022.06195.05981.1283.07544.18756C95.852,22.14485,95.80259,22.07285,95.71751,21.976Z"/><path class="cls-2" d="M100.69371,45.82856c-.06116-.22189-.11792-.58969-.17652-.93576A3.59675,3.59675,0,0,0,100.69371,45.82856Z"/><path class="cls-2" d="M71.11973,96.24528c.4563-.23456.05579-.07727,0,0Z"/><path class="cls-2" d="M74.13023,96.7841a.28987.28987,0,0,0-.10376.27685A.37062.37062,0,0,1,74.13023,96.7841Z"/><path class="cls-2" d="M54.28782,114.61442l-.02746.03723C54.37877,114.62931,54.35826,114.63065,54.28782,114.61442Z"/><path class="cls-2" d="M71.901,96.113a4.73252,4.73252,0,0,0-.64953.14837A4.88923,4.88923,0,0,0,71.901,96.113Z"/><path class="cls-2" d="M71.7252,95.96684l.42529-.14337C72.18016,95.73118,72.11009,95.71256,71.7252,95.96684Z"/><path class="cls-2" d="M70.47764,96.55784a5.72838,5.72838,0,0,1,.77381-.29645c-.10315.01392-.15088.00843-.13172-.01611C70.9846,96.31114,70.7938,96.404,70.47764,96.55784Z"/><path class="cls-2" d="M56.26536,1.38838c.03577.01553.07752.02645.11633.04705C56.95311,1.2841,56.70543,1.3003,56.26536,1.38838Z"/><path class="cls-2" d="M22.355,94.48057c.02319.01282.04077.01233.06275.023l-.05616-.0639Z"/><path class="cls-2" d="M20.57029,93.476a2.35944,2.35944,0,0,1,1.79126.96369l.23035-1.4137Q21.59727,93.26366,20.57029,93.476Z"/><path class="cls-2" d="M10.03367,22.59315a10.36948,10.36948,0,0,0-1.12927.97107,7.97592,7.97592,0,0,1,.7102-1.92945c.14307-.348.06446-.37976-.57153.01526.24707.23749.16492.64383-.07556,1.1348a14.26146,14.26146,0,0,1-.9054,1.73892c-.703,1.22165-1.40209,2.44583-.85742,2.85495a9.42533,9.42533,0,0,0-.68322.70468c.12988-.23816.07824-.31494.20751-.55038-1.3833,1.36572.27515,1.68371-.90979,3.70026-.44775.69171-.87768,1.13336-.78332.564-.17786.58893-.235,1.22479-.35547,1.82953-.207.48831-.38318.28317-.1759-.206l-.85706,2.65756-.03076-.03208c.05725.44043.06995,1.38157.12317,1.84906-.36206.62336-.05029-.38119-.25733-.2565l-.0653,1.57019c-.4961.5152-.50891-.80618-.192-1.82788-1.66565,1.02979.00794,1.324-1.53369,4.15808L1.888,40.07481a3.12641,3.12641,0,0,0-.98181,1.4429c-.233.58652-.35376,1.28714-.7312,2.083.15442-.17911.58166-.96408.97729-1.47.40931-.50522.80689-.73044.79725.12121a3.782,3.782,0,0,0-.18323,1.99469c-.47791-.06927-.49549.82858-.63391,1.92768l-.62366-.15284c-.005,1.22052.33655,1.15821.59167,1.88794A2.03611,2.03611,0,0,1,.02708,49.77781c-.20972,2.15372.86768-1.44284.86121,1.09845-.39051,1.76736.00866,3.03445.4685,5.1145-.16382,1.2504-.4-.1893-.56262.26663.19067.35578.36316.70951.56848,1.057.02283.26675-.14453.196-.22912.15952.31787.89691.64636.01693,1.00817,1.42114.761.26666-.69335,3.10379.56849,4.69943-.08094.46927-.42945-.12405-.64209.05939a12.45626,12.45626,0,0,0,2.07873,3.71005l.11646,1.75253c.09375-1.35281,1.06274.02341,1.99243,1.12281.03869-.47745.12256-.89679.14209-1.164A21.68259,21.68259,0,0,0,7.5001,70.95356c.002.278-.28369.16333-.66833-.0661.10571.117.208.22672.29455.309.07776.80268-.41455.58029-.96325.19126.01391-.29474.03772-.589.06408-.874-.5802-.35415-1.15771-.69235-1.46533-.45984a3.6726,3.6726,0,0,1,.428.62168c-.15381-.09567-.27759-.14823-.31177-.06391-.034.09382.18848.261.48023.53864l-.467.734.31042.00915c.246.95822.46375,1.93921.745,2.89972a46.25888,46.25888,0,0,1,5.34484,5.24411c-.86865-.395-.8092.31818-1.34985.62238a2.436,2.436,0,0,0-.882-1.62473c-.25244-.28283-.55224-.56958-.80432-.90259a5.85614,5.85614,0,0,1-.64123-1.10382c.35681.83417.008.80362-.18982.647A29.6416,29.6416,0,0,0,9.52476,80.0312c-.4657.21164.03015.75854.29151,1.56152.26184-.54394.67785-.12732,1.217.47455a22.243,22.243,0,0,0,1.667,1.8269c-.218.269-.67188.23957-1.53479-1.03549.44324,1.80268,2.21435,1.04944,2.771,2.69629-.254-.27148-.35107-.44971-.56665-.46274.78589.473,2.03577,2.18759,1.48267,2.01984l-.25427-.27277c.39221.4812.90466,1.07407,1.46557,1.6865.59192.58209,1.26441,1.15234,1.892,1.66858a12.15413,12.15413,0,0,0,1.73572,1.23327c.5238.25354.92883.36322,1.13538.25586a3.897,3.897,0,0,1-1.13672.62494q1.33209.147,2.61767.25446a23.54764,23.54764,0,0,0,2.56079.12506c-.74487.37475-.50586,2.64471-2.45092,1.81561a5.80874,5.80874,0,0,0,2.1621,1.41736c-.28417-.31439-.24365-1.43176.24622-1.18549A10.27582,10.27582,0,0,0,26.6616,97.2581c-.45-.42749.72876-1.08405,1.52442-.60413-.21375.07782-.48719,1.02258-.85364.9566l2.60913.15332c-.605-.1018-.5332.79438-.20288,1.338-.146-.26563,1.87646.87774,2.50525,1.04059l-.818-.64911c2.40418,1.2525,3.01087-.33423,5.43409.53589a.872.872,0,0,0,.0205,1.66906c.38892-.185,1.239-.57824,2.27332-1.00067a11.737,11.737,0,0,1,1.64856-.56543,4.64965,4.64965,0,0,1,1.94934-.13769c.15454.15191.29053.29876.418.44372l.60156.054c.13159.123.25708.26044.389.39453l.80969.84833c-.38708-.181-.89038-.42585-1.3927-.62067-.06372-.02331-.124-.05066-.19031-.06848l-.27014.05322-.52612.11536c-.34253.08069-.66553.16919-.953.26562a21.99368,21.99368,0,0,1-3.51294.79431c.89831.52643.16162.44989,1.64477.799.44678.43029-.93.24932-1.37573.15509l1.71191.5332.85584.26532.136.08276c.106-.29065.451-.4989.67639-.34387.13318.05768.2511.09918.41308.17706.20764.1446.37757.20649.47473.10059-.10278-.09851-.23938-.24615-.31445-.30426l-.2019-.14032q-.19611-.13166-.36853-.22913a4.58972,4.58972,0,0,0-.46912.05976l-.18469.045a.49987.49987,0,0,1-.18054,0l-.24439-.01617c.00159-.17243.1665-.34058.44617-.4856a2.01512,2.01512,0,0,1,.80151-.43085q.13862-.03835.29578-.06683l.161-.02564a.4106.4106,0,0,1,.118.05317,2.91716,2.91716,0,0,1,.48267.34637,5.80858,5.80858,0,0,1,1.03991,1.27643c.12537.65527-1.24536.30023-1.40185.46838a5.57372,5.57372,0,0,1,1.64441,1.905l-.873-.637c.54834,1.24591,1.97,1.29553,2.35046,2.98394.27845.48163.22364,1.85566.606,1.70954.12048-1.18006,1.977-2.66876,2.79334-2.49744a24.35587,24.35587,0,0,1,1.08239,3.54279c.01307.5506-.428.54138-.96215.37768-.49036-.09985-.98157-.21978-.97449.247a.6008.6008,0,0,1,.40759.09369,3.31208,3.31208,0,0,1,.4812.34772c.329.75653-.62719.09149.46436,1.53528.58044-.35889,1.97412,2.97839.79638.14227.98768,1.09479.903,1.56317,2.01917,3.13721-.1615-.67438.25305-.85651.644-.95069a20.56245,20.56245,0,0,1,.84668-2.33728.39491.39491,0,0,0,.32019.42078c1.45374-2.00964,2.57617-3.09814,3.89173-5.00458.2594-.08648,1.07043-.91516,1.03711-.34814a3.32946,3.32946,0,0,1,.47924-1.34894c1.28553-.83148-.84546,1.39416.3479.90674-.27441-.29993.61805-1.86609,1.0022-2.86347-.68542-.08246-1.45618,1.91468-1.84167,2.91309-.69849-.47345-.40125-2.4682.677-4.729.93994-1.73981.93213-.39423,1.02624-.74366a9.70962,9.70962,0,0,0,.6637-1.00189c.17053-.2998.36707-.67261.49731-.96985.13941-.31073.2522-.60388.3545-.889a2.69,2.69,0,0,1,.574-.4295,7.30689,7.30689,0,0,1,.64038-.38165c.11878-.0622.24451-.12323.37976-.18274l.34558-.15027a4.74524,4.74524,0,0,1,1.65894-.31073c1.2926.23144.34363,1.0163.70215,1.32629a5.77228,5.77228,0,0,1-1.91968.38605,8.33553,8.33553,0,0,0-1.77.20837l1.5426-.12445c-.467.37183-1.5813.48169-1.86023,1.096a1.93612,1.93612,0,0,0,.42176-.361l.06225-.06549.10327-.01319.21631-.03161.47022-.08234c.64258-.12127,1.46826-.31714,2.33911-.52563a26.76439,26.76439,0,0,0,2.6532-.7569,22.603,22.603,0,0,1,2.42688-.6214c.41443-.34466,1.13208-.894.67431-.91907-.26574.14026-.52441.3-.79736.42475-.47266-.077-.11438-.324.183-.6026.303-.26715.57727-.49.02735-.35578a10.69458,10.69458,0,0,1,3.56811-2.21533l.5531.395c-.11-.12988-1.119.198-1.47815.53149.52991-.46618,2.6554-.45855,2.95142-1.51617l-1.224.18939a14.66763,14.66763,0,0,1,3.12268-2.719c-.86975-.14972-.24182.25067-1.46326.20361,1.22681.32947-3.22656,1.7312-1.5332,1.85706a2.74318,2.74318,0,0,0-1.55627.208,4.1521,4.1521,0,0,1-1.752.275c.12244.16693.60169.15576-.53479.5517a1.21738,1.21738,0,0,1-.16931.27038l-.0802.01917.07019-.00507c-.03564.049-.03747.0567.02588-.00244a1.44389,1.44389,0,0,1,.68616.03155c-.3617.661-2.132,1.47791-2.69348,1.86231-.72119.1466.20678-.31641-.243-.38977l-.80689.65808c-.24646-.3905-2.03943-.08453-.53259-.88385l-1.43311.475a7.12418,7.12418,0,0,0-2.80969.56458,4.89492,4.89492,0,0,0-.86218.24957c-.34095.124-.63623.25373-.85535.35614-.43738.20471-.60193.30841-.16516.018-.7793.03546-1.00256.84637-1.38049,1.41015l-.52491.88776-.30029.56043-.10559-.04456c-1.44214,2.00128-2.25964,4.60669-4.52332,6.47266-.18823.37439-.37524.758-.62646,1.18225-.12561.21209-.26721.43432-.43323.67059a1.53659,1.53659,0,0,1-.2622.29321,2.786,2.786,0,0,1-.31141-.233c-.04211.18122-.23217.2865-.35266.34973-.12622.07172-.20056.12714-.2146.50531a4.82616,4.82616,0,0,0-.12561-.48925c-.08032-.4889-.1344-.514-.26819-.5965a1.24191,1.24191,0,0,1-.21118-.14075.50861.50861,0,0,1-.089-.09906c-.11523-.16931-.24487-.37317-.33545-.53937l-.45837.22864a27.46092,27.46092,0,0,0-2.59973-3.22455l-.31384.33484c-1.08509-.93036-1.74634-3.10791-3.02027-4.883.22534.02551.50183.50769.63843.88958a5.77313,5.77313,0,0,0-1.10925-2.18817l-.49146-.67486-.2511-.327c-.09277-.09522-.2677-.07129-.39734-.11139l-1.67675-.26941-.40052-.05853-.24206-.01837-.48132-.04035c-.3191-.02972-.63416-.06659-.94007-.12a3.47246,3.47246,0,0,1-1.66321-.65369,2.29077,2.29077,0,0,1-1.28991-.45148.44746.44746,0,0,0,.13977.02332c-.05286-.02393-.13355-.05273-.2168-.08051-.20972-.15387-.421-.32165-.65735-.47882a3.19087,3.19087,0,0,0,.53943.43976,12.54153,12.54153,0,0,0-1.70874-.40008l-.07568-.55433-.14063-.04779c-.50635-.42065-.55163.00342-.37805.47724a4.17623,4.17623,0,0,0-.89929-.0827c-.15918-.9217-1.67774-.4596-1.968-1.49408-.58154.19555-2.99353-1.28913-3.741-.71619.03614-.10651-.10717-.24548.20813-.0799a6.12944,6.12944,0,0,0-1.8352-1.07855l.07458-.68622-1.79236-.2052c-.60278-.84954-.79711-1.238.27161-1.09332-2.29077-.78339-1.63452-.92181-3.65478-1.58435l.3302-.2431c-.58362-.39771-1.74744-.80493-1.84327-1.34-.32019-.82721-1.76721-2.1311-3.21276-3.87482-.37244-.42434-.75757-.86316-1.14673-1.30648-.3429-.48017-.68933-.96521-1.03162-1.44458a13.95357,13.95357,0,0,1-1.67529-2.88129c-.55872,1.29684-.55823-1.86093-1.4093-1.515.10913-.34228-.05432-.89019.49865-.46612a7.2558,7.2558,0,0,1-1.17822-2.16733,3.38282,3.38282,0,0,0-1.23437-1.6207c.14221-.32568.56652.21225.61792-.0429-.125-.11908-.52649-.46415-.44361-.73539.072-.25988.31287.18235.58338.40628-.88391-1.84771-1.70862-1.73614-2.5177-1.56842a2.39056,2.39056,0,0,0-1.07972-2.15854c.13074-.44931.20252-1.12753.68677.092-.17029-.73188-1.03467-4.38352-1.59826-4.3165a2.18375,2.18375,0,0,0-.2948-1.19751c-.15674-.818-.24207-1.26328-.32666-1.70456-.09412-.43918-.19532-.87235-.31482-1.68146l-.04346.467c-.84619-.51913-.35022-1.3324-.61743-2.631l.08362.02866a8.03951,8.03951,0,0,0-.04761-2.1717,5.00767,5.00767,0,0,1,.11938-2.13907l-.472.17591c-.51282-.12406-.4198-.80539-.18592-1.655a6.12017,6.12017,0,0,0,.48548-2.73831l-.3053.61386c-.15222-.48587.23193-1.13754.67407-1.761l.65747-.9024a2.56882,2.56882,0,0,0,.46546-.7659c.12-.18891.09436.33291.11718.61779.9729-2.31665-.57592-.38195-.44348-2.21011.38526-.27887.78772.55335,1.03174-.63354a1.64512,1.64512,0,0,0,.07861-.82779A9.65777,9.65777,0,0,1,6.64866,42.328a5.5945,5.5945,0,0,1,.66565-2.92438c-.34192.28278-.686.57557-.66247-.30685a3.7352,3.7352,0,0,1,.39087-1.0556c.21826-.35892.45251-.74427.68261-1.12287a3.12713,3.12713,0,0,0,.61206-2.2312c.12317-.12967.208-.16263.27051-.14474A11.50892,11.50892,0,0,1,9.154,32.525a5.06638,5.06638,0,0,0,.3368-1.82156c.4718-.02533.8291-.4068,1.12231-.958a15.77346,15.77346,0,0,0,.90723-1.8909c.56054-1.341,1.06079-2.61722,1.68628-2.17728l1.77014-2.50646.0758.15945a6.8814,6.8814,0,0,0,1.64795-2.98972c.38587-.26977.267.07273.30188.15342a15.7054,15.7054,0,0,0,2.09729-2.08738,13.17633,13.17633,0,0,0,1.48987-2.24343l.51624.20043a2.40788,2.40788,0,0,1,.71179-.66024c.18994-.13535.40112-.29285.6449-.44718.25293-.14236.52685-.29657.81518-.45892a20.68789,20.68789,0,0,0,1.78284-1.129c.60107-.41467,1.1394-.939,1.68017-1.39569a.42016.42016,0,0,1-.14123.34509,9.7456,9.7456,0,0,1,2.12817-1.35971,16.01469,16.01469,0,0,1,2.37525-1.00018c1.5559-.53467,2.78857-1.08972,2.958-2.17337.57788-.42313,1.19629-.76666,1.80152-1.1582-2.631.81231.10193-.871-1.073-.76062,1.00391-.48008,2.84509-.46161,1.618.08633l-.227-.013c-.13782,1.04279,3.31372-.86859,3.458-.13065C44.75962,4.47611,50.07261,4.58878,54.9752,4.7757l-.55-.76046,1.74768.13061c.44873.193.57178.60172-.6582.50955.62012.44669,2.09253-.24337,2.15137-.39962,1.20214.24731.93078.48462.47522.57492-.46155.13226-1.12464.26077-.75708.28216a6.62591,6.62591,0,0,1,1.00036.03449l-.214-.11954a3.99219,3.99219,0,0,1,2.4231-.214c.9115.287.405.51795.76587.60141-.01087.05072.10742.09342.55517.10532a14.36044,14.36044,0,0,1,2.10828.5177l-.71936-.78214c1.004-.03424,2.00037.547,1.16284-.34411a4.74709,4.74709,0,0,0,1.75476.954c.40235.14782.84558.28881,1.3075.42523.44763.18259.91394.36062,1.37793.53171.93139.33328,1.84607.66055,2.58154.9237a4.63536,4.63536,0,0,1,1.42249.73627,8.74311,8.74311,0,0,1,2.02819.5798,10.46915,10.46915,0,0,1,2.05469,1.06757c-.29626-.321-.20227-1.02292,1.01563-.18964-.56507.44031-.07.91181.6217,1.44687.68689.5426,1.6095,1.11337,1.771,1.8888-.46485-1.14466,3.34936,2.30917,2.59961.61483.90319.80976-.24817.44062.28381,1.23081a15.38381,15.38381,0,0,1,3.49487,3.04355c1.09107,1.24572,2.0708,2.68429,3.33069,3.90457.1676-.06482-.00122-.69574.67786-.27133l.4198,2.03186c.47876.49569,1.20117-.08826,1.46655,1.28338.0144-.22735.03455-.57229.36243-.22842a11.0691,11.0691,0,0,1,.61572,1.15628l.6062,1.16385c.41687.76849.85815,1.52383,1.31567,2.2738q.59,1.17805,1.18311,2.36289c.37927.7966.8645,1.55185,1.16528,2.3872A22.72524,22.72524,0,0,1,100.0742,44.5554c.19507-.98743.32153-.37589.443.3374.00977-.47784.43042-.05936.65186-.18823l-.21765,2.99554c.68408.47519.20056,3.13367.84851,3.41666l-.16114-.93225c.80982,1.235,1.56788-1.85306,2.53064-1.76758a2.09316,2.09316,0,0,1-.25939-1.24072,14.30293,14.30293,0,0,1,.10742-1.54947,4.82119,4.82119,0,0,0-.6471-3.44272c.07361-.56039.39441.38425.54846.062a3.93414,3.93414,0,0,1-.97021-2.58694l.13721.12549c-.26514-.93094-.46582-1.73468-.63135-2.48645-.21619-.73594-.42554-1.411-.61194-2.11216a30.26017,30.26017,0,0,0-1.57458-4.92007l-.28821.49325a5.36644,5.36644,0,0,1-.38684-1.5643c-1.10852-.64663,1.10766,2.39191-.03431,1.84675.14856-.74427-.49475-2.2782-1.27429-3.67212-.81176-1.37876-1.58386-2.71781-1.347-3.38086-.759-1.23957-.22144.65262-.99976-.56269l.01538-.475-.53149-.07413c-.51184-.79095-.5011-1.39517-.32178-1.57468a5.69638,5.69638,0,0,0,.61792.67386c-.47693-1.19555-2.16541-2.757-2.38855-3.11615a12.30955,12.30955,0,0,1,.72888,1.21152c-.61719-.77841-1.38269-1.49963-2.10241-2.29224-.73987-.77377-1.43958-1.62213-2.22913-2.37478-.81091-.731-1.6272-1.451-2.44128-2.11856-.411-.32871-.80384-.66553-1.22669-.94486-.43384-.26614-.86487-.51446-1.29138-.73971l.09314.34912a7.95687,7.95687,0,0,1-2.14551-1.53394,9.16149,9.16149,0,0,0-.78357-.73093,14.16,14.16,0,0,0-1.5387-.92019l.127.01483A6.83673,6.83673,0,0,1,78.352,7.82633c.81775.18949-1.04577-1.228-.00232-.93423-3.01538-1.0528-1.57153-.39719-3.77759-.558l-.27233-.54226a7.00186,7.00186,0,0,1-.91541-.0033,13.54635,13.54635,0,0,1-1.45813-.35486c1.32874.14844-.73621-.87179.78467-.76172a9.13269,9.13269,0,0,0-3.66944-1.38864c-1.00024-.20651-1.80285-.21933-2.387-1.00677-1.74328.6112,2.63477,1.26593,1.74426,1.26733.57666.51462-1.42553.4079-2.38928.06757a4.34287,4.34287,0,0,1-1.40869-1.04587,5.88748,5.88748,0,0,0-1.03528-.719,6.33968,6.33968,0,0,0-1.6322-.44553c.26392.04544.29541-.02832.5592.01669-.95861-.41208-2.00366.05146-3.16955-.555-.75025.48166-1.5929-.21146-1.86084.57266a17.51822,17.51822,0,0,1,2.44556.09519c-1.40735-.06156-2.75879.84134-4.97876.27789a4.52442,4.52442,0,0,1,1.33642-.42c-.65466-.26691-1.28686.08993-1.96875-.184C54.51731.438,57.277,1.14408,58.82408.69508c-.69251-.44464-2.88465.40451-2.066-.42844A2.24194,2.24194,0,0,1,54.76756.611a3.76738,3.76738,0,0,0-2.5105.2124L52.37.34294a5.34652,5.34652,0,0,1-1.41114.35693l.9458-.66293c-1.46179.60379-2.90295-.32831-4.32141.062,2.99707-.20078.723.52618,2.005.79989a6.22575,6.22575,0,0,1-1.91748.19272A2.65988,2.65988,0,0,1,46.6334.81217c-.61853-.27111-1.32019-.5834-3.36193-.15332.54907-.153,2.13476-.0394,1.30261.31034a11.45186,11.45186,0,0,1-2.38037-.1399c-2.648.77765.51269.37235-.55664.94623-1.03052-.33288-1.24585.56211-2.33643,1.03424l-.13708-.46283c-1.54932.23188-1.67261.53833-1.75074.8356-.08337.28913-.12646.55472-1.48205.85117l.88672-1.03577-1.3108.6626.09852-.6203A9.38891,9.38891,0,0,1,32.248,4.48289c.46032.156.16382.8913-1.0492,1.492-.95984.14435.27356-.64114-1.4425.26279a1.45986,1.45986,0,0,1,1.48767-.979c.01172-.18024.26538-.46354.2832-.64429a10.823,10.823,0,0,0-2.97961,1.35794,3.08185,3.08185,0,0,1,.74487-.235l-1.11865.91846L27.13194,7.67738c-.46973.07306-.244-.23413-.01453-.53977-.4657.3433-.6914.7395-1.38611,1.21039-.01977-.44659-.28051-.7626.66089-1.54959L24.29344,8.584a3.71252,3.71252,0,0,0-.78967.11658c-.2909.07459-.52808.11334-.426-.05255a8.8106,8.8106,0,0,0-1.99988,1.81186,14.77909,14.77909,0,0,1-2.24743,2.05093,1.75213,1.75213,0,0,1-.41077.64923c-.72217.59537-1.47327,1.08612-2.20593,1.66782a7.56412,7.56412,0,0,0-1.90918,2.34186l-1.37757.47152c-1.05163,1.39814,1.81116-.6799.0763,1.62922-1.06751,1.74783-.92957.22677-1.52039.67742a14.36386,14.36386,0,0,1-.729,1.97471,7.32856,7.32856,0,0,1-1.59107,2.12072A5.96713,5.96713,0,0,1,10.03367,22.59315ZM1.96434,42.21342c-.0326-.42481-.10755-1.29056.23742-1.52219C2.63157,41.27268,2.25962,41.55445,1.96434,42.21342ZM6.5648,73.39765a1.74636,1.74636,0,0,1-.40039-1.22818A3.61579,3.61579,0,0,1,6.5648,73.39765Zm59.363,25.045a.21407.21407,0,0,0-.03284.03228C65.03086,98.49668,65.33909,98.49619,65.92784,98.44267Zm1.73352-.301c.146-.1217.11365-.18127.02307-.22125-.07764.15607-.44727.29278-.87952.40668C66.958,98.40763,67.199,98.41642,67.66136,98.14164ZM61.583,5.26948l-.31738-.176C62.057,5.07337,61.81981,5.16419,61.583,5.26948Z"/><path class="cls-2" d="M4.56846,70.30976a.45183.45183,0,0,1,.19336-.2558C4.63707,69.92933,4.54759,69.957,4.56846,70.30976Z"/><path class="cls-2" d="M18.77842,12.55067l.052-.03989a.207.207,0,0,0-.00782-.11032Z"/><path class="cls-2" d="M48.61473,113.11216a1.78357,1.78357,0,0,1-.30652-.88672c-.05444.025-.078.08686-.05042.2041a1.14848,1.14848,0,0,0,.08228.21967C48.40294,112.76835,48.49913,112.92991,48.61473,113.11216Z"/><path class="cls-2" d="M75.77708,93.74955l-.90857.64459a2.35171,2.35171,0,0,1,.94861-.34283C75.74119,93.96446,75.4785,93.92289,75.77708,93.74955Z"/><path class="cls-2" d="M85.59776,90.60258c.09546-.15192.28369-.22772.36316-.39386l-.1814-.137C85.237,90.55229,84.94163,90.996,85.59776,90.60258Z"/><path class="cls-2" d="M77.47642,94.644c.27234.29114.87048-.12085,1.4823-.65533a1.05836,1.05836,0,0,1-.11816.07879C78.7379,93.45933,78.13987,94.09617,77.47642,94.644Z"/><path class="cls-2" d="M79.10618,93.87364a4.77782,4.77782,0,0,1,.61157-.42029C79.67149,93.21073,79.44285,93.57975,79.10618,93.87364Z"/><path class="cls-2" d="M69.66941,97.16435c.3877-.02277.037-.56079.29248-.474C70.1754,96.07035,67.84813,98.07792,69.66941,97.16435Z"/><polygon class="cls-2" points="78.73 95.48 78.217 95.19 78.02 95.76 78.73 95.48"/><path class="cls-2" d="M72.80247,98.07285l1.24915-.40344c-.05335-.06817.07739-.18017.24694-.29663C73.55748,97.68376,72.71556,97.949,72.80247,98.07285Z"/><path class="cls-2" d="M74.29856,97.37278a2.96613,2.96613,0,0,0,.91663-.50812C75.01951,96.97776,74.577,97.17759,74.29856,97.37278Z"/><polygon class="cls-2" points="77.23 96.477 76.84 96.573 76.01 96.988 77.23 96.477"/><path class="cls-2" d="M60.6273,104.43827l-.69238,1.26264c.059.21759.36645-.04493.61206-.5235C60.64244,104.82688,60.88853,104.35105,60.6273,104.43827Z"/><path class="cls-2" d="M64.10337,102.2349a1.22644,1.22644,0,0,1-.37951-.07757.46533.46533,0,0,0-.28589-.06287l.37537.55072C63.81981,102.40153,63.99168,102.373,64.10337,102.2349Z"/><path class="cls-2" d="M61.96568,105.16917c.0614.21521-.76892,1.99438.22656.47491C62.13365,105.42759,62.82774,104.16337,61.96568,105.16917Z"/><polygon class="cls-2" points="48.665 110.175 48.878 110.471 49.688 109.852 48.665 110.175"/><path class="cls-2" d="M33.70469,101.5493c1.59864.83178.62158-.44349,2.03455.37164.47241-.09131-1.15405-.66181-.67835-.71741C33.95774,101.11247,33.50059,100.72569,33.70469,101.5493Z"/><path class="cls-2" d="M35.06089,101.20353a5.55568,5.55568,0,0,0,.56592.03186A2.52428,2.52428,0,0,0,35.06089,101.20353Z"/><polygon class="cls-2" points="100.524 49.686 100.365 50.732 100.673 50.047 100.524 49.686"/><path class="cls-2" d="M101.38145,51.66447l-.63611.25662.62024.6246C101.32432,52.30747,101.24424,51.84806,101.38145,51.66447Z"/><path class="cls-2" d="M.18931,45.16371l.14148.10922c.19446-.1554.24768-.42194.356-.956Z"/><polygon class="cls-2" points="5.084 30.23 4.955 30.468 5.705 30.263 5.084 30.23"/><path class="cls-2" d="M11.44822,18.60264c-.34716.42075-.62878,1.01407-.97595,1.4361C11.10313,19.01991,12.10423,18.94743,11.44822,18.60264Z"/><path class="cls-2" d="M48.28233,83.35124c.09192.05737.134-.067.11682-.04572C48.36143,83.25578,48.30247,83.34464,48.28233,83.35124Z"/><polygon class="cls-2" points="49.277 83.813 49.458 83.814 49.317 83.789 49.277 83.813"/><path class="cls-2" d="M49.68724,84.0048l-.00074-.04889-.14184.07929c.18371.09631.45776.14471.55945.25445C50.11265,84.09135,49.79332,84.1536,49.68724,84.0048Z"/><path class="cls-2" d="M50.31163,84.81419a.67349.67349,0,0,1,.09106.04468c-.00268-.07709.1283-.00879-.10437-.06977Z"/><path class="cls-2" d="M50.31163,84.81419c-.09815-.03791.03906.08111,0,0Z"/><path class="cls-2" d="M50.62315,84.96708c.01221.04858.12537.10126.072.11292.14624.01837.13074-.03186.07825-.12226Z"/><path class="cls-2" d="M50.9376,84.87614l-.0747.00342C50.86888,84.89958,50.88475,84.911,50.9376,84.87614Z"/><path class="cls-2" d="M50.79234,84.875c.029-.04547-.01514-.00787-.08765.0047l.15821-.00018C50.85362,84.84648,50.87169,84.79093,50.79234,84.875Z"/><path class="cls-2" d="M50.64585,84.69456c-.24328-.07507-.262.05688-.01037.12976C50.57823,84.761,50.49815,84.70414,50.64585,84.69456Z"/><path class="cls-2" d="M50.07322,84.07072c.04834-.004.13733.12952.15857.07672l-.05932-.08875Z"/><path class="cls-2" d="M51.571,85.28062c.01635-.03534-.02344-.10846-.02234-.1579l-.10742.02051C51.48509,85.18125,51.57615,85.22373,51.571,85.28062Z"/><path class="cls-2" d="M51.54869,85.12272l.15869-.0329C51.5803,85.055,51.54991,85.08012,51.54869,85.12272Z"/><path class="cls-2" d="M50.7523,84.745c.10547-.00769.21045-.02105.31421-.03747l-.04382-.01215C50.93309,84.716,50.84336,84.73155,50.7523,84.745Z"/><polygon class="cls-2" points="52.043 85.461 52.213 85.349 52.141 85.386 52.043 85.461"/><path class="cls-2" d="M52.522,85.41129c-.06933.06818.077.12867.00635.16877a.61075.61075,0,0,0,.28137-.11347A.3426.3426,0,0,1,52.522,85.41129Z"/><path class="cls-2" d="M52.008,85.16441l-.05713-.01087a.17629.17629,0,0,0,.09863.12567Z"/><path class="cls-2" d="M52.00657,85.16068l.00147.00373.12292.02575Z"/><path class="cls-2" d="M51.49839,84.71079c-.07592.05555.006.13092-.14025.18506C51.45713,84.86057,51.6389,84.8419,51.49839,84.71079Z"/><path class="cls-2" d="M51.712,85.04923l.177-.0415-.14612-.05316C51.74009,84.98283,51.7595,85.029,51.712,85.04923Z"/><polygon class="cls-2" points="51.969 84.986 51.889 85.008 51.944 85.026 51.969 84.986"/><path class="cls-2" d="M52.68126,85.276a.48235.48235,0,0,1,.22583-.04657,1.49943,1.49943,0,0,0-.26441-.04614C52.6284,85.216,52.58543,85.27342,52.68126,85.276Z"/><polygon class="cls-2" points="53.722 85.214 53.708 85.195 53.706 85.214 53.722 85.214"/><path class="cls-2" d="M52.48289,85.19108a.8267.8267,0,0,1,.15979-.00781c.00659-.01471.0083-.02466-.0133-.02082A.13711.13711,0,0,0,52.48289,85.19108Z"/><path class="cls-2" d="M53.05992,85.2819c.03332.03455.103.08868.11548.0611A.81919.81919,0,0,0,53.05992,85.2819Z"/><path class="cls-2" d="M52.38829,85.24613a.36019.36019,0,0,0,.0946-.055.48461.48461,0,0,0-.114.02313A.12958.12958,0,0,1,52.38829,85.24613Z"/><path class="cls-2" d="M53.4149,85.201l-.06262.01373a.63433.63433,0,0,1,.22546.12647c.10437-.05567.12317-.09388.12805-.12726-.10425.003-.20837.00634-.312.00238Z"/><path class="cls-2" d="M53.06993,85.21684c.05078-.10517.19726-.15216.10717-.268-.17749.00372-.12548.0874-.23449.13178.2926-.02039-.08594.0581.12524.12384a.72709.72709,0,0,1-.16076.025,1.12174,1.12174,0,0,1,.15283.05249l-.00672-.00684-.00146.00031.00036-.00165c-.01269-.01373-.01672-.022-.00244-.01385l.00623-.00208a.13933.13933,0,0,1,.014-.0404c.08569.024.0133.02826-.014.0404l-.00379.01593.0011.00134.29908-.06036A1.179,1.179,0,0,0,53.06993,85.21684Z"/><path class="cls-2" d="M51.69847,84.51988a.03433.03433,0,0,1,.00329.02624C51.72227,84.537,51.73069,84.52958,51.69847,84.51988Z"/><path class="cls-2" d="M51.65916,84.6696l.02283-.01014c.10241.06012.22436.22248.20251.23182a.866.866,0,0,0-.08752-.284c-.02283.0105-.04846.04913-.11145.02441-.04944-.04358.01159-.05035.01623-.08557C51.65721,84.5659,51.5471,84.5922,51.65916,84.6696Z"/><path class="cls-2" d="M52.42064,84.91477l.24255-.03283-.113-.101.00134.05622C52.41954,84.80351,52.44188,84.87309,52.42064,84.91477Z"/><polygon class="cls-2" points="53.73 85.381 53.863 85.21 53.755 85.265 53.73 85.381"/><polygon class="cls-2" points="54.081 85.317 54.16 85.247 54.081 85.217 54.081 85.317"/><path class="cls-2" d="M59.89341,79.90959l-.1134.0108a.25936.25936,0,0,1-.05591.17621C59.83775,80.013,60.00535,79.91886,59.89341,79.90959Z"/><path class="cls-2" d="M57.14842,83.89951a.66143.66143,0,0,0,.22107-.09521C57.24217,83.82774,57.11631,83.80985,57.14842,83.89951Z"/><path class="cls-2" d="M57.57322,83.6284l-.05359.01367a.51129.51129,0,0,1-.15014.16223A.21294.21294,0,0,0,57.57322,83.6284Z"/><path class="cls-2" d="M55.3032,84.9893l-.062.0097C55.23814,85.019,55.24925,85.02732,55.3032,84.9893Z"/><path class="cls-2" d="M55.39024,84.95793l.09143-.03772a.41524.41524,0,0,1-.1123.02667C55.385,84.94938,55.39256,84.95329,55.39024,84.95793Z"/><path class="cls-2" d="M59.65416,79.93125l.12585-.01086.001-.02051c.06225-.07562-.041-.07819-.13953-.05237a.35216.35216,0,0,0-.04993-.12457c.20154-.034-.02392-.22845.19019-.29114-.089-.0708-.02832-.43872-.24194-.495.02783-.0011.04272-.02478.04126.02008a.28033.28033,0,0,0,0-.2677l.15393-.03644-.205-.20306c.09058-.12195.14355-.17792.26416-.056-.18652-.29267-.07837-.24268-.27246-.47864l.09949.00342c-.01087-.09058-.1615-.21619-.08582-.27948.16919-.23114-.14038-.9845-.18786-1.52973-.231.20368.02941-.27954-.19129-.20892.05054-.05567.05505-.14063.14526-.08588-.17382-.21844-.083-.42578-.34375-.4967.04444-.06153.11707.00085.1388-.0434-.02417-.01214-.0957-.04608-.07459-.09167.02124-.04529.07019.00573.11841.02929-.1521-.2445-.35388-.14843-.53015-.05859.00647-.16528-.04419-.2182-.2085-.22046.02625-.07532.03443-.181.15186-.05749-.04126-.08484-.275-.52369-.40637-.42554.01172-.04822-.07715-.10651-.10706-.11273a1.85,1.85,0,0,0-.28821-.32386l.02063.05945c-.192.07569-.149-.0896-.28454-.18689l.01684-.01117c-.18811-.35724-.1593-.06134-.3457-.4226l-.05933.106c-.18408.17975-.16369-.32428-.40625-.36987l.025.10138c-.142.00794-.0824-.4776-.17993-.57117-.01233-.03308.05591-.00927.098-.004-.21008-.29743-.11816.113-.345.02423.001-.09552.157-.162.01611-.2536-.04773-.10474-.54724.03027-.69165-.19391.02271.07885.04187.15619-.07934.16186-.15955-.0404-.359-.39178-.56836-.23279a.07247.07247,0,0,1-.01624-.05743c-.13989.012-.43408-.01318-.52917.08154-.05384-.43969-.80689.0915-.76612-.2771-.1333-.00476-.266.00092-.39831.00476l.01086-.03881a.4206.4206,0,0,0-.42615.1632c-.05871-.02252-.01843-.0606-.0144-.081a.63762.63762,0,0,0-.69287.19574l-.04968-.11749c-.06568.08081-.57166-.1037-.8927.145a.08112.08112,0,0,1,.02343-.0644c-.34277.23914-1.08508.03382-1.02453.51831-.06421.07367-.127.14643-.18494.22449.31568-.13556.04981.19507.20764.193-.09729.08636-.36133.05041-.23254-.05024l.03357.00678c-.06848-.23908-.40515.14935-.48389.014a8.02869,8.02869,0,0,0-1.56286,1.26483l.1892.05981-.14721.16669c-.06934.01984-.16223-.02454-.05652-.14795-.13416.00421-.09888.26666-.06665.2937-.24158.21405-.1012-.22662-.15967-.15094l-.06628.11749.03466-.0122c0,.13293.05542.18145-.0559.33874-.0962.08344-.12891-.00732-.16089.03-.01087-.00714-.0249.00372-.04456.06073l-.15808.24335.18237-.02942c.00013.14441-.13671.22723.07032.19275-.329.041-.52234.91418-.60816,1.004a1.07131,1.07131,0,0,1-.057.56634c.0404-.04553.20495-.03857.14843.13086-.31787-.13153-.20617.29688-.45935.41516.16931-.1134-.01452.53131.23267.34119-.03723.14917-.12561-.00073-.21216.11078.10706.36963-.10535.811-.00928,1.27246.04444.00165.10279-.08057.17871.008-.064.08716-.1278.17676-.18567.26862.03675.08838.26258.04053.14136.22986.0315-.03.07959-.07373.10547-.01776-.03125.95092.68811,1.64953.88843,2.59808-.00305-.1521.05212-.08838.10913-.0133-.019-.0622.08838-.06312.12927-.10834l.10144.39917c.17041-.05286.27381.30127.41992.21985l-.10144-.06665c.13916-.00733.17456-.15314.2179-.30127.08069.09149.14172.1911.22888.28A5.87717,5.87717,0,0,0,53.17784,84.642c.05176,0,.10132-.00592.15259-.00708a.05828.05828,0,0,0-.035.01019l.00647.05591c.08008-.00519.124-.04444.061-.06763.07641-.00213.15234-.00592.22778-.01062-.12769.08637-.02759.40137.11682.57251.0011-.04376-.00061-.08246.14441-.153-.05933-.04834-.33984-.1023-.22107-.20014.1886-.06488.1604.02533.26062.06592-.08105-.101.14673-.19.15234-.33087a5.85838,5.85838,0,0,0,.59351-.11231l.05322-.00763h-.0227q.25744-.06426.50635-.15149c-.00464.01923-.01514.04.00671.05237l.09363-.05285c.13159.06817-.14.2091.00622.21087a.62541.62541,0,0,1-.46167.28315l-.07605-.138c.01477.04242.15454.05182.19812-.00891-.06811.09259-.355-.11859-.40234.09418l.16675.07147c-.12647.11011-.28491.30841-.4845.29.111.13471.03967-.02417.20715.12683-.15747-.18878.49244-.09265.25354-.27936.18592.17157.25513.02454.48621.143-.021-.04846-.09119-.0705.07324-.09949a.219.219,0,0,1,.02051-.05389l.01184.00006-.0105-.00281c.0044-.00946.0044-.01117-.0039-.00085a.18789.18789,0,0,1-.10254-.04682c.04187-.136.283-.21209.33886-.30334.09632-.01233-.0155.06848.05213.09973l.08545-.13055c.05456.10229.308.066.12512.22174l.19128-.08149a.47347.47347,0,0,0,.37195-.14111c.10059-.02405.15235-.23205.12366-.11157.08118-.07611.16431-.14758.23962-.228l.0177.022c.28235-.1623.41639-.5199.81726-.6a.89768.89768,0,0,1,.26563-.28949l.09277.0451c.07569-.11615.35462-.22863.321-.33953.296.06536.48169-.47126.65088-.647l-.09815-.08075a1.45108,1.45108,0,0,0,.223-.48816l-.10241-.04663c.00793-.19446.29358-.34906.398-.61334.03125.035-.00855.09564-.05262.13013.37928-.20594.104-.71668.36182-.94135A.1746.1746,0,0,1,59.63,80.1945a.03556.03556,0,0,0,.00073.01965l.00952-.02966a.87855.87855,0,0,0,.08386-.08789.42867.42867,0,0,0-.07971.07171A.7926.7926,0,0,0,59.65416,79.93125Zm-1.37134-4.94018c.07434.05279.14746.10791.21777.16656-.00488.041-.06543.04834-.14392.04993l.05762.01855a.0914.0914,0,0,1-.05847.08869c-.022-.03436-.03492-.07221-.05774-.10626l.05859-.001-.07361-.02667-.031-.04328A1.13216,1.13216,0,0,0,58.28282,74.99107Zm-10.77857.095.05078-.02124C47.53062,75.16837,47.519,75.12809,47.50425,75.086Zm6.09522,9.53638c.07959-.00507.16028-.00745.23877-.01545A.19364.19364,0,0,1,53.59947,84.62242Zm.29382-.0138.00293-.01.02161-.00317Zm2.1698-.03979.0022-.00776C56.18736,84.55039,56.14317,84.55259,56.06309,84.56883Zm.67151-.71369c-.17151.17822-.16309-.05505-.181-.00671-.391.2066-.13818.52453-.55261.57178-.19495-.05372-.12342-.23621-.19666-.30829.14307-.13312.29883-.0567.408-.13043l-.16907.024c.03247-.06683.1211-.16174.20044-.16247a.30911.30911,0,0,0-.11682.02563,6.0331,6.0331,0,0,0,.76319-.52942A.73616.73616,0,0,1,56.7346,83.85514Zm.95752-1.11285a.19513.19513,0,0,0-.11267-.05347c.04846-.0517.08472-.10742.1311-.15979A.415.415,0,0,1,57.69212,82.74229Zm.49512-.678a.13173.13173,0,0,1-.06739-.03345c.04163-.05676.09729-.10895.1366-.16638l.16138.10467-.14209-.12951c.04175-.06165.06543-.12921.10449-.19177a.94694.94694,0,0,1,.2771.22015A1.58228,1.58228,0,0,1,58.18724,82.06425Zm.93725-1.00183c-.05822-.09461-.1499-.24414-.24353-.39813.04175-.10743.06568-.22071.10083-.33033a.79918.79918,0,0,1,.23682.47333l-.09619.0199C59.12645,80.90586,59.12645,80.984,59.12449,81.06242Zm.15174-2.62812c-.00086-.05322-.01246-.10229-.01441-.155.08081.05181.16455.09356.24353.14935A.82629.82629,0,0,0,59.27623,78.4343Z"/><path class="cls-2" d="M54.69651,85.13951c.0094.02673.04737.06005.00061.0725l.14319-.06439A.20334.20334,0,0,1,54.69651,85.13951Z"/><path class="cls-2" d="M54.28746,84.83524c-.00635.1446.0946.08149.19091.015-.031-.09534-.1123-.04779-.20849-.0119Z"/><path class="cls-2" d="M54.156,84.86369c-.00342.05822.0393.00537.09143-.01813A.30351.30351,0,0,1,54.156,84.86369Z"/><path class="cls-2" d="M55.55381,84.9036c-.00463.14087.25721-.26995.02442-.10467C55.52208,84.79307,55.59556,84.9315,55.55381,84.9036Z"/><polygon class="cls-2" points="54.336 84.537 54.394 84.654 54.428 84.544 54.336 84.537"/><path class="cls-2" d="M54.93992,84.44956c.0083.01947-.0072.03656-.02807.05219.09436-.01959.20117-.03369.1864-.06665Z"/><path class="cls-2" d="M56.61668,83.58946c-.01465.04864-.05676.09838-.01184.11749l.11633-.1297C56.70945,83.53257,56.657,83.53855,56.61668,83.58946Z"/><polygon class="cls-2" points="48.156 83.132 48.158 83.009 48.101 82.994 48.156 83.132"/><path class="cls-2" d="M48.41905,83.05937l-.09522.13562.16175-.04236C48.45945,83.13535,48.40855,83.1016,48.41905,83.05937Z"/><path class="cls-2" d="M46.23362,25.88255c.03247.2528.14576.11316.11878.11956C46.35606,25.85105,46.25328,25.90525,46.23362,25.88255Z"/><polygon class="cls-2" points="46.637 28.45 46.755 28.816 46.681 28.493 46.637 28.45"/><path class="cls-2" d="M46.76475,30.82334c.17029-.22271-.05981-.84381-.01147-1.2597l.03808-.06885L46.641,29.309A11.66728,11.66728,0,0,1,46.76475,30.82334Z"/><path class="cls-2" d="M46.42418,32.07249c.06677-.078.0697.26788.01123-.29041l-.01575.05286Z"/><path class="cls-2" d="M46.41966,31.83494c-.01392-.24561-.05237.16168,0,0Z"/><path class="cls-2" d="M46.501,32.96842l-.07386-.32226c-.03845.06836-.03723.35663-.07092.25024C46.40232,33.2277,46.44053,33.15849,46.501,32.96842Z"/><path class="cls-2" d="M46.64244,33.27238l-.03235-.167C46.594,33.13511,46.58958,33.17954,46.64244,33.27238Z"/><path class="cls-2" d="M46.54161,32.751l.06848.35431c.0271-.04743.08472-.05353-.026-.16272C46.638,32.97062,46.5847,32.90135,46.54161,32.751Z"/><path class="cls-2" d="M46.68309,32.45573c-.04712-.6181-.16919-.52484-.12159.0935C46.59361,32.367,46.60948,32.1323,46.68309,32.45573Z"/><path class="cls-2" d="M46.95359,30.93955l.04334-.24292-.06751-.20874C46.963,30.59214,46.89817,30.95542,46.95359,30.93955Z"/><path class="cls-2" d="M46.6273,34.84934l-.05237-.23779c-.02148.12348-.03686.35687-.09253.37463C46.5211,35.00541,46.57957,34.87473,46.6273,34.84934Z"/><path class="cls-2" d="M46.6273,34.84934l.07825.35572C46.70152,34.88566,46.66832,34.8281,46.6273,34.84934Z"/><polygon class="cls-2" points="46.843 33.326 46.684 32.742 46.849 33.439 46.843 33.326"/><polygon class="cls-2" points="46.578 36.509 46.528 36.352 46.432 36.152 46.578 36.509"/><path class="cls-2" d="M46.57615,37.25767c-.07812-.14764-.11548.20978-.16613.05261a2.71257,2.71257,0,0,0,.15527.64118A1.85228,1.85228,0,0,1,46.57615,37.25767Z"/><path class="cls-2" d="M46.709,35.81443a.43683.43683,0,0,0-.098.28449l.10169-.14368Z"/><path class="cls-2" d="M46.7158,35.95017l-.00317.00507c.00256.15247.00427.25836.00512.30383Z"/><path class="cls-2" d="M46.78025,34.26451c.06739.20855.14747.64428.223.21868C46.92466,34.33451,46.88169,34.57816,46.78025,34.26451Z"/><path class="cls-2" d="M46.74583,35.19511l.08948.40552.0105-.38013C46.81785,35.22874,46.77928,35.29826,46.74583,35.19511Z"/><polygon class="cls-2" points="46.876 35.786 46.835 35.601 46.831 35.742 46.876 35.786"/><path class="cls-2" d="M46.73484,37.61228a2.35147,2.35147,0,0,1,.07789.54407c.01306-.218.01611-.44281.008-.65607C46.78624,37.47135,46.72264,37.37968,46.73484,37.61228Z"/><polygon class="cls-2" points="46.885 40.151 46.903 40.118 46.885 40.112 46.885 40.151"/><path class="cls-2" d="M46.83934,37.46317a.69409.69409,0,0,0-.0514-.35247c.01526.12176.027.25085.03284.38958C46.83641,37.51335,46.84654,37.51554,46.83934,37.46317Z"/><path class="cls-2" d="M46.77745,38.53623c-.03076.08435-.07727.25586-.04834.28492C46.74827,38.73527,46.76365,38.63816,46.77745,38.53623Z"/><path class="cls-2" d="M46.715,36.89646l-.00562-.02429C46.68834,36.92643,46.69932,36.91941,46.715,36.89646Z"/><path class="cls-2" d="M46.715,36.89646a1.34224,1.34224,0,0,0,.073.21424,2.52328,2.52328,0,0,0-.04553-.27021A.25026.25026,0,0,1,46.715,36.89646Z"/><path class="cls-2" d="M46.88719,39.40318l-.01782-.15387a2.2565,2.2565,0,0,1-.11475.53924c.05774.255.09644.30677.13.32312l-.014-.76068Z"/><path class="cls-2" d="M47.12315,38.81034c-.02405-.45233-.10156-.31384-.1582-.5827.05346.7298-.06763-.20782-.10938.32251-.02356-.143-.03381-.272-.04284-.3938-.00818.13208-.01978.25958-.03528.37988l.0061-.017-.00049-.00341.00171.00067c.01221-.032.02-.04273.01355-.0069l.00281.0152a.10326.10326,0,0,1,.04175.03149c-.01441.21253-.02674.03437-.04175-.03149-.00537-.00226-.01062-.00781-.01636-.0083l-.00122.00274.08582.73011a5.69364,5.69364,0,0,0-.02588-.69306C46.95567,38.67289,47.015,39.04167,47.12315,38.81034Z"/><path class="cls-2" d="M47.149,37.19389c.00928-.34711-.05689-.27008-.10156-.31177l.07519.60754.08179-.31329Z"/><polygon class="cls-2" points="46.834 40.223 46.718 40.147 46.891 40.493 46.834 40.223"/><polygon class="cls-2" points="46.877 41.015 46.777 40.99 46.844 41.197 46.877 41.015"/><path class="cls-2" d="M47.60069,60.41972c-.08289.26056-.21558.55133-.10535.51965l.10547-.08026A1.41766,1.41766,0,0,1,47.60069,60.41972Z"/><path class="cls-2" d="M47.21385,49.1121a3.62035,3.62035,0,0,0-.0448.56238C47.22129,49.4019,47.30674,49.18022,47.21385,49.1121Z"/><path class="cls-2" d="M58.85643,51.69419c-.01551-.10986-.03577-.15722-.06006-.15478C58.81053,51.65251,58.829,51.71671,58.85643,51.69419Z"/><path class="cls-2" d="M47.19322,50.32261l.02112-.11945a3.48667,3.48667,0,0,1-.04529-.52868A1.17378,1.17378,0,0,0,47.19322,50.32261Z"/><path class="cls-2" d="M47.2722,23.26438a1.33425,1.33425,0,0,0-.18506.29438A2.74685,2.74685,0,0,1,47.2722,23.26438Z"/><path class="cls-2" d="M46.94639,44.20567c-.0133-.16712-.01294-.02594,0,0Z"/><path class="cls-2" d="M47.92918,51.97111l.00024.01453C47.94883,51.93516,47.94505,51.94383,47.92918,51.97111Z"/><path class="cls-2" d="M46.98631,43.951a2.01134,2.01134,0,0,0-.02429.21594A2.03446,2.03446,0,0,0,46.98631,43.951Z"/><path class="cls-2" d="M46.93638,43.98771l.00513-.14746C46.92271,43.82,46.91209,43.83946,46.93638,43.98771Z"/><path class="cls-2" d="M46.9608,44.43864A2.47751,2.47751,0,0,1,46.962,44.167c-.00611.03327-.01172.04736-.01563.0387Z"/><path class="cls-2" d="M46.66819,25.399c-.00256-.10682.00782-.21393.0116-.32184.0625.23724.2146.05926.377-.1203a4.49093,4.49093,0,0,0-.10009.92572c0,2.12268.07837,5.10266.231,8.89166-.03039-.08734-.06591-.14179-.09362.0827l.0166.05139a1.53747,1.53747,0,0,1-.16333.62659.96627.96627,0,0,0,.24792-.36493.50331.50331,0,0,1-.05688-.269c.01733-.0968.03393-.06909.05273-.03949.06079,1.50445.134,3.14459.21875,4.90967-.12915-.132-.36645.07934-.50647.34729.04358.00952.0835.00793.15564.38043.0492-.13361.09583-.8371.197-.52448.06909.49427-.02014.40821-.0636.6518.0918-.16687.16614.31775.28113.46954.01306.26367.02808.5481.04151.8172l-.09424.07532.1051.1369c.0304.59924.05933,1.18463.09216,1.81043l.01148.22625c-.0166-.02234-.03308-.02881-.04871.01264l.029.2785c-.09887.26227-.16894-.51819-.20654-.162a3.86707,3.86707,0,0,1-.1831-1.31677l.14953-.10681a.786.786,0,0,0-.02637.49591c-.076-.217.17737-.82-.03186-1.05151l-.09252.37542a4.26958,4.26958,0,0,1-.23926-1.30236c-.14331.22009.02136.10717-.14344.44836.2096-.29889.03467,1.19928.249.72449-.19287.35162-.06543.59546-.22412,1.05108.04992-.01642.09082-.16314.08032.23151a.41947.41947,0,0,1,.04761.08405l-.00281.02673.00525-.022c.00818.01666.00976.01806.00171-.00824a.53839.53839,0,0,1,.06946-.20435,6.26008,6.26008,0,0,1,.21008,1.02106c-.0155.234-.06153-.09442-.11072.03534l.10132.3106c-.11109.03681-.16358.62708-.24939.08234l.01306.49341a2.72594,2.72594,0,0,0-.00635.9378c-.01574.23359.14563.582.05042.38324l.0979.77051-.02771.0083a10.647,10.647,0,0,1,.073,2.44409,4.5346,4.5346,0,0,1,.066.95124l-.094.08685c.046.32874-.06079.9931.04566,1.132-.24817.36285.00183,1.60168-.02332,2.1828l.12769.01923a10.50835,10.50835,0,0,0,.12671,1.2763L47.574,55.819a14.66576,14.66576,0,0,1-.00293,1.77637.54738.54738,0,0,1-.01819-.33875c-.22351.81049.24682,1.70233.08935,2.43677a.95017.95017,0,0,1,.0149.44275.1804.1804,0,0,0-.00757-.04523l.00146.075-.05029.25385a1.25305,1.25305,0,0,0,.05212-.21356,5.27621,5.27621,0,0,0,.06507.56341l-.11707.08954.00525.0484c-.037.20544.063.165.14954.05512a1.67523,1.67523,0,0,0,.08288.27673c-.18811.16907.08521.545-.11291.78137.05847.08142.07275.3786.16577.66821.08374.28882.22961.55567.35681.568-.02258.01764-.0072.08685-.05908-.02961a1.26722,1.26722,0,0,0,.38037.657l-.0481.1842a2.72215,2.72215,0,0,0,.55347.26367c.21106.27149.31641.41358-.0437.29731a6.86627,6.86627,0,0,0,.70605.27423,1.98126,1.98126,0,0,0,.62073.10968l-.06164.08362c.23388.078.63183.03576.75341.13879a8.8488,8.8488,0,0,0,3.96045.13647c-.33642-.2041.66138-.05066.63867-.30114.09876.03766.29651.00219.10535.13983.634-.32648,1.041-.33832,1.37634-.80359.11267.00439-.07507.17816.012.16608.04406-.04786.16479-.19275.25329-.21558.08863-.02173-.05188.12292-.13806.218.65137-.52356.49634-.79663.38318-.94184a.78944.78944,0,0,0,.36182-.76593c.09839-.1026.245-.31219.10705.16358a2.57672,2.57672,0,0,0,.22022-.92328c.01489-.36658.00854-.65076-.07093-.67017a.87791.87791,0,0,0,.0083-.39239c.02979-.53.0459-.57648.05066-1.097l-.03161.14411c-.18494-.20667-.02649-.43305-.03369-.85279l.01928.01215c.17566-.96082-.05078-.4162.14405-1.36359l-.12183.05017c-.25452-.09192.18408-.83917.10657-1.39129l-.07605.19781c-.07678-.30261.38269-.83508.42639-1.13611.0249-.06536.032.10462.04517.19678.18212-.78723-.1532-.10541-.16724-.69525.08887-.10687.21008.14435.24084-.25159.07618-.19555-.23108-1.15619-.04809-1.69311-.06983.11749-.13941.23419-.1781-.04084-.00733-.42047.28991-1.12683.09863-1.51184.0199-.05279.03772-.07238.05408-.07409a6.67472,6.67472,0,0,0-.15271-1.24213c.42517-.28107-.12525-2.00214.2561-1.97986l.01709-.98718.038.02747a2.13584,2.13584,0,0,0-.11682-1.0824c.0315-.14453.06311-.03638.08265-.02338a3.91085,3.91085,0,0,0-.06141-1.79223l.12683-.0738a18.02773,18.02773,0,0,0,.135-2.23767c.01368.00959.037.02954.05176.10236-.10644-1.02557.4364-2.42621-.00024-2.81867L59.087,38.755c-.05689.7262-.15186.14966-.23316.14637.00623-.12879.01319-.26551.01941-.39289.049-.16156.1073-.22857.11133.0066l-.025.06488c.22912.16339.12451-1.07758.28369-1.04853.05359-1.71228.24731-3.37768.31836-4.98217l-.18982.181.03174-.55915c.04821-.14593.15063-.19439.1278.20465a.89818.89818,0,0,0-.10058-.6831c.10376-.78021.20154.309.21508.06939l-.00134-.3258-.02417.07306a1.60826,1.60826,0,0,1-.1156-.76935c.0481-.303.11865-.15411.13025-.27356.01294.00092.02063-.03937.01221-.18323l.04248-.705-.15515.28027c-.05921-.31323.03283-.6626-.14307-.33923a17.62014,17.62014,0,0,0,.28-2.92054c-.09485-.43115-.03809-.86761-.12183-1.45288-.01428.14893-.14685.24469-.21911-.2265.39221.09577-.08692-.9126-.15125-1.37365.0271.20635-.16321-.11634-.39392-.36414-.23047-.25079-.4707-.43439-.35205-.15759-.27124-.31147.07581-.10852-.10339-.38471A8.00551,8.00551,0,0,0,55.3386,21.094c-.02734.03888.15015.14856-.11254.15625-.18677-.11743-.38038-.2279-.57923-.33129-.24048-.01209-.24585.21746-.65576.0263.05737.04151.141.10388-.01514.106a7.75152,7.75152,0,0,0-3.48657.25421,8.29381,8.29381,0,0,0-3.2041,1.78076c.28979-.21539.13916-.03558-.01306.1781.119-.12426.085.06763.15344.07569a3.92865,3.92865,0,0,0-.64648.83636C46.83152,24.40263,46.4951,25.27024,46.66819,25.399ZM47.1118,46.0366l.00634.01282C47.08116,46.32444,47.09617,46.22679,47.1118,46.0366ZM59.593,30.40281l-.03577.11017C59.53209,30.26274,59.56077,30.33311,59.593,30.40281ZM47.95054,50.78007c.02893.65344.05738,1.30011.08252,1.91156a1.94871,1.94871,0,0,1-.22534-.61139c.04407.02148.09729-.06653.12146-.10913C47.921,51.491,47.93956,51.14305,47.95054,50.78007ZM47.467,48.34416c-.07471-.60688.12659-.26954.09265-.37409-.00512-1.14606-.40381-.95874-.28662-1.915.12049-.38305.2666-.02942.36035-.11749a7.03912,7.03912,0,0,1-.03955,1.10217l.04834-.417a1.78664,1.78664,0,0,1,.06421.66821,4.408,4.408,0,0,0,.03223-.98455c.05664,1.13159.10986,2.22515.15771,3.25933A2.68542,2.68542,0,0,1,47.467,48.34416Zm.23523,7.0382a9.16962,9.16962,0,0,1,.23767-1.10455c.04407-.09051.098-.07782.15442-.03186.016.42291.03052.8288.04443,1.22894A.50663.50663,0,0,1,47.70225,55.38236Zm.0918,3.00965.07739-.13642-.11377-.54095a9.008,9.008,0,0,1,.47424.83679c.00708.29242.01233.56519.01795.84052A2.7747,2.7747,0,0,1,47.79405,58.392Zm1.34363,5.95648a.37133.37133,0,0,0,.13952-.19379,2.95075,2.95075,0,0,0,.3147.22669A2.91052,2.91052,0,0,1,49.13768,64.34849Zm8.51989-.89734c-.07434.05591-.07019-.03534-.06713-.16669l-.03907.12671c-.09424.07929-.13867.07917-.15918.04065a2.346,2.346,0,0,0,.19727-.28662c0,.04.001.08179.001.11926a2.2182,2.2182,0,0,0,.061-.253l.00171-.0036a1.41621,1.41621,0,0,0,.24426-.25757A2.38168,2.38168,0,0,1,57.65757,63.45115Z"/><path class="cls-2" d="M46.82823,42.46909l.04468.36286a1.004,1.004,0,0,1,.02746-.33C46.87254,42.51139,46.83433,42.58293,46.82823,42.46909Z"/><path class="cls-2" d="M47.21617,42.113c.10022-.03363.05749-.26025.02942-.51434l.00158.04511C47.10264,41.575,47.15953,41.84464,47.21617,42.113Z"/><path class="cls-2" d="M47.24,41.53965a1.963,1.963,0,0,1-.01123-.23547C47.17088,41.27683,47.22044,41.40025,47.24,41.53965Z"/><path class="cls-2" d="M47.04966,44.75187c.02173-.12189-.1322-.06915-.0935-.13946C46.82225,44.48423,47.1417,45.40843,47.04966,44.75187Z"/><path class="cls-2" d="M47.54405,43.49809c-.02075.00726-.03491-.04383-.04663-.10688.005.251-.00977.52729.027.51575Z"/><path class="cls-2" d="M47.49742,43.39121a1.34236,1.34236,0,0,0-.03272-.32666A3.016,3.016,0,0,0,47.49742,43.39121Z"/><path class="cls-2" d="M47.66087,48.28184l.05212.44263c.04456.04358.06641-.07843.04322-.24317C47.72239,48.37614,47.69981,48.21208,47.66087,48.28184Z"/><polygon class="cls-2" points="48.082 54.808 47.827 54.829 48.088 54.921 48.082 54.808"/><path class="cls-2" d="M46.45018,24.83055c-.04505.12371-.08313.24914-.11634.376l.12159-.23486Z"/><path class="cls-2" d="M46.5178,25.88255a.68053.68053,0,0,1,.02454-.30707l-.16565.08Z"/></g></g></svg>