<svg xmlns="http://www.w3.org/2000/svg" viewBox="0 0 104.16943 117.48161"><defs><style>.cls-1{fill:#1d1d1b;}.cls-2{fill:#c3c66e;}</style></defs><title>Exclamation_02</title><g id="Layer_2" data-name="Layer 2"><g id="Layer_1-2" data-name="Layer 1"><path class="cls-1" d="M103.12093,52.5457a50,50,0,1,0-60.06739,48.98584l4.3429,6.32794,5.72449,8.34107,5.72442-8.34107,4.3429-6.32788A50.01724,50.01724,0,0,0,103.12093,52.5457Z"/><path class="cls-2" d="M100.66937,52.91178c.05811-.46267-.36853-.29678-.44055-.36609C100.28589,53.31294,100.77923,52.89457,100.66937,52.91178Z"/><path class="cls-2" d="M100.94073,60.67326l-.15045-.16464a9.143,9.143,0,0,1,.21356,1.2041A7.5387,7.5387,0,0,0,100.94073,60.67326Z"/><path class="cls-2" d="M99.1615,67.72553c.86956-.44937.75451-2.53656,1.21429-3.749l.205-.17184-.4317-.7c-.14264.77018-.17414,1.69324-.34949,2.52405A9.00462,9.00462,0,0,1,99.1615,67.72553Z"/><path class="cls-2" d="M96.37591,70.75758c.34534-.10626-.09228.84479.41742-.77683a1.38345,1.38345,0,0,1-.1264.12046C96.61255,70.2432,96.53113,70.43638,96.37591,70.75758Z"/><path class="cls-2" d="M96.66693,70.10121c.26672-.69217-.40308.3605,0,0Z"/><path class="cls-2" d="M95.42108,73.3043l.22674-.97626c-.23767.11469-.67578.86252-.63275.52637C94.67682,73.79572,94.91467,73.69309,95.42108,73.3043Z"/><path class="cls-2" d="M95.454,74.36888l.14361-.50345C95.4945,73.91456,95.41113,74.02284,95.454,74.36888Z"/><path class="cls-2" d="M95.90069,72.80543l-.303,1.06c.169-.07486.38422.01257.15906-.47827C95.90527,73.55946,95.823,73.27775,95.90069,72.80543Z"/><path class="cls-2" d="M96.25732,72.29493c.35236-.44617.71979-1.07672.56214-.0516C97.46209,70.43873,96.88672,70.51374,96.25732,72.29493Z"/><path class="cls-2" d="M99.74847,68.31638l.43182-.66918-.02642-.70676C100.166,67.29386,99.52173,68.29133,99.74847,68.31638Z"/><path class="cls-2" d="M92.06732,78.39659c.09357.13616.51269-.0543.71521-.011l.242-.709C92.73675,77.93665,92.28039,78.48039,92.06732,78.39659Z"/><path class="cls-2" d="M92.78253,78.3856l-.3667,1.06988C92.96393,78.64356,92.956,78.42475,92.78253,78.3856Z"/><polygon class="cls-2" points="96.075 74.892 96.426 73.033 95.919 75.209 96.075 74.892"/><polygon class="cls-2" points="89.632 81.707 89.723 81.004 89.484 82.201 89.632 81.707"/><path class="cls-2" d="M87.90155,83.81455c.08343-.52844-.77686.12775-.593-.3453a7.25987,7.25987,0,0,0-.91309,1.789A4.4781,4.4781,0,0,1,87.90155,83.81455Z"/><path class="cls-2" d="M85.928,86.14588a6.93867,6.93867,0,0,0,.46746-.88766A3.66318,3.66318,0,0,0,85.928,86.14588Z"/><path class="cls-2" d="M91.24255,80.90977a1.22787,1.22787,0,0,0-.8631.4216l.59766-.08182Z"/><path class="cls-2" d="M90.99719,81.24577l-.02008.00378c-.29126.36517-.49329.6185-.5799.72705Z"/><path class="cls-2" d="M91.30969,80.82441l-.06714.08536C91.30127,80.90183,91.32776,80.89021,91.30969,80.82441Z"/><path class="cls-2" d="M94.32757,77.24821c-.141.66815-.66137,1.97046.35883,1.03931C94.68976,77.7356,94.10962,78.26356,94.32757,77.24821Z"/><path class="cls-2" d="M92.06543,80.71177c.25775-.29706.53973-.57831.77923-.88986-.10553-.044-.35327.04065-.28015-.29755C92.43066,79.93946,92.231,80.31227,92.06543,80.71177Z"/><polygon class="cls-2" points="91.826 81.251 92.065 80.712 91.773 81.038 91.826 81.251"/><path class="cls-2" d="M87.602,85.02088a3.85955,3.85955,0,0,1-.9997,1.35749,8.02458,8.02458,0,0,0,1.48535-1.36023C88.05145,84.85746,88.06494,84.48167,87.602,85.02088Z"/><path class="cls-2" d="M89.33923,83.26472l-.05609.09872C89.35656,83.33586,89.40234,83.30247,89.33923,83.26472Z"/><polygon class="cls-2" points="81.984 90.387 82.109 90.387 82.082 90.314 81.984 90.387"/><path class="cls-2" d="M88.22094,84.98869a1.68281,1.68281,0,0,0,.613-.913,11.41706,11.41706,0,0,1-.74634.94248C88.10418,85.09031,88.12823,85.12336,88.22094,84.98869Z"/><path class="cls-2" d="M84.83575,87.44889a8.16879,8.16879,0,0,0,.78656-.41873C85.344,87.10633,84.82708,87.304,84.83575,87.44889Z"/><path class="cls-2" d="M89.08069,83.41166l.03552-.06784C88.93725,83.4054,88.985,83.41953,89.08069,83.41166Z"/><path class="cls-2" d="M89.08069,83.41166a3.39778,3.39778,0,0,0-.24671.664,6.02537,6.02537,0,0,0,.44916-.71222A.74454.74454,0,0,1,89.08069,83.41166Z"/><path class="cls-2" d="M82.07434,93.73069c-.077-.19092.12732-.54193.48572-.906a3.52716,3.52716,0,0,1,1.44982-.97547c.73591-.96441-.69909-1.48822-1.90136-1.462.07666.159.179.28418-.59589,1.19708.44318-.07373,2.34393-1.21906,1.78717-.31708-1.11633,1.13031-1.074.71948-1.83172.96424.83282.0379-1.25312,1.6975-.57013,2.11456l1.02545-.99048C82.01111,93.43253,81.689,93.86393,82.07434,93.73069Z"/><path class="cls-2" d="M83.85406,89.05143l.34015-.332a5.60586,5.60586,0,0,1-1.62109.6004c-.49024.63678-.52985.85669-.49158.99463l1.86151-1.409Z"/><path class="cls-2" d="M85.7514,87.2674c.02789.56583-.6933,1.4979.136,1.3566,1.01556-.99795.47949-.94635.96216-1.65735-1.57776,1.63178.30523-.61685-1.05182.32477a10.06169,10.06169,0,0,1,.8045-.913c-.33117.23953-.65948.45926-.98.65179l.05567-.01565.00671-.00821.00311.00644c.107-.027.15277-.02521.05207.02676a.16439.16439,0,0,1-.028.03839.40865.40865,0,0,1,.03784.18777c-.53387.38086-.15063-.0119-.03784-.18777a.286.286,0,0,0-.02411-.06515l-.00982.00177c-.49353.56384-.97065,1.15228-1.48377,1.70489A10.81434,10.81434,0,0,0,85.7514,87.2674Z"/><path class="cls-2" d="M94.80322,79.8361a.10532.10532,0,0,1-.12384.00851C94.64239,80.00187,94.64148,80.07078,94.80322,79.8361Z"/><path class="cls-2" d="M94.07135,80.50666a1.36258,1.36258,0,0,1,.30505-.83413c.36383-.33323.17163.115.303.17208.08441-.347.36218-1.15075-.36877-.38681l-.03882.17108c-.597.73423-1.76538,1.36265-1.718,1.195A2.93176,2.93176,0,0,0,94.07135,80.50666Z"/><path class="cls-2" d="M90.09851,84.27064l-1.12482,1.56854.93268-.48038-.2005-.11215C90.50555,84.48805,90.13867,84.48383,90.09851,84.27064Z"/><polygon class="cls-2" points="81.688 90.349 81.604 89.834 81.15 91.018 81.688 90.349"/><polygon class="cls-2" points="79.747 91.794 79.598 91.417 79.202 91.968 79.747 91.794"/><path class="cls-2" d="M5.03576,31.79731l.15894-.59085A3.62739,3.62739,0,0,0,5.03576,31.79731Z"/><path class="cls-2" d="M3.46844,35.88383l.14813.16247C3.5838,35.82246,3.53753,35.71858,3.46844,35.88383Z"/><path class="cls-2" d="M36.78589,97.13291c-.31421-.30346-.62665-.6596-.86786-.88336-.23145-.24878-.39722-.35895-.43787-.13306l.06073.50177A3.91441,3.91441,0,0,1,36.78589,97.13291Z"/><path class="cls-2" d="M6.25561,70.23921l-.0285.27459c.217.13413.42029.25971.60461.37366Z"/><path class="cls-2" d="M4.34784,70.30213l-.0846-1.18573A6.40711,6.40711,0,0,0,4.34784,70.30213Z"/><path class="cls-2" d="M18.82263,12.40046l.24457-.817C18.23663,12.33817,18.748,12.17585,18.82263,12.40046Z"/><path class="cls-2" d="M57.56988,105.51994a9.56287,9.56287,0,0,0-1.23974,1.34393C57.0299,106.28422,57.73718,105.91471,57.56988,105.51994Z"/><path class="cls-2" d="M8.69079,35.08418c.04242-.34555.01007-.51493-.083-.54181C8.557,34.89826,8.56707,35.113,8.69079,35.08418Z"/><path class="cls-2" d="M55.146,108.5919c.1081-.08081.19727-.17182.301-.25836a9.12149,9.12149,0,0,1,.88312-1.46967A3.09421,3.09421,0,0,0,55.146,108.5919Z"/><path class="cls-2" d="M95.71747,21.976c.02191.06195.05987.1283.07537.18756C95.852,22.14485,95.80249,22.07285,95.71747,21.976Z"/><path class="cls-2" d="M100.69366,45.82856c-.06122-.22189-.11792-.58969-.17651-.93576A3.59972,3.59972,0,0,0,100.69366,45.82856Z"/><path class="cls-2" d="M71.11969,96.24528c.4563-.23456.05572-.07727,0,0Z"/><path class="cls-2" d="M74.13019,96.7841a.28956.28956,0,0,0-.10376.27685A.37035.37035,0,0,1,74.13019,96.7841Z"/><path class="cls-2" d="M54.28772,114.61442l-.02741.03723C54.37872,114.62931,54.35821,114.63065,54.28772,114.61442Z"/><path class="cls-2" d="M71.90094,96.113a4.73031,4.73031,0,0,0-.64954.14837A4.88675,4.88675,0,0,0,71.90094,96.113Z"/><path class="cls-2" d="M71.72509,95.96684l.42536-.14337C72.18011,95.73118,72.11,95.71256,71.72509,95.96684Z"/><path class="cls-2" d="M70.4776,96.55784a5.73132,5.73132,0,0,1,.7738-.29645c-.10309.01392-.15082.00843-.13171-.01611C70.98449,96.31114,70.7937,96.404,70.4776,96.55784Z"/><path class="cls-2" d="M56.26526,1.38838c.03582.01553.07757.02645.11639.04705C56.95306,1.2841,56.70538,1.3003,56.26526,1.38838Z"/><path class="cls-2" d="M22.35486,94.48057c.02331.01282.04083.01233.0628.023l-.05615-.0639Z"/><path class="cls-2" d="M20.57019,93.476a2.35959,2.35959,0,0,1,1.79132.96369l.23035-1.4137Q21.59723,93.26366,20.57019,93.476Z"/><path class="cls-2" d="M10.03363,22.59315a10.36759,10.36759,0,0,0-1.12927.97107,7.97031,7.97031,0,0,1,.7102-1.92945c.14307-.348.06445-.37976-.57153.01526.247.23749.16491.64383-.0755,1.1348a14.28229,14.28229,0,0,1-.90546,1.73892C7.359,25.7454,6.66,26.96958,7.20465,27.3787a9.41162,9.41162,0,0,0-.68323.70468c.12994-.23816.07831-.31494.20746-.55038-1.3833,1.36572.27515,1.68371-.90973,3.70026-.44781.69171-.87775,1.13336-.78339.564-.17779.58893-.23492,1.22479-.35534,1.82953-.20716.48831-.38318.28317-.176-.206l-.85693,2.65756-.03089-.03208c.05732.44043.07,1.38157.12323,1.84906-.36212.62336-.05029-.38119-.25732-.2565l-.06531,1.57019c-.496.5152-.50885-.80618-.19208-1.82788-1.66564,1.02979.008,1.324-1.53369,4.15808l.19654-1.46444a3.12622,3.12622,0,0,0-.98175,1.4429c-.2331.58652-.35382,1.28714-.73121,2.083.15436-.17911.58161-.96408.9773-1.47.4093-.50522.80688-.73044.79718.12121a3.78342,3.78342,0,0,0-.18317,1.99469c-.4779-.06927-.49554.82858-.63391,1.92768l-.62365-.15284c-.005,1.22052.33654,1.15821.59161,1.88794A2.036,2.036,0,0,1,.0271,49.77781c-.20978,2.15372.86755-1.44284.86108,1.09845-.39044,1.76736.00879,3.03445.46863,5.1145-.16394,1.2504-.40009-.1893-.56268.26663.19067.35578.36309.70951.56842,1.057.02288.26675-.14447.196-.229.15952.31787.89691.64624.01693,1.00812,1.42114.76105.26666-.69336,3.10379.56848,4.69943-.08093.46927-.4295-.12405-.64209.05939a12.45513,12.45513,0,0,0,2.07868,3.71005l.11651,1.75253c.09381-1.35281,1.06275.02341,1.99237,1.12281.03876-.47745.12268-.89679.14215-1.164a21.6348,21.6348,0,0,0,1.10236,1.87836c.00189.278-.28375.16333-.6684-.0661.10572.117.208.22672.2945.309.07788.80268-.41449.58029-.9632.19126.014-.29474.03766-.589.06409-.874-.5802-.35415-1.15772-.69235-1.46527-.45984a3.66989,3.66989,0,0,1,.42785.62168c-.15374-.09567-.27752-.14823-.3117-.06391-.034.09382.18841.261.48022.53864l-.4671.734.31043.00915c.246.95822.4638,1.93921.74505,2.89972a46.25407,46.25407,0,0,1,5.34485,5.24411c-.86865-.395-.8092.31818-1.34979.62238a2.43656,2.43656,0,0,0-.882-1.62473c-.2525-.28283-.55231-.56958-.80438-.90259a5.84969,5.84969,0,0,1-.64124-1.10382c.35675.83417.00812.80362-.18988.647A29.6314,29.6314,0,0,0,9.52478,80.0312c-.46582.21164.03009.75854.29144,1.56152.26184-.54394.67792-.12732,1.2171.47455a22.24664,22.24664,0,0,0,1.66693,1.8269c-.21808.269-.67187.23957-1.53479-1.03549.44324,1.80268,2.21436,1.04944,2.77094,2.69629-.254-.27148-.35108-.44971-.56665-.46274.786.473,2.03583,2.18759,1.48273,2.01984l-.25428-.27277c.39221.4812.9046,1.07407,1.46558,1.6865.59186.58209,1.2644,1.15234,1.892,1.66858a12.15073,12.15073,0,0,0,1.73571,1.23327c.52375.25354.92884.36322,1.13532.25586a3.89644,3.89644,0,0,1-1.13666.62494q1.332.147,2.61768.25446a23.54813,23.54813,0,0,0,2.56079.12506c-.74494.37475-.50592,2.64471-2.45093,1.81561a5.80888,5.80888,0,0,0,2.16211,1.41736c-.28424-.31439-.24365-1.43176.24622-1.18549a10.27123,10.27123,0,0,0,1.83563,2.52265c-.45-.42749.7287-1.08405,1.52435-.60413-.2138.07782-.48724,1.02258-.85364.9566l2.60913.15332c-.605-.1018-.5332.79438-.20294,1.338-.14587-.26563,1.87647.87774,2.50537,1.04059l-.818-.64911c2.40411,1.2525,3.01092-.33423,5.43414.53589a.872.872,0,0,0,.02039,1.66906c.389-.185,1.23913-.57824,2.27331-1.00067a11.73608,11.73608,0,0,1,1.64869-.56543,4.64954,4.64954,0,0,1,1.94934-.13769c.15448.15191.29046.29876.418.44372l.60151.054c.13153.123.25708.26044.389.39453l.80964.84833c-.387-.181-.89039-.42585-1.3927-.62067-.06366-.02331-.124-.05066-.19025-.06848l-.2702.05322-.52613.11536c-.34253.08069-.66546.16919-.95294.26562a21.99512,21.99512,0,0,1-3.51294.79431c.89832.52643.16168.44989,1.64478.799.44677.43029-.93012.24932-1.3758.15509l1.712.5332.85583.26532.136.08276c.1059-.29065.451-.4989.67633-.34387.13324.05768.25116.09918.413.17706.2077.1446.37768.20649.47479.10059-.10278-.09851-.23938-.24615-.31445-.30426l-.20191-.14032q-.196-.13166-.36859-.22913a4.59227,4.59227,0,0,0-.46912.05976l-.18457.045a.50051.50051,0,0,1-.18066,0l-.24438-.01617c.00164-.17243.16656-.34058.44628-.4856a2.01453,2.01453,0,0,1,.8014-.43085c.0924-.02557.19122-.04791.29577-.06683l.16107-.02564a.41078.41078,0,0,1,.118.05317,2.92,2.92,0,0,1,.48266.34637,5.812,5.812,0,0,1,1.03992,1.27643c.12537.65527-1.2453.30023-1.40186.46838a5.57511,5.57511,0,0,1,1.64447,1.905l-.8731-.637c.54834,1.24591,1.96991,1.29553,2.35046,2.98394.27844.48163.22357,1.85566.606,1.70954.12048-1.18006,1.977-2.66876,2.79327-2.49744a24.34081,24.34081,0,0,1,1.0824,3.54279c.01312.5506-.42792.54138-.962.37768-.49042-.09985-.98163-.21978-.97455.247a.60088.60088,0,0,1,.4076.09369,3.30518,3.30518,0,0,1,.48114.34772c.329.75653-.6272.09149.46435,1.53528.58045-.35889,1.97425,2.97839.79651.14227.98755,1.09479.90283,1.56317,2.0191,3.13721-.16149-.67438.25312-.85651.64405-.95069a20.55682,20.55682,0,0,1,.84674-2.33728.39482.39482,0,0,0,.32007.42078c1.45379-2.00964,2.57623-3.09814,3.89172-5.00458.25952-.08648,1.0705-.91516,1.03723-.34814a3.32719,3.32719,0,0,1,.47919-1.34894c1.28552-.83148-.84546,1.39416.3479.90674-.27448-.29993.618-1.86609,1.0022-2.86347-.68543-.08246-1.45618,1.91468-1.84174,2.91309-.69849-.47345-.40124-2.4682.67706-4.729.94-1.73981.93207-.39423,1.02625-.74366a9.71774,9.71774,0,0,0,.66363-1.00189c.17054-.2998.36713-.67261.49732-.96985.13946-.31073.25226-.60388.35449-.889a2.68918,2.68918,0,0,1,.574-.4295,7.28766,7.28766,0,0,1,.64044-.38165c.11871-.0622.24444-.12323.37976-.18274l.34546-.15027a4.74587,4.74587,0,0,1,1.659-.31073c1.29261.23144.34369,1.0163.70221,1.32629a5.77281,5.77281,0,0,1-1.9198.38605,8.335,8.335,0,0,0-1.76995.20837l1.5426-.12445c-.4671.37183-1.5813.48169-1.86023,1.096a1.9378,1.9378,0,0,0,.42181-.361l.0622-.06549.10321-.01319.21643-.03161.47015-.08234c.64258-.12127,1.4682-.31714,2.33905-.52563a26.77045,26.77045,0,0,0,2.65332-.7569,22.59564,22.59564,0,0,1,2.42682-.6214c.41443-.34466,1.132-.894.67438-.91907-.26587.14026-.52448.3-.79742.42475-.47266-.077-.11438-.324.18292-.6026.303-.26715.57727-.49.02734-.35578a10.69556,10.69556,0,0,1,3.56818-2.21533l.55316.395c-.11-.12988-1.119.198-1.47821.53149.52984-.46618,2.65533-.45855,2.95141-1.51617l-1.224.18939a14.6691,14.6691,0,0,1,3.12268-2.719c-.86975-.14972-.24182.25067-1.46326.20361,1.22675.32947-3.22656,1.7312-1.5332,1.85706a2.74331,2.74331,0,0,0-1.55628.208,4.15206,4.15206,0,0,1-1.75189.275c.12238.16693.60168.15576-.53485.5517a1.21774,1.21774,0,0,1-.16931.27038l-.0802.01917.07013-.00507c-.03565.049-.03736.0567.02588-.00244a1.44378,1.44378,0,0,1,.68615.03155c-.36163.661-2.132,1.47791-2.69348,1.86231-.72113.1466.20679-.31641-.243-.38977l-.80688.65808c-.24646-.3905-2.03949-.08453-.53266-.88385l-1.4331.475a7.12389,7.12389,0,0,0-2.80964.56458,4.89227,4.89227,0,0,0-.86218.24957c-.341.124-.63623.25373-.85534.35614-.43738.20471-.60193.30841-.1651.018-.7793.03546-1.00269.84637-1.38062,1.41015l-.5249.88776-.30017.56043-.10565-.04456c-1.44214,2.00128-2.25965,4.60669-4.52338,6.47266-.18823.37439-.37512.758-.62634,1.18225-.12561.21209-.26734.43432-.43329.67059a1.5346,1.5346,0,0,1-.26221.29321,2.77943,2.77943,0,0,1-.3114-.233c-.04212.18122-.23224.2865-.35266.34973-.12628.07172-.20056.12714-.21466.50531a4.84961,4.84961,0,0,0-.12555-.48925c-.08039-.4889-.1344-.514-.26819-.5965a1.244,1.244,0,0,1-.21112-.14075.50446.50446,0,0,1-.089-.09906c-.11523-.16931-.24493-.37317-.33551-.53937l-.45837.22864a27.4631,27.4631,0,0,0-2.5998-3.22455l-.31378.33484c-1.08514-.93036-1.74634-3.10791-3.02032-4.883.2254.02551.50189.50769.63842.88958a5.7707,5.7707,0,0,0-1.10919-2.18817l-.49139-.67486-.2511-.327c-.09277-.09522-.26776-.07129-.3974-.11139l-1.67676-.26941L42.137,98.9528l-.24207-.01837-.48138-.04035c-.31915-.02972-.63415-.06659-.94006-.12a3.47264,3.47264,0,0,1-1.66327-.65369,2.29074,2.29074,0,0,1-1.28986-.45148.44748.44748,0,0,0,.13971.02332c-.05279-.02393-.13348-.05273-.2168-.08051-.20971-.15387-.421-.32165-.65734-.47882a3.19071,3.19071,0,0,0,.53949.43976,12.54067,12.54067,0,0,0-1.70881-.40008l-.07568-.55433-.14056-.04779c-.50635-.42065-.55158.00342-.37806.47724a4.17623,4.17623,0,0,0-.89929-.0827c-.15918-.9217-1.67779-.4596-1.968-1.49408-.58161.19555-2.99353-1.28913-3.741-.71619.03619-.10651-.10724-.24548.20819-.0799a6.12963,6.12963,0,0,0-1.83527-1.07855l.07459-.68622-1.79236-.2052c-.60278-.84954-.79718-1.238.27161-1.09332-2.29078-.78339-1.63459-.92181-3.65473-1.58435l.3302-.2431c-.58368-.39771-1.7475-.80493-1.84332-1.34-.32019-.82721-1.76727-2.1311-3.21277-3.87482-.37244-.42434-.75763-.86316-1.14673-1.30648-.34289-.48017-.68927-.96521-1.03161-1.44458a13.95093,13.95093,0,0,1-1.6753-2.88129c-.55865,1.29684-.55822-1.86093-1.4093-1.515.10907-.34228-.05432-.89019.4986-.46612a7.25682,7.25682,0,0,1-1.17816-2.16733,3.383,3.383,0,0,0-1.23432-1.6207c.14215-.32568.56653.21225.6178-.0429-.12494-.11908-.52649-.46415-.4436-.73539.07208-.25988.313.18235.58337.40628C9.657,70.948,8.83227,71.05955,8.02319,71.22727a2.39039,2.39039,0,0,0-1.07965-2.15854c.13074-.44931.20251-1.12753.68671.092C7.46,68.42887,6.59558,64.77723,6.032,64.84425a2.1826,2.1826,0,0,0-.29474-1.19751c-.15674-.818-.24206-1.26328-.32666-1.70456-.09405-.43918-.19531-.87235-.31482-1.68146l-.04339.467c-.84632-.51913-.35029-1.3324-.6175-2.631l.08362.02866a8.04441,8.04441,0,0,0-.04761-2.1717,5.00644,5.00644,0,0,1,.11939-2.13907l-.47205.17591c-.51288-.12406-.41986-.80539-.18591-1.655a6.12023,6.12023,0,0,0,.48541-2.73831l-.30517.61386c-.15229-.48587.23187-1.13754.674-1.761.2243-.3078.45294-.62158.65753-.9024a2.57,2.57,0,0,0,.46545-.7659c.12-.18891.0943.33291.11719.61779.97284-2.31665-.57593-.38195-.44348-2.21011.38519-.27887.78766.55335,1.03174-.63354a1.6446,1.6446,0,0,0,.07855-.82779A9.65635,9.65635,0,0,1,6.64856,42.328a5.59614,5.59614,0,0,1,.66565-2.92438c-.3418.28278-.686.57557-.66248-.30685a3.73579,3.73579,0,0,1,.39093-1.0556c.2182-.35892.45245-.74427.68268-1.12287a3.12706,3.12706,0,0,0,.612-2.2312c.12317-.12967.208-.16263.27045-.14474A11.508,11.508,0,0,1,9.154,32.525a5.06632,5.06632,0,0,0,.33679-1.82156c.4718-.02533.8291-.4068,1.12232-.958a15.76585,15.76585,0,0,0,.90722-1.8909c.56055-1.341,1.06073-2.61722,1.68628-2.17728l1.77008-2.50646.07587.15945a6.88062,6.88062,0,0,0,1.64789-2.98972c.38586-.26977.267.07273.30194.15342a15.7054,15.7054,0,0,0,2.09729-2.08738A13.18013,13.18013,0,0,0,20.5896,16.1631l.51611.20043a2.40882,2.40882,0,0,1,.71179-.66024c.19-.13535.40119-.29285.645-.44718l.81519-.45892a20.69547,20.69547,0,0,0,1.78283-1.129c.60108-.41467,1.13935-.939,1.68018-1.39569a.41972.41972,0,0,1-.1413.34509,9.74687,9.74687,0,0,1,2.12818-1.35971,16.01273,16.01273,0,0,1,2.37536-1.00018c1.55585-.53467,2.78845-1.08972,2.95789-2.17337.57788-.42313,1.19629-.76666,1.80151-1.1582-2.631.81231.102-.871-1.07294-.76062,1.00391-.48008,2.8451-.46161,1.618.08633l-.22712-.013c-.13781,1.04279,3.31379-.86859,3.45813-.13065,5.1211-1.63211,10.43421-1.51944,15.33674-1.33252l-.55005-.76046,1.74762.13061c.44879.193.57183.60172-.65821.50955.62018.44669,2.09259-.24337,2.15143-.39962,1.20221.24731.93079.48462.47516.57492-.46149.13226-1.12451.26077-.75708.28216a6.62545,6.62545,0,0,1,1.00037.03449l-.21393-.11954a3.992,3.992,0,0,1,2.42309-.214c.91144.287.405.51795.76581.60141-.01086.05072.10749.09342.55524.10532a14.35767,14.35767,0,0,1,2.10821.5177l-.7193-.78214c1.004-.03424,2.00031.547,1.16285-.34411a4.74676,4.74676,0,0,0,1.75482.954c.40228.14782.84546.28881,1.30743.42523.44757.18259.91388.36062,1.37787.53171l2.58154.9237a4.63423,4.63423,0,0,1,1.42255.73627,8.7445,8.7445,0,0,1,2.02826.5798,10.47071,10.47071,0,0,1,2.05463,1.06757c-.29627-.321-.20227-1.02292,1.01568-.18964-.56506.44031-.07.91181.62171,1.44687.68683.5426,1.60937,1.11337,1.771,1.8888-.4649-1.14466,3.34937,2.30917,2.59961.61483.90308.80976-.24829.44062.28369,1.23081A15.38131,15.38131,0,0,1,86.78,18.16551c1.09106,1.24572,2.0708,2.68429,3.33068,3.90457.16767-.06482-.00115-.69574.678-.27133l.41974,2.03186c.47876.49569,1.20117-.08826,1.46649,1.28338.01441-.22735.03467-.57229.36249-.22842a11.05548,11.05548,0,0,1,.61566,1.15628l.60627,1.16385c.41687.76849.85809,1.52383,1.31573,2.2738q.58979,1.17805,1.183,2.36289c.37934.7966.86451,1.55185,1.16529,2.3872a22.72463,22.72463,0,0,1,2.15081,10.32581c.19507-.98743.32154-.37589.443.3374.0097-.47784.43048-.05936.65185-.18823l-.21765,2.99554c.684.47519.2005,3.13367.84851,3.41666l-.16119-.93225c.80987,1.235,1.56793-1.85306,2.53076-1.76758a2.09222,2.09222,0,0,1-.25946-1.24072,14.29279,14.29279,0,0,1,.10742-1.54947,4.82154,4.82154,0,0,0-.64709-3.44272c.07361-.56039.39447.38425.54846.062a3.93414,3.93414,0,0,1-.97022-2.58694l.13721.12549c-.2652-.93094-.46588-1.73468-.63135-2.48645-.21618-.73594-.42559-1.411-.61193-2.11216a30.25342,30.25342,0,0,0-1.57459-4.92007l-.28815.49325a5.36712,5.36712,0,0,1-.3869-1.5643c-1.10858-.64663,1.10761,2.39191-.03424,1.84675.1485-.74427-.49481-2.2782-1.27435-3.67212-.81171-1.37876-1.5838-2.71781-1.347-3.38086-.759-1.23957-.22149.65262-.99975-.56269l.01532-.475-.5315-.07413c-.51178-.79095-.501-1.39517-.32178-1.57468a5.70226,5.70226,0,0,0,.618.67386c-.47687-1.19555-2.16541-2.757-2.38855-3.11615a12.32317,12.32317,0,0,1,.72888,1.21152c-.61713-.77841-1.38275-1.49963-2.10248-2.29224-.73981-.77377-1.43951-1.62213-2.22907-2.37478-.811-.731-1.62725-1.451-2.44122-2.11856-.41113-.32871-.80389-.66553-1.22674-.94486-.43378-.26614-.86487-.51446-1.29139-.73971l.09314.34912a7.95888,7.95888,0,0,1-2.14557-1.53394,9.15936,9.15936,0,0,0-.7835-.73093,14.162,14.162,0,0,0-1.5387-.92019l.127.01483a6.83563,6.83563,0,0,1-2.16723-.95377c.81775.18949-1.04578-1.228-.00238-.93423-3.01544-1.0528-1.5716-.39719-3.77759-.558l-.27234-.54226a7.00172,7.00172,0,0,1-.9154-.0033,13.54635,13.54635,0,0,1-1.45813-.35486c1.32879.14844-.73621-.87179.7846-.76172A9.13224,9.13224,0,0,0,69.0415,3.28327c-1.00037-.20651-1.80292-.21933-2.387-1.00677-1.74329.6112,2.6347,1.26593,1.74426,1.26733.57672.51462-1.4256.4079-2.38928.06757a4.34339,4.34339,0,0,1-1.40869-1.04587,5.8859,5.8859,0,0,0-1.03534-.719A6.33917,6.33917,0,0,0,61.93329,1.401c.26385.04544.29547-.02832.5592.01669-.95868-.41208-2.00366.05146-3.16962-.555-.75018.48166-1.59289-.21146-1.86078.57266a17.51937,17.51937,0,0,1,2.44562.09519c-1.40741-.06156-2.75885.84134-4.97888.27789a4.525,4.525,0,0,1,1.33643-.42c-.65461-.26691-1.28687.08993-1.96869-.184C54.51721.438,57.27685,1.14408,58.824.69508c-.6925-.44464-2.88464.40451-2.066-.42844A2.242,2.242,0,0,1,54.76745.611,3.76718,3.76718,0,0,0,52.257.8234l.11285-.48046A5.34476,5.34476,0,0,1,50.9588.69987l.94574-.66293c-1.46179.60379-2.90289-.32831-4.32129.062,2.997-.20078.723.52618,2.00494.79989a6.226,6.226,0,0,1-1.91748.19272A2.65949,2.65949,0,0,1,46.63336.81217c-.61859-.27111-1.32019-.5834-3.36188-.15332.54907-.153,2.13477-.0394,1.30255.31034A11.45307,11.45307,0,0,1,42.1936.82929c-2.64789.77765.51276.37235-.55664.94623-1.0304-.33288-1.24579.56211-2.3363,1.03424l-.13715-.46283c-1.54938.23188-1.67261.53833-1.75079.8356-.08326.28913-.12641.55472-1.48206.85117l.88678-1.03577-1.31079.6626.09845-.6203A9.38856,9.38856,0,0,1,32.248,4.48289c.46039.156.16376.8913-1.04919,1.492-.9599.14435.27362-.64114-1.44251.26279a1.45983,1.45983,0,0,1,1.48761-.979c.01184-.18024.26538-.46354.28327-.64429a10.82347,10.82347,0,0,0-2.97968,1.35794,3.08258,3.08258,0,0,1,.74488-.235l-1.11866.91846L27.13189,7.67738c-.46972.07306-.24395-.23413-.01452-.53977-.46564.3433-.69141.7395-1.38611,1.21039-.01984-.44659-.28052-.7626.66095-1.54959L24.29339,8.584a3.71269,3.71269,0,0,0-.78967.11658c-.29083.07459-.52808.11334-.42609-.05255a8.81312,8.81312,0,0,0-1.99981,1.81186,14.78153,14.78153,0,0,1-2.24744,2.05093,1.75174,1.75174,0,0,1-.41083.64923c-.722.59537-1.4732,1.08612-2.20587,1.66782a7.56537,7.56537,0,0,0-1.90924,2.34186l-1.3775.47152c-1.05164,1.39814,1.81109-.6799.07623,1.62922-1.06744,1.74783-.92944.22677-1.52032.67742a14.38125,14.38125,0,0,1-.729,1.97471,7.33168,7.33168,0,0,1-1.591,2.12072A5.96445,5.96445,0,0,1,10.03363,22.59315ZM1.96435,42.21342c-.03265-.42481-.1076-1.29056.23737-1.52219C2.63147,41.27268,2.25964,41.55445,1.96435,42.21342ZM6.56482,73.39765a1.74608,1.74608,0,0,1-.40046-1.22818A3.61839,3.61839,0,0,1,6.56482,73.39765Zm59.363,25.045a.214.214,0,0,0-.03283.03228C65.03082,98.49668,65.33911,98.49619,65.92779,98.44267Zm1.73352-.301c.14594-.1217.11365-.18127.02314-.22125-.0777.15607-.44733.29278-.87964.40668C66.95794,98.40763,67.199,98.41642,67.66131,98.14164ZM61.58288,5.26948l-.31738-.176C62.05694,5.07337,61.8197,5.16419,61.58288,5.26948Z"/><path class="cls-2" d="M4.56842,70.30976a.4519.4519,0,0,1,.19342-.2558C4.637,69.92933,4.54748,69.957,4.56842,70.30976Z"/><path class="cls-2" d="M18.77832,12.55067l.05206-.03989a.20713.20713,0,0,0-.00775-.11032Z"/><path class="cls-2" d="M48.61468,113.11216a1.78437,1.78437,0,0,1-.30652-.88672c-.0545.025-.078.08686-.05041.2041a1.14766,1.14766,0,0,0,.08227.21967C48.40295,112.76835,48.49908,112.92991,48.61468,113.11216Z"/><path class="cls-2" d="M75.777,93.74955l-.9085.64459a2.35151,2.35151,0,0,1,.94867-.34283C75.74109,93.96446,75.47851,93.92289,75.777,93.74955Z"/><path class="cls-2" d="M85.59771,90.60258c.09546-.15192.2837-.22772.3631-.39386l-.18133-.137C85.237,90.55229,84.94159,90.996,85.59771,90.60258Z"/><path class="cls-2" d="M77.47638,94.644c.27234.29114.87048-.12085,1.48224-.65533a1.05227,1.05227,0,0,1-.11811.07879C78.73785,93.45933,78.13983,94.09617,77.47638,94.644Z"/><path class="cls-2" d="M79.10614,93.87364a4.77782,4.77782,0,0,1,.61157-.42029C79.67144,93.21073,79.44275,93.57975,79.10614,93.87364Z"/><path class="cls-2" d="M69.66937,97.16435c.38769-.02277.037-.56079.29248-.474C70.17535,96.07035,67.84808,98.07792,69.66937,97.16435Z"/><polygon class="cls-2" points="78.73 95.48 78.217 95.19 78.02 95.76 78.73 95.48"/><path class="cls-2" d="M72.80243,98.07285l1.2492-.40344c-.0534-.06817.07733-.18017.24689-.29663C73.55749,97.68376,72.71551,97.949,72.80243,98.07285Z"/><path class="cls-2" d="M74.29852,97.37278a2.96541,2.96541,0,0,0,.91663-.50812C75.01947,96.97776,74.577,97.17759,74.29852,97.37278Z"/><polygon class="cls-2" points="77.23 96.477 76.84 96.573 76.01 96.988 77.23 96.477"/><path class="cls-2" d="M60.62719,104.43827l-.69238,1.26264c.059.21759.36658-.04493.61218-.5235C60.64239,104.82688,60.88842,104.35105,60.62719,104.43827Z"/><path class="cls-2" d="M64.10333,102.2349a1.22573,1.22573,0,0,1-.37952-.07757.46528.46528,0,0,0-.28582-.06287l.3753.55072C63.81976,102.40153,63.99157,102.373,64.10333,102.2349Z"/><path class="cls-2" d="M61.96563,105.16917c.06134.21521-.76892,1.99438.22663.47491C62.13354,105.42759,62.82763,104.16337,61.96563,105.16917Z"/><polygon class="cls-2" points="48.665 110.175 48.878 110.471 49.688 109.852 48.665 110.175"/><path class="cls-2" d="M33.70459,101.5493c1.59869.83178.62164-.44349,2.03454.37164.47241-.09131-1.154-.66181-.67834-.71741C33.9577,101.11247,33.50055,100.72569,33.70459,101.5493Z"/><path class="cls-2" d="M35.06079,101.20353a5.55668,5.55668,0,0,0,.56592.03186A2.52411,2.52411,0,0,0,35.06079,101.20353Z"/><polygon class="cls-2" points="100.524 49.686 100.365 50.732 100.673 50.047 100.524 49.686"/><path class="cls-2" d="M101.38134,51.66447l-.6361.25662.6203.6246C101.32428,52.30747,101.2442,51.84806,101.38134,51.66447Z"/><path class="cls-2" d="M.18927,45.16371l.14148.10922c.19439-.1554.24762-.42194.35589-.956Z"/><polygon class="cls-2" points="5.084 30.23 4.955 30.468 5.705 30.263 5.084 30.23"/><path class="cls-2" d="M11.44818,18.60264c-.34711.42075-.62885,1.01407-.97589,1.4361C11.10315,19.01991,12.10418,18.94743,11.44818,18.60264Z"/><path class="cls-2" d="M48.23358,82.886c.09253.07489.14331-.04914.12414-.02954C48.321,82.79807,48.25488,82.8823,48.23358,82.886Z"/><polygon class="cls-2" points="49.254 83.53 49.446 83.56 49.298 83.511 49.254 83.53"/><path class="cls-2" d="M49.68329,83.79344l.00128-.05085-.15528.06012a4.0566,4.0566,0,0,1,.59394.3443C50.13623,83.94859,49.79229,83.96171,49.68329,83.79344Z"/><path class="cls-2" d="M50.33636,84.71214a.91379.91379,0,0,1,.09894.0578c-.00092-.08039.14075.00757-.11292-.08533Z"/><path class="cls-2" d="M50.33636,84.71214c-.10663-.052.041.0885,0,0Z"/><path class="cls-2" d="M50.67883,84.90373c.012.05322.13934.11438.07941.12194.16473.029.14685-.02209.08844-.11767Z"/><path class="cls-2" d="M51.03015,84.84049l-.08289-.00451C50.95367,84.857,50.97137,84.87046,51.03015,84.84049Z"/><path class="cls-2" d="M50.8681,84.82615c.03308-.04419-.01727-.008-.09814-.00207l.1773.0119C50.93725,84.801,50.95758,84.74687,50.8681,84.82615Z"/><path class="cls-2" d="M50.70782,84.62742c-.26941-.09961-.29095.029-.01343.13159C50.6322,84.68723,50.545,84.61949,50.70782,84.62742Z"/><path class="cls-2" d="M50.09631,83.91892c.052.00312.14624.1496.17.09974l-.06115-.09955Z"/><path class="cls-2" d="M51.745,85.29185c.0177-.03418-.02813-.11157-.02765-.16156l-.1206.01373C51.64685,85.18388,51.74957,85.23539,51.745,85.29185Z"/><path class="cls-2" d="M51.71734,85.13029l.17847-.02741C51.7511,85.06761,51.71826,85.08592,51.71734,85.13029Z"/><polygon class="cls-2" points="50.824 84.692 51.174 84.682 51.125 84.665 50.824 84.692"/><polygon class="cls-2" points="52.286 85.481 52.475 85.372 52.395 85.408 52.286 85.481"/><path class="cls-2" d="M52.82849,85.42936c-.07593.07056.09289.126.01434.16846a.73418.73418,0,0,0,.31458-.12342A.43346.43346,0,0,1,52.82849,85.42936Z"/><path class="cls-2" d="M52.23718,85.18461l-.06488-.01068a.18589.18589,0,0,0,.11536.12555Z"/><path class="cls-2" d="M52.23541,85.181l.00177.00366.13989.02539Z"/><path class="cls-2" d="M51.6557,84.71214c-.08478.05334.0083.13147-.15589.18121C51.61126,84.861,51.81488,84.84776,51.6557,84.71214Z"/><path class="cls-2" d="M51.90014,85.0623l.19861-.03669-.16565-.05767C51.93054,84.99619,51.95349,85.0427,51.90014,85.0623Z"/><polygon class="cls-2" points="52.188 85.007 52.099 85.026 52.161 85.046 52.188 85.007"/><path class="cls-2" d="M53.00311,85.28861a.62464.62464,0,0,1,.25409-.05554,2.14591,2.14591,0,0,0-.30176-.03576C52.94061,85.23045,52.89459,85.28947,53.00311,85.28861Z"/><polygon class="cls-2" points="54.186 85.149 54.168 85.132 54.168 85.151 54.186 85.149"/><path class="cls-2" d="M52.77508,85.20841a1.59757,1.59757,0,0,1,.18036-.0111c.00672-.015.00818-.02491-.016-.02033A.1767.1767,0,0,0,52.77508,85.20841Z"/><path class="cls-2" d="M53.43542,85.2772c.04016.0332.1239.08252.1366.05231Z"/><path class="cls-2" d="M52.67029,85.26536a.40776.40776,0,0,0,.10479-.057.60891.60891,0,0,0-.12805.02546A.13506.13506,0,0,1,52.67029,85.26536Z"/><path class="cls-2" d="M53.83563,85.16941l-.07037.0185a.83439.83439,0,0,1,.2669.10247c.11475-.06573.13263-.10565.13544-.13934l-.35486.03528Z"/><path class="cls-2" d="M53.5484,84.936c-.20056.018-.13678.09534-.2583.14655.332-.03619-.095.0628.14978.11688a.931.931,0,0,1-.18268.03363,1.4658,1.4658,0,0,1,.17822.04413l-.00818-.00647-.00158.00043.0003-.00171c-.01532-.013-.02051-.021-.00354-.01367l.007-.00244a.12559.12559,0,0,1,.01367-.04108c.09949.01923.01691.02746-.01367.04108l-.00348.01611.00128.00128c.11365-.0202.2265-.05469.338-.08282a1.57646,1.57646,0,0,0-.32221.02374C53.4953,85.1052,53.658,85.04325,53.5484,84.936Z"/><path class="cls-2" d="M51.87628,84.53025a.0335.0335,0,0,1,.00391.02686C51.90265,84.54936,51.912,84.54246,51.87628,84.53025Z"/><path class="cls-2" d="M51.83447,84.67918l.02521-.00861c.11505.06342.256.22632.23138.23712a.82113.82113,0,0,0-.1037-.28674c-.02527.00958-.05377.05005-.12414.02167-.05518-.04779.01233-.05011.017-.08551C51.83136,84.57389,51.70935,84.59251,51.83447,84.67918Z"/><path class="cls-2" d="M52.69421,84.93333c.09119-.009.18152-.021.27118-.03784l-.13092-.09735.00378.05645C52.689,84.82054,52.71655,84.89189,52.69421,84.93333Z"/><polygon class="cls-2" points="54.21 85.315 54.345 85.124 54.228 85.196 54.21 85.315"/><polygon class="cls-2" points="54.603 85.202 54.685 85.118 54.593 85.102 54.603 85.202"/><path class="cls-2" d="M59.97076,78.2487l-.11127.02392a.28968.28968,0,0,1-.04193.19495C59.92694,78.36436,60.084,78.24662,59.97076,78.2487Z"/><path class="cls-2" d="M57.70239,83.05107a.77912.77912,0,0,0,.21271-.15326C57.788,82.95341,57.65545,82.96739,57.70239,83.05107Z"/><path class="cls-2" d="M58.09771,82.66691l-.05267.027a.6172.6172,0,0,1-.12994.20386A.24945.24945,0,0,0,58.09771,82.66691Z"/><path class="cls-2" d="M55.923,84.62956l-.06592.0249C55.85675,84.67533,55.87005,84.681,55.923,84.62956Z"/><path class="cls-2" d="M56.01288,84.57676l.09393-.05981a.56246.56246,0,0,1-.1181.05383C56.006,84.56944,56.01477,84.57151,56.01288,84.57676Z"/><path class="cls-2" d="M59.73571,78.29838l.12378-.02576-.00128-.02215c.05335-.08777-.04937-.07984-.14422-.04114a.45169.45169,0,0,0-.06018-.12952c.20208-.05658-.04224-.246.16833-.33276-.09289-.069-.05627-.472-.27032-.52167.02777-.00281.04144-.0296.04223.01959a.33795.33795,0,0,0-.01288-.29345l.15229-.04627-.212-.21545c.08575-.13739.1366-.19916.26184-.06915-.19842-.31617-.0827-.26313-.2876-.5207l.09974.0033c-.01111-.09912-.16419-.238-.09137-.30707.16723-.25036-.154-1.08093-.18232-1.67712-.23773.20032.03229-.29749-.189-.24231.053-.05554.06122-.14655.14978-.07886-.17127-.2514-.06928-.46313-.33148-.56933.048-.06073.11865.01483.1427-.03016-.02387-.01574-.09479-.06073-.07111-.107.02374-.04584.07086.01465.11853.04547-.14313-.27789-.35431-.20154-.53778-.12872.015-.17755-.03638-.239-.20416-.26563.03039-.07721.04419-.18878.15832-.04-.038-.0968-.25634-.598-.39758-.51385.01459-.04944-.07434-.12518-.105-.13654a2.24893,2.24893,0,0,0-.283-.389l.01843.06616c-.204.0487-.15137-.11878-.288-.24353l.01831-.009c-.17969-.40589-.1637-.09137-.34272-.49964l-.068.10114c-.20343.15753-.15692-.366-.415-.44983l.02283.10852c-.15375-.01233-.06616-.50928-.17017-.61792-.012-.03607.06061-.0011.10572.01068-.21521-.33887-.13111.09827-.373-.026.00372-.09772.17542-.14411.02466-.25769-.048-.116-.5979-.04132-.75537-.28375.0238.08355.04352.165-.08948.15625-.17487-.05817-.39862-.42774-.63171-.28376a.07306.07306,0,0,1-.0185-.05938c-.1579.007-.48767-.035-.593.06268-.07319-.44959-.90351.091-.87269-.27277-.15081-.00049-.29962.01264-.4483.0235l.01007-.03937a.49127.49127,0,0,0-.47113.19635c-.06787-.01684-.02527-.05871-.02215-.07934a.74957.74957,0,0,0-.76154.28107l-.06781-.1103c-.06421.08735-.65448-.0083-.972.31794a.08259.08259,0,0,1,.01716-.0694c-.34552.31256-1.17115.29962-1.027.77447-.05677.091-.11054.18238-.15888.2771.30988-.22369.08429.18482.25037.14-.08905.11413-.37323.14862-.25354.01166l.03644-.00208c-.11151-.225-.40015.26245-.50452.145a9.61718,9.61718,0,0,0-1.41284,1.71338l.20093.01684-.12513.212c-.06738.03778-.16766.01294-.07885-.14264-.13526.03644-.06049.30554-.025.32629-.21222.28333-.13531-.21594-.18286-.12164l-.0498.13916.0332-.02093c.01916.14026.08319.17987-.00787.37152-.08454.11029-.13031.02093-.157.06769-.01184-.00519-.02441.00939-.03589.07421l-.12475.29139.1781-.0694c.02045.1543-.105.272.09723.19171-.32434.11182-.40546,1.08124-.49109,1.19037a1.19972,1.19972,0,0,1-.004.62152c.0379-.054.20184-.06659.15826.12634-.324-.10888-.18408.34729-.42761.4964.16229-.1369.01538.57825.252.35541-.03009.166-.12555.00708-.20667.13361.12512.3988-.07275.89007.03174,1.39038.04462.00213.10052-.08789.17944.00958l-.18292.2915c.03723.09632.26569.0492.146.25281.032-.03186.0805-.07855.10559-.01642-.02912,1.02692.67321,1.84833.8338,2.89569.00494-.16253.05786-.08685.11255.00128-.01642-.0689.09381-.05462.13812-.09686l.0849.44c.17865-.02984.26721.36194.42364.299l-.102-.08685c.14569.01483.18952-.13574.24207-.28723.07928.11017.139.23029.22443.33728a5.38888,5.38888,0,0,0,4.379,2.20679c.17591,0,.34766-.01306.51831-.02967a.06411.06411,0,0,0-.03546.01185l.01117.05529c.08527-.01068.136-.05041.0777-.07019.08069-.00866.15912-.02453.23865-.037-.13715.0968-.00043.4035.17974.56-.0025-.04327-.00732-.08069.14911-.174-.071-.03509-.39135-.05969-.26611-.1701.20569-.08509.181.00079.2981.03192-.09894-.08716.1416-.20679.13586-.3487a4.8594,4.8594,0,0,0,.6452-.22265l.04981-.0163-.02356.00446a5.02648,5.02648,0,0,0,.52679-.26294c-.00207.02051-.01.04394.01514.051l.09375-.07434c.15222.03656-.12116.24146.03747.20886a.74045.74045,0,0,1-.46246.38941l-.10248-.12348c.02277.04163.17725.0213.2157-.0509-.06079.11072-.40527-.04651-.42834.17957l.192.03576c-.12378.13751-.27826.36475-.50458.37946.13978.11712.04285-.02613.24683.09106-.19672-.15722.53894-.18677.24921-.32757.22735.13116.28686-.02466.55475.03674-.02948-.04291-.11036-.05127.06707-.115a.22678.22678,0,0,1,.01459-.05921l.0127-.0028-.01178-.00025c.00341-.01062.00329-.01233-.00428,0a.19419.19419,0,0,1-.1184-.02289c.02587-.14672.27722-.27948.32257-.38616.1015-.03669-.00623.07287.07122.08728l.07178-.153c.07471.08966.33991-.01111.16822.19165l.19158-.13092a.57133.57133,0,0,0,.37134-.23932c.10211-.05078.12232-.27527.11188-.14557.07288-.09826.14832-.193.21362-.29455l.022.01776c.26763-.238.35009-.6413.75091-.82251a1.06074,1.06074,0,0,1,.23059-.36389l.10126.02472c.06079-.13868.33227-.32453.28168-.43335.31305-.00153.42334-.61048.56921-.83332l-.11041-.06317a1.77949,1.77949,0,0,0,.15753-.56537l-.10913-.02783c-.01819-.20959.246-.43353.31879-.733.03643.03192.00421.10364-.03809.148.35-.28638.02313-.78418.25391-1.06628a.21407.21407,0,0,1,.03332-.196.04223.04223,0,0,0,.003.021l.006-.03314.07483-.10474a.38582.38582,0,0,0-.07269.08679A1.071,1.071,0,0,0,59.73571,78.29838ZM47.19659,73.63627l.04785-.03375C47.2348,73.71824,47.21734,73.67784,47.19659,73.63627Zm11.29456-.63855c-.00672.04358-.069.04321-.14942.03381l.05817.0282a.08753.08753,0,0,1-.06207.08588c-.02057-.039-.03229-.0824-.05359-.121l.05749.007-.07257-.03772c-.00964-.01727-.02386-.03234-.03363-.04956a1.20233,1.20233,0,0,0,.03882-.15655Zm-4.498,11.57367c.09094-.01428.1817-.029.27112-.04822A.22969.22969,0,0,1,53.99316,84.57139Zm.32861-.04913.00214-.00971.01733-.00305Zm2.35364-.50672.0011-.00842C56.80377,83.96446,56.75744,83.97819,56.67541,84.01554Zm.59113-.903c-.15082.22778-.17877-.01319-.18988.041-.37763.31568-.06049.57142-.49066.72785-.21558-.0036-.1684-.20661-.25739-.26032.1308-.1726.30792-.13647.41089-.24066l-.17456.06958a.355.355,0,0,1,.18591-.21905.37754.37754,0,0,0-.12085.05829,7.11956,7.11956,0,0,0,.72009-.75031A.82553.82553,0,0,1,57.26654,83.11259Zm.83014-1.40009a.19442.19442,0,0,0-.12964-.03009c-.0257.03583-.05.06238-.07489.09284.06476-.09735.13489-.19251.19507-.29169A.46331.46331,0,0,1,58.09668,81.7125Zm.41357-.83972a.12167.12167,0,0,1-.07983-.02154c.03534-.072.06439-.14661.09747-.21949l.20209.08515-.18567-.12213c.03241-.07239.06628-.14423.0965-.21753a.88615.88615,0,0,1,.3175.17791A1.86255,1.86255,0,0,1,58.51025,80.87278Zm.81317-1.27594c-.07489-.094-.18792-.24744-.30182-.40637.0282-.11774.06446-.23224.08759-.352a.87178.87178,0,0,1,.27911.46716l-.09326.03815Zm-.07263-2.91443c-.00287-.06292-.01-.12359-.0141-.186.08582.05853.17426.109.25916.17078A.78394.78394,0,0,0,59.25079,76.68241Z"/><path class="cls-2" d="M55.2749,84.9141c.01385.02478.06006.04987.00983.07257l.15045-.09594A.2508.2508,0,0,1,55.2749,84.9141Z"/><path class="cls-2" d="M54.78375,84.68821c.00977.14661.11383.06159.21307-.02191-.04663-.09125-.12988-.02625-.23211.02838Z"/><path class="cls-2" d="M54.63983,84.73545c.00244.05835.04468.00006.10052-.03033A.3831.3831,0,0,1,54.63983,84.73545Z"/><path class="cls-2" d="M56.193,84.37132c-.06128.0083.0387.12921-.01038.11163C56.199,84.62608,56.418,84.1461,56.193,84.37132Z"/><polygon class="cls-2" points="54.802 84.38 54.879 84.486 54.903 84.371 54.802 84.38"/><path class="cls-2" d="M55.45031,84.17143c.01178.01764-.00262.03833-.023.05871.09955-.0412.21521-.07629.1933-.108C55.565,84.14158,55.50769,84.157,55.45031,84.17143Z"/><path class="cls-2" d="M57.1026,82.87089c-.00794.054-.04413.11652.00586.12408l.10125-.16449C57.19073,82.78752,57.137,82.80766,57.1026,82.87089Z"/><polygon class="cls-2" points="48.114 82.636 48.123 82.506 48.066 82.481 48.114 82.636"/><path class="cls-2" d="M48.2854,82.72794l.17053-.01885c-.02625-.0224-.07745-.06623-.06415-.10914Z"/><path class="cls-2" d="M46.35217,12.6143c.00385-.17914-.099-.11487-.11859-.14179C46.26574,12.77232,46.37921,12.60673,46.35217,12.6143Z"/><polygon class="cls-2" points="46.634 15.518 46.752 15.953 46.678 15.57 46.634 15.518"/><path class="cls-2" d="M46.75854,18.3347c.17066-.26325-.05865-1.00135-.00989-1.49445l.03827-.08154-.1502-.221A16.37816,16.37816,0,0,1,46.75854,18.3347Z"/><path class="cls-2" d="M46.4165,19.81407c.06677-.09205.06934.31817.01154-.3443l-.01575.06256Z"/><path class="cls-2" d="M46.41229,19.53233c-.01367-.29132-.05267.1914,0,0Z"/><path class="cls-2" d="M46.49218,20.87705l-.07342-.38275c-.03864.08081-.03772.42255-.07129.29614C46.39312,21.18363,46.43145,21.10191,46.49218,20.87705Z"/><path class="cls-2" d="M46.63324,21.23869l-.03217-.19837C46.5849,21.07542,46.5805,21.12815,46.63324,21.23869Z"/><path class="cls-2" d="M46.53314,20.61961l.06793.42071c.02716-.05609.08484-.06286-.02576-.19323C46.62921,20.88072,46.57592,20.7982,46.53314,20.61961Z"/><path class="cls-2" d="M46.675,20.27043c-.04644-.73346-.16864-.62366-.12176.11C46.58563,20.16459,46.60174,19.88633,46.675,20.27043Z"/><path class="cls-2" d="M46.94732,18.47367l.04364-.288-.0672-.248C46.95715,18.0615,46.8919,18.49217,46.94732,18.47367Z"/><path class="cls-2" d="M46.61609,23.10862l-.052-.28253c-.02166.14612-.03735.42279-.093.44324C46.5097,23.29252,46.56836,23.13822,46.61609,23.10862Z"/><path class="cls-2" d="M46.61609,23.10862l.07782.42261C46.6903,23.15238,46.65722,23.08378,46.61609,23.10862Z"/><polygon class="cls-2" points="46.833 21.304 46.676 20.61 46.839 21.438 46.833 21.304"/><polygon class="cls-2" points="46.565 25.076 46.515 24.889 46.42 24.651 46.565 25.076"/><path class="cls-2" d="M46.562,25.96342c-.07807-.176-.11585.24719-.16626.06024a3.73721,3.73721,0,0,0,.15448.76209A2.59329,2.59329,0,0,1,46.562,25.96342Z"/><path class="cls-2" d="M46.69665,24.25382a.568.568,0,0,0-.09845.33625L46.7,24.42082Z"/><path class="cls-2" d="M46.70331,24.4149l-.0033.00592.00482.36041Z"/><path class="cls-2" d="M46.76983,22.41654c.06714.24793.14667.76569.22278.2616C46.91412,22.501,46.87085,22.78959,46.76983,22.41654Z"/><path class="cls-2" d="M46.73425,23.51982l.089.48193.011-.45075C46.80627,23.56046,46.76758,23.64256,46.73425,23.51982Z"/><polygon class="cls-2" points="46.864 24.221 46.823 24.002 46.819 24.169 46.864 24.221"/><path class="cls-2" d="M46.72027,26.386a3.28226,3.28226,0,0,1,.07715.64611c.01331-.25818.01673-.52484.009-.77777C46.77173,26.21952,46.70831,26.11,46.72027,26.386Z"/><polygon class="cls-2" points="46.867 29.398 46.886 29.36 46.867 29.352 46.867 29.398"/><path class="cls-2" d="M46.825,26.21061a.96556.96556,0,0,0-.051-.41864c.01508.14447.02662.29773.03241.46234C46.822,26.27,46.83209,26.27274,46.825,26.21061Z"/><path class="cls-2" d="M46.713,27.81913c.01935-.1015.03485-.21643.0487-.3371C46.73077,27.58158,46.68408,27.78428,46.713,27.81913Z"/><path class="cls-2" d="M46.70117,25.5369l-.00556-.0288C46.67456,25.57212,46.68554,25.56394,46.70117,25.5369Z"/><path class="cls-2" d="M46.70117,25.5369a1.81386,1.81386,0,0,0,.07281.25507c-.0119-.11767-.02661-.22668-.04516-.321A.31377.31377,0,0,1,46.70117,25.5369Z"/><path class="cls-2" d="M46.87042,28.51164l-.0177-.18274a3.089,3.089,0,0,1-.11542.63757c.05737.30322.096.36523.12958.38513l-.01312-.90216Z"/><path class="cls-2" d="M46.82769,27.50675c.112.1399.1709.57813.27942.30548-.02349-.53692-.10119-.37377-.15747-.69342.05255.86622-.06738-.24737-.1098.38086-.02338-.16986-.03357-.323-.04242-.46759l-.03577.45.00611-.02008-.00049-.004.00177.00079c.01227-.03778.02008-.05036.01355-.008l.00275.01807a.10969.10969,0,0,1,.04181.038c-.01477.25177-.0268.04035-.04181-.038-.00537-.00275-.01056-.0094-.0163-.01007l-.00128.00323.085.86695A7.97205,7.97205,0,0,0,46.82769,27.50675Z"/><path class="cls-2" d="M47.19049,25.87522l-.05542.02008c.0097-.41162-.05664-.3211-.10126-.37115l.07446.72162Z"/><polygon class="cls-2" points="46.816 29.483 46.7 29.391 46.873 29.803 46.816 29.483"/><polygon class="cls-2" points="46.858 30.423 46.758 30.391 46.825 30.637 46.858 30.423"/><path class="cls-2" d="M47.55792,53.4661c-.08313.30951-.21613.65516-.1059.61731l.10553-.09539A2.00153,2.00153,0,0,1,47.55792,53.4661Z"/><path class="cls-2" d="M47.185,40.037a5.08148,5.08148,0,0,0-.04547.66711C47.19214,40.38108,47.27783,40.11894,47.185,40.037Z"/><path class="cls-2" d="M58.8388,44.73667c-.01562-.13025-.036-.18622-.0603-.183C58.7929,44.68772,58.81134,44.76377,58.8388,44.73667Z"/><path class="cls-2" d="M47.1629,41.47392l.02124-.1416a4.9056,4.9056,0,0,1-.04462-.62818A1.64566,1.64566,0,0,0,47.1629,41.47392Z"/><path class="cls-2" d="M47.22149,9.40177a1.84593,1.84593,0,0,0-.178.36035A3.38517,3.38517,0,0,1,47.22149,9.40177Z"/><path class="cls-2" d="M46.92346,34.20732c-.01306-.19916-.01294-.03113,0,0Z"/><path class="cls-2" d="M47.897,43.43778l.00012.01722C47.91656,43.39524,47.91284,43.4055,47.897,43.43778Z"/><path class="cls-2" d="M46.96374,33.90519c-.01105.07544-.01959.16211-.02453.25635C46.94635,34.12,46.95453,34.04209,46.96374,33.90519Z"/><path class="cls-2" d="M46.91375,33.94767,46.919,33.773C46.9002,33.74857,46.88952,33.77128,46.91375,33.94767Z"/><path class="cls-2" d="M46.93756,34.48484c-.00507-.11395-.00311-.22052.00165-.3233-.00617.03949-.01178.05615-.01575.04578Z"/><path class="cls-2" d="M46.66644,11.91c-.004-.12384.00525-.248.0083-.3728.066.2771.21735.05328.37933-.17279a6.73355,6.73355,0,0,0-.09747,1.10809q0,3.81006.21747,10.54c-.02966-.09814-.06415-.14819-.09119.10993l.01648.06109a2.06639,2.06639,0,0,1-.16412.74152,1.15384,1.15384,0,0,0,.24841-.43018.69339.69339,0,0,1-.05658-.31982c.01673-.11054.03278-.0835.05072-.04987q.08707,2.68314.20825,5.82361c-.13043-.14252-.36236.101-.50048.41107.04358.012.08349.01074.15521.45374.04938-.1576.09692-.99115.19769-.61872a1.37808,1.37808,0,0,1-.06439.772c.09027-.19245.16272.35858.27368.55224.01294.325.02625.655.03973.98682l-.08673.08038.09613.15039q.048,1.17783.1001,2.41077c-.01324-.012-.02624-.004-.03882.03522l.02869.33093c-.09918.30963-.1684-.61816-.20636-.196a5.41834,5.41834,0,0,1-.18152-1.56579l.14972-.12372a1.09144,1.09144,0,0,0-.0271.58759c-.07568-.25873.17859-.969-.03046-1.24768l-.093.44348a5.94957,5.94957,0,0,1-.23767-1.54865c-.14374.2583.02111.12744-.14411.52887.21-.35046.03314,1.42243.24817.86365-.19336.41308-.06622.70465-.22552,1.24158.05-.01844.091-.19159.08.27612a.53277.53277,0,0,1,.04761.10058l-.00287.03162.00525-.02594c.00818.0199.00977.02161.00177-.0097a.7042.7042,0,0,1,.06976-.24085,8.746,8.746,0,0,1,.20881,1.2168c-.01569.2774-.06134-.11316-.11072.04l.10095.37036c-.11114.04181-.16443.74164-.24963.09363l.01251.58587a3.83068,3.83068,0,0,0-.00751,1.11322c-.016.277.145.69306.05.45569l.097.91608-.02777.00952a14.98462,14.98462,0,0,1,.07,2.90247,6.37872,6.37872,0,0,1,.06494,1.13006l-.09411.10217a8.75694,8.75694,0,0,0,.04425,1.34455c-.24866.42889-.00019,1.9021-.02594,2.592l.12762.02356a14.78579,14.78579,0,0,0,.12512,1.51617l.1109-.03808a20.64978,20.64978,0,0,1-.00512,2.10919.76519.76519,0,0,1-.01776-.40229c-.22449.96216.24475,2.02186.0863,2.89386a1.33426,1.33426,0,0,1,.0144.52582.2587.2587,0,0,0-.00744-.05377l.00128.08905-.05066.30151a1.72022,1.72022,0,0,0,.05249-.25372c.00732.16718.02887.42066.06433.66907l-.11719.10657.00513.05743c-.03711.24408.06287.1958.1496.06519a2.26544,2.26544,0,0,0,.08246.32843c-.18842.199.085.6521-.11426.92321.10614.1673.11346,1.24952.33008,1.382-.02747.00855-.03846.08179-.04419-.05243a2.05688,2.05688,0,0,0,.064.84l-.135.14789a4.28181,4.28181,0,0,0,.3476.59424c.04046.39941.06616.59655-.194.24816a5.16581,5.16581,0,0,0,.51574.73768,1.87385,1.87385,0,0,0,.58979.48938l-.09705.04571c.21973.21979.68719.355.80035.50073a3.7644,3.7644,0,0,0,1.90314.68018,10.60568,10.60568,0,0,0,2.76239.02069c-.38269-.19586.78943-.06873.77551-.33447.114.03241.34656-.02423.116.13592.76843-.39477,1.21155-.46679,1.5987-.99957.12493-.01007-.08875.19818.00836.17389.05121-.05475.18695-.22852.28479-.26361.09784-.03382-.06037.13531-.15692.2511.72265-.64911.54644-.927.43225-1.0727a1.02387,1.02387,0,0,0,.3894-.89959c.10181-.12452.25122-.36646.10547.17694a3.47557,3.47557,0,0,0,.24628-1.051c.01935-.45257.00915-.77752-.06934-.80438a1.23387,1.23387,0,0,0,.00781-.46588c.02906-.62927.04517-.68451.04926-1.30249l-.03143.1712c-.18518-.24487-.027-.514-.03479-1.01233l.01928.01435c.1745-1.1413-.05133-.49378.14234-1.61945l-.12177.06024c-.25464-.10772.183-.99713.10474-1.65216l-.07581.23529c-.07715-.35852.38166-.994.425-1.3518.0249-.07782.03217.124.04541.23327.18115-.93628-.15332-.1239-.16815-.82409.08874-.12769.21026.16961.24066-.30079a11.31461,11.31461,0,0,1-.05023-2.00982c-.0697.1402-.13922.27948-.17822-.04651-.00788-.4989.28857-1.34107.09674-1.79578.01977-.06292.03759-.08642.05389-.08862a9.281,9.281,0,0,0-.15424-1.47223c.42493-.34-.12792-2.374.25361-2.3537l.01586-1.17193.038.03192a2.95467,2.95467,0,0,0-.11823-1.28229c.03132-.17212.063-.04443.08259-.02936a5.46785,5.46785,0,0,0-.06366-2.12536l.12677-.09028a25.349,25.349,0,0,0,.13214-2.65466c.01367.01111.037.03436.05182.12048-.10779-1.21472.43328-2.88293-.004-3.34246l-.08637-.8017c-.0581.894-.15905.11932-.24218.17249.00567-.13837.01171-.28217.01721-.41926.05029-.22375.11761-.33642.12225-.03668l-.025.07727c.22943.1911.1231-1.27966.28235-1.24688.05139-2.03156.243-4.00843.312-5.91181l-.18964.2157.03107-.66345c.048-.1734.15027-.23126.12805.24219a1.2323,1.2323,0,0,0-.10156-.80994c.10284-.926.202.36578.21521.08154l-.00165-.38647-.02411.08673a2.22443,2.22443,0,0,1-.11664-.91229c.04773-.35962.11847-.18311.13-.32477.01294.001.0205-.04682.012-.21741l.0415-.8363-.15472.33264c-.05969-.37152.03192-.78613-.14362-.40228a24.68705,24.68705,0,0,0,.27631-3.46521,7.45969,7.45969,0,0,1-.03906-1.66651c-.03491.15778-.2002.25183-.16339-.29535.33136.2074.19763-.99438.33355-1.51837-.05462.22382-.10583-.19452-.22046-.56872-.11346-.37665-.26989-.6977-.26617-.3498-.13458-.46643.11438-.06866.05133-.44854a6.34427,6.34427,0,0,0-2.74072-2.91993c-.03925.0304.14148.19873-.16028.11792a6.296,6.296,0,0,0-.61487-.499c-.28369-.0722-.322.149-.7818-.12646.063.052.153.13317-.03216.10229a7.51581,7.51581,0,0,0-7.75836,2.41834c.29333-.29358.146-.0644-.00776.198.12091-.15863.09119.059.16321.05548a5.1561,5.1561,0,0,0-.63348,1.04236C46.81482,10.75022,46.49444,11.76982,46.66644,11.91Zm.42023,24.47467L47.093,36.4C47.05572,36.72587,47.0708,36.61021,47.08667,36.38468ZM59.548,19.471l-.03564.1308C59.48687,19.305,59.51568,19.38835,59.548,19.471ZM47.91736,42.12138c.02758.74334.05328,1.46173.07769,2.163a2.62765,2.62765,0,0,1-.21978-.71814c.04412.02582.09741-.07812.1217-.12842C47.88989,42.9102,47.90582,42.518,47.91736,42.12138Zm-.47815-2.99274c-.074-.72125.12689-.31818.09314-.44269-.00379-1.36-.40278-1.14361-.28437-2.27685.121-.45276.26667-.03076.36054-.13379a9.89556,9.89556,0,0,1-.0409,1.30713l.04889-.49408a2.50415,2.50415,0,0,1,.06336.79376,4.08734,4.08734,0,0,0,.03863-.82959q.07534,1.83114.14051,3.527A3.73393,3.73393,0,0,1,47.43921,39.12864Zm.22662,8.35626a12.60751,12.60751,0,0,1,.239-1.30975c.04389-.10608.09711-.09192.15284-.03839q.02435.7477.04614,1.46008A.44992.44992,0,0,1,47.66583,47.4849Zm.08807,3.57337.07746-.16187-.113-.64245c.11786.205.30481.60235.48535,1.02307q.01191.51076.022.99682A3.63206,3.63206,0,0,1,47.7539,51.05827Zm.471,2.01281a.1959.1959,0,0,0,.01709.02253c.00171.09228.003.17975.00458.27057A2.43273,2.43273,0,0,1,48.22485,53.07108Zm.06415,5.261c.06964.0166.14306-.032.22076-.08581a3.26476,3.26476,0,0,0,.20166.47522A3.00165,3.00165,0,0,1,48.289,58.33213Zm9.31488.35053c-.07623.07409-.07483-.03015-.067-.17859l-.04291.149c-.10845.10572-.15716.11146-.1759.06476a3.0415,3.0415,0,0,0,.2207-.32c-.00036.03558.00092.07421-.00189.10626.02472-.08167.04553-.17694.06513-.27368.00488-.01087.00793-.02271.01269-.0337a2.05526,2.05526,0,0,0,.25281-.31414A3.15688,3.15688,0,0,1,57.60388,58.68266Z"/><path class="cls-2" d="M46.80743,32.14536l.04425.431a1.39724,1.39724,0,0,1,.02789-.39068C46.85168,32.19633,46.81341,32.28037,46.80743,32.14536Z"/><path class="cls-2" d="M47.196,31.73039c.10034-.038.05786-.30756.03009-.60932l.00159.05347C47.08313,31.09043,47.13971,31.41123,47.196,31.73039Z"/><path class="cls-2" d="M47.22052,31.05107a2.72887,2.72887,0,0,1-.01087-.27955C47.15173,30.73808,47.20117,30.88529,47.22052,31.05107Z"/><path class="cls-2" d="M47.02618,34.85862c.02179-.14422-.13226-.08435-.09344-.16711C46.799,34.53709,47.11743,35.63963,47.02618,34.85862Z"/><path class="cls-2" d="M47.52227,33.37962c-.02075.00812-.03491-.05274-.04656-.12775a2.376,2.376,0,0,0,.02636.61231Z"/><path class="cls-2" d="M47.47571,33.25187a1.87455,1.87455,0,0,0-.03229-.38806C47.4472,32.94761,47.45678,33.128,47.47571,33.25187Z"/><path class="cls-2" d="M47.72827,39.29508c-.03369-.12518-.05615-.32019-.09516-.23791l.05164.52588C47.72925,39.63535,47.75122,39.49082,47.72827,39.29508Z"/><polygon class="cls-2" points="48.046 46.805 47.792 46.829 48.052 46.939 48.046 46.805"/><path class="cls-2" d="M46.43951,11.27073c-.04358.14288-.077.28687-.11035.432l.11768-.27252Z"/><path class="cls-2" d="M46.51776,12.47251a.92283.92283,0,0,1,.0235-.35486l-.165.09479Z"/></g></g></svg>