<svg xmlns="http://www.w3.org/2000/svg" viewBox="0 0 104.16943 117.48161"><defs><style>.cls-1{fill:#1d1d1b;}.cls-2{fill:#c3c66e;}</style></defs><title>Exclamation_03</title><g id="Layer_2" data-name="Layer 2"><g id="Layer_1-2" data-name="Layer 1"><path class="cls-1" d="M103.12093,52.5457a50,50,0,1,0-60.06739,48.98584l4.3429,6.32794,5.72449,8.34107,5.72442-8.34107,4.3429-6.32788A50.01724,50.01724,0,0,0,103.12093,52.5457Z"/><path class="cls-2" d="M100.66937,52.91178c.05811-.46267-.36853-.29678-.44055-.36609C100.28589,53.31294,100.77923,52.89457,100.66937,52.91178Z"/><path class="cls-2" d="M100.94073,60.67326l-.15045-.16464a9.143,9.143,0,0,1,.21356,1.2041A7.5387,7.5387,0,0,0,100.94073,60.67326Z"/><path class="cls-2" d="M99.1615,67.72553c.86956-.44937.75451-2.53656,1.21429-3.749l.205-.17184-.4317-.7c-.14264.77018-.17414,1.69324-.34949,2.52405A9.00462,9.00462,0,0,1,99.1615,67.72553Z"/><path class="cls-2" d="M96.37591,70.75758c.34534-.10626-.09228.84479.41742-.77683a1.38345,1.38345,0,0,1-.1264.12046C96.61255,70.2432,96.53113,70.43638,96.37591,70.75758Z"/><path class="cls-2" d="M96.66693,70.10121c.26672-.69217-.40308.3605,0,0Z"/><path class="cls-2" d="M95.42108,73.3043l.22674-.97626c-.23767.11469-.67578.86252-.63275.52637C94.67682,73.79572,94.91467,73.69309,95.42108,73.3043Z"/><path class="cls-2" d="M95.454,74.36888l.14361-.50345C95.4945,73.91456,95.41113,74.02284,95.454,74.36888Z"/><path class="cls-2" d="M95.90069,72.80543l-.303,1.06c.169-.07486.38422.01257.15906-.47827C95.90527,73.55946,95.823,73.27775,95.90069,72.80543Z"/><path class="cls-2" d="M96.25732,72.29493c.35236-.44617.71979-1.07672.56214-.0516C97.46209,70.43873,96.88672,70.51374,96.25732,72.29493Z"/><path class="cls-2" d="M99.74847,68.31638l.43182-.66918-.02642-.70676C100.166,67.29386,99.52173,68.29133,99.74847,68.31638Z"/><path class="cls-2" d="M92.06732,78.39659c.09357.13616.51269-.0543.71521-.011l.242-.709C92.73675,77.93665,92.28039,78.48039,92.06732,78.39659Z"/><path class="cls-2" d="M92.78253,78.3856l-.3667,1.06988C92.96393,78.64356,92.956,78.42475,92.78253,78.3856Z"/><polygon class="cls-2" points="96.075 74.892 96.426 73.033 95.919 75.209 96.075 74.892"/><polygon class="cls-2" points="89.632 81.707 89.723 81.004 89.484 82.201 89.632 81.707"/><path class="cls-2" d="M87.90155,83.81455c.08343-.52844-.77686.12775-.593-.3453a7.25987,7.25987,0,0,0-.91309,1.789A4.4781,4.4781,0,0,1,87.90155,83.81455Z"/><path class="cls-2" d="M85.928,86.14588a6.93867,6.93867,0,0,0,.46746-.88766A3.66318,3.66318,0,0,0,85.928,86.14588Z"/><path class="cls-2" d="M91.24255,80.90977a1.22787,1.22787,0,0,0-.8631.4216l.59766-.08182Z"/><path class="cls-2" d="M90.99719,81.24577l-.02008.00378c-.29126.36517-.49329.6185-.5799.72705Z"/><path class="cls-2" d="M91.30969,80.82441l-.06714.08536C91.30127,80.90183,91.32776,80.89021,91.30969,80.82441Z"/><path class="cls-2" d="M94.32757,77.24821c-.141.66815-.66137,1.97046.35883,1.03931C94.68976,77.7356,94.10962,78.26356,94.32757,77.24821Z"/><path class="cls-2" d="M92.06543,80.71177c.25775-.29706.53973-.57831.77923-.88986-.10553-.044-.35327.04065-.28015-.29755C92.43066,79.93946,92.231,80.31227,92.06543,80.71177Z"/><polygon class="cls-2" points="91.826 81.251 92.065 80.712 91.773 81.038 91.826 81.251"/><path class="cls-2" d="M87.602,85.02088a3.85955,3.85955,0,0,1-.9997,1.35749,8.02458,8.02458,0,0,0,1.48535-1.36023C88.05145,84.85746,88.06494,84.48167,87.602,85.02088Z"/><path class="cls-2" d="M89.33923,83.26472l-.05609.09872C89.35656,83.33586,89.40234,83.30247,89.33923,83.26472Z"/><polygon class="cls-2" points="81.984 90.387 82.109 90.387 82.082 90.314 81.984 90.387"/><path class="cls-2" d="M88.22094,84.98869a1.68281,1.68281,0,0,0,.613-.913,11.41706,11.41706,0,0,1-.74634.94248C88.10418,85.09031,88.12823,85.12336,88.22094,84.98869Z"/><path class="cls-2" d="M84.83575,87.44889a8.16879,8.16879,0,0,0,.78656-.41873C85.344,87.10633,84.82708,87.304,84.83575,87.44889Z"/><path class="cls-2" d="M89.08069,83.41166l.03552-.06784C88.93725,83.4054,88.985,83.41953,89.08069,83.41166Z"/><path class="cls-2" d="M89.08069,83.41166a3.39778,3.39778,0,0,0-.24671.664,6.02537,6.02537,0,0,0,.44916-.71222A.74454.74454,0,0,1,89.08069,83.41166Z"/><path class="cls-2" d="M82.07434,93.73069c-.077-.19092.12732-.54193.48572-.906a3.52716,3.52716,0,0,1,1.44982-.97547c.73591-.96441-.69909-1.48822-1.90136-1.462.07666.159.179.28418-.59589,1.19708.44318-.07373,2.34393-1.21906,1.78717-.31708-1.11633,1.13031-1.074.71948-1.83172.96424.83282.0379-1.25312,1.6975-.57013,2.11456l1.02545-.99048C82.01111,93.43253,81.689,93.86393,82.07434,93.73069Z"/><path class="cls-2" d="M83.85406,89.05143l.34015-.332a5.60586,5.60586,0,0,1-1.62109.6004c-.49024.63678-.52985.85669-.49158.99463l1.86151-1.409Z"/><path class="cls-2" d="M85.7514,87.2674c.02789.56583-.6933,1.4979.136,1.3566,1.01556-.99795.47949-.94635.96216-1.65735-1.57776,1.63178.30523-.61685-1.05182.32477a10.06169,10.06169,0,0,1,.8045-.913c-.33117.23953-.65948.45926-.98.65179l.05567-.01565.00671-.00821.00311.00644c.107-.027.15277-.02521.05207.02676a.16439.16439,0,0,1-.028.03839.40865.40865,0,0,1,.03784.18777c-.53387.38086-.15063-.0119-.03784-.18777a.286.286,0,0,0-.02411-.06515l-.00982.00177c-.49353.56384-.97065,1.15228-1.48377,1.70489A10.81434,10.81434,0,0,0,85.7514,87.2674Z"/><path class="cls-2" d="M94.80322,79.8361a.10532.10532,0,0,1-.12384.00851C94.64239,80.00187,94.64148,80.07078,94.80322,79.8361Z"/><path class="cls-2" d="M94.07135,80.50666a1.36258,1.36258,0,0,1,.30505-.83413c.36383-.33323.17163.115.303.17208.08441-.347.36218-1.15075-.36877-.38681l-.03882.17108c-.597.73423-1.76538,1.36265-1.718,1.195A2.93176,2.93176,0,0,0,94.07135,80.50666Z"/><path class="cls-2" d="M90.09851,84.27064l-1.12482,1.56854.93268-.48038-.2005-.11215C90.50555,84.48805,90.13867,84.48383,90.09851,84.27064Z"/><polygon class="cls-2" points="81.688 90.349 81.604 89.834 81.15 91.018 81.688 90.349"/><polygon class="cls-2" points="79.747 91.794 79.598 91.417 79.202 91.968 79.747 91.794"/><path class="cls-2" d="M5.03576,31.79731l.15894-.59085A3.62739,3.62739,0,0,0,5.03576,31.79731Z"/><path class="cls-2" d="M3.46844,35.88383l.14813.16247C3.5838,35.82246,3.53753,35.71858,3.46844,35.88383Z"/><path class="cls-2" d="M36.78589,97.13291c-.31421-.30346-.62665-.6596-.86786-.88336-.23145-.24878-.39722-.35895-.43787-.13306l.06073.50177A3.91441,3.91441,0,0,1,36.78589,97.13291Z"/><path class="cls-2" d="M6.25561,70.23921l-.0285.27459c.217.13413.42029.25971.60461.37366Z"/><path class="cls-2" d="M4.34784,70.30213l-.0846-1.18573A6.40711,6.40711,0,0,0,4.34784,70.30213Z"/><path class="cls-2" d="M18.82263,12.40046l.24457-.817C18.23663,12.33817,18.748,12.17585,18.82263,12.40046Z"/><path class="cls-2" d="M57.56988,105.51994a9.56287,9.56287,0,0,0-1.23974,1.34393C57.0299,106.28422,57.73718,105.91471,57.56988,105.51994Z"/><path class="cls-2" d="M8.69079,35.08418c.04242-.34555.01007-.51493-.083-.54181C8.557,34.89826,8.56707,35.113,8.69079,35.08418Z"/><path class="cls-2" d="M55.146,108.5919c.1081-.08081.19727-.17182.301-.25836a9.12149,9.12149,0,0,1,.88312-1.46967A3.09421,3.09421,0,0,0,55.146,108.5919Z"/><path class="cls-2" d="M95.71747,21.976c.02191.06195.05987.1283.07537.18756C95.852,22.14485,95.80249,22.07285,95.71747,21.976Z"/><path class="cls-2" d="M100.69366,45.82856c-.06122-.22189-.11792-.58969-.17651-.93576A3.59972,3.59972,0,0,0,100.69366,45.82856Z"/><path class="cls-2" d="M71.11969,96.24528c.4563-.23456.05572-.07727,0,0Z"/><path class="cls-2" d="M74.13019,96.7841a.28956.28956,0,0,0-.10376.27685A.37035.37035,0,0,1,74.13019,96.7841Z"/><path class="cls-2" d="M54.28772,114.61442l-.02741.03723C54.37872,114.62931,54.35821,114.63065,54.28772,114.61442Z"/><path class="cls-2" d="M71.90094,96.113a4.73031,4.73031,0,0,0-.64954.14837A4.88675,4.88675,0,0,0,71.90094,96.113Z"/><path class="cls-2" d="M71.72509,95.96684l.42536-.14337C72.18011,95.73118,72.11,95.71256,71.72509,95.96684Z"/><path class="cls-2" d="M70.4776,96.55784a5.73132,5.73132,0,0,1,.7738-.29645c-.10309.01392-.15082.00843-.13171-.01611C70.98449,96.31114,70.7937,96.404,70.4776,96.55784Z"/><path class="cls-2" d="M56.26526,1.38838c.03582.01553.07757.02645.11639.04705C56.95306,1.2841,56.70538,1.3003,56.26526,1.38838Z"/><path class="cls-2" d="M22.35486,94.48057c.02331.01282.04083.01233.0628.023l-.05615-.0639Z"/><path class="cls-2" d="M20.57019,93.476a2.35959,2.35959,0,0,1,1.79132.96369l.23035-1.4137Q21.59723,93.26366,20.57019,93.476Z"/><path class="cls-2" d="M10.03363,22.59315a10.36759,10.36759,0,0,0-1.12927.97107,7.97031,7.97031,0,0,1,.7102-1.92945c.14307-.348.06445-.37976-.57153.01526.247.23749.16491.64383-.0755,1.1348a14.28229,14.28229,0,0,1-.90546,1.73892C7.359,25.7454,6.66,26.96958,7.20465,27.3787a9.41162,9.41162,0,0,0-.68323.70468c.12994-.23816.07831-.31494.20746-.55038-1.3833,1.36572.27515,1.68371-.90973,3.70026-.44781.69171-.87775,1.13336-.78339.564-.17779.58893-.23492,1.22479-.35534,1.82953-.20716.48831-.38318.28317-.176-.206l-.85693,2.65756-.03089-.03208c.05732.44043.07,1.38157.12323,1.84906-.36212.62336-.05029-.38119-.25732-.2565l-.06531,1.57019c-.496.5152-.50885-.80618-.19208-1.82788-1.66564,1.02979.008,1.324-1.53369,4.15808l.19654-1.46444a3.12622,3.12622,0,0,0-.98175,1.4429c-.2331.58652-.35382,1.28714-.73121,2.083.15436-.17911.58161-.96408.9773-1.47.4093-.50522.80688-.73044.79718.12121a3.78342,3.78342,0,0,0-.18317,1.99469c-.4779-.06927-.49554.82858-.63391,1.92768l-.62365-.15284c-.005,1.22052.33654,1.15821.59161,1.88794A2.036,2.036,0,0,1,.0271,49.77781c-.20978,2.15372.86755-1.44284.86108,1.09845-.39044,1.76736.00879,3.03445.46863,5.1145-.16394,1.2504-.40009-.1893-.56268.26663.19067.35578.36309.70951.56842,1.057.02288.26675-.14447.196-.229.15952.31787.89691.64624.01693,1.00812,1.42114.76105.26666-.69336,3.10379.56848,4.69943-.08093.46927-.4295-.12405-.64209.05939a12.45513,12.45513,0,0,0,2.07868,3.71005l.11651,1.75253c.09381-1.35281,1.06275.02341,1.99237,1.12281.03876-.47745.12268-.89679.14215-1.164a21.6348,21.6348,0,0,0,1.10236,1.87836c.00189.278-.28375.16333-.6684-.0661.10572.117.208.22672.2945.309.07788.80268-.41449.58029-.9632.19126.014-.29474.03766-.589.06409-.874-.5802-.35415-1.15772-.69235-1.46527-.45984a3.66989,3.66989,0,0,1,.42785.62168c-.15374-.09567-.27752-.14823-.3117-.06391-.034.09382.18841.261.48022.53864l-.4671.734.31043.00915c.246.95822.4638,1.93921.74505,2.89972a46.25407,46.25407,0,0,1,5.34485,5.24411c-.86865-.395-.8092.31818-1.34979.62238a2.43656,2.43656,0,0,0-.882-1.62473c-.2525-.28283-.55231-.56958-.80438-.90259a5.84969,5.84969,0,0,1-.64124-1.10382c.35675.83417.00812.80362-.18988.647A29.6314,29.6314,0,0,0,9.52478,80.0312c-.46582.21164.03009.75854.29144,1.56152.26184-.54394.67792-.12732,1.2171.47455a22.24664,22.24664,0,0,0,1.66693,1.8269c-.21808.269-.67187.23957-1.53479-1.03549.44324,1.80268,2.21436,1.04944,2.77094,2.69629-.254-.27148-.35108-.44971-.56665-.46274.786.473,2.03583,2.18759,1.48273,2.01984l-.25428-.27277c.39221.4812.9046,1.07407,1.46558,1.6865.59186.58209,1.2644,1.15234,1.892,1.66858a12.15073,12.15073,0,0,0,1.73571,1.23327c.52375.25354.92884.36322,1.13532.25586a3.89644,3.89644,0,0,1-1.13666.62494q1.332.147,2.61768.25446a23.54813,23.54813,0,0,0,2.56079.12506c-.74494.37475-.50592,2.64471-2.45093,1.81561a5.80888,5.80888,0,0,0,2.16211,1.41736c-.28424-.31439-.24365-1.43176.24622-1.18549a10.27123,10.27123,0,0,0,1.83563,2.52265c-.45-.42749.7287-1.08405,1.52435-.60413-.2138.07782-.48724,1.02258-.85364.9566l2.60913.15332c-.605-.1018-.5332.79438-.20294,1.338-.14587-.26563,1.87647.87774,2.50537,1.04059l-.818-.64911c2.40411,1.2525,3.01092-.33423,5.43414.53589a.872.872,0,0,0,.02039,1.66906c.389-.185,1.23913-.57824,2.27331-1.00067a11.73608,11.73608,0,0,1,1.64869-.56543,4.64954,4.64954,0,0,1,1.94934-.13769c.15448.15191.29046.29876.418.44372l.60151.054c.13153.123.25708.26044.389.39453l.80964.84833c-.387-.181-.89039-.42585-1.3927-.62067-.06366-.02331-.124-.05066-.19025-.06848l-.2702.05322-.52613.11536c-.34253.08069-.66546.16919-.95294.26562a21.99512,21.99512,0,0,1-3.51294.79431c.89832.52643.16168.44989,1.64478.799.44677.43029-.93012.24932-1.3758.15509l1.712.5332.85583.26532.136.08276c.1059-.29065.451-.4989.67633-.34387.13324.05768.25116.09918.413.17706.2077.1446.37768.20649.47479.10059-.10278-.09851-.23938-.24615-.31445-.30426l-.20191-.14032q-.196-.13166-.36859-.22913a4.59227,4.59227,0,0,0-.46912.05976l-.18457.045a.50051.50051,0,0,1-.18066,0l-.24438-.01617c.00164-.17243.16656-.34058.44628-.4856a2.01453,2.01453,0,0,1,.8014-.43085c.0924-.02557.19122-.04791.29577-.06683l.16107-.02564a.41078.41078,0,0,1,.118.05317,2.92,2.92,0,0,1,.48266.34637,5.812,5.812,0,0,1,1.03992,1.27643c.12537.65527-1.2453.30023-1.40186.46838a5.57511,5.57511,0,0,1,1.64447,1.905l-.8731-.637c.54834,1.24591,1.96991,1.29553,2.35046,2.98394.27844.48163.22357,1.85566.606,1.70954.12048-1.18006,1.977-2.66876,2.79327-2.49744a24.34081,24.34081,0,0,1,1.0824,3.54279c.01312.5506-.42792.54138-.962.37768-.49042-.09985-.98163-.21978-.97455.247a.60088.60088,0,0,1,.4076.09369,3.30518,3.30518,0,0,1,.48114.34772c.329.75653-.6272.09149.46435,1.53528.58045-.35889,1.97425,2.97839.79651.14227.98755,1.09479.90283,1.56317,2.0191,3.13721-.16149-.67438.25312-.85651.64405-.95069a20.55682,20.55682,0,0,1,.84674-2.33728.39482.39482,0,0,0,.32007.42078c1.45379-2.00964,2.57623-3.09814,3.89172-5.00458.25952-.08648,1.0705-.91516,1.03723-.34814a3.32719,3.32719,0,0,1,.47919-1.34894c1.28552-.83148-.84546,1.39416.3479.90674-.27448-.29993.618-1.86609,1.0022-2.86347-.68543-.08246-1.45618,1.91468-1.84174,2.91309-.69849-.47345-.40124-2.4682.67706-4.729.94-1.73981.93207-.39423,1.02625-.74366a9.71774,9.71774,0,0,0,.66363-1.00189c.17054-.2998.36713-.67261.49732-.96985.13946-.31073.25226-.60388.35449-.889a2.68918,2.68918,0,0,1,.574-.4295,7.28766,7.28766,0,0,1,.64044-.38165c.11871-.0622.24444-.12323.37976-.18274l.34546-.15027a4.74587,4.74587,0,0,1,1.659-.31073c1.29261.23144.34369,1.0163.70221,1.32629a5.77281,5.77281,0,0,1-1.9198.38605,8.335,8.335,0,0,0-1.76995.20837l1.5426-.12445c-.4671.37183-1.5813.48169-1.86023,1.096a1.9378,1.9378,0,0,0,.42181-.361l.0622-.06549.10321-.01319.21643-.03161.47015-.08234c.64258-.12127,1.4682-.31714,2.33905-.52563a26.77045,26.77045,0,0,0,2.65332-.7569,22.59564,22.59564,0,0,1,2.42682-.6214c.41443-.34466,1.132-.894.67438-.91907-.26587.14026-.52448.3-.79742.42475-.47266-.077-.11438-.324.18292-.6026.303-.26715.57727-.49.02734-.35578a10.69556,10.69556,0,0,1,3.56818-2.21533l.55316.395c-.11-.12988-1.119.198-1.47821.53149.52984-.46618,2.65533-.45855,2.95141-1.51617l-1.224.18939a14.6691,14.6691,0,0,1,3.12268-2.719c-.86975-.14972-.24182.25067-1.46326.20361,1.22675.32947-3.22656,1.7312-1.5332,1.85706a2.74331,2.74331,0,0,0-1.55628.208,4.15206,4.15206,0,0,1-1.75189.275c.12238.16693.60168.15576-.53485.5517a1.21774,1.21774,0,0,1-.16931.27038l-.0802.01917.07013-.00507c-.03565.049-.03736.0567.02588-.00244a1.44378,1.44378,0,0,1,.68615.03155c-.36163.661-2.132,1.47791-2.69348,1.86231-.72113.1466.20679-.31641-.243-.38977l-.80688.65808c-.24646-.3905-2.03949-.08453-.53266-.88385l-1.4331.475a7.12389,7.12389,0,0,0-2.80964.56458,4.89227,4.89227,0,0,0-.86218.24957c-.341.124-.63623.25373-.85534.35614-.43738.20471-.60193.30841-.1651.018-.7793.03546-1.00269.84637-1.38062,1.41015l-.5249.88776-.30017.56043-.10565-.04456c-1.44214,2.00128-2.25965,4.60669-4.52338,6.47266-.18823.37439-.37512.758-.62634,1.18225-.12561.21209-.26734.43432-.43329.67059a1.5346,1.5346,0,0,1-.26221.29321,2.77943,2.77943,0,0,1-.3114-.233c-.04212.18122-.23224.2865-.35266.34973-.12628.07172-.20056.12714-.21466.50531a4.84961,4.84961,0,0,0-.12555-.48925c-.08039-.4889-.1344-.514-.26819-.5965a1.244,1.244,0,0,1-.21112-.14075.50446.50446,0,0,1-.089-.09906c-.11523-.16931-.24493-.37317-.33551-.53937l-.45837.22864a27.4631,27.4631,0,0,0-2.5998-3.22455l-.31378.33484c-1.08514-.93036-1.74634-3.10791-3.02032-4.883.2254.02551.50189.50769.63842.88958a5.7707,5.7707,0,0,0-1.10919-2.18817l-.49139-.67486-.2511-.327c-.09277-.09522-.26776-.07129-.3974-.11139l-1.67676-.26941L42.137,98.9528l-.24207-.01837-.48138-.04035c-.31915-.02972-.63415-.06659-.94006-.12a3.47264,3.47264,0,0,1-1.66327-.65369,2.29074,2.29074,0,0,1-1.28986-.45148.44748.44748,0,0,0,.13971.02332c-.05279-.02393-.13348-.05273-.2168-.08051-.20971-.15387-.421-.32165-.65734-.47882a3.19071,3.19071,0,0,0,.53949.43976,12.54067,12.54067,0,0,0-1.70881-.40008l-.07568-.55433-.14056-.04779c-.50635-.42065-.55158.00342-.37806.47724a4.17623,4.17623,0,0,0-.89929-.0827c-.15918-.9217-1.67779-.4596-1.968-1.49408-.58161.19555-2.99353-1.28913-3.741-.71619.03619-.10651-.10724-.24548.20819-.0799a6.12963,6.12963,0,0,0-1.83527-1.07855l.07459-.68622-1.79236-.2052c-.60278-.84954-.79718-1.238.27161-1.09332-2.29078-.78339-1.63459-.92181-3.65473-1.58435l.3302-.2431c-.58368-.39771-1.7475-.80493-1.84332-1.34-.32019-.82721-1.76727-2.1311-3.21277-3.87482-.37244-.42434-.75763-.86316-1.14673-1.30648-.34289-.48017-.68927-.96521-1.03161-1.44458a13.95093,13.95093,0,0,1-1.6753-2.88129c-.55865,1.29684-.55822-1.86093-1.4093-1.515.10907-.34228-.05432-.89019.4986-.46612a7.25682,7.25682,0,0,1-1.17816-2.16733,3.383,3.383,0,0,0-1.23432-1.6207c.14215-.32568.56653.21225.6178-.0429-.12494-.11908-.52649-.46415-.4436-.73539.07208-.25988.313.18235.58337.40628C9.657,70.948,8.83227,71.05955,8.02319,71.22727a2.39039,2.39039,0,0,0-1.07965-2.15854c.13074-.44931.20251-1.12753.68671.092C7.46,68.42887,6.59558,64.77723,6.032,64.84425a2.1826,2.1826,0,0,0-.29474-1.19751c-.15674-.818-.24206-1.26328-.32666-1.70456-.09405-.43918-.19531-.87235-.31482-1.68146l-.04339.467c-.84632-.51913-.35029-1.3324-.6175-2.631l.08362.02866a8.04441,8.04441,0,0,0-.04761-2.1717,5.00644,5.00644,0,0,1,.11939-2.13907l-.47205.17591c-.51288-.12406-.41986-.80539-.18591-1.655a6.12023,6.12023,0,0,0,.48541-2.73831l-.30517.61386c-.15229-.48587.23187-1.13754.674-1.761.2243-.3078.45294-.62158.65753-.9024a2.57,2.57,0,0,0,.46545-.7659c.12-.18891.0943.33291.11719.61779.97284-2.31665-.57593-.38195-.44348-2.21011.38519-.27887.78766.55335,1.03174-.63354a1.6446,1.6446,0,0,0,.07855-.82779A9.65635,9.65635,0,0,1,6.64856,42.328a5.59614,5.59614,0,0,1,.66565-2.92438c-.3418.28278-.686.57557-.66248-.30685a3.73579,3.73579,0,0,1,.39093-1.0556c.2182-.35892.45245-.74427.68268-1.12287a3.12706,3.12706,0,0,0,.612-2.2312c.12317-.12967.208-.16263.27045-.14474A11.508,11.508,0,0,1,9.154,32.525a5.06632,5.06632,0,0,0,.33679-1.82156c.4718-.02533.8291-.4068,1.12232-.958a15.76585,15.76585,0,0,0,.90722-1.8909c.56055-1.341,1.06073-2.61722,1.68628-2.17728l1.77008-2.50646.07587.15945a6.88062,6.88062,0,0,0,1.64789-2.98972c.38586-.26977.267.07273.30194.15342a15.7054,15.7054,0,0,0,2.09729-2.08738A13.18013,13.18013,0,0,0,20.5896,16.1631l.51611.20043a2.40882,2.40882,0,0,1,.71179-.66024c.19-.13535.40119-.29285.645-.44718l.81519-.45892a20.69547,20.69547,0,0,0,1.78283-1.129c.60108-.41467,1.13935-.939,1.68018-1.39569a.41972.41972,0,0,1-.1413.34509,9.74687,9.74687,0,0,1,2.12818-1.35971,16.01273,16.01273,0,0,1,2.37536-1.00018c1.55585-.53467,2.78845-1.08972,2.95789-2.17337.57788-.42313,1.19629-.76666,1.80151-1.1582-2.631.81231.102-.871-1.07294-.76062,1.00391-.48008,2.8451-.46161,1.618.08633l-.22712-.013c-.13781,1.04279,3.31379-.86859,3.45813-.13065,5.1211-1.63211,10.43421-1.51944,15.33674-1.33252l-.55005-.76046,1.74762.13061c.44879.193.57183.60172-.65821.50955.62018.44669,2.09259-.24337,2.15143-.39962,1.20221.24731.93079.48462.47516.57492-.46149.13226-1.12451.26077-.75708.28216a6.62545,6.62545,0,0,1,1.00037.03449l-.21393-.11954a3.992,3.992,0,0,1,2.42309-.214c.91144.287.405.51795.76581.60141-.01086.05072.10749.09342.55524.10532a14.35767,14.35767,0,0,1,2.10821.5177l-.7193-.78214c1.004-.03424,2.00031.547,1.16285-.34411a4.74676,4.74676,0,0,0,1.75482.954c.40228.14782.84546.28881,1.30743.42523.44757.18259.91388.36062,1.37787.53171l2.58154.9237a4.63423,4.63423,0,0,1,1.42255.73627,8.7445,8.7445,0,0,1,2.02826.5798,10.47071,10.47071,0,0,1,2.05463,1.06757c-.29627-.321-.20227-1.02292,1.01568-.18964-.56506.44031-.07.91181.62171,1.44687.68683.5426,1.60937,1.11337,1.771,1.8888-.4649-1.14466,3.34937,2.30917,2.59961.61483.90308.80976-.24829.44062.28369,1.23081A15.38131,15.38131,0,0,1,86.78,18.16551c1.09106,1.24572,2.0708,2.68429,3.33068,3.90457.16767-.06482-.00115-.69574.678-.27133l.41974,2.03186c.47876.49569,1.20117-.08826,1.46649,1.28338.01441-.22735.03467-.57229.36249-.22842a11.05548,11.05548,0,0,1,.61566,1.15628l.60627,1.16385c.41687.76849.85809,1.52383,1.31573,2.2738q.58979,1.17805,1.183,2.36289c.37934.7966.86451,1.55185,1.16529,2.3872a22.72463,22.72463,0,0,1,2.15081,10.32581c.19507-.98743.32154-.37589.443.3374.0097-.47784.43048-.05936.65185-.18823l-.21765,2.99554c.684.47519.2005,3.13367.84851,3.41666l-.16119-.93225c.80987,1.235,1.56793-1.85306,2.53076-1.76758a2.09222,2.09222,0,0,1-.25946-1.24072,14.29279,14.29279,0,0,1,.10742-1.54947,4.82154,4.82154,0,0,0-.64709-3.44272c.07361-.56039.39447.38425.54846.062a3.93414,3.93414,0,0,1-.97022-2.58694l.13721.12549c-.2652-.93094-.46588-1.73468-.63135-2.48645-.21618-.73594-.42559-1.411-.61193-2.11216a30.25342,30.25342,0,0,0-1.57459-4.92007l-.28815.49325a5.36712,5.36712,0,0,1-.3869-1.5643c-1.10858-.64663,1.10761,2.39191-.03424,1.84675.1485-.74427-.49481-2.2782-1.27435-3.67212-.81171-1.37876-1.5838-2.71781-1.347-3.38086-.759-1.23957-.22149.65262-.99975-.56269l.01532-.475-.5315-.07413c-.51178-.79095-.501-1.39517-.32178-1.57468a5.70226,5.70226,0,0,0,.618.67386c-.47687-1.19555-2.16541-2.757-2.38855-3.11615a12.32317,12.32317,0,0,1,.72888,1.21152c-.61713-.77841-1.38275-1.49963-2.10248-2.29224-.73981-.77377-1.43951-1.62213-2.22907-2.37478-.811-.731-1.62725-1.451-2.44122-2.11856-.41113-.32871-.80389-.66553-1.22674-.94486-.43378-.26614-.86487-.51446-1.29139-.73971l.09314.34912a7.95888,7.95888,0,0,1-2.14557-1.53394,9.15936,9.15936,0,0,0-.7835-.73093,14.162,14.162,0,0,0-1.5387-.92019l.127.01483a6.83563,6.83563,0,0,1-2.16723-.95377c.81775.18949-1.04578-1.228-.00238-.93423-3.01544-1.0528-1.5716-.39719-3.77759-.558l-.27234-.54226a7.00172,7.00172,0,0,1-.9154-.0033,13.54635,13.54635,0,0,1-1.45813-.35486c1.32879.14844-.73621-.87179.7846-.76172A9.13224,9.13224,0,0,0,69.0415,3.28327c-1.00037-.20651-1.80292-.21933-2.387-1.00677-1.74329.6112,2.6347,1.26593,1.74426,1.26733.57672.51462-1.4256.4079-2.38928.06757a4.34339,4.34339,0,0,1-1.40869-1.04587,5.8859,5.8859,0,0,0-1.03534-.719A6.33917,6.33917,0,0,0,61.93329,1.401c.26385.04544.29547-.02832.5592.01669-.95868-.41208-2.00366.05146-3.16962-.555-.75018.48166-1.59289-.21146-1.86078.57266a17.51937,17.51937,0,0,1,2.44562.09519c-1.40741-.06156-2.75885.84134-4.97888.27789a4.525,4.525,0,0,1,1.33643-.42c-.65461-.26691-1.28687.08993-1.96869-.184C54.51721.438,57.27685,1.14408,58.824.69508c-.6925-.44464-2.88464.40451-2.066-.42844A2.242,2.242,0,0,1,54.76745.611,3.76718,3.76718,0,0,0,52.257.8234l.11285-.48046A5.34476,5.34476,0,0,1,50.9588.69987l.94574-.66293c-1.46179.60379-2.90289-.32831-4.32129.062,2.997-.20078.723.52618,2.00494.79989a6.226,6.226,0,0,1-1.91748.19272A2.65949,2.65949,0,0,1,46.63336.81217c-.61859-.27111-1.32019-.5834-3.36188-.15332.54907-.153,2.13477-.0394,1.30255.31034A11.45307,11.45307,0,0,1,42.1936.82929c-2.64789.77765.51276.37235-.55664.94623-1.0304-.33288-1.24579.56211-2.3363,1.03424l-.13715-.46283c-1.54938.23188-1.67261.53833-1.75079.8356-.08326.28913-.12641.55472-1.48206.85117l.88678-1.03577-1.31079.6626.09845-.6203A9.38856,9.38856,0,0,1,32.248,4.48289c.46039.156.16376.8913-1.04919,1.492-.9599.14435.27362-.64114-1.44251.26279a1.45983,1.45983,0,0,1,1.48761-.979c.01184-.18024.26538-.46354.28327-.64429a10.82347,10.82347,0,0,0-2.97968,1.35794,3.08258,3.08258,0,0,1,.74488-.235l-1.11866.91846L27.13189,7.67738c-.46972.07306-.24395-.23413-.01452-.53977-.46564.3433-.69141.7395-1.38611,1.21039-.01984-.44659-.28052-.7626.66095-1.54959L24.29339,8.584a3.71269,3.71269,0,0,0-.78967.11658c-.29083.07459-.52808.11334-.42609-.05255a8.81312,8.81312,0,0,0-1.99981,1.81186,14.78153,14.78153,0,0,1-2.24744,2.05093,1.75174,1.75174,0,0,1-.41083.64923c-.722.59537-1.4732,1.08612-2.20587,1.66782a7.56537,7.56537,0,0,0-1.90924,2.34186l-1.3775.47152c-1.05164,1.39814,1.81109-.6799.07623,1.62922-1.06744,1.74783-.92944.22677-1.52032.67742a14.38125,14.38125,0,0,1-.729,1.97471,7.33168,7.33168,0,0,1-1.591,2.12072A5.96445,5.96445,0,0,1,10.03363,22.59315ZM1.96435,42.21342c-.03265-.42481-.1076-1.29056.23737-1.52219C2.63147,41.27268,2.25964,41.55445,1.96435,42.21342ZM6.56482,73.39765a1.74608,1.74608,0,0,1-.40046-1.22818A3.61839,3.61839,0,0,1,6.56482,73.39765Zm59.363,25.045a.214.214,0,0,0-.03283.03228C65.03082,98.49668,65.33911,98.49619,65.92779,98.44267Zm1.73352-.301c.14594-.1217.11365-.18127.02314-.22125-.0777.15607-.44733.29278-.87964.40668C66.95794,98.40763,67.199,98.41642,67.66131,98.14164ZM61.58288,5.26948l-.31738-.176C62.05694,5.07337,61.8197,5.16419,61.58288,5.26948Z"/><path class="cls-2" d="M4.56842,70.30976a.4519.4519,0,0,1,.19342-.2558C4.637,69.92933,4.54748,69.957,4.56842,70.30976Z"/><path class="cls-2" d="M18.77832,12.55067l.05206-.03989a.20713.20713,0,0,0-.00775-.11032Z"/><path class="cls-2" d="M48.61468,113.11216a1.78437,1.78437,0,0,1-.30652-.88672c-.0545.025-.078.08686-.05041.2041a1.14766,1.14766,0,0,0,.08227.21967C48.40295,112.76835,48.49908,112.92991,48.61468,113.11216Z"/><path class="cls-2" d="M75.777,93.74955l-.9085.64459a2.35151,2.35151,0,0,1,.94867-.34283C75.74109,93.96446,75.47851,93.92289,75.777,93.74955Z"/><path class="cls-2" d="M85.59771,90.60258c.09546-.15192.2837-.22772.3631-.39386l-.18133-.137C85.237,90.55229,84.94159,90.996,85.59771,90.60258Z"/><path class="cls-2" d="M77.47638,94.644c.27234.29114.87048-.12085,1.48224-.65533a1.05227,1.05227,0,0,1-.11811.07879C78.73785,93.45933,78.13983,94.09617,77.47638,94.644Z"/><path class="cls-2" d="M79.10614,93.87364a4.77782,4.77782,0,0,1,.61157-.42029C79.67144,93.21073,79.44275,93.57975,79.10614,93.87364Z"/><path class="cls-2" d="M69.66937,97.16435c.38769-.02277.037-.56079.29248-.474C70.17535,96.07035,67.84808,98.07792,69.66937,97.16435Z"/><polygon class="cls-2" points="78.73 95.48 78.217 95.19 78.02 95.76 78.73 95.48"/><path class="cls-2" d="M72.80243,98.07285l1.2492-.40344c-.0534-.06817.07733-.18017.24689-.29663C73.55749,97.68376,72.71551,97.949,72.80243,98.07285Z"/><path class="cls-2" d="M74.29852,97.37278a2.96541,2.96541,0,0,0,.91663-.50812C75.01947,96.97776,74.577,97.17759,74.29852,97.37278Z"/><polygon class="cls-2" points="77.23 96.477 76.84 96.573 76.01 96.988 77.23 96.477"/><path class="cls-2" d="M60.62719,104.43827l-.69238,1.26264c.059.21759.36658-.04493.61218-.5235C60.64239,104.82688,60.88842,104.35105,60.62719,104.43827Z"/><path class="cls-2" d="M64.10333,102.2349a1.22573,1.22573,0,0,1-.37952-.07757.46528.46528,0,0,0-.28582-.06287l.3753.55072C63.81976,102.40153,63.99157,102.373,64.10333,102.2349Z"/><path class="cls-2" d="M61.96563,105.16917c.06134.21521-.76892,1.99438.22663.47491C62.13354,105.42759,62.82763,104.16337,61.96563,105.16917Z"/><polygon class="cls-2" points="48.665 110.175 48.878 110.471 49.688 109.852 48.665 110.175"/><path class="cls-2" d="M33.70459,101.5493c1.59869.83178.62164-.44349,2.03454.37164.47241-.09131-1.154-.66181-.67834-.71741C33.9577,101.11247,33.50055,100.72569,33.70459,101.5493Z"/><path class="cls-2" d="M35.06079,101.20353a5.55668,5.55668,0,0,0,.56592.03186A2.52411,2.52411,0,0,0,35.06079,101.20353Z"/><polygon class="cls-2" points="100.524 49.686 100.365 50.732 100.673 50.047 100.524 49.686"/><path class="cls-2" d="M101.38134,51.66447l-.6361.25662.6203.6246C101.32428,52.30747,101.2442,51.84806,101.38134,51.66447Z"/><path class="cls-2" d="M.18927,45.16371l.14148.10922c.19439-.1554.24762-.42194.35589-.956Z"/><polygon class="cls-2" points="5.084 30.23 4.955 30.468 5.705 30.263 5.084 30.23"/><path class="cls-2" d="M11.44818,18.60264c-.34711.42075-.62885,1.01407-.97589,1.4361C11.10315,19.01991,12.10418,18.94743,11.44818,18.60264Z"/><path class="cls-2" d="M48.262,83.17509c.09222.06409.13794-.06006.11993-.03949C48.34448,83.08256,48.28259,83.1696,48.262,83.17509Z"/><polygon class="cls-2" points="49.268 83.706 49.453 83.718 49.309 83.684 49.268 83.706"/><path class="cls-2" d="M49.68622,83.92515v-.04962l-.14728.07208c.18725.1084.46911.17285.5733.2879C50.12286,84.03715,49.79321,84.08152,49.68622,83.92515Z"/><path class="cls-2" d="M50.3219,84.775a.73983.73983,0,0,1,.09411.04956c-.00213-.07806.13306-.00268-.10766-.07556Z"/><path class="cls-2" d="M50.3219,84.775c-.1015-.04309.03985.0838,0,0Z"/><path class="cls-2" d="M50.6452,84.94206c.01239.0495.12994.10766.0744.11706.15344.02106.13739-.03.082-.12024Z"/><path class="cls-2" d="M50.97363,84.86125l-.07782.00055C50.90191,84.88218,50.91852,84.89433,50.97363,84.86125Z"/><path class="cls-2" d="M50.82153,84.85667c.03052-.04462-.01556-.00861-.09106.00085l.16534.00428C50.88635,84.8278,50.90509,84.77348,50.82153,84.85667Z"/><path class="cls-2" d="M50.67047,84.66819c-.253-.08429-.27381.04828-.01166.13043C50.59973,84.73216,50.5169,84.67137,50.67047,84.66819Z"/><path class="cls-2" d="M50.083,84.01328c.04957-.001.14087.13666.163.08521l-.06-.09265Z"/><path class="cls-2" d="M51.6369,85.28294c.01691-.035-.025-.10956-.024-.15924l-.11255.01867C51.54663,85.17985,51.6419,85.22636,51.6369,85.28294Z"/><path class="cls-2" d="M51.61285,85.1237l.16577-.02881C51.6455,85.05656,51.61383,85.08091,51.61285,85.1237Z"/><path class="cls-2" d="M50.7807,84.72373c.10925-.00244.22033-.01678.32751-.02728l-.04553-.014C50.97,84.69828,50.87488,84.71513,50.7807,84.72373Z"/><polygon class="cls-2" points="52.134 85.469 52.311 85.357 52.236 85.393 52.134 85.469"/><path class="cls-2" d="M52.63641,85.41746c-.072.06775.08283.12939.009.16907a.58567.58567,0,0,0,.29377-.11707A.35035.35035,0,0,1,52.63641,85.41746Z"/><path class="cls-2" d="M52.0943,85.1724l-.05988-.012a.18072.18072,0,0,0,.10449.1272Z"/><path class="cls-2" d="M52.09271,85.16862l.00159.00378.12915.02405Z"/><path class="cls-2" d="M51.55835,84.71165c-.079.05353.00653.132-.14582.1817C51.51507,84.864,51.70691,84.83848,51.55835,84.71165Z"/><path class="cls-2" d="M51.78314,85.05424l.1853-.0415-.15356-.0528C51.81213,84.98826,51.8327,85.03513,51.78314,85.05424Z"/><polygon class="cls-2" points="52.052 84.993 51.968 85.013 52.026 85.032 52.052 84.993"/><path class="cls-2" d="M52.80175,85.28318a.49465.49465,0,0,1,.23584-.05115A1.65083,1.65083,0,0,0,52.76,85.19C52.74536,85.2227,52.70117,85.27989,52.80175,85.28318Z"/><polygon class="cls-2" points="53.895 85.197 53.879 85.179 53.878 85.198 53.895 85.197"/><path class="cls-2" d="M52.5924,85.19669A.89576.89576,0,0,1,52.76,85.19c.00659-.01465.00824-.0246-.01435-.02093A.14692.14692,0,0,0,52.5924,85.19669Z"/><path class="cls-2" d="M53.19922,85.28385c.03588.033.11108.08393.12371.05579A.86392.86392,0,0,0,53.19922,85.28385Z"/><path class="cls-2" d="M52.494,85.2548a.39064.39064,0,0,0,.09845-.05811.55145.55145,0,0,0-.11926.0268A.13016.13016,0,0,1,52.494,85.2548Z"/><path class="cls-2" d="M53.57165,85.19377l-.06561.0166a.63166.63166,0,0,1,.24078.11706c.10846-.05652.127-.09558.13123-.12976l-.32825.01251Z"/><path class="cls-2" d="M53.20862,85.2183c.052-.10895.20477-.15863.1076-.27283-.18658.01239-.13031.093-.24377.13776.30658-.02179-.08954.06012.13366.1228a.69146.69146,0,0,1-.16852.026,1.55,1.55,0,0,1,.16163.05182l-.00733-.00653-.00146.00037.0003-.00171c-.01367-.01312-.01813-.02118-.00274-.01373l.00653-.00238a.13755.13755,0,0,1,.0141-.041c.09112.02008.01464.02765-.0141.041l-.00379.01611.00116.00134.31415-.067A1.06093,1.06093,0,0,0,53.20862,85.2183Z"/><path class="cls-2" d="M51.76684,84.52207a.034.034,0,0,1,.00342.02649C51.7915,84.5399,51.80035,84.53269,51.76684,84.52207Z"/><path class="cls-2" d="M51.72638,84.67149l.02374-.00959c.10626.0655.23584.223.21283.23389a.84022.84022,0,0,0-.09339-.28326c-.0238.00995-.05029.048-.1159.02154-.05151-.0451.012-.05023.0166-.08551C51.72412,84.56724,51.60943,84.59074,51.72638,84.67149Z"/><path class="cls-2" d="M52.52362,84.92326l.25329-.03473-.11938-.10205.00214.05633C52.52124,84.81077,52.54535,84.88163,52.52362,84.92326Z"/><polygon class="cls-2" points="53.908 85.364 54.043 85.184 53.931 85.246 53.908 85.364"/><polygon class="cls-2" points="54.276 85.283 54.357 85.208 54.272 85.183 54.276 85.283"/><path class="cls-2" d="M59.93011,79.27812l-.11236.01666a.25054.25054,0,0,1-.04908.18341C59.88409,79.387,60.04065,79.28208,59.93011,79.27812Z"/><path class="cls-2" d="M57.3764,83.59556a.62718.62718,0,0,0,.21979-.11768C57.4696,83.51536,57.33947,83.50932,57.3764,83.59556Z"/><path class="cls-2" d="M57.79284,83.28007l-.0531.01929a.59044.59044,0,0,1-.14355.17852C57.68963,83.451,57.78405,83.40214,57.79284,83.28007Z"/><path class="cls-2" d="M55.5426,84.87284l-.0639.01532C55.47638,84.90812,55.489,84.91679,55.5426,84.87284Z"/><path class="cls-2" d="M55.631,84.8328l.09289-.04638a.48828.48828,0,0,1-.115.03729C55.62512,84.82469,55.63318,84.82792,55.631,84.8328Z"/><path class="cls-2" d="M59.69311,79.31223l.12464-.01745-.00013-.02118c.05774-.08069-.04528-.07849-.142-.04706a.41384.41384,0,0,0-.05371-.12579c.20617-.0434-.0373-.235.18023-.30768-.09-.06921-.042-.45044-.25476-.50281.02771-.00189.04144-.02679.04212.01966a.3181.3181,0,0,0-.0055-.27717l.15332-.04077-.21008-.20636c.09058-.12793.14349-.18609.264-.06176-.19568-.30048-.07874-.24988-.28-.493l.09985.00312c-.01428-.09339-.16009-.22406-.08728-.28943.16852-.23859-.14746-1.019-.18689-1.583-.23334.20166.03137-.28595-.19018-.2215.05163-.05548.05773-.14264.14721-.08294-.17273-.23072-.07672-.43964-.33838-.52417.0459-.0611.1178.00634.14051-.03809-.024-.01355-.09534-.05176-.07318-.09759.02233-.04541.07049.00927.11853.03564-.14765-.25763-.35456-.16882-.53351-.08612.01007-.16992-.04071-.226-.20673-.23779.02789-.07593.03845-.18372.1546-.05054-.03985-.08936-.26739-.55206-.40295-.45947.01294-.04859-.07605-.11365-.10632-.12183a1.99089,1.99089,0,0,0-.28632-.34875l.01978.062c-.19715.06518-.15015-.10071-.28626-.2085l.01752-.01038c-.18494-.37561-.16126-.07281-.34479-.45178l-.06287.10413c-.19195.17126-.16119-.34-.41009-.4l.02417.104c-.14679.00067-.07587-.48975-.17615-.5885-.01227-.03424.0578-.00623.10108.00146-.21222-.313-.12354.10773-.356.00525.00238-.0968.16436-.15539.01935-.25476-.04828-.10821-.56641.00256-.71625-.227.02307.08057.04242.15942-.08332.15979-.16485-.04822-.37377-.4046-.592-.2514a.07237.07237,0,0,1-.0169-.05835c-.14655.0108-.45349-.02442-.55292.07452-.05975-.44971-.843.09332-.805-.27954l-.417.01154.01056-.03925a.4418.4418,0,0,0-.44293.17554c-.06213-.02161-.02087-.06031-.01709-.08063a.67522.67522,0,0,0-.72.22223l-.05628-.11585c-.0653.08277-.60424-.07312-.92651.20472a.08334.08334,0,0,1,.02142-.06641c-.34619.2644-1.12512.12976-1.0346.61005l-.17688.24438c.31933-.16394.06225.19025.22625.17493-.09649.09418-.36694.08923-.2423-.02765l.03466.00329c-.08545-.23443-.40716.19129-.49475.06458a8.40328,8.40328,0,0,0-1.51117,1.44336l.1947.04224-.13958.18457c-.06854.0274-.1648-.00891-.06653-.14624-.13513.01751-.08112.28442-.04877.3078-.233.24084-.11523-.22181-.16961-.13855l-.061.12561.03406-.016c.00775.13586.07013.18261-.03613.35217-.09082.095-.12964.0047-.15918.04614-.01136-.00629-.02472.00617-.04059.06665l-.14466.26306.18055-.04663c.0097.14881-.12189.24658.08307.19245-.33.07019-.47113.98315-.55866,1.07983a1.08636,1.08636,0,0,1-.03467.587c.04206-.04852.20154-.051.155.12818-.3219-.12048-.19562.317-.446.4483.16626-.12311.00024.54816.242.34473-.03625.15546-.12683.00287-.21093.12024.11505.37927-.08912.83966.01037,1.31476.04437.00177.10291-.0835.17847.0083l-.18292.277c.0371.09106.25958.04382.14331.23791.03167-.03076.07965-.07556.10546-.01739-.03057.97778.68085,1.7229.86469,2.70892.00031-.156.05469-.08771.1106-.00751-.01783-.06482.09075-.05975.13317-.10376l.09455.41461c.174-.04382.2713.32459.42181.25037l-.1018-.0744c.142.00122.1809-.14618.228-.29553.08014.09863.14063.20605.22718.30181a5.65275,5.65275,0,0,0,4.379,1.95124c.10413,0,.20447-.01038.30677-.01551-.01709.00544-.03534.00238-.05134.015l.00812.05585c.08655-.00519.14081-.05408.06269-.07178.07812-.00421.15765-.0047.23468-.0119-.12574.09008-.015.40039.14062.5653-.00012-.04358-.003-.08331.14685-.16174-.06372-.04285-.35895-.0863-.23743-.18854.19519-.07379.16816.01435.27478.054-.08746-.09558.14582-.19519.14753-.33734a5.376,5.376,0,0,0,.65344-.1576l.01379-.003-.004.00031a5.2545,5.2545,0,0,0,.4981-.187c-.00287.019-.01257.04059.00959.05041l.09411-.06091c.14038.05755-.13415.22088.01764.21057a.66307.66307,0,0,1-.46527.32135l-.086-.13409c.0177.0429.16455.04473.206-.0224-.06562.10089-.376-.09681-.41419.12439l.17645.05816c-.126.1214-.28515.32733-.49493.3205.1217.13049.04114-.02271.22229.11548-.1723-.17878.51245-.12384.25409-.29572.20105.15485.2691.01129.514.10553-.02362-.04517-.09961-.06634.07251-.10309a.24194.24194,0,0,1,.01861-.05584l.01215-.0011-.011-.00177c.004-.00995.00409-.01172-.004-.00055a.18875.18875,0,0,1-.10968-.0401c.03778-.1369.28247-.23822.33637-.33222.09851-.02209-.012.07068.05951.0954l.0805-.14038c.061.09589.32593.04431.14179.21124l.19378-.09869a.50186.50186,0,0,0,.37458-.17871c.10235-.03406.1438-.24707.12133-.12348l.23151-.25409.01947.02039c.27606-.195.39307-.56812.79614-.6889a.911.911,0,0,1,.252-.31934l.09637.037c.06793-.12525.34857-.2649.30591-.37708.30749.04132.45929-.52923.6217-.72253l-.10382-.07355a1.59809,1.59809,0,0,0,.19715-.51965l-.10608-.03894c-.00287-.20038.27325-.38459.36529-.66266.03412.03387-.00256.099-.04736.13684.36774-.23987.06976-.74262.31579-.99133a.19231.19231,0,0,1,.04194-.18427.0386.0386,0,0,0,.00183.0202l.00781-.03112.08044-.09473a.37044.37044,0,0,0-.07733.07782A.80561.80561,0,0,0,59.69311,79.31223ZM47.36779,74.53611l.0495-.02661C47.39966,74.61845,47.38531,74.578,47.36779,74.53611ZM58.27966,74.162c.07385.05883.14777.119.21741.18328-.00562.04194-.067.04621-.14624.04346l.05786.02234a.08987.08987,0,0,1-.06012.08746c-.02142-.03619-.03394-.07623-.05609-.11206l.05835.00226-.07257-.0307c-.00983-.01575-.02271-.03021-.03266-.0459A1.15162,1.15162,0,0,0,58.27966,74.162Zm-4.519,10.45056c.08264-.00806.16259-.02332.244-.03479A.2089.2089,0,0,1,53.76062,84.61253Zm.295-.02851.00409-.01495.02942-.00464Zm2.25061-.20367.002-.00787C56.434,84.35087,56.3891,84.358,56.30627,84.38035Zm.64527-.78772c-.16395.19836-.16993-.03864-.18525.01209-.38787.249-.10937.54351-.53265.63226-.20569-.03748-.14191-.22693-.22186-.29291.14129-.14453.30371-.08722.413-.16992l-.17334.03973a.32521.32521,0,0,1,.19647-.18353.35132.35132,0,0,0-.132.04309,6.2365,6.2365,0,0,0,.76434-.61591A.76377.76377,0,0,1,56.95154,83.59263Zm.91131-1.22583a.20224.20224,0,0,0-.12366-.046c-.01159.01288-.022.021-.03344.0329.05767-.07056.10833-.14368.16284-.21533A.44915.44915,0,0,1,57.86285,82.3668Zm.46491-.742c-.02179.00152-.03626-.01441-.05439-.02167.03974-.0636.06189-.13342.09931-.19788l.18078.09888-.16473-.1308c.03748-.06543.06555-.13415.10065-.20044a.93619.93619,0,0,1,.30053.20569A1.72888,1.72888,0,0,1,58.32776,81.6248Zm.88714-1.11414c-.06726-.0957-.16955-.24847-.273-.40564.0354-.11084.06525-.22369.09479-.33661a.83408.83408,0,0,1,.25989.47266l-.09461.02783Zm.05036-2.73651c-.00165-.05719-.01136-.111-.01429-.16766.08332.05444.16968.0996.25153.15759A.81363.81363,0,0,0,59.26526,77.77415Z"/><path class="cls-2" d="M54.91577,85.0695c.011.02612.05206.05633.00384.07287l.14661-.07708A.219.219,0,0,1,54.91577,85.0695Z"/><path class="cls-2" d="M54.47528,84.79124c-.00073.14618.10162.07318.1997.00116-.03686-.09546-.119-.04-.21783.00317Z"/><path class="cls-2" d="M54.33856,84.8242c-.00147.0581.04144.00433.09534-.02033A.33052.33052,0,0,1,54.33856,84.8242Z"/><path class="cls-2" d="M55.81842,84.65775c-.05835-.0003.02533.13215-.01935.1081C55.80237,84.90861,56.049,84.46751,55.81842,84.65775Z"/><polygon class="cls-2" points="54.514 84.488 54.578 84.601 54.609 84.489 54.514 84.488"/><path class="cls-2" d="M55.13678,84.3588c.00958.01886-.0055.03754-.02625.05512.0957-.03027.20874-.04541.19061-.08Z"/><path class="cls-2" d="M56.81573,83.337c-.01263.05-.05408.10328-.00628.11853l.11187-.14227C56.90649,83.269,56.85351,83.2808,56.81573,83.337Z"/><polygon class="cls-2" points="48.138 82.944 48.143 82.819 48.086 82.799 48.138 82.944"/><path class="cls-2" d="M48.40759,82.88566l-.09991.13251.16546-.03321C48.447,82.96574,48.39587,82.92814,48.40759,82.88566Z"/><path class="cls-2" d="M46.23358,20.83048c.03229.27045.14569.1211.11871.12787C46.356,20.79679,46.25323,20.85478,46.23358,20.83048Z"/><polygon class="cls-2" points="46.636 23.577 46.754 23.97 46.68 23.624 46.636 23.577"/><path class="cls-2" d="M46.762,26.11753c.17053-.23791-.05926-.903-.01074-1.3479l.03815-.07361-.15033-.199A13.33759,13.33759,0,0,1,46.762,26.11753Z"/><path class="cls-2" d="M46.4209,27.4531c.06671-.08325.06951.28681.01129-.3106l-.01575.05645Z"/><path class="cls-2" d="M46.41644,27.199c-.01385-.26275-.05249.17285,0,0Z"/><path class="cls-2" d="M46.49719,28.41184l-.07367-.345c-.03857.07306-.03748.38141-.07111.26746C46.39831,28.68888,46.43658,28.615,46.49719,28.41184Z"/><path class="cls-2" d="M46.63842,28.73747l-.03228-.17878C46.59,28.59043,46.58563,28.638,46.63842,28.73747Z"/><path class="cls-2" d="M46.538,28.17942l.06818.37927c.02716-.05072.08484-.05706-.02588-.17425C46.63415,28.41459,46.58087,28.34037,46.538,28.17942Z"/><path class="cls-2" d="M46.67956,27.86387c-.04681-.66144-.169-.562-.1217.09973C46.59015,27.76872,46.60614,27.51768,46.67956,27.86387Z"/><path class="cls-2" d="M46.95086,26.24235l.04352-.25989L46.927,25.759C46.96045,25.87058,46.8955,26.25913,46.95086,26.24235Z"/><path class="cls-2" d="M46.62243,30.42454l-.05218-.25464c-.02161.132-.03711.38165-.09277.40039C46.51617,30.591,46.5747,30.45146,46.62243,30.42454Z"/><path class="cls-2" d="M46.62243,30.42454l.07807.38086C46.69665,30.46366,46.66357,30.4019,46.62243,30.42454Z"/><polygon class="cls-2" points="46.839 28.795 46.681 28.17 46.845 28.916 46.839 28.795"/><polygon class="cls-2" points="46.573 32.2 46.522 32.032 46.427 31.817 46.573 32.2"/><path class="cls-2" d="M46.57007,33.00059c-.07813-.15839-.11573.22375-.1662.05536a3.07523,3.07523,0,0,0,.1549.68664A2.11436,2.11436,0,0,1,46.57007,33.00059Z"/><path class="cls-2" d="M46.70367,31.45732a.48237.48237,0,0,0-.0982.30383l.10168-.1532Z"/><path class="cls-2" d="M46.71039,31.60258l-.00324.00537.00494.32513Z"/><path class="cls-2" d="M46.77575,29.79942c.06726.22339.1471.68994.2229.23492C46.9201,29.87492,46.877,30.13542,46.77575,29.79942Z"/><path class="cls-2" d="M46.74078,30.7949l.0893.43427.01074-.40668C46.81286,30.83116,46.77423,30.90544,46.74078,30.7949Z"/><polygon class="cls-2" points="46.871 31.427 46.83 31.229 46.826 31.38 46.871 31.427"/><path class="cls-2" d="M46.72857,33.38072a2.67883,2.67883,0,0,1,.07752.58245c.01318-.233.01642-.47363.00848-.70178C46.7799,33.23026,46.71643,33.13181,46.72857,33.38072Z"/><polygon class="cls-2" points="46.877 36.098 46.896 36.063 46.877 36.055 46.877 36.098"/><path class="cls-2" d="M46.83313,33.22184a.79045.79045,0,0,0-.05121-.37738c.01514.13031.02679.26843.03265.41693C46.8302,33.27543,46.84027,33.27781,46.83313,33.22184Z"/><path class="cls-2" d="M46.7221,34.67387c.01929-.09174.03467-.19556.04853-.30451C46.7398,34.45939,46.69323,34.64262,46.7221,34.67387Z"/><path class="cls-2" d="M46.709,32.61485l-.00561-.026C46.68231,32.64677,46.6933,32.63932,46.709,32.61485Z"/><path class="cls-2" d="M46.709,32.61485a1.49621,1.49621,0,0,0,.07294.22961,2.90152,2.90152,0,0,0-.04541-.28931A.27207.27207,0,0,1,46.709,32.61485Z"/><path class="cls-2" d="M46.87994,35.29746l-.01776-.16473a2.55476,2.55476,0,0,1-.11505.57617c.05762.27313.09625.32874.12982.34644l-.01367-.81385Z"/><path class="cls-2" d="M46.83667,34.39121c.11206.12543.1712.52027.27954.2735-.02381-.48413-.10138-.33642-.15784-.62439.053.78107-.0675-.22271-.10956.34442-.0235-.15313-.03381-.29119-.04272-.42157l-.03546.40619.006-.01812-.00043-.00367.00171.00068c.01227-.03412.02008-.04554.01355-.00727l.00275.01624a.10481.10481,0,0,1,.04181.034c-.01453.22724-.02674.03656-.04181-.034-.00531-.00238-.01056-.00843-.0163-.009l-.00128.003.08551.78149A6.50368,6.50368,0,0,0,46.83667,34.39121Z"/><path class="cls-2" d="M47.19842,32.91691l-.05542.01849c.00946-.3714-.05676-.2893-.10144-.33416l.07483.65045Z"/><polygon class="cls-2" points="46.826 36.174 46.71 36.092 46.883 36.463 46.826 36.174"/><polygon class="cls-2" points="46.869 37.022 46.769 36.994 46.836 37.216 46.869 37.022"/><path class="cls-2" d="M47.58221,57.7946c-.083.279-.21576.59045-.10559.55639l.10553-.08594A1.62728,1.62728,0,0,1,47.58221,57.7946Z"/><path class="cls-2" d="M47.20141,45.68937a4.14394,4.14394,0,0,0-.04516.60175C47.20868,45.99955,47.29425,45.76267,47.20141,45.68937Z"/><path class="cls-2" d="M58.84875,49.07566c-.0155-.11755-.03583-.16815-.06012-.1654C58.80291,49.03123,58.82129,49.09989,58.84875,49.07566Z"/><path class="cls-2" d="M47.18011,46.985l.02118-.1278a3.99332,3.99332,0,0,1-.045-.566A1.3422,1.3422,0,0,0,47.18011,46.985Z"/><path class="cls-2" d="M47.25116,18.04185a1.51428,1.51428,0,0,0-.18256.31988A2.94316,2.94316,0,0,1,47.25116,18.04185Z"/><path class="cls-2" d="M46.93646,40.43607c-.01312-.17956-.01294-.028,0,0Z"/><path class="cls-2" d="M47.91534,48.752l.00012.01557C47.93487,48.7136,47.93115,48.72294,47.91534,48.752Z"/><path class="cls-2" d="M46.97662,40.16306a2.29711,2.29711,0,0,0-.02447.23157C46.95929,40.3571,46.96747,40.28666,46.97662,40.16306Z"/><path class="cls-2" d="M46.92663,40.20194l.00513-.15771C46.913,40.02238,46.90228,40.043,46.92663,40.20194Z"/><path class="cls-2" d="M46.95074,40.68565a2.85864,2.85864,0,0,1,.00141-.291c-.00611.03571-.01172.05078-.01569.04144Z"/><path class="cls-2" d="M46.66742,20.31761c-.0036-.11316.00689-.22663.01013-.34076.06409.252.21582.05658.378-.14075a5.28122,5.28122,0,0,0-.09894.99438q0,3.42105.22449,9.50666c-.02991-.08972-.06476-.13733-.09192.09747l.01654.055a1.72344,1.72344,0,0,1-.1637.66974,1.03233,1.03233,0,0,0,.24817-.38934.57154.57154,0,0,1-.05676-.28815c.01691-.10113.03314-.075.05139-.04413.05975,1.61347.1308,3.36121.214,5.25318-.12988-.13428-.3642.08862-.50317.37176.04358.01044.08349.009.15545.40808.04932-.14264.09632-.895.19727-.55981a1.134,1.134,0,0,1-.0639.6969c.09112-.17627.16455.332.27764.50036.01307.28858.027.58728.04065.88184l-.09063.07666.10064.141c.033.71076.0669,1.43292.10279,2.17841-.0152-.018-.03015-.01947-.0445.02112l.02887.29815c-.099.28-.16876-.5556-.20642-.17468A4.41747,4.41747,0,0,1,47.21106,39.12l.14959-.113a.89473.89473,0,0,0-.02673.53033c-.07587-.23266.178-.87585-.03119-1.12524L47.21,38.813a4.86687,4.86687,0,0,1-.23853-1.395c-.14355.23437.02118.1148-.1438.47851.20978-.31811.03406,1.28315.24866.77692-.193.37457-.06573.63641-.22467,1.12256.04993-.01715.09082-.17383.08014.24829a.4569.4569,0,0,1,.04767.09027l-.00281.02856.00519-.02349c.00818.01788.00976.01947.00177-.00873a.59614.59614,0,0,1,.06958-.21808,7.167,7.167,0,0,1,.20953,1.09491c-.01556.2503-.06146-.1015-.11072.03705l.10114.33313c-.11108.03863-.16394.6701-.24951.08648l.01282.5282a3.11876,3.11876,0,0,0-.00684,1.00373c-.01587.24993.14545.62377.05023.41052l.09754.82525-.02778.00873a12.1828,12.1828,0,0,1,.07172,2.6164,5.18877,5.18877,0,0,1,.06561,1.01849l-.09405.09259a7.12072,7.12072,0,0,0,.045,1.21191c-.24835.3877.001,1.71467-.02435,2.33667l.12756.02082a12.04125,12.04125,0,0,0,.126,1.36651l.1109-.0346a16.79021,16.79021,0,0,1-.00391,1.90149.62581.62581,0,0,1-.018-.36268c-.22388.86762.246,1.82245.08807,2.60865a1.08827,1.08827,0,0,1,.01471.474.21233.21233,0,0,0-.00751-.04847l.00135.08027-.05048.27179a1.41429,1.41429,0,0,0,.05231-.2287,6.01421,6.01421,0,0,0,.06476.60315l-.11713.096.00519.05176c-.037.22.063.17658.1496.05884a1.886,1.886,0,0,0,.08264.2962c-.1883.1792.08539.58789-.11365.8321a2.71219,2.71219,0,0,1,.1253.64508c.03528.306.13349.602.248.6455-.02606.01282-.02838.08637-.0495-.04339a1.42441,1.42441,0,0,0,.22534.76019l-.09521.173a2.92022,2.92022,0,0,0,.49371.42462c.14118.34643.24762.49627-.11249.29193a6.37636,6.37636,0,0,0,.68232.46655,1.97291,1.97291,0,0,0,.64392.23486l-.07556.07349c.24139.1236.67248.13233.79461.24841.517.38495,2.736.55719,4.23731.299-.35437-.201.70935-.05823.68915-.315.10455.03546.31481-.0094.10968.13831.68463-.3515,1.10424-.38849,1.46008-.87616.11743-.00086-.08.18616.01074.16907a.89248.89248,0,0,1,.2652-.23383c.09234-.02551-.05493.12708-.14527.23053.67853-.57172.51612-.845.40229-.99078a.8677.8677,0,0,0,.37451-.8147c.09869-.11108.24817-.33185.1051.16821a2.9219,2.9219,0,0,0,.23279-.96966c.01471-.40186.00824-.69922-.07135-.72205a1.00458,1.00458,0,0,0,.00818-.42c.02942-.56732.04559-.61713.05-1.17426l-.03156.1543c-.185-.221-.02667-.46344-.03412-.91272l.01929.01294c.17523-1.02869-.051-.44538.14331-1.45978l-.12176.054c-.25464-.09778.18365-.89856.10571-1.48938l-.07593.21191c-.077-.32361.38226-.89484.42578-1.21729.025-.07.03211.11188.04523.21051.18182-.84332-.1532-.1123-.16754-.74365.08874-.11474.21014.15381.24078-.27014.076-.20972-.23175-1.23669-.049-1.81219-.06976.126-.1394.25128-.17816-.04291-.00757-.44989.2893-1.20746.09778-1.61859.01983-.05658.03772-.07764.054-.07959a7.60256,7.60256,0,0,0-.15338-1.32849c.42511-.30341-.1264-2.14185.25507-2.12055l.01654-1.05664.038.02918a2.42805,2.42805,0,0,0-.11743-1.15748c.03143-.1549.06305-.03948.08258-.02569a4.46354,4.46354,0,0,0-.06238-1.91736l.12677-.08008a20.60961,20.60961,0,0,0,.13385-2.39422c.01368.01013.037.03131.05176.10913-.10705-1.09668.43506-2.5979-.00183-3.01551l-.08594-.72375c-.05731.78748-.15429.14276-.23639.15643.00617-.13659.012-.26837.01807-.4035.04956-.18469.11151-.26843.11578-.00922l-.025.06952c.22931.17383.1239-1.1535.28308-1.123.05267-1.83228.24542-3.61475.31567-5.33155l-.18982.19409.0315-.59838c.04809-.15625.15045-.20826.12793.21881a1.01715,1.01715,0,0,0-.101-.73084c.10339-.835.20172.33038.21514.074l-.00146-.34864-.02417.07819a1.828,1.828,0,0,1-.11609-.82312c.048-.32422.11865-.165.13019-.29272.01294.00091.02051-.04218.01214-.19611l.04206-.75427-.155.29992c-.05945-.3352.03241-.709-.14331-.363A20.12913,20.12913,0,0,0,59.65,22.22025a6.65234,6.65234,0,0,1-.04492-1.50958c-.02887.15241-.18091.23578-.18494-.27.36725.16407.06275-.96124.07874-1.44976-.00629.21612-.14069-.15491-.32819-.46357-.18579-.31274-.40192-.55621-.326-.24463-.22864-.379.09326-.09295-.04516-.41839a7.026,7.026,0,0,0-2.97986-2.05115c-.03162.03595.15014.16571-.13031.14343-.19171-.13733-.39282-.26428-.60089-.38641-.25879-.02771-.27478.19714-.70667-.01959.06.04437.14679.114-.02081.1051A7.96377,7.96377,0,0,0,47.262,17.8563c.29212-.2456.14209-.04675-.01086.18555.11993-.13745.08764.06421.15771.06769a4.35692,4.35692,0,0,0-.64184.91565C46.82415,19.26035,46.49475,20.185,46.66742,20.31761ZM47.101,42.39695l.00629.01373C47.07019,42.70487,47.0852,42.60044,47.101,42.39695Zm12.47266-16.1062-.03577.11792C59.51257,26.14091,59.54132,26.21617,59.57361,26.29075ZM47.93646,47.50718c.02863.69055.05579,1.36542.08081,2.01373a2.19075,2.19075,0,0,1-.22357-.65246c.04413.02307.09735-.07086.12164-.1164C47.90753,48.25108,47.92523,47.88493,47.93646,47.50718ZM47.455,44.86863c-.07434-.6499.12671-.28778.0929-.39984-.00458-1.22644-.40338-1.02832-.28564-2.05109.1206-.40924.26654-.0299.36035-.12353a8.05274,8.05274,0,0,1-.0401,1.1792l.04858-.446a2.04055,2.04055,0,0,1,.06384.7154,4.12634,4.12634,0,0,0,.03626-.90338q.08038,1.73813.14911,3.33648A3.05132,3.05132,0,0,1,47.455,44.86863Zm.23157,7.53375a10.40159,10.40159,0,0,1,.23822-1.1817c.04419-.09674.09809-.083.15442-.03375q.02416.67529.04541,1.31518A.48325.48325,0,0,1,47.68658,52.40238Zm.09015,3.22156.07739-.146-.1134-.5791a9.95611,9.95611,0,0,1,.48.90931c.00745.30737.01441.6087.02045.89965A3.08253,3.08253,0,0,1,47.77673,55.62394Zm.47217,1.8147.00641.00586.00177.0932C48.25494,57.50352,48.24951,57.476,48.2489,57.43864Zm.4624,4.707c.06671-.01148.121-.07648.17731-.14807a2.69954,2.69954,0,0,0,.324.3374A2.54315,2.54315,0,0,1,48.7113,62.14567Zm8.92316-.491c-.07385.06372-.07373-.03461-.06562-.17016l-.042.13415c-.10138.08869-.14715.09137-.1662.04962a2.61872,2.61872,0,0,0,.20856-.30237l-.00037.1186c.02009-.08088.04621-.16858.06208-.263l.00567-.01331a1.52229,1.52229,0,0,0,.24781-.27844A2.65957,2.65957,0,0,1,57.63446,61.65464Z"/><path class="cls-2" d="M46.81921,38.57664l.0445.38849a1.14361,1.14361,0,0,1,.02771-.35279C46.86352,38.62223,46.82531,38.69847,46.81921,38.57664Z"/><path class="cls-2" d="M47.20746,38.19865c.10028-.03522.05767-.278.02966-.55l.00165.04822C47.09417,37.62229,47.15094,37.91117,47.20746,38.19865Z"/><path class="cls-2" d="M47.23156,37.58555a2.22,2.22,0,0,1-.011-.25208C47.16259,37.30381,47.21209,37.4362,47.23156,37.58555Z"/><path class="cls-2" d="M47.03955,41.02146c.02173-.13025-.13227-.07489-.09351-.14984C46.81219,40.7335,47.13122,41.72483,47.03955,41.02146Z"/><path class="cls-2" d="M47.53467,39.68321c-.02076.00756-.035-.04724-.04664-.11475.005.26862-.01007.564.02668.552Z"/><path class="cls-2" d="M47.488,39.56846a1.53037,1.53037,0,0,0-.03253-.34973A3.46666,3.46666,0,0,0,47.488,39.56846Z"/><path class="cls-2" d="M47.64886,44.8029l.05194.47393c.04456.04688.06641-.08361.04334-.26C47.71039,44.90415,47.68786,44.72843,47.64886,44.8029Z"/><polygon class="cls-2" points="48.066 51.788 47.812 51.811 48.072 51.909 48.066 51.788"/><path class="cls-2" d="M46.44543,19.72349c-.04437.13086-.0805.26312-.11365.39673l.11982-.24884Z"/><path class="cls-2" d="M46.51776,20.83048a.76578.76578,0,0,1,.024-.32476l-.16529.08557Z"/></g></g></svg>