<svg xmlns="http://www.w3.org/2000/svg" viewBox="0 0 104.16942 117.48161"><defs><style>.cls-1{fill:#1d1d1b;}.cls-2{fill:#c3c66e;}</style></defs><title>Exclamation_01</title><g id="Layer_2" data-name="Layer 2"><g id="Layer_1-2" data-name="Layer 1"><path class="cls-1" d="M103.12093,52.5457a50,50,0,1,0-60.06739,48.98584l4.3429,6.32794,5.72449,8.34107,5.72442-8.34107,4.3429-6.32788A50.01724,50.01724,0,0,0,103.12093,52.5457Z"/><path class="cls-2" d="M100.66942,52.91178c.058-.46267-.36859-.29678-.44062-.36609C100.28587,53.31294,100.77922,52.89457,100.66942,52.91178Z"/><path class="cls-2" d="M100.94078,60.67326l-.15051-.16464a9.143,9.143,0,0,1,.21356,1.2041A7.54953,7.54953,0,0,0,100.94078,60.67326Z"/><path class="cls-2" d="M99.16154,67.72553c.86957-.44937.75446-2.53656,1.21424-3.749l.20508-.17184-.43177-.7c-.14264.77018-.17407,1.69324-.34942,2.52405A9.00989,9.00989,0,0,1,99.16154,67.72553Z"/><path class="cls-2" d="M96.3759,70.75758c.34534-.10626-.09229.84479.41742-.77683a1.37416,1.37416,0,0,1-.12641.12046C96.61253,70.2432,96.53111,70.43638,96.3759,70.75758Z"/><path class="cls-2" d="M96.66691,70.10121c.26673-.69217-.403.3605,0,0Z"/><path class="cls-2" d="M95.42107,73.3043l.22674-.97626c-.23767.11469-.67578.86252-.63275.52637C94.6768,73.79572,94.91466,73.69309,95.42107,73.3043Z"/><path class="cls-2" d="M95.454,74.36888l.14362-.50345C95.49449,73.91456,95.41118,74.02284,95.454,74.36888Z"/><path class="cls-2" d="M95.90074,72.80543l-.3031,1.06c.169-.07486.38422.01257.15906-.47827C95.90526,73.55946,95.823,73.27775,95.90074,72.80543Z"/><path class="cls-2" d="M96.25731,72.29493c.35235-.44617.71979-1.07672.56213-.0516C97.46214,70.43873,96.8867,70.51374,96.25731,72.29493Z"/><path class="cls-2" d="M99.74852,68.31638l.43176-.66918-.02643-.70676C100.16594,67.29386,99.52171,68.29133,99.74852,68.31638Z"/><path class="cls-2" d="M92.06731,78.39659c.09362.13616.51269-.0543.71521-.011l.242-.709C92.73674,77.93665,92.28038,78.48039,92.06731,78.39659Z"/><path class="cls-2" d="M92.78252,78.3856l-.3667,1.06988C92.96391,78.64356,92.956,78.42475,92.78252,78.3856Z"/><polygon class="cls-2" points="96.075 74.892 96.426 73.033 95.919 75.209 96.075 74.892"/><polygon class="cls-2" points="89.632 81.707 89.723 81.004 89.484 82.201 89.632 81.707"/><path class="cls-2" d="M87.90153,83.81455c.08344-.52844-.77679.12775-.59295-.3453a7.25953,7.25953,0,0,0-.91309,1.789A4.47806,4.47806,0,0,1,87.90153,83.81455Z"/><path class="cls-2" d="M85.928,86.14588a6.92353,6.92353,0,0,0,.46747-.88766A3.665,3.665,0,0,0,85.928,86.14588Z"/><path class="cls-2" d="M91.24254,80.90977a1.22785,1.22785,0,0,0-.863.4216l.5976-.08182Z"/><path class="cls-2" d="M90.99718,81.24577l-.02008.00378c-.29126.36517-.49329.6185-.5799.72705Z"/><path class="cls-2" d="M91.30968,80.82441l-.06714.08536C91.30125,80.90183,91.3278,80.89021,91.30968,80.82441Z"/><path class="cls-2" d="M94.32756,77.24821c-.14105.66815-.66138,1.97046.35882,1.03931C94.68974,77.7356,94.1096,78.26356,94.32756,77.24821Z"/><path class="cls-2" d="M92.06547,80.71177c.25769-.29706.53968-.57831.77918-.88986-.10553-.044-.35321.04065-.28015-.29755C92.43065,79.93946,92.231,80.31227,92.06547,80.71177Z"/><polygon class="cls-2" points="91.826 81.251 92.065 80.712 91.773 81.038 91.826 81.251"/><path class="cls-2" d="M87.602,85.02088a3.85951,3.85951,0,0,1-.99969,1.35749,8.0249,8.0249,0,0,0,1.48535-1.36023C88.05144,84.85746,88.065,84.48167,87.602,85.02088Z"/><path class="cls-2" d="M89.33922,83.26472l-.05609.09872C89.35655,83.33586,89.40239,83.30247,89.33922,83.26472Z"/><polygon class="cls-2" points="81.984 90.387 82.109 90.387 82.082 90.314 81.984 90.387"/><path class="cls-2" d="M88.22093,84.98869a1.68281,1.68281,0,0,0,.613-.913,11.40858,11.40858,0,0,1-.74634.94248C88.10417,85.09031,88.12822,85.12336,88.22093,84.98869Z"/><path class="cls-2" d="M84.83574,87.44889a8.17,8.17,0,0,0,.78656-.41873C85.344,87.10633,84.82707,87.304,84.83574,87.44889Z"/><path class="cls-2" d="M89.08073,83.41166l.03553-.06784C88.9373,83.4054,88.985,83.41953,89.08073,83.41166Z"/><path class="cls-2" d="M89.08073,83.41166a3.39426,3.39426,0,0,0-.24676.664,6.01888,6.01888,0,0,0,.44916-.71222A.74473.74473,0,0,1,89.08073,83.41166Z"/><path class="cls-2" d="M82.07432,93.73069c-.077-.19092.12738-.54193.48572-.906a3.5272,3.5272,0,0,1,1.44983-.97547c.7359-.96441-.6991-1.48822-1.90137-1.462.07666.159.179.28418-.59588,1.19708.44317-.07373,2.344-1.21906,1.78723-.31708-1.11639,1.13031-1.074.71948-1.83179.96424.83283.0379-1.25311,1.6975-.57007,2.11456l1.02539-.99048C82.01109,93.43253,81.689,93.86393,82.07432,93.73069Z"/><path class="cls-2" d="M83.85405,89.05143l.34021-.332a5.60729,5.60729,0,0,1-1.6211.6004c-.49029.63678-.5299.85669-.49163.99463l1.86151-1.409Z"/><path class="cls-2" d="M85.75139,87.2674c.028.56583-.6933,1.4979.136,1.3566,1.01557-.99795.4795-.94635.96216-1.65735-1.57776,1.63178.30524-.61685-1.05182.32477a10.06324,10.06324,0,0,1,.80451-.913c-.33112.23953-.65949.45926-.98.65179l.05572-.01565.00666-.00821.00311.00644c.107-.027.15277-.02521.05206.02676a.16223.16223,0,0,1-.02789.03839.4094.4094,0,0,1,.03778.18777c-.53381.38086-.15057-.0119-.03778-.18777a.289.289,0,0,0-.02417-.06515l-.00977.00177c-.49359.56384-.9707,1.15228-1.48376,1.70489A10.818,10.818,0,0,0,85.75139,87.2674Z"/><path class="cls-2" d="M94.80321,79.8361a.10532.10532,0,0,1-.12384.00851C94.64238,80.00187,94.64146,80.07078,94.80321,79.8361Z"/><path class="cls-2" d="M94.07133,80.50666a1.36324,1.36324,0,0,1,.30512-.83413c.36377-.33323.17157.115.30292.17208.08441-.347.36218-1.15075-.36878-.38681l-.03882.17108c-.597.73423-1.76538,1.36265-1.718,1.195A2.93173,2.93173,0,0,0,94.07133,80.50666Z"/><path class="cls-2" d="M90.09849,84.27064l-1.12481,1.56854.93268-.48038-.2005-.11215C90.5056,84.48805,90.13866,84.48383,90.09849,84.27064Z"/><polygon class="cls-2" points="81.688 90.349 81.604 89.834 81.15 91.018 81.688 90.349"/><polygon class="cls-2" points="79.747 91.794 79.598 91.417 79.202 91.968 79.747 91.794"/><path class="cls-2" d="M5.03575,31.79731l.15894-.59085A3.63265,3.63265,0,0,0,5.03575,31.79731Z"/><path class="cls-2" d="M3.46843,35.88383l.14813.16247C3.58385,35.82246,3.53752,35.71858,3.46843,35.88383Z"/><path class="cls-2" d="M36.78587,97.13291c-.31415-.30346-.62665-.6596-.86786-.88336-.23144-.24878-.39721-.35895-.43786-.13306l.06073.50177A3.91374,3.91374,0,0,1,36.78587,97.13291Z"/><path class="cls-2" d="M6.25566,70.23921l-.02856.27459c.217.13413.42028.25971.60461.37366C6.65776,70.69166,6.46153,70.4709,6.25566,70.23921Z"/><path class="cls-2" d="M4.34782,70.30213,4.26323,69.1164A6.41224,6.41224,0,0,0,4.34782,70.30213Z"/><path class="cls-2" d="M18.82262,12.40046l.24462-.817C18.23662,12.33817,18.748,12.17585,18.82262,12.40046Z"/><path class="cls-2" d="M57.56987,105.51994a9.56668,9.56668,0,0,0-1.23975,1.34393C57.03,106.28422,57.73717,105.91471,57.56987,105.51994Z"/><path class="cls-2" d="M8.69084,35.08418c.04236-.34555.01-.51493-.083-.54181C8.557,34.89826,8.56706,35.113,8.69084,35.08418Z"/><path class="cls-2" d="M55.146,108.5919c.10809-.08081.19727-.17182.301-.25836a9.12211,9.12211,0,0,1,.88311-1.46967A3.09415,3.09415,0,0,0,55.146,108.5919Z"/><path class="cls-2" d="M95.71745,21.976c.02191.06195.05988.1283.07538.18756C95.852,22.14485,95.80247,22.07285,95.71745,21.976Z"/><path class="cls-2" d="M100.69365,45.82856c-.06116-.22189-.11792-.58969-.17645-.93576A3.59783,3.59783,0,0,0,100.69365,45.82856Z"/><path class="cls-2" d="M71.11967,96.24528c.4563-.23456.05573-.07727,0,0Z"/><path class="cls-2" d="M74.13017,96.7841a.28961.28961,0,0,0-.10376.27685A.37062.37062,0,0,1,74.13017,96.7841Z"/><path class="cls-2" d="M54.2877,114.61442l-.02734.03723C54.37877,114.62931,54.3582,114.63065,54.2877,114.61442Z"/><path class="cls-2" d="M71.901,96.113a4.73053,4.73053,0,0,0-.64953.14837A4.89065,4.89065,0,0,0,71.901,96.113Z"/><path class="cls-2" d="M71.72508,95.96684l.42536-.14337C72.1801,95.73118,72.11,95.71256,71.72508,95.96684Z"/><path class="cls-2" d="M70.47758,96.55784a5.7321,5.7321,0,0,1,.77387-.29645c-.10315.01392-.15088.00843-.13178-.01611C70.98448,96.31114,70.79368,96.404,70.47758,96.55784Z"/><path class="cls-2" d="M56.2653,1.38838c.03577.01553.07752.02645.11634.04705C56.95311,1.2841,56.70537,1.3003,56.2653,1.38838Z"/><path class="cls-2" d="M22.3549,94.48057c.02326.01282.04077.01233.06275.023l-.05616-.0639Z"/><path class="cls-2" d="M20.57024,93.476a2.35955,2.35955,0,0,1,1.79125.96369l.23035-1.4137Q21.59722,93.26366,20.57024,93.476Z"/><path class="cls-2" d="M10.03361,22.59315a10.37515,10.37515,0,0,0-1.12927.97107,7.96969,7.96969,0,0,1,.71027-1.92945c.143-.348.06439-.37976-.5716.01526.247.23749.165.64383-.0755,1.1348a14.27222,14.27222,0,0,1-.90545,1.73892C7.359,25.7454,6.66,26.96958,7.20463,27.3787a9.41345,9.41345,0,0,0-.68322.70468c.12994-.23816.07831-.31494.20752-.55038-1.3833,1.36572.27514,1.68371-.90973,3.70026-.44782.69171-.87775,1.13336-.78345.564-.1778.58893-.23486,1.22479-.35535,1.82953-.20709.48831-.38318.28317-.176-.206l-.85694,2.65756-.03088-.03208c.05737.44043.07,1.38157.12323,1.84906-.36206.62336-.05029-.38119-.25726-.2565l-.06537,1.57019c-.496.5152-.50885-.80618-.19208-1.82788-1.66559,1.02979.008,1.324-1.53369,4.15808L1.888,40.07481a3.12648,3.12648,0,0,0-.98181,1.4429c-.233.58652-.35382,1.28714-.7312,2.083.15436-.17911.58161-.96408.9773-1.47.4093-.50522.80688-.73044.79724.12121a3.78257,3.78257,0,0,0-.18323,1.99469c-.47791-.06927-.49548.82858-.63391,1.92768l-.6236-.15284c-.00506,1.22052.33649,1.15821.59156,1.88794A2.036,2.036,0,0,1,.02708,49.77781c-.20971,2.15372.86756-1.44284.86109,1.09845-.39044,1.76736.00879,3.03445.46863,5.1145-.164,1.2504-.40009-.1893-.56269.26663.19068.35578.36316.70951.56842,1.057.02289.26675-.14447.196-.229.15952.31787.89691.64624.01693,1.00812,1.42114.761.26666-.69336,3.10379.56854,4.69943-.081.46927-.42951-.12405-.64215.05939a12.45621,12.45621,0,0,0,2.07867,3.71005l.11652,1.75253c.09381-1.35281,1.06274.02341,1.99243,1.12281.0387-.47745.12262-.89679.14209-1.164a21.6501,21.6501,0,0,0,1.10236,1.87836c.00189.278-.28376.16333-.6684-.0661.10571.117.208.22672.29456.309.07782.80268-.41456.58029-.96326.19126.014-.29474.03766-.589.06409-.874-.5802-.35415-1.15772-.69235-1.46528-.45984a3.66983,3.66983,0,0,1,.42786.62168c-.15369-.09567-.27753-.14823-.31171-.06391-.034.09382.18842.261.48023.53864l-.4671.734.31042.00915c.246.95822.46381,1.93921.74512,2.89972a46.25894,46.25894,0,0,1,5.34479,5.24411c-.86866-.395-.80921.31818-1.3498.62238A2.4365,2.4365,0,0,0,9.05968,79.035c-.25245-.28283-.55225-.56958-.80433-.90259a5.84665,5.84665,0,0,1-.64129-1.10382c.35675.83417.00812.80362-.18988.647A29.64309,29.64309,0,0,0,9.52476,80.0312c-.46582.21164.03016.75854.29145,1.56152.2619-.54394.67791-.12732,1.2171.47455a22.25559,22.25559,0,0,0,1.66693,1.8269c-.21808.269-.67188.23957-1.53479-1.03549.4433,1.80268,2.21436,1.04944,2.77093,2.69629-.254-.27148-.351-.44971-.56665-.46274.786.473,2.03583,2.18759,1.48273,2.01984l-.25427-.27277c.39227.4812.9046,1.07407,1.46558,1.6865.59185.58209,1.2644,1.15234,1.892,1.66858a12.15806,12.15806,0,0,0,1.73572,1.23327c.52374.25354.92889.36322,1.13538.25586a3.89762,3.89762,0,0,1-1.13672.62494q1.332.147,2.61767.25446a23.54838,23.54838,0,0,0,2.56079.12506c-.74487.37475-.50592,2.64471-2.45092,1.81561a5.80871,5.80871,0,0,0,2.16217,1.41736c-.2843-.31439-.24372-1.43176.24615-1.18549A10.27306,10.27306,0,0,0,26.6616,97.2581c-.45-.42749.7287-1.08405,1.52442-.60413-.21387.07782-.48724,1.02258-.85364.9566l2.60907.15332c-.605-.1018-.5332.79438-.20294,1.338-.14588-.26563,1.87646.87774,2.50537,1.04059l-.818-.64911c2.40417,1.2525,3.01092-.33423,5.43414.53589a.872.872,0,0,0,.02038,1.66906c.389-.185,1.23914-.57824,2.27332-1.00067a11.739,11.739,0,0,1,1.64868-.56543,4.64957,4.64957,0,0,1,1.94934-.13769c.15448.15191.29053.29876.418.44372l.6015.054c.13153.123.25714.26044.3891.39453l.80963.84833c-.387-.181-.89038-.42585-1.39276-.62067-.0636-.02331-.124-.05066-.19018-.06848l-.27027.05322-.52612.11536c-.34253.08069-.66547.16919-.95294.26562a21.99368,21.99368,0,0,1-3.51294.79431c.89831.52643.16168.44989,1.64477.799.44678.43029-.93011.24932-1.37579.15509l1.712.5332.85589.26532.136.08276c.10589-.29065.451-.4989.67633-.34387.13324.05768.25116.09918.41308.17706.20765.1446.37763.20649.4748.10059-.10285-.09851-.23938-.24615-.31452-.30426l-.2019-.14032q-.196-.13166-.36853-.22913a4.591,4.591,0,0,0-.46918.05976l-.18457.045a.50024.50024,0,0,1-.1806,0l-.24445-.01617c.00171-.17243.16657-.34058.44629-.4856a2.01455,2.01455,0,0,1,.80139-.43085q.13871-.03835.29578-.06683l.16107-.02564a.4106.4106,0,0,1,.118.05317,2.91966,2.91966,0,0,1,.48267.34637,5.81237,5.81237,0,0,1,1.04,1.27643c.1253.65527-1.24536.30023-1.40192.46838a5.57446,5.57446,0,0,1,1.64447,1.905l-.87311-.637c.54834,1.24591,1.96991,1.29553,2.35053,2.98394.27838.48163.22357,1.85566.60589,1.70954.12049-1.18006,1.977-2.66876,2.79328-2.49744a24.33224,24.33224,0,0,1,1.08239,3.54279c.01313.5506-.42791.54138-.962.37768-.49036-.09985-.98163-.21978-.97455.247a.60086.60086,0,0,1,.40759.09369,3.30463,3.30463,0,0,1,.48114.34772c.329.75653-.62719.09149.46436,1.53528.5805-.35889,1.97424,2.97839.79651.14227.98761,1.09479.90283,1.56317,2.0191,3.13721-.1615-.67438.25311-.85651.64411-.95069a20.54908,20.54908,0,0,1,.84667-2.33728.39483.39483,0,0,0,.32007.42078c1.4538-2.00964,2.57624-3.09814,3.89173-5.00458.25952-.08648,1.07055-.91516,1.03723-.34814a3.329,3.329,0,0,1,.47919-1.34894c1.28552-.83148-.84546,1.39416.3479.90674-.27448-.29993.618-1.86609,1.00219-2.86347-.68542-.08246-1.45617,1.91468-1.84173,2.91309-.69849-.47345-.40125-2.4682.67712-4.729.93994-1.73981.93207-.39423,1.02619-.74366a9.71938,9.71938,0,0,0,.66363-1.00189c.17053-.2998.36713-.67261.49732-.96985.13946-.31073.25225-.60388.35449-.889a2.69062,2.69062,0,0,1,.574-.4295,7.2906,7.2906,0,0,1,.64044-.38165c.11872-.0622.24445-.12323.37977-.18274l.34545-.15027a4.746,4.746,0,0,1,1.65906-.31073c1.29254.23144.34363,1.0163.70215,1.32629a5.77255,5.77255,0,0,1-1.91974.38605,8.33508,8.33508,0,0,0-1.77.20837l1.5426-.12445c-.4671.37183-1.58123.48169-1.86022,1.096a1.9378,1.9378,0,0,0,.42181-.361l.06219-.06549.10321-.01319.21644-.03161.47015-.08234c.64258-.12127,1.4682-.31714,2.33911-.52563a26.77012,26.77012,0,0,0,2.65326-.7569,22.595,22.595,0,0,1,2.42682-.6214c.41443-.34466,1.132-.894.67438-.91907-.26581.14026-.52448.3-.79743.42475-.47265-.077-.11438-.324.18292-.6026.303-.26715.57727-.49.02735-.35578a10.69515,10.69515,0,0,1,3.56824-2.21533l.5531.395c-.11-.12988-1.119.198-1.47821.53149.52984-.46618,2.65533-.45855,2.95147-1.51617l-1.224.18939a14.6675,14.6675,0,0,1,3.12262-2.719c-.86975-.14972-.24182.25067-1.46325.20361,1.22674.32947-3.22651,1.7312-1.53315,1.85706a2.74342,2.74342,0,0,0-1.55633.208,4.15212,4.15212,0,0,1-1.75189.275c.12237.16693.60168.15576-.53485.5517a1.2156,1.2156,0,0,1-.16932.27038L71.901,96.113l.07007-.00507c-.03564.049-.03735.0567.02588-.00244a1.44408,1.44408,0,0,1,.68622.03155c-.36163.661-2.132,1.47791-2.69354,1.86231-.72113.1466.20678-.31641-.24292-.38977l-.807.65808c-.24646-.3905-2.03949-.08453-.53265-.88385l-1.43311.475a7.12358,7.12358,0,0,0-2.80957.56458,4.89226,4.89226,0,0,0-.86224.24957c-.341.124-.63623.25373-.85535.35614-.43738.20471-.60193.30841-.1651.018-.77929.03546-1.00268.84637-1.38061,1.41015l-.52484.88776-.30024.56043-.10565-.04456c-1.44214,2.00128-2.25964,4.60669-4.52337,6.47266-.18824.37439-.37513.758-.62635,1.18225-.12561.21209-.26733.43432-.43329.67059a1.53458,1.53458,0,0,1-.2622.29321,2.78492,2.78492,0,0,1-.3114-.233c-.04206.18122-.23218.2865-.35267.34973-.12628.07172-.20056.12714-.2146.50531a4.85938,4.85938,0,0,0-.12561-.48925c-.08038-.4889-.1344-.514-.26818-.5965a1.244,1.244,0,0,1-.21112-.14075.50414.50414,0,0,1-.089-.09906c-.11524-.16931-.24494-.37317-.33551-.53937l-.45838.22864a27.46191,27.46191,0,0,0-2.59979-3.22455l-.31378.33484c-1.08509-.93036-1.74634-3.10791-3.02033-4.883.22541.02551.50189.50769.63843.88958a5.7701,5.7701,0,0,0-1.10919-2.18817l-.4914-.67486-.25109-.327c-.09278-.09522-.26777-.07129-.3974-.11139l-1.6767-.26941L42.137,98.9528l-.24207-.01837-.48138-.04035c-.31916-.02972-.6341-.06659-.94007-.12a3.47268,3.47268,0,0,1-1.66327-.65369,2.29036,2.29036,0,0,1-1.28979-.45148.44688.44688,0,0,0,.13971.02332c-.05286-.02393-.13355-.05273-.21686-.08051-.20972-.15387-.421-.32165-.65735-.47882a3.1911,3.1911,0,0,0,.53949.43976,12.54048,12.54048,0,0,0-1.7088-.40008l-.07568-.55433-.14057-.04779c-.50634-.42065-.55157.00342-.378.47724a4.17623,4.17623,0,0,0-.89929-.0827c-.15918-.9217-1.6778-.4596-1.968-1.49408-.5816.19555-2.99353-1.28913-3.741-.71619.03619-.10651-.10724-.24548.20819-.0799a6.12976,6.12976,0,0,0-1.83527-1.07855l.07465-.68622-1.79242-.2052c-.60279-.84954-.79712-1.238.2716-1.09332-2.29077-.78339-1.63458-.92181-3.65472-1.58435l.3302-.2431c-.58362-.39771-1.74744-.80493-1.84332-1.34-.32019-.82721-1.76722-2.1311-3.21277-3.87482-.37244-.42434-.75757-.86316-1.14673-1.30648-.3429-.48017-.68927-.96521-1.03162-1.44458a13.95086,13.95086,0,0,1-1.67529-2.88129c-.55865,1.29684-.55817-1.86093-1.4093-1.515.10907-.34228-.05426-.89019.49859-.46612a7.25682,7.25682,0,0,1-1.17816-2.16733,3.38305,3.38305,0,0,0-1.23431-1.6207c.14215-.32568.56653.21225.6178-.0429-.12488-.11908-.52649-.46415-.44361-.73539.07215-.25988.313.18235.58338.40628C9.657,70.948,8.83226,71.05955,8.02318,71.22727a2.39041,2.39041,0,0,0-1.07965-2.15854c.13079-.44931.20251-1.12753.6867.092-.17029-.73188-1.03467-4.38352-1.59826-4.3165a2.1826,2.1826,0,0,0-.29474-1.19751c-.15674-.818-.24207-1.26328-.32666-1.70456-.09406-.43918-.19532-.87235-.31476-1.68146l-.04346.467c-.84631-.51913-.35028-1.3324-.61749-2.631l.08362.02866a8.04245,8.04245,0,0,0-.04761-2.1717,5.00652,5.00652,0,0,1,.11938-2.13907l-.472.17591c-.51288-.12406-.41986-.80539-.18591-1.655a6.11941,6.11941,0,0,0,.48541-2.73831l-.30518.61386c-.15228-.48587.23188-1.13754.674-1.761.22431-.3078.45294-.62158.65753-.9024a2.56861,2.56861,0,0,0,.46546-.7659c.12-.18891.09436.33291.11725.61779.97284-2.31665-.576-.38195-.44355-2.21011.3852-.27887.78766.55335,1.03174-.63354a1.64451,1.64451,0,0,0,.07862-.82779A9.64059,9.64059,0,0,1,6.6486,42.328a5.59518,5.59518,0,0,1,.66565-2.92438c-.34185.28278-.68609.57557-.66253-.30685a3.73579,3.73579,0,0,1,.39093-1.0556c.2182-.35892.45245-.74427.68268-1.12287a3.12751,3.12751,0,0,0,.61206-2.2312c.12316-.12967.20788-.16263.27044-.14474A11.50818,11.50818,0,0,1,9.154,32.525a5.06366,5.06366,0,0,0,.33679-1.82156c.4718-.02533.8291-.4068,1.12231-.958a15.76431,15.76431,0,0,0,.90723-1.8909c.56055-1.341,1.06073-2.61722,1.68628-2.17728l1.77008-2.50646.07586.15945a6.88039,6.88039,0,0,0,1.64789-2.98972c.38593-.26977.267.07273.30194.15342a15.70166,15.70166,0,0,0,2.09729-2.08738,13.17893,13.17893,0,0,0,1.48993-2.24343l.51618.20043a2.40788,2.40788,0,0,1,.71179-.66024c.18994-.13535.40112-.29285.6449-.44718l.81518-.45892a20.69712,20.69712,0,0,0,1.78284-1.129c.60107-.41467,1.13934-.939,1.68024-1.39569a.42006.42006,0,0,1-.14136.34509,9.746,9.746,0,0,1,2.12823-1.35971,16.01265,16.01265,0,0,1,2.37531-1.00018c1.55591-.53467,2.78845-1.08972,2.95788-2.17337.578-.42313,1.19635-.76666,1.80158-1.1582-2.631.81231.102-.871-1.073-.76062,1.00391-.48008,2.84509-.46161,1.6181.08633l-.22717-.013c-.13782,1.04279,3.31378-.86859,3.45813-.13065C44.75957,4.47611,50.07262,4.58878,54.97514,4.7757l-.55005-.76046,1.74762.13061c.44879.193.5719.60172-.6582.50955.62018.44669,2.09259-.24337,2.15143-.39962,1.20221.24731.93078.48462.47522.57492-.46155.13226-1.12457.26077-.75708.28216a6.62453,6.62453,0,0,1,1.0003.03449l-.21393-.11954a3.99212,3.99212,0,0,1,2.4231-.214c.91144.287.405.51795.76581.60141-.0108.05072.10748.09342.5553.10532a14.3569,14.3569,0,0,1,2.10815.5177l-.7193-.78214c1.00409-.03424,2.00031.547,1.16284-.34411a4.74691,4.74691,0,0,0,1.75483.954c.40228.14782.84545.28881,1.30743.42523.44757.18259.91388.36062,1.37793.53171.9314.33328,1.846.66055,2.58148.9237a4.63423,4.63423,0,0,1,1.42255.73627,8.74366,8.74366,0,0,1,2.02826.5798,10.471,10.471,0,0,1,2.05468,1.06757c-.29632-.321-.20233-1.02292,1.01563-.18964-.56506.44031-.07.91181.6217,1.44687.68683.5426,1.60938,1.11337,1.771,1.8888-.46491-1.14466,3.34936,2.30917,2.59961.61483.90314.80976-.24829.44062.28375,1.23081a15.3836,15.3836,0,0,1,3.49487,3.04355c1.091,1.24572,2.0708,2.68429,3.33069,3.90457.1676-.06482-.00122-.69574.67792-.27133l.41974,2.03186c.47876.49569,1.20117-.08826,1.46655,1.28338.01434-.22735.03461-.57229.36243-.22842a11.0691,11.0691,0,0,1,.61572,1.15628l.6062,1.16385c.41687.76849.8581,1.52383,1.31574,2.2738q.58979,1.17805,1.183,2.36289c.37933.7966.8645,1.55185,1.16528,2.3872a22.72451,22.72451,0,0,1,2.15082,10.32581c.19507-.98743.3216-.37589.44306.3374.00964-.47784.43042-.05936.65185-.18823l-.21771,2.99554c.684.47519.2005,3.13367.84851,3.41666l-.16119-.93225c.80993,1.235,1.56793-1.85306,2.53076-1.76758a2.0922,2.0922,0,0,1-.2594-1.24072,14.28675,14.28675,0,0,1,.10736-1.54947,4.82176,4.82176,0,0,0-.647-3.44272c.07355-.56039.39441.38425.54841.062a3.93409,3.93409,0,0,1-.97022-2.58694l.13721.12549c-.2652-.93094-.46582-1.73468-.63135-2.48645-.21619-.73594-.4256-1.411-.61194-2.11216a30.25226,30.25226,0,0,0-1.57458-4.92007l-.28815.49325a5.36712,5.36712,0,0,1-.3869-1.5643c-1.10858-.64663,1.1076,2.39191-.03424,1.84675.1485-.74427-.49475-2.2782-1.27429-3.67212-.81177-1.37876-1.58387-2.71781-1.347-3.38086-.75909-1.23957-.22156.65262-.99976-.56269l.01526-.475-.53149-.07413c-.51178-.79095-.501-1.39517-.32172-1.57468a5.69723,5.69723,0,0,0,.61792.67386c-.47687-1.19555-2.1654-2.757-2.38855-3.11615a12.33342,12.33342,0,0,1,.72894,1.21152c-.61718-.77841-1.38281-1.49963-2.10247-2.29224-.73987-.77377-1.43952-1.62213-2.22913-2.37478-.811-.731-1.62726-1.451-2.44122-2.11856-.41114-.32871-.8039-.66553-1.22675-.94486-.43377-.26614-.86487-.51446-1.29138-.73971l.09314.34912a7.95975,7.95975,0,0,1-2.14557-1.53394,9.1506,9.1506,0,0,0-.78351-.73093,14.14869,14.14869,0,0,0-1.53869-.92019l.127.01483A6.83558,6.83558,0,0,1,78.352,7.82633c.81775.18949-1.04577-1.228-.00231-.93423-3.01551-1.0528-1.5716-.39719-3.77765-.558l-.27234-.54226a7.00188,7.00188,0,0,1-.91541-.0033,13.54693,13.54693,0,0,1-1.45813-.35486c1.3288.14844-.7362-.87179.78461-.76172a9.13229,9.13229,0,0,0-3.66931-1.38864c-1.00037-.20651-1.80286-.21933-2.387-1.00677-1.74334.6112,2.63471,1.26593,1.74421,1.26733.57672.51462-1.4256.4079-2.38929.06757a4.34349,4.34349,0,0,1-1.40869-1.04587,5.88673,5.88673,0,0,0-1.03528-.719,6.34026,6.34026,0,0,0-1.6322-.44553c.26392.04544.29547-.02832.55921.01669-.95868-.41208-2.00367.05146-3.16962-.555-.75018.48166-1.59283-.21146-1.86078.57266a17.51943,17.51943,0,0,1,2.44562.09519c-1.40735-.06156-2.75885.84134-4.97888.27789a4.5249,4.5249,0,0,1,1.33648-.42c-.65466-.26691-1.28692.08993-1.96875-.184.22071-.76642,2.98029-.06034,4.52753-.50934-.6925-.44464-2.88464.40451-2.0661-.42844A2.242,2.242,0,0,1,54.76744.611,3.76721,3.76721,0,0,0,52.257.8234l.11286-.48046a5.34474,5.34474,0,0,1-1.41108.35693l.94581-.66293c-1.46186.60379-2.903-.32831-4.32135.062,2.997-.20078.723.52618,2.00494.79989a6.22586,6.22586,0,0,1-1.91748.19272A2.65918,2.65918,0,0,1,46.63341.81217c-.61859-.27111-1.32025-.5834-3.36194-.15332.54907-.153,2.13476-.0394,1.30255.31034a11.45307,11.45307,0,0,1-2.38043-.1399c-2.64789.77765.51275.37235-.55664.94623-1.0304-.33288-1.24579.56211-2.33631,1.03424l-.13714-.46283c-1.54938.23188-1.67261.53833-1.7508.8356-.08325.28913-.1264.55472-1.48205.85117l.88678-1.03577-1.31079.6626.09845-.6203A9.38863,9.38863,0,0,1,32.248,4.48289c.46039.156.16376.8913-1.04919,1.492-.9599.14435.27362-.64114-1.44251.26279a1.45989,1.45989,0,0,1,1.48761-.979c.01184-.18024.26538-.46354.28326-.64429a10.82214,10.82214,0,0,0-2.97961,1.35794,3.08231,3.08231,0,0,1,.74481-.235l-1.11865.91846L27.13194,7.67738c-.46979.07306-.244-.23413-.01452-.53977-.4657.3433-.69147.7395-1.38617,1.21039-.01984-.44659-.28046-.7626.66095-1.54959L24.29344,8.584a3.713,3.713,0,0,0-.78973.11658c-.29084.07459-.528.11334-.426-.05255a8.81185,8.81185,0,0,0-1.99988,1.81186,14.77909,14.77909,0,0,1-2.24743,2.05093,1.75174,1.75174,0,0,1-.41083.64923c-.72205.59537-1.47321,1.08612-2.20587,1.66782a7.5651,7.5651,0,0,0-1.90918,2.34186l-1.37757.47152c-1.05157,1.39814,1.81116-.6799.07624,1.62922-1.06745,1.74783-.92945.22677-1.52033.67742a14.37178,14.37178,0,0,1-.729,1.97471,7.33168,7.33168,0,0,1-1.591,2.12072A5.96474,5.96474,0,0,1,10.03361,22.59315ZM1.96434,42.21342c-.03265-.42481-.10761-1.29056.23743-1.52219C2.63145,41.27268,2.25963,41.55445,1.96434,42.21342ZM6.5648,73.39765a1.74641,1.74641,0,0,1-.40045-1.22818A3.61818,3.61818,0,0,1,6.5648,73.39765Zm59.363,25.045a.21407.21407,0,0,0-.03284.03228C65.03087,98.49668,65.33909,98.49619,65.92778,98.44267Zm1.73352-.301c.146-.1217.11365-.18127.02313-.22125-.07763.15607-.44732.29278-.87958.40668C66.95793,98.40763,67.199,98.41642,67.6613,98.14164ZM61.58293,5.26948l-.31744-.176C62.05693,5.07337,61.81969,5.16419,61.58293,5.26948Z"/><path class="cls-2" d="M4.56847,70.30976a.45161.45161,0,0,1,.19335-.2558C4.637,69.92933,4.54747,69.957,4.56847,70.30976Z"/><path class="cls-2" d="M18.7783,12.55067l.05207-.03989a.20713.20713,0,0,0-.00775-.11032Z"/><path class="cls-2" d="M48.61473,113.11216a1.78464,1.78464,0,0,1-.30658-.88672c-.0545.025-.078.08686-.05041.2041a1.14445,1.14445,0,0,0,.08233.21967C48.40294,112.76835,48.49913,112.92991,48.61473,113.11216Z"/><path class="cls-2" d="M75.777,93.74955l-.90851.64459a2.3519,2.3519,0,0,1,.94867-.34283C75.74107,93.96446,75.4785,93.92289,75.777,93.74955Z"/><path class="cls-2" d="M85.5977,90.60258c.09546-.15192.28369-.22772.3631-.39386l-.18134-.137C85.237,90.55229,84.94163,90.996,85.5977,90.60258Z"/><path class="cls-2" d="M77.47636,94.644c.2724.29114.87055-.12085,1.48224-.65533a1.05215,1.05215,0,0,1-.1181.07879C78.73784,93.45933,78.13982,94.09617,77.47636,94.644Z"/><path class="cls-2" d="M79.10612,93.87364a4.77722,4.77722,0,0,1,.61158-.42029C79.67143,93.21073,79.44273,93.57975,79.10612,93.87364Z"/><path class="cls-2" d="M69.66942,97.16435c.38769-.02277.037-.56079.29242-.474C70.17534,96.07035,67.84807,98.07792,69.66942,97.16435Z"/><polygon class="cls-2" points="78.73 95.48 78.217 95.19 78.02 95.76 78.73 95.48"/><path class="cls-2" d="M72.80241,98.07285l1.24921-.40344c-.05335-.06817.07733-.18017.24689-.29663C73.55748,97.68376,72.71556,97.949,72.80241,98.07285Z"/><path class="cls-2" d="M74.29851,97.37278a2.96534,2.96534,0,0,0,.91662-.50812C75.01945,96.97776,74.577,97.17759,74.29851,97.37278Z"/><polygon class="cls-2" points="77.23 96.477 76.84 96.573 76.01 96.988 77.23 96.477"/><path class="cls-2" d="M60.62718,104.43827l-.69238,1.26264c.059.21759.36658-.04493.61218-.5235C60.64238,104.82688,60.88841,104.35105,60.62718,104.43827Z"/><path class="cls-2" d="M64.10332,102.2349a1.22566,1.22566,0,0,1-.37952-.07757.46522.46522,0,0,0-.28583-.06287l.37537.55072C63.81975,102.40153,63.99156,102.373,64.10332,102.2349Z"/><path class="cls-2" d="M61.96562,105.16917c.06134.21521-.76892,1.99438.22662.47491C62.13359,105.42759,62.82762,104.16337,61.96562,105.16917Z"/><polygon class="cls-2" points="48.665 110.175 48.878 110.471 49.688 109.852 48.665 110.175"/><path class="cls-2" d="M33.70463,101.5493c1.59864.83178.62165-.44349,2.03449.37164.47241-.09131-1.154-.66181-.67828-.71741C33.95769,101.11247,33.50053,100.72569,33.70463,101.5493Z"/><path class="cls-2" d="M35.06084,101.20353a5.55408,5.55408,0,0,0,.56585.03186A2.5236,2.5236,0,0,0,35.06084,101.20353Z"/><polygon class="cls-2" points="100.524 49.686 100.365 50.732 100.673 50.047 100.524 49.686"/><path class="cls-2" d="M101.38133,51.66447l-.63611.25662.6203.6246C101.32426,52.30747,101.24419,51.84806,101.38133,51.66447Z"/><path class="cls-2" d="M.18925,45.16371l.14148.10922c.1944-.1554.24762-.42194.356-.956Z"/><polygon class="cls-2" points="5.084 30.23 4.955 30.468 5.705 30.263 5.084 30.23"/><path class="cls-2" d="M11.44816,18.60264c-.3471.42075-.62884,1.01407-.97589,1.4361C11.10313,19.01991,12.10417,18.94743,11.44816,18.60264Z"/><path class="cls-2" d="M48.3972,84.06748c.08752.02851.11121-.09692.09833-.07287C48.45665,83.9589,48.41429,84.05613,48.3972,84.06748Z"/><polygon class="cls-2" points="49.315 84.241 49.471 84.199 49.347 84.209 49.315 84.241"/><path class="cls-2" d="M49.68358,84.32719l-.00464-.04608-.115.10717c.16552.04816.40149.03943.49487.12494C50.05278,84.32115,49.78685,84.44273,49.68358,84.32719Z"/><path class="cls-2" d="M50.24827,84.96214l.012.02252a.5702.5702,0,0,1,.07776.02765C50.33263,84.93772,50.44438,84.98228,50.24827,84.96214Z"/><path class="cls-2" d="M50.2603,84.98466c-.08277-.022.03583.07324,0,0Z"/><path class="cls-2" d="M50.52428,85.08488c.01147.047.1065.08044.0628.1.12116-.0047.10712-.05023.06122-.1311Z"/><path class="cls-2" d="M50.78184,84.9528l-.06152.01172C50.72575,84.98362,50.73912,84.99308,50.78184,84.9528Z"/><path class="cls-2" d="M50.66154,84.9705c.02289-.049-.01294-.005-.07269.01788l.13147-.02386C50.7119,84.93272,50.72508,84.87638,50.66154,84.9705Z"/><path class="cls-2" d="M50.534,84.81419c-.20672-.03424-.21521.094-.00415.1289C50.48051,84.88847,50.41185,84.84318,50.534,84.81419Z"/><path class="cls-2" d="M50.01805,84.30894c.04193-.016.12518.09863.13965.04431l-.05536-.0766Z"/><path class="cls-2" d="M51.30656,85.29136c.01337-.03619-.019-.106-.01819-.15515l-.08795.02881C51.23662,85.19785,51.31077,85.235,51.30656,85.29136Z"/><path class="cls-2" d="M51.28837,85.13621l.13025-.04352C51.31419,85.06675,51.28923,85.09385,51.28837,85.13621Z"/><polygon class="cls-2" points="50.624 84.85 50.885 84.772 50.848 84.765 50.624 84.85"/><polygon class="cls-2" points="51.689 85.445 51.829 85.33 51.77 85.367 51.689 85.445"/><path class="cls-2" d="M52.0786,85.38621c-.05835.06708.05853.13,0,.16888a.44882.44882,0,0,0,.23187-.113A.22669.22669,0,0,1,52.0786,85.38621Z"/><path class="cls-2" d="M51.6646,85.15147l-.04664-.00812a.16284.16284,0,0,0,.079.12042Z"/><path class="cls-2" d="M51.66344,85.14781l.00116.00366.10034.02Z"/><path class="cls-2" d="M51.24467,84.73216c-.06268.06158.00592.129-.11468.19549C51.21117,84.88444,51.3629,84.84867,51.24467,84.73216Z"/><path class="cls-2" d="M51.42253,85.0521l.146-.051-.1203-.045C51.44591,84.98429,51.46171,85.02879,51.42253,85.0521Z"/><polygon class="cls-2" points="51.634 84.976 51.569 85.001 51.613 85.016 51.634 84.976"/><path class="cls-2" d="M52.21281,85.25248a.3071.3071,0,0,1,.1864-.04419.78414.78414,0,0,0-.21484-.04809C52.17149,85.19273,52.13469,85.25034,52.21281,85.25248Z"/><polygon class="cls-2" points="53.061 85.234 53.05 85.215 53.048 85.233 53.061 85.234"/><path class="cls-2" d="M52.05315,85.16532a.56981.56981,0,0,1,.13122-.00512c.0058-.01477.00751-.0246-.01031-.02082A.09831.09831,0,0,0,52.05315,85.16532Z"/><path class="cls-2" d="M52.61345,85.32871a.5985.5985,0,0,0-.09137-.0628C52.54777,85.30088,52.602,85.35606,52.61345,85.32871Z"/><path class="cls-2" d="M51.97423,85.22251a.3119.3119,0,0,0,.07892-.05719.35053.35053,0,0,0-.09406.02588A.12893.12893,0,0,1,51.97423,85.22251Z"/><path class="cls-2" d="M52.81438,85.20054l-.05152.01a.47876.47876,0,0,1,.174.139c.0868-.04712.10468-.08362.1109-.11646l-.25134-.01861Z"/><path class="cls-2" d="M52.53319,85.201c.04626-.10584.16882-.14636.10046-.266-.14691.00116-.1076.08569-.19916.12591.24146-.01062-.073.05628.09748.12769a.45291.45291,0,0,1-.13276.01965.9165.9165,0,0,1,.12287.05762l-.00525-.007-.00116.00031.00037-.00165c-.00971-.01386-.0127-.02222-.00135-.01392l.00519-.002a.16338.16338,0,0,1,.01325-.0401c.069.02527.00958.02844-.01325.0401l-.00384.01587.00079.00134.246-.0484A.63109.63109,0,0,0,52.53319,85.201Z"/><path class="cls-2" d="M51.37852,84.67869l.01905-.01154c.086.05249.18658.20636.16809.21814a.88808.88808,0,0,0-.072-.27752c-.01917.0119-.04053.05194-.09327.03149-.0415-.04.00953-.05078.01325-.08606C51.37627,84.57572,51.28453,84.60917,51.37852,84.67869Z"/><path class="cls-2" d="M52.12022,84.75627l-.00049.05633c-.1087-.03363-.092.03748-.11065.07886l.20184-.03211Z"/><polygon class="cls-2" points="53.055 85.402 53.174 85.243 53.084 85.288 53.055 85.402"/><polygon class="cls-2" points="53.34 85.372 53.409 85.312 53.348 85.273 53.34 85.372"/><path class="cls-2" d="M59.47679,82.5189l-.10754-.03229a.2096.2096,0,0,1-.10669.127C59.39317,82.58805,59.57854,82.56919,59.47679,82.5189Z"/><path class="cls-2" d="M56.03734,84.80015a.48918.48918,0,0,0,.20349-.00061C56.13115,84.77146,56.03191,84.70658,56.03734,84.80015Z"/><path class="cls-2" d="M56.45012,84.71934l-.04749-.009a.40873.40873,0,0,1-.1618.08917A.15882.15882,0,0,0,56.45012,84.71934Z"/><path class="cls-2" d="M54.34825,85.25877l-.05066-.00495C54.2924,85.27262,54.3,85.28318,54.34825,85.25877Z"/><path class="cls-2" d="M54.42174,85.24851l.07812-.01544a.264.264,0,0,1-.09295-.00006A.02867.02867,0,0,1,54.42174,85.24851Z"/><path class="cls-2" d="M59.75792,81.14091c-.145-.29492-.03864-.23444-.20972-.46405l.09863.01208c-.00055-.083-.14141-.20178-.06024-.253.19342-.20135-.09643-.88244-.18713-1.36291-.20966.21966.00452-.25672-.20166-.15741.04559-.06006.03955-.13635.13324-.104-.18878-.16479-.12653-.3703-.37921-.37909.035-.06549.111-.02594.12664-.07061-.02435-.00562-.09637-.01923-.08184-.06507.01452-.04559.0672-.01123.116-.001-.17627-.18506-.3482-.05347-.504.07281-.01374-.14685-.06525-.18512-.21613-.14355.01563-.074.01068-.1709.13294-.091-.04834-.06482-.31189-.39972-.41834-.27594.00519-.04681-.08124-.07586-.10876-.07342a1.3788,1.3788,0,0,0-.29273-.2179l.025.04871c-.16236.121-.14136-.04273-.27131-.09619l.01368-.01477c-.20142-.28235-.1474-.01343-.34467-.3039l-.04132.11365c-.14374.21509-.173-.26282-.38507-.24988l.03027.08985c-.12121.03759-.11072-.43171-.19787-.504-.01245-.02966.04638-.01953.082-.02252-.19654-.24384-.09174.13128-.29041.09362-.005-.0924.1214-.18444-.00158-.24768-.04511-.09143-.45923.1319-.58692-.0711.02136.07428.04035.14776-.06042.16937-.13684-.01465-.30872-.33667-.47889-.16052a.07645.07645,0,0,1-.014-.05536c-.11585.02637-.35864.02161-.4383.12012-.03808-.43006-.67065.11407-.62622-.261l-.32714-.00354.01074-.03857a.3262.3262,0,0,0-.35956.14349c-.04688-.02667-.01148-.06177-.007-.08173-.30066-.08288-.33557-.06317-.58124.13025l-.02978-.123c-.06293.07409-.44916-.178-.73712-.0019a.0872.0872,0,0,1,.02734-.05871c-.31085.16961-.86523-.22925-.90588.24017l-.19318.15436c.28387-.024.0011.19983.13013.24927-.09912.04559-.30481-.06745-.17963-.12335l.0257.0169c-.00452-.24084-.36072.00226-.39472-.15a8.96373,8.96373,0,0,0-1.60071.50818l.14246.13177-.16748.08161c-.06348-.01252-.12958-.0904-.00812-.15186-.11389-.054-.15332.189-.13446.22406-.26141.07776-.02386-.23688-.09344-.19739l-.08789.071.03259.00457c-.0365.11255-.001.18122-.13983.2627-.10431.028-.10694-.063-.14423-.04559-.0072-.01081-.02209-.00788-.05444.03155l-.20435.13165.1637.05671c-.04114.12085-.18121.129.00488.1925-.29077-.1142-.72644.51611-.83417.55328a.85316.85316,0,0,1-.22253.44416c.051-.02216.199.04834.09845.16314-.2558-.22686-.27136.16962-.542.19281.18573-.04772-.1435.46192.13861.36316-.06757.11884-.12067-.03454-.22852.04157.02136.3465-.25488.71179-.19427,1.14252.04413.004.10907-.06482.17737.01849a2.65243,2.65243,0,0,0-.20264.23328c.03088.08319.25671.04162.13232.2116.03278-.02752.08258-.06652.10559-.01654a1.77507,1.77507,0,0,0,.387,1.13276,4.79527,4.79527,0,0,1,.63629,1.04077c-.0213-.13611.03735-.093.09875-.04059-.025-.05084.07343-.08.10553-.13141l.13807.33344c.14758-.09375.28088.19976.40124.08685l-.09766-.03351c.12165-.044.138-.18329.16-.32751.08246.06134.14508.12811.23431.18762a7.70775,7.70775,0,0,0,4.379,1.17572l.02441-.00153a.14505.14505,0,0,1-.20593-.0086c-.11578.07257-.04993.39923.0542.58282.00409-.04315.005-.083.12775-.13983-.04358-.05463-.269-.13025-.16547-.21838.15979-.04932.13.03808.2085.08905-.059-.10987.13964-.17414.155-.31586.15246-.003.29791-.01788.44641-.02771l.01226.0072.09089.00208-.06134-.01185c.16015-.01129.32733-.01068.48278-.03-.00518.01635-.01733.03289-.00256.04852l.08533-.02972c.09625.09722-.14771.17022-.02869.20617-.11017.08789-.23651.22687-.41473.17719l-.04413-.15033a.11.11,0,0,0,.16272.03192c-.067.07288-.27521-.18506-.3396.01843l.12683.098c-.11646.0868-.26434.2547-.42212.21241.07562.15014.03461-.01831.15295.154-.10614-.21417.40241-.0116.23334-.23438.12793.19538.20185.07361.36908.2323-.00983-.04974-.063-.09021.0719-.0802a.21149.21149,0,0,1,.02405-.04748l.00934.00275L54.323,85.204c.00482-.00818.00519-.00977-.00293-.00177a.17448.17448,0,0,1-.07519-.069c.05267-.12213.25787-.14179.31811-.21344.07959.01263-.02362.062.02576.10931l.09015-.104c.02661.11072.23553.15082.06262.24579l.1665-.02375a.32745.32745,0,0,0,.32245-.02233c.084.00647.16864-.16449.121-.06391l.23937-.13226.00965.02649c.26007-.056.45386-.3252.80212-.24475a.61845.61845,0,0,1,.291-.15387l.06586.07727c.09069-.0744.35528-.06055.35485-.17249.23212.1753.526-.21753.71454-.29394l-.06256-.1106a1.11011,1.11011,0,0,0,.31812-.31628l-.07483-.08387c.05993-.1596.34729-.16278.51745-.33416.01667.04223-.03509.07654-.08459.08368.39081-.00452.30609-.54224.60449-.62049a.13784.13784,0,0,1,.10046-.126.02836.02836,0,0,0-.00543.01654l.01789-.02076a.85468.85468,0,0,0,.10266-.0418.3217.3217,0,0,0-.094.03.71385.71385,0,0,0,.08124-.19537l.11945.03845.00689-.01739c.07831-.0437-.01648-.083-.11389-.0968a.34924.34924,0,0,0-.01037-.12378c.20233.04535.03863-.202.26043-.1836-.062-.08813.08686-.3952-.108-.49933.0271.00641.04663-.01013.03546.02814a.2211.2211,0,0,0,.05591-.23138l.15771.00152c-.04992-.07635-.10974-.15069-.16564-.21979C59.59959,81.0554,59.65691,81.00913,59.75792,81.14091Zm-.8302-1.82391-.00043-.00092.001.00073Zm-.42035-.91657c.00012.03748-.05542.05945-.12756.08142l.05511.00128a.09912.09912,0,0,1-.0459.09546c-.0246-.02582-.0404-.05389-.066-.07947l.05683-.01727-.075-.00452c-.01092-.01074-.01666-.02282-.02777-.0335a.99311.99311,0,0,0,.013-.13544Zm-10.05353-.88922c-.04925.0766-.048.03747-.04877-.00452Zm4.794,7.13678.0036-.01056.02081-.00128Zm1.77453.40631.00324-.00653C55.12572,85.077,55.08983,85.06474,55.02238,85.0543Zm.54309-.514c-.36474.057-.223.43793-.56524.35492-.14759-.10962-.05585-.26166-.10138-.35187.14435-.0783.25451.033.3598.00544l-.14343-.03351a.2093.2093,0,0,1,.19806-.08679.233.233,0,0,0-.13813-.01966,7.32057,7.32057,0,0,0,.78656-.23169.643.643,0,0,1-.251.43073C55.53282,84.71562,55.59062,84.50144,55.56547,84.54026Zm1.12207-.65558c.05127-.025.09839-.057.14887-.08325a.363.363,0,0,1-.06763.17658A.22344.22344,0,0,0,56.68754,83.88468Zm.6684-.29425c-.02209-.01159-.03186-.03473-.0459-.05389.0506-.0318.10675-.05438.15656-.08759l.10968.15747-.087-.17077c.05432-.03644.09094-.07685.14282-.11383a1.1164,1.1164,0,0,1,.17469.30194A1.39846,1.39846,0,0,1,57.35594,83.59043Zm1.23737-.59894-.09027-.02557-.06781.19348-.09717-.42621c.07153-.07238.12274-.149.186-.2232A.72085.72085,0,0,1,58.59331,82.99149ZM59.221,81.084c.00653-.039.01233-.07818.01715-.11755.0752.0556.158.09125.22907.15509A1.2345,1.2345,0,0,0,59.221,81.084Z"/><path class="cls-2" d="M53.839,85.35746l.1211-.04083a.14036.14036,0,0,1-.11328-.03088C53.8513,85.3137,53.87749,85.35258,53.839,85.35746Z"/><path class="cls-2" d="M52.79948,84.62431c-.01721.014-.03552.00006-.05255.01434l.00238.05621C52.82133,84.69431,52.87242,84.65128,52.79948,84.62431Z"/><path class="cls-2" d="M53.55089,84.92137c-.0196.143.06811.092.15374.04119-.01464-.10089-.0863-.06311-.16833-.04052A.05548.05548,0,0,1,53.55089,84.92137Z"/><path class="cls-2" d="M53.441,84.93064c-.0083.05677.03138.012.07624-.00433A.18639.18639,0,0,1,53.441,84.93064Z"/><path class="cls-2" d="M54.55986,85.23539c-.02643.13446.2478-.19415.036-.09454C54.55192,85.12083,54.58861,85.27293,54.55986,85.23539Z"/><polygon class="cls-2" points="53.698 84.653 53.623 84.632 53.657 84.756 53.698 84.653"/><path class="cls-2" d="M54.13267,84.65367c.004.02069-.0111.03485-.03033.04632.07977-.00458.1698.01032.1626-.02618Z"/><path class="cls-2" d="M55.67491,84.32206c-.0235.03833-.06921.06934-.03668.103l.12549-.07514C55.76451,84.30479,55.72,84.29075,55.67491,84.32206Z"/><polygon class="cls-2" points="48.195 83.789 48.259 83.901 48.247 83.788 48.195 83.789"/><path class="cls-2" d="M48.48558,83.76408l-.0694.14941.1391-.08215C48.53013,83.82261,48.48094,83.80546,48.48558,83.76408Z"/><path class="cls-2" d="M46.34843,46.27842c.00855-.11029-.09594-.07068-.11486-.08734C46.2578,46.37608,46.37566,46.2736,46.34843,46.27842Z"/><polygon class="cls-2" points="46.621 48.084 46.578 48.054 46.691 48.316 46.621 48.084"/><path class="cls-2" d="M46.68883,49.76719c.16974-.16724-.05689-.608-.00641-.91064l.03869-.051-.14862-.12964A6.46,6.46,0,0,1,46.68883,49.76719Z"/><path class="cls-2" d="M46.34447,50.51255l.00506.17163c.06641-.05914.07019.191.01044-.21051Z"/><path class="cls-2" d="M46.34447,50.51255c-.01453-.17712-.052.11914,0,0Z"/><path class="cls-2" d="M46.42979,51.3289l-.07544-.22986c-.03808.05109-.03527.25946-.06952.184C46.33263,51.52061,46.37047,51.46885,46.42979,51.3289Z"/><path class="cls-2" d="M46.57268,51.54246l-.03321-.11932C46.52354,51.44529,46.51939,51.47764,46.57268,51.54246Z"/><path class="cls-2" d="M46.53947,51.42314c.0268-.03547.08435-.04236-.02679-.11652.054.01794.00037-.02979-.0434-.1366Z"/><path class="cls-2" d="M46.609,50.9506c-.0484-.44495-.17059-.3725-.121.07269C46.51915,50.89024,46.53483,50.71983,46.609,50.9506Z"/><path class="cls-2" d="M46.87743,49.844l.04357-.17712-.06713-.14826C46.88713,49.59263,46.82207,49.85752,46.87743,49.844Z"/><path class="cls-2" d="M46.51536,52.51286c-.02014.09008-.03308.25934-.0885.27472.03888.01208.09589-.0849.14325-.10541Z"/><path class="cls-2" d="M46.57011,52.68217l.08185.25323C46.64464,52.705,46.611,52.665,46.57011,52.68217Z"/><polygon class="cls-2" points="46.612 51.157 46.779 51.654 46.773 51.572 46.612 51.157"/><polygon class="cls-2" points="46.54 53.883 46.488 53.772 46.39 53.632 46.54 53.883"/><path class="cls-2" d="M46.54832,54.42265c-.08026-.10285-.1123.15674-.16516.04571a1.48988,1.48988,0,0,0,.16455.4552A.973.973,0,0,1,46.54832,54.42265Z"/><path class="cls-2" d="M46.662,53.3751a.28435.28435,0,0,0-.0943.20984l.09967-.1084Z"/><path class="cls-2" d="M46.67052,53.47276l-.00318.00378.009.21906Z"/><path class="cls-2" d="M46.71763,52.25291c.06873.14764.15271.45849.22437.14789C46.86235,52.297,46.82139,52.47489,46.71763,52.25291Z"/><path class="cls-2" d="M46.69212,52.92637l.09357.28864.00653-.27491C46.76445,52.94731,46.72661,52.99931,46.69212,52.92637Z"/><polygon class="cls-2" points="46.828 53.347 46.786 53.215 46.783 53.317 46.828 53.347"/><path class="cls-2" d="M46.712,54.671a1.24271,1.24271,0,0,1,.08575.38873,3.56027,3.56027,0,0,0-.00158-.47351C46.76115,54.56693,46.69633,54.50376,46.712,54.671Z"/><polygon class="cls-2" points="46.904 56.494 46.922 56.47 46.903 56.466 46.904 56.494"/><path class="cls-2" d="M46.81419,54.55857a.37331.37331,0,0,0-.05658-.25183,2.49783,2.49783,0,0,1,.03858.27948C46.812,54.59489,46.82207,54.596,46.81419,54.55857Z"/><path class="cls-2" d="M46.72526,55.543a1.88656,1.88656,0,0,0,.04352-.2077C46.73942,55.39756,46.69591,55.52342,46.72526,55.543Z"/><path class="cls-2" d="M46.68162,54.15562l-.00592-.01727C46.65544,54.17845,46.6663,54.17289,46.68162,54.15562Z"/><path class="cls-2" d="M46.68162,54.15562a.76305.76305,0,0,0,.076.15112,1.39871,1.39871,0,0,0-.04919-.19281A.17293.17293,0,0,1,46.68162,54.15562Z"/><path class="cls-2" d="M46.89293,55.95524l-.02045-.11011a1.28305,1.28305,0,0,1-.1051.39411c.06232.181.10193.21655.13574.22674l-.02777-.54761Z"/><path class="cls-2" d="M47.11857,55.51676c-.03155-.325-.10662-.22149-.16766-.41272.06555.52369-.071-.14666-.10382.23767a2.20047,2.20047,0,0,1-.04932-.282c-.00628.09571-.0155.18817-.029.27558l.00574-.01252-.00049-.00244.00171.00037c.01172-.02362.01935-.03174.01343-.00556l.003.01081a.10386.10386,0,0,1,.0423.02075c-.01087.15393-.02613.026-.0423-.02075l-.01642-.00525-.00122.00207.098.52234a2.95073,2.95073,0,0,0-.03741-.49847C46.949,55.42552,47.01439,55.68858,47.11857,55.51676Z"/><path class="cls-2" d="M47.19127,52.66691a.02687.02687,0,0,1-.02387.01843C47.18278,52.71855,47.19267,52.73087,47.19127,52.66691Z"/><path class="cls-2" d="M46.89677,53.16233a.782.782,0,0,0,.24372-.27466.27932.27932,0,0,1-.05957-.19152c.0252-.11005.05151-.00281.08648-.01081-.03338-.07306-.09424-.2575-.13116-.01892l.01709.03632C47.03026,52.917,46.91392,53.1984,46.89677,53.16233Z"/><path class="cls-2" d="M47.01353,54.12974l.08387.43469.07708-.2298-.05505.01526C47.12346,54.0991,47.05876,54.15775,47.01353,54.12974Z"/><polygon class="cls-2" points="46.855 56.549 46.737 56.499 46.916 56.74 46.855 56.549"/><polygon class="cls-2" points="46.912 57.117 46.812 57.104 46.883 57.25 46.912 57.117"/><path class="cls-2" d="M48.35832,71.37644c.124.23651.29077.507.32361.39307l-.00421-.13037A.89153.89153,0,0,1,48.35832,71.37644Z"/><path class="cls-2" d="M47.38658,62.93565a1.92117,1.92117,0,0,0-.03894.407C47.39708,63.1442,47.48009,62.98106,47.38658,62.93565Z"/><path class="cls-2" d="M58.82762,62.18754c-.014-.08-.03369-.11517-.05792-.11456C58.78239,62.15519,58.79985,62.20243,58.82762,62.18754Z"/><path class="cls-2" d="M47.37779,63.80882l.02014-.08692a1.86489,1.86489,0,0,1-.05029-.37921A.62423.62423,0,0,0,47.37779,63.80882Z"/><path class="cls-2" d="M47.20073,44.45042a1.56379,1.56379,0,0,1,.184-.18512A.74974.74974,0,0,0,47.20073,44.45042Z"/><path class="cls-2" d="M47.04472,59.4094c-.01629-.11993-.01343-.01819,0,0Z"/><path class="cls-2" d="M47.03075,59.25266l.00238-.10607C47.014,59.13279,47.00371,59.14713,47.03075,59.25266Z"/><path class="cls-2" d="M47.0634,59.57682a1.29408,1.29408,0,0,1-.00372-.19592c-.0055.02423-.01081.03461-.015.0285Z"/><path class="cls-2" d="M59.84086,47.82786l-.00677-.23669-.02271.05273a.92074.92074,0,0,1-.13153-.56006c.04017-.21973.11463-.11114.12311-.19794.01294.00074.01947-.02856.00739-.13324l.01959-.51409-.14557.20489c-.06549-.21448-.00085-.51715-.1546-.24561a1.36765,1.36765,0,0,0-.23016-1.25976,4.84677,4.84677,0,0,0-.804-.82123,8.07694,8.07694,0,0,1-.99823-.43707c.08008.06915.06793.23584-.23718.0885.2428-.27026-.535-.36194-.7442-.6568.20282.20551-.97443-.19592-.63941.11786-.2746-.08276.009-.12641-.19092-.24622-.69439-.0011-1.49041-.29419-2.33966-.26172-.01342.04383.125.11243-.05468.17615L52.849,42.678c-.16681.023-.1466.25641-.45367.113.04431.03486.10962.08863-.00025.10694a7.09183,7.09183,0,0,0-2.49176.29223,14.6785,14.6785,0,0,0-2.496.92774c.25873-.08783.122.01532-.02252.1474.10931-.06775.06842.08441.12653.11285a2.62388,2.62388,0,0,0-.64765.48438c.02588.18921-.36206.82855-.18939.953.00641-.08307.01141-.168.02612-.25177.04932.1864.17713.08673.32208-.00366.01355-.00885.0279-.01257.04181-.02106a1.97741,1.97741,0,0,0-.10766.652c0,2.027.16363,5.22467.48834,9.57294a.13458.13458,0,0,0-.0094-.0437l-.05518.01458c.01374.142.05475.23249.07288.14264.00983.13165.02033.268.03052.40174-.10022-.23493-.40082-.04749-.56183.19067.0437.00482.0835.00183.16248.267.04669-.09863.08026-.60785.187-.38721.07818.353-.01252.29511-.05146.47278.09906-.13947.19141.31372.3335.35272.02173.27814.0415.54267.06445.82929.03705.46356.07032.89972.10431,1.341-.0155-.01141-.03045-.01172-.044.01624l.03411.19952c-.09393.19293-.17846-.36676-.20935-.10852a2.07386,2.07386,0,0,1-.20843-.94037l.14722-.08331c-.044.01165-.07148.25506-.01642.358-.08026-.15271.16083-.59808-.05286-.75543l-.0849.27429a2.29993,2.29993,0,0,1-.26514-.92694c-.13879.1651.02338.07623-.13427.32953.20331-.22437.05865.86169.26324.51025-.18561.26123-.05346.43091-.20294.76477.0495-.01385.08759-.12091.08466.163a.28661.28661,0,0,1,.04919.05841l-.00232.01934.00476-.016c.00849.01166.01013.01264.00165-.00592a.33.33,0,0,1,.06561-.14966c.12653.13105.15723.58.22876.72718-.01117.16925-.06323-.06568-.11.02984l.10693.21985c-.11035.03095-.153.45862-.24786.06934l.02136.35516a1.43509,1.43509,0,0,0,.00885.67627c-.01227.169.15423.41376.05609.27429l.109.55152-.02765.00708a5.4317,5.4317,0,0,1,.1004,1.75866,2.35342,2.35342,0,0,1,.07343.683l-.09345.066c.04749.2351-.05505.71746.05078.81353-.24664.26984.00464,1.15265-.025,1.57093l.12738.01019a5.71577,5.71577,0,0,0,.11658.91388l.1112-.02582a6.85926,6.85926,0,0,1-.03417,1.27435c-.04352-.03216-.03357-.15466-.01026-.24224a1.53443,1.53443,0,0,0-.0144.89062,9.94635,9.94635,0,0,0,.26037,1.09454,1.62771,1.62771,0,0,1,.253.36005.18.18,0,0,0-.03393-.02887l.048.05493a1.7236,1.7236,0,0,0,.13086.21942c-.03821-.06555-.069-.14032-.10406-.19079a1.57586,1.57586,0,0,0,.42364.31146l-.00018.142.03912.02045c.137.1369.15405.028.12012-.09913a.68551.68551,0,0,0,.23859.05195c.0415.24438.42974.1242.53051.37573.14014-.049.82263.14587.94214-.0586.00012.02808.04328.04865-.04046.03644a.96739.96739,0,0,0,.50024.06842l.0534.16046.4-.16088c.21789.11065.3117.17236.0722.27172a7.40651,7.40651,0,0,0,.92652-.19354l-.02576.0979c.16711.00263.43268-.12927.53149-.04523A8.905,8.905,0,0,0,55.81,72.02946c-.26019-.22962.47827.00543.44983-.23.0752.04919.21924.04132.085.14905.45179-.2212.79566-.17353,1.03949-.53882.09253.02527-.05352.15.01709.15527.03369-.03705.12671-.14514.20087-.14911.07434-.00262-.04028.10169-.10614.17291.52551-.35577.4068-.6192.28979-.76727a.50042.50042,0,0,0,.29645-.59058c.08417-.079.21619-.25958.11536.14081a1.42352,1.42352,0,0,0,.09973-.30456,2.22125,2.22125,0,0,0,.037-.41474c.00329-.23858-.0116-.459-.09107-.469a.458.458,0,0,0-.002-.28162c.01916-.38043.03241-.41327.02991-.78772l-.02948.10291c-.18732-.15387-.03382-.31268-.04493-.61524l.01941.0094c.16651-.68621-.05536-.30188.134-.97747l-.1214.03149c-.25537-.07629.18139-.5979.10455-.999l-.07642.13946c-.07574-.22174.38349-.58569.42884-.80041.02533-.046.03137.07684.04413.1438.186-.55909-.15241-.08283-.16333-.50867.08929-.07294.209.11365.24188-.17023.07739-.13727-.22272-.8443-.03333-1.22284-.071.08136-.14178.16217-.17736-.038-.00336-.30365.30249-.79846.11682-1.08551.0205-.03711.03863-.05036.05493-.05078a3.64789,3.64789,0,0,0-.13391-.90338c.42828-.18171-.09088-1.45.29022-1.4151l.03607-.711.03742.02166a1.16533,1.16533,0,0,0-.09406-.78607c.03455-.10266.06378-.02319.083-.01288a2.07211,2.07211,0,0,0-.02374-1.29638l.12811-.04792a9.20792,9.20792,0,0,0,.17608-1.60766.10417.10417,0,0,1,.04987.07587c-.08813-.74335.47278-1.73163.04126-2.03241l-.07794-.49176c-.07752.62371-.18909-.10651-.28131.14587-.00971-.24762.179-.627.18158-.323l-.0257.04578c.22791.127.13458-.77259.29285-.74555.0675-1.23376.26324-2.43042.31762-3.59192l-.188.12659.02551-.404c.04608-.10474.1477-.13794.13061.15106.10858-.14862-.0708-.48791-.11029-.49707C59.71507,47.20957,59.83189,48.00126,59.84086,47.82786Zm-.0816-.98846-.0329.07989C59.69462,46.73734,59.7252,46.78855,59.75926,46.8394ZM47.24211,60.72276l.00653.009C47.21635,60.93144,47.22966,60.86045,47.24211,60.72276Zm.86633,4.26422c.00672.11883.01245.23047.0188.34643a1.04457,1.04457,0,0,1-.12433-.28039C48.04069,65.06492,48.08153,65.0203,48.10844,64.987ZM47.487,56.32023c.01081.14227.02283.29334.034.43793A.67835.67835,0,0,1,47.487,56.32023Zm.03406.54279.00842.00378.00275.03516Zm.10931,5.509c-.08227-.43457.123-.1994.08783-.27338-.021-.82611-.41656-.675-.31457-1.36914.11389-.28094.26581-.03186.358-.09912a3.62454,3.62454,0,0,1-.0224.79614l.04212-.30255a.94116.94116,0,0,1,.074.47913.437.437,0,0,0,.02558-.12293q.06225.87315.11456,1.67554A1.87248,1.87248,0,0,1,47.63035,62.37205Zm.50525,4.26178a.11422.11422,0,0,1,.05561-.04749c.007.15113.01165.28632.01782.43164l-.18836.01667.19086.04333c.00586.13947.01215.28259.01721.41663a.55236.55236,0,0,1-.33758-.05817A5.471,5.471,0,0,1,48.1356,66.63383ZM47.925,69.59745l.08173-.09765-.09839-.3877a3.56194,3.56194,0,0,1,.3703.48877c.00037.06934.00238.15033.00238.21716a1.48625,1.48625,0,0,0,.06671.4245A1.11738,1.11738,0,0,1,47.925,69.59745Zm3.57886,2.41547a.4253.4253,0,0,0,.01581-.23029c.0971.00916.18792.02088.28943.0282C51.70579,71.87718,51.61015,71.949,51.50383,72.01292Zm6.28894-1.34357c-.06195.03644-.0672-.04559-.07092-.1496l-.0271.097c-.07306.04217-.109.03473-.13086.00732a1.30714,1.30714,0,0,0,.14666-.207l.0113.10266c.01056-.05.02221-.10418.02942-.16015.011-.02.03112-.03729.04083-.05762a.70735.70735,0,0,0,.17712-.153A1.32822,1.32822,0,0,1,57.79277,70.66935Z"/><path class="cls-2" d="M46.89281,58.16679l.05188.2586a.532.532,0,0,1,.02087-.23828C46.93791,58.19517,46.90123,58.24827,46.89281,58.16679Z"/><path class="cls-2" d="M47.27318,57.8928c.09955-.02875.05224-.19012.019-.37189l.00256.03241C47.149,57.51042,47.21129,57.70207,47.27318,57.8928Z"/><path class="cls-2" d="M47.28545,57.47868a1.00911,1.00911,0,0,1-.01587-.16925C47.21117,57.29246,47.26317,57.37907,47.28545,57.47868Z"/><path class="cls-2" d="M47.15806,59.79905c.01941-.08868-.13342-.04462-.09606-.0968C46.92583,59.61521,47.26213,60.26872,47.15806,59.79905Z"/><polygon class="cls-2" points="47.584 57.888 47.595 57.718 47.475 57.794 47.584 57.888"/><path class="cls-2" d="M47.6168,59.17124l.01185-.29528c-.02063.006-.03583-.03016-.04883-.07508C47.59007,58.98149,47.58037,59.181,47.6168,59.17124Z"/><path class="cls-2" d="M47.57982,58.80088a.69958.69958,0,0,0-.03925-.23388A1.59221,1.59221,0,0,0,47.57982,58.80088Z"/><path class="cls-2" d="M47.921,62.45945c-.03509-.07452-.05981-.19189-.09784-.14007l.05774.31707C47.926,62.66618,47.94621,62.57731,47.921,62.45945Z"/><path class="cls-2" d="M46.48839,45.32725a2.73379,2.73379,0,0,0-.13745.30023,1.73173,1.73173,0,0,1,.13464-.18127Z"/><path class="cls-2" d="M46.378,46.00468l.1397.1864c-.004-.066-.01635-.19708.028-.24426Z"/></g></g></svg>