<svg xmlns="http://www.w3.org/2000/svg" viewBox="0 0 104.16942 117.48157"><defs><style>.cls-1{fill:#1d1d1b;}.cls-2{fill:#c66e6e;}.cls-3{fill:#bf5c5c;}</style></defs><title>Frustrated_03</title><g id="Layer_2" data-name="Layer 2"><g id="Layer_1-2" data-name="Layer 1"><path class="cls-1" d="M103.12092,52.54571a50,50,0,1,0-60.06739,48.98584l4.3429,6.32794,5.72449,8.34106,5.72442-8.34106,4.3429-6.32788A50.01724,50.01724,0,0,0,103.12092,52.54571Z"/><path class="cls-2" d="M100.66942,52.91181c.058-.46271-.36859-.29681-.44062-.36609C100.28587,53.31293,100.77922,52.8946,100.66942,52.91181Z"/><path class="cls-2" d="M100.94078,60.67322l-.15051-.16461a9.14244,9.14244,0,0,1,.21356,1.2041A7.55053,7.55053,0,0,0,100.94078,60.67322Z"/><path class="cls-2" d="M99.16154,67.72553c.86957-.44934.75446-2.53656,1.21424-3.749l.205-.17188-.4317-.7c-.14264.7702-.17407,1.69324-.34948,2.52405A9.00739,9.00739,0,0,1,99.16154,67.72553Z"/><path class="cls-2" d="M96.3759,70.75758c.34534-.10627-.09229.84478.41742-.7768a1.36708,1.36708,0,0,1-.12641.12042C96.61253,70.24323,96.53111,70.43641,96.3759,70.75758Z"/><path class="cls-2" d="M96.66691,70.1012c.26673-.69214-.40307.36054,0,0Z"/><path class="cls-2" d="M95.42107,73.30433l.22674-.97626c-.23767.11469-.67578.86249-.63275.52637C94.6768,73.79572,94.91466,73.69312,95.42107,73.30433Z"/><path class="cls-2" d="M95.454,74.3689l.14362-.50348C95.49449,73.91456,95.41112,74.02283,95.454,74.3689Z"/><path class="cls-2" d="M95.90068,72.80543l-.303,1.06c.169-.07482.38422.01258.15906-.47827C95.90526,73.55945,95.823,73.27778,95.90068,72.80543Z"/><path class="cls-2" d="M96.25731,72.29493c.35235-.44617.71979-1.07672.56213-.05158C97.46208,70.43873,96.8867,70.51374,96.25731,72.29493Z"/><path class="cls-2" d="M99.74846,68.31641l.43182-.66919-.02643-.70678C100.16594,67.29389,99.52171,68.29133,99.74846,68.31641Z"/><path class="cls-2" d="M92.06731,78.39661c.09356.13617.51269-.05432.71521-.011l.242-.70905C92.73674,77.93665,92.28038,78.48041,92.06731,78.39661Z"/><path class="cls-2" d="M92.78252,78.38563l-.3667,1.06988C92.96391,78.64356,92.956,78.42475,92.78252,78.38563Z"/><polygon class="cls-2" points="96.075 74.892 96.426 73.033 95.919 75.209 96.075 74.892"/><polygon class="cls-2" points="89.632 81.707 89.723 81.004 89.484 82.201 89.632 81.707"/><path class="cls-2" d="M87.90153,83.81458c.08344-.5285-.77679.12769-.59295-.34534a7.26009,7.26009,0,0,0-.91309,1.789A4.47777,4.47777,0,0,1,87.90153,83.81458Z"/><path class="cls-2" d="M85.928,86.14588a6.94014,6.94014,0,0,0,.46747-.88763A3.6619,3.6619,0,0,0,85.928,86.14588Z"/><path class="cls-2" d="M91.24254,80.9098a1.2279,1.2279,0,0,0-.8631.42157l.59766-.08179Z"/><path class="cls-2" d="M90.99718,81.2458l-.02008.00378c-.29126.36517-.49329.61847-.5799.727Z"/><path class="cls-2" d="M91.30968,80.82441l-.06714.08539C91.30125,80.90186,91.32774,80.8902,91.30968,80.82441Z"/><path class="cls-2" d="M94.32756,77.24824c-.14105.66815-.66138,1.97046.35882,1.0393C94.68974,77.7356,94.1096,78.26356,94.32756,77.24824Z"/><path class="cls-2" d="M92.06541,80.71174c.25775-.297.53974-.57825.77924-.88983-.10553-.044-.35321.04065-.28015-.29755C92.43065,79.93946,92.231,80.31226,92.06541,80.71174Z"/><polygon class="cls-2" points="91.826 81.251 92.065 80.712 91.773 81.038 91.826 81.251"/><path class="cls-2" d="M87.602,85.02088a3.85948,3.85948,0,0,1-.99969,1.35748,8.02351,8.02351,0,0,0,1.48535-1.36023C88.05144,84.85749,88.06493,84.48164,87.602,85.02088Z"/><path class="cls-2" d="M89.33922,83.26472l-.05609.09875C89.35655,83.33588,89.40233,83.3025,89.33922,83.26472Z"/><polygon class="cls-2" points="81.984 90.387 82.109 90.387 82.082 90.314 81.984 90.387"/><path class="cls-2" d="M88.22093,84.98872a1.68291,1.68291,0,0,0,.613-.913,11.41663,11.41663,0,0,1-.74634.94244C88.10417,85.09034,88.12822,85.12336,88.22093,84.98872Z"/><path class="cls-2" d="M84.83574,87.44892a8.18172,8.18172,0,0,0,.78656-.41876C85.344,87.10633,84.82707,87.304,84.83574,87.44892Z"/><path class="cls-2" d="M89.08073,83.41169l.03546-.06787C88.93724,83.4054,88.985,83.41956,89.08073,83.41169Z"/><path class="cls-2" d="M89.08073,83.41169a3.39214,3.39214,0,0,0-.24676.664,6.02457,6.02457,0,0,0,.44916-.71222A.74732.74732,0,0,1,89.08073,83.41169Z"/><path class="cls-2" d="M82.07432,93.73072c-.077-.191.12732-.542.48572-.906a3.52661,3.52661,0,0,1,1.44983-.97546c.7359-.96442-.6991-1.48828-1.90137-1.462.07666.159.179.28418-.59588,1.19709.44317-.07373,2.34393-1.21906,1.78717-.31708-1.11633,1.13031-1.074.71948-1.83173.96423.83283.03791-1.25311,1.69745-.57013,2.1145l1.02545-.99041C82.01109,93.43256,81.689,93.8639,82.07432,93.73072Z"/><path class="cls-2" d="M83.85405,89.0514l.34021-.332a5.60357,5.60357,0,0,1-1.62116.6004c-.49023.63684-.52984.85675-.49157.99463L83.943,88.90546Z"/><path class="cls-2" d="M85.75139,87.2674c.02789.5658-.6933,1.49787.136,1.35657,1.01557-.99793.4795-.94635.96216-1.65735-1.57776,1.63178.30524-.61682-1.05182.32477a10.06827,10.06827,0,0,1,.80451-.913c-.33118.23951-.65949.45929-.98.6518l.05572-.01563.00666-.00824.00311.00647c.107-.027.15277-.0252.05206.02674a.16444.16444,0,0,1-.02789.03839.40942.40942,0,0,1,.03778.1878c-.53388.38086-.15064-.012-.03778-.1878a.28853.28853,0,0,0-.02417-.06513l-.00977.00177c-.49359.56385-.9707,1.15229-1.48376,1.70484A10.81549,10.81549,0,0,0,85.75139,87.2674Z"/><path class="cls-2" d="M94.80321,79.83607a.1052.1052,0,0,1-.12384.00854C94.64238,80.0019,94.64146,80.07081,94.80321,79.83607Z"/><path class="cls-2" d="M94.07133,80.50666a1.363,1.363,0,0,1,.30512-.83417c.36377-.33319.17157.115.30292.17212.08441-.347.36218-1.15076-.36878-.38678l-.03882.17108c-.597.73419-1.76538,1.36261-1.718,1.195A2.93173,2.93173,0,0,0,94.07133,80.50666Z"/><path class="cls-2" d="M90.09849,84.27064l-1.12481,1.56854.93268-.48035-.2005-.11218C90.5056,84.488,90.13866,84.48383,90.09849,84.27064Z"/><polygon class="cls-2" points="81.688 90.349 81.604 89.834 81.15 91.018 81.688 90.349"/><polygon class="cls-2" points="79.747 91.794 79.598 91.417 79.202 91.968 79.747 91.794"/><path class="cls-2" d="M5.03575,31.79731l.15894-.59082A3.62539,3.62539,0,0,0,5.03575,31.79731Z"/><path class="cls-2" d="M3.46843,35.88386l.14813.16247C3.58378,35.82246,3.53752,35.71857,3.46843,35.88386Z"/><path class="cls-2" d="M36.78587,97.13294c-.31421-.30347-.62665-.65961-.86786-.88336-.23144-.24878-.39721-.35895-.43786-.13306l.06073.50177A3.91411,3.91411,0,0,1,36.78587,97.13294Z"/><path class="cls-2" d="M6.2556,70.2392l-.0285.2746c.217.13416.42028.25971.60461.37366Z"/><path class="cls-2" d="M4.34782,70.30213,4.26323,69.1164A6.40661,6.40661,0,0,0,4.34782,70.30213Z"/><path class="cls-2" d="M18.82262,12.40046l.24462-.817C18.23662,12.3382,18.748,12.17585,18.82262,12.40046Z"/><path class="cls-2" d="M57.56987,105.5199a9.56361,9.56361,0,0,0-1.23975,1.344C57.02989,106.28425,57.73717,105.91468,57.56987,105.5199Z"/><path class="cls-2" d="M8.69078,35.08417c.04242-.34558.01007-.51489-.083-.5418C8.557,34.89826,8.56706,35.113,8.69078,35.08417Z"/><path class="cls-2" d="M55.146,108.59186c.10809-.08074.19727-.17181.301-.2583a9.12248,9.12248,0,0,1,.88311-1.46966A3.094,3.094,0,0,0,55.146,108.59186Z"/><path class="cls-2" d="M95.71745,21.976c.02191.062.05988.12836.07538.18762C95.852,22.14484,95.80247,22.07282,95.71745,21.976Z"/><path class="cls-2" d="M100.69365,45.82856c-.06122-.22192-.11792-.58966-.17652-.93573A3.602,3.602,0,0,0,100.69365,45.82856Z"/><path class="cls-2" d="M71.11967,96.24531c.4563-.23456.05573-.07733,0,0Z"/><path class="cls-2" d="M74.13017,96.78413a.28956.28956,0,0,0-.10376.27685A.37053.37053,0,0,1,74.13017,96.78413Z"/><path class="cls-2" d="M54.2877,114.61445l-.02734.03723C54.37877,114.62934,54.3582,114.63062,54.2877,114.61445Z"/><path class="cls-2" d="M71.90092,96.113a4.73,4.73,0,0,0-.64947.14838A4.89935,4.89935,0,0,0,71.90092,96.113Z"/><path class="cls-2" d="M71.72508,95.9668l.42536-.14331C72.1801,95.73121,72.11,95.71259,71.72508,95.9668Z"/><path class="cls-2" d="M70.47758,96.55787a5.72772,5.72772,0,0,1,.77387-.29645c-.10315.01392-.15088.00842-.13178-.01611Z"/><path class="cls-2" d="M56.26524,1.38837c.03583.01557.07758.02649.1164.04706C56.95305,1.28413,56.70537,1.3003,56.26524,1.38837Z"/><path class="cls-2" d="M22.3549,94.4806c.02326.01281.04077.01233.06275.023l-.05616-.06391Z"/><path class="cls-2" d="M20.57024,93.476a2.35932,2.35932,0,0,1,1.79125.96362l.23035-1.41369Q21.59722,93.2637,20.57024,93.476Z"/><path class="cls-2" d="M10.03361,22.59315a10.37845,10.37845,0,0,0-1.12927.97107,7.97367,7.97367,0,0,1,.71021-1.92945c.14306-.348.06445-.37976-.57154.01526.247.23749.165.64386-.0755,1.13477a14.27509,14.27509,0,0,1-.90545,1.73895c-.70307,1.22162-1.4021,2.44586-.85743,2.855a9.40924,9.40924,0,0,0-.68322.70465c.12994-.23816.07831-.31494.20746-.55035-1.38331,1.36572.27514,1.68371-.90973,3.70019-.44782.69177-.87775,1.13342-.78339.56409-.1778.58893-.23492,1.22479-.35535,1.82953-.20715.48834-.38318.2832-.176-.20606l-.85694,2.6576-.03088-.03205c.05731.44043.07,1.38153.12323,1.849-.36206.62335-.05029-.38116-.25732-.25647l-.06531,1.57019c-.496.5152-.50885-.80615-.19208-1.82788-1.66559,1.02979.008,1.324-1.53369,4.15808L1.888,40.07484a3.12572,3.12572,0,0,0-.98181,1.44287c-.233.58654-.35382,1.28717-.7312,2.08307.15436-.17914.58161-.96412.9773-1.4701.4093-.50519.80688-.7304.79718.12128a3.78331,3.78331,0,0,0-.18317,1.99469c-.47791-.06928-.49548.82855-.63391,1.92767l-.62366-.15283c-.005,1.22052.33655,1.1582.59162,1.88794A2.03587,2.03587,0,0,1,.02708,49.77778c-.20971,2.15375.86756-1.44281.86109,1.09851-.39044,1.76733.00879,3.03442.46863,5.11444-.164,1.25043-.40009-.18927-.56269.26666.19068.35578.3631.70954.56842,1.057.02289.26672-.14447.196-.229.15948.31787.897.64624.017,1.00812,1.42115.761.26666-.69336,3.10382.56848,4.69946-.08093.4693-.42951-.12409-.64209.05939a12.45433,12.45433,0,0,0,2.07867,3.71l.11652,1.75256c.09381-1.35284,1.06274.02338,1.99237,1.1228.03876-.47741.12268-.89679.14215-1.164a21.6471,21.6471,0,0,0,1.10236,1.87836c.00189.278-.28376.16333-.6684-.0661.10571.11694.208.22674.29456.309.07782.80273-.41456.58032-.96326.19128.014-.29474.03766-.589.06409-.874-.5802-.35413-1.15772-.69232-1.46528-.45984a3.66865,3.66865,0,0,1,.42786.62171c-.15375-.09571-.27753-.14826-.31171-.064-.034.09387.18842.261.48023.5387l-.4671.73395.31042.00915c.246.95825.46381,1.93921.74512,2.89972a46.25952,46.25952,0,0,1,5.34479,5.24414c-.86866-.395-.80921.31818-1.3498.62238A2.43662,2.43662,0,0,0,9.05968,79.035c-.25251-.28284-.55231-.56958-.80439-.90259a5.849,5.849,0,0,1-.64123-1.10382c.35675.83417.00812.80365-.18988.647A29.64808,29.64808,0,0,0,9.52476,80.0312c-.46582.21167.03009.75854.29145,1.56152.26184-.54395.67791-.12732,1.2171.47455a22.2523,22.2523,0,0,0,1.66693,1.8269c-.21808.269-.67188.23956-1.53479-1.03552.44324,1.80273,2.21436,1.0495,2.77093,2.69629-.254-.27149-.35107-.44965-.56665-.46271.786.473,2.03583,2.18762,1.48273,2.01984l-.25427-.27277c.39227.4812.9046,1.0741,1.46558,1.68652.59185.5821,1.2644,1.15229,1.892,1.66858a12.15966,12.15966,0,0,0,1.73572,1.23328c.52374.25354.92883.36322,1.13538.2558a3.89762,3.89762,0,0,1-1.13672.62494q1.332.14712,2.61767.25451a23.54333,23.54333,0,0,0,2.56079.12506c-.74493.37476-.50592,2.64472-2.45092,1.81556A5.80958,5.80958,0,0,0,24.57976,95.921c-.28424-.3144-.24366-1.43177.24621-1.18549a10.27145,10.27145,0,0,0,1.83563,2.52264c-.45-.42749.7287-1.0841,1.52442-.60412-.21387.07782-.48731,1.02258-.8537.9566l2.60913.15326c-.605-.10174-.5332.79437-.20294,1.338-.14588-.26556,1.87646.87781,2.50537,1.04065l-.818-.64911c2.40411,1.25245,3.01092-.33422,5.43414.53589a.872.872,0,0,0,.02038,1.66907c.389-.18506,1.23914-.57831,2.27332-1.00073a11.73886,11.73886,0,0,1,1.64868-.56537,4.64972,4.64972,0,0,1,1.94934-.1377c.15448.15192.29047.29877.418.44367l.6015.054c.13153.123.25708.26049.389.39453l.80963.84839c-.387-.181-.89038-.42585-1.3927-.62067-.06366-.02332-.124-.05072-.19024-.06854l-.27021.05328-.52612.1153c-.34253.08074-.66547.16925-.95294.26568a21.98781,21.98781,0,0,1-3.51294.79425c.89831.52649.16168.45,1.64477.79907.44678.4303-.93011.24927-1.37579.15509l1.712.53321.85589.26526.136.08276c.10589-.29065.451-.49884.67633-.34381.13324.05768.25116.09918.413.17706.20771.14453.37769.20648.4748.10059-.10279-.09851-.23938-.24622-.31446-.30426l-.2019-.14032q-.196-.13174-.36853-.22919a4.62222,4.62222,0,0,0-.46918.05975l-.18457.045a.49864.49864,0,0,1-.18066.00006l-.24439-.01618c.00171-.17248.16657-.34063.44629-.48559a2.01455,2.01455,0,0,1,.80139-.43085c.09241-.02557.19123-.048.29578-.06683l.16107-.02564a.40923.40923,0,0,1,.118.05316,2.91975,2.91975,0,0,1,.48267.34638,5.81323,5.81323,0,0,1,1.03992,1.27637c.12536.65533-1.2453.30029-1.40186.46844a5.57467,5.57467,0,0,1,1.64447,1.905l-.87311-.637c.54834,1.24591,1.96991,1.29553,2.35047,2.98388.27844.48169.22357,1.85565.606,1.7096.12049-1.18012,1.977-2.66877,2.79328-2.4975a24.33764,24.33764,0,0,1,1.08239,3.54285c.01313.55059-.42791.54138-.962.37768-.49042-.09991-.98163-.21979-.97455.247a.6008.6008,0,0,1,.40759.09369,3.30467,3.30467,0,0,1,.48114.34766c.329.75659-.62719.09155.46436,1.53534.58044-.359,1.97424,2.97839.79651.14227.98755,1.09472.90283,1.56311,2.0191,3.13714-.1615-.67431.25311-.85644.644-.95068a20.559,20.559,0,0,1,.84674-2.33722.39494.39494,0,0,0,.32007.42078c1.4538-2.00971,2.57624-3.09821,3.89173-5.00458.25952-.08655,1.07055-.91516,1.03723-.34814a3.32812,3.32812,0,0,1,.47919-1.34894c1.28552-.83155-.84546,1.3941.3479.90667-.27448-.29992.618-1.86608,1.00219-2.86346-.68542-.0824-1.45617,1.91467-1.84173,2.91315-.69849-.47345-.40125-2.46826.67712-4.729.93994-1.7398.932-.39422,1.02619-.74365a9.71418,9.71418,0,0,0,.66363-1.00195c.17053-.29975.36713-.67255.49732-.96979.13946-.31079.25225-.60388.35449-.8891a2.69263,2.69263,0,0,1,.574-.4295,7.32023,7.32023,0,0,1,.64044-.38166c.11872-.06219.24445-.12323.37977-.18274l.34545-.1502a4.74315,4.74315,0,0,1,1.659-.31073c1.2926.23144.34369,1.01623.70221,1.32629a5.77258,5.77258,0,0,1-1.91974.386,8.34285,8.34285,0,0,0-1.77.20837l1.5426-.12439c-.4671.37183-1.58129.48169-1.86022,1.09589a1.93552,1.93552,0,0,0,.42181-.3609l.06219-.06549.10321-.01319.21644-.03167.47015-.08228c.64258-.12128,1.4682-.3172,2.33905-.5257a26.7518,26.7518,0,0,0,2.65332-.75683,22.594,22.594,0,0,1,2.42682-.62146c.41443-.34461,1.132-.89392.67438-.919-.26587.14026-.52448.3-.79743.42475-.47265-.077-.11438-.324.18292-.6026.303-.26716.57727-.49.02735-.35578a10.69551,10.69551,0,0,1,3.56817-2.21533l.55317.3949c-.11-.12982-1.119.19806-1.47821.53155.52984-.46625,2.65533-.45862,2.95141-1.51617l-1.224.18933a14.66914,14.66914,0,0,1,3.12268-2.71893c-.86975-.14978-.24182.25067-1.46325.20361,1.22674.32947-3.22651,1.73114-1.53315,1.857a2.74391,2.74391,0,0,0-1.55633.20807,4.15307,4.15307,0,0,1-1.75189.275c.12237.16693.60168.1557-.53485.55169a1.21922,1.21922,0,0,1-.16932.27039l-.0802.01916.07013-.00506c-.03564.049-.03735.0567.02588-.00244a1.44408,1.44408,0,0,1,.68622.03155c-.36169.661-2.132,1.47791-2.69354,1.86225-.72113.14666.20678-.31635-.243-.38971l-.80689.65808c-.24646-.39057-2.03949-.0846-.53265-.88391l-1.43311.475a7.12371,7.12371,0,0,0-2.80963.56452,4.89348,4.89348,0,0,0-.86218.24957c-.341.12408-.63623.25378-.85535.35614-.43738.20477-.60193.30841-.1651.018-.77929.03553-1.00268.84638-1.38061,1.41022l-.52484.88776-.30024.56036-.10565-.04449c-1.44214,2.00128-2.25964,4.60663-4.52337,6.47265-.18824.37439-.37513.75806-.62635,1.18225-.12561.2121-.26733.43433-.43329.6706a1.53641,1.53641,0,0,1-.2622.29321,2.77385,2.77385,0,0,1-.3114-.233c-.04212.18127-.23218.28656-.35267.34979-.12628.07166-.20056.12714-.21466.50531a4.84351,4.84351,0,0,0-.12555-.48926c-.08038-.489-.1344-.514-.26818-.59649a1.25118,1.25118,0,0,1-.21112-.14075.50614.50614,0,0,1-.089-.09912c-.11524-.16925-.24494-.37311-.33551-.53931l-.45838.22858a27.46661,27.46661,0,0,0-2.59979-3.22449l-.31378.33484c-1.08509-.93036-1.74634-3.10791-3.02033-4.88306.22541.02552.50189.50769.63843.88953a5.77043,5.77043,0,0,0-1.10919-2.18811l-.4914-.67487-.25109-.32708c-.09278-.09516-.26777-.07123-.3974-.11133l-1.67676-.26941-.40045-.05853-.24207-.01838-.48138-.0404c-.31916-.02966-.6341-.06653-.94007-.11993a3.47278,3.47278,0,0,1-1.66327-.65369,2.29075,2.29075,0,0,1-1.28985-.45154.44761.44761,0,0,0,.13971.02338c-.0528-.024-.13349-.05274-.2168-.08051-.20972-.15393-.421-.32165-.65735-.47882a3.194,3.194,0,0,0,.53949.43976,12.53283,12.53283,0,0,0-1.7088-.40009l-.07568-.55432-.14057-.04785c-.50634-.42065-.55157.00348-.378.4773A4.17629,4.17629,0,0,0,34.123,96.965c-.15918-.92169-1.6778-.45959-1.968-1.49408-.5816.1955-2.99353-1.28912-3.741-.71618.03619-.10651-.10724-.24549.20819-.0799a6.127,6.127,0,0,0-1.83527-1.07855l.07458-.68628-1.79235-.20514c-.60279-.84955-.79718-1.238.2716-1.09332-2.29077-.78345-1.63458-.92188-3.65472-1.58435l.3302-.24317c-.58368-.3977-1.7475-.80487-1.84332-1.34-.32019-.82721-1.76722-2.13111-3.21277-3.87488-.37244-.42432-.75763-.8631-1.14673-1.30646-.3429-.48016-.68927-.96521-1.03162-1.44458a13.95054,13.95054,0,0,1-1.67529-2.88128c-.55865,1.29681-.55823-1.8609-1.4093-1.51508.10907-.34228-.05426-.89014.49859-.46606a7.25657,7.25657,0,0,1-1.17816-2.16736,3.383,3.383,0,0,0-1.23431-1.62067c.14215-.32568.56653.21222.6178-.04291-.12494-.11908-.52649-.46417-.44361-.73541.07215-.25989.313.18237.58338.40631C9.657,70.948,8.83226,71.05958,8.02318,71.22724a2.39039,2.39039,0,0,0-1.07965-2.15851c.13073-.44928.20251-1.12756.6867.092-.17029-.73187-1.03467-4.38354-1.59826-4.31653a2.1825,2.1825,0,0,0-.29474-1.1975c-.15674-.81794-.24207-1.26325-.32666-1.70453-.09406-.43921-.19532-.87238-.31476-1.68146l-.04346.46692c-.84631-.51911-.35028-1.33234-.61749-2.63092l.08362.02862a8.04541,8.04541,0,0,0-.04761-2.17169,5.00642,5.00642,0,0,1,.11938-2.139l-.472.17591c-.51288-.12409-.41986-.80542-.18591-1.655a6.12018,6.12018,0,0,0,.48541-2.73828l-.30518.61383c-.15228-.48584.23188-1.13752.674-1.761.22431-.3078.45294-.62158.65753-.90241a2.57027,2.57027,0,0,0,.46546-.76587c.12-.1889.0943.33289.11719.61774.9729-2.31659-.57593-.3819-.44349-2.21008.3852-.27887.78766.55334,1.03174-.63355a1.64468,1.64468,0,0,0,.07856-.82782,9.64886,9.64886,0,0,1-.04487-1.4,5.59567,5.59567,0,0,1,.66559-2.92438c-.34179.28278-.686.57556-.66247-.30682a3.73535,3.73535,0,0,1,.39093-1.0556c.2182-.359.45245-.74427.68268-1.12287a3.12711,3.12711,0,0,0,.612-2.2312c.12317-.1297.208-.16266.27045-.14477A11.50876,11.50876,0,0,1,9.154,32.525a5.06526,5.06526,0,0,0,.33679-1.82159c.4718-.02533.8291-.4068,1.12231-.958a15.7663,15.7663,0,0,0,.90723-1.89093c.56055-1.34094,1.06073-2.61719,1.68628-2.17725l1.77008-2.50647.07586.15943a6.88039,6.88039,0,0,0,1.64789-2.98975c.38587-.26971.267.07275.30194.15344a15.70508,15.70508,0,0,0,2.09729-2.08734,13.18207,13.18207,0,0,0,1.48993-2.24347l.51612.20044a2.40729,2.40729,0,0,1,.71185-.66022c.18994-.13537.40112-.2929.6449-.4472l.81518-.45892a20.70688,20.70688,0,0,0,1.78284-1.129c.60107-.41467,1.13934-.939,1.68018-1.39569a.41973.41973,0,0,1-.1413.34509,9.744,9.744,0,0,1,2.12817-1.35968,16.0069,16.0069,0,0,1,2.37537-1.00018c1.55591-.53467,2.78845-1.08972,2.95788-2.1734.57789-.4231,1.19635-.76667,1.80152-1.15821-2.631.81232.102-.871-1.07294-.76062,1.00391-.48,2.84509-.4616,1.6181.08637l-.22717-.013c-.13782,1.04278,3.31378-.86859,3.45813-.13068,5.1211-1.63208,10.43421-1.51947,15.33673-1.33252l-.55005-.76043,1.74762.13061c.44879.19293.57184.60169-.6582.50952.62018.44672,2.09259-.24334,2.15143-.39966,1.20221.24738.93078.48468.47522.575-.46155.13226-1.12457.2608-.75708.28216a6.62453,6.62453,0,0,1,1.0003.03449l-.21393-.11951a3.9917,3.9917,0,0,1,2.4231-.214c.91144.287.405.51794.76581.60144-.01087.05072.10748.09338.5553.10529a14.36131,14.36131,0,0,1,2.10815.5177l-.7193-.78211c1.00409-.0343,2.00031.54694,1.16284-.34411a4.74764,4.74764,0,0,0,1.75483.954c.40228.14783.84545.28882,1.30743.42524.44757.18255.91388.36059,1.37787.53167.93146.33332,1.84607.66053,2.58154.92371a4.63423,4.63423,0,0,1,1.42255.73627,8.74472,8.74472,0,0,1,2.02826.57983,10.46725,10.46725,0,0,1,2.05468,1.06757c-.29632-.321-.20233-1.02295,1.01563-.18964-.56506.44031-.07.9118.6217,1.44684.68683.5426,1.60938,1.1134,1.771,1.88879-.46491-1.14465,3.34936,2.30921,2.59961.61487.90307.80975-.24829.44055.28369,1.23077A15.38171,15.38171,0,0,1,86.78,18.16553c1.09107,1.24573,2.0708,2.68427,3.33069,3.90455.16766-.06482-.00116-.69574.678-.27131l.41974,2.03186c.47876.49567,1.20117-.08825,1.46655,1.28333.01434-.2273.03461-.57227.36243-.22839a11.05381,11.05381,0,0,1,.61566,1.15631l.60626,1.16382c.41687.76849.8581,1.52386,1.31574,2.2738q.58979,1.1781,1.183,2.36291c.37933.79657.8645,1.55182,1.16528,2.38721a22.7244,22.7244,0,0,1,2.15082,10.32581c.19507-.98743.32153-.37592.443.3374.00971-.47785.43049-.05939.65192-.18823l-.21771,2.99554c.684.47516.2005,3.13367.84851,3.41663l-.16119-.93225c.80987,1.235,1.56793-1.85309,2.53076-1.76758a2.09215,2.09215,0,0,1-.2594-1.24072,14.2876,14.2876,0,0,1,.10736-1.5495,4.82172,4.82172,0,0,0-.647-3.44269c.07355-.56037.39441.38428.54841.06207a3.93413,3.93413,0,0,1-.97022-2.587l.13721.12548c-.2652-.9309-.46582-1.73468-.63135-2.48645-.21619-.736-.4256-1.411-.61194-2.11212a30.25338,30.25338,0,0,0-1.57458-4.9201l-.28815.49328a5.36711,5.36711,0,0,1-.3869-1.56433c-1.10858-.6466,1.1076,2.39191-.03424,1.84674.1485-.74426-.49475-2.2782-1.27436-3.67212-.8117-1.37872-1.5838-2.71777-1.347-3.38086-.759-1.23956-.2215.65265-.99976-.56268l.01532-.475-.53149-.07409c-.51178-.791-.501-1.3952-.32178-1.57471a5.69574,5.69574,0,0,0,.618.67383c-.47687-1.1955-2.1654-2.757-2.38855-3.11609a12.32077,12.32077,0,0,1,.72888,1.21149c-.61712-.77838-1.38275-1.49964-2.10247-2.29224-.73981-.77374-1.43952-1.62213-2.22907-2.37476-.811-.731-1.62726-1.45105-2.44122-2.11859-.41114-.32867-.8039-.66552-1.22675-.94488-.43377-.26612-.86487-.51441-1.29138-.73969l.09314.34912a7.95852,7.95852,0,0,1-2.14557-1.53393,9.14123,9.14123,0,0,0-.78351-.7309,14.1588,14.1588,0,0,0-1.53869-.92022l.127.01483A6.83568,6.83568,0,0,1,78.352,7.82636c.81775.18945-1.04577-1.228-.00231-.93426-3.01551-1.0528-1.57166-.39716-3.77765-.558l-.27234-.54223a7.01419,7.01419,0,0,1-.91541-.0033,13.5646,13.5646,0,0,1-1.45813-.35486c1.3288.14844-.7362-.87182.78461-.76172a9.132,9.132,0,0,0-3.66931-1.38867c-1.00037-.20648-1.80292-.21936-2.387-1.00677-1.74334.6112,2.63465,1.26593,1.74421,1.26733.57672.51465-1.4256.4079-2.38929.06757a4.34378,4.34378,0,0,1-1.40869-1.04584,5.88569,5.88569,0,0,0-1.03534-.719,6.33957,6.33957,0,0,0-1.63214-.44549c.26386.04541.29547-.02832.55921.01666-.95868-.412-2.00367.05145-3.16962-.555-.75018.48163-1.5929-.21143-1.86078.57269a17.50718,17.50718,0,0,1,2.44562.09515c-1.40741-.06158-2.75885.84137-4.97888.2779a4.52617,4.52617,0,0,1,1.33642-.42c-.6546-.2669-1.28686.09-1.96869-.184C54.5172.438,57.27684,1.14411,58.824.69508c-.69251-.44465-2.88464.40454-2.066-.42847A2.242,2.242,0,0,1,54.76744.611,3.76678,3.76678,0,0,0,52.257.82343L52.36986.343A5.34588,5.34588,0,0,1,50.95878.6999l.94574-.663c-1.46179.60382-2.90289-.32831-4.32128.062,2.997-.20074.723.52619,2.00494.79987a6.22625,6.22625,0,0,1-1.91748.19275A2.65949,2.65949,0,0,1,46.63335.8122C46.01475.541,45.31316.22877,43.27147.65888c.54907-.153,2.13476-.03943,1.30255.3103A11.45245,11.45245,0,0,1,42.19359.82929c-2.64789.77765.51275.37238-.55664.94623-1.0304-.33289-1.24579.56213-2.33631,1.03424l-.13714-.46283c-1.54938.23187-1.67261.53833-1.7508.83563-.08325.28913-.1264.55469-1.48205.85114l.88678-1.03577-1.31079.6626.09845-.6203A9.38959,9.38959,0,0,1,32.248,4.48292c.46039.15594.16376.89129-1.04919,1.492-.9599.14435.27362-.64111-1.44251.26276a1.45991,1.45991,0,0,1,1.48761-.979c.01184-.18023.26538-.4635.28326-.64428A10.82273,10.82273,0,0,0,28.54753,5.9723a3.08609,3.08609,0,0,1,.74481-.23493l-1.11865.91846L27.13188,7.67737c-.46973.07306-.244-.23413-.01446-.53973-.4657.34326-.69147.7395-1.38617,1.21039-.01984-.4466-.28052-.76264.66095-1.54962L24.29338,8.584a3.70989,3.70989,0,0,0-.78967.11658c-.29084.07458-.52808.11334-.42609-.05255a8.81251,8.81251,0,0,0-1.99982,1.81183,14.78369,14.78369,0,0,1-2.24743,2.051,1.75145,1.75145,0,0,1-.41083.64917c-.72205.5954-1.47321,1.08618-2.20587,1.66785a7.56456,7.56456,0,0,0-1.90918,2.34185l-1.37757.47156c-1.05163,1.39813,1.8111-.67993.07624,1.62921-1.06745,1.74781-.92945.22675-1.52033.67743a14.38183,14.38183,0,0,1-.729,1.97467,7.33239,7.33239,0,0,1-1.591,2.12073A5.96474,5.96474,0,0,1,10.03361,22.59315ZM1.96434,42.21339c-.03265-.42481-.10761-1.29053.23736-1.52216C2.63145,41.27271,2.25963,41.55445,1.96434,42.21339ZM6.5648,73.39765a1.746,1.746,0,0,1-.40045-1.22815A3.61807,3.61807,0,0,1,6.5648,73.39765Zm59.363,25.045a.21458.21458,0,0,0-.03284.03229C65.03087,98.49665,65.33909,98.49622,65.92778,98.44269Zm1.73352-.301c.146-.1217.11365-.18134.02313-.22131-.0777.15606-.44732.29284-.87958.40673C66.95793,98.4076,67.199,98.41639,67.6613,98.14167ZM61.58287,5.26948l-.31738-.176C62.05693,5.07337,61.81969,5.16419,61.58287,5.26948Z"/><path class="cls-2" d="M4.5684,70.30976a.45215.45215,0,0,1,.19342-.2558C4.637,69.92933,4.54747,69.957,4.5684,70.30976Z"/><path class="cls-2" d="M18.7783,12.55067l.05207-.03986a.20725.20725,0,0,0-.00775-.11035Z"/><path class="cls-2" d="M48.61467,113.11213a1.784,1.784,0,0,1-.30652-.88666c-.0545.025-.078.08685-.05041.2041a1.14616,1.14616,0,0,0,.08233.21967C48.40294,112.76838,48.49913,112.92988,48.61467,113.11213Z"/><path class="cls-2" d="M75.777,93.74958l-.90851.64453a2.35114,2.35114,0,0,1,.94867-.34277C75.74107,93.96448,75.4785,93.92292,75.777,93.74958Z"/><path class="cls-2" d="M85.5977,90.60255c.09546-.15186.28369-.22767.3631-.3938l-.18134-.137C85.237,90.55231,84.94163,90.996,85.5977,90.60255Z"/><path class="cls-2" d="M77.47636,94.64393c.27234.2912.87049-.12079,1.48224-.65534a1.05139,1.05139,0,0,1-.1181.07886C78.73784,93.45936,78.13982,94.0962,77.47636,94.64393Z"/><path class="cls-2" d="M79.10612,93.87366a4.771,4.771,0,0,1,.61158-.42028C79.67143,93.21076,79.44273,93.57978,79.10612,93.87366Z"/><path class="cls-2" d="M69.66942,97.16437c.38763-.02276.03692-.56079.29242-.474C70.17534,96.07038,67.84807,98.078,69.66942,97.16437Z"/><polygon class="cls-2" points="78.73 95.48 78.217 95.19 78.02 95.76 78.73 95.48"/><path class="cls-2" d="M72.80241,98.07288l1.24921-.40344c-.05341-.06818.07733-.18024.24689-.29669C73.55748,97.68378,72.7155,97.949,72.80241,98.07288Z"/><path class="cls-2" d="M74.29851,97.37275a2.96538,2.96538,0,0,0,.91662-.50806C75.01945,96.97779,74.577,97.17762,74.29851,97.37275Z"/><polygon class="cls-2" points="77.23 96.477 76.84 96.573 76.01 96.988 77.23 96.477"/><path class="cls-2" d="M60.62718,104.4383l-.69238,1.26263c.059.21759.36658-.045.61218-.52349C60.64238,104.82691,60.88841,104.351,60.62718,104.4383Z"/><path class="cls-2" d="M64.10332,102.23487a1.22412,1.22412,0,0,1-.37952-.07751.4653.4653,0,0,0-.28583-.06287l.37531.55072C63.81975,102.40156,63.99156,102.37293,64.10332,102.23487Z"/><path class="cls-2" d="M61.96562,105.1692c.06134.21521-.76892,1.99438.22662.47491C62.13353,105.42756,62.82762,104.1634,61.96562,105.1692Z"/><polygon class="cls-2" points="48.665 110.175 48.878 110.471 49.688 109.852 48.665 110.175"/><path class="cls-2" d="M33.70463,101.54926c1.59864.83185.62159-.44348,2.03449.37165.47241-.09131-1.154-.66175-.67835-.71741C33.95769,101.11249,33.50053,100.72571,33.70463,101.54926Z"/><path class="cls-2" d="M35.06077,101.2035a5.53948,5.53948,0,0,0,.56592.03186A2.52793,2.52793,0,0,0,35.06077,101.2035Z"/><polygon class="cls-2" points="100.524 49.686 100.365 50.732 100.673 50.047 100.524 49.686"/><path class="cls-2" d="M101.38133,51.6645l-.63611.25659.6203.62463C101.32426,52.3075,101.24419,51.84809,101.38133,51.6645Z"/><path class="cls-2" d="M.18925,45.1637l.14148.10926c.1944-.1554.24762-.42194.3559-.95606Z"/><polygon class="cls-2" points="5.084 30.23 4.955 30.468 5.705 30.263 5.084 30.23"/><path class="cls-2" d="M11.44816,18.60267c-.3471.42071-.62884,1.014-.97589,1.43609C11.10313,19.0199,12.10417,18.94746,11.44816,18.60267Z"/><path class="cls-3" d="M64.21391,77.1803A4.99993,4.99993,0,0,1,59.53374,73.942c-2.12061-5.6289-4.65186-9.17871-6.771-9.49414-.91162-.13867-4.39258.09082-10.97461,8.64356a4.9996,4.9996,0,1,1-7.9248-6.09766c7.187-9.33984,13.85351-13.41113,20.37207-12.43652,6.189.9209,10.98291,6.10937,14.65673,15.85937a5.00308,5.00308,0,0,1-4.67822,6.76367Z"/><path class="cls-3" d="M27.12944,58.76234a5.0003,5.0003,0,0,1-.6665-9.95508c11.0957-1.50781,13.98193-4.38867,14.71484-5.97168,1.18213-2.55469-.35938-7.38965-4.33984-13.61621a4.99985,4.99985,0,1,1,8.4248-5.38672c3.917,6.126,8.6958,15.19629,4.99023,23.20312-3.82128,8.25586-14.63964,10.62012-22.44433,11.67969A5.00462,5.00462,0,0,1,27.12944,58.76234Z"/><path class="cls-3" d="M74.05717,58.1432c-9.16259,0-13.86132-3.53028-16.248-6.79688-4.36719-5.97656-3.9419-14.55859,1.26318-25.50879a4.99983,4.99983,0,1,1,9.03125,4.293c-3.35937,7.06738-4.16846,12.64941-2.22021,15.31641,1.72509,2.36035,6.30712,3.22265,12.5791,2.375a4.99958,4.99958,0,1,1,1.3457,9.9082A42.72413,42.72413,0,0,1,74.05717,58.1432Z"/></g></g></svg>