<svg xmlns="http://www.w3.org/2000/svg" viewBox="0 0 104.16942 117.48157"><defs><style>.cls-1{fill:#1d1d1b;}.cls-2{fill:#c66e6e;}.cls-3{fill:#bf5c5c;}</style></defs><title>Frustrated_07</title><g id="Layer_2" data-name="Layer 2"><g id="Layer_1-2" data-name="Layer 1"><path class="cls-1" d="M103.1209,52.54571a50,50,0,1,0-60.06738,48.98584l4.34289,6.32794,5.72449,8.34106,5.72443-8.34106,4.34289-6.32788A50.01724,50.01724,0,0,0,103.1209,52.54571Z"/><path class="cls-2" d="M100.66942,52.91181c.058-.46271-.36866-.29681-.44068-.36609C100.28587,53.31293,100.77916,52.8946,100.66942,52.91181Z"/><path class="cls-2" d="M100.94078,60.67322l-.15051-.16461a9.1625,9.1625,0,0,1,.21362,1.2041A7.56953,7.56953,0,0,0,100.94078,60.67322Z"/><path class="cls-2" d="M99.16148,67.72553c.86963-.44934.75452-2.53656,1.21424-3.749l.20507-.17188-.43164-.7c-.1427.7702-.17419,1.69324-.34948,2.52405A9.0098,9.0098,0,0,1,99.16148,67.72553Z"/><path class="cls-2" d="M96.37584,70.75758c.34534-.10627-.09229.84478.41748-.7768a1.35856,1.35856,0,0,1-.12647.12042C96.61253,70.24323,96.53111,70.43641,96.37584,70.75758Z"/><path class="cls-2" d="M96.66685,70.1012c.26673-.69214-.40295.36054,0,0Z"/><path class="cls-2" d="M95.421,73.30433l.22681-.97626c-.23767.11469-.67578.86249-.63269.52637C94.67686,73.79572,94.91466,73.69312,95.421,73.30433Z"/><path class="cls-2" d="M95.454,74.3689l.14368-.50348C95.49449,73.91456,95.41112,74.02283,95.454,74.3689Z"/><path class="cls-2" d="M95.90074,72.80543l-.3031,1.06c.16895-.07482.38428.01258.15906-.47827C95.90526,73.55945,95.823,73.27778,95.90074,72.80543Z"/><path class="cls-2" d="M96.25731,72.29493c.35241-.44617.71972-1.07672.56213-.05158C97.46214,70.43873,96.8867,70.51374,96.25731,72.29493Z"/><path class="cls-2" d="M99.74852,68.31641l.43176-.66919-.02649-.70678C100.16588,67.29389,99.52171,68.29133,99.74852,68.31641Z"/><path class="cls-2" d="M92.06724,78.39661c.09363.13617.5127-.05432.71521-.011l.24207-.70905C92.73668,77.93665,92.28038,78.48041,92.06724,78.39661Z"/><path class="cls-2" d="M92.78245,78.38563l-.36657,1.06988C92.96385,78.64356,92.95592,78.42475,92.78245,78.38563Z"/><polygon class="cls-2" points="96.075 74.892 96.426 73.033 95.919 75.209 96.075 74.892"/><polygon class="cls-2" points="89.632 81.707 89.723 81.004 89.484 82.201 89.632 81.707"/><path class="cls-2" d="M87.90147,83.81458c.0835-.5285-.77673.12769-.59289-.34534a7.258,7.258,0,0,0-.91309,1.789A4.477,4.477,0,0,1,87.90147,83.81458Z"/><path class="cls-2" d="M85.928,86.14588a6.93256,6.93256,0,0,0,.46753-.88763A3.66414,3.66414,0,0,0,85.928,86.14588Z"/><path class="cls-2" d="M91.24254,80.9098a1.22781,1.22781,0,0,0-.863.42157l.59753-.08179Z"/><path class="cls-2" d="M90.99718,81.2458l-.02015.00378-.57983.727C90.47288,81.88435,90.65343,81.66444,90.99718,81.2458Z"/><path class="cls-2" d="M91.30968,80.82441l-.06714.08539C91.30125,80.90186,91.32774,80.8902,91.30968,80.82441Z"/><path class="cls-2" d="M94.3275,77.24824c-.141.66815-.66138,1.97046.35888,1.0393C94.68968,77.7356,94.1096,78.26356,94.3275,77.24824Z"/><path class="cls-2" d="M92.06541,80.71174c.25769-.297.53968-.57825.77918-.88983-.10547-.044-.35315.04065-.28015-.29755C92.43065,79.93946,92.23094,80.31226,92.06541,80.71174Z"/><polygon class="cls-2" points="91.827 81.251 92.065 80.712 91.773 81.038 91.827 81.251"/><path class="cls-2" d="M87.60191,85.02088a3.85781,3.85781,0,0,1-.99963,1.35748,8.02542,8.02542,0,0,0,1.48535-1.36023C88.05138,84.85749,88.06493,84.48164,87.60191,85.02088Z"/><path class="cls-2" d="M89.33922,83.26472l-.05616.09875C89.35655,83.33588,89.40233,83.3025,89.33922,83.26472Z"/><polygon class="cls-2" points="81.984 90.387 82.109 90.387 82.082 90.314 81.984 90.387"/><path class="cls-2" d="M88.22093,84.98872a1.68325,1.68325,0,0,0,.613-.913,11.41663,11.41663,0,0,1-.74634.94244C88.10411,85.09034,88.12816,85.12336,88.22093,84.98872Z"/><path class="cls-2" d="M84.83568,87.44892a8.17524,8.17524,0,0,0,.78662-.41876C85.344,87.10633,84.827,87.304,84.83568,87.44892Z"/><path class="cls-2" d="M89.08067,83.41169l.03552-.06787C88.93724,83.4054,88.985,83.41956,89.08067,83.41169Z"/><path class="cls-2" d="M89.08067,83.41169a3.39559,3.39559,0,0,0-.2467.664,6.02213,6.02213,0,0,0,.44909-.71222A.74612.74612,0,0,1,89.08067,83.41169Z"/><path class="cls-2" d="M82.07432,93.73072c-.077-.191.12732-.542.48572-.906a3.52661,3.52661,0,0,1,1.44983-.97546c.73584-.96442-.6991-1.48828-1.90137-1.462.07666.159.179.28418-.59594,1.19709.44323-.07373,2.344-1.21906,1.78723-.31708-1.11633,1.13031-1.074.71948-1.83179.96423.83289.03791-1.25305,1.69745-.57007,2.1145l1.02539-.99041C82.01109,93.43256,81.689,93.8639,82.07432,93.73072Z"/><path class="cls-2" d="M83.854,89.0514l.34021-.332a5.60379,5.60379,0,0,1-1.6211.6004c-.49023.63684-.5299.85675-.49157.99463l1.86157-1.40894Z"/><path class="cls-2" d="M85.75133,87.2674c.028.5658-.69324,1.49787.1361,1.35657,1.01551-.99793.4795-.94635.96216-1.65735-1.57776,1.63178.30518-.61682-1.05175.32477a10.04821,10.04821,0,0,1,.80444-.913c-.33118.23951-.65943.45929-.98.6518l.05566-.01563.00672-.00824.00305.00647c.10705-.027.15283-.0252.05212.02674a.15975.15975,0,0,1-.028.03839.40944.40944,0,0,1,.03784.1878c-.53381.38086-.15064-.012-.03784-.1878a.289.289,0,0,0-.02417-.06513l-.00977.00177c-.49353.56385-.9707,1.15229-1.48376,1.70484A10.80961,10.80961,0,0,0,85.75133,87.2674Z"/><path class="cls-2" d="M94.80321,79.83607a.10531.10531,0,0,1-.12391.00854C94.64232,80.0019,94.64146,80.07081,94.80321,79.83607Z"/><path class="cls-2" d="M94.07127,80.50666a1.36367,1.36367,0,0,1,.30518-.83417c.36377-.33319.17151.115.30285.17212.08448-.347.36219-1.15076-.36865-.38678l-.03894.17108c-.59692.73419-1.76538,1.36261-1.71789,1.195A2.93153,2.93153,0,0,0,94.07127,80.50666Z"/><path class="cls-2" d="M90.09849,84.27064l-1.12487,1.56854.93274-.48035-.20057-.11218C90.5056,84.488,90.13866,84.48383,90.09849,84.27064Z"/><polygon class="cls-2" points="81.688 90.349 81.604 89.834 81.15 91.018 81.688 90.349"/><polygon class="cls-2" points="79.746 91.794 79.598 91.417 79.202 91.968 79.746 91.794"/><path class="cls-2" d="M5.03575,31.79731l.15894-.59082A3.62539,3.62539,0,0,0,5.03575,31.79731Z"/><path class="cls-2" d="M3.46837,35.88386l.14819.16247C3.58385,35.82246,3.53746,35.71857,3.46837,35.88386Z"/><path class="cls-2" d="M36.78587,97.13294c-.31421-.30347-.62671-.65961-.86792-.88336-.23144-.24878-.39721-.35895-.43774-.13306l.06067.50177A3.91341,3.91341,0,0,1,36.78587,97.13294Z"/><path class="cls-2" d="M6.2556,70.2392l-.02857.2746c.217.13416.42029.25971.60474.37366C6.6577,70.69166,6.46153,70.47089,6.2556,70.2392Z"/><path class="cls-2" d="M4.34776,70.30213,4.26317,69.1164A6.41639,6.41639,0,0,0,4.34776,70.30213Z"/><path class="cls-2" d="M18.82262,12.40046l.24462-.817C18.23656,12.3382,18.74791,12.17585,18.82262,12.40046Z"/><path class="cls-2" d="M57.56981,105.5199a9.57094,9.57094,0,0,0-1.23975,1.344C57.02989,106.28425,57.73717,105.91468,57.56981,105.5199Z"/><path class="cls-2" d="M8.69078,35.08417c.04236-.34558.01-.51489-.083-.5418C8.557,34.89826,8.567,35.113,8.69078,35.08417Z"/><path class="cls-2" d="M55.146,108.59186c.108-.08074.19727-.17181.301-.2583a9.12187,9.12187,0,0,1,.88305-1.46966A3.09422,3.09422,0,0,0,55.146,108.59186Z"/><path class="cls-2" d="M95.71751,21.976c.02185.062.05982.12836.07532.18762C95.85191,22.14484,95.80247,22.07282,95.71751,21.976Z"/><path class="cls-2" d="M100.69359,45.82856c-.06116-.22192-.11792-.58966-.17639-.93573A3.59943,3.59943,0,0,0,100.69359,45.82856Z"/><path class="cls-2" d="M71.11961,96.24531c.4563-.23456.05579-.07733,0,0Z"/><path class="cls-2" d="M74.13011,96.78413a.28983.28983,0,0,0-.10376.27685A.371.371,0,0,1,74.13011,96.78413Z"/><path class="cls-2" d="M54.2877,114.61445l-.02734.03723C54.37877,114.62934,54.35814,114.63062,54.2877,114.61445Z"/><path class="cls-2" d="M71.901,96.113a4.72867,4.72867,0,0,0-.64953.14838A4.90372,4.90372,0,0,0,71.901,96.113Z"/><path class="cls-2" d="M71.72508,95.9668c.16809-.05658.29968-.101.42529-.14331C72.18,95.73121,72.11,95.71259,71.72508,95.9668Z"/><path class="cls-2" d="M70.47752,96.55787a5.73449,5.73449,0,0,1,.77393-.29645c-.10315.01392-.15088.00842-.13184-.01611C70.98448,96.3111,70.79368,96.404,70.47752,96.55787Z"/><path class="cls-2" d="M56.26524,1.38837c.03577.01557.07764.02649.11634.04706C56.95311,1.28413,56.70531,1.3003,56.26524,1.38837Z"/><path class="cls-2" d="M22.35484,94.4806c.02332.01281.0409.01233.06275.023l-.05616-.06391Z"/><path class="cls-2" d="M20.57017,93.476a2.35922,2.35922,0,0,1,1.79126.96362l.23035-1.41369Q21.59714,93.2637,20.57017,93.476Z"/><path class="cls-2" d="M10.03355,22.59315a10.38414,10.38414,0,0,0-1.12927.97107,7.97,7.97,0,0,1,.71033-1.92945c.14294-.348.06433-.37976-.57166.01526.24707.23749.165.64386-.07544,1.13477A14.25921,14.25921,0,0,1,8.062,24.52375c-.703,1.22162-1.4021,2.44586-.85743,2.855a9.42111,9.42111,0,0,0-.68322.70465c.13-.23816.07837-.31494.20752-.55035-1.38331,1.36572.27514,1.68371-.90967,3.70019-.44788.69177-.87781,1.13342-.78345.56409-.17786.58893-.23486,1.22479-.35535,1.82953-.20715.48834-.38318.2832-.176-.20606l-.85694,2.6576-.03088-.03205c.05737.44043.06995,1.38153.12317,1.849-.36206.62335-.05029-.38116-.2572-.25647L3.4171,39.20905c-.496.5152-.50879-.80615-.192-1.82788-1.66565,1.02979.00794,1.324-1.53369,4.15808l.19653-1.46441a3.12617,3.12617,0,0,0-.98181,1.44287c-.233.58654-.35376,1.28717-.7312,2.08307.15442-.17914.58167-.96412.9773-1.4701.4093-.50519.80688-.7304.79724.12128a3.78444,3.78444,0,0,0-.18323,1.99469c-.47778-.06928-.49548.82855-.63391,1.92767l-.62354-.15283c-.00512,1.22052.33643,1.1582.59156,1.88794A2.036,2.036,0,0,1,.02708,49.77778c-.20971,2.15375.86756-1.44281.86109,1.09851-.39051,1.76733.00879,3.03442.46863,5.11444-.164,1.25043-.40015-.18927-.56275.26666.19067.35578.36316.70954.56848,1.057.02283.26672-.14453.196-.229.15948.31787.897.64624.017,1.00806,1.42115.7611.26666-.69336,3.10382.5686,4.69946-.08106.4693-.42957-.12409-.64221.05939a12.4557,12.4557,0,0,0,2.07873,3.71l.11646,1.75256c.09387-1.35284,1.06274.02338,1.99243,1.1228.0387-.47741.12268-.89679.14209-1.164a21.64773,21.64773,0,0,0,1.10242,1.87836c.00183.278-.28382.16333-.66834-.0661.10559.11694.20789.22674.29443.309.07789.80273-.41455.58032-.96325.19128.014-.29474.03772-.589.06408-.874-.5802-.35413-1.15759-.69232-1.46521-.45984a3.67218,3.67218,0,0,1,.42786.62171c-.15369-.09571-.27746-.14826-.31177-.064-.03393.09387.18848.261.48023.5387l-.467.73395.31042.00915c.246.95825.46375,1.93921.74512,2.89972a46.25944,46.25944,0,0,1,5.34485,5.24414c-.86878-.395-.80933.31818-1.34986.62238A2.43713,2.43713,0,0,0,9.05968,79.035c-.25245-.28284-.55225-.56958-.80433-.90259A5.84949,5.84949,0,0,1,7.614,77.02857c.35681.83417.00818.80365-.18982.647A29.62444,29.62444,0,0,0,9.52476,80.0312c-.46582.21167.03016.75854.29139,1.56152.262-.54395.678-.12732,1.21716.47455a22.2631,22.2631,0,0,0,1.66687,1.8269c-.218.269-.67188.23956-1.53479-1.03552.44336,1.80273,2.21435,1.0495,2.771,2.69629-.2539-.27149-.35107-.44965-.56665-.46271.786.473,2.03577,2.18762,1.48267,2.01984l-.25427-.27277c.39233.4812.90466,1.0741,1.46557,1.68652.59192.5821,1.26441,1.15229,1.892,1.66858a12.16,12.16,0,0,0,1.73584,1.23328c.52368.25354.92883.36322,1.13526.2558a3.89683,3.89683,0,0,1-1.13672.62494q1.33209.14712,2.61767.25451a23.54486,23.54486,0,0,0,2.56092.12506c-.745.37476-.506,2.64472-2.451,1.81556A5.8103,5.8103,0,0,0,24.57982,95.921c-.2843-.3144-.24378-1.43177.24621-1.18549a10.2695,10.2695,0,0,0,1.83557,2.52264c-.45007-.42749.72864-1.0841,1.52442-.60412-.21387.07782-.48731,1.02258-.85364.9566l2.609.15326c-.605-.10174-.5332.79437-.20288,1.338-.14588-.26556,1.87646.87781,2.50537,1.04065l-.81812-.64911c2.40418,1.25245,3.011-.33422,5.43421.53589a.872.872,0,0,0,.02038,1.66907c.38892-.18506,1.23914-.57831,2.27332-1.00073a11.73886,11.73886,0,0,1,1.64868-.56537,4.64961,4.64961,0,0,1,1.94934-.1377c.15442.15192.29053.29877.418.44367l.60144.054c.13159.123.2572.26049.38916.39453l.80957.84839c-.387-.181-.89038-.42585-1.3927-.62067-.0636-.02332-.124-.05072-.19018-.06854l-.27027.05328-.52612.1153c-.34253.08074-.66553.16925-.95288.26568a21.99213,21.99213,0,0,1-3.51294.79425c.89819.52649.16162.45,1.64477.79907.44666.4303-.93017.24927-1.37585.15509l1.71191.53321.856.26526.136.08276c.10583-.29065.451-.49884.67627-.34381.1333.05768.25122.09918.41308.17706.20764.14453.37769.20648.47486.10059-.10291-.09851-.23938-.24622-.31458-.30426l-.2019-.14032q-.19593-.13174-.36853-.22919a4.62091,4.62091,0,0,0-.46912.05975l-.18457.045a.49873.49873,0,0,1-.18066.00006l-.24439-.01618c.00171-.17248.16651-.34063.44629-.48559a2.01371,2.01371,0,0,1,.80139-.43085q.13862-.03836.29578-.06683l.161-.02564a.40779.40779,0,0,1,.118.05316,2.91725,2.91725,0,0,1,.48267.34638,5.81339,5.81339,0,0,1,1.04,1.27637c.12524.65533-1.24536.30029-1.402.46844a5.57487,5.57487,0,0,1,1.64453,1.905l-.87317-.637c.54846,1.24591,1.97,1.29553,2.35059,2.98388.27832.48169.22351,1.85565.60583,1.7096.12049-1.18012,1.977-2.66877,2.79334-2.4975a24.33889,24.33889,0,0,1,1.08239,3.54285c.01307.55059-.428.54138-.962.37768-.49036-.09991-.98169-.21979-.97461.247a.60074.60074,0,0,1,.40759.09369,3.30552,3.30552,0,0,1,.4812.34766c.329.75659-.62719.09155.46436,1.53534.58044-.359,1.97424,2.97839.79651.14227.98755,1.09472.90283,1.56311,2.01916,3.13714-.16162-.67431.25305-.85644.64405-.95068a20.53568,20.53568,0,0,1,.84667-2.33722.39494.39494,0,0,0,.32007.42078c1.45374-2.00971,2.57618-3.09821,3.89173-5.00458.25952-.08655,1.07055-.91516,1.03723-.34814a3.32751,3.32751,0,0,1,.47925-1.34894c1.2854-.83155-.84558,1.3941.34777.90667-.27441-.29992.618-1.86608,1.0022-2.86346-.68542-.0824-1.45617,1.91467-1.84167,2.91315-.69849-.47345-.40125-2.46826.67712-4.729.93994-1.7398.932-.39422,1.02612-.74365a9.70442,9.70442,0,0,0,.6637-1.00195c.17053-.29975.36719-.67255.49732-.96979.13952-.31079.25219-.60388.35449-.8891a2.692,2.692,0,0,1,.574-.4295,7.32165,7.32165,0,0,1,.6405-.38166c.11866-.06219.24439-.12323.37977-.18274l.34545-.1502a4.74324,4.74324,0,0,1,1.65906-.31073c1.29248.23144.34363,1.01623.70215,1.32629a5.772,5.772,0,0,1-1.9198.386,8.3433,8.3433,0,0,0-1.77.20837l1.5426-.12439c-.467.37183-1.58117.48169-1.8601,1.09589a1.93965,1.93965,0,0,0,.42175-.3609l.06213-.06549.10327-.01319.21644-.03167.47009-.08228c.64258-.12128,1.46826-.3172,2.33911-.5257a26.74717,26.74717,0,0,0,2.65332-.75683,22.59317,22.59317,0,0,1,2.42676-.62146c.41443-.34461,1.13208-.89392.67444-.919-.26587.14026-.52454.3-.79737.42475-.47278-.077-.1145-.324.18286-.6026.303-.26716.57727-.49.02735-.35578a10.69393,10.69393,0,0,1,3.56824-2.21533l.5531.3949c-.11-.12982-1.119.19806-1.47828.53155.52991-.46625,2.6554-.45862,2.95154-1.51617l-1.224.18933a14.66691,14.66691,0,0,1,3.12256-2.71893c-.86975-.14978-.24182.25067-1.46313.20361,1.22668.32947-3.22657,1.73114-1.53321,1.857a2.74428,2.74428,0,0,0-1.55639.20807,4.15277,4.15277,0,0,1-1.75183.275c.12231.16693.60168.1557-.53492.55169a1.2144,1.2144,0,0,1-.16931.27039L71.901,96.113l.07007-.00506c-.03564.049-.03735.0567.02588-.00244a1.44389,1.44389,0,0,1,.68616.03155c-.36157.661-2.132,1.47791-2.69348,1.86225-.72119.14666.20678-.31635-.24292-.38971l-.807.65808c-.24646-.39057-2.03943-.0846-.53259-.88391l-1.43311.475a7.123,7.123,0,0,0-2.80957.56452,4.88915,4.88915,0,0,0-.86218.24957c-.34106.12408-.63635.25378-.85547.35614-.43738.20477-.60193.30841-.165.018-.77929.03553-1.00268.84638-1.38061,1.41022l-.52491.88776-.30017.56036-.10571-.04449c-1.44214,2.00128-2.25964,4.60663-4.52331,6.47265-.18824.37439-.37513.75806-.62635,1.18225-.12561.2121-.26733.43433-.43335.6706a1.53817,1.53817,0,0,1-.26208.29321,2.78171,2.78171,0,0,1-.31153-.233c-.042.18127-.23217.28656-.35266.34979-.12622.07166-.20056.12714-.2146.50531a4.82287,4.82287,0,0,0-.12561-.48926c-.08032-.489-.13427-.514-.26819-.59649a1.25361,1.25361,0,0,1-.21105-.14075.50614.50614,0,0,1-.089-.09912c-.11524-.16925-.24488-.37311-.33558-.53931l-.45837.22858a27.46563,27.46563,0,0,0-2.59973-3.22449l-.31384.33484c-1.08509-.93036-1.74634-3.10791-3.02027-4.88306.22534.02552.50183.50769.63843.88953A5.769,5.769,0,0,0,45.354,100.394l-.49134-.67487-.25109-.32708c-.09278-.09516-.26783-.07123-.39747-.11133l-1.67663-.26941-.40051-.05853-.24207-.01838-.48144-.0404c-.3191-.02966-.634-.06653-.94007-.11993a3.47256,3.47256,0,0,1-1.66321-.65369,2.29,2.29,0,0,1-1.28979-.45154.447.447,0,0,0,.13965.02338c-.05286-.024-.13343-.05274-.2168-.08051-.20972-.15393-.421-.32165-.65735-.47882a3.1938,3.1938,0,0,0,.53943.43976,12.52955,12.52955,0,0,0-1.70874-.40009l-.07568-.55432-.14051-.04785c-.50634-.42065-.55163.00348-.37817.4773a4.17629,4.17629,0,0,0-.89929-.08271c-.15918-.92169-1.67774-.45959-1.968-1.49408-.58154.1955-2.99353-1.28912-3.741-.71618.03626-.10651-.10717-.24549.20826-.0799a6.1273,6.1273,0,0,0-1.83533-1.07855l.07471-.68628-1.79248-.20514c-.60279-.84955-.79712-1.238.2716-1.09332-2.29077-.78345-1.63452-.92188-3.65466-1.58435l.3302-.24317c-.58362-.3977-1.74744-.80487-1.84338-1.34-.3202-.82721-1.76722-2.13111-3.21277-3.87488l-1.14673-1.30646c-.3429-.48016-.68921-.96521-1.03162-1.44458a13.95325,13.95325,0,0,1-1.67529-2.88128c-.55859,1.29681-.55811-1.8609-1.4093-1.51508.10913-.34228-.0542-.89014.49865-.46606a7.25555,7.25555,0,0,1-1.17822-2.16736,3.38322,3.38322,0,0,0-1.23425-1.62067c.14209-.32568.56653.21222.6178-.04291-.12488-.11908-.52649-.46417-.44361-.73541.07215-.25989.313.18237.58338.40631C9.657,70.948,8.83226,71.05958,8.02318,71.22724a2.39056,2.39056,0,0,0-1.07971-2.15851c.13085-.44928.20251-1.12756.68676.092-.17029-.73187-1.03467-4.38354-1.59826-4.31653a2.18254,2.18254,0,0,0-.2948-1.1975c-.15674-.81794-.24207-1.26325-.32654-1.70453-.09412-.43921-.19544-.87238-.31482-1.68146l-.04346.46692c-.84631-.51911-.35034-1.33234-.61755-2.63092l.08362.02862a8.04865,8.04865,0,0,0-.04749-2.17169,5.004,5.004,0,0,1,.11926-2.139l-.472.17591c-.51282-.12409-.4198-.80542-.18592-1.655a6.12011,6.12011,0,0,0,.48548-2.73828l-.30518.61383c-.15222-.48584.23181-1.13752.674-1.761l.65747-.90241a2.56972,2.56972,0,0,0,.46558-.76587c.11987-.1889.09424.33289.11719.61774.97278-2.31659-.57605-.3819-.44361-2.21008.38526-.27887.78772.55334,1.03174-.63355a1.64381,1.64381,0,0,0,.07862-.82782,9.65673,9.65673,0,0,1-.04493-1.4,5.59568,5.59568,0,0,1,.66565-2.92438c-.34179.28278-.686.57556-.66247-.30682a3.73506,3.73506,0,0,1,.39087-1.0556c.21826-.359.45251-.74427.68274-1.12287a3.12781,3.12781,0,0,0,.61206-2.2312c.12316-.1297.20788-.16266.27038-.14477A11.50869,11.50869,0,0,1,9.15391,32.525a5.0611,5.0611,0,0,0,.3368-1.82159c.4718-.02533.8291-.4068,1.12231-.958a15.77532,15.77532,0,0,0,.90735-1.89093c.56055-1.34094,1.06067-2.61719,1.68616-2.17725l1.77014-2.50647.0758.15943a6.8814,6.8814,0,0,0,1.648-2.98975c.38587-.26971.267.07275.30188.15344a15.69761,15.69761,0,0,0,2.09729-2.08734,13.18588,13.18588,0,0,0,1.49-2.24347l.51612.20044a2.40845,2.40845,0,0,1,.71179-.66022c.18994-.13537.40124-.2929.6449-.4472.25293-.14233.52685-.29657.81518-.45892a20.69764,20.69764,0,0,0,1.78284-1.129c.60107-.41467,1.1394-.939,1.6803-1.39569a.42007.42007,0,0,1-.14136.34509,9.74254,9.74254,0,0,1,2.12817-1.35968,16.00423,16.00423,0,0,1,2.37537-1.00018c1.55591-.53467,2.78845-1.08972,2.95788-2.1734.57789-.4231,1.19629-.76667,1.80152-1.15821-2.631.81232.102-.871-1.073-.76062,1.00391-.48,2.84509-.4616,1.61816.08637l-.22717-.013c-.13782,1.04278,3.31384-.86859,3.45813-.13068,5.1211-1.63208,10.43421-1.51947,15.33667-1.33252l-.55-.76043,1.74768.13061c.44873.19293.5719.60169-.6582.50952.62024.44672,2.09253-.24334,2.15137-.39966,1.20227.24738.93078.48468.47522.575-.46155.13226-1.12451.2608-.75708.28216a6.62532,6.62532,0,0,1,1.00036.03449l-.214-.11951a3.99183,3.99183,0,0,1,2.4231-.214c.9115.287.405.51794.76587.60144-.01087.05072.10754.09338.5553.10529a14.36131,14.36131,0,0,1,2.10815.5177l-.71924-.78211c1.004-.0343,2.00025.54694,1.16272-.34411a4.74748,4.74748,0,0,0,1.75489.954c.40222.14783.84545.28882,1.30737.42524.44763.18255.91394.36059,1.37793.53167.93152.33332,1.84607.66053,2.58154.92371a4.63366,4.63366,0,0,1,1.42249.73627,8.74421,8.74421,0,0,1,2.02832.57983,10.46892,10.46892,0,0,1,2.05468,1.06757c-.29638-.321-.20239-1.02295,1.01563-.18964-.56506.44031-.07007.9118.6217,1.44684.68677.5426,1.60938,1.1134,1.771,1.88879-.465-1.14465,3.34936,2.30921,2.59961.61487.90307.80975-.24829.44055.28369,1.23077A15.38447,15.38447,0,0,1,86.78,18.16553c1.09107,1.24573,2.0708,2.68427,3.33069,3.90455.1676-.06482-.00122-.69574.678-.27131l.4198,2.03186c.47864.49567,1.20105-.08825,1.46643,1.28333.0144-.2273.03467-.57227.36243-.22839a11.06554,11.06554,0,0,1,.61572,1.15631l.6062,1.16382c.41687.76849.85816,1.52386,1.3158,2.2738q.58979,1.1781,1.183,2.36291c.37927.79657.8645,1.55182,1.16528,2.38721a22.72356,22.72356,0,0,1,2.15076,10.32581c.19507-.98743.32166-.37592.44312.3374.00964-.47785.43042-.05939.65185-.18823l-.21777,2.99554c.68408.47516.20056,3.13367.84851,3.41663l-.16113-.93225c.80993,1.235,1.568-1.85309,2.53076-1.76758a2.09126,2.09126,0,0,1-.2594-1.24072,14.27145,14.27145,0,0,1,.1073-1.5495,4.82168,4.82168,0,0,0-.647-3.44269c.07361-.56037.39441.38428.54834.06207a3.93481,3.93481,0,0,1-.97021-2.587l.13721.12548c-.26514-.9309-.46582-1.73468-.63135-2.48645-.21619-.736-.42554-1.411-.61194-2.11212a30.24844,30.24844,0,0,0-1.57458-4.9201l-.28809.49328a5.36779,5.36779,0,0,1-.387-1.56433c-1.10852-.6466,1.10766,2.39191-.03418,1.84674.14843-.74426-.49475-2.2782-1.27429-3.67212-.81177-1.37872-1.58387-2.71777-1.347-3.38086-.75916-1.23956-.22156.65265-.99976-.56268l.01526-.475-.53149-.07409c-.51172-.791-.501-1.3952-.32178-1.57471a5.69125,5.69125,0,0,0,.618.67383c-.47693-1.1955-2.16552-2.757-2.38855-3.11609a12.35591,12.35591,0,0,1,.72888,1.21149c-.61718-.77838-1.38281-1.49964-2.10253-2.29224-.73987-.77374-1.43946-1.62213-2.22913-2.37476-.81091-.731-1.6272-1.45105-2.44116-2.11859-.41114-.32867-.804-.66552-1.22681-.94488-.43371-.26612-.86487-.51441-1.29138-.73969l.09314.34912a7.961,7.961,0,0,1-2.14551-1.53393,9.15209,9.15209,0,0,0-.78357-.7309,14.14092,14.14092,0,0,0-1.53869-.92022l.12707.01483A6.83452,6.83452,0,0,1,78.352,7.82636c.81775.18945-1.04577-1.228-.00231-.93426-3.01551-1.0528-1.57166-.39716-3.77759-.558l-.27246-.54223a7.01234,7.01234,0,0,1-.91529-.0033,13.5507,13.5507,0,0,1-1.45813-.35486c1.32874.14844-.73632-.87182.78455-.76172a9.132,9.132,0,0,0-3.66931-1.38867c-1.00037-.20648-1.80286-.21936-2.387-1.00677-1.7434.6112,2.63465,1.26593,1.74415,1.26733.57678.51465-1.42554.4079-2.38929.06757a4.34566,4.34566,0,0,1-1.40869-1.04584,5.88766,5.88766,0,0,0-1.03528-.719,6.34008,6.34008,0,0,0-1.6322-.44549c.26392.04541.29553-.02832.55921.01666-.95862-.412-2.00367.05145-3.16956-.555-.75024.48163-1.5929-.21143-1.86084.57269a17.50839,17.50839,0,0,1,2.44568.09515c-1.40735-.06158-2.75891.84137-4.97888.2779a4.52557,4.52557,0,0,1,1.33642-.42c-.65454-.2669-1.28686.09-1.96875-.184.22071-.76642,2.98035-.0603,4.52759-.50933-.6925-.44465-2.88464.40454-2.06616-.42847A2.2419,2.2419,0,0,1,54.76744.611a3.767,3.767,0,0,0-2.5105.2124L52.36986.343A5.34639,5.34639,0,0,1,50.95872.6999l.9458-.663c-1.46179.60382-2.90295-.32831-4.32128.062,2.99694-.20074.7229.52619,2.00488.79987a6.226,6.226,0,0,1-1.91748.19275A2.65917,2.65917,0,0,1,46.63341.8122C46.01475.541,45.31309.22877,43.27147.65888c.54907-.153,2.13476-.03943,1.30249.3103A11.45184,11.45184,0,0,1,42.19359.82929c-2.648.77765.51269.37238-.55664.94623-1.0304-.33289-1.24573.56213-2.33631,1.03424l-.1372-.46283c-1.54932.23187-1.67249.53833-1.75074.83563-.08325.28913-.12646.55469-1.48205.85114l.88672-1.03577-1.31067.6626.09839-.6203a9.38986,9.38986,0,0,1-3.35718,1.44269c.46045.15594.16382.89129-1.0492,1.492-.95983.14435.27369-.64111-1.4425.26276a1.46,1.46,0,0,1,1.48767-.979c.01184-.18023.26538-.4635.2832-.64428A10.82355,10.82355,0,0,0,28.54747,5.9723a3.08725,3.08725,0,0,1,.74487-.23493l-1.11865.91846L27.13194,7.67737c-.46985.07306-.244-.23413-.01452-.53973-.4657.34326-.69153.7395-1.38624,1.21039-.01977-.4466-.28039-.76264.661-1.54962L24.29344,8.584a3.71083,3.71083,0,0,0-.78979.11658c-.29078.07458-.528.11334-.426-.05255a8.81268,8.81268,0,0,0-1.99988,1.81183,14.78085,14.78085,0,0,1-2.24743,2.051,1.75184,1.75184,0,0,1-.41077.64917c-.72205.5954-1.47327,1.08618-2.20581,1.66785a7.56482,7.56482,0,0,0-1.9093,2.34185l-1.37757.47156c-1.05151,1.39813,1.81116-.67993.0763,1.62921-1.06751,1.74781-.92945.22675-1.52039.67743a14.37928,14.37928,0,0,1-.72888,1.97467,7.33373,7.33373,0,0,1-1.59106,2.12073A5.96269,5.96269,0,0,1,10.03355,22.59315ZM1.96434,42.21339c-.03272-.42481-.10767-1.29053.23743-1.52216C2.63145,41.27271,2.25963,41.55445,1.96434,42.21339ZM6.5648,73.39765a1.74626,1.74626,0,0,1-.40051-1.22815A3.61828,3.61828,0,0,1,6.5648,73.39765Zm59.36292,25.045a.21458.21458,0,0,0-.03284.03229C65.03087,98.49665,65.33909,98.49622,65.92772,98.44269Zm1.73352-.301c.146-.1217.11365-.18134.02319-.22131-.07763.15606-.44739.29284-.87964.40673C66.958,98.4076,67.199,98.41639,67.66124,98.14167ZM61.58287,5.26948l-.31738-.176C62.05687,5.07337,61.81969,5.16419,61.58287,5.26948Z"/><path class="cls-2" d="M4.56847,70.30976a.45148.45148,0,0,1,.19335-.2558C4.637,69.92933,4.54747,69.957,4.56847,70.30976Z"/><path class="cls-2" d="M18.7783,12.55067l.052-.03986a.20731.20731,0,0,0-.00769-.11035Z"/><path class="cls-2" d="M48.61473,113.11213a1.78548,1.78548,0,0,1-.30664-.88666c-.05444.025-.078.08685-.05042.2041a1.15194,1.15194,0,0,0,.0824.21967C48.40294,112.76838,48.49913,112.92988,48.61473,113.11213Z"/><path class="cls-2" d="M75.777,93.74958l-.90845.64453a2.35065,2.35065,0,0,1,.94861-.34277C75.74107,93.96448,75.4785,93.92292,75.777,93.74958Z"/><path class="cls-2" d="M85.59764,90.60255c.09546-.15186.28381-.22767.36316-.3938l-.18128-.137C85.23692,90.55231,84.94163,90.996,85.59764,90.60255Z"/><path class="cls-2" d="M77.47642,94.64393c.27234.2912.87049-.12079,1.48218-.65534a1.04578,1.04578,0,0,1-.11816.07886C78.73778,93.45936,78.13975,94.0962,77.47642,94.64393Z"/><path class="cls-2" d="M79.10618,93.87366a4.76206,4.76206,0,0,1,.61145-.42028C79.67137,93.21076,79.44273,93.57978,79.10618,93.87366Z"/><path class="cls-2" d="M69.66942,97.16437c.38769-.02276.037-.56079.29248-.474C70.17528,96.07038,67.84813,98.078,69.66942,97.16437Z"/><polygon class="cls-2" points="78.73 95.48 78.217 95.19 78.02 95.76 78.73 95.48"/><path class="cls-2" d="M72.80235,98.07288l1.24927-.40344c-.05335-.06818.07727-.18024.24683-.29669C73.55748,97.68378,72.71556,97.949,72.80235,98.07288Z"/><path class="cls-2" d="M74.29845,97.37275a2.96322,2.96322,0,0,0,.91662-.50806C75.01951,96.97779,74.577,97.17762,74.29845,97.37275Z"/><polygon class="cls-2" points="77.23 96.477 76.839 96.573 76.01 96.988 77.23 96.477"/><path class="cls-2" d="M60.62718,104.4383l-.69238,1.26263c.05908.21759.36658-.045.61218-.52349C60.64232,104.82691,60.88841,104.351,60.62718,104.4383Z"/><path class="cls-2" d="M64.10326,102.23487a1.2249,1.2249,0,0,1-.37952-.07751.465.465,0,0,0-.28577-.06287l.37537.55072C63.81969,102.40156,63.99156,102.37293,64.10326,102.23487Z"/><path class="cls-2" d="M61.96556,105.1692c.0614.21521-.76892,1.99438.22668.47491C62.13353,105.42756,62.82762,104.1634,61.96556,105.1692Z"/><polygon class="cls-2" points="48.665 110.175 48.878 110.471 49.688 109.852 48.665 110.175"/><path class="cls-2" d="M33.70457,101.54926c1.59864.83185.62171-.44348,2.03455.37165.47241-.09131-1.154-.66175-.67835-.71741C33.95763,101.11249,33.50047,100.72571,33.70457,101.54926Z"/><path class="cls-2" d="M35.06077,101.2035a5.53848,5.53848,0,0,0,.56592.03186A2.52813,2.52813,0,0,0,35.06077,101.2035Z"/><polygon class="cls-2" points="100.524 49.686 100.364 50.732 100.672 50.047 100.524 49.686"/><path class="cls-2" d="M101.38133,51.6645l-.63611.25659.62024.62463C101.3242,52.3075,101.24412,51.84809,101.38133,51.6645Z"/><path class="cls-2" d="M.18919,45.1637l.14148.10926c.19446-.1554.24768-.42194.356-.95606Z"/><polygon class="cls-2" points="5.084 30.23 4.955 30.468 5.705 30.263 5.084 30.23"/><path class="cls-2" d="M11.4481,18.60267c-.347.42071-.62878,1.014-.97583,1.43609C11.10313,19.0199,12.10411,18.94746,11.4481,18.60267Z"/><path class="cls-3" d="M51.38328,78.067c-.0625,0-.124-.00195-.18652-.00586a2.99947,2.99947,0,0,1-2.81055-3.17773C49.06,63.91077,51.93211,57.358,57.16453,54.8512,62.0952,52.48987,68.311,54.04749,76.16942,59.61a2.99976,2.99976,0,0,1-3.4668,4.89649c-5.75781-4.0752-10.23242-5.542-12.94629-4.24414-3.00683,1.44043-4.86816,6.623-5.38183,14.98828A2.99993,2.99993,0,0,1,51.38328,78.067Z"/><path class="cls-3" d="M33.40575,70.567a3,3,0,0,1-2-5.23632c6.9082-6.17676,10.0996-11.22364,9.48632-15.001-.581-3.57617-4.7539-7.0625-12.40234-10.36328a3.00031,3.00031,0,0,1,2.37695-5.50977C40.65379,38.6803,45.87059,43.55823,46.814,49.3678c.99121,6.09766-2.63477,12.59082-11.41016,20.43555A2.98735,2.98735,0,0,1,33.40575,70.567Z"/><path class="cls-3" d="M62.44481,47.24085a12.64524,12.64524,0,0,1-4.30469-.73633c-6.2207-2.2373-10.23828-9.05371-11.94043-20.25879a2.99979,2.99979,0,0,1,5.93164-.90039c1.30762,8.60938,4.16309,14.11914,8.04,15.51368,3.51367,1.26562,8.40137-.67676,13.75977-5.46875a3.00019,3.00019,0,0,1,4,4.47265C71.5659,45.55433,66.36864,47.24085,62.44481,47.24085Z"/></g></g></svg>