<svg xmlns="http://www.w3.org/2000/svg" viewBox="0 0 104.16943 117.48157"><defs><style>.cls-1{fill:#1d1d1b;}.cls-2{fill:#c66e6e;}.cls-3{fill:#bf5c5c;}</style></defs><title>Frustrated_04</title><g id="Layer_2" data-name="Layer 2"><g id="Layer_1-2" data-name="Layer 1"><path class="cls-1" d="M103.12093,52.54571a50,50,0,1,0-60.06739,48.98584l4.3429,6.32794,5.72449,8.34106,5.72442-8.34106,4.3429-6.32788A50.01724,50.01724,0,0,0,103.12093,52.54571Z"/><path class="cls-2" d="M100.66943,52.91181c.058-.46271-.36865-.29681-.44055-.36609C100.28589,53.31293,100.77917,52.8946,100.66943,52.91181Z"/><path class="cls-2" d="M100.94079,60.67322l-.15051-.16461a9.1625,9.1625,0,0,1,.21362,1.2041A7.568,7.568,0,0,0,100.94079,60.67322Z"/><path class="cls-2" d="M99.1615,67.72553c.86963-.44934.75451-2.53656,1.21423-3.749l.20508-.17188-.43164-.7c-.1427.7702-.1742,1.69324-.34949,2.52405A9.01032,9.01032,0,0,1,99.1615,67.72553Z"/><path class="cls-2" d="M96.376,70.75758c.34522-.10627-.0924.84478.41736-.7768a1.36,1.36,0,0,1-.12646.12042C96.61255,70.24323,96.53113,70.43641,96.376,70.75758Z"/><path class="cls-2" d="M96.66687,70.1012c.26672-.69214-.403.36054,0,0Z"/><path class="cls-2" d="M95.42114,73.30433l.22668-.97626c-.23767.11469-.67578.86249-.63269.52637C94.67688,73.79572,94.91467,73.69312,95.42114,73.30433Z"/><path class="cls-2" d="M95.454,74.3689l.14367-.50348C95.4945,73.91456,95.41113,74.02283,95.454,74.3689Z"/><path class="cls-2" d="M95.90075,72.80543l-.3031,1.06c.16907-.07482.38428.01258.15906-.47827C95.90527,73.55945,95.823,73.27778,95.90075,72.80543Z"/><path class="cls-2" d="M96.25732,72.29493c.35242-.44617.71973-1.07672.56214-.05158C97.46216,70.43873,96.88672,70.51374,96.25732,72.29493Z"/><path class="cls-2" d="M99.74853,68.31641l.43176-.66919-.02648-.70678C100.16589,67.29389,99.52173,68.29133,99.74853,68.31641Z"/><path class="cls-2" d="M92.06726,78.39661c.09363.13617.51269-.05432.71521-.011l.24206-.70905C92.73669,77.93665,92.28039,78.48041,92.06726,78.39661Z"/><path class="cls-2" d="M92.78247,78.38563l-.36658,1.06988C92.96386,78.64356,92.95605,78.42475,92.78247,78.38563Z"/><polygon class="cls-2" points="96.075 74.892 96.426 73.033 95.919 75.209 96.075 74.892"/><polygon class="cls-2" points="89.632 81.707 89.723 81.004 89.484 82.201 89.632 81.707"/><path class="cls-2" d="M87.90149,83.81458c.08349-.5285-.77674.12769-.5929-.34534a7.25837,7.25837,0,0,0-.91309,1.789A4.47813,4.47813,0,0,1,87.90149,83.81458Z"/><path class="cls-2" d="M85.928,86.14588a6.93129,6.93129,0,0,0,.46752-.88763A3.66446,3.66446,0,0,0,85.928,86.14588Z"/><path class="cls-2" d="M91.24255,80.9098a1.22782,1.22782,0,0,0-.863.42157l.59766-.08179Z"/><path class="cls-2" d="M90.99719,81.2458l-.02.00378c-.29138.36517-.49341.61847-.58.727C90.4729,81.88435,90.65344,81.66444,90.99719,81.2458Z"/><path class="cls-2" d="M91.30969,80.82441l-.06714.08539C91.30127,80.90186,91.32776,80.8902,91.30969,80.82441Z"/><path class="cls-2" d="M94.32751,77.24824c-.141.66815-.66138,1.97046.35889,1.0393C94.68969,77.7356,94.10962,78.26356,94.32751,77.24824Z"/><path class="cls-2" d="M92.06543,80.71174c.25769-.297.53967-.57825.77929-.88983-.10559-.044-.35327.04065-.28027-.29755C92.43066,79.93946,92.231,80.31226,92.06543,80.71174Z"/><polygon class="cls-2" points="91.827 81.251 92.065 80.712 91.773 81.038 91.827 81.251"/><path class="cls-2" d="M87.60193,85.02088a3.85784,3.85784,0,0,1-.99964,1.35748,8.0251,8.0251,0,0,0,1.48535-1.36023C88.05139,84.85749,88.06494,84.48164,87.60193,85.02088Z"/><path class="cls-2" d="M89.33923,83.26472l-.05615.09875C89.35656,83.33588,89.40234,83.3025,89.33923,83.26472Z"/><polygon class="cls-2" points="81.984 90.387 82.109 90.387 82.082 90.314 81.984 90.387"/><path class="cls-2" d="M88.22094,84.98872a1.68325,1.68325,0,0,0,.613-.913,11.41239,11.41239,0,0,1-.74634.94244C88.10412,85.09034,88.12817,85.12336,88.22094,84.98872Z"/><path class="cls-2" d="M84.83581,87.44892a8.187,8.187,0,0,0,.7865-.41876C85.344,87.10633,84.82715,87.304,84.83581,87.44892Z"/><path class="cls-2" d="M89.08069,83.41169l.03552-.06787C88.93725,83.4054,88.985,83.41956,89.08069,83.41169Z"/><path class="cls-2" d="M89.08069,83.41169a3.39566,3.39566,0,0,0-.24671.664,6.02229,6.02229,0,0,0,.4491-.71222A.74517.74517,0,0,1,89.08069,83.41169Z"/><path class="cls-2" d="M82.07434,93.73072c-.077-.191.12732-.542.48572-.906a3.52657,3.52657,0,0,1,1.44982-.97546c.73584-.96442-.69909-1.48828-1.90136-1.462.07666.159.179.28418-.596,1.19709.44324-.07373,2.344-1.21906,1.78723-.31708-1.11633,1.13031-1.074.71948-1.83179.96423.83289.03791-1.25305,1.69745-.57006,2.1145l1.02539-.99041C82.01111,93.43256,81.689,93.8639,82.07434,93.73072Z"/><path class="cls-2" d="M83.854,89.0514l.34021-.332a5.60372,5.60372,0,0,1-1.62109.6004c-.49024.63684-.52979.85675-.49158.99463l1.86157-1.40894Z"/><path class="cls-2" d="M85.75134,87.2674c.028.5658-.69324,1.49787.13611,1.35657,1.0155-.99793.47949-.94635.96216-1.65735-1.57776,1.63178.30529-.61682-1.05176.32477a10.04821,10.04821,0,0,1,.80444-.913c-.33117.23951-.65942.45929-.98.6518l.05567-.01563.00671-.00824.00305.00647c.10706-.027.15283-.0252.05213.02674a.15981.15981,0,0,1-.028.03839.40944.40944,0,0,1,.03784.1878c-.53381.38086-.15063-.012-.03784-.1878a.28853.28853,0,0,0-.02417-.06513l-.00976.00177c-.49353.56385-.97071,1.15229-1.48377,1.70484A10.80907,10.80907,0,0,0,85.75134,87.2674Z"/><path class="cls-2" d="M94.80322,79.83607a.10511.10511,0,0,1-.12378.00854C94.64233,80.0019,94.64148,80.07081,94.80322,79.83607Z"/><path class="cls-2" d="M94.07129,80.50666a1.36363,1.36363,0,0,1,.30517-.83417c.36377-.33319.17151.115.303.17212.08435-.347.36206-1.15076-.36877-.38678l-.03894.17108c-.59693.73419-1.76539,1.36261-1.7179,1.195A2.93156,2.93156,0,0,0,94.07129,80.50666Z"/><path class="cls-2" d="M90.09851,84.27064l-1.12488,1.56854.93274-.48035-.20044-.11218C90.50561,84.488,90.13867,84.48383,90.09851,84.27064Z"/><polygon class="cls-2" points="81.688 90.349 81.604 89.834 81.15 91.018 81.688 90.349"/><polygon class="cls-2" points="79.746 91.794 79.598 91.417 79.202 91.968 79.746 91.794"/><path class="cls-2" d="M5.03576,31.79731l.15894-.59082A3.62644,3.62644,0,0,0,5.03576,31.79731Z"/><path class="cls-2" d="M3.46844,35.88386l.14813.16247C3.5838,35.82246,3.53753,35.71857,3.46844,35.88386Z"/><path class="cls-2" d="M36.78589,97.13294c-.31421-.30347-.62665-.65961-.86786-.88336-.23145-.24878-.39722-.35895-.43787-.13306l.06073.50177A3.91418,3.91418,0,0,1,36.78589,97.13294Z"/><path class="cls-2" d="M6.25561,70.2392l-.0285.2746c.217.13416.42029.25971.60461.37366Z"/><path class="cls-2" d="M4.34784,70.30213l-.0846-1.18573A6.40681,6.40681,0,0,0,4.34784,70.30213Z"/><path class="cls-2" d="M18.82263,12.40046l.24457-.817C18.23663,12.3382,18.748,12.17585,18.82263,12.40046Z"/><path class="cls-2" d="M57.56994,105.5199a9.56526,9.56526,0,0,0-1.23986,1.344C57.0299,106.28425,57.73718,105.91468,57.56994,105.5199Z"/><path class="cls-2" d="M8.69079,35.08417c.04242-.34558.01007-.51489-.083-.5418C8.557,34.89826,8.56707,35.113,8.69079,35.08417Z"/><path class="cls-2" d="M55.146,108.59186c.10816-.08074.19727-.17181.301-.2583a9.12125,9.12125,0,0,1,.88306-1.46966A3.09428,3.09428,0,0,0,55.146,108.59186Z"/><path class="cls-2" d="M95.71753,21.976c.02185.062.05981.12836.07531.18762C95.85193,22.14484,95.80249,22.07282,95.71753,21.976Z"/><path class="cls-2" d="M100.6936,45.82856c-.06116-.22192-.11792-.58966-.17639-.93573A3.60033,3.60033,0,0,0,100.6936,45.82856Z"/><path class="cls-2" d="M71.11963,96.24531c.45629-.23456.05578-.07733,0,0Z"/><path class="cls-2" d="M74.13012,96.78413a.28983.28983,0,0,0-.10376.27685A.371.371,0,0,1,74.13012,96.78413Z"/><path class="cls-2" d="M54.28772,114.61445l-.02735.03723C54.37878,114.62934,54.35815,114.63062,54.28772,114.61445Z"/><path class="cls-2" d="M71.901,96.113a4.72845,4.72845,0,0,0-.64954.14838A4.89979,4.89979,0,0,0,71.901,96.113Z"/><path class="cls-2" d="M71.72509,95.9668c.1681-.05658.29969-.101.4253-.14331C72.18005,95.73121,72.11,95.71259,71.72509,95.9668Z"/><path class="cls-2" d="M70.47766,96.55787a5.72694,5.72694,0,0,1,.7738-.29645c-.10315.01392-.15088.00842-.13183-.01611Z"/><path class="cls-2" d="M56.26526,1.38837c.03588.01557.07763.02649.11633.04706C56.95312,1.28413,56.70532,1.3003,56.26526,1.38837Z"/><path class="cls-2" d="M22.35486,94.4806c.02331.01281.04083.01233.0628.023l-.05615-.06391Z"/><path class="cls-2" d="M20.57019,93.476a2.35937,2.35937,0,0,1,1.79132.96362l.23035-1.41369Q21.59723,93.2637,20.57019,93.476Z"/><path class="cls-2" d="M10.03363,22.59315a10.37089,10.37089,0,0,0-1.12927.97107,7.97117,7.97117,0,0,1,.7102-1.92945c.14307-.348.06445-.37976-.57153.01526.247.23749.16491.64386-.0755,1.13477a14.27668,14.27668,0,0,1-.90546,1.73895c-.70306,1.22162-1.4021,2.44586-.85742,2.855a9.40741,9.40741,0,0,0-.68323.70465c.12994-.23816.07831-.31494.20746-.55035-1.3833,1.36572.27515,1.68371-.90973,3.70019-.44781.69177-.87775,1.13342-.78339.56409-.17779.58893-.23492,1.22479-.35534,1.82953-.20716.48834-.38318.2832-.176-.20606l-.85693,2.6576-.03089-.03205c.05732.44043.07,1.38153.12323,1.849-.36212.62335-.05029-.38116-.25732-.25647l-.06531,1.57019c-.496.5152-.50885-.80615-.19208-1.82788-1.66564,1.02979.008,1.324-1.53369,4.15808l.19654-1.46441a3.126,3.126,0,0,0-.98175,1.44287c-.2331.58654-.35382,1.28717-.73121,2.08307.15436-.17914.58161-.96412.9773-1.4701.4093-.50519.80688-.7304.79718.12128a3.78342,3.78342,0,0,0-.18317,1.99469c-.4779-.06928-.49554.82855-.63391,1.92767l-.62365-.15283c-.005,1.22052.33654,1.1582.59161,1.88794A2.03586,2.03586,0,0,1,.0271,49.77778c-.20978,2.15375.86755-1.44281.86108,1.09851-.39044,1.76733.00879,3.03442.46863,5.11444-.16394,1.25043-.40009-.18927-.56268.26666.19067.35578.36309.70954.56842,1.057.02288.26672-.14447.196-.229.15948.31787.897.64624.017,1.00812,1.42115.76105.26666-.69336,3.10382.56848,4.69946-.08093.4693-.4295-.12409-.64209.05939a12.45456,12.45456,0,0,0,2.07868,3.71l.11651,1.75256c.09381-1.35284,1.06275.02338,1.99237,1.1228.03876-.47741.12268-.89679.14215-1.164a21.63181,21.63181,0,0,0,1.10236,1.87836c.00189.278-.28375.16333-.6684-.0661.10572.11694.208.22674.2945.309.07788.80273-.41449.58032-.9632.19128.014-.29474.03766-.589.06409-.874-.5802-.35413-1.15772-.69232-1.46527-.45984a3.66872,3.66872,0,0,1,.42785.62171c-.15374-.09571-.27752-.14826-.3117-.064-.034.09387.18841.261.48022.5387l-.4671.73395.31043.00915c.246.95825.4638,1.93921.74505,2.89972a46.25465,46.25465,0,0,1,5.34485,5.24414c-.86865-.395-.8092.31818-1.34979.62238a2.43668,2.43668,0,0,0-.882-1.62476c-.2525-.28284-.55231-.56958-.80438-.90259a5.84907,5.84907,0,0,1-.64124-1.10382c.35675.83417.00812.80365-.18988.647A29.63638,29.63638,0,0,0,9.52478,80.0312c-.46582.21167.03009.75854.29144,1.56152.26184-.54395.67792-.12732,1.2171.47455a22.24335,22.24335,0,0,0,1.66693,1.8269c-.21808.269-.67187.23956-1.53479-1.03552.44324,1.80273,2.21436,1.0495,2.77094,2.69629-.254-.27149-.35108-.44965-.56665-.46271.786.473,2.03583,2.18762,1.48273,2.01984l-.25428-.27277c.39221.4812.9046,1.0741,1.46558,1.68652.59186.5821,1.2644,1.15229,1.892,1.66858a12.1557,12.1557,0,0,0,1.73571,1.23328c.52375.25354.92884.36322,1.13532.2558a3.89644,3.89644,0,0,1-1.13666.62494q1.332.14712,2.61768.25451a23.54309,23.54309,0,0,0,2.56079.12506c-.74494.37476-.50592,2.64472-2.45093,1.81556A5.80958,5.80958,0,0,0,24.57977,95.921c-.28424-.3144-.24365-1.43177.24622-1.18549a10.27119,10.27119,0,0,0,1.83563,2.52264c-.45-.42749.7287-1.0841,1.52435-.60412-.2138.07782-.48724,1.02258-.85364.9566l2.60913.15326c-.605-.10174-.5332.79437-.20294,1.338-.14587-.26556,1.87647.87781,2.50537,1.04065l-.818-.64911c2.40411,1.25245,3.01092-.33422,5.43414.53589a.872.872,0,0,0,.02039,1.66907c.389-.18506,1.23913-.57831,2.27331-1.00073a11.73855,11.73855,0,0,1,1.64869-.56537,4.64959,4.64959,0,0,1,1.94934-.1377c.15442.15192.29052.29877.418.44367l.60145.054c.13159.123.2572.26049.38916.39453l.80957.84839c-.387-.181-.89039-.42585-1.3927-.62067-.0636-.02332-.124-.05072-.19019-.06854l-.27026.05328-.52613.1153c-.34253.08074-.66552.16925-.95288.26568a21.99127,21.99127,0,0,1-3.513.79425c.89826.52649.16168.45,1.64484.79907.44665.4303-.93018.24927-1.37586.15509l1.71192.53321.856.26526.136.08276c.106-.29065.45105-.49884.67627-.34381.1333.05768.25122.09918.41309.17706.20764.14453.37768.20648.47485.10059-.1029-.09851-.23938-.24622-.31445-.30426l-.202-.14032q-.19591-.13174-.36853-.22919a4.62571,4.62571,0,0,0-.46912.05975l-.18457.045a.49872.49872,0,0,1-.18066.00006l-.24438-.01618c.0017-.17248.1665-.34063.44628-.48559a2.01368,2.01368,0,0,1,.8014-.43085q.1386-.03836.29577-.06683l.161-.02564a.40624.40624,0,0,1,.118.05316,2.91226,2.91226,0,0,1,.48267.34638,5.8131,5.8131,0,0,1,1.04,1.27637c.12524.65533-1.24536.30029-1.40186.46844a5.57436,5.57436,0,0,1,1.64441,1.905l-.873-.637c.54834,1.24591,1.96985,1.29553,2.35046,2.98388.27832.48169.22351,1.85565.60584,1.7096.12048-1.18012,1.977-2.66877,2.79333-2.4975a24.33751,24.33751,0,0,1,1.0824,3.54285c.01306.55059-.428.54138-.962.37768-.49035-.09991-.98157-.21979-.97461.247a.60077.60077,0,0,1,.4076.09369,3.30607,3.30607,0,0,1,.4812.34766c.3291.75659-.6272.09155.46435,1.53534.58045-.359,1.97425,2.97839.79651.14227.98755,1.09472.90283,1.56311,2.01917,3.13714-.16163-.67431.253-.85644.644-.95068a20.53345,20.53345,0,0,1,.84668-2.33722.39493.39493,0,0,0,.32007.42078c1.45385-2.00971,2.57617-3.09821,3.89172-5.00458.25952-.08655,1.07056-.91516,1.03723-.34814a3.32751,3.32751,0,0,1,.47925-1.34894c1.28552-.83155-.84546,1.3941.34778.90667-.27442-.29992.618-1.86608,1.00232-2.86346-.68555-.0824-1.4563,1.91467-1.8418,2.91315-.69849-.47345-.40124-2.46826.67712-4.729.93995-1.7398.932-.39422,1.02613-.74365a9.70417,9.70417,0,0,0,.66369-1.00195c.17054-.29975.36719-.67255.49732-.96979.13952-.31079.2522-.60388.35449-.8891a2.69235,2.69235,0,0,1,.574-.4295,7.31868,7.31868,0,0,1,.6405-.38166c.11865-.06219.24438-.12323.37976-.18274l.34546-.1502a4.74319,4.74319,0,0,1,1.65906-.31073c1.2926.23144.34362,1.01623.70214,1.32629a5.772,5.772,0,0,1-1.9198.386,8.34345,8.34345,0,0,0-1.77.20837l1.54261-.12439c-.467.37183-1.58118.48169-1.86011,1.09589a1.93685,1.93685,0,0,0,.42175-.3609l.06214-.06549.10327-.01319.21643-.03167.47009-.08228c.64258-.12128,1.46826-.3172,2.33911-.5257a26.7464,26.7464,0,0,0,2.65332-.75683,22.59376,22.59376,0,0,1,2.42676-.62146c.41443-.34461,1.13208-.89392.67444-.919-.26587.14026-.52441.3-.79736.42475-.47278-.077-.11451-.324.18286-.6026.303-.26716.57727-.49.02734-.35578a10.69393,10.69393,0,0,1,3.56824-2.21533l.5531.3949c-.11-.12982-1.119.19806-1.47827.53155.5299-.46625,2.65539-.45862,2.95154-1.51617l-1.224.18933a14.6696,14.6696,0,0,1,3.12256-2.71893c-.86963-.14978-.24183.25067-1.46314.20361,1.22669.32947-3.22656,1.73114-1.5332,1.857a2.7443,2.7443,0,0,0-1.5564.20807,4.15274,4.15274,0,0,1-1.75183.275c.12231.16693.60168.1557-.53491.55169a1.21477,1.21477,0,0,1-.16931.27039L71.901,96.113l.07007-.00506c-.03565.049-.03736.0567.02588-.00244a1.44385,1.44385,0,0,1,.68615.03155c-.36157.661-2.132,1.47791-2.69348,1.86225-.72119.14666.20679-.31635-.24292-.38971l-.807.65808c-.24646-.39057-2.03942-.0846-.53259-.88391l-1.4331.475a7.12289,7.12289,0,0,0-2.80957.56452,4.88919,4.88919,0,0,0-.86219.24957c-.34106.12408-.63623.25378-.85547.35614-.43737.20477-.60192.30841-.165.018-.7793.03553-1.00269.84638-1.38062,1.41022l-.5249.88776-.30017.56036-.10572-.04449c-1.44213,2.00128-2.25952,4.60663-4.52331,6.47265-.18823.37439-.37512.75806-.62634,1.18225-.12561.2121-.26734.43433-.43335.6706a1.53819,1.53819,0,0,1-.26209.29321,2.78068,2.78068,0,0,1-.31152-.233c-.042.18127-.23218.28656-.35266.34979-.12622.07166-.20056.12714-.2146.50531a4.86714,4.86714,0,0,0-.12549-.48926c-.08045-.489-.1344-.514-.26831-.59649a1.25326,1.25326,0,0,1-.21106-.14075.50646.50646,0,0,1-.089-.09912c-.11523-.16925-.24487-.37311-.33557-.53931l-.45838.22858a27.46563,27.46563,0,0,0-2.59973-3.22449l-.31384.33484c-1.08508-.93036-1.74634-3.10791-3.02026-4.88306.22546.02552.50183.50769.63842.88953A5.76866,5.76866,0,0,0,45.354,100.394l-.49133-.67487-.2511-.32708c-.09277-.09516-.26782-.07123-.39734-.11133l-1.67676-.26941-.40051-.05853-.24207-.01838-.48144-.0404c-.31909-.02966-.634-.06653-.94006-.11993a3.47252,3.47252,0,0,1-1.66321-.65369,2.29076,2.29076,0,0,1-1.28986-.45154.44766.44766,0,0,0,.13971.02338c-.05279-.024-.13348-.05274-.2168-.08051-.20971-.15393-.421-.32165-.65734-.47882a3.19364,3.19364,0,0,0,.53949.43976,12.533,12.533,0,0,0-1.70881-.40009l-.07568-.55432-.14056-.04785c-.50635-.42065-.55158.00348-.37806.4773A4.17629,4.17629,0,0,0,34.123,96.965c-.15918-.92169-1.67779-.45959-1.968-1.49408-.58161.1955-2.99353-1.28912-3.741-.71618.03619-.10651-.10724-.24549.20819-.0799a6.1269,6.1269,0,0,0-1.83527-1.07855l.07459-.68628-1.79236-.20514c-.60278-.84955-.79718-1.238.27161-1.09332-2.29078-.78345-1.63459-.92188-3.65473-1.58435l.3302-.24317c-.58368-.3977-1.7475-.80487-1.84332-1.34-.32019-.82721-1.76727-2.13111-3.21277-3.87488-.37244-.42432-.75763-.8631-1.14673-1.30646-.34289-.48016-.68927-.96521-1.03161-1.44458a13.95061,13.95061,0,0,1-1.6753-2.88128c-.55865,1.29681-.55822-1.8609-1.4093-1.51508.10907-.34228-.05432-.89014.4986-.46606a7.25657,7.25657,0,0,1-1.17816-2.16736,3.38294,3.38294,0,0,0-1.23432-1.62067c.14215-.32568.56653.21222.6178-.04291-.12494-.11908-.52649-.46417-.4436-.73541.07208-.25989.313.18237.58337.40631C9.657,70.948,8.83227,71.05958,8.02319,71.22724a2.39037,2.39037,0,0,0-1.07965-2.15851c.13074-.44928.20251-1.12756.68671.092C7.46,68.4289,6.59558,64.77723,6.032,64.84424a2.1825,2.1825,0,0,0-.29474-1.1975c-.15674-.81794-.24206-1.26325-.32666-1.70453-.09405-.43921-.19531-.87238-.31482-1.68146l-.04339.46692c-.84632-.51911-.35029-1.33234-.6175-2.63092l.08362.02862a8.04443,8.04443,0,0,0-.04761-2.17169,5.00633,5.00633,0,0,1,.11939-2.139l-.47205.17591c-.51288-.12409-.41986-.80542-.18591-1.655a6.12018,6.12018,0,0,0,.48541-2.73828l-.30517.61383c-.15229-.48584.23187-1.13752.674-1.761.2243-.3078.45294-.62158.65753-.90241a2.57042,2.57042,0,0,0,.46545-.76587c.12-.1889.0943.33289.11719.61774.97284-2.31659-.57593-.3819-.44348-2.21008.38519-.27887.78766.55334,1.03174-.63355a1.64459,1.64459,0,0,0,.07855-.82782,9.65541,9.65541,0,0,1-.04492-1.4,5.59607,5.59607,0,0,1,.66565-2.92438c-.3418.28278-.686.57556-.66248-.30682a3.73535,3.73535,0,0,1,.39093-1.0556c.2182-.359.45245-.74427.68268-1.12287a3.12707,3.12707,0,0,0,.612-2.2312c.12317-.1297.208-.16266.27045-.14477A11.50774,11.50774,0,0,1,9.154,32.525a5.0666,5.0666,0,0,0,.33679-1.82159c.4718-.02533.8291-.4068,1.12232-.958a15.76784,15.76784,0,0,0,.90722-1.89093c.56055-1.34094,1.06073-2.61719,1.68628-2.17725l1.77008-2.50647.07587.15943a6.88062,6.88062,0,0,0,1.64789-2.98975c.38586-.26971.267.07275.30194.15344a15.70508,15.70508,0,0,0,2.09729-2.08734,13.18328,13.18328,0,0,0,1.48993-2.24347l.51611.20044a2.40778,2.40778,0,0,1,.71179-.66022c.19-.13537.40119-.2929.645-.4472l.81519-.45892a20.70522,20.70522,0,0,0,1.78283-1.129c.60108-.41467,1.13935-.939,1.68018-1.39569a.41973.41973,0,0,1-.1413.34509,9.74381,9.74381,0,0,1,2.12818-1.35968,16.00635,16.00635,0,0,1,2.37536-1.00018c1.55585-.53467,2.78845-1.08972,2.95789-2.1734.57788-.4231,1.19629-.76667,1.80151-1.15821-2.631.81232.102-.871-1.07294-.76062,1.00391-.48,2.8451-.4616,1.618.08637l-.22712-.013c-.13781,1.04278,3.31385-.86859,3.45813-.13068,5.1211-1.63208,10.43421-1.51947,15.33667-1.33252l-.54992-.76043,1.74756.13061c.44873.19293.5719.60169-.65821.50952.62024.44672,2.09253-.24334,2.15137-.39966,1.20227.24738.93079.48468.47522.575-.46155.13226-1.12451.2608-.75708.28216a6.62491,6.62491,0,0,1,1.00037.03449l-.214-.11951a3.99179,3.99179,0,0,1,2.42309-.214c.9115.287.405.51794.76587.60144-.01086.05072.10755.09338.5553.10529a14.36131,14.36131,0,0,1,2.10815.5177l-.71923-.78211c1.004-.0343,2.00024.54694,1.16272-.34411a4.74836,4.74836,0,0,0,1.75488.954c.40222.14783.84546.28882,1.30737.42524.44763.18255.91394.36059,1.37793.53167.93152.33332,1.84607.66053,2.58154.92371a4.63366,4.63366,0,0,1,1.42249.73627,8.74253,8.74253,0,0,1,2.02832.57983,10.469,10.469,0,0,1,2.05469,1.06757c-.29627-.321-.2024-1.02295,1.01562-.18964-.56506.44031-.07007.9118.62171,1.44684.68676.5426,1.60937,1.1134,1.771,1.88879-.465-1.14465,3.34937,2.30921,2.59961.61487.90308.80975-.24829.44055.28369,1.23077A15.382,15.382,0,0,1,86.78,18.16553c1.09106,1.24573,2.0708,2.68427,3.33068,3.90455.16761-.06482-.00122-.69574.678-.27131l.4198,2.03186c.47864.49567,1.20118-.08825,1.46643,1.28333.01441-.2273.03467-.57227.36255-.22839a11.08733,11.08733,0,0,1,.6156,1.15631l.60633,1.16382c.41674.76849.858,1.52386,1.31567,2.2738q.58979,1.1781,1.183,2.36291c.37928.79657.86451,1.55182,1.16529,2.38721a22.722,22.722,0,0,1,2.15075,10.32581c.19507-.98743.32166-.37592.44312.3374.00964-.47785.43042-.05939.65185-.18823l-.21777,2.99554c.68408.47516.20056,3.13367.84863,3.41663l-.16125-.93225c.80994,1.235,1.568-1.85309,2.53076-1.76758a2.09126,2.09126,0,0,1-.2594-1.24072,14.27651,14.27651,0,0,1,.1073-1.5495,4.82173,4.82173,0,0,0-.647-3.44269c.07361-.56037.39441.38428.54846.06207a3.93351,3.93351,0,0,1-.97021-2.587l.13708.12548c-.26514-.9309-.46582-1.73468-.63135-2.48645-.21618-.736-.42553-1.411-.61181-2.11212a30.27236,30.27236,0,0,0-1.57459-4.9201l-.28821.49328a5.37182,5.37182,0,0,1-.387-1.56433c-1.10852-.6466,1.10767,2.39191-.03418,1.84674.14844-.74426-.49475-2.2782-1.27429-3.67212-.81177-1.37872-1.58386-2.71777-1.347-3.38086-.75915-1.23956-.22155.65265-.99975-.56268l.01526-.475-.5315-.07409c-.51172-.791-.501-1.3952-.32178-1.57471a5.6905,5.6905,0,0,0,.618.67383c-.47693-1.1955-2.16541-2.757-2.38855-3.11609a12.35787,12.35787,0,0,1,.72888,1.21149c-.61719-.77838-1.38281-1.49964-2.10254-2.29224-.73975-.77374-1.43945-1.62213-2.229-2.37476-.811-.731-1.62732-1.45105-2.44129-2.11859-.41113-.32867-.804-.66552-1.22681-.94488-.43371-.26612-.86474-.51441-1.29126-.73969l.093.34912a7.9612,7.9612,0,0,1-2.14551-1.53393,9.15179,9.15179,0,0,0-.78356-.7309,14.14224,14.14224,0,0,0-1.5387-.92022l.12707.01483a6.83573,6.83573,0,0,1-2.16723-.95374c.81775.18945-1.04578-1.228-.00232-.93426-3.0155-1.0528-1.57166-.39716-3.77759-.558l-.27246-.54223a7.01219,7.01219,0,0,1-.91528-.0033,13.55012,13.55012,0,0,1-1.45813-.35486c1.32873.14844-.73621-.87182.78454-.76172A9.13191,9.13191,0,0,0,69.0415,3.28327c-1.00037-.20648-1.80286-.21936-2.387-1.00677-1.74341.6112,2.63464,1.26593,1.74414,1.26733.57678.51465-1.42554.4079-2.38928.06757a4.34556,4.34556,0,0,1-1.40869-1.04584,5.888,5.888,0,0,0-1.03528-.719,6.34067,6.34067,0,0,0-1.63208-.44549c.26379.04541.29541-.02832.55908.01666-.95862-.412-2.00366.05145-3.16956-.555-.75024.48163-1.59289-.21143-1.86071.57269a17.50731,17.50731,0,0,1,2.44555.09515c-1.40735-.06158-2.75891.84137-4.97888.2779a4.52555,4.52555,0,0,1,1.33643-.42c-.65455-.2669-1.28687.09-1.96863-.184.22058-.76642,2.98022-.0603,4.52746-.50933-.6925-.44465-2.88464.40454-2.06616-.42847A2.2419,2.2419,0,0,1,54.76745.611,3.76692,3.76692,0,0,0,52.257.82343L52.36987.343a5.34664,5.34664,0,0,1-1.411.35694l.94568-.663c-1.46179.60382-2.903-.32831-4.32129.062,2.99695-.20074.7229.52619,2.00488.79987a6.22553,6.22553,0,0,1-1.91736.19275A2.6592,2.6592,0,0,1,46.63342.8122C46.01477.541,45.31311.22877,43.27148.65888c.54907-.153,2.13477-.03943,1.30249.3103A11.4524,11.4524,0,0,1,42.1936.82929c-2.648.77765.5127.37238-.55664.94623-1.0304-.33289-1.24573.56213-2.3363,1.03424l-.13721-.46283c-1.54932.23187-1.67255.53833-1.75073.83563-.08326.28913-.12641.55469-1.48206.85114l.88678-1.03577-1.31079.6626.09845-.6203A9.38951,9.38951,0,0,1,32.248,4.48292c.46039.15594.16376.89129-1.04919,1.492-.9599.14435.27362-.64111-1.44251.26276a1.45985,1.45985,0,0,1,1.48761-.979c.01184-.18023.26538-.4635.28327-.64428A10.82406,10.82406,0,0,0,28.54748,5.9723a3.08636,3.08636,0,0,1,.74488-.23493l-1.11866.91846L27.13189,7.67737c-.46972.07306-.24395-.23413-.01452-.53973-.46564.34326-.69141.7395-1.38611,1.21039-.01984-.4466-.28052-.76264.66095-1.54962L24.29339,8.584a3.71005,3.71005,0,0,0-.78967.11658c-.29083.07458-.52808.11334-.42609-.05255a8.81269,8.81269,0,0,0-1.99981,1.81183,14.78329,14.78329,0,0,1-2.24744,2.051,1.75145,1.75145,0,0,1-.41083.64917c-.722.5954-1.4732,1.08618-2.20587,1.66785a7.56568,7.56568,0,0,0-1.90924,2.34185l-1.3775.47156c-1.05164,1.39813,1.81109-.67993.07623,1.62921-1.06744,1.74781-.92944.22675-1.52032.67743a14.38337,14.38337,0,0,1-.729,1.97467,7.33239,7.33239,0,0,1-1.591,2.12073A5.96445,5.96445,0,0,1,10.03363,22.59315ZM1.96435,42.21339c-.03265-.42481-.1076-1.29053.23737-1.52216C2.63147,41.27271,2.25964,41.55445,1.96435,42.21339ZM6.56482,73.39765a1.74594,1.74594,0,0,1-.40046-1.22815A3.61829,3.61829,0,0,1,6.56482,73.39765Zm59.36291,25.045a.21458.21458,0,0,0-.03284.03229C65.03088,98.49665,65.33911,98.49622,65.92773,98.44269Zm1.73352-.301c.146-.1217.11365-.18134.0232-.22131-.07764.15606-.44739.29284-.87964.40673C66.958,98.4076,67.199,98.41639,67.66125,98.14167ZM61.58288,5.26948l-.31738-.176C62.057,5.07337,61.8197,5.16419,61.58288,5.26948Z"/><path class="cls-2" d="M4.56842,70.30976a.45207.45207,0,0,1,.19342-.2558C4.637,69.92933,4.54748,69.957,4.56842,70.30976Z"/><path class="cls-2" d="M18.77832,12.55067l.05206-.03986a.20725.20725,0,0,0-.00775-.11035Z"/><path class="cls-2" d="M48.61474,113.11213a1.78559,1.78559,0,0,1-.30664-.88666c-.05444.025-.078.08685-.05029.2041a1.14072,1.14072,0,0,0,.08228.21967C48.40295,112.76838,48.49914,112.92988,48.61474,113.11213Z"/><path class="cls-2" d="M75.777,93.74958l-.90844.64453a2.35055,2.35055,0,0,1,.94861-.34277C75.74109,93.96448,75.47851,93.92292,75.777,93.74958Z"/><path class="cls-2" d="M85.59778,90.60255c.09533-.15186.28369-.22767.363-.3938l-.18127-.137C85.23694,90.55231,84.94165,90.996,85.59778,90.60255Z"/><path class="cls-2" d="M77.47644,94.64393c.27234.2912.87048-.12079,1.48218-.65534a1.04537,1.04537,0,0,1-.118.07886C78.73779,93.45936,78.13977,94.0962,77.47644,94.64393Z"/><path class="cls-2" d="M79.1062,93.87366a4.77162,4.77162,0,0,1,.61157-.42028C79.67151,93.21076,79.44275,93.57978,79.1062,93.87366Z"/><path class="cls-2" d="M69.66943,97.16437c.3877-.02276.037-.56079.29248-.474C70.17541,96.07038,67.84814,98.078,69.66943,97.16437Z"/><polygon class="cls-2" points="78.73 95.48 78.217 95.19 78.02 95.76 78.73 95.48"/><path class="cls-2" d="M72.80237,98.07288l1.24926-.40344c-.05334-.06818.07727-.18024.24683-.29669C73.55749,97.68378,72.71557,97.949,72.80237,98.07288Z"/><path class="cls-2" d="M74.29846,97.37275a2.96329,2.96329,0,0,0,.91663-.50806C75.01953,96.97779,74.577,97.17762,74.29846,97.37275Z"/><polygon class="cls-2" points="77.23 96.477 76.839 96.573 76.01 96.988 77.23 96.477"/><path class="cls-2" d="M60.62719,104.4383l-.69238,1.26263c.05908.21759.36658-.045.61218-.52349C60.64233,104.82691,60.88842,104.351,60.62719,104.4383Z"/><path class="cls-2" d="M64.10327,102.23487a1.225,1.225,0,0,1-.37952-.07751.46493.46493,0,0,0-.28576-.06287l.37536.55072C63.8197,102.40156,63.99157,102.37293,64.10327,102.23487Z"/><path class="cls-2" d="M61.96557,105.1692c.0614.21521-.76892,1.99438.22669.47491C62.13354,105.42756,62.82763,104.1634,61.96557,105.1692Z"/><polygon class="cls-2" points="48.665 110.175 48.878 110.471 49.688 109.852 48.665 110.175"/><path class="cls-2" d="M33.70459,101.54926c1.59869.83185.62164-.44348,2.03454.37165.47241-.09131-1.154-.66175-.67834-.71741C33.9577,101.11249,33.50055,100.72571,33.70459,101.54926Z"/><path class="cls-2" d="M35.06079,101.2035a5.53948,5.53948,0,0,0,.56592.03186A2.528,2.528,0,0,0,35.06079,101.2035Z"/><polygon class="cls-2" points="100.524 49.686 100.365 50.732 100.672 50.047 100.524 49.686"/><path class="cls-2" d="M101.38134,51.6645l-.6361.25659.62024.62463C101.32422,52.3075,101.24426,51.84809,101.38134,51.6645Z"/><path class="cls-2" d="M.18927,45.1637l.14148.10926c.19439-.1554.24762-.42194.35589-.95606Z"/><polygon class="cls-2" points="5.084 30.23 4.955 30.468 5.705 30.263 5.084 30.23"/><path class="cls-2" d="M11.44818,18.60267c-.34711.42071-.62885,1.014-.97589,1.43609C11.10315,19.0199,12.10418,18.94746,11.44818,18.60267Z"/><path class="cls-3" d="M51.38281,78.067c-.0625,0-.124-.00195-.18652-.00586a2.99947,2.99947,0,0,1-2.81055-3.17773c.67383-10.97266,3.5459-17.52539,8.77832-20.03223,4.93066-2.36133,11.14746-.80371,19.00586,4.75879a2.99976,2.99976,0,0,1-3.4668,4.89649c-5.75683-4.0752-10.23242-5.542-12.94726-4.24414-3.00684,1.44043-4.86817,6.624-5.38184,14.98828A2.99992,2.99992,0,0,1,51.38281,78.067Z"/><path class="cls-3" d="M33.40625,70.567a3,3,0,0,1-2.001-5.23632c6.90918-6.17676,10.10059-11.22364,9.48633-15.001-.58106-3.57617-4.75391-7.06348-12.40235-10.36328a3.00031,3.00031,0,0,1,2.377-5.50977c9.78711,4.22363,15.0039,9.10156,15.94824,14.91113.99023,6.09668-2.63477,12.59082-11.40918,20.43555A2.9916,2.9916,0,0,1,33.40625,70.567Z"/><path class="cls-3" d="M62.44433,47.24085a12.64513,12.64513,0,0,1-4.30468-.73633c-6.22071-2.2373-10.23829-9.05371-11.94043-20.25879a2.99979,2.99979,0,0,1,5.93164-.90039c1.30761,8.60938,4.16308,14.11914,8.04,15.51368,3.51269,1.26562,8.40136-.67676,13.75976-5.46875a3.00019,3.00019,0,1,1,4,4.47265C71.56543,45.55433,66.36816,47.24085,62.44433,47.24085Z"/></g></g></svg>