<svg xmlns="http://www.w3.org/2000/svg" viewBox="0 0 104.16942 117.48158"><defs><style>.cls-1{fill:#1d1d1b;}.cls-2{fill:#6dc7c2;}.cls-3{fill:#5ac0ba;}</style></defs><title>Paused_07</title><g id="Layer_2" data-name="Layer 2"><g id="Layer_1-2" data-name="Layer 1"><path class="cls-1" d="M103.121,52.54569a50,50,0,1,0-60.06739,48.98584l4.3429,6.32794,5.72449,8.34107,5.72442-8.34107,4.3429-6.32788A50.01724,50.01724,0,0,0,103.121,52.54569Z"/><path class="cls-2" d="M100.66942,52.91175c.0581-.46264-.36853-.29675-.44055-.36608C100.28587,53.31294,100.77928,52.89454,100.66942,52.91175Z"/><path class="cls-2" d="M100.94078,60.67323l-.15051-.16461a9.123,9.123,0,0,1,.21362,1.2041A7.55066,7.55066,0,0,0,100.94078,60.67323Z"/><path class="cls-2" d="M99.1616,67.72554c.86951-.44941.7544-2.53656,1.21424-3.749l.20508-.17187-.43177-.7c-.1427.77014-.17407,1.69323-.34948,2.524A9.01023,9.01023,0,0,1,99.1616,67.72554Z"/><path class="cls-2" d="M96.376,70.75758c.34534-.10626-.09229.84479.41748-.77686a1.38653,1.38653,0,0,1-.12646.12049C96.61253,70.24318,96.53111,70.43635,96.376,70.75758Z"/><path class="cls-2" d="M96.667,70.10121c.26672-.6922-.40308.36053,0,0Z"/><path class="cls-2" d="M95.42113,73.30427l.22668-.97626c-.23767.11469-.67566.86255-.63269.52637C94.67686,73.79573,94.91466,73.69307,95.42113,73.30427Z"/><path class="cls-2" d="M95.45409,74.36885l.14367-.50342C95.49461,73.91456,95.41124,74.02284,95.45409,74.36885Z"/><path class="cls-2" d="M95.90074,72.80543l-.303,1.06c.169-.07489.38416.01257.15894-.47827C95.90526,73.55946,95.823,73.27772,95.90074,72.80543Z"/><path class="cls-2" d="M96.25731,72.29493c.35241-.44616.71985-1.07672.56213-.05163C97.46214,70.43873,96.8867,70.51374,96.25731,72.29493Z"/><path class="cls-2" d="M99.74852,68.31636l.43188-.66919-.02649-.70673C100.166,67.29383,99.52171,68.29133,99.74852,68.31636Z"/><path class="cls-2" d="M92.06737,78.39656c.09362.13623.51269-.05426.71521-.011l.24194-.709C92.7368,77.93666,92.28038,78.48036,92.06737,78.39656Z"/><path class="cls-2" d="M92.78258,78.38557l-.3667,1.07C92.964,78.64357,92.956,78.42476,92.78258,78.38557Z"/><polygon class="cls-2" points="96.075 74.892 96.426 73.033 95.919 75.209 96.075 74.892"/><polygon class="cls-2" points="89.632 81.707 89.723 81.004 89.484 82.201 89.632 81.707"/><path class="cls-2" d="M87.90159,83.81453c.08338-.52845-.77685.12774-.593-.34528a7.26091,7.26091,0,0,0-.91309,1.78894A4.47914,4.47914,0,0,1,87.90159,83.81453Z"/><path class="cls-2" d="M85.92808,86.14589a6.91261,6.91261,0,0,0,.46741-.8877A3.66965,3.66965,0,0,0,85.92808,86.14589Z"/><path class="cls-2" d="M91.24254,80.90974a1.22794,1.22794,0,0,0-.863.42163l.59766-.08185Z"/><path class="cls-2" d="M90.99718,81.24574l-.02.00378c-.29126.36518-.49329.61853-.58.727C90.473,81.88435,90.65355,81.66438,90.99718,81.24574Z"/><path class="cls-2" d="M91.30968,80.82441l-.06714.08533C91.30125,80.90187,91.32786,80.89021,91.30968,80.82441Z"/><path class="cls-2" d="M94.32762,77.24818c-.14111.66815-.66138,1.97046.35876,1.03931C94.6898,77.73561,94.1096,78.26356,94.32762,77.24818Z"/><path class="cls-2" d="M92.06554,80.71174c.25769-.29706.53967-.57824.77917-.88983-.10559-.04394-.35327.04065-.28015-.29755C92.43077,79.93946,92.23106,80.31227,92.06554,80.71174Z"/><polygon class="cls-2" points="91.827 81.251 92.066 80.712 91.773 81.038 91.827 81.251"/><path class="cls-2" d="M87.602,85.02089a3.85977,3.85977,0,0,1-.99975,1.35748,8.01989,8.01989,0,0,0,1.48535-1.36023C88.0515,84.85743,88.06505,84.48164,87.602,85.02089Z"/><path class="cls-2" d="M89.33934,83.26472l-.05615.09876C89.35655,83.33589,89.40245,83.30244,89.33934,83.26472Z"/><polygon class="cls-2" points="81.984 90.387 82.109 90.387 82.082 90.314 81.984 90.387"/><path class="cls-2" d="M88.22093,84.98872a1.68269,1.68269,0,0,0,.613-.91309,11.40548,11.40548,0,0,1-.74634.94251C88.10423,85.09028,88.12828,85.12336,88.22093,84.98872Z"/><path class="cls-2" d="M84.8358,87.44886a8.16836,8.16836,0,0,0,.7865-.4187C85.3441,87.10633,84.82713,87.304,84.8358,87.44886Z"/><path class="cls-2" d="M89.08079,83.41163l.03553-.06781C88.93736,83.40541,88.985,83.41951,89.08079,83.41163Z"/><path class="cls-2" d="M89.08079,83.41163a3.39175,3.39175,0,0,0-.24682.664,6.0202,6.0202,0,0,0,.44922-.71215A.74711.74711,0,0,1,89.08079,83.41163Z"/><path class="cls-2" d="M82.07432,93.73066c-.0769-.19091.12745-.54193.48572-.906a3.5272,3.5272,0,0,1,1.44983-.97547c.736-.96441-.6991-1.48822-1.90137-1.462.07666.15906.17908.28424-.59582,1.19714.44311-.07379,2.344-1.21905,1.78723-.31714-1.11645,1.13031-1.0741.71949-1.83179.9643.83277.03784-1.25317,1.69745-.57007,2.1145l1.0254-.99048C82.01121,93.43257,81.689,93.8639,82.07432,93.73066Z"/><path class="cls-2" d="M83.85411,89.0514l.34021-.332a5.60383,5.60383,0,0,1-1.62109.6004c-.49036.63685-.52991.85669-.4917.99463l1.86157-1.409Z"/><path class="cls-2" d="M85.75145,87.26741c.02795.56579-.69336,1.49786.136,1.35656,1.01563-.99792.4795-.94635.96228-1.65734-1.57775,1.63177.30518-.61683-1.05187.32476a10.05689,10.05689,0,0,1,.80444-.913c-.33106.2395-.65943.45923-.98.65179l.05578-.01562.0066-.00824.00317.00641c.10706-.027.15271-.02521.05212.02679a.16786.16786,0,0,1-.028.03839.40938.40938,0,0,1,.03772.18775c-.53381.38092-.15051-.01191-.03772-.18775a.28892.28892,0,0,0-.02417-.06518l-.00977.00183c-.49365.56378-.9707,1.15222-1.48376,1.70483A10.81885,10.81885,0,0,0,85.75145,87.26741Z"/><path class="cls-2" d="M94.80321,79.83607a.10532.10532,0,0,1-.12378.00855C94.64244,80.00184,94.64159,80.07075,94.80321,79.83607Z"/><path class="cls-2" d="M94.07139,80.50666a1.36311,1.36311,0,0,1,.30506-.83416c.36389-.33319.17163.115.303.17212.08447-.34705.36218-1.15076-.36878-.38684l-.03882.17108c-.597.73425-1.76538,1.36267-1.718,1.19507A2.93205,2.93205,0,0,0,94.07139,80.50666Z"/><path class="cls-2" d="M90.09849,84.27064l-1.12475,1.56854.93262-.4804-.20044-.11213C90.5056,84.48805,90.13866,84.48384,90.09849,84.27064Z"/><polygon class="cls-2" points="81.688 90.349 81.604 89.834 81.15 91.018 81.688 90.349"/><polygon class="cls-2" points="79.747 91.794 79.598 91.417 79.202 91.968 79.747 91.794"/><path class="cls-2" d="M5.03575,31.79731l.15906-.59088A3.63125,3.63125,0,0,0,5.03575,31.79731Z"/><path class="cls-2" d="M3.46849,35.8838l.14807.16248C3.58385,35.82246,3.53758,35.71858,3.46849,35.8838Z"/><path class="cls-2" d="M36.786,97.13289c-.3142-.30341-.6267-.65961-.86792-.88331-.23144-.24877-.39721-.35894-.43786-.133l.06079.50177A3.91306,3.91306,0,0,1,36.786,97.13289Z"/><path class="cls-2" d="M6.25572,70.23921c-.00928.08893-.019.18225-.02856.2746.217.13409.42028.2597.60461.37365C6.65782,70.69166,6.46153,70.4709,6.25572,70.23921Z"/><path class="cls-2" d="M4.34788,70.30214l-.08459-1.18573A6.40731,6.40731,0,0,0,4.34788,70.30214Z"/><path class="cls-2" d="M18.82262,12.40046l.24462-.817C18.23668,12.33815,18.748,12.17585,18.82262,12.40046Z"/><path class="cls-2" d="M57.56993,105.51991a9.5675,9.5675,0,0,0-1.23975,1.34393C57.03,106.28419,57.73717,105.91468,57.56993,105.51991Z"/><path class="cls-2" d="M8.6909,35.08418c.04236-.34558.01-.515-.083-.54181C8.55711,34.89827,8.56712,35.113,8.6909,35.08418Z"/><path class="cls-2" d="M55.1461,108.59187c.108-.08081.19715-.17181.30091-.2583a9.12353,9.12353,0,0,1,.88317-1.46973A3.09321,3.09321,0,0,0,55.1461,108.59187Z"/><path class="cls-2" d="M95.71751,21.976c.022.06195.05982.12836.07532.18756C95.852,22.14485,95.8026,22.07283,95.71751,21.976Z"/><path class="cls-2" d="M100.69371,45.82856c-.06116-.22192-.11792-.58972-.17651-.93579A3.59629,3.59629,0,0,0,100.69371,45.82856Z"/><path class="cls-2" d="M71.11973,96.24531c.4563-.23456.05579-.07733,0,0Z"/><path class="cls-2" d="M74.13023,96.78407a.28972.28972,0,0,0-.10376.27692A.37068.37068,0,0,1,74.13023,96.78407Z"/><path class="cls-2" d="M54.2877,114.61439l-.02734.03723C54.37877,114.62935,54.35826,114.63063,54.2877,114.61439Z"/><path class="cls-2" d="M71.901,96.113a4.75176,4.75176,0,0,0-.64953.14837A4.88851,4.88851,0,0,0,71.901,96.113Z"/><path class="cls-2" d="M71.72508,95.96681l.42542-.14331C72.18016,95.73121,72.11009,95.7126,71.72508,95.96681Z"/><path class="cls-2" d="M70.47764,96.55787a5.721,5.721,0,0,1,.77381-.29651c-.10315.014-.15088.00849-.13172-.016C70.9846,96.31111,70.79381,96.404,70.47764,96.55787Z"/><path class="cls-2" d="M56.26536,1.38838c.03577.0155.07752.02643.11634.04706C56.95311,1.28413,56.70543,1.3003,56.26536,1.38838Z"/><path class="cls-2" d="M22.355,94.48054c.0232.01288.04078.01239.06275.023l-.05615-.0639Z"/><path class="cls-2" d="M20.5703,93.476a2.35949,2.35949,0,0,1,1.79126.96363l.23034-1.4137Q21.59728,93.26372,20.5703,93.476Z"/><path class="cls-2" d="M10.03367,22.59315a10.37388,10.37388,0,0,0-1.12927.97107,7.9689,7.9689,0,0,1,.71021-1.92944c.14306-.348.06445-.37976-.57154.01526.24707.23748.16492.64379-.07556,1.13476a14.282,14.282,0,0,1-.90539,1.73895c-.703,1.22162-1.4021,2.44581-.85742,2.855a9.38616,9.38616,0,0,0-.68323.70466c.12988-.23816.07824-.315.20752-.55042-1.3833,1.36572.27514,1.68372-.90979,3.70026-.44776.69171-.87769,1.13336-.78345.56408-.17773.58893-.23486,1.2248-.35535,1.82953-.207.48828-.38318.28314-.176-.20605l-.85694,2.65759-.03088-.0321c.05737.44043.07007,1.38159.12329,1.84906-.36206.62335-.05029-.38117-.25732-.25647l-.06531,1.57019c-.49609.51519-.50891-.80622-.192-1.82788-1.66565,1.02978.00794,1.324-1.53381,4.15808l.19666-1.46448a3.12667,3.12667,0,0,0-.98182,1.44293c-.233.58649-.35376,1.28717-.7312,2.083.1543-.17908.58167-.96405.9773-1.47.4093-.50519.80688-.73041.79724.12121a3.78222,3.78222,0,0,0-.18323,1.99475c-.4779-.06933-.49548.82856-.63391,1.92762l-.62366-.15283c-.005,1.22052.33655,1.15826.59168,1.88793A2.036,2.036,0,0,1,.02708,49.77778c-.20971,2.15375.86756-1.44281.86121,1.09845-.3905,1.7674.00867,3.03449.46851,5.1145-.16382,1.25043-.4-.18927-.56263.26667.19068.35577.36316.70947.56848,1.05694.02283.26673-.14453.196-.22912.15949.31787.89691.64624.017,1.00818,1.42114.761.26666-.69336,3.10382.56848,4.69946-.08093.46924-.42944-.12408-.64209.05939a12.45635,12.45635,0,0,0,2.07861,3.71l.11658,1.75257c.09375-1.35285,1.06274.02337,1.99243,1.1228.0387-.47748.12256-.89679.14209-1.164a21.65529,21.65529,0,0,0,1.1023,1.87835c.00195.278-.2837.16333-.66834-.0661.10571.11695.208.22669.29456.309.07776.80274-.41455.58033-.96326.19129.01392-.29474.0376-.589.06409-.874-.5802-.35419-1.15772-.69239-1.46534-.45984a3.67319,3.67319,0,0,1,.428.62164c-.15381-.09564-.27759-.14819-.31176-.0639-.03406.09381.18835.261.48022.53869l-.46716.73395.31042.00916c.2461.95825.46387,1.9392.74512,2.89971a46.25912,46.25912,0,0,1,5.34485,5.24408c-.86865-.395-.80921.31818-1.34986.62238a2.43588,2.43588,0,0,0-.88195-1.6247c-.25245-.28283-.55225-.56958-.80433-.90258a5.85123,5.85123,0,0,1-.64123-1.10382c.35669.83416.00806.80359-.18982.64691A29.637,29.637,0,0,0,9.52476,80.0312c-.46569.21161.03016.75855.29151,1.56152.26184-.54394.67785-.12732,1.217.47455a22.25,22.25,0,0,0,1.667,1.82691c-.218.269-.67187.23956-1.53479-1.03553.44324,1.80268,2.21436,1.04944,2.771,2.69629-.254-.27148-.35108-.4497-.56665-.4627.78589.473,2.03576,2.18756,1.48266,2.01983l-.25427-.27276c.39221.4812.90466,1.074,1.46558,1.68646.59179.58215,1.2644,1.15234,1.892,1.66858a12.15389,12.15389,0,0,0,1.73572,1.23327c.52381.25354.92883.36322,1.13538.25586a3.89817,3.89817,0,0,1-1.13672.62494q1.33209.14714,2.61767.25446a23.515,23.515,0,0,0,2.5608.12506c-.74488.37482-.50586,2.64471-2.45093,1.81561a5.80888,5.80888,0,0,0,2.16211,1.41736c-.2843-.31439-.24365-1.43176.24621-1.18549a10.277,10.277,0,0,0,1.83557,2.52271c-.45-.42749.72876-1.08411,1.52442-.60419-.21387.07788-.48718,1.02259-.85364.95661l2.60913.15332c-.605-.10181-.5332.79437-.203,1.338-.14588-.26556,1.87659.87775,2.50537,1.04059l-.818-.64905c2.40417,1.25244,3.01086-.33423,5.43408.53583a.872.872,0,0,0,.02038,1.66906c.389-.185,1.23914-.57824,2.27332-1.00067a11.74672,11.74672,0,0,1,1.64868-.56537,4.64967,4.64967,0,0,1,1.94934-.13769c.15454.15186.29053.29871.418.44366l.60156.054c.13147.123.25708.2605.389.39453l.80969.84833c-.38708-.181-.89038-.42578-1.39282-.62061-.0636-.02337-.1239-.05072-.19018-.06854l-.27027.05328-.526.1153c-.34253.08075-.66553.16925-.953.26563a21.98167,21.98167,0,0,1-3.51294.79431c.89831.52643.16162.44989,1.64477.799.44678.43036-.93.24933-1.37585.15515l1.712.53314.85583.26532.136.08277c.106-.29065.451-.49891.67639-.34382.13318.05762.2511.09913.41309.17707.20764.14453.37756.20648.47473.10052-.10279-.09845-.23938-.24615-.31446-.30426l-.2019-.14026q-.19611-.13174-.36853-.22918a4.61649,4.61649,0,0,0-.46912.05975l-.18469.045a.49775.49775,0,0,1-.18054.00006l-.24439-.01617c.00159-.17249.16651-.34064.44617-.48566a2.01462,2.01462,0,0,1,.80139-.43078q.1388-.03837.29578-.06684l.16113-.02563a.409.409,0,0,1,.118.05316,2.92216,2.92216,0,0,1,.48267.34637,5.80953,5.80953,0,0,1,1.03992,1.27637c.12536.65534-1.24536.30023-1.40186.46838a5.57416,5.57416,0,0,1,1.64441,1.905l-.873-.637c.54834,1.24591,1.97,1.29553,2.35047,2.98389.27844.48163.22363,1.85565.606,1.70959.12049-1.18011,1.977-2.66876,2.79322-2.4975a24.32352,24.32352,0,0,1,1.08239,3.54285c.01319.5506-.42785.54132-.962.37769-.49036-.09992-.98157-.21979-.97449.24694a.60119.60119,0,0,1,.40759.09369,3.309,3.309,0,0,1,.48108.34772c.3291.75659-.62719.09149.46436,1.53528.58056-.35889,1.97424,2.97845.79651.14233.98767,1.09473.90283,1.56311,2.01916,3.13715-.1615-.67432.25305-.85651.64405-.95068a20.554,20.554,0,0,1,.84667-2.33722.39479.39479,0,0,0,.32007.42071c1.45386-2.00964,2.5763-3.09814,3.89173-5.00458.25952-.08648,1.07055-.91516,1.03723-.34808a3.32926,3.32926,0,0,1,.47925-1.349c1.28552-.83148-.84546,1.39417.3479.90674-.27442-.29993.618-1.86609,1.00219-2.86346-.68542-.0824-1.45617,1.91467-1.84179,2.91308-.69837-.47345-.40125-2.4682.67712-4.72894.93994-1.73981.93213-.39429,1.02625-.74371a9.69353,9.69353,0,0,0,.66357-1.0019c.17053-.29974.36719-.67254.49731-.96978.13953-.3108.25232-.60389.35462-.8891a2.692,2.692,0,0,1,.574-.42951,7.31882,7.31882,0,0,1,.64038-.38165c.11878-.0622.24451-.12323.37977-.18274l.34558-.15027a4.74518,4.74518,0,0,1,1.65893-.31073c1.2926.23145.34363,1.0163.70215,1.3263a5.77245,5.77245,0,0,1-1.91968.386,8.34244,8.34244,0,0,0-1.77.20838l1.54261-.12439c-.46705.37182-1.5813.48163-1.86023,1.09588a1.93239,1.93239,0,0,0,.42175-.361l.06226-.06543.10327-.01324.21631-.03162c.14611-.02557.30322-.0531.47021-.08227.64258-.12128,1.46826-.3172,2.33911-.5257a26.77755,26.77755,0,0,0,2.6532-.75684,22.59069,22.59069,0,0,1,2.42688-.62146c.41443-.34466,1.13208-.894.67432-.919-.26575.1402-.52442.3-.79737.42468-.47265-.077-.11438-.324.183-.6026.303-.26715.57714-.49.02722-.35577a10.69724,10.69724,0,0,1,3.56823-2.21534l.55311.395c-.11-.12982-1.119.19806-1.47815.53156.52978-.46625,2.65527-.45862,2.95141-1.51624l-1.224.18939A14.66815,14.66815,0,0,1,78.99,92.7281c-.86975-.14972-.24182.25073-1.46325.20367,1.22668.32941-3.22657,1.73114-1.53321,1.857a2.7431,2.7431,0,0,0-1.55627.20807,4.15415,4.15415,0,0,1-1.752.275c.12243.16693.60168.1557-.53479.5517a1.21725,1.21725,0,0,1-.16932.27032l-.0802.01917.07019-.00507c-.03564.04907-.03747.0567.02576-.00238a1.44506,1.44506,0,0,1,.68628.0315c-.36169.66107-2.13208,1.4779-2.6936,1.8623-.72107.14661.20678-.31634-.24292-.38971l-.80689.65808c-.24646-.39056-2.03955-.08459-.53271-.88391l-1.43311.475a7.12279,7.12279,0,0,0-2.80957.56451,4.892,4.892,0,0,0-.86218.24957c-.34094.124-.63623.25379-.85535.35614-.43737.20472-.60193.30842-.16516.018-.7793.03546-1.00268.84637-1.38061,1.41022l-.52478.88769-.3003.56043-.10559-.0445c-1.44214,2.00122-2.25964,4.60663-4.52343,6.47266-.18824.37433-.37513.758-.62635,1.18219-.12561.21216-.26721.43439-.43323.67065a1.53758,1.53758,0,0,1-.2622.29315,2.77636,2.77636,0,0,1-.3114-.233c-.04212.18122-.23218.2865-.35266.3498-.12623.07165-.20057.12707-.2146.50525a4.90366,4.90366,0,0,0-.12561-.48926c-.08045-.48889-.1344-.51392-.26819-.5965a1.24131,1.24131,0,0,1-.21118-.14075.50829.50829,0,0,1-.089-.09906c-.11524-.16931-.24488-.37317-.33545-.53936l-.45838.22863a27.44453,27.44453,0,0,0-2.59985-3.22448l-.31372.33484c-1.08508-.93042-1.74634-3.108-3.02027-4.88312.22535.02551.50184.50775.63831.88959a5.77069,5.77069,0,0,0-1.10913-2.18818l-.49146-.67486-.25109-.327c-.09278-.09521-.2677-.07129-.39734-.11139l-1.67676-.26941-.40051-.05847-.24207-.01843-.48132-.04035c-.31922-.02972-.63416-.06652-.94007-.11993a3.4741,3.4741,0,0,1-1.66333-.65369,2.29116,2.29116,0,0,1-1.28979-.45153.44578.44578,0,0,0,.13977.02331c-.05286-.02392-.13355-.05273-.21692-.0805-.20972-.15387-.421-.3216-.65723-.47882a3.184,3.184,0,0,0,.53943.43975,12.5404,12.5404,0,0,0-1.70886-.4L35.541,96.6183l-.14063-.04785c-.50634-.42066-.55163.00341-.37805.47729a4.16861,4.16861,0,0,0-.89929-.0827c-.15918-.92175-1.67786-.45966-1.968-1.49414-.58154.19555-2.99353-1.28913-3.741-.71613.03613-.10656-.1073-.24554.20813-.07995A6.12919,6.12919,0,0,0,26.787,93.59626l.07459-.68621-1.79236-.2052c-.60279-.84949-.79712-1.238.2716-1.09333-2.29077-.78338-1.63464-.92181-3.65478-1.58429l.3302-.24316c-.58362-.39771-1.74744-.80493-1.84326-1.34-.32019-.82721-1.76721-2.1311-3.21277-3.87481-.37244-.42432-.75757-.86316-1.14673-1.30646-.3429-.48017-.68933-.96521-1.03162-1.44458a13.95017,13.95017,0,0,1-1.67529-2.88129c-.55871,1.29682-.55823-1.861-1.4093-1.51507.10913-.34229-.05432-.8902.49853-.46613a7.25808,7.25808,0,0,1-1.1781-2.1673,3.38239,3.38239,0,0,0-1.23437-1.62066c.14221-.32569.56653.21222.6178-.043-.12488-.11908-.52649-.46411-.44361-.73535.07215-.25989.313.18237.58338.40625-.88391-1.84772-1.7085-1.73615-2.5177-1.56842a2.39015,2.39015,0,0,0-1.07959-2.15851c.13073-.44934.20251-1.12757.68664.092-.17029-.73188-1.03467-4.38349-1.59814-4.31647a2.1836,2.1836,0,0,0-.2948-1.19751c-.15674-.818-.24207-1.26324-.32666-1.70459-.09412-.43915-.19531-.87231-.31482-1.68146l-.04346.467c-.84631-.5191-.35022-1.33239-.61743-2.631l.08362.02869a8.03878,8.03878,0,0,0-.04761-2.17169,5.00545,5.00545,0,0,1,.11939-2.1391l-.47205.176c-.51294-.12408-.41992-.80542-.18591-1.655a6.11858,6.11858,0,0,0,.48535-2.73834l-.30518.61389c-.15222-.4859.23194-1.13757.674-1.761.22437-.3078.453-.62158.6576-.9024a2.5694,2.5694,0,0,0,.46545-.76587c.12-.1889.09436.33289.11719.61774.9729-2.31659-.57593-.382-.44348-2.21009.38513-.27887.78772.55335,1.03173-.63354a1.64532,1.64532,0,0,0,.07862-.82782,9.65587,9.65587,0,0,1-.04492-1.4,5.59437,5.59437,0,0,1,.66564-2.92437c-.34191.28277-.686.57556-.66259-.30683a3.73606,3.73606,0,0,1,.391-1.05566c.21814-.35889.45251-.74426.68262-1.1228a3.12734,3.12734,0,0,0,.61206-2.2312c.12316-.1297.20788-.16266.2705-.14478A11.50833,11.50833,0,0,1,9.154,32.525a5.06613,5.06613,0,0,0,.33679-1.82154c.4718-.02533.8291-.4068,1.12231-.95807a15.76853,15.76853,0,0,0,.90723-1.89087c.56055-1.341,1.06067-2.61724,1.68628-2.1773l1.77014-2.50647.07581.15948a6.87936,6.87936,0,0,0,1.64782-2.98974c.386-.26978.26709.07275.302.15344a15.70463,15.70463,0,0,0,2.09729-2.0874,13.17582,13.17582,0,0,0,1.48987-2.24341l.51624.20044a2.40584,2.40584,0,0,1,.71179-.66028c.18994-.13532.40112-.29285.6449-.44714.25281-.1424.52673-.29657.81518-.45893a20.68969,20.68969,0,0,0,1.78284-1.129c.60107-.41467,1.13928-.939,1.68018-1.39569a.42008.42008,0,0,1-.14136.3451,9.74582,9.74582,0,0,1,2.12829-1.35974,16.0137,16.0137,0,0,1,2.37525-1.00019C32.6588,9.723,33.89134,9.168,34.06077,8.08436c.578-.42315,1.19642-.76666,1.80164-1.1582-2.631.81232.10193-.871-1.073-.76062,1.00391-.4801,2.8451-.46161,1.618.0863l-.22717-.013c-.13782,1.04279,3.31384-.86859,3.45813-.13061C44.75963,4.47609,50.07262,4.58876,54.9752,4.77571l-.55-.7605,1.74756.13061c.44886.193.5719.60175-.6582.50959.62024.44665,2.09265-.24341,2.15149-.39966,1.20215.24737.93079.48462.47522.575-.46155.13226-1.12463.26074-.75708.28217a6.62243,6.62243,0,0,1,1.00024.03448l-.21386-.11951a3.99181,3.99181,0,0,1,2.42309-.214c.9115.28693.40491.51795.76587.60138-.01086.05072.10742.09345.55518.10535a14.35123,14.35123,0,0,1,2.10815.5177l-.71924-.78216c1.004-.03425,2.00037.547,1.16284-.34412a4.74608,4.74608,0,0,0,1.75476.954c.40235.14783.84546.28888,1.3075.42523.44751.18262.91394.36066,1.37793.53174.9314.33325,1.846.66052,2.58142.9237a4.6348,4.6348,0,0,1,1.42261.73627,8.74311,8.74311,0,0,1,2.0282.57977,10.47261,10.47261,0,0,1,2.05468,1.06757c-.29626-.321-.20227-1.02289,1.01563-.18964-.56506.44031-.07.91181.6217,1.4469.68689.54261,1.60938,1.11335,1.771,1.8888-.46484-1.14466,3.34936,2.3092,2.59961.61487.9032.80975-.24829.44055.28381,1.23077a15.38343,15.38343,0,0,1,3.49487,3.04352c1.091,1.24573,2.07081,2.68432,3.33069,3.9046.16761-.06482-.00122-.69574.67786-.27136l.4198,2.03186c.47876.49573,1.20117-.08826,1.46655,1.28338.01428-.22735.03455-.57226.36243-.22839a11.07165,11.07165,0,0,1,.61572,1.15625l.6062,1.16388c.41687.76849.858,1.5238,1.31568,2.2738q.58979,1.178,1.1831,2.36286c.37927.79663.8645,1.55188,1.16516,2.3872a22.72389,22.72389,0,0,1,2.15088,10.32581c.19507-.98743.32154-.37585.443.3374.00976-.47778.43042-.05932.65185-.18823l-.21765,2.99554c.684.47522.20056,3.13373.84851,3.41669l-.16125-.93225c.80993,1.23505,1.568-1.85309,2.53076-1.76758a2.09314,2.09314,0,0,1-.2594-1.24072,14.30667,14.30667,0,0,1,.10742-1.5495,4.82172,4.82172,0,0,0-.6471-3.44269c.07361-.56042.39441.38422.54847.062a3.934,3.934,0,0,1-.97022-2.58691l.13721.12549c-.26514-.931-.46582-1.73468-.63135-2.48645-.21619-.736-.42566-1.411-.61194-2.11218a30.25714,30.25714,0,0,0-1.57458-4.92l-.28821.49329a5.36729,5.36729,0,0,1-.38684-1.56433c-1.10852-.64667,1.10767,2.3919-.0343,1.84674.14856-.74426-.49475-2.2782-1.27429-3.67212-.81177-1.37872-1.58387-2.71784-1.347-3.38086-.759-1.23956-.22156.65259-.99976-.56268l.01526-.475-.53149-.07416c-.51172-.79095-.501-1.39514-.32166-1.57464a5.689,5.689,0,0,0,.61792.67382c-.47693-1.19555-2.1654-2.757-2.38855-3.11615a12.30807,12.30807,0,0,1,.72888,1.21155c-.61718-.77844-1.38269-1.49963-2.10241-2.29223-.73987-.77381-1.43958-1.62214-2.22913-2.37482-.811-.731-1.62732-1.451-2.44128-2.11853-.411-.32874-.80384-.66553-1.22669-.94489-.43383-.26611-.86487-.51446-1.29138-.73968l.09314.34912a7.957,7.957,0,0,1-2.14551-1.53394,9.15983,9.15983,0,0,0-.78357-.73095,14.1546,14.1546,0,0,0-1.53869-.92017l.127.01483A6.837,6.837,0,0,1,78.352,7.82631c.81775.18951-1.04577-1.228-.00232-.93421-3.0155-1.05279-1.57153-.39722-3.77758-.558l-.27234-.5423a6.98961,6.98961,0,0,1-.91541-.0033,13.53407,13.53407,0,0,1-1.45813-.35485c1.32874.14843-.7362-.87177.78467-.76172a9.13351,9.13351,0,0,0-3.66943-1.38861c-1.00037-.20655-1.80286-.21936-2.387-1.00678-1.74328.61121,2.63477,1.26593,1.74427,1.26733.57666.51459-1.42566.4079-2.38928.06757a4.34249,4.34249,0,0,1-1.4087-1.0459,5.89125,5.89125,0,0,0-1.03527-.71893,6.33922,6.33922,0,0,0-1.63221-.4455c.26392.04541.29541-.02832.55921.01667-.95862-.41211-2.00366.05145-3.16968-.55506-.75012.48163-1.59277-.21148-1.86072.5727a17.50444,17.50444,0,0,1,2.44556.09515c-1.40735-.06159-2.75879.84131-4.97876.27789a4.5241,4.5241,0,0,1,1.33642-.42c-.65466-.26691-1.287.0899-1.96875-.184C54.51732.438,57.277,1.14405,58.82408.69508c-.6925-.44464-2.88464.40448-2.066-.42847A2.24185,2.24185,0,0,1,54.76756.611a3.76771,3.76771,0,0,0-2.5105.21241l.1128-.48047a5.34308,5.34308,0,0,1-1.411.35693l.9458-.6629c-1.46192.60376-2.903-.32831-4.32141.062,2.99707-.20074.723.52618,2.005.79987a6.22617,6.22617,0,0,1-1.91748.19274A2.66082,2.66082,0,0,1,46.63341.81221C46.01488.541,45.31322.22877,43.27147.65883c.54907-.153,2.13476-.03937,1.30261.31036A11.452,11.452,0,0,1,42.19371.8293c-2.648.77765.51269.37231-.55676.94622-1.0304-.33288-1.24573.56208-2.33631,1.03425l-.13708-.46283c-1.54944.23187-1.67261.53833-1.75086.83557-.08325.28912-.12634.55475-1.48205.85119l.88684-1.03576-1.31079.66259.09851-.6203A9.38921,9.38921,0,0,1,32.248,4.48286c.46033.156.1637.8913-1.04919,1.49207-.95984.14434.27356-.64118-1.44251.26275a1.45989,1.45989,0,0,1,1.48767-.979c.01172-.18024.26538-.46356.28321-.64429A10.82242,10.82242,0,0,0,28.54759,5.9723a3.07994,3.07994,0,0,1,.74475-.23492l-1.11865.91845L27.13194,7.67738c-.46973.07306-.244-.23413-.01452-.5398-.4657.34333-.69141.73951-1.38611,1.21039-.0199-.44659-.28052-.76257.66089-1.54956L24.29344,8.58394a3.71375,3.71375,0,0,0-.78967.11657c-.2909.07459-.52808.11334-.426-.05249a8.809,8.809,0,0,0-1.99988,1.81183,14.77734,14.77734,0,0,1-2.24743,2.0509,1.751,1.751,0,0,1-.41089.64923c-.72205.5954-1.47315,1.08613-2.20581,1.66785a7.56391,7.56391,0,0,0-1.90918,2.34186l-1.37756.4715c-1.05164,1.39813,1.81115-.67987.07629,1.62921-1.06751,1.74786-.92957.2268-1.52039.67743a14.36447,14.36447,0,0,1-.729,1.97473,7.334,7.334,0,0,1-1.59106,2.12073A5.967,5.967,0,0,1,10.03367,22.59315ZM1.96434,42.21339c-.03259-.4248-.10754-1.29053.23743-1.52216C2.63145,41.27266,2.25963,41.55446,1.96434,42.21339ZM6.5648,73.39766a1.74656,1.74656,0,0,1-.40039-1.22821A3.61844,3.61844,0,0,1,6.5648,73.39766Zm59.363,25.045a.211.211,0,0,0-.03284.03229C65.03087,98.49665,65.33909,98.49623,65.92784,98.4427Zm1.73352-.301c.146-.12176.11365-.18133.02307-.22131-.07763.15607-.44726.29279-.87951.40674C66.958,98.4076,67.199,98.41639,67.66136,98.14167ZM61.583,5.26948l-.3175-.176C62.057,5.07338,61.81981,5.1642,61.583,5.26948Z"/><path class="cls-2" d="M4.56846,70.30977a.45164.45164,0,0,1,.19336-.2558C4.63707,69.92933,4.54747,69.957,4.56846,70.30977Z"/><path class="cls-2" d="M18.7783,12.55067l.05213-.03992a.207.207,0,0,0-.00781-.11029Z"/><path class="cls-2" d="M48.61473,113.11213a1.78357,1.78357,0,0,1-.30652-.88672c-.05444.025-.078.08686-.05041.20411a1.14638,1.14638,0,0,0,.08227.21966C48.40294,112.76838,48.49913,112.92988,48.61473,113.11213Z"/><path class="cls-2" d="M75.77708,93.74952l-.90857.6446a2.3513,2.3513,0,0,1,.94861-.34278C75.74107,93.96443,75.4785,93.92292,75.77708,93.74952Z"/><path class="cls-2" d="M85.59776,90.60255c.09546-.15192.28369-.22766.363-.39386l-.18128-.137C85.237,90.55226,84.94163,90.996,85.59776,90.60255Z"/><path class="cls-2" d="M77.47642,94.64393c.27234.2912.87049-.12085,1.4823-.65533a1.05944,1.05944,0,0,1-.11816.07886C78.7379,93.4593,78.13988,94.09614,77.47642,94.64393Z"/><path class="cls-2" d="M79.10618,93.87367a4.77873,4.77873,0,0,1,.61158-.42035C79.67149,93.21077,79.44273,93.57972,79.10618,93.87367Z"/><path class="cls-2" d="M69.66942,97.16438c.38769-.02277.037-.56085.29248-.474C70.1754,96.07032,67.84813,98.078,69.66942,97.16438Z"/><polygon class="cls-2" points="78.73 95.48 78.217 95.19 78.02 95.76 78.73 95.48"/><path class="cls-2" d="M72.80247,98.07289l1.24915-.40344c-.05335-.06824.07739-.18024.24695-.2967C73.55748,97.68379,72.71556,97.949,72.80247,98.07289Z"/><path class="cls-2" d="M74.29857,97.37275a2.96756,2.96756,0,0,0,.91662-.508C75.01951,96.97773,74.577,97.17762,74.29857,97.37275Z"/><polygon class="cls-2" points="77.23 96.477 76.84 96.573 76.01 96.988 77.23 96.477"/><path class="cls-2" d="M60.62718,104.43831l-.69238,1.26257c.05908.21759.36658-.04492.61218-.52344C60.64244,104.82685,60.88841,104.351,60.62718,104.43831Z"/><path class="cls-2" d="M64.10338,102.23488a1.22583,1.22583,0,0,1-.37952-.07752.46545.46545,0,0,0-.28589-.06293l.37537.55072C63.81981,102.4015,63.99168,102.37294,64.10338,102.23488Z"/><path class="cls-2" d="M61.96568,105.16914c.0614.21527-.76892,1.99445.22656.475C62.13365,105.42756,62.82762,104.16334,61.96568,105.16914Z"/><polygon class="cls-2" points="48.665 110.175 48.878 110.471 49.688 109.852 48.665 110.175"/><path class="cls-2" d="M33.7047,101.54927c1.59863.83185.62158-.44348,2.03442.37164.47241-.09131-1.15393-.6618-.67822-.71741C33.95775,101.1125,33.50059,100.72572,33.7047,101.54927Z"/><path class="cls-2" d="M35.0609,101.2035a5.55347,5.55347,0,0,0,.56591.03186A2.52419,2.52419,0,0,0,35.0609,101.2035Z"/><polygon class="cls-2" points="100.524 49.686 100.365 50.732 100.673 50.047 100.524 49.686"/><path class="cls-2" d="M101.38145,51.66444l-.63611.25665.62024.62458C101.32432,52.30745,101.24425,51.848,101.38145,51.66444Z"/><path class="cls-2" d="M.18931,45.16371l.14148.10919c.19434-.1554.24768-.42188.356-.956Z"/><polygon class="cls-2" points="5.084 30.23 4.955 30.468 5.705 30.263 5.084 30.23"/><path class="cls-2" d="M11.44823,18.60261c-.34717.42078-.62879,1.0141-.976,1.4361C11.10313,19.01991,12.10423,18.94746,11.44823,18.60261Z"/><circle class="cls-3" cx="28.12097" cy="52.87312" r="7.5"/><circle class="cls-3" cx="78.12097" cy="52.87312" r="7.5"/><circle class="cls-3" cx="53.12097" cy="52.87312" r="7.5"/></g></g></svg>