<svg xmlns="http://www.w3.org/2000/svg" viewBox="0 0 104.16941 117.48158"><defs><style>.cls-1{fill:#1d1d1b;}.cls-2{fill:#6dc7c2;}.cls-3{fill:#5ac0ba;}</style></defs><title>Paused_05</title><g id="Layer_2" data-name="Layer 2"><g id="Layer_1-2" data-name="Layer 1"><path class="cls-1" d="M103.121,52.54569a50,50,0,1,0-60.06738,48.98584l4.34289,6.32794,5.72449,8.34107,5.72443-8.34107,4.34289-6.32788A50.01724,50.01724,0,0,0,103.121,52.54569Z"/><path class="cls-2" d="M100.66941,52.91175c.05811-.46264-.36853-.29675-.44055-.36608C100.28587,53.31294,100.77928,52.89454,100.66941,52.91175Z"/><path class="cls-2" d="M100.94078,60.67323l-.15052-.16461a9.1214,9.1214,0,0,1,.21363,1.2041A7.55223,7.55223,0,0,0,100.94078,60.67323Z"/><path class="cls-2" d="M99.1616,67.72554c.86951-.44941.7544-2.53656,1.21424-3.749l.20507-.17187-.43176-.7c-.1427.77014-.17407,1.69323-.34949,2.524A9.01027,9.01027,0,0,1,99.1616,67.72554Z"/><path class="cls-2" d="M96.376,70.75758c.34533-.10626-.09229.84479.41748-.77686a1.38637,1.38637,0,0,1-.12647.12049C96.61253,70.24318,96.53111,70.43635,96.376,70.75758Z"/><path class="cls-2" d="M96.667,70.10121c.26673-.6922-.40307.36053,0,0Z"/><path class="cls-2" d="M95.42112,73.30427l.22669-.97626c-.23767.11469-.67566.86255-.63269.52637C94.67686,73.79573,94.91465,73.69307,95.42112,73.30427Z"/><path class="cls-2" d="M95.45408,74.36885l.14368-.50342C95.49461,73.91456,95.41124,74.02284,95.45408,74.36885Z"/><path class="cls-2" d="M95.90074,72.80543l-.303,1.06c.16894-.07489.38415.01257.15893-.47827C95.90525,73.55946,95.823,73.27772,95.90074,72.80543Z"/><path class="cls-2" d="M96.25731,72.29493c.35241-.44616.71984-1.07672.56225-.05163C97.46214,70.43873,96.8867,70.51374,96.25731,72.29493Z"/><path class="cls-2" d="M99.74852,68.31636l.43188-.66919-.02649-.70673C100.166,67.29383,99.52171,68.29133,99.74852,68.31636Z"/><path class="cls-2" d="M92.06736,78.39656c.09363.13623.5127-.05426.71521-.011l.24195-.709C92.7368,77.93666,92.28038,78.48036,92.06736,78.39656Z"/><path class="cls-2" d="M92.78257,78.38557l-.3667,1.07C92.964,78.64357,92.956,78.42476,92.78257,78.38557Z"/><polygon class="cls-2" points="96.075 74.892 96.426 73.033 95.919 75.209 96.075 74.892"/><polygon class="cls-2" points="89.632 81.707 89.723 81.004 89.484 82.201 89.632 81.707"/><path class="cls-2" d="M87.90159,83.81453c.08338-.52845-.77685.12774-.593-.34528a7.26086,7.26086,0,0,0-.91308,1.78894A4.479,4.479,0,0,1,87.90159,83.81453Z"/><path class="cls-2" d="M85.92808,86.14589a6.91386,6.91386,0,0,0,.46741-.8877A3.66965,3.66965,0,0,0,85.92808,86.14589Z"/><path class="cls-2" d="M91.24266,80.90974a1.228,1.228,0,0,0-.86316.42163l.59765-.08185C91.05809,81.146,91.14964,81.0287,91.24266,80.90974Z"/><path class="cls-2" d="M90.99717,81.24574l-.02.00378c-.29126.36518-.49328.61853-.57995.727C90.473,81.88435,90.65355,81.66438,90.99717,81.24574Z"/><path class="cls-2" d="M91.30967,80.82441l-.067.08533C91.30125,80.90187,91.32786,80.89021,91.30967,80.82441Z"/><path class="cls-2" d="M94.32762,77.24818c-.14112.66815-.66138,1.97046.35876,1.03931C94.6898,77.73561,94.1096,78.26356,94.32762,77.24818Z"/><path class="cls-2" d="M92.06553,80.71174c.25769-.29706.53968-.57824.77918-.88983-.10559-.04394-.35327.04065-.28015-.29755C92.43077,79.93946,92.23106,80.31227,92.06553,80.71174Z"/><polygon class="cls-2" points="91.827 81.251 92.066 80.712 91.773 81.038 91.827 81.251"/><path class="cls-2" d="M87.602,85.02089a3.85977,3.85977,0,0,1-.99975,1.35748,8.02021,8.02021,0,0,0,1.48535-1.36023C88.05149,84.85743,88.065,84.48164,87.602,85.02089Z"/><path class="cls-2" d="M89.33934,83.26472l-.05616.09876C89.35655,83.33589,89.40245,83.30244,89.33934,83.26472Z"/><polygon class="cls-2" points="81.984 90.387 82.109 90.387 82.082 90.314 81.984 90.387"/><path class="cls-2" d="M88.22105,84.98872a1.68306,1.68306,0,0,0,.61292-.91309,11.40548,11.40548,0,0,1-.74634.94251C88.10423,85.09028,88.12828,85.12336,88.22105,84.98872Z"/><path class="cls-2" d="M84.8358,87.44886a8.18375,8.18375,0,0,0,.78662-.4187C85.3441,87.10633,84.82713,87.304,84.8358,87.44886Z"/><path class="cls-2" d="M89.08079,83.41163l.03552-.06781C88.93736,83.40541,88.985,83.41951,89.08079,83.41163Z"/><path class="cls-2" d="M89.08079,83.41163a3.39175,3.39175,0,0,0-.24682.664,6.01874,6.01874,0,0,0,.44921-.71215A.747.747,0,0,1,89.08079,83.41163Z"/><path class="cls-2" d="M82.07432,93.73066c-.0769-.19091.12744-.54193.48572-.906a3.528,3.528,0,0,1,1.44983-.97547c.736-.96441-.6991-1.48822-1.90137-1.462.07666.15906.17908.28424-.59582,1.19714.44311-.07379,2.344-1.21905,1.78723-.31714-1.11634,1.13031-1.0741.71949-1.83179.9643.83276.03784-1.25305,1.69745-.57007,2.1145l1.02539-.99048C82.01121,93.43257,81.689,93.8639,82.07432,93.73066Z"/><path class="cls-2" d="M83.85411,89.0514l.34021-.332a5.60379,5.60379,0,0,1-1.6211.6004c-.49023.63685-.5299.85669-.4917.99463l1.86158-1.409Z"/><path class="cls-2" d="M85.75145,87.26741c.02795.56579-.69324,1.49786.136,1.35656,1.01563-.99792.47949-.94635.96228-1.65734-1.57776,1.63177.30518-.61683-1.05188.32476a10.05691,10.05691,0,0,1,.80445-.913c-.33106.2395-.65943.45923-.97986.65179l.05566-.01562.00659-.00824.00318.00641c.10705-.027.15271-.02521.05212.02679a.16786.16786,0,0,1-.028.03839.40951.40951,0,0,1,.03772.18775c-.53382.38092-.15052-.01191-.03772-.18775a.2894.2894,0,0,0-.02417-.06518l-.00977.00183c-.49365.56378-.9707,1.15222-1.48376,1.70483A10.81992,10.81992,0,0,0,85.75145,87.26741Z"/><path class="cls-2" d="M94.8032,79.83607a.10532.10532,0,0,1-.12378.00855C94.64244,80.00184,94.64158,80.07075,94.8032,79.83607Z"/><path class="cls-2" d="M94.07139,80.50666a1.36311,1.36311,0,0,1,.30506-.83416c.36389-.33319.17163.115.303.17212.08448-.34705.36219-1.15076-.36877-.38684l-.03882.17108c-.597.73425-1.76538,1.36267-1.718,1.19507A2.93207,2.93207,0,0,0,94.07139,80.50666Z"/><path class="cls-2" d="M90.09849,84.27064l-1.12475,1.56854.93261-.4804-.20044-.11213C90.5056,84.48805,90.13865,84.48384,90.09849,84.27064Z"/><polygon class="cls-2" points="81.688 90.349 81.604 89.834 81.15 91.018 81.688 90.349"/><polygon class="cls-2" points="79.747 91.794 79.598 91.417 79.202 91.968 79.747 91.794"/><path class="cls-2" d="M5.03575,31.79731l.15906-.59088A3.63125,3.63125,0,0,0,5.03575,31.79731Z"/><path class="cls-2" d="M3.46849,35.8838l.14819.16248C3.58384,35.82246,3.53758,35.71858,3.46849,35.8838Z"/><path class="cls-2" d="M36.786,97.13289c-.31421-.30341-.62671-.65961-.86792-.88331-.23144-.24877-.39722-.35894-.43786-.133l.06079.50177A3.91316,3.91316,0,0,1,36.786,97.13289Z"/><path class="cls-2" d="M6.25572,70.23921c-.00928.08893-.019.18225-.02857.2746.217.13409.42029.2597.60462.37365C6.65782,70.69166,6.46153,70.4709,6.25572,70.23921Z"/><path class="cls-2" d="M4.34788,70.30214l-.08459-1.18573A6.40642,6.40642,0,0,0,4.34788,70.30214Z"/><path class="cls-2" d="M18.82261,12.40046l.24463-.817C18.23668,12.33815,18.748,12.17585,18.82261,12.40046Z"/><path class="cls-2" d="M57.56993,105.51991a9.56689,9.56689,0,0,0-1.23975,1.34393C57.03,106.28419,57.73716,105.91468,57.56993,105.51991Z"/><path class="cls-2" d="M8.6909,35.08418c.04236-.34558.01-.515-.083-.54181C8.55711,34.89827,8.56712,35.113,8.6909,35.08418Z"/><path class="cls-2" d="M55.1461,108.59187c.108-.08081.19714-.17181.3009-.2583a9.12364,9.12364,0,0,1,.88318-1.46973A3.09439,3.09439,0,0,0,55.1461,108.59187Z"/><path class="cls-2" d="M95.71751,21.976c.022.06195.05981.12836.07532.18756C95.852,22.14485,95.80259,22.07283,95.71751,21.976Z"/><path class="cls-2" d="M100.69371,45.82856c-.06116-.22192-.11792-.58972-.17652-.93579A3.5969,3.5969,0,0,0,100.69371,45.82856Z"/><path class="cls-2" d="M71.11973,96.24531c.4563-.23456.05579-.07733,0,0Z"/><path class="cls-2" d="M74.13023,96.78407a.2897.2897,0,0,0-.10376.27692A.37068.37068,0,0,1,74.13023,96.78407Z"/><path class="cls-2" d="M54.2877,114.61439l-.02734.03723C54.37877,114.62935,54.35826,114.63063,54.2877,114.61439Z"/><path class="cls-2" d="M71.901,96.113a4.75176,4.75176,0,0,0-.64953.14837A4.88923,4.88923,0,0,0,71.901,96.113Z"/><path class="cls-2" d="M71.72508,95.96681l.42541-.14331C72.18016,95.73121,72.11009,95.7126,71.72508,95.96681Z"/><path class="cls-2" d="M70.47764,96.55787a5.721,5.721,0,0,1,.77381-.29651c-.10315.014-.15088.00849-.13172-.016C70.9846,96.31111,70.7938,96.404,70.47764,96.55787Z"/><path class="cls-2" d="M56.26536,1.38838c.03577.0155.07752.02643.11633.04706C56.95311,1.28413,56.70543,1.3003,56.26536,1.38838Z"/><path class="cls-2" d="M22.355,94.48054c.02319.01288.04077.01239.06275.023l-.05616-.0639Z"/><path class="cls-2" d="M20.57029,93.476a2.35949,2.35949,0,0,1,1.79126.96363l.23035-1.4137Q21.59727,93.26372,20.57029,93.476Z"/><path class="cls-2" d="M10.03367,22.59315a10.37388,10.37388,0,0,0-1.12927.97107,7.96942,7.96942,0,0,1,.7102-1.92944c.14307-.348.06446-.37976-.57153.01526.24707.23748.16492.64379-.07556,1.13476a14.28081,14.28081,0,0,1-.9054,1.73895c-.703,1.22162-1.40209,2.44581-.85742,2.855a9.388,9.388,0,0,0-.68322.70466c.12988-.23816.07824-.315.20751-.55042-1.3833,1.36572.27515,1.68372-.90979,3.70026-.44775.69171-.87768,1.13336-.78344.56408-.17774.58893-.23487,1.2248-.35535,1.82953-.207.48828-.38318.28314-.176-.20605l-.85694,2.65759-.03076-.0321c.05725.44043.06995,1.38159.12317,1.84906-.36206.62335-.05029-.38117-.25733-.25647l-.0653,1.57019c-.4961.51519-.50891-.80622-.192-1.82788-1.66565,1.02978.00794,1.324-1.53381,4.15808L1.888,40.07478a3.12665,3.12665,0,0,0-.98181,1.44293c-.233.58649-.35376,1.28717-.7312,2.083.1543-.17908.58166-.96405.97729-1.47.40931-.50519.80689-.73041.79725.12121a3.78222,3.78222,0,0,0-.18323,1.99475c-.47791-.06933-.49549.82856-.63391,1.92762l-.62366-.15283c-.005,1.22052.33655,1.15826.59167,1.88793A2.036,2.036,0,0,1,.02708,49.77778c-.20972,2.15375.86768-1.44281.86121,1.09845-.39051,1.7674.00866,3.03449.4685,5.1145-.16382,1.25043-.4-.18927-.56262.26667.19067.35577.36316.70947.56848,1.05694.02283.26673-.14453.196-.22912.15949.31787.89691.64636.017,1.00817,1.42114.761.26666-.69335,3.10382.56849,4.69946-.08094.46924-.42945-.12408-.64209.05939a12.459,12.459,0,0,0,2.07861,3.71l.11658,1.75257c.09375-1.35285,1.06274.02337,1.99243,1.1228.03869-.47748.12256-.89679.14209-1.164A21.68843,21.68843,0,0,0,7.5001,70.95356c.002.278-.28369.16333-.66833-.0661.10571.11695.208.22669.29455.309.07776.80274-.41455.58033-.96325.19129.01391-.29474.03759-.589.06408-.874-.5802-.35419-1.15771-.69239-1.46533-.45984a3.67319,3.67319,0,0,1,.428.62164c-.15381-.09564-.27759-.14819-.31177-.0639-.034.09381.18836.261.48023.53869l-.467.73395.3103.00916c.24609.95825.46387,1.9392.74512,2.89971a46.25913,46.25913,0,0,1,5.34484,5.24408c-.86865-.395-.8092.31818-1.34985.62238a2.43585,2.43585,0,0,0-.882-1.6247c-.25244-.28283-.55224-.56958-.80432-.90258a5.85123,5.85123,0,0,1-.64123-1.10382c.35669.83416.008.80359-.18982.64691A29.635,29.635,0,0,0,9.52476,80.0312c-.4657.21161.03015.75855.29151,1.56152.26184-.54394.67785-.12732,1.217.47455a22.24819,22.24819,0,0,0,1.667,1.82691c-.218.269-.67188.23956-1.53479-1.03553.44324,1.80268,2.21435,1.04944,2.771,2.69629-.254-.27148-.35107-.4497-.56665-.4627.78589.473,2.03577,2.18756,1.48267,2.01983l-.25427-.27276c.39221.4812.90466,1.074,1.46557,1.68646.59192.58215,1.26441,1.15234,1.892,1.66858a12.15333,12.15333,0,0,0,1.73572,1.23327c.5238.25354.92883.36322,1.13538.25586a3.8983,3.8983,0,0,1-1.13672.62494q1.33209.14714,2.61767.25446a23.51489,23.51489,0,0,0,2.56079.12506c-.74487.37482-.50586,2.64471-2.45092,1.81561a5.80874,5.80874,0,0,0,2.1621,1.41736c-.2843-.31439-.24365-1.43176.24622-1.18549a10.277,10.277,0,0,0,1.83557,2.52271c-.45-.42749.72876-1.08411,1.52442-.60419-.21387.07788-.48719,1.02259-.85364.95661l2.60913.15332c-.605-.10181-.5332.79437-.20288,1.338-.146-.26556,1.87646.87775,2.50525,1.04059l-.818-.64905c2.40418,1.25244,3.01087-.33423,5.43409.53583a.872.872,0,0,0,.02038,1.66906c.389-.185,1.23914-.57824,2.27344-1.00067a11.73939,11.73939,0,0,1,1.64856-.56537,4.64965,4.64965,0,0,1,1.94934-.13769c.15454.15186.29053.29871.418.44366l.60156.054c.13147.123.25708.2605.389.39453l.80969.84833c-.38708-.181-.89038-.42578-1.39282-.62061-.0636-.02337-.1239-.05072-.19019-.06854l-.27026.05328-.526.1153c-.34253.08075-.66553.16925-.953.26563a21.98167,21.98167,0,0,1-3.51294.79431c.89831.52643.16162.44989,1.64477.799.44678.43036-.93.24933-1.37585.15515l1.712.53314.85584.26532.136.08277c.106-.29065.451-.49891.67639-.34382.13318.05762.2511.09913.41308.17707.20764.14453.37757.20648.47473.10052-.10278-.09845-.23938-.24615-.31445-.30426l-.2019-.14026q-.19611-.13174-.36853-.22918a4.61649,4.61649,0,0,0-.46912.05975l-.18469.045a.49775.49775,0,0,1-.18054.00006l-.24439-.01617c.00159-.17249.1665-.34064.44617-.48566a2.01462,2.01462,0,0,1,.80139-.43078q.1388-.03837.29578-.06684l.16113-.02563a.409.409,0,0,1,.118.05316,2.92216,2.92216,0,0,1,.48267.34637,5.80952,5.80952,0,0,1,1.03991,1.27637c.12537.65534-1.24536.30023-1.40185.46838a5.57427,5.57427,0,0,1,1.64441,1.905l-.873-.637c.54834,1.24591,1.97,1.29553,2.35046,2.98389.27845.48163.22364,1.85565.606,1.70959.12048-1.18011,1.977-2.66876,2.79321-2.4975a24.32339,24.32339,0,0,1,1.0824,3.54285c.01319.5506-.42785.54132-.962.37769-.49036-.09992-.98157-.21979-.97449.24694a.6012.6012,0,0,1,.40759.09369,3.309,3.309,0,0,1,.48108.34772c.3291.75659-.62707.09149.46436,1.53528.58056-.35889,1.97424,2.97845.7965.14233.98768,1.09473.903,1.56311,2.01917,3.13715-.1615-.67432.25305-.85651.644-.95068a20.55568,20.55568,0,0,1,.84668-2.33722.39479.39479,0,0,0,.32007.42071c1.45386-2.00964,2.57629-3.09814,3.89185-5.00458.2594-.08648,1.07043-.91516,1.03711-.34808a3.32937,3.32937,0,0,1,.47924-1.349c1.28553-.83148-.84546,1.39417.3479.90674-.27441-.29993.61805-1.86609,1.0022-2.86346-.68542-.0824-1.45618,1.91467-1.84167,2.91308-.69849-.47345-.40137-2.4682.677-4.72894.93994-1.73981.93213-.39429,1.02624-.74371a9.69378,9.69378,0,0,0,.66358-1.0019c.17053-.29974.36719-.67254.49743-.96978.13941-.3108.2522-.60389.3545-.8891a2.69176,2.69176,0,0,1,.574-.42951,7.31882,7.31882,0,0,1,.64038-.38165c.11878-.0622.24451-.12323.37976-.18274l.34558-.15027a4.74524,4.74524,0,0,1,1.65894-.31073c1.2926.23145.34363,1.0163.70215,1.3263a5.77249,5.77249,0,0,1-1.91968.386,8.34244,8.34244,0,0,0-1.77.20838l1.5426-.12439c-.467.37182-1.5813.48163-1.86023,1.09588a1.93217,1.93217,0,0,0,.42176-.361l.06225-.06543.10327-.01324.21631-.03162c.14612-.02557.30323-.0531.47022-.08227.64258-.12128,1.46826-.3172,2.33911-.5257a26.77755,26.77755,0,0,0,2.6532-.75684,22.5901,22.5901,0,0,1,2.42688-.62146c.41443-.34466,1.13208-.894.67431-.919-.26574.1402-.52441.3-.79736.42468-.47266-.077-.11438-.324.183-.6026.303-.26715.57727-.49.02723-.35577a10.69724,10.69724,0,0,1,3.56823-2.21534l.5531.395c-.11-.12982-1.119.19806-1.47815.53156.52991-.46625,2.65528-.45862,2.95142-1.51624l-1.224.18939A14.66791,14.66791,0,0,1,78.99,92.7281c-.86975-.14972-.24182.25073-1.46326.20367,1.22669.32941-3.22656,1.73114-1.5332,1.857a2.74307,2.74307,0,0,0-1.55627.20807,4.15417,4.15417,0,0,1-1.752.275c.12244.16693.60169.1557-.53479.5517a1.21682,1.21682,0,0,1-.16931.27032l-.0802.01917.07019-.00507c-.03564.04907-.03747.0567.02576-.00238a1.44508,1.44508,0,0,1,.68628.0315c-.3617.66107-2.13208,1.4779-2.69361,1.8623-.72106.14661.20679-.31634-.24291-.38971l-.80689.65808c-.24646-.39056-2.03955-.08459-.53271-.88391l-1.433.475a7.123,7.123,0,0,0-2.80969.56451,4.892,4.892,0,0,0-.86218.24957c-.34095.124-.63623.25379-.85535.35614-.43738.20472-.60193.30842-.16516.018-.7793.03546-1.00269.84637-1.38049,1.41022l-.52491.88769-.30029.56043-.10559-.0445c-1.44214,2.00122-2.25964,4.60663-4.52344,6.47266-.18823.37433-.37512.758-.62634,1.18219-.12561.21216-.26721.43439-.43323.67065a1.53792,1.53792,0,0,1-.2622.29315,2.77738,2.77738,0,0,1-.31141-.233c-.04211.18122-.23217.2865-.35266.3498-.12622.07165-.20056.12707-.2146.50525a4.867,4.867,0,0,0-.12561-.48926c-.08044-.48889-.1344-.51392-.26819-.5965a1.24131,1.24131,0,0,1-.21118-.14075.50861.50861,0,0,1-.089-.09906c-.11523-.16931-.24487-.37317-.33545-.53936l-.45837.22863a27.44453,27.44453,0,0,0-2.59985-3.22448l-.31372.33484c-1.08509-.93042-1.74634-3.108-3.02027-4.88312.22534.02551.50183.50775.63831.88959a5.77069,5.77069,0,0,0-1.10913-2.18818l-.49146-.67486-.2511-.327c-.09277-.09521-.2677-.07129-.39734-.11139l-1.67675-.26941-.40052-.05847-.24206-.01843-.48132-.04035c-.3191-.02972-.63416-.06652-.94007-.11993a3.4741,3.4741,0,0,1-1.66333-.65369,2.29116,2.29116,0,0,1-1.28979-.45153.44569.44569,0,0,0,.13977.02331c-.05286-.02392-.13355-.05273-.21692-.0805-.2096-.15387-.4209-.3216-.65723-.47882a3.18362,3.18362,0,0,0,.53943.43975,12.5425,12.5425,0,0,0-1.70874-.4L35.541,96.6183l-.14063-.04785c-.50635-.42066-.55163.00341-.37805.47729a4.16861,4.16861,0,0,0-.89929-.0827c-.15918-.92175-1.67786-.45966-1.968-1.49414-.58154.19555-2.99353-1.28913-3.741-.71613.03614-.10656-.1073-.24554.20813-.07995a6.12926,6.12926,0,0,0-1.8352-1.07856l.07458-.68621-1.79236-.2052c-.60278-.84949-.79711-1.238.27161-1.09333-2.29077-.78338-1.63452-.92181-3.65478-1.58429l.3302-.24316c-.58362-.39771-1.74744-.80493-1.84327-1.34-.32019-.82721-1.76721-2.1311-3.21276-3.87481-.37244-.42432-.75757-.86316-1.14673-1.30646-.3429-.48017-.68933-.96521-1.03162-1.44458a13.94926,13.94926,0,0,1-1.67529-2.88129c-.55872,1.29682-.55823-1.861-1.4093-1.51507.10913-.34229-.05432-.8902.49853-.46613a7.25808,7.25808,0,0,1-1.1781-2.1673,3.38245,3.38245,0,0,0-1.23437-1.62066c.14221-.32569.56652.21222.61792-.043-.125-.11908-.52649-.46411-.44361-.73535.072-.25989.31287.18237.58338.40625-.88391-1.84772-1.70862-1.73615-2.51783-1.56842a2.39011,2.39011,0,0,0-1.07959-2.15851c.13074-.44934.20252-1.12757.68665.092-.17017-.73188-1.03467-4.38349-1.59814-4.31647a2.18369,2.18369,0,0,0-.2948-1.19751c-.15674-.818-.24207-1.26324-.32666-1.70459-.09412-.43915-.19532-.87231-.31482-1.68146l-.04346.467c-.84631-.5191-.35022-1.33239-.61743-2.631l.08362.02869a8.03927,8.03927,0,0,0-.04761-2.17169,5.00553,5.00553,0,0,1,.11938-2.1391l-.472.176c-.51282-.12408-.41992-.80542-.18592-1.655a6.11845,6.11845,0,0,0,.48536-2.73834l-.30518.61389c-.15222-.4859.23193-1.13757.67407-1.761l.65747-.9024a2.56946,2.56946,0,0,0,.46546-.76587c.12-.1889.09436.33289.11718.61774.9729-2.31659-.57592-.382-.44348-2.21009.38526-.27887.78772.55335,1.03174-.63354a1.64523,1.64523,0,0,0,.07861-.82782,9.65729,9.65729,0,0,1-.04492-1.4,5.59437,5.59437,0,0,1,.66565-2.92437c-.34192.28277-.686.57556-.66247-.30683a3.73151,3.73151,0,0,1,.39087-1.05566c.21814-.35889.45251-.74426.68261-1.1228a3.12729,3.12729,0,0,0,.61206-2.2312c.12317-.1297.20789-.16266.27051-.14478A11.50908,11.50908,0,0,1,9.154,32.525a5.06619,5.06619,0,0,0,.3368-1.82154c.4718-.02533.8291-.4068,1.12231-.95807a15.76853,15.76853,0,0,0,.90723-1.89087c.56054-1.341,1.06079-2.61724,1.68628-2.1773l1.77014-2.50647.0758.15948a6.88133,6.88133,0,0,0,1.64795-2.98974c.38587-.26978.267.07275.30188.15344a15.70525,15.70525,0,0,0,2.09729-2.0874,13.17642,13.17642,0,0,0,1.48987-2.24341l.51624.20044a2.40584,2.40584,0,0,1,.71179-.66028c.18994-.13532.40112-.29285.6449-.44714.25293-.1424.52673-.29657.81518-.45893a20.69277,20.69277,0,0,0,1.78284-1.129c.60107-.41467,1.13928-.939,1.68017-1.39569a.42.42,0,0,1-.14135.3451,9.74868,9.74868,0,0,1,2.12829-1.35974,16.0137,16.0137,0,0,1,2.37525-1.00019c1.5559-.53467,2.78845-1.08972,2.95788-2.17334.578-.42315,1.19641-.76666,1.80164-1.1582-2.631.81232.10193-.871-1.073-.76062,1.00391-.4801,2.84509-.46161,1.618.0863l-.22717-.013c-.13782,1.04279,3.31384-.86859,3.45813-.13061,5.12121-1.63214,10.4342-1.51947,15.33679-1.33252l-.55-.7605,1.74768.13061c.44873.193.57178.60175-.65832.50959.62024.44665,2.09265-.24341,2.15149-.39966,1.20214.24737.93078.48462.47522.575-.46155.13226-1.12464.26074-.75708.28217a6.62247,6.62247,0,0,1,1.00024.03448l-.21387-.11951a3.99185,3.99185,0,0,1,2.4231-.214c.9115.28693.40491.51795.76587.60138-.01087.05072.10742.09345.55517.10535a14.35136,14.35136,0,0,1,2.10816.5177l-.71924-.78216c1.004-.03425,2.00037.547,1.16284-.34412a4.74608,4.74608,0,0,0,1.75476.954c.40235.14783.84546.28888,1.3075.42523.44751.18262.91394.36066,1.37793.53174.93139.33325,1.84594.66052,2.58154.9237a4.63536,4.63536,0,0,1,1.42249.73627,8.743,8.743,0,0,1,2.02819.57977,10.4724,10.4724,0,0,1,2.05469,1.06757c-.29626-.321-.20227-1.02289,1.01563-.18964-.56507.44031-.07.91181.6217,1.4469.68689.54261,1.60938,1.11335,1.771,1.8888-.46485-1.14466,3.34936,2.3092,2.59961.61487.90319.80975-.2483.44055.28381,1.23077a15.38365,15.38365,0,0,1,3.49487,3.04352c1.09094,1.24573,2.0708,2.68432,3.33069,3.9046.1676-.06482-.00122-.69574.67786-.27136l.4198,2.03186c.47876.49573,1.20117-.08826,1.46655,1.28338.01428-.22735.03455-.57226.36243-.22839a11.07165,11.07165,0,0,1,.61572,1.15625l.6062,1.16388c.41687.76849.85815,1.5238,1.31567,2.2738q.58978,1.178,1.18311,2.36286c.37927.79663.8645,1.55188,1.16516,2.3872a22.72389,22.72389,0,0,1,2.15088,10.32581c.19507-.98743.32153-.37585.443.3374.00977-.47778.43042-.05932.65186-.18823l-.21765,2.99554c.684.47522.20056,3.13373.84851,3.41669l-.16126-.93225c.80994,1.23505,1.568-1.85309,2.53076-1.76758a2.09321,2.09321,0,0,1-.25939-1.24072,14.30413,14.30413,0,0,1,.10742-1.5495,4.82172,4.82172,0,0,0-.6471-3.44269c.07361-.56042.39441.38422.54846.062a3.9341,3.9341,0,0,1-.97021-2.58691l.13721.12549c-.26514-.931-.46582-1.73468-.63135-2.48645-.21619-.736-.42566-1.411-.61194-2.11218a30.25912,30.25912,0,0,0-1.57458-4.92l-.28821.49329a5.36729,5.36729,0,0,1-.38684-1.56433c-1.10852-.64667,1.10766,2.3919-.03431,1.84674.14856-.74426-.49475-2.2782-1.27429-3.67212-.81176-1.37872-1.58386-2.71784-1.347-3.38086-.759-1.23956-.22144.65259-.99976-.56268l.01526-.475-.53149-.07416c-.51172-.79095-.501-1.39514-.32166-1.57464a5.68818,5.68818,0,0,0,.61792.67382c-.47693-1.19555-2.16541-2.757-2.38855-3.11615a12.31,12.31,0,0,1,.72888,1.21155c-.61719-.77844-1.38269-1.49963-2.10241-2.29223-.73987-.77381-1.43958-1.62214-2.22913-2.37482-.81091-.731-1.62732-1.451-2.44128-2.11853-.411-.32874-.80384-.66553-1.22669-.94489-.43384-.26611-.86487-.51446-1.29138-.73968l.09314.34912a7.95687,7.95687,0,0,1-2.14551-1.53394,9.16134,9.16134,0,0,0-.78357-.73095,14.15394,14.15394,0,0,0-1.5387-.92017l.127.01483A6.83682,6.83682,0,0,1,78.352,7.82631c.81775.18951-1.04577-1.228-.00232-.93421-3.01538-1.05279-1.57153-.39722-3.77759-.558l-.27233-.5423a6.98959,6.98959,0,0,1-.91541-.0033,13.53292,13.53292,0,0,1-1.45813-.35485c1.32874.14843-.73621-.87177.78467-.76172a9.1335,9.1335,0,0,0-3.66944-1.38861c-1.00036-.20655-1.80285-.21936-2.387-1.00678-1.74328.61121,2.63477,1.26593,1.74426,1.26733.57666.51459-1.42553.4079-2.38928.06757a4.34257,4.34257,0,0,1-1.40869-1.0459,5.89174,5.89174,0,0,0-1.03528-.71893,6.33913,6.33913,0,0,0-1.6322-.4455c.26392.04541.29541-.02832.5592.01667-.95861-.41211-2.00366.05145-3.16967-.55506-.75013.48163-1.59278-.21148-1.86072.5727a17.50444,17.50444,0,0,1,2.44556.09515c-1.40735-.06159-2.75879.84131-4.97876.27789a4.52531,4.52531,0,0,1,1.33642-.42c-.65466-.26691-1.28686.0899-1.96875-.184C54.51731.438,57.277,1.14405,58.82408.69508c-.69251-.44464-2.88465.40448-2.066-.42847A2.24185,2.24185,0,0,1,54.76756.611a3.76775,3.76775,0,0,0-2.5105.21241l.11279-.48047a5.34287,5.34287,0,0,1-1.411.35693l.9458-.6629c-1.46191.60376-2.90295-.32831-4.32141.062,2.99707-.20074.723.52618,2.005.79987a6.22619,6.22619,0,0,1-1.91748.19274A2.66092,2.66092,0,0,1,46.6334.81221C46.01487.541,45.31321.22877,43.27147.65883c.54907-.153,2.13476-.03937,1.30261.31036A11.45193,11.45193,0,0,1,42.19371.8293c-2.648.77765.51269.37231-.55664.94622-1.03052-.33288-1.24585.56208-2.33643,1.03425l-.13708-.46283c-1.54932.23187-1.67261.53833-1.75086.83557-.08325.28912-.12634.55475-1.48206.85119l.88685-1.03576-1.3108.66259.09852-.6203A9.38921,9.38921,0,0,1,32.248,4.48286c.46032.156.16369.8913-1.0492,1.49207-.95984.14434.27356-.64118-1.4425.26275a1.45989,1.45989,0,0,1,1.48767-.979c.01172-.18024.26538-.46356.2832-.64429A10.82235,10.82235,0,0,0,28.54759,5.9723a3.08064,3.08064,0,0,1,.74487-.23492l-1.11877.91845L27.13194,7.67738c-.46973.07306-.244-.23413-.01453-.5398-.4657.34333-.6914.73951-1.38611,1.21039-.01977-.44659-.28051-.76257.66089-1.54956L24.29344,8.58394a3.71367,3.71367,0,0,0-.78967.11657c-.2909.07459-.52808.11334-.426-.05249a8.809,8.809,0,0,0-1.99988,1.81183,14.77734,14.77734,0,0,1-2.24743,2.0509,1.75181,1.75181,0,0,1-.41077.64923c-.72217.5954-1.47327,1.08613-2.20593,1.66785a7.56377,7.56377,0,0,0-1.90918,2.34186l-1.37757.4715c-1.05163,1.39813,1.81116-.67987.0763,1.62921-1.06751,1.74786-.92957.2268-1.52039.67743a14.36447,14.36447,0,0,1-.729,1.97473,7.334,7.334,0,0,1-1.59107,2.12073A5.96739,5.96739,0,0,1,10.03367,22.59315ZM1.96434,42.21339c-.0326-.4248-.10755-1.29053.23742-1.52216C2.63145,41.27266,2.25962,41.55446,1.96434,42.21339ZM6.5648,73.39766a1.74652,1.74652,0,0,1-.40039-1.22821A3.616,3.616,0,0,1,6.5648,73.39766Zm59.363,25.045a.211.211,0,0,0-.03284.03229C65.03086,98.49665,65.33909,98.49623,65.92784,98.4427Zm1.73352-.301c.146-.12176.11365-.18133.02307-.22131-.07764.15607-.44727.29279-.87952.40674C66.958,98.4076,67.199,98.41639,67.66136,98.14167ZM61.583,5.26948l-.31751-.176C62.057,5.07338,61.81981,5.1642,61.583,5.26948Z"/><path class="cls-2" d="M4.56846,70.30977a.45156.45156,0,0,1,.19336-.2558C4.63707,69.92933,4.54747,69.957,4.56846,70.30977Z"/><path class="cls-2" d="M18.7783,12.55067l.05213-.03992a.20685.20685,0,0,0-.00782-.11029Z"/><path class="cls-2" d="M48.61473,113.11213a1.78357,1.78357,0,0,1-.30652-.88672c-.05444.025-.078.08686-.05042.20411a1.1472,1.1472,0,0,0,.08228.21966C48.40294,112.76838,48.49913,112.92988,48.61473,113.11213Z"/><path class="cls-2" d="M75.77708,93.74952l-.90857.6446a2.3513,2.3513,0,0,1,.94861-.34278C75.74107,93.96443,75.4785,93.92292,75.77708,93.74952Z"/><path class="cls-2" d="M85.59776,90.60255c.09546-.15192.28369-.22766.363-.39386l-.18128-.137C85.237,90.55226,84.94163,90.996,85.59776,90.60255Z"/><path class="cls-2" d="M77.47642,94.64393c.27234.2912.87048-.12085,1.4823-.65533a1.06036,1.06036,0,0,1-.11816.07886C78.7379,93.4593,78.13987,94.09614,77.47642,94.64393Z"/><path class="cls-2" d="M79.10618,93.87367a4.77934,4.77934,0,0,1,.61157-.42035C79.67149,93.21077,79.44273,93.57972,79.10618,93.87367Z"/><path class="cls-2" d="M69.66941,97.16438c.3877-.02277.037-.56085.29248-.474C70.1754,96.07032,67.84813,98.078,69.66941,97.16438Z"/><polygon class="cls-2" points="78.73 95.48 78.217 95.19 78.02 95.76 78.73 95.48"/><path class="cls-2" d="M72.80247,98.07289l1.24915-.40344c-.05335-.06824.07739-.18024.24694-.2967C73.55748,97.68379,72.71556,97.949,72.80247,98.07289Z"/><path class="cls-2" d="M74.29856,97.37275a2.96763,2.96763,0,0,0,.91663-.508C75.01951,96.97773,74.577,97.17762,74.29856,97.37275Z"/><polygon class="cls-2" points="77.23 96.477 76.84 96.573 76.01 96.988 77.23 96.477"/><path class="cls-2" d="M60.62718,104.43831l-.69238,1.26257c.05908.21759.36657-.04492.61218-.52344C60.64244,104.82685,60.88841,104.351,60.62718,104.43831Z"/><path class="cls-2" d="M64.10337,102.23488a1.22583,1.22583,0,0,1-.37951-.07752.46547.46547,0,0,0-.28589-.06293l.37537.55072C63.81981,102.4015,63.99168,102.37294,64.10337,102.23488Z"/><path class="cls-2" d="M61.96568,105.16914c.0614.21527-.76892,1.99445.22656.475C62.13365,105.42756,62.82774,104.16334,61.96568,105.16914Z"/><polygon class="cls-2" points="48.665 110.175 48.878 110.471 49.688 109.852 48.665 110.175"/><path class="cls-2" d="M33.70469,101.54927c1.59864.83185.62158-.44348,2.03443.37164.47241-.09131-1.15393-.6618-.67823-.71741C33.95774,101.1125,33.50059,100.72572,33.70469,101.54927Z"/><path class="cls-2" d="M35.06089,101.2035a5.55367,5.55367,0,0,0,.56592.03186A2.52428,2.52428,0,0,0,35.06089,101.2035Z"/><polygon class="cls-2" points="100.524 49.686 100.365 50.732 100.673 50.047 100.524 49.686"/><path class="cls-2" d="M101.38145,51.66444l-.63611.25665.62024.62458C101.32432,52.30745,101.24424,51.848,101.38145,51.66444Z"/><path class="cls-2" d="M.18931,45.16371l.14148.10919c.19446-.1554.24768-.42188.356-.956Z"/><polygon class="cls-2" points="5.084 30.23 4.955 30.468 5.705 30.263 5.084 30.23"/><path class="cls-2" d="M11.44822,18.60261c-.34716.42078-.62878,1.0141-.97595,1.4361C11.10313,19.01991,12.10423,18.94746,11.44822,18.60261Z"/><circle class="cls-3" cx="28.12097" cy="52.87312" r="7.5"/><circle class="cls-3" cx="78.12097" cy="52.87312" r="7.5"/><circle class="cls-3" cx="53.12097" cy="52.87312" r="7.5"/></g></g></svg>