<svg xmlns="http://www.w3.org/2000/svg" viewBox="0 0 104.16943 117.48158"><defs><style>.cls-1{fill:#1d1d1b;}.cls-2{fill:#6dc7c2;}.cls-3{fill:#5ac0ba;}</style></defs><title>Paused_03</title><g id="Layer_2" data-name="Layer 2"><g id="Layer_1-2" data-name="Layer 1"><path class="cls-1" d="M103.12093,52.54569a50,50,0,1,0-60.06738,48.98584l4.34289,6.32794,5.72449,8.34107,5.72443-8.34107,4.34289-6.32788A50.01724,50.01724,0,0,0,103.12093,52.54569Z"/><path class="cls-2" d="M100.66937,52.91175c.05811-.46264-.36853-.29675-.44055-.36608C100.28589,53.31294,100.77923,52.89454,100.66937,52.91175Z"/><path class="cls-2" d="M100.94079,60.67323l-.15051-.16461a9.14244,9.14244,0,0,1,.21356,1.2041A7.549,7.549,0,0,0,100.94079,60.67323Z"/><path class="cls-2" d="M99.16156,67.72554c.86957-.44941.75445-2.53656,1.21423-3.749l.205-.17187-.4317-.7c-.14264.77014-.17414,1.69323-.34949,2.524A9.00785,9.00785,0,0,1,99.16156,67.72554Z"/><path class="cls-2" d="M96.37591,70.75758c.34534-.10626-.09228.84479.41742-.77686a1.37958,1.37958,0,0,1-.1264.12049C96.61255,70.24318,96.53113,70.43635,96.37591,70.75758Z"/><path class="cls-2" d="M96.66693,70.10121c.26672-.6922-.40308.36053,0,0Z"/><path class="cls-2" d="M95.42108,73.30427l.22674-.97626c-.23767.11469-.67578.86255-.63275.52637C94.67682,73.79573,94.91467,73.69307,95.42108,73.30427Z"/><path class="cls-2" d="M95.454,74.36885l.14361-.50342C95.4945,73.91456,95.41113,74.02284,95.454,74.36885Z"/><path class="cls-2" d="M95.90069,72.80543l-.303,1.06c.169-.07489.38422.01257.15906-.47827C95.90527,73.55946,95.823,73.27772,95.90069,72.80543Z"/><path class="cls-2" d="M96.25732,72.29493c.35236-.44616.71979-1.07672.56214-.05163C97.46209,70.43873,96.88672,70.51374,96.25732,72.29493Z"/><path class="cls-2" d="M99.74847,68.31636l.43182-.66919-.02642-.70673C100.166,67.29383,99.52173,68.29133,99.74847,68.31636Z"/><path class="cls-2" d="M92.06732,78.39656c.09357.13623.51269-.05426.71521-.011l.242-.709C92.73675,77.93666,92.28039,78.48036,92.06732,78.39656Z"/><path class="cls-2" d="M92.78253,78.38557l-.3667,1.07C92.96393,78.64357,92.956,78.42476,92.78253,78.38557Z"/><polygon class="cls-2" points="96.075 74.892 96.426 73.033 95.919 75.209 96.075 74.892"/><polygon class="cls-2" points="89.632 81.707 89.723 81.004 89.484 82.201 89.632 81.707"/><path class="cls-2" d="M87.90155,83.81453c.08343-.52845-.77686.12774-.593-.34528a7.25919,7.25919,0,0,0-.91309,1.78894A4.47827,4.47827,0,0,1,87.90155,83.81453Z"/><path class="cls-2" d="M85.928,86.14589a6.93528,6.93528,0,0,0,.46746-.8877A3.66383,3.66383,0,0,0,85.928,86.14589Z"/><path class="cls-2" d="M91.24255,80.90974a1.22787,1.22787,0,0,0-.8631.42163l.59766-.08185Z"/><path class="cls-2" d="M90.99719,81.24574l-.02008.00378c-.29126.36518-.49329.61853-.5799.727C90.473,81.88435,90.6535,81.66438,90.99719,81.24574Z"/><path class="cls-2" d="M91.30969,80.82441l-.06714.08533C91.30127,80.90187,91.32776,80.89021,91.30969,80.82441Z"/><path class="cls-2" d="M94.32757,77.24818c-.141.66815-.66137,1.97046.35883,1.03931C94.68976,77.73561,94.10962,78.26356,94.32757,77.24818Z"/><path class="cls-2" d="M92.06543,80.71174c.25775-.29706.53973-.57824.77923-.88983-.10553-.04394-.35321.04065-.28015-.29755C92.43066,79.93946,92.231,80.31227,92.06543,80.71174Z"/><polygon class="cls-2" points="91.826 81.251 92.065 80.712 91.773 81.038 91.826 81.251"/><path class="cls-2" d="M87.602,85.02089a3.85961,3.85961,0,0,1-.9997,1.35748,8.02562,8.02562,0,0,0,1.48535-1.36023C88.05145,84.85743,88.06494,84.48164,87.602,85.02089Z"/><path class="cls-2" d="M89.33923,83.26472l-.05609.09876C89.35656,83.33589,89.40234,83.30244,89.33923,83.26472Z"/><polygon class="cls-2" points="81.984 90.387 82.109 90.387 82.082 90.314 81.984 90.387"/><path class="cls-2" d="M88.22094,84.98872a1.683,1.683,0,0,0,.613-.91309,11.40125,11.40125,0,0,1-.74634.94251C88.10418,85.09028,88.12823,85.12336,88.22094,84.98872Z"/><path class="cls-2" d="M84.83575,87.44886a8.17487,8.17487,0,0,0,.78656-.4187C85.344,87.10633,84.82708,87.304,84.83575,87.44886Z"/><path class="cls-2" d="M89.08069,83.41163l.03552-.06781C88.93725,83.40541,88.985,83.41951,89.08069,83.41163Z"/><path class="cls-2" d="M89.08069,83.41163a3.39873,3.39873,0,0,0-.24671.664,6.02572,6.02572,0,0,0,.44916-.71215A.74692.74692,0,0,1,89.08069,83.41163Z"/><path class="cls-2" d="M82.07434,93.73066c-.077-.19091.12732-.54193.48572-.906a3.52716,3.52716,0,0,1,1.44982-.97547c.73591-.96441-.69909-1.48822-1.90136-1.462.07666.15906.179.28424-.59589,1.19714.44318-.07379,2.34393-1.21905,1.78717-.31714-1.11633,1.13031-1.074.71949-1.83172.9643.83282.03784-1.25312,1.69745-.57013,2.1145l1.02545-.99048C82.01111,93.43257,81.689,93.8639,82.07434,93.73066Z"/><path class="cls-2" d="M83.85406,89.0514l.34015-.332a5.60236,5.60236,0,0,1-1.62109.6004c-.49024.63685-.52985.85669-.49158.99463l1.86151-1.409Z"/><path class="cls-2" d="M85.7514,87.26741c.02789.56579-.6933,1.49786.136,1.35656,1.01556-.99792.47949-.94635.96216-1.65734-1.57776,1.63177.30523-.61683-1.05182.32476a10.057,10.057,0,0,1,.8045-.913c-.33117.2395-.65948.45923-.98.65179l.05567-.01562.00671-.00824.00311.00641c.107-.027.15277-.02521.05207.02679a.16439.16439,0,0,1-.028.03839.40865.40865,0,0,1,.03784.18775c-.53387.38092-.15063-.01191-.03784-.18775a.28591.28591,0,0,0-.02411-.06518l-.00982.00183c-.49353.56378-.97065,1.15222-1.48377,1.70483A10.8152,10.8152,0,0,0,85.7514,87.26741Z"/><path class="cls-2" d="M94.80322,79.83607a.10541.10541,0,0,1-.12384.00855C94.64239,80.00184,94.64148,80.07075,94.80322,79.83607Z"/><path class="cls-2" d="M94.07135,80.50666a1.36266,1.36266,0,0,1,.30505-.83416c.36383-.33319.17163.115.303.17212.08441-.34705.36218-1.15076-.36877-.38684l-.03882.17108c-.597.73425-1.76538,1.36267-1.718,1.19507A2.93189,2.93189,0,0,0,94.07135,80.50666Z"/><path class="cls-2" d="M90.09851,84.27064l-1.12482,1.56854.93268-.4804-.2005-.11213C90.50561,84.48805,90.13867,84.48384,90.09851,84.27064Z"/><polygon class="cls-2" points="81.688 90.349 81.604 89.834 81.15 91.018 81.688 90.349"/><polygon class="cls-2" points="79.747 91.794 79.598 91.417 79.202 91.968 79.747 91.794"/><path class="cls-2" d="M5.03576,31.79731l.15894-.59088A3.62886,3.62886,0,0,0,5.03576,31.79731Z"/><path class="cls-2" d="M3.46844,35.8838l.14813.16248C3.5838,35.82246,3.53753,35.71858,3.46844,35.8838Z"/><path class="cls-2" d="M36.78589,97.13289c-.31421-.30341-.62665-.65961-.86786-.88331-.23145-.24877-.39722-.35894-.43787-.133l.06073.50177A3.91263,3.91263,0,0,1,36.78589,97.13289Z"/><path class="cls-2" d="M6.25561,70.23921l-.0285.2746c.217.13409.42029.2597.60461.37365Z"/><path class="cls-2" d="M4.34784,70.30214l-.0846-1.18573A6.40751,6.40751,0,0,0,4.34784,70.30214Z"/><path class="cls-2" d="M18.82263,12.40046l.24457-.817C18.23663,12.33815,18.748,12.17585,18.82263,12.40046Z"/><path class="cls-2" d="M57.56988,105.51991a9.56674,9.56674,0,0,0-1.23974,1.34393C57.0299,106.28419,57.73718,105.91468,57.56988,105.51991Z"/><path class="cls-2" d="M8.69079,35.08418c.04242-.34558.01007-.515-.083-.54181C8.557,34.89827,8.56707,35.113,8.69079,35.08418Z"/><path class="cls-2" d="M55.146,108.59187c.1081-.08081.19727-.17181.301-.2583a9.1223,9.1223,0,0,1,.88312-1.46973A3.09425,3.09425,0,0,0,55.146,108.59187Z"/><path class="cls-2" d="M95.71747,21.976c.02191.06195.05987.12836.07537.18756C95.852,22.14485,95.80249,22.07283,95.71747,21.976Z"/><path class="cls-2" d="M100.69366,45.82856c-.06122-.22192-.11792-.58972-.17651-.93579A3.59987,3.59987,0,0,0,100.69366,45.82856Z"/><path class="cls-2" d="M71.11969,96.24531c.4563-.23456.05572-.07733,0,0Z"/><path class="cls-2" d="M74.13019,96.78407a.28968.28968,0,0,0-.10376.27692A.37041.37041,0,0,1,74.13019,96.78407Z"/><path class="cls-2" d="M54.28772,114.61439l-.02741.03723C54.37878,114.62935,54.35821,114.63063,54.28772,114.61439Z"/><path class="cls-2" d="M71.90094,96.113a4.74954,4.74954,0,0,0-.64954.14837A4.88675,4.88675,0,0,0,71.90094,96.113Z"/><path class="cls-2" d="M71.72509,95.96681l.42536-.14331C72.18011,95.73121,72.11,95.7126,71.72509,95.96681Z"/><path class="cls-2" d="M70.4776,96.55787a5.72389,5.72389,0,0,1,.7738-.29651c-.10309.014-.15082.00849-.13171-.016Z"/><path class="cls-2" d="M56.26526,1.38838c.03582.0155.07757.02643.11639.04706C56.95306,1.28413,56.70538,1.3003,56.26526,1.38838Z"/><path class="cls-2" d="M22.35486,94.48054c.02331.01288.04083.01239.0628.023l-.05615-.0639Z"/><path class="cls-2" d="M20.57025,93.476a2.35938,2.35938,0,0,1,1.79126.96363l.23035-1.4137Q21.59723,93.26372,20.57025,93.476Z"/><path class="cls-2" d="M10.03363,22.59315a10.372,10.372,0,0,0-1.12927.97107,7.97158,7.97158,0,0,1,.7102-1.92944c.14307-.348.06445-.37976-.57153.01526.247.23748.165.64379-.0755,1.13476a14.2847,14.2847,0,0,1-.90546,1.73895c-.70306,1.22162-1.4021,2.44581-.85742,2.855a9.398,9.398,0,0,0-.68323.70466c.12994-.23816.07831-.315.20746-.55042-1.3833,1.36572.27515,1.68372-.90973,3.70026-.44781.69171-.87775,1.13336-.78339.56408-.17779.58893-.23492,1.2248-.35534,1.82953-.20716.48828-.38318.28314-.176-.20605l-.85693,2.65759-.03089-.0321c.05732.44043.07,1.38159.12323,1.84906-.36212.62335-.05029-.38117-.25732-.25647l-.06531,1.57019c-.496.51519-.50885-.80622-.19208-1.82788-1.66558,1.02978.008,1.324-1.53369,4.15808l.19654-1.46448a3.12647,3.12647,0,0,0-.98175,1.44293c-.233.58649-.35382,1.28717-.73121,2.083.15436-.17908.58161-.96405.9773-1.47.4093-.50519.80688-.73041.79718.12121a3.78369,3.78369,0,0,0-.18317,1.99475c-.4779-.06933-.49548.82856-.63391,1.92762l-.62365-.15283c-.005,1.22052.33654,1.15826.59161,1.88793A2.03588,2.03588,0,0,1,.0271,49.77778c-.20978,2.15375.86755-1.44281.86108,1.09845-.39044,1.7674.00879,3.03449.46863,5.1145-.16394,1.25043-.40009-.18927-.56268.26667.19067.35577.36309.70947.56842,1.05694.02288.26673-.14447.196-.229.15949.31787.89691.64624.017,1.00812,1.42114.76105.26666-.69336,3.10382.56848,4.69946-.08093.46924-.4295-.12408-.64209.05939a12.45532,12.45532,0,0,0,2.07868,3.71l.11651,1.75257c.09381-1.35285,1.06275.02337,1.99237,1.1228.03876-.47748.12268-.89679.14215-1.164a21.65592,21.65592,0,0,0,1.10236,1.87835c.00189.278-.28375.16333-.6684-.0661.10572.11695.208.22669.2945.309.07788.80274-.41449.58033-.9632.19129.014-.29474.03766-.589.06409-.874-.5802-.35419-1.15772-.69239-1.46527-.45984a3.67049,3.67049,0,0,1,.42785.62164c-.15374-.09564-.27752-.14819-.3117-.0639-.034.09381.18841.261.48022.53869l-.4671.73395.31043.00916c.246.95825.4638,1.9392.74505,2.89971a46.25433,46.25433,0,0,1,5.34485,5.24408c-.86865-.395-.8092.31818-1.34979.62238a2.43644,2.43644,0,0,0-.882-1.6247c-.2525-.28283-.55231-.56958-.80438-.90258a5.85127,5.85127,0,0,1-.64124-1.10382c.35675.83416.00812.80359-.18988.64691A29.62479,29.62479,0,0,0,9.52478,80.0312c-.46582.21161.03009.75855.29144,1.56152.26184-.54394.67792-.12732,1.2171.47455a22.26257,22.26257,0,0,0,1.66693,1.82691c-.21808.269-.67187.23956-1.53479-1.03553.44324,1.80268,2.21436,1.04944,2.77094,2.69629-.254-.27148-.35108-.4497-.56665-.4627.786.473,2.03583,2.18756,1.48273,2.01983l-.25428-.27276c.39221.4812.9046,1.074,1.46558,1.68646.59186.58215,1.2644,1.15234,1.892,1.66858a12.1533,12.1533,0,0,0,1.73571,1.23327c.52375.25354.92884.36322,1.13538.25586a3.89738,3.89738,0,0,1-1.13672.62494q1.332.14714,2.61768.25446a23.51539,23.51539,0,0,0,2.56079.12506c-.74494.37482-.50592,2.64471-2.45093,1.81561a5.80888,5.80888,0,0,0,2.16211,1.41736c-.28424-.31439-.24365-1.43176.24622-1.18549a10.27237,10.27237,0,0,0,1.83563,2.52271c-.45-.42749.7287-1.08411,1.52435-.60419-.2138.07788-.48724,1.02259-.85364.95661l2.60913.15332c-.605-.10181-.5332.79437-.20294,1.338-.14587-.26556,1.87647.87775,2.50537,1.04059l-.818-.64905c2.40411,1.25244,3.01092-.33423,5.43414.53583a.872.872,0,0,0,.02039,1.66906c.389-.185,1.23913-.57824,2.27331-1.00067a11.74112,11.74112,0,0,1,1.64869-.56537,4.64954,4.64954,0,0,1,1.94934-.13769c.15448.15186.29046.29871.418.44366l.60151.054c.13153.123.25708.2605.389.39453l.80964.84833c-.387-.181-.89039-.42578-1.3927-.62061-.06366-.02337-.124-.05072-.19025-.06854l-.2702.05328-.52613.1153c-.34253.08075-.66546.16925-.95294.26563a21.98311,21.98311,0,0,1-3.51294.79431c.89832.52643.16168.44989,1.64478.799.44677.43036-.93012.24933-1.3758.15515l1.712.53314.85583.26532.136.08277c.1059-.29065.451-.49891.67633-.34382.13324.05762.25116.09913.413.17707.2077.14453.37768.20648.47479.10052-.10278-.09845-.23938-.24615-.31445-.30426l-.20191-.14026q-.196-.13174-.36859-.22918a4.6235,4.6235,0,0,0-.46912.05975l-.18457.045a.49838.49838,0,0,1-.18066.00006l-.24438-.01617c.00164-.17249.16656-.34064.44628-.48566a2.01375,2.01375,0,0,1,.8014-.43078c.0924-.02558.19122-.048.29577-.06684l.16107-.02563a.40914.40914,0,0,1,.118.05316,2.92,2.92,0,0,1,.48266.34637,5.813,5.813,0,0,1,1.03992,1.27637c.12537.65534-1.2453.30023-1.40186.46838a5.57566,5.57566,0,0,1,1.64447,1.905l-.8731-.637c.54834,1.24591,1.96991,1.29553,2.35046,2.98389.27844.48163.22357,1.85565.606,1.70959.12048-1.18011,1.977-2.66876,2.79327-2.4975a24.33954,24.33954,0,0,1,1.0824,3.54285c.01312.5506-.42792.54132-.962.37769-.49042-.09992-.98163-.21979-.97455.24694a.60128.60128,0,0,1,.4076.09369,3.31044,3.31044,0,0,1,.48114.34772c.329.75659-.6272.09149.46435,1.53528.58045-.35889,1.97425,2.97845.79651.14233.98755,1.09473.90283,1.56311,2.0191,3.13715-.16149-.67432.25312-.85651.64405-.95068a20.55,20.55,0,0,1,.84674-2.33722.39479.39479,0,0,0,.32007.42071c1.45379-2.00964,2.57623-3.09814,3.89172-5.00458.25952-.08648,1.0705-.91516,1.03723-.34808a3.328,3.328,0,0,1,.47919-1.349c1.28552-.83148-.84546,1.39417.3479.90674-.27448-.29993.618-1.86609,1.0022-2.86346-.68543-.0824-1.45618,1.91467-1.84174,2.91308-.69849-.47345-.40124-2.4682.67706-4.72894.94-1.73981.93207-.39429,1.02625-.74371a9.70485,9.70485,0,0,0,.66363-1.0019c.17054-.29974.36713-.67254.49732-.96978.13946-.3108.25226-.60389.35449-.8891a2.6909,2.6909,0,0,1,.574-.42951,7.31728,7.31728,0,0,1,.64044-.38165c.11871-.0622.24444-.12323.37976-.18274l.34546-.15027a4.74587,4.74587,0,0,1,1.659-.31073c1.29261.23145.34369,1.0163.70221,1.3263a5.773,5.773,0,0,1-1.9198.386,8.34277,8.34277,0,0,0-1.76995.20838l1.5426-.12439c-.4671.37182-1.5813.48163-1.86023,1.09588a1.93384,1.93384,0,0,0,.42181-.361l.0622-.06543.10321-.01324.21643-.03162.47015-.08227c.64258-.12128,1.4682-.3172,2.33905-.5257a26.78361,26.78361,0,0,0,2.65332-.75684,22.58272,22.58272,0,0,1,2.42682-.62146c.41443-.34466,1.132-.894.67438-.919-.26587.1402-.52448.3-.79742.42468-.47266-.077-.11438-.324.18292-.6026.303-.26715.57727-.49.02734-.35577a10.69637,10.69637,0,0,1,3.56818-2.21534l.55316.395c-.11-.12982-1.119.19806-1.47821.53156.52984-.46625,2.65533-.45862,2.95141-1.51624l-1.224.18939a14.66938,14.66938,0,0,1,3.12268-2.719c-.86975-.14972-.24182.25073-1.46326.20367,1.22675.32941-3.22656,1.73114-1.5332,1.857a2.7432,2.7432,0,0,0-1.55628.20807,4.15414,4.15414,0,0,1-1.75189.275c.12238.16693.60168.1557-.53485.5517a1.21719,1.21719,0,0,1-.16931.27032l-.0802.01917.07013-.00507c-.03565.04907-.03736.0567.02588-.00238a1.44457,1.44457,0,0,1,.68615.0315c-.36163.66107-2.132,1.4779-2.69348,1.8623-.72113.14661.20679-.31634-.243-.38971l-.80688.65808c-.24646-.39056-2.03949-.08459-.53266-.88391l-1.4331.475a7.12266,7.12266,0,0,0-2.80964.56451,4.89227,4.89227,0,0,0-.86218.24957c-.341.124-.63623.25379-.85534.35614-.43738.20472-.60193.30842-.1651.018-.7793.03546-1.00269.84637-1.38062,1.41022l-.5249.88769-.30017.56043-.10565-.0445c-1.44214,2.00122-2.25965,4.60663-4.52338,6.47266-.18823.37433-.37512.758-.62634,1.18219-.12561.21216-.26734.43439-.43329.67065a1.53592,1.53592,0,0,1-.26221.29315,2.7709,2.7709,0,0,1-.3114-.233c-.04212.18122-.23218.2865-.35266.3498-.12628.07165-.20056.12707-.21466.50525a4.85446,4.85446,0,0,0-.12555-.48926c-.08039-.48889-.1344-.51392-.26819-.5965a1.24335,1.24335,0,0,1-.21112-.14075.50446.50446,0,0,1-.089-.09906c-.11523-.16931-.24493-.37317-.33551-.53936l-.45837.22863a27.45708,27.45708,0,0,0-2.5998-3.22448l-.31378.33484c-1.08514-.93042-1.74634-3.108-3.02032-4.88312.2254.02551.50189.50775.63842.88959a5.77072,5.77072,0,0,0-1.10919-2.18818l-.49139-.67486-.2511-.327c-.09277-.09521-.26776-.07129-.3974-.11139l-1.67676-.26941-.40045-.05847-.24207-.01843-.48138-.04035c-.31915-.02972-.63415-.06652-.94006-.11993a3.47384,3.47384,0,0,1-1.66327-.65369,2.2912,2.2912,0,0,1-1.28986-.45153.44571.44571,0,0,0,.13971.02331c-.05279-.02392-.13348-.05273-.2168-.0805-.20971-.15387-.421-.3216-.65734-.47882a3.18817,3.18817,0,0,0,.53949.43975,12.54163,12.54163,0,0,0-1.70881-.4l-.07568-.55432-.14056-.04785c-.50635-.42066-.55158.00341-.37806.47729a4.16861,4.16861,0,0,0-.89929-.0827c-.15918-.92175-1.67779-.45966-1.968-1.49414-.58161.19555-2.99353-1.28913-3.741-.71613.03619-.10656-.10724-.24554.20819-.07995a6.12946,6.12946,0,0,0-1.83527-1.07856l.07459-.68621-1.79236-.2052c-.60278-.84949-.79718-1.238.27161-1.09333-2.29078-.78338-1.63459-.92181-3.65473-1.58429l.3302-.24316c-.58368-.39771-1.7475-.80493-1.84332-1.34-.32019-.82721-1.76721-2.1311-3.21277-3.87481l-1.14673-1.30646c-.34289-.48017-.68927-.96521-1.03161-1.44458a13.95249,13.95249,0,0,1-1.6753-2.88129c-.55865,1.29682-.55822-1.861-1.4093-1.51507.10907-.34229-.05426-.8902.4986-.46613a7.25706,7.25706,0,0,1-1.17816-2.1673,3.38264,3.38264,0,0,0-1.23432-1.62066c.14215-.32569.56653.21222.6178-.043-.12494-.11908-.52649-.46411-.4436-.73535.07214-.25989.313.18237.58337.40625C9.657,70.948,8.83227,71.05952,8.02319,71.22725a2.39029,2.39029,0,0,0-1.07965-2.15851c.13074-.44934.20251-1.12757.68671.092C7.46,68.42884,6.59558,64.77723,6.032,64.84425a2.18254,2.18254,0,0,0-.29474-1.19751c-.15674-.818-.24206-1.26324-.32666-1.70459-.09405-.43915-.19531-.87231-.31482-1.68146l-.04339.467c-.84632-.5191-.35029-1.33239-.6175-2.631l.08362.02869a8.04416,8.04416,0,0,0-.04761-2.17169,5.0066,5.0066,0,0,1,.11939-2.1391l-.47205.176c-.51288-.12408-.41986-.80542-.18591-1.655a6.12029,6.12029,0,0,0,.48541-2.73834l-.30517.61389c-.15229-.4859.23187-1.13757.674-1.761.2243-.3078.45294-.62158.65753-.9024a2.57067,2.57067,0,0,0,.46545-.76587c.12-.1889.0943.33289.11719.61774.9729-2.31659-.57593-.382-.44348-2.21009.38519-.27887.78766.55335,1.03174-.63354a1.64471,1.64471,0,0,0,.07855-.82782,9.648,9.648,0,0,1-.04486-1.4,5.59542,5.59542,0,0,1,.66559-2.92437c-.3418.28277-.686.57556-.66248-.30683a3.73578,3.73578,0,0,1,.39093-1.05566c.2182-.35889.45245-.74426.68268-1.1228a3.12723,3.12723,0,0,0,.612-2.2312c.12317-.1297.208-.16266.27045-.14478A11.50813,11.50813,0,0,1,9.154,32.525a5.06613,5.06613,0,0,0,.33679-1.82154c.4718-.02533.8291-.4068,1.12232-.95807a15.76092,15.76092,0,0,0,.90722-1.89087c.56055-1.341,1.06073-2.61724,1.68628-2.1773l1.77008-2.50647.07587.15948a6.88055,6.88055,0,0,0,1.64789-2.98974c.38586-.26978.267.07275.30194.15344a15.70525,15.70525,0,0,0,2.09729-2.0874A13.18022,13.18022,0,0,0,20.5896,16.1631l.51611.20044a2.408,2.408,0,0,1,.71185-.66028c.18994-.13532.40113-.29285.6449-.44714.25287-.1424.52679-.29657.81519-.45893a20.70034,20.70034,0,0,0,1.78283-1.129c.60108-.41467,1.13935-.939,1.68018-1.39569a.41974.41974,0,0,1-.1413.3451,9.74621,9.74621,0,0,1,2.12818-1.35974A16.01173,16.01173,0,0,1,31.1029,10.2577C32.65881,9.723,33.89135,9.168,34.06079,8.08436c.57788-.42315,1.19629-.76666,1.80151-1.1582-2.631.81232.102-.871-1.07294-.76062,1.00391-.4801,2.8451-.46161,1.61811.0863l-.22718-.013c-.13781,1.04279,3.31379-.86859,3.45813-.13061,5.1211-1.63214,10.43421-1.51947,15.33674-1.33252l-.55005-.7605,1.74762.13061c.44879.193.57183.60175-.65821.50959.62018.44665,2.09259-.24341,2.15143-.39966,1.20221.24737.93079.48462.47522.575-.46155.13226-1.12457.26074-.75714.28217a6.62415,6.62415,0,0,1,1.00037.03448l-.21393-.11951a3.99181,3.99181,0,0,1,2.42309-.214c.91144.28693.405.51795.76581.60138-.01086.05072.10749.09345.55524.10535a14.35387,14.35387,0,0,1,2.10821.5177l-.7193-.78216c1.00409-.03425,2.00031.547,1.16285-.34412a4.74575,4.74575,0,0,0,1.75482.954c.40228.14783.84546.28888,1.30743.42523.44757.18262.91388.36066,1.37787.53174.93146.33325,1.84607.66052,2.58154.9237a4.63423,4.63423,0,0,1,1.42255.73627,8.74442,8.74442,0,0,1,2.02826.57977,10.474,10.474,0,0,1,2.05463,1.06757c-.29627-.321-.20227-1.02289,1.01568-.18964-.56506.44031-.07.91181.62171,1.4469.68683.54261,1.60937,1.11335,1.771,1.8888-.4649-1.14466,3.34937,2.3092,2.59961.61487.90308.80975-.24829.44055.28369,1.23077A15.38114,15.38114,0,0,1,86.78,18.16548c1.09106,1.24573,2.0708,2.68432,3.33068,3.9046.16767-.06482-.00115-.69574.678-.27136l.41974,2.03186c.47876.49573,1.20117-.08826,1.46649,1.28338.01441-.22735.03467-.57226.36249-.22839a11.058,11.058,0,0,1,.61566,1.15625l.60627,1.16388c.41687.76849.85809,1.5238,1.31573,2.2738q.58979,1.178,1.183,2.36286c.37934.79663.86451,1.55188,1.16529,2.3872a22.72474,22.72474,0,0,1,2.15081,10.32581c.19507-.98743.32154-.37585.443.3374.0097-.47778.43048-.05932.65185-.18823l-.21765,2.99554c.684.47522.2005,3.13373.84851,3.41669l-.16119-.93225c.80987,1.23505,1.56793-1.85309,2.53076-1.76758a2.09232,2.09232,0,0,1-.2594-1.24072,14.293,14.293,0,0,1,.10736-1.5495,4.82172,4.82172,0,0,0-.647-3.44269c.07355-.56042.39441.38422.5484.062a3.93409,3.93409,0,0,1-.97022-2.58691l.13721.12549c-.2652-.931-.46588-1.73468-.63135-2.48645-.21618-.736-.42559-1.411-.61193-2.11218a30.25237,30.25237,0,0,0-1.57459-4.92l-.28815.49329a5.368,5.368,0,0,1-.3869-1.56433c-1.10858-.64667,1.10761,2.3919-.03424,1.84674.1485-.74426-.49475-2.2782-1.27435-3.67212-.81171-1.37872-1.5838-2.71784-1.347-3.38086-.759-1.23956-.22149.65259-.99975-.56268l.01532-.475-.5315-.07416c-.51178-.79095-.501-1.39514-.32178-1.57464a5.70432,5.70432,0,0,0,.618.67382c-.47687-1.19555-2.16541-2.757-2.38855-3.11615a12.32363,12.32363,0,0,1,.72888,1.21155c-.61713-.77844-1.38275-1.49963-2.10248-2.29223-.73981-.77381-1.43951-1.62214-2.22907-2.37482-.811-.731-1.62725-1.451-2.44122-2.11853-.41113-.32874-.80389-.66553-1.22674-.94489-.43378-.26611-.86487-.51446-1.29139-.73968l.09314.34912a7.95888,7.95888,0,0,1-2.14557-1.53394,9.15921,9.15921,0,0,0-.7835-.73095,14.15,14.15,0,0,0-1.5387-.92017l.127.01483a6.83571,6.83571,0,0,1-2.16723-.95379c.81775.18951-1.04578-1.228-.00232-.93421-3.0155-1.05279-1.57166-.39722-3.77765-.558l-.27234-.5423a6.98945,6.98945,0,0,1-.9154-.0033,13.53292,13.53292,0,0,1-1.45813-.35485c1.32879.14843-.73621-.87177.7846-.76172A9.13242,9.13242,0,0,0,69.0415,3.28328c-1.00037-.20655-1.80292-.21936-2.387-1.00678-1.74335.61121,2.63464,1.26593,1.7442,1.26733.57672.51459-1.4256.4079-2.38928.06757a4.34309,4.34309,0,0,1-1.40869-1.0459,5.89015,5.89015,0,0,0-1.03534-.71893,6.33724,6.33724,0,0,0-1.63214-.4455c.26385.04541.29547-.02832.5592.01667-.95868-.41211-2.00366.05145-3.16962-.55506-.75018.48163-1.59289-.21148-1.86078.5727a17.50559,17.50559,0,0,1,2.44562.09515c-1.40741-.06159-2.75885.84131-4.97888.27789a4.52589,4.52589,0,0,1,1.33643-.42c-.65461-.26691-1.28687.0899-1.96869-.184C54.51721.438,57.27685,1.14405,58.824.69508c-.6925-.44464-2.88464.40448-2.066-.42847A2.24194,2.24194,0,0,1,54.76745.611,3.76755,3.76755,0,0,0,52.257.82338l.11285-.48047A5.34359,5.34359,0,0,1,50.9588.69984l.94574-.6629c-1.46179.60376-2.90289-.32831-4.32129.062,2.997-.20074.723.52618,2.00494.79987a6.22615,6.22615,0,0,1-1.91748.19274A2.66053,2.66053,0,0,1,46.63336.81221C46.01477.541,45.31317.22877,43.27148.65883c.54907-.153,2.13477-.03937,1.30255.31036A11.45314,11.45314,0,0,1,42.1936.8293c-2.64789.77765.51276.37231-.55664.94622-1.0304-.33288-1.24579.56208-2.3363,1.03425l-.13715-.46283c-1.54938.23187-1.67261.53833-1.75079.83557-.08326.28912-.12641.55475-1.48206.85119l.88678-1.03576-1.31079.66259.09845-.6203A9.388,9.388,0,0,1,32.248,4.48286c.46039.156.16376.8913-1.04919,1.49207-.9599.14434.27362-.64118-1.44251.26275a1.45986,1.45986,0,0,1,1.48761-.979c.01184-.18024.26538-.46356.28327-.64429A10.82339,10.82339,0,0,0,28.54754,5.9723a3.08116,3.08116,0,0,1,.74482-.23492l-1.11866.91845L27.13189,7.67738c-.46972.07306-.24395-.23413-.01446-.5398-.4657.34333-.69147.73951-1.38617,1.21039-.01984-.44659-.28052-.76257.66095-1.54956L24.29339,8.58394a3.71384,3.71384,0,0,0-.78967.11657c-.29083.07459-.52808.11334-.42609-.05249a8.81151,8.81151,0,0,0-1.99981,1.81183,14.77977,14.77977,0,0,1-2.24744,2.0509,1.75142,1.75142,0,0,1-.41083.64923c-.722.5954-1.4732,1.08613-2.20587,1.66785a7.564,7.564,0,0,0-1.90918,2.34186l-1.37756.4715c-1.05164,1.39813,1.81109-.67987.07623,1.62921-1.06744,1.74786-.92944.2268-1.52032.67743a14.38186,14.38186,0,0,1-.729,1.97473,7.33265,7.33265,0,0,1-1.591,2.12073A5.96471,5.96471,0,0,1,10.03363,22.59315ZM1.96435,42.21339c-.03265-.4248-.1076-1.29053.23737-1.52216C2.63147,41.27266,2.25964,41.55446,1.96435,42.21339ZM6.56482,73.39766a1.74623,1.74623,0,0,1-.40046-1.22821A3.61865,3.61865,0,0,1,6.56482,73.39766Zm59.363,25.045a.21089.21089,0,0,0-.03283.03229C65.03082,98.49665,65.33911,98.49623,65.92779,98.4427Zm1.73352-.301c.14594-.12176.11365-.18133.02314-.22131-.0777.15607-.44733.29279-.87958.40674C66.95794,98.4076,67.199,98.41639,67.66131,98.14167ZM61.58288,5.26948l-.31738-.176C62.05694,5.07338,61.8197,5.1642,61.58288,5.26948Z"/><path class="cls-2" d="M4.56842,70.30977a.45162.45162,0,0,1,.19342-.2558C4.637,69.92933,4.54748,69.957,4.56842,70.30977Z"/><path class="cls-2" d="M18.77832,12.55067l.05206-.03992a.207.207,0,0,0-.00775-.11029Z"/><path class="cls-2" d="M48.61468,113.11213a1.78437,1.78437,0,0,1-.30652-.88672c-.0545.025-.078.08686-.05041.20411a1.14264,1.14264,0,0,0,.08234.21966C48.40295,112.76838,48.49908,112.92988,48.61468,113.11213Z"/><path class="cls-2" d="M75.777,93.74952l-.9085.6446a2.35109,2.35109,0,0,1,.94867-.34278C75.74109,93.96443,75.47851,93.92292,75.777,93.74952Z"/><path class="cls-2" d="M85.59771,90.60255c.09546-.15192.2837-.22766.3631-.39386l-.18133-.137C85.237,90.55226,84.94159,90.996,85.59771,90.60255Z"/><path class="cls-2" d="M77.47638,94.64393c.27234.2912.87048-.12085,1.48224-.65533a1.05425,1.05425,0,0,1-.11811.07886C78.73785,93.4593,78.13983,94.09614,77.47638,94.64393Z"/><path class="cls-2" d="M79.10614,93.87367a4.77934,4.77934,0,0,1,.61157-.42035C79.67144,93.21077,79.44275,93.57972,79.10614,93.87367Z"/><path class="cls-2" d="M69.66943,97.16438c.38763-.02277.03693-.56085.29242-.474C70.17535,96.07032,67.84808,98.078,69.66943,97.16438Z"/><polygon class="cls-2" points="78.73 95.48 78.217 95.19 78.02 95.76 78.73 95.48"/><path class="cls-2" d="M72.80243,98.07289l1.2492-.40344c-.0534-.06824.07733-.18024.24689-.2967C73.55749,97.68379,72.71551,97.949,72.80243,98.07289Z"/><path class="cls-2" d="M74.29852,97.37275a2.9669,2.9669,0,0,0,.91663-.508C75.01947,96.97773,74.577,97.17762,74.29852,97.37275Z"/><polygon class="cls-2" points="77.23 96.477 76.84 96.573 76.01 96.988 77.23 96.477"/><path class="cls-2" d="M60.62719,104.43831l-.69238,1.26257c.059.21759.36658-.04492.61218-.52344C60.64239,104.82685,60.88842,104.351,60.62719,104.43831Z"/><path class="cls-2" d="M64.10333,102.23488a1.2259,1.2259,0,0,1-.37952-.07752.46542.46542,0,0,0-.28582-.06293l.3753.55072C63.81976,102.4015,63.99157,102.37294,64.10333,102.23488Z"/><path class="cls-2" d="M61.96563,105.16914c.06134.21527-.76892,1.99445.22663.475C62.13354,105.42756,62.82763,104.16334,61.96563,105.16914Z"/><polygon class="cls-2" points="48.665 110.175 48.878 110.471 49.688 109.852 48.665 110.175"/><path class="cls-2" d="M33.70465,101.54927c1.59863.83185.62158-.44348,2.03448.37164.47241-.09131-1.154-.6618-.67834-.71741C33.9577,101.1125,33.50055,100.72572,33.70465,101.54927Z"/><path class="cls-2" d="M35.06079,101.2035a5.55668,5.55668,0,0,0,.56592.03186A2.52411,2.52411,0,0,0,35.06079,101.2035Z"/><polygon class="cls-2" points="100.524 49.686 100.365 50.732 100.673 50.047 100.524 49.686"/><path class="cls-2" d="M101.38134,51.66444l-.6361.25665.6203.62458C101.32428,52.30745,101.2442,51.848,101.38134,51.66444Z"/><path class="cls-2" d="M.18927,45.16371l.14148.10919c.19439-.1554.24762-.42188.35589-.956Z"/><polygon class="cls-2" points="5.084 30.23 4.955 30.468 5.705 30.263 5.084 30.23"/><path class="cls-2" d="M11.44818,18.60261c-.34711.42078-.62885,1.0141-.97589,1.4361C11.10315,19.01991,12.10418,18.94746,11.44818,18.60261Z"/><circle class="cls-3" cx="28.12093" cy="52.87312" r="7.5"/><circle class="cls-3" cx="78.12093" cy="52.87312" r="7.5"/><circle class="cls-3" cx="53.12093" cy="52.87312" r="7.5"/></g></g></svg>