<svg xmlns="http://www.w3.org/2000/svg" viewBox="0 0 104.16942 117.48158"><defs><style>.cls-1{fill:#1d1d1b;}.cls-2{fill:#6dc7c2;}.cls-3{fill:#5ac0ba;}</style></defs><title>Paused_01</title><g id="Layer_2" data-name="Layer 2"><g id="Layer_1-2" data-name="Layer 1"><path class="cls-1" d="M103.12092,52.54569a50,50,0,1,0-60.06738,48.98584l4.34289,6.32794,5.72449,8.34107,5.72443-8.34107,4.34289-6.32788A50.01724,50.01724,0,0,0,103.12092,52.54569Z"/><path class="cls-2" d="M100.66942,52.91175c.058-.46264-.36859-.29675-.44062-.36608C100.28587,53.31294,100.77922,52.89454,100.66942,52.91175Z"/><path class="cls-2" d="M100.94078,60.67323l-.15051-.16461a9.14244,9.14244,0,0,1,.21356,1.2041A7.55053,7.55053,0,0,0,100.94078,60.67323Z"/><path class="cls-2" d="M99.16154,67.72554c.86957-.44941.75446-2.53656,1.21424-3.749l.20508-.17187-.43177-.7c-.14264.77014-.17407,1.69323-.34948,2.524A9.00733,9.00733,0,0,1,99.16154,67.72554Z"/><path class="cls-2" d="M96.3759,70.75758c.34534-.10626-.09229.84479.41742-.77686a1.37812,1.37812,0,0,1-.12641.12049C96.61253,70.24318,96.53111,70.43635,96.3759,70.75758Z"/><path class="cls-2" d="M96.66691,70.10121c.26673-.6922-.40307.36053,0,0Z"/><path class="cls-2" d="M95.42107,73.30427l.22674-.97626c-.23767.11469-.67578.86255-.63275.52637C94.6768,73.79573,94.91466,73.69307,95.42107,73.30427Z"/><path class="cls-2" d="M95.454,74.36885l.14362-.50342C95.49449,73.91456,95.41112,74.02284,95.454,74.36885Z"/><path class="cls-2" d="M95.90074,72.80543l-.3031,1.06c.169-.07489.38422.01257.15906-.47827C95.90526,73.55946,95.823,73.27772,95.90074,72.80543Z"/><path class="cls-2" d="M96.25731,72.29493c.35235-.44616.71979-1.07672.56213-.05163C97.46208,70.43873,96.8867,70.51374,96.25731,72.29493Z"/><path class="cls-2" d="M99.74846,68.31636l.43182-.66919-.02643-.70673C100.16594,67.29383,99.52171,68.29133,99.74846,68.31636Z"/><path class="cls-2" d="M92.06731,78.39656c.09356.13623.51269-.05426.71521-.011l.242-.709C92.73674,77.93666,92.28038,78.48036,92.06731,78.39656Z"/><path class="cls-2" d="M92.78252,78.38557l-.3667,1.07C92.96391,78.64357,92.956,78.42476,92.78252,78.38557Z"/><polygon class="cls-2" points="96.075 74.892 96.426 73.033 95.919 75.209 96.075 74.892"/><polygon class="cls-2" points="89.632 81.707 89.723 81.004 89.484 82.201 89.632 81.707"/><path class="cls-2" d="M87.90153,83.81453c.08344-.52845-.77679.12774-.59295-.34528a7.25884,7.25884,0,0,0-.91309,1.78894A4.47823,4.47823,0,0,1,87.90153,83.81453Z"/><path class="cls-2" d="M85.928,86.14589a6.93654,6.93654,0,0,0,.46747-.8877A3.6635,3.6635,0,0,0,85.928,86.14589Z"/><path class="cls-2" d="M91.24254,80.90974a1.228,1.228,0,0,0-.8631.42163l.59766-.08185Z"/><path class="cls-2" d="M90.99718,81.24574l-.02008.00378c-.29126.36518-.49329.61853-.5799.727C90.473,81.88435,90.65349,81.66438,90.99718,81.24574Z"/><path class="cls-2" d="M91.30968,80.82441l-.06714.08533C91.30125,80.90187,91.32774,80.89021,91.30968,80.82441Z"/><path class="cls-2" d="M94.32756,77.24818c-.14105.66815-.66138,1.97046.35882,1.03931C94.68974,77.73561,94.1096,78.26356,94.32756,77.24818Z"/><path class="cls-2" d="M92.06547,80.71174c.25769-.29706.53968-.57824.77918-.88983-.10553-.04394-.35321.04065-.28015-.29755C92.43065,79.93946,92.231,80.31227,92.06547,80.71174Z"/><polygon class="cls-2" points="91.826 81.251 92.065 80.712 91.773 81.038 91.826 81.251"/><path class="cls-2" d="M87.602,85.02089a3.85957,3.85957,0,0,1-.99969,1.35748,8.02594,8.02594,0,0,0,1.48535-1.36023C88.05144,84.85743,88.06493,84.48164,87.602,85.02089Z"/><path class="cls-2" d="M89.33922,83.26472l-.05609.09876C89.35655,83.33589,89.40239,83.30244,89.33922,83.26472Z"/><polygon class="cls-2" points="81.984 90.387 82.109 90.387 82.082 90.314 81.984 90.387"/><path class="cls-2" d="M88.22093,84.98872a1.683,1.683,0,0,0,.613-.91309,11.40548,11.40548,0,0,1-.74634.94251C88.10417,85.09028,88.12822,85.12336,88.22093,84.98872Z"/><path class="cls-2" d="M84.83574,87.44886a8.17605,8.17605,0,0,0,.78656-.4187C85.344,87.10633,84.82707,87.304,84.83574,87.44886Z"/><path class="cls-2" d="M89.08073,83.41163l.03546-.06781C88.9373,83.40541,88.985,83.41951,89.08073,83.41163Z"/><path class="cls-2" d="M89.08073,83.41163a3.3952,3.3952,0,0,0-.24676.664,6.01922,6.01922,0,0,0,.44916-.71215A.74711.74711,0,0,1,89.08073,83.41163Z"/><path class="cls-2" d="M82.07432,93.73066c-.077-.19091.12732-.54193.48572-.906a3.5272,3.5272,0,0,1,1.44983-.97547c.7359-.96441-.6991-1.48822-1.90137-1.462.07666.15906.179.28424-.59588,1.19714.44317-.07379,2.34393-1.21905,1.78717-.31714-1.11633,1.13031-1.074.71949-1.83173.9643.83283.03784-1.25311,1.69745-.57007,2.1145l1.02539-.99048C82.01109,93.43257,81.689,93.8639,82.07432,93.73066Z"/><path class="cls-2" d="M83.85405,89.0514l.34021-.332a5.60357,5.60357,0,0,1-1.62116.6004c-.49023.63685-.52984.85669-.49157.99463l1.86151-1.409Z"/><path class="cls-2" d="M85.75139,87.26741c.028.56579-.6933,1.49786.136,1.35656,1.01557-.99792.4795-.94635.96216-1.65734-1.57776,1.63177.30524-.61683-1.05182.32476a10.05855,10.05855,0,0,1,.80451-.913c-.33118.2395-.65949.45923-.98.65179l.05572-.01562.00666-.00824.00311.00641c.107-.027.15277-.02521.05206.02679a.16394.16394,0,0,1-.02789.03839.4094.4094,0,0,1,.03778.18775c-.53388.38092-.15064-.01191-.03778-.18775a.28892.28892,0,0,0-.02417-.06518l-.00977.00183c-.49359.56378-.9707,1.15222-1.48376,1.70483A10.81885,10.81885,0,0,0,85.75139,87.26741Z"/><path class="cls-2" d="M94.80321,79.83607a.10541.10541,0,0,1-.12384.00855C94.64238,80.00184,94.64146,80.07075,94.80321,79.83607Z"/><path class="cls-2" d="M94.07133,80.50666a1.36332,1.36332,0,0,1,.30512-.83416c.36377-.33319.17157.115.30292.17212.08441-.34705.36218-1.15076-.36878-.38684l-.03882.17108c-.597.73425-1.76538,1.36267-1.718,1.19507A2.93185,2.93185,0,0,0,94.07133,80.50666Z"/><path class="cls-2" d="M90.09849,84.27064l-1.12481,1.56854.93268-.4804-.2005-.11213C90.5056,84.48805,90.13866,84.48384,90.09849,84.27064Z"/><polygon class="cls-2" points="81.688 90.349 81.604 89.834 81.15 91.018 81.688 90.349"/><polygon class="cls-2" points="79.747 91.794 79.598 91.417 79.202 91.968 79.747 91.794"/><path class="cls-2" d="M5.03575,31.79731l.15894-.59088A3.62781,3.62781,0,0,0,5.03575,31.79731Z"/><path class="cls-2" d="M3.46843,35.8838l.14813.16248C3.58378,35.82246,3.53752,35.71858,3.46843,35.8838Z"/><path class="cls-2" d="M36.78587,97.13289c-.31421-.30341-.62665-.65961-.86786-.88331-.23144-.24877-.39721-.35894-.43786-.133l.06073.50177A3.912,3.912,0,0,1,36.78587,97.13289Z"/><path class="cls-2" d="M6.2556,70.23921l-.0285.2746c.217.13409.42028.2597.60461.37365C6.65776,70.69166,6.46153,70.4709,6.2556,70.23921Z"/><path class="cls-2" d="M4.34782,70.30214l-.08459-1.18573A6.41264,6.41264,0,0,0,4.34782,70.30214Z"/><path class="cls-2" d="M18.82262,12.40046l.24462-.817C18.23662,12.33815,18.748,12.17585,18.82262,12.40046Z"/><path class="cls-2" d="M57.56987,105.51991a9.56689,9.56689,0,0,0-1.23975,1.34393C57.02989,106.28419,57.73717,105.91468,57.56987,105.51991Z"/><path class="cls-2" d="M8.69084,35.08418c.04236-.34558.01-.515-.08307-.54181C8.557,34.89827,8.56706,35.113,8.69084,35.08418Z"/><path class="cls-2" d="M55.146,108.59187c.10809-.08081.19727-.17181.301-.2583a9.12293,9.12293,0,0,1,.88311-1.46973A3.09418,3.09418,0,0,0,55.146,108.59187Z"/><path class="cls-2" d="M95.71745,21.976c.02191.06195.05988.12836.07538.18756C95.852,22.14485,95.80247,22.07283,95.71745,21.976Z"/><path class="cls-2" d="M100.69365,45.82856c-.06122-.22192-.11792-.58972-.17652-.93579A3.60227,3.60227,0,0,0,100.69365,45.82856Z"/><path class="cls-2" d="M71.11967,96.24531c.4563-.23456.05573-.07733,0,0Z"/><path class="cls-2" d="M74.13017,96.78407a.28972.28972,0,0,0-.10376.27692A.37068.37068,0,0,1,74.13017,96.78407Z"/><path class="cls-2" d="M54.2877,114.61439l-.02734.03723C54.37877,114.62935,54.3582,114.63063,54.2877,114.61439Z"/><path class="cls-2" d="M71.90092,96.113a4.74906,4.74906,0,0,0-.64947.14837A4.88844,4.88844,0,0,0,71.90092,96.113Z"/><path class="cls-2" d="M71.72508,95.96681l.42536-.14331C72.1801,95.73121,72.11,95.7126,71.72508,95.96681Z"/><path class="cls-2" d="M70.47758,96.55787a5.72467,5.72467,0,0,1,.77387-.29651c-.10315.014-.15088.00849-.13178-.016Z"/><path class="cls-2" d="M56.26524,1.38838c.03583.0155.07758.02643.1164.04706C56.95305,1.28413,56.70537,1.3003,56.26524,1.38838Z"/><path class="cls-2" d="M22.3549,94.48054c.02326.01288.04077.01239.06275.023l-.05616-.0639Z"/><path class="cls-2" d="M20.57024,93.476a2.35936,2.35936,0,0,1,1.79125.96363l.23035-1.4137Q21.59722,93.26372,20.57024,93.476Z"/><path class="cls-2" d="M10.03361,22.59315a10.37955,10.37955,0,0,0-1.12927.97107,7.97149,7.97149,0,0,1,.71021-1.92944c.14306-.348.06445-.37976-.57154.01526.247.23748.165.64379-.0755,1.13476a14.28311,14.28311,0,0,1-.90545,1.73895c-.70307,1.22162-1.4021,2.44581-.85743,2.855a9.3998,9.3998,0,0,0-.68322.70466c.12994-.23816.07831-.315.20746-.55042-1.38331,1.36572.27514,1.68372-.90973,3.70026-.44782.69171-.87769,1.13336-.78339.56408-.1778.58893-.23492,1.2248-.35535,1.82953-.20709.48828-.38318.28314-.176-.20605l-.85694,2.65759-.03088-.0321c.05737.44043.07,1.38159.12323,1.84906-.36206.62335-.05029-.38117-.25726-.25647l-.06537,1.57019c-.496.51519-.50885-.80622-.19208-1.82788-1.66559,1.02978.008,1.324-1.53369,4.15808L1.888,40.07478a3.12621,3.12621,0,0,0-.98181,1.44293c-.233.58649-.35382,1.28717-.7312,2.083.15436-.17908.58161-.96405.9773-1.47.4093-.50519.80688-.73041.79724.12121a3.78284,3.78284,0,0,0-.18323,1.99475c-.47791-.06933-.49548.82856-.63391,1.92762l-.6236-.15283c-.00506,1.22052.33649,1.15826.59156,1.88793A2.03589,2.03589,0,0,1,.02708,49.77778c-.20971,2.15375.86756-1.44281.86109,1.09845-.39044,1.7674.00879,3.03449.46863,5.1145-.164,1.25043-.40009-.18927-.56269.26667.19068.35577.36316.70947.56842,1.05694.02289.26673-.14447.196-.229.15949.31787.89691.64624.017,1.00812,1.42114.761.26666-.69336,3.10382.56848,4.69946-.08093.46924-.42945-.12408-.64209.05939a12.45509,12.45509,0,0,0,2.07867,3.71l.11652,1.75257c.09381-1.35285,1.06274.02337,1.99237,1.1228.03876-.47748.12268-.89679.14215-1.164a21.65592,21.65592,0,0,0,1.10236,1.87835c.00189.278-.28376.16333-.6684-.0661.10571.11695.208.22669.29456.309.07782.80274-.41456.58033-.96326.19129.014-.29474.03766-.589.06409-.874-.5802-.35419-1.15772-.69239-1.46528-.45984a3.67043,3.67043,0,0,1,.42786.62164c-.15375-.09564-.27753-.14819-.31171-.0639-.034.09381.18842.261.48023.53869l-.4671.73395.31042.00916c.246.95825.46381,1.9392.74512,2.89971a46.2592,46.2592,0,0,1,5.34479,5.24408c-.86866-.395-.80921.31818-1.3498.62238a2.43638,2.43638,0,0,0-.88195-1.6247c-.25251-.28283-.55225-.56958-.80439-.90258a5.85123,5.85123,0,0,1-.64123-1.10382c.35675.83416.00812.80359-.18988.64691A29.63649,29.63649,0,0,0,9.52476,80.0312c-.46582.21161.03016.75855.29145,1.56152.26184-.54394.67791-.12732,1.2171.47455a22.26077,22.26077,0,0,0,1.66693,1.82691c-.21808.269-.67188.23956-1.53479-1.03553.44324,1.80268,2.21436,1.04944,2.77093,2.69629-.254-.27148-.35107-.4497-.56665-.4627.786.473,2.03583,2.18756,1.48273,2.01983l-.25427-.27276c.39227.4812.9046,1.074,1.46558,1.68646.59185.58215,1.2644,1.15234,1.892,1.66858a12.15725,12.15725,0,0,0,1.73572,1.23327c.52374.25354.92883.36322,1.13538.25586a3.89738,3.89738,0,0,1-1.13672.62494q1.332.14714,2.61767.25446a23.51563,23.51563,0,0,0,2.56079.12506c-.74493.37482-.50592,2.64471-2.45092,1.81561a5.80888,5.80888,0,0,0,2.16211,1.41736c-.28424-.31439-.24366-1.43176.24621-1.18549a10.27263,10.27263,0,0,0,1.83563,2.52271c-.45-.42749.7287-1.08411,1.52442-.60419-.21387.07788-.48731,1.02259-.8537.95661l2.60913.15332c-.605-.10181-.5332.79437-.20294,1.338-.14588-.26556,1.87646.87775,2.50537,1.04059l-.818-.64905c2.40417,1.25244,3.01092-.33423,5.43414.53583a.872.872,0,0,0,.02038,1.66906c.389-.185,1.23914-.57824,2.27332-1.00067a11.74142,11.74142,0,0,1,1.64868-.56537,4.64957,4.64957,0,0,1,1.94934-.13769c.15448.15186.29047.29871.418.44366l.6015.054c.13153.123.25708.2605.3891.39453l.80957.84833c-.387-.181-.89032-.42578-1.3927-.62061-.06366-.02337-.124-.05072-.19024-.06854l-.27021.05328-.52612.1153c-.34253.08075-.66547.16925-.95294.26563a21.98167,21.98167,0,0,1-3.51294.79431c.89831.52643.16168.44989,1.64477.799.44678.43036-.93011.24933-1.37579.15515l1.712.53314.85589.26532.136.08277c.10589-.29065.451-.49891.67633-.34382.13324.05762.25116.09913.413.17707.20771.14453.37769.20648.4748.10052-.10279-.09845-.23938-.24615-.31446-.30426l-.2019-.14026q-.196-.13174-.36853-.22918a4.62222,4.62222,0,0,0-.46918.05975l-.18457.045a.49812.49812,0,0,1-.1806.00006l-.24445-.01617c.00171-.17249.16657-.34064.44629-.48566a2.01378,2.01378,0,0,1,.80139-.43078c.09241-.02558.19123-.048.29578-.06684l.16107-.02563a.409.409,0,0,1,.118.05316,2.91966,2.91966,0,0,1,.48267.34637,5.81331,5.81331,0,0,1,1.04,1.27637c.1253.65534-1.24536.30023-1.40192.46838a5.575,5.575,0,0,1,1.64447,1.905l-.87311-.637c.54834,1.24591,1.96991,1.29553,2.35047,2.98389.27844.48163.22357,1.85565.606,1.70959.12049-1.18011,1.977-2.66876,2.79328-2.4975a24.331,24.331,0,0,1,1.08239,3.54285c.01313.5506-.42791.54132-.962.37769-.49042-.09992-.98163-.21979-.97455.24694a.60126.60126,0,0,1,.40759.09369,3.30989,3.30989,0,0,1,.48114.34772c.329.75659-.62719.09149.46436,1.53528.58044-.35889,1.97424,2.97845.79651.14233.98761,1.09473.90283,1.56311,2.0191,3.13715-.1615-.67432.25311-.85651.644-.95068a20.554,20.554,0,0,1,.84674-2.33722.39479.39479,0,0,0,.32007.42071c1.4538-2.00964,2.57624-3.09814,3.89173-5.00458.25952-.08648,1.07055-.91516,1.03723-.34808a3.329,3.329,0,0,1,.47919-1.349c1.28552-.83148-.84546,1.39417.3479.90674-.27448-.29993.618-1.86609,1.00219-2.86346-.68542-.0824-1.45617,1.91467-1.84173,2.91308-.69849-.47345-.40125-2.4682.67712-4.72894.93994-1.73981.93207-.39429,1.02619-.74371a9.70649,9.70649,0,0,0,.66363-1.0019c.17053-.29974.36713-.67254.49732-.96978.13946-.3108.25225-.60389.35449-.8891a2.69234,2.69234,0,0,1,.574-.42951,7.32024,7.32024,0,0,1,.64044-.38165c.11872-.0622.24445-.12323.37977-.18274l.34545-.15027a4.746,4.746,0,0,1,1.65906-.31073c1.29254.23145.34363,1.0163.70215,1.3263a5.77276,5.77276,0,0,1-1.91974.386,8.34288,8.34288,0,0,0-1.77.20838l1.5426-.12439c-.4671.37182-1.58129.48163-1.86022,1.09588a1.93384,1.93384,0,0,0,.42181-.361l.06219-.06543.10321-.01324.21644-.03162.47015-.08227c.64258-.12128,1.4682-.3172,2.33905-.5257a26.77974,26.77974,0,0,0,2.65332-.75684,22.58213,22.58213,0,0,1,2.42682-.62146c.41443-.34466,1.132-.894.67438-.919-.26587.1402-.52448.3-.79743.42468-.47265-.077-.11438-.324.18292-.6026.303-.26715.57727-.49.02735-.35577a10.69632,10.69632,0,0,1,3.56817-2.21534l.55317.395c-.11-.12982-1.119.19806-1.47821.53156.52984-.46625,2.65533-.45862,2.95141-1.51624l-1.22394.18939a14.66778,14.66778,0,0,1,3.12262-2.719c-.86975-.14972-.24182.25073-1.46325.20367,1.22674.32941-3.22651,1.73114-1.53315,1.857a2.74331,2.74331,0,0,0-1.55633.20807,4.15419,4.15419,0,0,1-1.75189.275c.12237.16693.60168.1557-.53485.5517a1.21725,1.21725,0,0,1-.16932.27032l-.0802.01917.07013-.00507c-.03564.04907-.03735.0567.02588-.00238a1.44487,1.44487,0,0,1,.68622.0315c-.36163.66107-2.132,1.4779-2.69354,1.8623-.72113.14661.20678-.31634-.24292-.38971l-.807.65808c-.24646-.39056-2.03949-.08459-.53265-.88391l-1.43311.475a7.12287,7.12287,0,0,0-2.80963.56451,4.89348,4.89348,0,0,0-.86218.24957c-.341.124-.63623.25379-.85535.35614-.43738.20472-.60193.30842-.1651.018-.77929.03546-1.00268.84637-1.38061,1.41022l-.52484.88769-.30024.56043-.10565-.0445c-1.44214,2.00122-2.25964,4.60663-4.52337,6.47266-.18824.37433-.37513.758-.62635,1.18219-.12561.21216-.26733.43439-.43329.67065a1.5359,1.5359,0,0,1-.2622.29315,2.77636,2.77636,0,0,1-.3114-.233c-.04206.18122-.23218.2865-.35267.3498-.12628.07165-.20056.12707-.2146.50525a4.86425,4.86425,0,0,0-.12561-.48926c-.08038-.48889-.1344-.51392-.26818-.5965a1.24335,1.24335,0,0,1-.21112-.14075.50414.50414,0,0,1-.089-.09906c-.11524-.16931-.24494-.37317-.33551-.53936l-.45838.22863a27.45588,27.45588,0,0,0-2.59979-3.22448l-.31378.33484c-1.08509-.93042-1.74634-3.108-3.02033-4.88312.22541.02551.50189.50775.63843.88959a5.77012,5.77012,0,0,0-1.10919-2.18818l-.4914-.67486-.25109-.327c-.09278-.09521-.26777-.07129-.3974-.11139L42.5374,99.0113l-.40045-.05847-.24207-.01843L41.4135,98.894c-.31916-.02972-.6341-.06652-.94007-.11993a3.47388,3.47388,0,0,1-1.66327-.65369,2.29119,2.29119,0,0,1-1.28985-.45153.44574.44574,0,0,0,.13977.02331c-.05286-.02392-.13355-.05273-.21686-.0805-.20972-.15387-.421-.3216-.65735-.47882a3.18856,3.18856,0,0,0,.53949.43975,12.54145,12.54145,0,0,0-1.7088-.4l-.07568-.55432-.14057-.04785c-.50634-.42066-.55157.00341-.378.47729a4.16861,4.16861,0,0,0-.89929-.0827c-.15918-.92175-1.6778-.45966-1.968-1.49414-.5816.19555-2.99353-1.28913-3.741-.71613.03619-.10656-.10724-.24554.20819-.07995a6.12958,6.12958,0,0,0-1.83527-1.07856l.07465-.68621-1.79242-.2052c-.60279-.84949-.79718-1.238.2716-1.09333-2.29077-.78338-1.63458-.92181-3.65472-1.58429l.3302-.24316c-.58368-.39771-1.74744-.80493-1.84332-1.34-.32019-.82721-1.76722-2.1311-3.21277-3.87481L15.8134,83.26277c-.3429-.48017-.68927-.96521-1.03162-1.44458a13.95242,13.95242,0,0,1-1.67529-2.88129c-.55865,1.29682-.55817-1.861-1.4093-1.51507.10907-.34229-.05426-.8902.49859-.46613a7.25706,7.25706,0,0,1-1.17816-2.1673,3.38268,3.38268,0,0,0-1.23431-1.62066c.14215-.32569.56653.21222.6178-.043-.12494-.11908-.52649-.46411-.44361-.73535.07215-.25989.313.18237.58338.40625C9.657,70.948,8.83226,71.05952,8.02318,71.22725a2.39031,2.39031,0,0,0-1.07965-2.15851c.13073-.44934.20251-1.12757.6867.092-.17029-.73188-1.03467-4.38349-1.59826-4.31647a2.18254,2.18254,0,0,0-.29474-1.19751c-.15674-.818-.24207-1.26324-.32666-1.70459-.09406-.43915-.19532-.87231-.31476-1.68146l-.04346.467c-.84631-.5191-.35028-1.33239-.61749-2.631l.08362.02869a8.04514,8.04514,0,0,0-.04761-2.17169,5.00668,5.00668,0,0,1,.11938-2.1391l-.472.176c-.51288-.12408-.41986-.80542-.18591-1.655a6.12029,6.12029,0,0,0,.48541-2.73834l-.30518.61389c-.15228-.4859.23188-1.13757.674-1.761.22431-.3078.45294-.62158.65753-.9024a2.57052,2.57052,0,0,0,.46546-.76587c.12-.1889.09436.33289.11719.61774.9729-2.31659-.57593-.382-.44349-2.21009.3852-.27887.78766.55335,1.03174-.63354a1.64532,1.64532,0,0,0,.07862-.82782,9.64011,9.64011,0,0,1-.04493-1.4,5.595,5.595,0,0,1,.66565-2.92437c-.34185.28277-.68609.57556-.66253-.30683a3.73578,3.73578,0,0,1,.39093-1.05566c.2182-.35889.45245-.74426.68268-1.1228a3.12726,3.12726,0,0,0,.612-2.2312c.12317-.1297.208-.16266.27045-.14478A11.50915,11.50915,0,0,1,9.154,32.525a5.0648,5.0648,0,0,0,.33679-1.82154c.4718-.02533.8291-.4068,1.12231-.95807a15.75939,15.75939,0,0,0,.90723-1.89087c.56055-1.341,1.06073-2.61724,1.68628-2.1773l1.77008-2.50647.07586.15948a6.88032,6.88032,0,0,0,1.64789-2.98974c.38587-.26978.267.07275.30194.15344a15.70152,15.70152,0,0,0,2.09729-2.0874,13.179,13.179,0,0,0,1.48993-2.24341l.51612.20044a2.40873,2.40873,0,0,1,.71185-.66028c.18994-.13532.40112-.29285.6449-.44714.25287-.1424.52679-.29657.81518-.45893a20.702,20.702,0,0,0,1.78284-1.129c.60107-.41467,1.13934-.939,1.68018-1.39569a.41974.41974,0,0,1-.1413.3451,9.74638,9.74638,0,0,1,2.12817-1.35974,16.01229,16.01229,0,0,1,2.37537-1.00019C32.6588,9.723,33.89134,9.168,34.06077,8.08436c.57789-.42315,1.19635-.76666,1.80158-1.1582-2.631.81232.102-.871-1.073-.76062,1.00391-.4801,2.84509-.46161,1.6181.0863l-.22717-.013c-.13782,1.04279,3.31378-.86859,3.45813-.13061,5.1211-1.63214,10.43421-1.51947,15.33673-1.33252l-.55005-.7605,1.74762.13061c.44879.193.57184.60175-.6582.50959.62018.44665,2.09259-.24341,2.15143-.39966,1.20221.24737.93078.48462.47522.575-.46155.13226-1.12457.26074-.75708.28217a6.62322,6.62322,0,0,1,1.0003.03448l-.21393-.11951a3.99185,3.99185,0,0,1,2.4231-.214c.91144.28693.405.51795.76581.60138-.0108.05072.10748.09345.5553.10535a14.355,14.355,0,0,1,2.10815.5177l-.7193-.78216c1.00409-.03425,2.00031.547,1.16284-.34412a4.74589,4.74589,0,0,0,1.75483.954c.40228.14783.84545.28888,1.30743.42523.44757.18262.91388.36066,1.37787.53174.93146.33325,1.84607.66052,2.58154.9237a4.63423,4.63423,0,0,1,1.42255.73627,8.74456,8.74456,0,0,1,2.02826.57977,10.47428,10.47428,0,0,1,2.05468,1.06757c-.29632-.321-.20233-1.02289,1.01563-.18964-.56506.44031-.07.91181.6217,1.4469.68683.54261,1.60938,1.11335,1.771,1.8888-.46491-1.14466,3.34936,2.3092,2.59961.61487.90307.80975-.24829.44055.28375,1.23077a15.38343,15.38343,0,0,1,3.49487,3.04352c1.091,1.24573,2.0708,2.68432,3.33063,3.9046.16766-.06482-.00116-.69574.678-.27136l.41974,2.03186c.47876.49573,1.20117-.08826,1.46655,1.28338.01434-.22735.03461-.57226.36243-.22839a11.05991,11.05991,0,0,1,.61566,1.15625l.60626,1.16388c.41687.76849.8581,1.5238,1.31574,2.2738q.58979,1.178,1.183,2.36286c.37933.79663.8645,1.55188,1.16528,2.3872a22.72462,22.72462,0,0,1,2.15082,10.32581c.19507-.98743.32153-.37585.443.3374.00971-.47778.43049-.05932.65192-.18823l-.21771,2.99554c.684.47522.2005,3.13373.84851,3.41669l-.16119-.93225c.80993,1.23505,1.56793-1.85309,2.53076-1.76758a2.09225,2.09225,0,0,1-.2594-1.24072,14.28794,14.28794,0,0,1,.10736-1.5495,4.82168,4.82168,0,0,0-.647-3.44269c.07355-.56042.39441.38422.54841.062a3.934,3.934,0,0,1-.97022-2.58691l.13721.12549c-.2652-.931-.46582-1.73468-.63135-2.48645-.21619-.736-.4256-1.411-.61194-2.11218a30.2512,30.2512,0,0,0-1.57458-4.92l-.28815.49329a5.368,5.368,0,0,1-.3869-1.56433c-1.10858-.64667,1.1076,2.3919-.03424,1.84674.1485-.74426-.49475-2.2782-1.27436-3.67212-.8117-1.37872-1.5838-2.71784-1.347-3.38086-.75909-1.23956-.22156.65259-.99982-.56268l.01532-.475-.53149-.07416c-.51178-.79095-.501-1.39514-.32172-1.57464a5.69929,5.69929,0,0,0,.61792.67382c-.47687-1.19555-2.1654-2.757-2.38855-3.11615a12.33388,12.33388,0,0,1,.72894,1.21155c-.61718-.77844-1.38281-1.49963-2.10253-2.29223-.73981-.77381-1.43952-1.62214-2.22907-2.37482-.811-.731-1.62726-1.451-2.44122-2.11853-.41114-.32874-.8039-.66553-1.22675-.94489-.43377-.26611-.86487-.51446-1.29138-.73968l.09314.34912a7.95871,7.95871,0,0,1-2.14557-1.53394,9.15046,9.15046,0,0,0-.78351-.73095,14.14863,14.14863,0,0,0-1.53869-.92017l.127.01483A6.83566,6.83566,0,0,1,78.352,7.82631c.81775.18951-1.04577-1.228-.00231-.93421-3.01551-1.05279-1.57166-.39722-3.77765-.558l-.27234-.5423a6.9896,6.9896,0,0,1-.91541-.0033,13.5335,13.5335,0,0,1-1.45813-.35485c1.3288.14843-.7362-.87177.78461-.76172a9.13247,9.13247,0,0,0-3.66931-1.38861c-1.00037-.20655-1.80292-.21936-2.387-1.00678-1.74334.61121,2.63465,1.26593,1.74421,1.26733.57672.51459-1.4256.4079-2.38929.06757a4.3432,4.3432,0,0,1-1.40869-1.0459,5.88939,5.88939,0,0,0-1.03534-.71893,6.33712,6.33712,0,0,0-1.63214-.4455c.26392.04541.29547-.02832.55921.01667-.95868-.41211-2.00367.05145-3.16962-.55506-.75018.48163-1.5929-.21148-1.86078.5727a17.50565,17.50565,0,0,1,2.44562.09515c-1.40735-.06159-2.75885.84131-4.97888.27789a4.52591,4.52591,0,0,1,1.33642-.42c-.6546-.26691-1.28686.0899-1.96869-.184C54.5172.438,57.27684,1.14405,58.82408.69508c-.69257-.44464-2.8847.40448-2.0661-.42847A2.24194,2.24194,0,0,1,54.76744.611,3.76759,3.76759,0,0,0,52.257.82338l.11286-.48047a5.34358,5.34358,0,0,1-1.41108.35693l.94581-.6629c-1.46186.60376-2.903-.32831-4.32135.062,2.997-.20074.723.52618,2.00494.79987a6.226,6.226,0,0,1-1.91748.19274A2.66082,2.66082,0,0,1,46.63335.81221C46.01475.541,45.31316.22877,43.27147.65883c.54907-.153,2.13476-.03937,1.30255.31036A11.45314,11.45314,0,0,1,42.19359.8293c-2.64789.77765.51275.37231-.55664.94622-1.0304-.33288-1.24579.56208-2.33631,1.03425l-.13714-.46283c-1.54938.23187-1.67261.53833-1.7508.83557-.08325.28912-.1264.55475-1.48205.85119l.88678-1.03576-1.31079.66259.09845-.6203A9.388,9.388,0,0,1,32.248,4.48286c.46039.156.16376.8913-1.04919,1.49207-.9599.14434.27362-.64118-1.44251.26275a1.45991,1.45991,0,0,1,1.48761-.979c.01184-.18024.26538-.46356.28326-.64429A10.82331,10.82331,0,0,0,28.54753,5.9723a3.0811,3.0811,0,0,1,.74481-.23492l-1.11865.91845L27.13194,7.67738c-.46979.07306-.244-.23413-.01452-.5398-.4657.34333-.69147.73951-1.38617,1.21039-.01984-.44659-.28046-.76257.66095-1.54956L24.29338,8.58394a3.71367,3.71367,0,0,0-.78967.11657c-.29084.07459-.528.11334-.426-.05249a8.81024,8.81024,0,0,0-1.99988,1.81183,14.77734,14.77734,0,0,1-2.24743,2.0509,1.75142,1.75142,0,0,1-.41083.64923c-.72205.5954-1.47321,1.08613-2.20587,1.66785a7.56391,7.56391,0,0,0-1.90918,2.34186l-1.37757.4715c-1.05157,1.39813,1.8111-.67987.07624,1.62921-1.06745,1.74786-.92945.2268-1.52033.67743a14.38033,14.38033,0,0,1-.729,1.97473,7.33265,7.33265,0,0,1-1.591,2.12073A5.965,5.965,0,0,1,10.03361,22.59315ZM1.96434,42.21339c-.03265-.4248-.10761-1.29053.23736-1.52216C2.63145,41.27266,2.25963,41.55446,1.96434,42.21339ZM6.5648,73.39766a1.74656,1.74656,0,0,1-.40045-1.22821A3.61843,3.61843,0,0,1,6.5648,73.39766Zm59.363,25.045a.211.211,0,0,0-.03284.03229C65.03087,98.49665,65.33909,98.49623,65.92778,98.4427Zm1.73352-.301c.146-.12176.11365-.18133.02313-.22131-.07763.15607-.44732.29279-.87958.40674C66.95793,98.4076,67.199,98.41639,67.6613,98.14167ZM61.58293,5.26948l-.31744-.176C62.05693,5.07338,61.81969,5.1642,61.58293,5.26948Z"/><path class="cls-2" d="M4.5684,70.30977a.45171.45171,0,0,1,.19342-.2558C4.637,69.92933,4.54747,69.957,4.5684,70.30977Z"/><path class="cls-2" d="M18.7783,12.55067l.05207-.03992a.207.207,0,0,0-.00775-.11029Z"/><path class="cls-2" d="M48.61467,113.11213a1.78425,1.78425,0,0,1-.30652-.88672c-.0545.025-.078.08686-.05041.20411a1.14318,1.14318,0,0,0,.08233.21966C48.40294,112.76838,48.49913,112.92988,48.61467,113.11213Z"/><path class="cls-2" d="M75.777,93.74952l-.90851.6446a2.35119,2.35119,0,0,1,.94867-.34278C75.74107,93.96443,75.4785,93.92292,75.777,93.74952Z"/><path class="cls-2" d="M85.5977,90.60255c.09546-.15192.28369-.22766.3631-.39386l-.18134-.137C85.237,90.55226,84.94163,90.996,85.5977,90.60255Z"/><path class="cls-2" d="M77.47636,94.64393c.27234.2912.87055-.12085,1.48224-.65533a1.05413,1.05413,0,0,1-.1181.07886C78.73784,93.4593,78.13982,94.09614,77.47636,94.64393Z"/><path class="cls-2" d="M79.10612,93.87367a4.77873,4.77873,0,0,1,.61158-.42035C79.67143,93.21077,79.44273,93.57972,79.10612,93.87367Z"/><path class="cls-2" d="M69.66942,97.16438c.38769-.02277.03692-.56085.29242-.474C70.17534,96.07032,67.84807,98.078,69.66942,97.16438Z"/><polygon class="cls-2" points="78.73 95.48 78.217 95.19 78.02 95.76 78.73 95.48"/><path class="cls-2" d="M72.80241,98.07289l1.24921-.40344c-.05335-.06824.07733-.18024.24689-.2967C73.55748,97.68379,72.7155,97.949,72.80241,98.07289Z"/><path class="cls-2" d="M74.29851,97.37275a2.96683,2.96683,0,0,0,.91662-.508C75.01945,96.97773,74.577,97.17762,74.29851,97.37275Z"/><polygon class="cls-2" points="77.23 96.477 76.84 96.573 76.01 96.988 77.23 96.477"/><path class="cls-2" d="M60.62718,104.43831l-.69238,1.26257c.059.21759.36658-.04492.61218-.52344C60.64238,104.82685,60.88841,104.351,60.62718,104.43831Z"/><path class="cls-2" d="M64.10332,102.23488a1.22583,1.22583,0,0,1-.37952-.07752.46545.46545,0,0,0-.28583-.06293l.37537.55072C63.81975,102.4015,63.99156,102.37294,64.10332,102.23488Z"/><path class="cls-2" d="M61.96562,105.16914c.06134.21527-.76892,1.99445.22662.475C62.13353,105.42756,62.82762,104.16334,61.96562,105.16914Z"/><polygon class="cls-2" points="48.665 110.175 48.878 110.471 49.688 109.852 48.665 110.175"/><path class="cls-2" d="M33.70463,101.54927c1.59864.83185.62159-.44348,2.03449.37164.47241-.09131-1.154-.6618-.67828-.71741C33.95769,101.1125,33.50053,100.72572,33.70463,101.54927Z"/><path class="cls-2" d="M35.06084,101.2035a5.55408,5.55408,0,0,0,.56585.03186A2.5236,2.5236,0,0,0,35.06084,101.2035Z"/><polygon class="cls-2" points="100.524 49.686 100.365 50.732 100.673 50.047 100.524 49.686"/><path class="cls-2" d="M101.38133,51.66444l-.63611.25665.6203.62458C101.32426,52.30745,101.24419,51.848,101.38133,51.66444Z"/><path class="cls-2" d="M.18925,45.16371l.14148.10919c.1944-.1554.24762-.42188.356-.956Z"/><polygon class="cls-2" points="5.084 30.23 4.955 30.468 5.705 30.263 5.084 30.23"/><path class="cls-2" d="M11.44816,18.60261c-.3471.42078-.62884,1.0141-.97589,1.4361C11.10313,19.01991,12.10417,18.94746,11.44816,18.60261Z"/><circle class="cls-3" cx="28.12092" cy="52.87312" r="7.5"/></g></g></svg>