<svg xmlns="http://www.w3.org/2000/svg" viewBox="0 0 104.16942 117.48159"><defs><style>.cls-1{fill:#1d1d1b;}.cls-2{fill:#c66e6e;}</style></defs><title>Question_03</title><g id="Layer_2" data-name="Layer 2"><g id="Layer_1-2" data-name="Layer 1"><path class="cls-1" d="M103.12094,52.5457a50,50,0,1,0-60.06739,48.98584l4.3429,6.32794,5.72449,8.34107,5.72442-8.34107,4.3429-6.32788A50.01724,50.01724,0,0,0,103.12094,52.5457Z"/><path class="cls-2" d="M100.66942,52.91179c.058-.4627-.36859-.29681-.44055-.36608C100.28587,53.313,100.77922,52.89458,100.66942,52.91179Z"/><path class="cls-2" d="M100.94078,60.67324l-.15051-.16461a9.14241,9.14241,0,0,1,.21362,1.2041A7.5598,7.5598,0,0,0,100.94078,60.67324Z"/><path class="cls-2" d="M99.16154,67.72552c.86957-.44935.75446-2.53657,1.21424-3.74894l.20508-.17187-.43171-.7c-.1427.77014-.17413,1.69323-.34948,2.524A9.00968,9.00968,0,0,1,99.16154,67.72552Z"/><path class="cls-2" d="M96.3759,70.75759c.34534-.10629-.09229.84479.41748-.77686a1.36912,1.36912,0,0,1-.12647.12046C96.61253,70.24318,96.53111,70.43639,96.3759,70.75759Z"/><path class="cls-2" d="M96.66691,70.10119c.26673-.69214-.403.36053,0,0Z"/><path class="cls-2" d="M95.42107,73.30431l.22674-.97629c-.23767.11472-.67572.86255-.63269.5264C94.67686,73.79574,94.91466,73.69311,95.42107,73.30431Z"/><path class="cls-2" d="M95.454,74.36889l.14368-.50345C95.49455,73.91457,95.41118,74.02285,95.454,74.36889Z"/><path class="cls-2" d="M95.90074,72.80544l-.303,1.06c.16895-.07486.38422.01257.159-.47827C95.90526,73.55944,95.823,73.27776,95.90074,72.80544Z"/><path class="cls-2" d="M96.25731,72.29491c.35241-.44613.71979-1.07672.56213-.0516C97.46214,70.43874,96.8867,70.51375,96.25731,72.29491Z"/><path class="cls-2" d="M99.74852,68.3164l.43182-.66922-.02649-.70676C100.16594,67.29384,99.52171,68.29134,99.74852,68.3164Z"/><path class="cls-2" d="M92.06731,78.3966c.09362.13617.51269-.05429.71521-.011l.242-.70905C92.73674,77.93667,92.28038,78.4804,92.06731,78.3966Z"/><path class="cls-2" d="M92.78252,78.38561l-.36664,1.06989C92.96391,78.64358,92.956,78.42476,92.78252,78.38561Z"/><polygon class="cls-2" points="96.075 74.892 96.426 73.033 95.919 75.209 96.075 74.892"/><polygon class="cls-2" points="89.632 81.707 89.723 81.004 89.484 82.201 89.632 81.707"/><path class="cls-2" d="M87.90153,83.81457c.08344-.52848-.77679.12771-.59295-.34531a7.25953,7.25953,0,0,0-.91309,1.789A4.47823,4.47823,0,0,1,87.90153,83.81457Z"/><path class="cls-2" d="M85.928,86.14586a6.92306,6.92306,0,0,0,.46747-.88763A3.66739,3.66739,0,0,0,85.928,86.14586Z"/><path class="cls-2" d="M91.24254,80.90978a1.2278,1.2278,0,0,0-.863.42157l.59766-.08179Z"/><path class="cls-2" d="M90.99718,81.24575l-.02.00381-.58.727Z"/><path class="cls-2" d="M91.30968,80.82439l-.06714.08539C91.30125,80.90185,91.3278,80.89022,91.30968,80.82439Z"/><path class="cls-2" d="M94.32756,77.24822c-.14105.66812-.66138,1.97046.35882,1.03931C94.68974,77.73559,94.1096,78.26357,94.32756,77.24822Z"/><path class="cls-2" d="M92.06547,80.71175c.25769-.297.53968-.57828.77924-.88983-.10559-.044-.35327.04065-.28021-.29758C92.43071,79.93947,92.231,80.31225,92.06547,80.71175Z"/><polygon class="cls-2" points="91.827 81.251 92.065 80.712 91.773 81.038 91.827 81.251"/><path class="cls-2" d="M87.602,85.02086a3.85887,3.85887,0,0,1-.99969,1.35752,8.02282,8.02282,0,0,0,1.48535-1.36026C88.05144,84.85747,88.065,84.48165,87.602,85.02086Z"/><path class="cls-2" d="M89.33928,83.26473l-.05615.09872C89.35655,83.33587,89.40239,83.30248,89.33928,83.26473Z"/><polygon class="cls-2" points="81.984 90.387 82.109 90.387 82.082 90.314 81.984 90.387"/><path class="cls-2" d="M88.22093,84.9887a1.68281,1.68281,0,0,0,.613-.913,11.40668,11.40668,0,0,1-.74634.94245C88.10417,85.09032,88.12822,85.12337,88.22093,84.9887Z"/><path class="cls-2" d="M84.83574,87.4489a8.17017,8.17017,0,0,0,.78656-.41876C85.344,87.10631,84.82707,87.304,84.83574,87.4489Z"/><path class="cls-2" d="M89.08073,83.41167l.03553-.06784C88.9373,83.40542,88.985,83.41955,89.08073,83.41167Z"/><path class="cls-2" d="M89.08073,83.41167a3.39379,3.39379,0,0,0-.24676.664,6.02131,6.02131,0,0,0,.44916-.71222A.74532.74532,0,0,1,89.08073,83.41167Z"/><path class="cls-2" d="M82.07432,93.7307c-.077-.191.12738-.542.48572-.906a3.52662,3.52662,0,0,1,1.44983-.97547c.7359-.96441-.6991-1.48825-1.90137-1.462.07666.159.179.28421-.59588,1.19708.44317-.07373,2.344-1.219,1.78723-.31708-1.11639,1.13031-1.074.71949-1.83179.96424.83283.0379-1.25311,1.69748-.57007,2.11453l1.02539-.99048C82.01115,93.43255,81.689,93.86391,82.07432,93.7307Z"/><path class="cls-2" d="M83.85405,89.05141l.34021-.332a5.60554,5.60554,0,0,1-1.6211.6004c-.49029.63684-.5299.85669-.49163.99463l1.86157-1.409Z"/><path class="cls-2" d="M85.75139,87.26742c.028.56579-.69324,1.49786.136,1.35656,1.01557-.99792.4795-.94635.96222-1.65735-1.57775,1.63178.30524-.61682-1.05181.32477a10.0477,10.0477,0,0,1,.80444-.913c-.33112.2395-.65943.45926-.98.65176l.05572-.01562.00666-.00821.00311.00641c.107-.027.15277-.02518.05212.02679a.165.165,0,0,1-.02795.03839.40934.40934,0,0,1,.03778.18778c-.53381.38086-.15057-.01194-.03778-.18778a.28946.28946,0,0,0-.02417-.06518l-.00977.0018c-.49359.56384-.9707,1.15228-1.48376,1.70486A10.81384,10.81384,0,0,0,85.75139,87.26742Z"/><path class="cls-2" d="M94.80321,79.83608a.10521.10521,0,0,1-.12378.00855C94.64238,80.00188,94.64152,80.07079,94.80321,79.83608Z"/><path class="cls-2" d="M94.07133,80.50667a1.36338,1.36338,0,0,1,.30512-.83416c.36383-.33319.17157.115.303.17212.08441-.347.36212-1.15079-.36878-.38682l-.03888.17109c-.597.73419-1.76538,1.36264-1.718,1.195A2.932,2.932,0,0,0,94.07133,80.50667Z"/><path class="cls-2" d="M90.09849,84.27065l-1.12481,1.56854.93268-.48037-.2005-.11219C90.5056,84.488,90.13866,84.48382,90.09849,84.27065Z"/><polygon class="cls-2" points="81.688 90.349 81.604 89.834 81.15 91.018 81.688 90.349"/><polygon class="cls-2" points="79.747 91.794 79.598 91.417 79.202 91.968 79.747 91.794"/><path class="cls-2" d="M5.03575,31.79729l.159-.59085A3.63018,3.63018,0,0,0,5.03575,31.79729Z"/><path class="cls-2" d="M3.46843,35.88384l.14813.16248C3.58385,35.82247,3.53752,35.71856,3.46843,35.88384Z"/><path class="cls-2" d="M36.78593,97.13292c-.31421-.30346-.62671-.6596-.86792-.88336-.23144-.24878-.39721-.35891-.4378-.133l.06073.50174A3.91264,3.91264,0,0,1,36.78593,97.13292Z"/><path class="cls-2" d="M6.25566,70.23919l-.02856.27462.60467.37366C6.65776,70.69167,6.46153,70.47091,6.25566,70.23919Z"/><path class="cls-2" d="M4.34782,70.30214l-.08459-1.18576A6.41238,6.41238,0,0,0,4.34782,70.30214Z"/><path class="cls-2" d="M18.82262,12.40047l.24462-.817C18.23662,12.33819,18.748,12.17586,18.82262,12.40047Z"/><path class="cls-2" d="M57.56987,105.51992a9.56725,9.56725,0,0,0-1.23975,1.344C57.03,106.2842,57.73717,105.91469,57.56987,105.51992Z"/><path class="cls-2" d="M8.69084,35.08419c.04236-.34558.01-.51492-.083-.54184C8.55705,34.89828,8.56706,35.113,8.69084,35.08419Z"/><path class="cls-2" d="M55.146,108.59188c.108-.08078.19721-.17182.301-.25833a9.12082,9.12082,0,0,1,.88311-1.46967A3.094,3.094,0,0,0,55.146,108.59188Z"/><path class="cls-2" d="M95.71751,21.976c.02191.062.05982.12833.07532.18759C95.852,22.14486,95.80253,22.07284,95.71751,21.976Z"/><path class="cls-2" d="M100.69365,45.82857c-.06116-.22192-.11792-.58972-.17645-.93576A3.59783,3.59783,0,0,0,100.69365,45.82857Z"/><path class="cls-2" d="M71.11967,96.24532c.4563-.23459.05579-.07733,0,0Z"/><path class="cls-2" d="M74.13017,96.78411a.28972.28972,0,0,0-.10376.27685A.37081.37081,0,0,1,74.13017,96.78411Z"/><path class="cls-2" d="M54.2877,114.6144l-.02734.03723C54.37877,114.62932,54.3582,114.63064,54.2877,114.6144Z"/><path class="cls-2" d="M71.901,96.113a4.73053,4.73053,0,0,0-.64953.14837A4.89577,4.89577,0,0,0,71.901,96.113Z"/><path class="cls-2" d="M71.72508,95.96682l.42536-.14331C72.1801,95.73119,72.11,95.71258,71.72508,95.96682Z"/><path class="cls-2" d="M70.47764,96.55785a5.72838,5.72838,0,0,1,.77381-.29645c-.10315.01392-.15088.00843-.13178-.01608Z"/><path class="cls-2" d="M56.2653,1.38839c.03577.01553.07758.02646.11634.04706C56.95311,1.28411,56.70537,1.30031,56.2653,1.38839Z"/><path class="cls-2" d="M22.3549,94.48058c.02326.01285.04084.01233.06275.023l-.05616-.0639Z"/><path class="cls-2" d="M20.57024,93.476a2.35947,2.35947,0,0,1,1.79125.96366l.23035-1.4137Q21.59722,93.26368,20.57024,93.476Z"/><path class="cls-2" d="M10.03361,22.59316a10.3688,10.3688,0,0,0-1.12921.97107,7.96683,7.96683,0,0,1,.71021-1.92944c.14306-.348.06439-.3798-.57154.01526.247.23748.16492.64379-.07556,1.13476a14.27244,14.27244,0,0,1-.90545,1.73895c-.703,1.22162-1.402,2.44583-.85743,2.855a9.4077,9.4077,0,0,0-.68322.70468c.12994-.23815.07831-.31494.20752-.55038-1.3833,1.36572.27514,1.68372-.90973,3.70023-.44782.69174-.87775,1.13339-.78345.56405-.1778.58893-.23486,1.22483-.35535,1.82956-.20709.48831-.38318.28317-.176-.206l-.85694,2.65759-.03088-.03207c.05737.44043.07,1.38156.12323,1.849-.36206.62335-.05029-.38117-.25726-.2565l-.06537,1.57022c-.496.51519-.50885-.80622-.192-1.82788-1.66565,1.02975.00794,1.324-1.53375,4.15805L1.888,40.07482a3.12684,3.12684,0,0,0-.98181,1.44287c-.233.58655-.35376,1.28717-.7312,2.08307.15436-.17911.58167-.96411.9773-1.47006.4093-.50522.80688-.73041.79724.12121a3.78337,3.78337,0,0,0-.18323,1.99472c-.47784-.06927-.49548.82856-.63391,1.92768l-.6236-.15284c-.00506,1.22052.33649,1.15821.59162,1.88791A2.03605,2.03605,0,0,1,.02708,49.77779c-.20971,2.15375.86756-1.44281.86115,1.09848-.39044,1.76737.00873,3.03446.46857,5.11447-.16388,1.25043-.40009-.1893-.56269.26667.19068.35577.36316.70947.56848,1.05691.02283.26676-.14453.196-.22906.15952.31787.89691.64624.017,1.00812,1.42114.761.26666-.69336,3.10382.56854,4.69946-.081.46927-.42951-.12408-.64215.05939a12.45734,12.45734,0,0,0,2.07867,3.71l.11652,1.75253c.09381-1.35281,1.06274.02341,1.99243,1.12281.0387-.47742.12262-.89676.14209-1.164a21.65592,21.65592,0,0,0,1.10236,1.87835c.00189.278-.28376.16333-.66834-.0661.10565.117.208.22672.2945.309.07782.80271-.41456.58033-.9632.19129.01392-.29474.0376-.589.064-.874-.5802-.35418-1.15766-.69235-1.46528-.45986a3.67414,3.67414,0,0,1,.42792.6217c-.15375-.09567-.27752-.14822-.31177-.06394-.034.09385.18842.261.48029.53867l-.46716.734.31042.00912c.246.95826.46381,1.93924.74512,2.89975a46.25639,46.25639,0,0,1,5.34485,5.24411c-.86872-.395-.80927.31818-1.34986.62238A2.43625,2.43625,0,0,0,9.05968,79.035c-.25245-.28286-.55225-.56958-.80433-.90261a5.85027,5.85027,0,0,1-.64129-1.10379c.35675.83416.00812.80358-.18982.64694a29.62877,29.62877,0,0,0,2.10052,2.35568c-.46576.21164.03016.75851.29145,1.56152.2619-.54394.67791-.12732,1.2171.47455a22.26,22.26,0,0,0,1.66693,1.82688c-.218.26907-.67188.23959-1.53479-1.0355.4433,1.80268,2.21436,1.04944,2.771,2.69629-.254-.27148-.35108-.44967-.56665-.46274.78595.47306,2.03576,2.18763,1.48266,2.01987l-.25427-.27276c.39227.48117.90466,1.07406,1.46558,1.68649.59185.58212,1.2644,1.15231,1.892,1.66855a12.15246,12.15246,0,0,0,1.73578,1.23327c.52374.25357.92883.36325,1.13532.25586a3.89738,3.89738,0,0,1-1.13672.62494q1.33209.14712,2.61767.25446a23.52612,23.52612,0,0,0,2.56086.12506c-.74494.37481-.50592,2.64474-2.451,1.81561A5.80959,5.80959,0,0,0,24.57982,95.921c-.2843-.31439-.24372-1.43176.24621-1.18549a10.27324,10.27324,0,0,0,1.83557,2.52265c-.45-.42746.7287-1.08408,1.52442-.60413-.21387.07782-.48724,1.02258-.85364.95661l2.60907.15329c-.605-.10178-.5332.79437-.20294,1.338-.14588-.2656,1.87652.87778,2.50537,1.04062l-.818-.64908c2.40411,1.25244,3.01086-.33426,5.43408.53586a.872.872,0,0,0,.02038,1.669c.389-.185,1.23914-.57824,2.27332-1.00067a11.74672,11.74672,0,0,1,1.64868-.5654,4.64957,4.64957,0,0,1,1.94934-.13769c.15448.15188.29053.29877.418.44369l.6015.054c.13153.123.25714.26047.3891.39453l.80963.84836c-.387-.181-.89038-.42584-1.39276-.62067-.0636-.02331-.124-.05069-.19018-.06851l-.27027.05325-.52606.11533c-.34253.08072-.66553.16925-.95294.26565a21.99085,21.99085,0,0,1-3.51294.79429c.89825.52645.16162.44992,1.64477.799.44672.43033-.93011.2493-1.37585.15509l1.712.5332.85589.26529.136.08276c.10589-.29065.451-.49887.67633-.34384.13324.05768.25116.09918.41308.17707.20765.14456.37763.20648.4748.10058-.10285-.09848-.23938-.24618-.31446-.30426l-.202-.14029q-.196-.13175-.36853-.22919a4.6044,4.6044,0,0,0-.46912.05976l-.18463.045a.49961.49961,0,0,1-.1806.00006l-.24439-.0162c.00165-.17246.16651-.34061.44623-.4856a2.01381,2.01381,0,0,1,.80139-.43085q.13871-.03831.29578-.0668l.16107-.02566a.40985.40985,0,0,1,.118.05316,2.91966,2.91966,0,0,1,.48267.34637,5.81156,5.81156,0,0,1,1.04,1.2764c.1253.65533-1.24536.30026-1.40186.46841a5.57491,5.57491,0,0,1,1.64441,1.905l-.87311-.637c.5484,1.24591,1.97,1.29556,2.35053,2.98392.27838.48165.22357,1.85565.60589,1.70956.12049-1.18008,1.97705-2.66873,2.79328-2.49747a24.33161,24.33161,0,0,1,1.08239,3.54282c.01313.5506-.42791.54138-.962.37768-.49036-.09988-.98163-.21975-.97455.247a.601.601,0,0,1,.40759.09369,3.30765,3.30765,0,0,1,.48114.34769c.329.75656-.62713.09152.46436,1.53531.5805-.35892,1.97424,2.97839.79651.14227.98761,1.09476.90283,1.56314,2.01916,3.13718-.16156-.67432.25305-.85648.64405-.95069a20.54823,20.54823,0,0,1,.84667-2.33725.39481.39481,0,0,0,.32007.42075c1.4538-2.00964,2.57624-3.09814,3.89173-5.00458.25952-.08648,1.07055-.91516,1.03723-.34811a3.32843,3.32843,0,0,1,.47925-1.34894c1.28552-.83151-.84552,1.39414.34784.90671-.27442-.29993.618-1.86609,1.00225-2.86347-.68548-.08242-1.45623,1.91468-1.84179,2.91312-.69843-.47345-.40125-2.46823.67712-4.729.93994-1.73981.93207-.39423,1.02619-.74369a9.702,9.702,0,0,0,.66363-1.00189c.17053-.29977.36719-.67258.49738-.96982.13946-.31076.25219-.60388.35449-.88906a2.692,2.692,0,0,1,.574-.42951,7.30539,7.30539,0,0,1,.64044-.38165c.11872-.0622.24445-.12323.37977-.18274l.34552-.15024a4.74413,4.74413,0,0,1,1.659-.31073c1.2926.23145.34363,1.01627.70215,1.32629a5.77214,5.77214,0,0,1-1.91974.386,8.34223,8.34223,0,0,0-1.77.20838l1.5426-.12442c-.467.37182-1.58123.48168-1.86016,1.09591a1.93686,1.93686,0,0,0,.42175-.36093l.06219-.06546.10328-.01324.21637-.03162.47015-.08231c.64258-.12127,1.46826-.31717,2.33911-.52566a26.76258,26.76258,0,0,0,2.65326-.75687,22.59927,22.59927,0,0,1,2.42682-.62143c.41443-.34463,1.13208-.894.67438-.919-.26581.14025-.52448.3-.79737.42474-.47271-.077-.11444-.324.18292-.6026.303-.26715.57721-.49.02729-.35581a10.69613,10.69613,0,0,1,3.56823-2.2153l.55311.39493c-.11-.12985-1.119.19806-1.47821.53153.52984-.46622,2.65533-.45859,2.95147-1.51618l-1.224.18936a14.66833,14.66833,0,0,1,3.12262-2.719c-.86969-.14972-.24182.2507-1.46319.20364,1.22668.32947-3.22657,1.73117-1.53321,1.857a2.74366,2.74366,0,0,0-1.55633.208,4.15307,4.15307,0,0,1-1.75189.275c.12237.167.60168.15573-.53485.55173a1.21589,1.21589,0,0,1-.16932.27035L71.901,96.113l.07013-.00507c-.03564.049-.03741.0567.02582-.00244a1.44431,1.44431,0,0,1,.68622.03156c-.36163.661-2.132,1.4779-2.69354,1.86227-.72113.14664.20678-.31638-.24292-.38974l-.807.65811c-.24646-.39056-2.03949-.08459-.53265-.88391l-1.43311.475a7.12287,7.12287,0,0,0-2.80957.56454,4.89059,4.89059,0,0,0-.86218.24957c-.341.12406-.63623.25376-.85541.35614-.43738.20475-.60193.30841-.1651.018-.7793.03549-1.00268.84637-1.38061,1.41022l-.52484.88772-.30024.5604-.10565-.0445c-1.44214,2.00122-2.25964,4.60663-4.52337,6.47263-.18824.37439-.37513.758-.62635,1.18225-.12561.2121-.26727.43432-.43329.67059a1.53621,1.53621,0,0,1-.26214.29318,2.77825,2.77825,0,0,1-.31146-.233c-.04206.18125-.23218.28653-.35267.3498-.12622.07165-.20056.1271-.2146.50527a4.85789,4.85789,0,0,0-.12561-.48925c-.08038-.48893-.13433-.514-.26818-.59653a1.24486,1.24486,0,0,1-.21112-.14072.50705.50705,0,0,1-.089-.09909c-.11524-.16931-.24488-.37317-.33551-.53933l-.45838.2286a27.45808,27.45808,0,0,0-2.59979-3.22452l-.31378.33487c-1.08509-.93039-1.74634-3.10794-3.02027-4.88308.22541.02551.50183.50769.63837.88955a5.7701,5.7701,0,0,0-1.10919-2.18817l-.4914-.67486-.25109-.327c-.09278-.09518-.26777-.07126-.3974-.11136l-1.6767-.26944-.40051-.0585-.24207-.0184-.48138-.04035c-.31916-.02969-.6341-.06656-.94007-.11993a3.47362,3.47362,0,0,1-1.66327-.65372,2.2903,2.2903,0,0,1-1.28979-.45151.44609.44609,0,0,0,.13971.02335c-.05286-.024-.13349-.05273-.21686-.0805-.20972-.1539-.421-.32166-.65729-.47883a3.19,3.19,0,0,0,.53943.43976,12.53382,12.53382,0,0,0-1.7088-.40008l-.07562-.55432-.14057-.04782c-.50634-.42066-.55163.00344-.37811.47729A4.1726,4.1726,0,0,0,34.123,96.965c-.15918-.92169-1.6778-.4596-1.968-1.49408-.5816.19552-2.99353-1.28916-3.741-.71619.03613-.10651-.1073-.24551.20813-.07989A6.12952,6.12952,0,0,0,26.787,93.59627l.07459-.68622-1.79242-.20516c-.60279-.84955-.79712-1.238.2716-1.09333-2.29077-.78341-1.63458-.92184-3.65472-1.58435l.3302-.24313c-.58362-.39771-1.74744-.8049-1.84332-1.34-.32013-.82721-1.76722-2.1311-3.21277-3.87485-.37244-.42431-.75757-.86312-1.14673-1.30645-.3429-.4802-.68927-.96521-1.03162-1.44458a13.95242,13.95242,0,0,1-1.67529-2.88129c-.55865,1.29681-.55817-1.86093-1.4093-1.51508.10913-.34228-.05426-.89016.49859-.46609a7.25657,7.25657,0,0,1-1.17816-2.16736,3.38273,3.38273,0,0,0-1.23431-1.62067c.14215-.32568.56653.21225.6178-.0429-.12488-.11908-.52649-.46414-.44361-.73542.07215-.25988.313.18238.58338.40632C9.657,70.948,8.83232,71.05956,8.02318,71.22725a2.39038,2.39038,0,0,0-1.07965-2.15853c.13079-.44928.20257-1.12754.6867.092-.17029-.73188-1.03467-4.38352-1.5982-4.3165a2.18309,2.18309,0,0,0-.2948-1.19751c-.15674-.818-.24207-1.26328-.3266-1.70456-.09412-.43918-.19538-.87235-.31482-1.68146l-.04346.46695c-.84631-.51913-.35022-1.33237-.61749-2.631l.08362.02869a8.04386,8.04386,0,0,0-.04755-2.17173,5.00455,5.00455,0,0,1,.11932-2.139l-.472.1759c-.51288-.124-.41986-.80539-.18591-1.655a6.11948,6.11948,0,0,0,.48541-2.73831l-.30518.61386c-.15222-.48587.23187-1.13754.674-1.76105.22431-.30783.45294-.62161.65753-.90243a2.56887,2.56887,0,0,0,.46552-.76587c.11993-.18891.0943.33291.11719.61777.97284-2.31662-.576-.38193-.44355-2.21012.3852-.27884.78772.55338,1.0318-.63351a1.6455,1.6455,0,0,0,.07856-.82782,9.65723,9.65723,0,0,1-.04493-1.4,5.595,5.595,0,0,1,.66565-2.92437c-.34185.28277-.686.57556-.66253-.30686a3.73579,3.73579,0,0,1,.39093-1.0556c.2182-.35892.45251-.74426.68268-1.12286a3.12755,3.12755,0,0,0,.61206-2.23121c.12316-.1297.20788-.16265.27044-.14477A11.50887,11.50887,0,0,1,9.154,32.525a5.06379,5.06379,0,0,0,.33679-1.82159c.4718-.0253.8291-.4068,1.12237-.958a15.78262,15.78262,0,0,0,.90723-1.8909c.56055-1.341,1.06067-2.61722,1.68628-2.17727l1.77008-2.50647.0758.15945a6.88028,6.88028,0,0,0,1.64789-2.98975c.38593-.26974.267.07276.30194.15342a15.70074,15.70074,0,0,0,2.09729-2.08734,13.18075,13.18075,0,0,0,1.48993-2.24344l.51618.20044a2.40708,2.40708,0,0,1,.71179-.66025c.18994-.13535.40118-.29288.6449-.44721l.81518-.45889a20.69366,20.69366,0,0,0,1.78284-1.129c.60107-.4147,1.13934-.939,1.68024-1.39569a.42008.42008,0,0,1-.14136.3451,9.74458,9.74458,0,0,1,2.12823-1.35972,16.00946,16.00946,0,0,1,2.37531-1.00018c1.55591-.53467,2.78845-1.08972,2.95788-2.17337.578-.42313,1.19635-.76669,1.80158-1.15823-2.631.81234.102-.871-1.073-.76059,1.004-.48007,2.84509-.46161,1.6181.08633l-.22717-.013c-.13782,1.04282,3.31384-.86856,3.45813-.13061,5.12116-1.63211,10.43421-1.51947,15.33673-1.33255l-.55-.76044,1.74756.13058c.44879.193.5719.60175-.6582.50956.62024.44671,2.09259-.24335,2.15143-.39963,1.20221.24734.93078.48465.47522.57495-.46155.13226-1.12457.26077-.75708.28216a6.61669,6.61669,0,0,1,1.0003.03449l-.21393-.11954a3.99166,3.99166,0,0,1,2.4231-.214c.9115.287.405.51795.76587.60141-.01086.05069.10748.09339.55524.10529a14.357,14.357,0,0,1,2.10815.51773l-.71924-.78214c1.004-.03427,2.00031.547,1.16278-.34411a4.74732,4.74732,0,0,0,1.75482.95395c.40229.14786.84546.28885,1.30744.42523.44757.18262.91394.36063,1.37793.53174l2.58154.9237a4.63376,4.63376,0,0,1,1.42249.73627,8.74505,8.74505,0,0,1,2.02826.57977,10.47287,10.47287,0,0,1,2.05468,1.0676c-.29632-.321-.20233-1.02295,1.01563-.18964-.56506.44031-.07.91178.6217,1.44684.68683.54264,1.60938,1.11341,1.771,1.88883-.46491-1.14466,3.34936,2.30917,2.59961.61483.90314.80976-.24829.44059.28375,1.23078a15.38451,15.38451,0,0,1,3.49487,3.04358c1.091,1.24572,2.0708,2.68429,3.33069,3.90454.1676-.06479-.00122-.69571.67792-.27133l.4198,2.03189c.4787.49569,1.20111-.08826,1.46649,1.28335.01434-.22732.03461-.57226.36243-.22839a11.0691,11.0691,0,0,1,.61572,1.15628l.60626,1.16385c.41681.76846.8581,1.52383,1.31568,2.2738q.58979,1.17806,1.183,2.36286c.37927.79663.8645,1.55188,1.16522,2.3872a22.72318,22.72318,0,0,1,2.15082,10.32584c.19507-.98743.3216-.37588.44306.3374.0097-.47784.43042-.05935.65185-.18823l-.21771,2.99554c.684.47519.20056,3.13367.84857,3.41666l-.16125-.93225c.80993,1.23505,1.568-1.85309,2.53076-1.76758a2.09225,2.09225,0,0,1-.2594-1.24075,14.28675,14.28675,0,0,1,.10736-1.54947,4.82176,4.82176,0,0,0-.647-3.44272c.07361-.56036.39441.38428.54847.06207a3.93378,3.93378,0,0,1-.97022-2.58694l.13715.12549c-.26514-.93094-.46582-1.73471-.63135-2.48645-.21619-.736-.4256-1.411-.61194-2.11219a30.25328,30.25328,0,0,0-1.57458-4.92l-.28815.49326a5.36726,5.36726,0,0,1-.3869-1.5643c-1.10852-.64664,1.10766,2.3919-.03424,1.84674.1485-.7443-.49475-2.2782-1.27429-3.67212-.81177-1.37876-1.58387-2.71784-1.347-3.38086-.75909-1.23956-.22156.65262-.99976-.56269l.01526-.475-.53149-.07413c-.51172-.79095-.501-1.39517-.32172-1.57468a5.69174,5.69174,0,0,0,.618.67383c-.47693-1.19552-2.16546-2.757-2.38855-3.11612a12.32588,12.32588,0,0,1,.72888,1.21152c-.61718-.77841-1.38275-1.49963-2.10247-2.29224-.73987-.77377-1.43952-1.62216-2.22907-2.37478-.811-.731-1.62732-1.45105-2.44128-2.11859-.41107-.32868-.8039-.66553-1.22675-.94486-.43377-.26611-.8648-.51443-1.29138-.73971l.09314.34915a7.96048,7.96048,0,0,1-2.14551-1.53394,9.15675,9.15675,0,0,0-.78357-.73092,14.151,14.151,0,0,0-1.53869-.92023l.127.01486a6.83547,6.83547,0,0,1-2.16724-.9538c.81775.18949-1.04577-1.228-.00231-.9342-3.01551-1.05279-1.5716-.39719-3.77759-.558l-.2724-.54227a7.00624,7.00624,0,0,1-.91535-.0033,13.54756,13.54756,0,0,1-1.45813-.35486c1.32874.14841-.73626-.87179.78461-.76171a9.13271,9.13271,0,0,0-3.66937-1.38865c-1.00037-.20651-1.80286-.21936-2.387-1.00677-1.74334.61121,2.63471,1.2659,1.74421,1.26733.57672.51462-1.4256.4079-2.38929.06757a4.34383,4.34383,0,0,1-1.40869-1.0459,5.88885,5.88885,0,0,0-1.03528-.71893A6.33963,6.33963,0,0,0,61.93333,1.401c.26386.04544.29541-.02832.55915.01666-.95862-.41207-2.00367.05149-3.16962-.555-.75018.48163-1.59283-.21145-1.86078.57266a17.51026,17.51026,0,0,1,2.44562.09519c-1.40735-.06159-2.75885.84134-4.97882.27789a4.52382,4.52382,0,0,1,1.33642-.42c-.6546-.26691-1.28692.08993-1.96875-.184C54.51726.438,57.2769,1.14409,58.82408.69509c-.6925-.44464-2.88464.40448-2.0661-.42847A2.24186,2.24186,0,0,1,54.7675.611,3.76715,3.76715,0,0,0,52.257.82338l.11286-.48043a5.346,5.346,0,0,1-1.411.35693l.94574-.663c-1.46186.60382-2.903-.32831-4.32135.062,2.997-.20078.723.52615,2.00494.79986a6.22565,6.22565,0,0,1-1.91742.19272A2.65932,2.65932,0,0,1,46.63341.81218C46.01482.541,45.31315.22878,43.27147.65886c.54907-.153,2.13476-.03942,1.30255.31034A11.4495,11.4495,0,0,1,42.19365.82927c-2.648.77765.51269.37238-.55664.94626-1.03046-.33288-1.24579.56211-2.33637,1.03424l-.13714-.46283c-1.54932.23188-1.67255.53833-1.7508.83558-.08325.28915-.1264.55474-1.48205.85119l.88678-1.0358-1.31073.66263.09845-.6203A9.39007,9.39007,0,0,1,32.248,4.4829c.46033.156.1637.8913-1.04925,1.492-.95984.14431.27362-.64115-1.44251.26275a1.46,1.46,0,0,1,1.48767-.979c.01178-.18024.26538-.4635.2832-.64429a10.82384,10.82384,0,0,0-2.97961,1.35794,3.08446,3.08446,0,0,1,.74481-.235l-1.11865.91848L27.13194,7.67739c-.46979.07306-.244-.23413-.01452-.53977-.4657.34327-.69147.73951-1.38617,1.21039-.01984-.44662-.28046-.7626.66095-1.54959L24.29344,8.584a3.71106,3.71106,0,0,0-.78973.11658c-.29084.07456-.528.11334-.426-.05255a8.81166,8.81166,0,0,0-1.99988,1.81183,14.77929,14.77929,0,0,1-2.24743,2.051,1.7514,1.7514,0,0,1-.41083.6492c-.72205.59537-1.47315,1.08615-2.20581,1.66782a7.56488,7.56488,0,0,0-1.90924,2.34189l-1.37757.47153c-1.05157,1.39813,1.81116-.67991.0763,1.62921-1.06751,1.74783-.92951.22674-1.52039.67743a14.37235,14.37235,0,0,1-.72894,1.9747,7.33331,7.33331,0,0,1-1.59106,2.12069A5.9653,5.9653,0,0,1,10.03361,22.59316ZM1.96434,42.2134c-.03265-.42481-.10754-1.29053.23743-1.52216C2.63145,41.2727,2.25963,41.55446,1.96434,42.2134ZM6.5648,73.39766a1.74644,1.74644,0,0,1-.40045-1.22818A3.61687,3.61687,0,0,1,6.5648,73.39766Zm59.363,25.045a.21367.21367,0,0,0-.03284.03229C65.03087,98.49666,65.33909,98.49621,65.92778,98.44268Zm1.73352-.301c.146-.1217.11365-.1813.02313-.22128-.07763.15607-.44732.29279-.87958.40674C66.958,98.40761,67.199,98.4164,67.6613,98.14165ZM61.58293,5.26946l-.31744-.176C62.05693,5.07338,61.81975,5.16417,61.58293,5.26946Z"/><path class="cls-2" d="M4.56847,70.30974a.452.452,0,0,1,.19335-.25579C4.637,69.92934,4.54747,69.957,4.56847,70.30974Z"/><path class="cls-2" d="M18.7783,12.55068l.05207-.03989a.20713.20713,0,0,0-.00775-.11032Z"/><path class="cls-2" d="M48.61473,113.11214a1.78449,1.78449,0,0,1-.30658-.88669c-.05444.025-.078.08686-.05041.20411a1.14945,1.14945,0,0,0,.08233.21966C48.40294,112.76836,48.49913,112.92989,48.61473,113.11214Z"/><path class="cls-2" d="M75.777,93.74953l-.90851.64459a2.3511,2.3511,0,0,1,.94861-.34277C75.74107,93.96444,75.4785,93.9229,75.777,93.74953Z"/><path class="cls-2" d="M85.59776,90.60256c.0954-.15189.28369-.22769.363-.39383l-.18128-.137C85.237,90.5523,84.94163,90.996,85.59776,90.60256Z"/><path class="cls-2" d="M77.47642,94.64394c.27234.29117.87049-.12082,1.48224-.65533a1.05587,1.05587,0,0,1-.1181.07885C78.73784,93.45934,78.13982,94.09618,77.47642,94.64394Z"/><path class="cls-2" d="M79.10618,93.87365a4.77687,4.77687,0,0,1,.61152-.42032C79.67149,93.21074,79.44273,93.57976,79.10618,93.87365Z"/><path class="cls-2" d="M69.66942,97.16436c.38769-.02277.037-.56079.29248-.474C70.1754,96.07036,67.84813,98.07793,69.66942,97.16436Z"/><polygon class="cls-2" points="78.73 95.48 78.217 95.19 78.02 95.76 78.73 95.48"/><path class="cls-2" d="M72.80241,98.07287l1.24921-.40345c-.05335-.06817.07733-.1802.24689-.29666C73.55748,97.6838,72.71556,97.949,72.80241,98.07287Z"/><path class="cls-2" d="M74.29851,97.37276a2.96485,2.96485,0,0,0,.91662-.50808C75.01951,96.97777,74.577,97.17763,74.29851,97.37276Z"/><polygon class="cls-2" points="77.23 96.477 76.84 96.573 76.01 96.988 77.23 96.477"/><path class="cls-2" d="M60.62718,104.43831l-.69238,1.26261c.05908.21759.36658-.045.61218-.5235C60.64238,104.82689,60.88841,104.351,60.62718,104.43831Z"/><path class="cls-2" d="M64.10332,102.23488a1.22528,1.22528,0,0,1-.37952-.07754.46535.46535,0,0,0-.28583-.06287l.37537.55072C63.81975,102.40151,63.99162,102.373,64.10332,102.23488Z"/><path class="cls-2" d="M61.96562,105.16918c.0614.21524-.76892,1.99441.22662.47494C62.13359,105.42757,62.82768,104.16338,61.96562,105.16918Z"/><polygon class="cls-2" points="48.665 110.175 48.878 110.471 49.688 109.852 48.665 110.175"/><path class="cls-2" d="M33.70463,101.54928c1.59864.83184.62165-.44349,2.03449.37164.47241-.09131-1.154-.66177-.67828-.71741C33.95769,101.11248,33.50053,100.72573,33.70463,101.54928Z"/><path class="cls-2" d="M35.06084,101.20351a5.5543,5.5543,0,0,0,.56591.03186A2.52419,2.52419,0,0,0,35.06084,101.20351Z"/><polygon class="cls-2" points="100.524 49.686 100.365 50.732 100.673 50.047 100.524 49.686"/><path class="cls-2" d="M101.38139,51.66445l-.63611.25665.62024.62461C101.32426,52.30749,101.24425,51.84807,101.38139,51.66445Z"/><path class="cls-2" d="M.18925,45.16372l.14148.10922c.1944-.1554.24768-.42194.356-.956Z"/><polygon class="cls-2" points="5.084 30.23 4.955 30.468 5.705 30.263 5.084 30.23"/><path class="cls-2" d="M11.44823,18.60265c-.34717.42075-.62885,1.01407-.976,1.4361C11.10313,19.01992,12.10417,18.94744,11.44823,18.60265Z"/><path class="cls-2" d="M45.863,75.353c.02869-.04267-.07367-.07007-.08759-.085C45.76158,75.35726,45.88878,75.362,45.863,75.353Z"/><polygon class="cls-2" points="45.848 76.321 45.814 76.206 45.776 76.182 45.848 76.321"/><path class="cls-2" d="M45.69188,76.94924c.181-.05542-.00385-.27313.08154-.39905l.04395-.01465-.12958-.085C45.67686,76.61953,45.74913,76.83968,45.69188,76.94924Z"/><path class="cls-2" d="M45.31676,77.25783l-.01722.0185a.45174.45174,0,0,1-.00225.08337C45.36619,77.33114,45.35918,77.45229,45.31676,77.25783Z"/><path class="cls-2" d="M45.29954,77.27633c-.00677-.08643-.05712.05688,0,0Z"/><path class="cls-2" d="M45.215,77.65529c.04321.11518.08173.08515.14362.014l-.0705-.10766C45.24882,77.58785,45.2476,77.69069,45.215,77.65529Z"/><path class="cls-2" d="M45.49821,77.7604l-.03228-.05335C45.44939,77.71865,45.44475,77.73458,45.49821,77.7604Z"/><path class="cls-2" d="M45.44157,77.65365c.05347.00506.001-.01374-.04034-.06269l.0647.11609C45.49333,77.68813,45.55083,77.68172,45.44157,77.65365Z"/><path class="cls-2" d="M45.54564,77.483c-.02967-.20471-.15668-.17431-.1225.03754C45.45665,77.4562,45.48112,77.3774,45.54564,77.483Z"/><path class="cls-2" d="M45.93132,76.92824l-.054-.06952c.02674.03449-.0606.141-.00439.14014Z"/><path class="cls-2" d="M45.45378,78.22542c-.0177.04633-.02191.12854-.07574.14692.03851-.0019.09014-.0589.1358-.07709Z"/><path class="cls-2" d="M45.51384,78.29525l.09076.10162C45.58781,78.292,45.55321,78.27974,45.51384,78.29525Z"/><path class="cls-2" d="M45.69749,77.75686l-.154-.17853c.05188.0741.10346.14587.16046.21442Z"/><polygon class="cls-2" points="45.497 78.826 45.392 78.786 45.557 78.863 45.497 78.826"/><path class="cls-2" d="M45.61247,79.11123c-.08642-.02216-.09027.10864-.15155.074a.44448.44448,0,0,0,.20319.1565A.22346.22346,0,0,1,45.61247,79.11123Z"/><path class="cls-2" d="M45.56016,78.71786l.08942-.07575-.01129-.04529A.163.163,0,0,0,45.56016,78.71786Z"/><path class="cls-2" d="M45.65239,78.63955l-.00281.00256.02258.09833Z"/><path class="cls-2" d="M45.87108,78.10244c-.08045-.03321-.11719.05383-.224-.03064C45.71837,78.1299,45.806,78.25179,45.87108,78.10244Z"/><path class="cls-2" d="M45.74168,78.36977c-.02685.009-.06164.0409-.09826.01459l.10516.11047Z"/><polygon class="cls-2" points="45.798 78.543 45.749 78.495 45.752 78.541 45.798 78.543"/><path class="cls-2" d="M45.79124,79.17031a.32283.32283,0,0,1,.122.14349.98.98,0,0,0-.051-.20947C45.82744,79.1075,45.76018,79.1003,45.79124,79.17031Z"/><polygon class="cls-2" points="46.205 79.902 46.217 79.883 46.2 79.89 46.205 79.902"/><path class="cls-2" d="M45.79942,78.99282a.52389.52389,0,0,1,.06281.11151c.01568-.0014.02527-.00427.01428-.01819C45.87688,79.02962,45.84123,79.00973,45.79942,78.99282Z"/><path class="cls-2" d="M45.9044,79.55782a.8596.8596,0,0,0,.01349-.11011C45.89726,79.487,45.87462,79.56063,45.9044,79.55782Z"/><path class="cls-2" d="M45.71422,78.948a.26882.26882,0,0,0,.0852.0448.4094.4094,0,0,0-.06311-.07178A.13278.13278,0,0,1,45.71422,78.948Z"/><path class="cls-2" d="M46.113,79.672l-.03333-.03992a.51436.51436,0,0,1-.03613.21979c.08423.05261.12457.04938.15607.03827l-.10742-.22693Z"/><path class="cls-2" d="M46.26115,79.3901c-.06744-.1247-.12256-.05286-.20074-.11286.11786.2038-.082-.03808-.06964.14337a.4784.4784,0,0,1-.07752-.10681.8001.8001,0,0,1,.00464.13391l.00391-.00781L45.921,79.439l.00165-.00049c.00806-.015.01416-.02149.01172-.00757l.004.00366a.16223.16223,0,0,1,.04132-.0069c.00757.07276-.021.02173-.04132.0069l-.01575.00391-.00085.0014.15783.1922a.66674.66674,0,0,0-.09936-.20465C46.09331,79.41988,46.18815,79.50454,46.26115,79.3901Z"/><path class="cls-2" d="M45.97044,78.20064l.01795.01227c-.01654.09509-.11774.24469-.135.233a.98063.98063,0,0,0,.22619-.17193c-.01825-.01209-.06329-.01526-.06445-.06916.02118-.05139.05042-.011.08441-.02118C46.06474,78.16005,45.99882,78.09206,45.97044,78.20064Z"/><path class="cls-2" d="M46.02775,78.8362l.11591.15857.053-.12176-.05078.024C46.1281,78.79061,46.07371,78.83413,46.02775,78.8362Z"/><polygon class="cls-2" points="46.17 79.949 46.058 79.982 46.257 80.003 46.17 79.949"/><polygon class="cls-2" points="46.231 80.213 46.32 80.24 46.32 80.168 46.231 80.213"/><path class="cls-2" d="M51.9926,82.99447l-.03424-.10633a.16484.16484,0,0,1-.14563-.00641C51.90178,82.96859,52.0114,83.10482,51.9926,82.99447Z"/><path class="cls-2" d="M48.28947,81.956a.41945.41945,0,0,0,.12824.14545C48.36906,82.00411,48.35405,81.89052,48.28947,81.956Z"/><path class="cls-2" d="M48.60588,82.19906l-.02319-.03974a.354.354,0,0,1-.165-.05792C48.45311,82.17324,48.50725,82.23592,48.60588,82.19906Z"/><path class="cls-2" d="M46.89714,80.98037,46.871,80.937C46.85283,80.94411,46.84892,80.95656,46.89714,80.98037Z"/><path class="cls-2" d="M46.949,81.0328l.05975.05163a.23923.23923,0,0,1-.05621-.07281A.029.029,0,0,1,46.949,81.0328Z"/><path class="cls-2" d="M56.81761,78.49618c.07666-.076-.27063-.39478-.126-.58259-.06183.04688-.12359.08948-.18011.00483-.03461-.12775.19458-.41065-.03418-.495a.076.076,0,0,1,.04443-.03485c-.07263-.09332-.16754-.31049-.2937-.3349.37177-.22876-.39941-.51965-.051-.65509l-.1529-.27655.0387-.01013a.304.304,0,0,0-.29932-.22589c.00019-.05262.04743-.04132.06677-.04779-.08032-.29016-.11572-.31415-.4085-.40467l.08709-.092c-.09155-.00915-.09747-.46521-.40686-.58758a.08716.08716,0,0,1,.06275-.01337c-.31134-.13922-.33173-.81409-.72132-.54565l-.234-.0445c.19018.19153-.1521.13-.112.25574-.095-.0401-.12738-.27051-.01294-.21143l.00219.03028c.18219-.16193-.21911-.26227-.12317-.3891a9.06414,9.06414,0,0,0-1.33361-.8432l-.013.19146-.15851-.07373c-.029-.054-.009-.15722.107-.10351-.02569-.12384-.2312.0097-.2456.04583-.21015-.1513.16046-.17.09094-.19879l-.10394-.0216.01562.02807c-.10358.04242-.13495.11823-.27722.06537-.082-.06262-.01666-.123-.05164-.14026.00373-.01239-.00744-.02154-.05609-.01971l-.21832-.06995.05536.16162c-.112.04395-.20276-.05108-.13794.128-.09058-.2937-.80292-.22058-.88794-.28839a.66387.66387,0,0,1-.44653.08966c.04339.02845.07177.18982-.06885.17517.03345-.33856-.27057-.12921-.41931-.3479.1261.13868-.41382.10376-.20832.30182-.12359-.0047-.02941-.12207-.13659-.18237-.259.18408-.653.07117-.98841.25006.0113.04273.09192.08374.04419.17224-.08636-.04669-.17315-.08557-.26355-.12671-.05957.05109.04438.25476-.13971.17725.03333.02466.0821.06262.04554.09662a1.872,1.872,0,0,0-.93354.55762,3.67039,3.67039,0,0,1-.89337.71124c.1286-.0343.09577.02667.05432.091.04547-.02917.08869.06268.14344.08838-.10468.04944-.201.10809-.30463.16675.11426.1311-.15167.29291-.02155.39465l.01667-.09753c.063.11059.202.11035.34625.11554-.04529.08337-.10272.154-.14356.242a4.10782,4.10782,0,0,0-.0108,3.41974,4.99779,4.99779,0,0,0,.37909.72675.12926.12926,0,0,1-.10467-.17432c-.11676-.05786-.37146.15472-.47791.33844.04034-.0191.07172-.03583.186.03656.02051-.0636-.02044-.2923.10523-.249.11749.10858.033.12536.02679.218.064-.10327.21064.01838.337-.03662.07642.1164.17474.2154.26074.32422l.00043.01947.04663.07129-.02722-.0661c.09686.12085.18243.25061.2912.36206-.01532.00623-.035.00714-.03894.02716l.07232.04547c-.02081.13233-.21972-.00683-.1795.1051-.13269-.03009-.31738-.04681-.37781-.2174l.0979-.12171c-.03265.03076-.00043.141.06482.14557-.098-.0105-.00165-.32086-.20166-.25708l-.01257.15784c-.13166-.04486-.35858-.06976-.40467-.22705-.08453.14416.03351.01831-.04736.21271.11823-.205.2359.32513.32459.06036-.08979.21661.05444.20434.02307.43329.03424-.03742.03546-.1037.10718.0097a.21445.21445,0,0,1,.0523-.00928l.0033.0091-.00055-.0094c.0094-.001.01086-.00177-.00037-.00342a.17174.17174,0,0,1,.01111-.10077c.128-.03015.26453.11627.35651.118.03686.06922-.06262.02009-.07068.08741l.13476.00506c-.07.088.02729.27277-.1535.201l.12055.11286a.31516.31516,0,0,0,.217.23022c.04724.06836.23187.01605.12487.04785l.24878.0904-.01373.02459c.20429.157.52576.1095.68134.41864a.52187.52187,0,0,1,.29156.10523l-.0152.09948c.10968.014.26038.2182.34247.13959.01306.293.48218.23352.65265.32788l.04077-.12048a1.01527,1.01527,0,0,0,.42676.01959l.013-.11175c.15-.06141.33228.1455.55585.15734-.01953.0409-.0744.0232-.11029-.00708.24121.28919.56549-.13507.79266.04969a.11306.11306,0,0,1,.14447-.00171.02467.02467,0,0,0-.01465.00616l.02454.0008.08545.05767a.296.296,0,0,0-.07233-.05828.49954.49954,0,0,0,.181-.05347l.037.11816.01574-.00445c.07135.03967.04944-.06055.00739-.14844a.31194.31194,0,0,0,.08258-.07843c.07245.18793.166-.08429.264.11316.03216-.10577.32623-.12549.31823-.34448.00739.02673.02881.03582-.00537.04455.07563.0094.15308.01825.2038-.05334l.06439.14172.10584-.2384c.11566.06732.17169.10809.10687.2467.17865-.23907.16852-.11633.30176-.34851l.022.097c.06708-.02747.12872-.18665.196-.12616.22332.12677.73614-.27643,1.17791-.38355-.23553-.18878.23877-.01281.118-.20538.062.0404.13434.03216.11518.12335.13128-.19061.33575-.13953.31659-.38519.0675.03143.03558.10535.08087.11883.00372-.023.01025-.09283.05542-.08178.04523.01129.0188.06573.01269.11248.16-.18176.01563-.34149-.12249-.485.141-.02155.17065-.076.11633-.21747.07306.01007.16827-.0011.10284.1228.05878-.04913.35755-.33471.22162-.42736.04767.00122.06372-.08625.05774-.11243a1.204,1.204,0,0,0,.17114-.30768l-.04412.03015c-.14356-.14.01666-.14129.04889-.27221l.01684.01092c.23608-.23779-.01-.13892.23035-.3797l-.11969-.01843c-.23926-.09412.221-.21295.15478-.41516l-.07843.049c-.0686-.10266.39209-.20624.43433-.31439.025-.02033.03161.03949.04425.07342.18188-.25934-.14905-.05267-.171-.25268C56.66838,78.53957,56.79393,78.63454,56.81761,78.49618Zm-4.85553-5.6728.02588.03956C51.90184,72.87606,51.93144,72.85177,51.96208,72.82338Zm-5.16046,6.932.01477-.0036.00958.01831Zm.66492,1.61981.00708-.00177C47.51427,81.46615,47.501,81.43178,47.46654,81.3752Zm.76056.21582c-.18757-.0606.00573-.15942-.03821-.15234-.26538-.22516-.46741.12793-.61383-.18219-.00733-.178.16674-.20905.20776-.30035.14716.05236.12457.21057.21234.26556l-.0625-.12494c.06482-.00622.16437.02271.18494.08618a.211.211,0,0,0-.06275-.1037,5.69529,5.69529,0,0,0,.64289.40162A.62218.62218,0,0,1,48.2271,81.591Zm1.12664.207c.0517.0213.10358.0379.15534.05767a.363.363,0,0,1-.17121.07172.24849.24849,0,0,0,.01831-.12775Zm.87714.65161a1.36183,1.36183,0,0,1-.25458-.3545.16085.16085,0,0,1,.0094-.06237c.05365.01562.10742.02862.16113.04266l-.04608.19122.07123-.18658c.0556.01428.11139.01855.16705.03107A1.203,1.203,0,0,1,50.23088,82.44967Zm.93164.15612-.0365-.08508-.17737.0788c.05866-.08728.15045-.22125.245-.35767.08923.0058.17871-.001.26806.00037A.74613.74613,0,0,1,51.16252,82.60579Zm1.804-.532c.02063-.00537.04119-.00555.06182-.01117.0174-.0047.03095-.01288.04822-.0177-.0191.08252-.0293.16492-.05133.24756A1.04944,1.04944,0,0,0,52.96648,82.07375Zm2.38732-1.16766c-.03619.00226-.06353-.05054-.09314-.1192l.00513.05352a.10263.10263,0,0,1-.10052-.04077c.022-.02472.04925-.04492.07055-.07025l.02484.0575-.00476-.07752c.00721-.00873.017-.01526.02417-.02405a.83514.83514,0,0,0,.13923.00605Z"/><path class="cls-2" d="M46.521,80.62435l.10162.07715a.133.133,0,0,1-.03833-.11115C46.5637,80.60982,46.54619,80.654,46.521,80.62435Z"/><path class="cls-2" d="M46.57408,79.34444l-.04828.02881c.03333.05939.09393.08038.08466.00751C46.59038,79.37337,46.59434,79.35164,46.57408,79.34444Z"/><path class="cls-2" d="M46.772,80.29287c.07562-.06824.00433-.10291-.05536-.15876l.00806.0116C46.59544,80.20711,46.68138,80.25393,46.772,80.29287Z"/><path class="cls-2" d="M46.70335,80.12081a.19123.19123,0,0,1-.04394-.05933C46.60692,80.08547,46.66673,80.093,46.70335,80.12081Z"/><path class="cls-2" d="M47.13908,81.10311c-.01056-.04657-.1084.0755-.09613.02991C46.92155,81.19539,47.3444,81.20736,47.13908,81.10311Z"/><polygon class="cls-2" points="47.003 80.044 46.918 80.14 47.025 80.114 47.003 80.044"/><path class="cls-2" d="M47.25786,80.4507a.04422.04422,0,0,1-.05359.00379c.047.05914.08667.13617.11145.10889Z"/><path class="cls-2" d="M48.41588,81.37325c-.04315.00989-.09333-.00342-.09833.04279l.13293.03863C48.48411,81.4247,48.46684,81.38381,48.41588,81.37325Z"/><polygon class="cls-2" points="46.017 75.036 45.917 75.112 46.026 75.086 46.017 75.036"/><path class="cls-2" d="M45.92979,75.2651l.10327.12255c.00434-.02514.01307-.07452.05433-.07531Z"/><path class="cls-2" d="M57.76958,28.81527c.10992-.22858-.02149-.189-.02308-.23224C57.59416,28.99056,57.80113,28.815,57.76958,28.81527Z"/><path class="cls-2" d="M58.63292,32.708l-.07855-.02851a4.04237,4.04237,0,0,0,.48156.36426A3.85682,3.85682,0,0,1,58.63292,32.708Z"/><path class="cls-2" d="M60.02318,33.72909l-.08387-.08393c-.111.00031-.22283-.00659-.33715-.017a3.05377,3.05377,0,0,0,1.30914.37952,5.8273,5.8273,0,0,0,1.14386-.07709,4.8762,4.8762,0,0,0-.90076.02558A2.23646,2.23646,0,0,1,60.02318,33.72909Z"/><path class="cls-2" d="M63.58232,33.83425l.08325-.01361c.07331-.02948.17328-.06958.346-.13886C63.87181,33.66225,64.37822,33.46743,63.58232,33.83425Z"/><path class="cls-2" d="M63.66557,33.82064c-.35785.14545.25659-.03833,0,0Z"/><path class="cls-2" d="M65.14915,33.10677a2.81489,2.81489,0,0,0-.319.20551c.08716-.00489.38642-.11383.28723-.04187C65.4655,33.11294,65.391,33.09975,65.14915,33.10677Z"/><path class="cls-2" d="M65.27934,32.95418c.042.00745.094-.00512.20075-.08111Z"/><path class="cls-2" d="M65.09325,33.03811c.01709-.06122-.05372.01324-.2.12017a3.2202,3.2202,0,0,1,.38611-.2041C65.21648,32.945,65.18724,32.89065,65.09325,33.03811Z"/><path class="cls-2" d="M64.45555,33.2073c-.8537.41851-.67706.48608.18182.04913C64.36772,33.34841,64.03148,33.47786,64.45555,33.2073Z"/><path class="cls-2" d="M61.82139,33.73391c-.102.037-.20666.06946-.31378.09814.16028-.02868.725-.066.6875-.12366C62.071,33.72341,61.9456,33.73018,61.82139,33.73391Z"/><path class="cls-2" d="M67.78514,32.95192c.02991-.03619-.13855-.10974-.16956-.1604l-.33355.03357C67.45445,32.85152,67.77086,32.89339,67.78514,32.95192Z"/><path class="cls-2" d="M67.61558,32.79152q.24326-.02013.49128-.0274C67.67052,32.71383,67.59,32.75167,67.61558,32.79152Z"/><path class="cls-2" d="M65.509,32.66219c-.078.03259-.13929.07953-.21369.11578.11811-.05352.23847-.10522.36481-.14917Z"/><path class="cls-2" d="M65.29533,32.778a3.19659,3.19659,0,0,0-.46911.25416A3.25679,3.25679,0,0,1,65.29533,32.778Z"/><polygon class="cls-2" points="69.601 33.278 69.311 33.293 69.823 33.295 69.601 33.278"/><path class="cls-2" d="M70.79564,33.838a7.67753,7.67753,0,0,0,.87866.229,4.696,4.696,0,0,1-.879-.40912C70.57512,33.65114,71.017,33.87508,70.79564,33.838Z"/><path class="cls-2" d="M69.29039,33.10232l-.16528-.14826-.1908-.0415A.79359.79359,0,0,0,69.29039,33.10232Z"/><path class="cls-2" d="M69.11912,32.94918l.006.00488.4093.1062Z"/><path class="cls-2" d="M66.8054,32.6097c.28962-.07074.92182-.1181.31513-.21936C66.90648,32.466,67.24852,32.512,66.8054,32.6097Z"/><path class="cls-2" d="M68.099,32.72225c.18933-.00342.38025-.0033.57215.00476-.1734-.038-.34772-.07043-.52271-.09851C68.156,32.6578,68.24522,32.71,68.099,32.72225Z"/><polygon class="cls-2" points="68.864 32.77 68.934 32.741 68.671 32.727 68.864 32.77"/><path class="cls-2" d="M71.31816,33.71139a3.5779,3.5779,0,0,1,.73065.26684,7.19826,7.19826,0,0,0-.83874-.409C71.15745,33.58443,71.0128,33.58919,71.31816,33.71139Z"/><polygon class="cls-2" points="74.483 35.406 74.458 35.364 74.438 35.373 74.483 35.406"/><path class="cls-2" d="M71.1696,33.53127a1.24629,1.24629,0,0,0-.48163-.14606c.16547.05024.33942.1092.5221.184C71.23363,33.56252,71.24077,33.55465,71.1696,33.53127Z"/><path class="cls-2" d="M72.50975,34.26064a1.09906,1.09906,0,0,0,.32745.23737C72.74205,34.42171,72.62907,34.34286,72.50975,34.26064Z"/><path class="cls-2" d="M70.37883,33.34438l-.034-.00641C70.40849,33.38357,70.40324,33.37,70.37883,33.34438Z"/><path class="cls-2" d="M70.37883,33.34438a2.94909,2.94909,0,0,0,.30914.04083,3.554,3.554,0,0,0-.37286-.09338A.40383.40383,0,0,1,70.37883,33.34438Z"/><path class="cls-2" d="M73.62364,34.7961,73.4304,34.693a3.205,3.205,0,0,1,.56379.51441c.325.15961.40325.1795.44415.16528-.28583-.21191-.58045-.41492-.88635-.60278Z"/><path class="cls-2" d="M73.0302,34.15438c-.58448-.29675-.44648-.1358-.81781-.26325.95153.44391-.29242-.08551.35394.31147l-.51752-.22437c.16309.09424.32092.18414.46094.28241l-.01807-.017-.00445-.002.00165-.001c-.03357-.03265-.043-.04675-.00171-.01648l.0202.00806a.11815.11815,0,0,1,.06024-.01447c.25714.15894.029.0467-.06024.01447-.00543.00311-.015.00378-.01849.00842l.0028.003q.4769.21012.93872.44934a6.48562,6.48562,0,0,0-.86255-.47577C72.7711,34.19625,73.26042,34.41475,73.0302,34.15438Z"/><path class="cls-2" d="M67.694,32.1744c.03272.01153.03077.0191.03284.027C67.79668,32.19246,67.82371,32.18508,67.694,32.1744Z"/><path class="cls-2" d="M67.66514,32.32754l.0752-.01008a2.21188,2.21188,0,0,1,.86249.28211,1.27672,1.27672,0,0,0-.47534-.32648,1.144,1.144,0,0,1-.39515.01587c-.21533-.04547.00354-.05151-.00549-.08752C67.57225,32.22036,67.193,32.25789,67.66514,32.32754Z"/><path class="cls-2" d="M70.48192,33.02785c.282.07935.56372.16474.84228.26178l-.38525-.25238.00159.06061C70.47612,32.90273,70.55437,33.008,70.48192,33.02785Z"/><path class="cls-2" d="M74.53093,35.50551l-.15918.02643c.16608.04895.32275.11133.48755.16821Z"/><polygon class="cls-2" points="75.39 36.195 75.293 36.241 75.546 36.392 75.39 36.195"/><path class="cls-2" d="M60.9904,52.98379l.16083.03619a2.31662,2.31662,0,0,1,.62115-.28662C61.36113,52.80587,60.89525,52.91207,60.9904,52.98379Z"/><path class="cls-2" d="M68.54033,58.64577c.14789-.06372.207-.104.19525-.12573C68.58263,58.58407,68.49937,58.63009,68.54033,58.64577Z"/><path class="cls-2" d="M75.23393,47.45382l.12988-.10443c.14417-.18512.28254-.36268.45191-.58014A2.83911,2.83911,0,0,0,75.23393,47.45382Z"/><path class="cls-2" d="M60.8961,26.08632a2.19837,2.19837,0,0,0-.43127.21A3.94808,3.94808,0,0,1,60.8961,26.08632Z"/><path class="cls-2" d="M77.6533,39.80581c-.06323-.21326-.01959-.03119,0,0Z"/><path class="cls-2" d="M77.60319,39.46938l.05433.28308A2.26016,2.26016,0,0,0,77.60319,39.46938Z"/><path class="cls-2" d="M77.56822,39.52846l-.05078-.18878C77.48967,39.31972,77.49205,39.3453,77.56822,39.52846Z"/><path class="cls-2" d="M77.73357,40.10525c-.02942-.12378-.05658-.23932-.076-.35279.0036.0445.00213.06378-.00422.05335Z"/><path class="cls-2" d="M66.16142,51.53939c.08289-.00775.16443-.03064.24762-.03345A2.38424,2.38424,0,0,0,66.16142,51.53939Z"/><path class="cls-2" d="M86.4163,39.63717c-.04138.10363-.08239.20593-.13159.30841-.03979-.2796-.09839-.55609-.14947-.83393-.02014-.2229.07983-.32843.19342.27289a1.7653,1.7653,0,0,0-.36536-.977c-.28241-1.15533.34174.384.23517.03766-.04584-.16052-.1059-.31622-.15826-.4743l.01324.11371a4.95894,4.95894,0,0,1-.52167-1.05408c-.14441-.437.012-.26032-.05249-.43024.01233-.00409-.00641-.06323-.10541-.25873-.1477-.32623-.29541-.65527-.46514-.97168.03015.1471.05169.29712.07019.44727-.272-.39221-.47553-.8808-.37513-.37714a6.207,6.207,0,0,0-1.13555-2.00647c-.57666-.76855-1.24561-1.40539-1.37049-1.592-.54431-.38763-1.01367-.82861-1.634-1.33655.13739.14753.12628.34595-.397-.09509.41156-.12274-.92054-.86993-1.2641-1.36676.34558.38336-1.7016-.99127-1.1457-.39142-.4851-.30688.0329-.12555-.30822-.41009a43.91334,43.91334,0,0,0-4.27039-2.01038c-.03949.03278.2052.18921-.16009.13123-.2566-.167-.51477-.33728-.78125-.49359-.3299-.08045-.36646.14587-.9173-.16364.07416.059.18341.14728-.03674.10065a14.15241,14.15241,0,0,0-5.02246-.69153,24.36717,24.36717,0,0,0-5.113.80194c.47632-.08759.17865.01971-.15137.17.22431-.07391.03754.10206.10376.13849a6.85671,6.85671,0,0,0-1.369.55487,5.07835,5.07835,0,0,1-.66638.65577c-.27649.2763-.50378.58483-.48242.694.08563-.13257.17462-.2652.271-.39118-.128.30566.08825.18561.35449.06995.02606-.012.05328-.02234.08-.03394a3.96541,3.96541,0,0,0-.7854,1.11347,3.011,3.011,0,0,0-.04419,2.69592,3.64557,3.64557,0,0,0,1.76068,1.81824,2.98738,2.98738,0,0,0,2.08984.10894,11.23006,11.23006,0,0,0,2.27582-.89428,6.36012,6.36012,0,0,1,3.15454-.48218,12.09278,12.09278,0,0,1,4.5,1.22876c.51312.2384.98529.49316,1.43768.7558l-.00909.05645c.23645.13807.412.20948.31378.12153.21777.133.4245.2705.62732.40954-.4115-.16144-.29114.26764-.0509.65741.03741-.0238.06536-.065.52087.21655-.10406-.16357-.88519-.806-.46368-.61493.61395.37952.45324.3794.6914.63459-.12372-.25458.56159.26806.75739.27423a9.66953,9.66953,0,0,1,.77441.822l-.01129.1734.20978.1001-.16-.22888a8.26611,8.26611,0,0,1,1.06452,1.63385,7.09731,7.09731,0,0,1,.45038,1.21942c-.0138-.00586-.02393.00274-.02442.04767.03693.13122.08539.26025.113.39428-.02258.38153-.318-.70654-.25085-.19873-.20466-.50378-.51069-1.00793-.81336-1.68506l.06146-.19738a1.969,1.969,0,0,0,.28766.64581c-.17541-.25147-.37268-1.13086-.75506-1.294.08007.16028.13922.33179.20819.494-.34919-.41376-.8711-.81738-1.29279-1.31061.09918.31324.12018.0979.29553.55262-.04852-.22016.22657.0877.45063.39587.22735.304.40869.606.33337.27393.08.50244.36212.741.43372,1.36181.03991-.036.01281-.23358.17889.26532a.48045.48045,0,0,1,.07861.09467l.00714.035-.00311-.02954c.0141.01935.01624.02081-.00128-.011a1.12037,1.12037,0,0,1-.02033-.28021,4.25737,4.25737,0,0,1,.5257,1.32379c.01709.32367-.0744-.12555-.10565.05634.04907.13836.09735.27887.13336.42285-.098.05658-.16449.84393-.24542.11023a5.72635,5.72635,0,0,1-.00653.65924c-.08045.38586-.18488.90448-.2237,1.23914-.0924.2984-.10424.80627-.10284.51525a9.39076,9.39076,0,0,1-.31366,1.02582l-.02966-.00219a13.14021,13.14021,0,0,1-.91559,1.77954.17545.17545,0,0,0,.02948-.1045l-.50824.5951a3.5525,3.5525,0,0,0,.4541-.45429,4.36656,4.36656,0,0,1-.906,1.03443,4.26511,4.26511,0,0,1-.92694.92883l-.15039-.0033c-.32617.32276-1.16406.68506-1.29046.85541a18.42942,18.42942,0,0,0-2.89051,1.15826l.01441.1316c-.52576.22558-1.02478.38318-1.71228.61242l.06958.09833a25.45711,25.45711,0,0,1-2.56293.49017.60656.60656,0,0,1,.24713-.08172c-1.1543.10766-2.27679.64514-3.31879.83453a2.28489,2.28489,0,0,1-.64306.239.43667.43667,0,0,0,.06348-.03009.84693.84693,0,0,0-.10822.04224l-.38245.10834a2.96971,2.96971,0,0,0,.32581-.08222,7.25992,7.25992,0,0,0-.77.41l-.177-.04114-.06464.03888c-.303.11365-.19726.17169-.00561.17084a3.04171,3.04171,0,0,0-.33649.267c-.3161-.02526-.6803.49121-1.07159.53778-.12195.17749-1.06037.93042-1.16437,1.26886a3.01915,3.01915,0,0,0-.71723.72138l-.21447.00293c-.13214.22992-.246.471-.359.70923-.37232.29077-.54346.40735-.33026-.02234a13.38353,13.38353,0,0,0-.92841,1.62671l-.05475-.0943c-.19928.27624-.37536.80432-.55267.932a9.6378,9.6378,0,0,0-1.27673,2.0268,12.98163,12.98163,0,0,0-1.29224,3.1366c.17523-.18543.09564.04809.046.365-.05908.315-.02472.74432.10547.7583-.0362.14453.04993.49225-.13959.128a3.68954,3.68954,0,0,0,.7688,1.23913,2.09923,2.09923,0,0,0,.89783.59662c.0664.12543-.24781-.03985-.17859.05359a1.45372,1.45372,0,0,1,.397.22193c.0744.08935-.16485-.02539-.32721-.09449.96332.55634,1.15631.34058,1.30176.20417a1.63656,1.63656,0,0,0,1.09918.35955c.15882.10511.44208.26349-.19494.10175a5.07161,5.07161,0,0,0,1.26007.29315c.5506.06037,1.08813-.10284,1.07812-.1889a1.27414,1.27414,0,0,0,.61029-.27887,2.31871,2.31871,0,0,0,.68451-.64081,3.77714,3.77714,0,0,0,.40607-.76062l-.11377.18079c-.0462-.35529.23022-.59522.48053-1.15857l.01.02453c.75738-1.19891.20526-.58276.99829-1.73572l-.14148.009c-.16608-.24158.72467-1.009,1.07666-1.72638l-.2132.20807c.15857-.42737.96363-.83014,1.24915-1.12567.07458-.057-.0625.13342-.12506.248.79864-.74768-.04914-.22009.46472-.84625.16406-.04163.01672.27753.40961-.06921.12017-.06055.36206-.36164.7102-.65839a2.98256,2.98256,0,0,1,1.16962-.66968c-.17774.01129-.36041.025-.02881-.18481a21.39655,21.39655,0,0,0,2.06952-.69318c.08057-.005.11407.003.12207.01758a14.08894,14.08894,0,0,0,1.68439-.701c.53625.30591,2.75421-1.12872,2.86462-.75226l1.39111-.49273-.02172.04852a3.94181,3.94181,0,0,0,1.3919-.81506c.20624-.07019.07837.0307.07038.05676a8.47974,8.47974,0,0,0,2.3377-1.26666l.16523.05224a11.06549,11.06549,0,0,0,2.81073-1.90161c-.0008.01947-.00617.05634-.07691.14221.53937-.5603,1.24884-1.158,1.80225-1.75494.55481-.592.95038-1.16638.91461-1.52558q.23063-.45675.43078-.92358c-.69067,1.1048-.0689-.26349-.40466.15869.23615-.44287.74378-1.08679.47638-.52154l-.06653.07544c.12226.32782.79474-1.4087.90345-1.32459A13.1046,13.1046,0,0,0,86.4163,39.63717Zm-1.01568-3.10743.03717.16675C85.25676,36.36251,85.32719,36.44723,85.40062,36.52974ZM74.66093,34.81063c.22065.1557.43048.31579.63275.47882A3.721,3.721,0,0,1,74.66093,34.81063Zm.83368.6438.00354-.00012.03345.027C75.519,35.4728,75.50731,35.46279,75.49461,35.45443Zm2.40979,6.78534.00385.01849C77.80229,42.61849,77.844,42.49129,77.9044,42.23977Zm-.455,2.726a3.27489,3.27489,0,0,0,.40246-1.4361,4.53709,4.53709,0,0,1,.20776-1.23315c.19129-.50983.26819.00726.3772-.09692a5.17978,5.17978,0,0,1-.42431,1.54309c.08813-.18256.15313-.37317.22979-.56195a2.772,2.772,0,0,1-.25366.949,1.45222,1.45222,0,0,0,.104-.20221,10.29663,10.29663,0,0,1-.40332,1.01416c-.12316.26508-.27893.49622-.417.74579.0517-.14832.1294-.33545.05194-.271q-.13393.2959-.28564.58429c.00134.04108.03363.02167.07849-.0357-.18823.31958-.38562.62976-.59937.92285.10474-.34894.33582-.87494.59662-1.4928C77.46458,44.5917,77.40629,45.114,77.44939,44.96578Zm-3.6717,4.51129c-.19177.11743-.39245.22571-.59539.33161.14563-.12629.30371-.2547.44378-.36219C73.621,49.49123,73.70811,49.48562,73.77769,49.47707ZM69.1223,51.11214c.04346-.00635.36438-.053.72137-.10486.34949-.06128.71967-.16735.87061-.17425.08264-.00458.10834.0177.11419.04931-.26324.10566-.51623.20331-.74835.28449-.0227.008-.05224.01611-.0755.02411l-.07782-.17267-.03869.2099c-.24207.08038-.51624.16125-.81739.24237A.35521.35521,0,0,1,69.1223,51.11214Zm-4.11286.99164.76654-.2655a9.49857,9.49857,0,0,1-.83538.53253c-.45386.10046-.7992.18518-1.02509.2536-.11719.03021-.22748.08081-.34344.11469a3.72017,3.72017,0,0,1,1.22052-.67164ZM58.50853,55.3033a.2247.2247,0,0,0-.01953.07654C58.46232,55.36684,58.38548,55.42055,58.50853,55.3033Zm-1.14038,1.65339c-.1322.15509-.26581.30609-.39545.46887.0683-.20374.13281-.408.21014-.61066C57.19249,56.89321,57.27617,56.92531,57.36815,56.95669ZM55.88847,67.81435c-.101-.07513.01221-.07873.19031-.08258l-.18414-.03448c-.126-.082-.14966-.12622-.13214-.15485.15515.06866.30609.13068.45379.18762l-.13751.00171.24969.04468c.06348.0235.1258.04523.18781.06653a2.99364,2.99364,0,0,0,.35486.22717A8.32033,8.32033,0,0,1,55.88847,67.81435Z"/><path class="cls-2" d="M76.61888,37.74013c.097.13068.20178.25782.28979.39508a2.56542,2.56542,0,0,1-.20434-.39441C76.68718,37.76595,76.70476,37.86641,76.61888,37.74013Z"/><path class="cls-2" d="M76.66771,37.12734c.05127-.09125-.17267-.33307-.43634-.58521l.04321.0478C76.099,36.60689,76.39317,36.85506,76.66771,37.12734Z"/><path class="cls-2" d="M75.93468,36.24294c-.071.01105.08947.103.23754.239Z"/><path class="cls-2" d="M77.88353,40.50863c.0061-.16529-.1438-.07953-.11792-.17554C77.627,40.16854,78.057,41.37642,77.88353,40.50863Z"/><path class="cls-2" d="M77.92961,38.71132c-.01556.01642-.058-.04742-.10455-.12768.15289.33221.2536.71954.28326.6947C78.0587,39.087,77.99547,38.89876,77.92961,38.71132Z"/><path class="cls-2" d="M77.59587,38.166l.22919.4176A1.9484,1.9484,0,0,0,77.59587,38.166Z"/><path class="cls-2" d="M58.75432,27.33791a4.66438,4.66438,0,0,0-.41773.39783,2.94516,2.94516,0,0,1,.30384-.22815Z"/><path class="cls-2" d="M58.03075,28.33419l-.02655.36859a1.28457,1.28457,0,0,1,.23406-.40118C58.16807,28.3099,58.09782,28.32,58.03075,28.33419Z"/></g></g></svg>