<svg xmlns="http://www.w3.org/2000/svg" viewBox="0 0 104.16942 117.48159"><defs><style>.cls-1{fill:#1d1d1b;}.cls-2{fill:#c66e6e;}</style></defs><title>Question_04</title><g id="Layer_2" data-name="Layer 2"><g id="Layer_1-2" data-name="Layer 1"><path class="cls-1" d="M103.12094,52.5457a50,50,0,1,0-60.06739,48.98584l4.3429,6.32794,5.72449,8.34107,5.72442-8.34107,4.3429-6.32788A50.01725,50.01725,0,0,0,103.12094,52.5457Z"/><path class="cls-2" d="M100.66942,52.91179c.0581-.4627-.36853-.29681-.44055-.36608C100.28587,53.313,100.77928,52.89458,100.66942,52.91179Z"/><path class="cls-2" d="M100.94078,60.67324l-.15051-.16461a9.1622,9.1622,0,0,1,.21362,1.2041A7.55038,7.55038,0,0,0,100.94078,60.67324Z"/><path class="cls-2" d="M99.16148,67.72552c.86963-.44935.75452-2.53657,1.21424-3.74894l.20507-.17187-.43164-.7c-.1427.77014-.17419,1.69323-.34948,2.524A9.00365,9.00365,0,0,1,99.16148,67.72552Z"/><path class="cls-2" d="M96.376,70.75759c.34521-.10629-.09241.84479.41736-.77686a1.36145,1.36145,0,0,1-.12647.12046C96.61253,70.24318,96.53111,70.43639,96.376,70.75759Z"/><path class="cls-2" d="M96.66685,70.10119c.26685-.69214-.40295.36053,0,0Z"/><path class="cls-2" d="M95.42113,73.30431l.22668-.97629c-.23767.11472-.67578.86255-.63269.5264C94.67686,73.79574,94.91466,73.69311,95.42113,73.30431Z"/><path class="cls-2" d="M95.45409,74.36889l.14355-.50345C95.49449,73.91457,95.41112,74.02285,95.45409,74.36889Z"/><path class="cls-2" d="M95.90074,72.80544l-.3031,1.06c.16907-.07486.38428.01257.15906-.47827C95.90526,73.55944,95.823,73.27776,95.90074,72.80544Z"/><path class="cls-2" d="M96.25731,72.29491c.35241-.44613.71985-1.07672.56213-.0516C97.46214,70.43874,96.8867,70.51375,96.25731,72.29491Z"/><path class="cls-2" d="M99.74852,68.3164l.43176-.66922-.02637-.70676C100.166,67.29384,99.52171,68.29134,99.74852,68.3164Z"/><path class="cls-2" d="M92.06724,78.3966c.09363.13617.51282-.05429.71521-.011l.24207-.70905C92.7368,77.93667,92.28038,78.4804,92.06724,78.3966Z"/><path class="cls-2" d="M92.78245,78.38561l-.36657,1.06989C92.964,78.64358,92.956,78.42476,92.78245,78.38561Z"/><polygon class="cls-2" points="96.075 74.892 96.426 73.033 95.919 75.209 96.075 74.892"/><polygon class="cls-2" points="89.632 81.707 89.723 81.004 89.484 82.201 89.632 81.707"/><path class="cls-2" d="M87.90159,83.81457c.08338-.52848-.77685.12771-.593-.34531a7.25745,7.25745,0,0,0-.91309,1.789A4.47857,4.47857,0,0,1,87.90159,83.81457Z"/><path class="cls-2" d="M85.92808,86.14586a6.94707,6.94707,0,0,0,.46741-.88763A3.661,3.661,0,0,0,85.92808,86.14586Z"/><path class="cls-2" d="M91.24254,80.90978a1.22771,1.22771,0,0,0-.863.42157l.59766-.08179Z"/><path class="cls-2" d="M90.99718,81.24575l-.02.00381c-.29126.36518-.49341.61847-.58.727C90.473,81.88433,90.65355,81.66442,90.99718,81.24575Z"/><path class="cls-2" d="M91.30968,80.82439l-.06714.08539C91.30125,80.90185,91.32774,80.89022,91.30968,80.82439Z"/><path class="cls-2" d="M94.3275,77.24822c-.141.66812-.66126,1.97046.35888,1.03931C94.68968,77.73559,94.1096,78.26357,94.3275,77.24822Z"/><path class="cls-2" d="M92.06541,80.71175c.25782-.297.5398-.57828.7793-.88983-.10559-.044-.35327.04065-.28015-.29758C92.43065,79.93947,92.23106,80.31225,92.06541,80.71175Z"/><polygon class="cls-2" points="91.827 81.251 92.065 80.712 91.773 81.038 91.827 81.251"/><path class="cls-2" d="M87.602,85.02086a3.85981,3.85981,0,0,1-.99975,1.35752,8.02314,8.02314,0,0,0,1.48535-1.36026C88.05138,84.85747,88.06492,84.48165,87.602,85.02086Z"/><path class="cls-2" d="M89.33922,83.26473l-.056.09872C89.35655,83.33587,89.40233,83.30248,89.33922,83.26473Z"/><polygon class="cls-2" points="81.984 90.387 82.109 90.387 82.082 90.314 81.984 90.387"/><path class="cls-2" d="M88.22093,84.9887a1.68315,1.68315,0,0,0,.613-.913,11.40668,11.40668,0,0,1-.74634.94245C88.10411,85.09032,88.12828,85.12337,88.22093,84.9887Z"/><path class="cls-2" d="M84.8358,87.4489a8.18374,8.18374,0,0,0,.7865-.41876C85.344,87.10631,84.82713,87.304,84.8358,87.4489Z"/><path class="cls-2" d="M89.08067,83.41167l.03552-.06784C88.93724,83.40542,88.985,83.41955,89.08067,83.41167Z"/><path class="cls-2" d="M89.08067,83.41167a3.39724,3.39724,0,0,0-.2467.664,6.03792,6.03792,0,0,0,.44922-.71222A.74559.74559,0,0,1,89.08067,83.41167Z"/><path class="cls-2" d="M82.07432,93.7307c-.077-.191.12732-.542.48572-.906a3.52662,3.52662,0,0,1,1.44983-.97547c.736-.96441-.6991-1.48825-1.90137-1.462.07666.159.17908.28421-.59582,1.19708.44311-.07373,2.34387-1.219,1.78711-.31708-1.11633,1.13031-1.074.71949-1.83167.96424.83277.0379-1.25317,1.69748-.57019,2.11453l1.02539-.99048C82.01109,93.43255,81.689,93.86391,82.07432,93.7307Z"/><path class="cls-2" d="M83.85411,89.05141l.34009-.332a5.60418,5.60418,0,0,1-1.6211.6004c-.49023.63684-.52978.85669-.49157.99463l1.86157-1.409Z"/><path class="cls-2" d="M85.75133,87.26742c.028.56579-.69324,1.49786.1361,1.35656,1.01551-.99792.4795-.94635.96216-1.65735-1.57776,1.63178.3053-.61682-1.05175.32477a10.03853,10.03853,0,0,1,.80444-.913c-.33118.2395-.65943.45926-.98.65176l.05566-.01562.00672-.00821.00317.00641c.10693-.027.15271-.02518.052.02679a.16153.16153,0,0,1-.028.03839.40782.40782,0,0,1,.03784.18778c-.53381.38086-.15064-.01194-.03784-.18778a.28914.28914,0,0,0-.02405-.06518l-.00989.0018c-.49353.56384-.97058,1.15228-1.48376,1.70486A10.81117,10.81117,0,0,0,85.75133,87.26742Z"/><path class="cls-2" d="M94.80321,79.83608a.10521.10521,0,0,1-.12378.00855C94.64244,80.00188,94.64146,80.07079,94.80321,79.83608Z"/><path class="cls-2" d="M94.07139,80.50667a1.36234,1.36234,0,0,1,.30506-.83416c.36377-.33319.17151.115.303.17212.08435-.347.36218-1.15079-.36878-.38682l-.03894.17109c-.59692.73419-1.76526,1.36264-1.71789,1.195A2.93245,2.93245,0,0,0,94.07139,80.50667Z"/><path class="cls-2" d="M90.09849,84.27065l-1.12475,1.56854.93262-.48037-.20044-.11219C90.5056,84.488,90.13866,84.48382,90.09849,84.27065Z"/><polygon class="cls-2" points="81.688 90.349 81.604 89.834 81.15 91.018 81.688 90.349"/><polygon class="cls-2" points="79.747 91.794 79.598 91.417 79.202 91.968 79.747 91.794"/><path class="cls-2" d="M5.03575,31.79729l.159-.59085A3.63018,3.63018,0,0,0,5.03575,31.79729Z"/><path class="cls-2" d="M3.46843,35.88384l.14813.16248C3.58385,35.82247,3.53752,35.71856,3.46843,35.88384Z"/><path class="cls-2" d="M36.78587,97.13292c-.31421-.30346-.62658-.6596-.8678-.88336-.23156-.24878-.39721-.35891-.43786-.133l.06067.50174A3.912,3.912,0,0,1,36.78587,97.13292Z"/><path class="cls-2" d="M6.25566,70.23919l-.02856.27462.60467.37366C6.65776,70.69167,6.46153,70.47091,6.25566,70.23919Z"/><path class="cls-2" d="M4.34782,70.30214l-.08459-1.18576A6.41238,6.41238,0,0,0,4.34782,70.30214Z"/><path class="cls-2" d="M18.82262,12.40047l.24462-.817C18.23662,12.33819,18.748,12.17586,18.82262,12.40047Z"/><path class="cls-2" d="M57.56993,105.51992a9.56538,9.56538,0,0,0-1.23987,1.344C57.02989,106.2842,57.73717,105.91469,57.56993,105.51992Z"/><path class="cls-2" d="M8.69084,35.08419c.04236-.34558.01-.51492-.083-.54184C8.55705,34.89828,8.56706,35.113,8.69084,35.08419Z"/><path class="cls-2" d="M55.146,108.59188c.10815-.08078.19727-.17182.301-.25833a9.12893,9.12893,0,0,1,.88305-1.46967A3.09421,3.09421,0,0,0,55.146,108.59188Z"/><path class="cls-2" d="M95.71751,21.976c.02185.062.05982.12833.07532.18759C95.852,22.14486,95.80247,22.07284,95.71751,21.976Z"/><path class="cls-2" d="M100.69371,45.82857c-.06128-.22192-.11792-.58972-.17651-.93576A3.59614,3.59614,0,0,0,100.69371,45.82857Z"/><path class="cls-2" d="M71.11973,96.24532c.45618-.23459.05567-.07733,0,0Z"/><path class="cls-2" d="M74.13023,96.78411a.2897.2897,0,0,0-.10388.27685A.37066.37066,0,0,1,74.13023,96.78411Z"/><path class="cls-2" d="M54.2877,114.6144l-.02734.03723C54.37877,114.62932,54.35826,114.63064,54.2877,114.6144Z"/><path class="cls-2" d="M71.901,96.113a4.72854,4.72854,0,0,0-.64953.14837A4.89363,4.89363,0,0,0,71.901,96.113Z"/><path class="cls-2" d="M71.72508,95.96682l.42542-.14331C72.18016,95.73119,72.11,95.71258,71.72508,95.96682Z"/><path class="cls-2" d="M70.47764,96.55785a5.72838,5.72838,0,0,1,.77381-.29645c-.10315.01392-.15088.00843-.13172-.01608C70.98448,96.31112,70.79368,96.404,70.47764,96.55785Z"/><path class="cls-2" d="M56.26524,1.38839c.03589.01553.07764.02646.11634.04706C56.95311,1.28411,56.70543,1.30031,56.26524,1.38839Z"/><path class="cls-2" d="M22.3549,94.48058c.02326.01285.04084.01233.06275.023l-.05616-.0639Z"/><path class="cls-2" d="M20.57024,93.476a2.35947,2.35947,0,0,1,1.79125.96366l.23035-1.4137Q21.59722,93.26368,20.57024,93.476Z"/><path class="cls-2" d="M10.03361,22.59316a10.37515,10.37515,0,0,0-1.12927.97107,7.96888,7.96888,0,0,1,.71027-1.92944c.14306-.348.06439-.3798-.57154.01526.247.23748.16492.64379-.07556,1.13476a14.27244,14.27244,0,0,1-.90545,1.73895c-.703,1.22162-1.402,2.44583-.85743,2.855a9.4077,9.4077,0,0,0-.68322.70468c.12994-.23815.07831-.31494.20752-.55038-1.3833,1.36572.27514,1.68372-.90973,3.70023-.44782.69174-.87775,1.13339-.78345.56405-.1778.58893-.23486,1.22483-.35535,1.82956-.20709.48831-.38318.28317-.176-.206l-.85694,2.65759-.03088-.03207c.05737.44043.07,1.38156.12323,1.849-.36206.62335-.05029-.38117-.25726-.2565l-.06537,1.57022c-.496.51519-.50885-.80622-.192-1.82788-1.66565,1.02975.00794,1.324-1.53375,4.15805L1.888,40.07482a3.12639,3.12639,0,0,0-.98181,1.44287c-.233.58655-.35376,1.28717-.7312,2.08307.15436-.17911.58167-.96411.9773-1.47006.4093-.50522.80688-.73041.79724.12121a3.78337,3.78337,0,0,0-.18323,1.99472c-.47784-.06927-.49548.82856-.63391,1.92768l-.6236-.15284c-.00506,1.22052.33649,1.15821.59162,1.88791A2.03605,2.03605,0,0,1,.02708,49.77779c-.20971,2.15375.86756-1.44281.86115,1.09848-.39044,1.76737.00873,3.03446.46857,5.11447-.16388,1.25043-.40009-.1893-.56269.26667.19068.35577.36316.70947.56848,1.05691.02283.26676-.14453.196-.22906.15952.31787.89691.64624.017,1.00812,1.42114.761.26666-.69336,3.10382.56854,4.69946-.081.46927-.42951-.12408-.64215.05939a12.456,12.456,0,0,0,2.07867,3.71l.11652,1.75253c.09381-1.35281,1.06274.02341,1.99243,1.12281.0387-.47742.12262-.89676.14209-1.164a21.65592,21.65592,0,0,0,1.10236,1.87835c.00189.278-.28376.16333-.66834-.0661.10565.117.208.22672.2945.309.07782.80271-.41456.58033-.9632.19129.01392-.29474.0376-.589.064-.874-.5802-.35418-1.15766-.69235-1.46528-.45986a3.67414,3.67414,0,0,1,.42792.6217c-.15375-.09567-.27752-.14822-.31177-.06394-.034.09385.18842.261.48023.53867l-.4671.734.31042.00912c.246.95826.46381,1.93924.74512,2.89975a46.25639,46.25639,0,0,1,5.34485,5.24411c-.86872-.395-.80927.31818-1.34986.62238A2.4365,2.4365,0,0,0,9.05968,79.035c-.25245-.28286-.55225-.56958-.80433-.90261a5.85027,5.85027,0,0,1-.64129-1.10379c.35675.83416.00812.80358-.18982.64694a29.62877,29.62877,0,0,0,2.10052,2.35568c-.46576.21164.03016.75851.29145,1.56152.2619-.54394.67791-.12732,1.2171.47455a22.26,22.26,0,0,0,1.66693,1.82688c-.218.26907-.67188.23959-1.53479-1.0355.4433,1.80268,2.21436,1.04944,2.771,2.69629-.254-.27148-.35108-.44967-.56665-.46274.78595.47306,2.03576,2.18763,1.48266,2.01987l-.25427-.27276c.39227.48117.90466,1.07406,1.46558,1.68649.59185.58212,1.2644,1.15231,1.892,1.66855a12.15246,12.15246,0,0,0,1.73578,1.23327c.52374.25357.92883.36325,1.13532.25586a3.89738,3.89738,0,0,1-1.13672.62494q1.33209.14712,2.61767.25446a23.52612,23.52612,0,0,0,2.56086.12506c-.74494.37481-.50592,2.64474-2.451,1.81561A5.80959,5.80959,0,0,0,24.57982,95.921c-.2843-.31439-.24372-1.43176.24621-1.18549a10.27167,10.27167,0,0,0,1.83557,2.52265c-.45-.42746.7287-1.08408,1.52442-.60413-.21387.07782-.48724,1.02258-.85364.95661l2.60907.15329c-.605-.10178-.5332.79437-.20294,1.338-.14588-.2656,1.87652.87778,2.50537,1.04062l-.818-.64908c2.40405,1.25244,3.01086-.33426,5.43408.53586a.872.872,0,0,0,.02038,1.669c.389-.185,1.23914-.57824,2.27332-1.00067a11.74407,11.74407,0,0,1,1.64868-.5654,4.64946,4.64946,0,0,1,1.94934-.13769c.15454.15188.29053.29877.418.44369l.60144.054c.13159.123.2572.26047.38916.39453l.80957.84836c-.387-.181-.89038-.42584-1.3927-.62067-.0636-.02331-.124-.05069-.19018-.06851l-.27027.05325-.52612.11533c-.34253.08072-.66541.16925-.95288.26565a21.99373,21.99373,0,0,1-3.51294.79429c.89819.52645.16162.44992,1.64477.799.44666.43033-.93017.2493-1.37585.15509l1.712.5332.85583.26529.136.08276c.106-.29065.451-.49887.67627-.34384.1333.05768.25122.09918.41308.17707.20777.14456.37769.20648.47486.10058-.10279-.09848-.23938-.24618-.31446-.30426l-.2019-.14029q-.19611-.13175-.36865-.22919a4.611,4.611,0,0,0-.46912.05976l-.18457.045a.4998.4998,0,0,1-.18066.00006l-.24439-.0162c.00171-.17246.16663-.34061.44629-.4856a2.01465,2.01465,0,0,1,.80139-.43085c.09241-.02554.19129-.04794.29578-.0668l.161-.02566a.40981.40981,0,0,1,.11816.05316,2.92216,2.92216,0,0,1,.48267.34637,5.8169,5.8169,0,0,1,1.03992,1.2764c.12524.65533-1.24536.30026-1.40186.46841a5.575,5.575,0,0,1,1.64441,1.905l-.873-.637c.54834,1.24591,1.96985,1.29556,2.35047,2.98392.27844.48165.22351,1.85565.606,1.70956.12037-1.18008,1.97693-2.66873,2.79322-2.49747a24.32416,24.32416,0,0,1,1.08239,3.54282c.01319.5506-.42785.54138-.962.37768-.49036-.09988-.98157-.21975-.97449.247a.6012.6012,0,0,1,.40759.09369,3.3068,3.3068,0,0,1,.48108.34769c.3291.75656-.62719.09152.46436,1.53531.58044-.35892,1.97424,2.97839.79651.14227.98755,1.09476.90283,1.56314,2.01916,3.13718-.1615-.67432.25305-.85648.64405-.95069a20.55994,20.55994,0,0,1,.84667-2.33725.39481.39481,0,0,0,.32007.42075c1.45386-2.00964,2.5763-3.09814,3.89173-5.00458.25952-.08648,1.07055-.91516,1.03723-.34811a3.32751,3.32751,0,0,1,.47925-1.34894c1.28552-.83151-.84546,1.39414.3479.90671-.27454-.29993.61792-1.86609,1.00219-2.86347-.68554-.08242-1.45629,1.91468-1.84179,2.91312-.69849-.47345-.40125-2.46823.67712-4.729.93994-1.73981.932-.39423,1.02625-.74369a9.72021,9.72021,0,0,0,.66357-1.00189c.17053-.29977.36719-.67258.49732-.96982.13952-.31076.25231-.60388.35449-.88906a2.69176,2.69176,0,0,1,.574-.42951,7.32459,7.32459,0,0,1,.6405-.38165c.11866-.0622.24451-.12323.37977-.18274l.34545-.15024a4.74463,4.74463,0,0,1,1.65906-.31073c1.2926.23145.34363,1.01627.70215,1.32629a5.77217,5.77217,0,0,1-1.9198.386,8.3407,8.3407,0,0,0-1.7699.20838l1.54261-.12442c-.46717.37182-1.5813.48168-1.86023,1.09591a1.93407,1.93407,0,0,0,.42175-.36093l.06226-.06546.10314-.01324.21644-.03162.47009-.08231c.6427-.12127,1.46826-.31717,2.33911-.52566a26.76368,26.76368,0,0,0,2.65332-.75687,22.58929,22.58929,0,0,1,2.42688-.62143c.41443-.34463,1.132-.894.67432-.919-.26587.14025-.52442.3-.79737.42474-.47265-.077-.11438-.324.18286-.6026.303-.26715.57727-.49.02735-.35581a10.69613,10.69613,0,0,1,3.56823-2.2153l.55311.39493c-.11-.12985-1.119.19806-1.47828.53153.52991-.46622,2.6554-.45859,2.95154-1.51618l-1.224.18936a14.66871,14.66871,0,0,1,3.12268-2.719c-.86975-.14972-.24194.2507-1.46325.20364,1.22668.32947-3.22657,1.73117-1.53321,1.857a2.74337,2.74337,0,0,0-1.55627.208,4.15389,4.15389,0,0,1-1.752.275c.12243.167.60168.15573-.53479.55173a1.21878,1.21878,0,0,1-.16944.27035L71.901,96.113l.07007-.00507c-.03564.049-.03735.0567.02588-.00244a1.444,1.444,0,0,1,.68616.03156c-.36157.661-2.132,1.4779-2.69348,1.86227-.72107.14664.20678-.31638-.24292-.38974l-.80689.65811c-.24646-.39056-2.03955-.08459-.53271-.88391l-1.43311.475a7.12287,7.12287,0,0,0-2.80957.56454,4.88915,4.88915,0,0,0-.86218.24957c-.34106.12406-.63623.25376-.85535.35614-.4375.20475-.60193.30841-.16516.018-.7793.03549-1.00268.84637-1.38061,1.41022l-.52491.88772-.30017.5604-.10571-.0445c-1.442,2.00122-2.25952,4.60663-4.52331,6.47263-.18824.37439-.37513.758-.62635,1.18225-.12561.2121-.26733.43432-.43323.67059a1.54038,1.54038,0,0,1-.2622.29318,2.76666,2.76666,0,0,1-.3114-.233c-.04212.18125-.2323.28653-.35266.3498-.12635.07165-.20057.1271-.21473.50527a4.86969,4.86969,0,0,0-.12548-.48925c-.08045-.48893-.1344-.514-.26819-.59653a1.24281,1.24281,0,0,1-.21118-.14072.50514.50514,0,0,1-.089-.09909c-.11524-.16931-.24488-.37317-.33545-.53933l-.4585.2286a27.45092,27.45092,0,0,0-2.59973-3.22452l-.31372.33487c-1.08521-.93039-1.74634-3.10794-3.02039-4.88308.22547.02551.502.50769.63843.88955A5.76953,5.76953,0,0,0,45.354,100.394l-.49134-.67486-.25109-.327c-.09278-.09518-.2677-.07126-.39734-.11136l-1.67676-.26944-.40051-.0585-.24207-.0184-.48132-.04035c-.31922-.02969-.63416-.06656-.94007-.11993a3.47384,3.47384,0,0,1-1.66333-.65372,2.29063,2.29063,0,0,1-1.28979-.45151.44573.44573,0,0,0,.13965.02335c-.05274-.024-.13343-.05273-.2168-.0805-.20972-.1539-.421-.32166-.65735-.47883a3.18808,3.18808,0,0,0,.53955.43976,12.53927,12.53927,0,0,0-1.70886-.40008l-.07568-.55432-.14051-.04782c-.50634-.42066-.55163.00344-.37805.47729A4.1726,4.1726,0,0,0,34.123,96.965c-.15918-.92169-1.67786-.4596-1.968-1.49408-.5816.19552-2.99359-1.28916-3.741-.71619.03619-.10651-.10724-.24551.20819-.07989A6.12952,6.12952,0,0,0,26.787,93.59627l.07459-.68622-1.79242-.20516c-.60279-.84955-.79712-1.238.2716-1.09333-2.29077-.78341-1.63458-.92184-3.65472-1.58435l.3302-.24313c-.58362-.39771-1.74744-.8049-1.84332-1.34-.32013-.82721-1.76722-2.1311-3.21277-3.87485-.37244-.42431-.75757-.86312-1.14673-1.30645-.3429-.4802-.68927-.96521-1.03162-1.44458a13.95242,13.95242,0,0,1-1.67529-2.88129c-.55865,1.29681-.55817-1.86093-1.4093-1.51508.10913-.34228-.05426-.89016.49859-.46609a7.25657,7.25657,0,0,1-1.17816-2.16736,3.38273,3.38273,0,0,0-1.23431-1.62067c.14215-.32568.56653.21225.6178-.0429-.12488-.11908-.52649-.46414-.44361-.73542.07215-.25988.313.18238.58338.40632C9.657,70.948,8.83232,71.05956,8.02318,71.22725a2.39038,2.39038,0,0,0-1.07965-2.15853c.13079-.44928.20257-1.12754.6867.092-.17029-.73188-1.03467-4.38352-1.5982-4.3165a2.18309,2.18309,0,0,0-.2948-1.19751c-.15674-.818-.24207-1.26328-.3266-1.70456-.09412-.43918-.19538-.87235-.31482-1.68146l-.04346.46695c-.84631-.51913-.35022-1.33237-.61749-2.631l.08362.02869a8.04386,8.04386,0,0,0-.04755-2.17173,5.00455,5.00455,0,0,1,.11932-2.139l-.472.1759c-.51288-.124-.41986-.80539-.18591-1.655a6.11948,6.11948,0,0,0,.48541-2.73831l-.30518.61386c-.15222-.48587.23187-1.13754.674-1.76105.22431-.30783.45294-.62161.65753-.90243a2.56887,2.56887,0,0,0,.46552-.76587c.11993-.18891.0943.33291.11719.61777.97284-2.31662-.576-.38193-.44355-2.21012.3852-.27884.78772.55338,1.0318-.63351a1.6455,1.6455,0,0,0,.07856-.82782,9.65723,9.65723,0,0,1-.04493-1.4,5.595,5.595,0,0,1,.66565-2.92437c-.34185.28277-.686.57556-.66253-.30686a3.73579,3.73579,0,0,1,.39093-1.0556c.2182-.35892.45251-.74426.68268-1.12286a3.12755,3.12755,0,0,0,.61206-2.23121c.12316-.1297.20788-.16265.27044-.14477A11.50887,11.50887,0,0,1,9.154,32.525a5.06379,5.06379,0,0,0,.33679-1.82159c.4718-.0253.8291-.4068,1.12237-.958a15.78262,15.78262,0,0,0,.90723-1.8909c.56055-1.341,1.06067-2.61722,1.68622-2.17727l1.77014-2.50647.0758.15945a6.88028,6.88028,0,0,0,1.64789-2.98975c.38593-.26974.267.07276.30194.15342a15.70074,15.70074,0,0,0,2.09729-2.08734,13.18075,13.18075,0,0,0,1.48993-2.24344l.51618.20044a2.40708,2.40708,0,0,1,.71179-.66025c.18994-.13535.40118-.29288.6449-.44721l.81518-.45889a20.69366,20.69366,0,0,0,1.78284-1.129c.60107-.4147,1.13934-.939,1.68024-1.39569a.42008.42008,0,0,1-.14136.3451,9.74458,9.74458,0,0,1,2.12823-1.35972,16.00946,16.00946,0,0,1,2.37531-1.00018c1.55591-.53467,2.78845-1.08972,2.95788-2.17337.57789-.42313,1.19629-.76669,1.80152-1.15823-2.631.81234.102-.871-1.07288-.76059,1.00391-.48007,2.8451-.46161,1.618.08633l-.22717-.013c-.13782,1.04282,3.31384-.86856,3.45813-.13061,5.1211-1.63211,10.43421-1.51947,15.33667-1.33255l-.54993-.76044,1.74756.13058c.44873.193.5719.60175-.6582.50956.62024.44671,2.09265-.24335,2.15149-.39963,1.20215.24734.93066.48465.4751.57495-.46143.13226-1.12451.26077-.75708.28216a6.61694,6.61694,0,0,1,1.00036.03449l-.21386-.11954a3.99141,3.99141,0,0,1,2.42309-.214c.91138.287.40491.51795.76575.60141-.01087.05069.10754.09339.5553.10529a14.35887,14.35887,0,0,1,2.10815.51773l-.71924-.78214c1.004-.03427,2.00025.547,1.16284-.34411a4.746,4.746,0,0,0,1.75476.95395c.40235.14786.84546.28885,1.3075.42523.44751.18262.91382.36063,1.37781.53174.93152.33328,1.84607.66052,2.58154.9237a4.63411,4.63411,0,0,1,1.42261.73627,8.74458,8.74458,0,0,1,2.0282.57977,10.47454,10.47454,0,0,1,2.05468,1.0676c-.29626-.321-.20227-1.02295,1.01563-.18964-.56506.44031-.07.91178.6217,1.44684.68689.54264,1.60938,1.11341,1.771,1.88883-.465-1.14466,3.34936,2.30917,2.59961.61483.90307.80976-.24829.44059.28369,1.23078A15.37941,15.37941,0,0,1,86.78,18.16552c1.09107,1.24572,2.0708,2.68429,3.33069,3.90454.1676-.06479-.0011-.69571.678-.27133l.4198,2.03189c.47864.49569,1.20117-.08826,1.46643,1.28335.0144-.22732.03467-.57226.36255-.22839a11.06823,11.06823,0,0,1,.6156,1.15628l.60632,1.16385c.41687.76846.858,1.52383,1.31568,2.2738q.58979,1.17806,1.183,2.36286c.37939.79663.8645,1.55188,1.16528,2.3872a22.724,22.724,0,0,1,2.15088,10.32584c.19495-.98743.32154-.37588.443.3374.00964-.47784.43042-.05935.65185-.18823l-.21765,2.99554c.684.47519.20044,3.13367.84851,3.41666l-.16125-.93225c.80993,1.23505,1.568-1.85309,2.53076-1.76758a2.09136,2.09136,0,0,1-.2594-1.24075,14.24228,14.24228,0,0,1,.10742-1.54947,4.8218,4.8218,0,0,0-.6471-3.44272c.07361-.56036.39441.38428.54847.06207a3.93409,3.93409,0,0,1-.97022-2.58694l.13709.12549c-.26514-.93094-.46582-1.73471-.63135-2.48645-.21607-.736-.42554-1.411-.61182-2.11219a30.27208,30.27208,0,0,0-1.57458-4.92l-.28821.49326a5.372,5.372,0,0,1-.387-1.5643c-1.10852-.64664,1.10766,2.3919-.03418,1.84674.14856-.7443-.49475-2.2782-1.27429-3.67212-.81177-1.37876-1.58387-2.71784-1.347-3.38086-.759-1.23956-.22156.65262-.99976-.56269l.01526-.475-.53149-.07413c-.51172-.79095-.501-1.39517-.32178-1.57468a5.6975,5.6975,0,0,0,.618.67383c-.47693-1.19552-2.1654-2.757-2.38855-3.11612a12.34931,12.34931,0,0,1,.72888,1.21152c-.61718-.77841-1.38281-1.49963-2.10253-2.29224-.73975-.77377-1.43946-1.62216-2.229-2.37478-.811-.731-1.62732-1.45105-2.44128-2.11859-.41114-.32868-.80384-.66553-1.22669-.94486-.43383-.26611-.86486-.51443-1.29138-.73971l.09314.34915a7.96171,7.96171,0,0,1-2.14563-1.53394,9.1516,9.1516,0,0,0-.78345-.73092,14.1629,14.1629,0,0,0-1.53869-.92023l.127.01486a6.83615,6.83615,0,0,1-2.16724-.9538c.81775.18949-1.04577-1.228-.00231-.9342-3.01551-1.05279-1.57166-.39719-3.77759-.558l-.27246-.54227a7.0053,7.0053,0,0,1-.91529-.0033,13.55508,13.55508,0,0,1-1.45813-.35486c1.32874.14841-.7362-.87179.78455-.76171a9.13218,9.13218,0,0,0-3.66931-1.38865c-1.00037-.20651-1.80286-.21936-2.387-1.00677-1.74328.61121,2.63465,1.2659,1.74427,1.26733.57666.51462-1.42566.4079-2.38928.06757a4.34249,4.34249,0,0,1-1.4087-1.0459,5.88567,5.88567,0,0,0-1.0354-.71893A6.33774,6.33774,0,0,0,61.93333,1.401c.2638.04544.29541-.02832.55909.01666-.95862-.41207-2.00367.05149-3.16956-.555-.75012.48163-1.5929-.21145-1.86072.57266a17.50976,17.50976,0,0,1,2.44556.09519c-1.40735-.06159-2.75891.84134-4.97888.27789a4.52562,4.52562,0,0,1,1.33642-.42c-.65454-.26691-1.28686.08993-1.96863-.184C54.5172.438,57.27684,1.14409,58.82408.69509c-.6925-.44464-2.88464.40448-2.066-.42847A2.24211,2.24211,0,0,1,54.76744.611a3.76722,3.76722,0,0,0-2.5105.21237l.11292-.48043a5.34542,5.34542,0,0,1-1.411.35693l.94567-.663c-1.46179.60382-2.90283-.32831-4.32128.062,2.99707-.20078.723.52615,2.005.79986a6.22627,6.22627,0,0,1-1.91748.19272A2.659,2.659,0,0,1,46.63341.81218C46.01475.541,45.31322.22878,43.27147.65886c.54907-.153,2.13476-.03942,1.30261.31034A11.45071,11.45071,0,0,1,42.19359.82927c-2.64783.77765.51281.37238-.55664.94626-1.0304-.33288-1.24573.56211-2.33631,1.03424l-.13708-.46283c-1.54944.23188-1.67261.53833-1.75086.83558-.08325.28915-.12634.55474-1.48205.85119l.88684-1.0358-1.31079.66263.09839-.6203A9.3898,9.3898,0,0,1,32.248,4.4829c.46033.156.1637.8913-1.04925,1.492-.95984.14431.27362-.64115-1.44251.26275a1.46,1.46,0,0,1,1.48767-.979c.01178-.18024.26538-.4635.2832-.64429a10.82384,10.82384,0,0,0-2.97961,1.35794,3.08446,3.08446,0,0,1,.74481-.235l-1.11865.91848L27.13194,7.67739c-.46979.07306-.244-.23413-.01452-.53977-.4657.34327-.69147.73951-1.38617,1.21039-.01984-.44662-.28046-.7626.66095-1.54959L24.29344,8.584a3.71106,3.71106,0,0,0-.78973.11658c-.29084.07456-.528.11334-.426-.05255a8.81166,8.81166,0,0,0-1.99988,1.81183,14.77929,14.77929,0,0,1-2.24743,2.051,1.7514,1.7514,0,0,1-.41083.6492c-.72205.59537-1.47321,1.08615-2.20581,1.66782a7.56488,7.56488,0,0,0-1.90924,2.34189l-1.37757.47153c-1.05157,1.39813,1.81116-.67991.0763,1.62921-1.06751,1.74783-.92951.22674-1.52039.67743a14.37235,14.37235,0,0,1-.72894,1.9747,7.33331,7.33331,0,0,1-1.59106,2.12069A5.9653,5.9653,0,0,1,10.03361,22.59316ZM1.96434,42.2134c-.03265-.42481-.10754-1.29053.23743-1.52216C2.63145,41.2727,2.25963,41.55446,1.96434,42.2134ZM6.5648,73.39766a1.74644,1.74644,0,0,1-.40045-1.22818A3.61818,3.61818,0,0,1,6.5648,73.39766Zm59.363,25.045a.21367.21367,0,0,0-.03284.03229C65.03087,98.49666,65.33909,98.49621,65.92784,98.44268Zm1.7334-.301c.146-.1217.11377-.1813.02319-.22128-.07763.15607-.44726.29279-.87964.40674C66.958,98.40761,67.199,98.4164,67.66124,98.14165ZM61.58287,5.26946l-.31738-.176C62.057,5.07338,61.81969,5.16417,61.58287,5.26946Z"/><path class="cls-2" d="M4.56847,70.30974a.452.452,0,0,1,.19335-.25579C4.637,69.92934,4.54747,69.957,4.56847,70.30974Z"/><path class="cls-2" d="M18.7783,12.55068l.05207-.03989a.20713.20713,0,0,0-.00775-.11032Z"/><path class="cls-2" d="M48.61473,113.11214a1.78342,1.78342,0,0,1-.30652-.88669c-.05456.025-.078.08686-.05041.20411a1.14859,1.14859,0,0,0,.08227.21966C48.40294,112.76836,48.49913,112.92989,48.61473,113.11214Z"/><path class="cls-2" d="M75.777,93.74953l-.90845.64459a2.35081,2.35081,0,0,1,.94861-.34277C75.74107,93.96444,75.4785,93.9229,75.777,93.74953Z"/><path class="cls-2" d="M85.59776,90.60256c.09546-.15189.28369-.22769.363-.39383l-.18128-.137C85.237,90.5523,84.94163,90.996,85.59776,90.60256Z"/><path class="cls-2" d="M77.47642,94.64394c.27234.29117.87049-.12082,1.48218-.65533a1.04967,1.04967,0,0,1-.118.07885C78.73778,93.45934,78.13988,94.09618,77.47642,94.64394Z"/><path class="cls-2" d="M79.10618,93.87365a4.77747,4.77747,0,0,1,.61158-.42032C79.67149,93.21074,79.44273,93.57976,79.10618,93.87365Z"/><path class="cls-2" d="M69.66942,97.16436c.38769-.02277.037-.56079.29248-.474C70.1754,96.07036,67.84813,98.07793,69.66942,97.16436Z"/><polygon class="cls-2" points="78.73 95.48 78.217 95.19 78.02 95.76 78.73 95.48"/><path class="cls-2" d="M72.80247,98.07287l1.24915-.40345c-.05335-.06817.07739-.1802.24683-.29666C73.55748,97.6838,72.71556,97.949,72.80247,98.07287Z"/><path class="cls-2" d="M74.29845,97.37276a2.96341,2.96341,0,0,0,.91662-.50808C75.01951,96.97777,74.577,97.17763,74.29845,97.37276Z"/><polygon class="cls-2" points="77.23 96.477 76.84 96.573 76.01 96.988 77.23 96.477"/><path class="cls-2" d="M60.62718,104.43831l-.69238,1.26261c.05908.21759.36658-.045.61218-.5235C60.64232,104.82689,60.88841,104.351,60.62718,104.43831Z"/><path class="cls-2" d="M64.10338,102.23488a1.22411,1.22411,0,0,1-.37952-.07754.46569.46569,0,0,0-.28589-.06287l.37537.55072C63.81969,102.40151,63.99156,102.373,64.10338,102.23488Z"/><path class="cls-2" d="M61.96556,105.16918c.0614.21524-.7688,1.99441.22668.47494C62.13353,105.42757,62.82762,104.16338,61.96556,105.16918Z"/><polygon class="cls-2" points="48.665 110.175 48.878 110.471 49.688 109.852 48.665 110.175"/><path class="cls-2" d="M33.70457,101.54928c1.59876.83184.62171-.44349,2.03455.37164.47241-.09131-1.15393-.66177-.67835-.71741C33.95775,101.11248,33.50047,100.72573,33.70457,101.54928Z"/><path class="cls-2" d="M35.06077,101.20351a5.55785,5.55785,0,0,0,.56592.03186A2.52389,2.52389,0,0,0,35.06077,101.20351Z"/><polygon class="cls-2" points="100.524 49.686 100.365 50.732 100.673 50.047 100.524 49.686"/><path class="cls-2" d="M101.38133,51.66445l-.63611.25665.62036.62461C101.3242,52.30749,101.24425,51.84807,101.38133,51.66445Z"/><path class="cls-2" d="M.18925,45.16372l.14148.10922c.1944-.1554.24768-.42194.356-.956Z"/><polygon class="cls-2" points="5.084 30.23 4.955 30.468 5.705 30.263 5.084 30.23"/><path class="cls-2" d="M11.44823,18.60265c-.34717.42075-.62885,1.01407-.976,1.4361C11.10313,19.01992,12.10417,18.94744,11.44823,18.60265Z"/><path class="cls-2" d="M47.55064,73.20583c.04322-.02783-.03979-.09357-.04663-.11285C47.45592,73.16952,47.57078,73.22426,47.55064,73.20583Z"/><polygon class="cls-2" points="47.167 73.97 47.142 73.932 47.153 74.089 47.167 73.97"/><path class="cls-2" d="M46.99376,74.26937l.04614.004-.0852-.12946c-.077.15088-.098.38159-.1941.45947C46.94871,74.62423,46.86546,74.35109,46.99376,74.26937Z"/><path class="cls-2" d="M46.29393,74.73794l-.02319.01013a.4565.4565,0,0,1-.03516.07562C46.31016,74.82479,46.25572,74.93325,46.29393,74.73794Z"/><path class="cls-2" d="M46.27074,74.74807c.02807-.082-.075.02954,0,0Z"/><path class="cls-2" d="M46.16917,75.13222l-.02209-.12683c-.04639.00849-.08838.10242-.10425.057C46.03685,75.18526,46.08409,75.173,46.16917,75.13222Z"/><path class="cls-2" d="M46.25267,75.20937c-.01978.00415-.03027.017.00854.06183Z"/><path class="cls-2" d="M46.25157,75.15072c.047.02588.00635-.01221-.01221-.07349l.01331.13214C46.28538,75.203,46.34068,75.21981,46.25157,75.15072Z"/><path class="cls-2" d="M46.41478,75.03536c.054-.19971-.07483-.22217-.12744-.0141C46.34361,74.97548,46.39732,74.91286,46.41478,75.03536Z"/><path class="cls-2" d="M46.90709,74.72072l.08166-.04168-.022-.08527C46.97764,74.63607,46.85521,74.69918,46.90709,74.72072Z"/><path class="cls-2" d="M46.036,75.6805c-.03466.03546-.071.10932-.1278.1048.03613.01355.10608-.01831.15527-.01691Z"/><path class="cls-2" d="M46.06346,75.76839l.043.12934C46.13267,75.79476,46.1057,75.7698,46.06346,75.76839Z"/><path class="cls-2" d="M46.43724,75.38247l.0083-.03553L46.375,75.122C46.39317,75.21065,46.41209,75.297,46.43724,75.38247Z"/><polygon class="cls-2" points="45.757 76.171 45.878 76.307 45.837 76.249 45.757 76.171"/><path class="cls-2" d="M45.83043,76.5566c-.07056-.05463-.126.0639-.16846.00781a.4441.4441,0,0,0,.12439.22425A.22384.22384,0,0,1,45.83043,76.5566Z"/><path class="cls-2" d="M45.93846,76.1747l.11206-.03405.00757-.04609A.16275.16275,0,0,0,45.93846,76.1747Z"/><path class="cls-2" d="M46.05406,76.13942l-.00354.00123-.01831.09918Z"/><path class="cls-2" d="M46.2744,75.61611c.04236.0816.07446.22827.19348.11694C46.40721,75.67067,46.33885,75.736,46.2744,75.61611Z"/><path class="cls-2" d="M46.19981,76.0447l.04322-.11756c-.0282-.00238-.07276.01313-.09595-.02551Z"/><polygon class="cls-2" points="46.226 76.109 46.2 76.045 46.185 76.089 46.226 76.109"/><path class="cls-2" d="M45.97105,76.68172a.32269.32269,0,0,1,.05518.18012.97355.97355,0,0,0,.03613-.21253C46.02928,76.63845,45.97032,76.60518,45.97105,76.68172Z"/><polygon class="cls-2" points="46.061 77.518 46.079 77.505 46.061 77.504 46.061 77.518"/><path class="cls-2" d="M46.04906,76.522a.524.524,0,0,1,.0133.12726c.015.00489.0249.00611.02039-.011A.09546.09546,0,0,0,46.04906,76.522Z"/><path class="cls-2" d="M45.9774,76.98665c-.03455.02777-.08447.08643-.056.09571A.88853.88853,0,0,0,45.9774,76.98665Z"/><path class="cls-2" d="M45.98851,76.44716a.26979.26979,0,0,0,.06055.07489.41031.41031,0,0,0-.02955-.09094A.13207.13207,0,0,1,45.98851,76.44716Z"/><path class="cls-2" d="M46.06749,77.26986l-.01477-.04981a.51552.51552,0,0,1-.12036.18738c.05652.08173.09485.09479.12817.097l-.00867-.25092Z"/><path class="cls-2" d="M46.04271,76.99276c.10669.03784.16028.1532.27258.07708-.01245-.14123-.09155-.09716-.13953-.18322.02735.23382-.06018-.06745-.12072.10406a.47421.47421,0,0,1-.02881-.12884.81958.81958,0,0,1-.04883.12481L45.984,76.981l-.00036-.0011.00171.00018c.01342-.01062.0216-.01416.01379-.00232l.00232.005a.16368.16368,0,0,1,.04065.01007c-.022.06976-.028.01159-.04065-.01007l-.01611-.00263L45.984,76.981l.06873.23907A.66937.66937,0,0,0,46.04271,76.99276Z"/><path class="cls-2" d="M46.31554,76.04134a.9769.9769,0,0,0,.27575-.06817c-.012-.01825-.052-.03907-.03174-.089.0398-.03876.05066.00994.08582.014-.02258-.03546-.05615-.124-.12524-.03558l.01159.01837C46.47887,75.96169,46.32664,76.05892,46.31554,76.04134Z"/><path class="cls-2" d="M46.32078,76.46883l.04346.19147.09693-.0907-.05616.00183C46.43089,76.46676,46.36375,76.48513,46.32078,76.46883Z"/><polygon class="cls-2" points="46.01 77.547 45.894 77.533 46.068 77.63 46.01 77.547"/><polygon class="cls-2" points="45.962 77.813 46.033 77.873 46.061 77.807 45.962 77.813"/><path class="cls-2" d="M50.14757,82.65151l.01074-.11121a.16482.16482,0,0,1-.1311-.06359C50.07445,82.5917,50.12108,82.76021,50.14757,82.65151Z"/><path class="cls-2" d="M47.1599,80.22963a.41892.41892,0,0,0,.06.18439C47.21385,80.30538,47.2451,80.19515,47.1599,80.22963Z"/><path class="cls-2" d="M47.354,80.57833l-.0055-.04572A.35226.35226,0,0,1,47.22,80.414C47.22386,80.494,47.24876,80.573,47.354,80.57833Z"/><path class="cls-2" d="M46.26854,78.78194l-.00684-.05017C46.24229,78.731,46.23375,78.74093,46.26854,78.78194Z"/><path class="cls-2" d="M46.307,78.83254a.0288.0288,0,0,1-.0116.01807l.03431.0711A.23982.23982,0,0,1,46.307,78.83254Z"/><path class="cls-2" d="M56.42808,77.62118c.02112-.04828.05994-.01917.08033-.01746.04126-.29816.01831-.33429-.2146-.53351l.11645-.04993c-.08044-.04467.095-.46569-.1405-.70074a.08694.08694,0,0,1,.06287.01263c-.2306-.25128.01843-.8789-.44581-.78692l-.19714-.13367c.09863.25122-.19116.059-.20422.19031-.07129-.07446-.00965-.29883.0719-.19916l-.00989.02863c.23144-.07642-.09717-.3277.04126-.406a9.07767,9.07767,0,0,0-.88989-1.30292l-.08789.1706-.11634-.13056c-.00512-.06109.05408-.14789.13928-.05261.02552-.12384-.21606-.08276-.24365-.0553-.13293-.22217.21472-.09247.16236-.14642l-.08692-.061.0033.03192c-.11194-.00213-.17078.05506-.2804-.04992-.05053-.09.03345-.11945.00818-.14917.0083-.00995.00171-.02277-.0437-.04035l-.17273-.15088-.01318.17035c-.12036-.004-.1659-.12725-.17749.06287.03332-.3056-.64954-.52094-.70069-.61688a.66367.66367,0,0,1-.44555-.09479c.02856.04334-.0094.20276-.13269.13355.165-.29755-.19715-.226-.247-.48566.06079.17731-.421-.06885-.31092.19446-.11157-.05329.02137-.12372-.0531-.22162-.31079.06628-.62768-.19361-1.00647-.16236-.00659.04371.05115.11335-.02771.17566-.06079-.07715-.12512-.14721-.19177-.22082-.075.02325-.06018.25146-.19848.1073.02075.03583.05053.09.00341.10675a1.8713,1.8713,0,0,0-1.078.14166,3.67,3.67,0,0,1-1.10217.29871c.13159.01947.07727.06244.01367.1051.05334-.00873.05664.09271.09668.138-.11572.00391-.22742.01953-.34583.03223.053.16571-.25537.2088-.17627.35382l.054-.08295c.014.12653.14172.18146.27209.24341-.0747.05859-.15539.10071-.22778.16522a4.10763,4.10763,0,0,0-1.366,3.13507,4.99223,4.99223,0,0,0,.05982.81751.12923.12923,0,0,1-.027-.20154c-.08423-.09943-.40234-.00531-.57287.12115.04455-.00152.07995-.00445.15612.1073.04407-.05023.09717-.27642.19544-.18683.06482.14624-.01941.12812-.06189.21076.09973-.0694.18616.10034.32385.1.024.13715.075.26709.11084.40107l-.00732.018.01464.084.00123-.07135c.04089.14929.068.30236.12365.44775-.01648-.00037-.035-.00739-.04651.00946l.04834.07037c-.07153.11329-.199-.09332-.20642.02533-.10986-.0802-.27282-.16882-.26062-.34936l.13819-.07294a.10307.10307,0,0,0,.00171.15936c-.08582-.04852.12573-.29522-.08313-.316l-.0741.13989c-.10315-.09339-.30164-.20618-.2815-.3689-.13476.09888.02344.03009-.12793.17652.18995-.14136.08777.392.27417.18414-.16833.16321-.03112.20917-.15063.40686.04626-.02069.07361-.08112.09448.05145a.21817.21817,0,0,1,.05176.01221l-.00061.00964.00317-.00885c.009.00275.01075.00269.0011-.00323a.17142.17142,0,0,1,.05-.08814c.12952.02307.19678.21167.28052.24976.00635.07812-.06543-.00641-.09949.05218l.12171.05811c-.09925.053-.08313.26123-.22071.12366l.06592.15136a.3153.3153,0,0,0,.108.29743c.01624.08148.20642.10669.09558.09344l.19263.18164-.02246.01715c.12524.22516.43933.309.45959.65448a.52243.52243,0,0,1,.22583.21222l-.05334.08533c.09509.05627.15247.30353.259.264-.10425.27417.35.40551.46912.55975l.0852-.09442a1.01553,1.01553,0,0,0,.38392.18719l.05627-.09741c.16211.00305.24731.26532.44788.36487-.03406.02978-.0774-.00818-.09839-.05023.10669.36114.57263.10022.708.35992a.11318.11318,0,0,1,.13331.05567.02477.02477,0,0,0-.016-.00006l.02222.01043.05567.08686a.29757.29757,0,0,0-.04334-.08228.49756.49756,0,0,0,.18738.0227l-.01294.12317.01623.00214c.04981.0647.06946-.03595.06568-.1333a.31432.31432,0,0,0,.10693-.03931c-.00806.2013.18579-.01153.19739.20862.07153-.08441.34924.0141.42883-.19006-.0039.02746.01221.04431-.0227.03875.06567.03864.1333.07746.20825.03186l.00293.15564.19165-.17688c.07947.10767.11487.1673.00037.26886.25878-.14862.2008-.04.41516-.20031l-.01831.09784c.07251.00134.19226-.12036.23-.03809.15478.2049.7854.03815,1.23352.11493-.14136-.26666.22424.083.18969-.14166.0409.06164.11072.08276.05689.15887.196-.12292.36352.00507.44336-.22809.04956.05567-.009.11084.0271.14118.01257-.01966.04626-.08112.08337-.0531.037.02826-.00879.06781-.033.10827.219-.10339.14978-.30725.07984-.49371.13794.03607.18676-.00214.193-.15356.06311.03826.15491.06573.04578.1535.07348-.02179.46093-.16547.37292-.30438.04334.02.09265-.054.09754-.08033a1.20669,1.20669,0,0,0,.27917-.2146l-.05249.01014c-.07629-.18549.07141-.12311.15283-.23053l.01111.01672c.311-.12463.046-.13147.36206-.2572l-.10254-.06439c-.18237-.18128.28723-.10785.30676-.31977l-.09155.01392c-.02221-.12146.44177-.03381.52344-.11639.031-.00873.01343.04876.0116.085.26977-.166-.11609-.10749-.05689-.29981.09229.005.16992.14191.24658.02429.10047-.03936-.09192-.46972.11536-.58477-.07544.01849-.14905.03314-.16736-.067.01892-.131.34155-.29981.16492-.468a.07584.07584,0,0,1,.05456-.0144c-.02966-.11444-.03064-.3515-.13671-.42389.432-.06262-.16065-.63544.21289-.62164l-.03064-.31452.03942.006A.30389.30389,0,0,0,56.42808,77.62118Zm-9.79333,1.749.0072.00116C46.64244,79.47255,46.6439,79.43575,46.63475,79.3702Zm7.51819-6.06806.00793.04657C54.07664,73.32662,54.11351,73.31606,54.15294,73.30214Zm-7.48633,4.31739c.004-.00092.01025.002.015.00256l.00147.02063ZM47.2473,79.87c-.14807-.13006.06848-.14416.02539-.15509-.15442-.31189-.47986-.06787-.49133-.41064.064-.16632.236-.12579.30981-.19336.11438.10645.03088.24274.08972.328l-.00781-.1394c.06189.0199.14184.08594.13562.1524a.21247.21247,0,0,0-.01648-.11993,5.6776,5.6776,0,0,0,.41772.6062A.5891.5891,0,0,1,47.2473,79.87Zm.88635.74927a.24844.24844,0,0,0,.06738-.11l-.00183-.00269c.03931.0401.08032.076.12012.11475A.36311.36311,0,0,1,48.13365,80.61922Zm.61267.83356a1.36142,1.36142,0,0,1-.09314-.42639.1605.1605,0,0,1,.03333-.05359c.04321.03564.08728.06891.1311.10309l-.11816.15728.1394-.143c.04541.03516.095.06116.14111.09473A1.20407,1.20407,0,0,1,48.74632,81.45278Zm.79334.51269.00024-.09252-.19409.00195c.0885-.05683.22595-.14337.36682-.23114.07959.04071.16443.07.24585.10663A.74636.74636,0,0,1,49.53966,81.96547Zm1.83422.451a1.04737,1.04737,0,0,0,.03284-.224c.021.00324.04.01117.06128.01423.01782.00256.03345.00048.05115.00286C51.469,82.27773,51.427,82.34932,51.37388,82.41646Zm2.6875-.34924c-.03417-.01233-.03833-.07159-.0382-.14636l-.0166.05115a.10283.10283,0,0,1-.07618-.07728c.03-.014.06324-.02172.09278-.03656v.06269l.02636-.07312c.01-.00519.02173-.00727.03174-.01251a.84885.84885,0,0,0,.12537.06079Z"/><path class="cls-2" d="M46.06444,78.30593l.06262.11114a.13319.13319,0,0,1,.00891-.11724C46.10936,78.30959,46.07579,78.3431,46.06444,78.30593Z"/><path class="cls-2" d="M46.63963,77.19973c-.0155-.01471-.00317-.03308-.01892-.04773l-.05579.00732C46.572,77.22707,46.61937,77.27035,46.63963,77.19973Z"/><path class="cls-2" d="M46.42638,78.10116c.09643-.0326.04467-.09272.01208-.16767l.00281.01386C46.2982,77.95241,46.3585,78.02944,46.42638,78.10116Z"/><path class="cls-2" d="M46.4315,77.916a.19178.19178,0,0,1-.01684-.072C46.357,77.8453,46.40892,77.87594,46.4315,77.916Z"/><path class="cls-2" d="M46.442,78.99056c.00879-.04694-.12952.02631-.1001-.01068C46.20567,78.989,46.58909,79.16768,46.442,78.99056Z"/><polygon class="cls-2" points="46.73 78.037 46.737 77.964 46.621 78.019 46.73 78.037"/><path class="cls-2" d="M46.759,78.421c.01977.07294.02563.15936.0592.1441l-.00842-.1264A.0442.0442,0,0,1,46.759,78.421Z"/><path class="cls-2" d="M47.39976,79.74514l.10669.08813c.04273-.01416.04309-.05853.00049-.08844C47.46348,79.73684,47.42271,79.70473,47.39976,79.74514Z"/><polygon class="cls-2" points="47.817 72.976 47.695 73.006 47.806 73.025 47.817 72.976"/><path class="cls-2" d="M47.77281,73.25747l-.126-.10584.04627.15351C47.707,73.28371,47.7346,73.24184,47.77281,73.25747Z"/><path class="cls-2" d="M76.93541,35.205c.19153-.16626.0553-.182.07092-.22235C76.70494,35.29629,76.96446,35.21731,76.93541,35.205Z"/><path class="cls-2" d="M76.18443,39.12093l-.06091-.05737a4.06,4.06,0,0,0,.29761.52533A3.86357,3.86357,0,0,1,76.18443,39.12093Z"/><path class="cls-2" d="M77.05577,40.60958l-.0437-.11029c-.102-.04376-.202-.09442-.30286-.14935a3.05462,3.05462,0,0,0,1.05139.86755,5.82914,5.82914,0,0,0,1.08057.38287,4.86345,4.86345,0,0,0-.837-.33374A2.23637,2.23637,0,0,1,77.05577,40.60958Z"/><path class="cls-2" d="M80.28136,42.11751l.08178.02045.37268.00977C80.61534,42.07442,81.15745,42.0964,80.28136,42.11751Z"/><path class="cls-2" d="M80.36314,42.138c-.38611-.00836.25086.06659,0,0Z"/><path class="cls-2" d="M81.91417,42.20858c.38208-.00647.31885-.0481.09411-.13764a2.82612,2.82612,0,0,0-.37439.06214C81.7158,42.16323,82.03367,42.18191,81.91417,42.20858Z"/><path class="cls-2" d="M82.40465,41.98763l-.21643-.00513C82.22386,42.00606,82.27659,42.015,82.40465,41.98763Z"/><path class="cls-2" d="M81.98411,41.98574c.04-.04938-.05456-.0091-.2312.03107a3.21736,3.21736,0,0,1,.43531-.03431C82.13414,41.94918,82.12889,41.88772,81.98411,41.98574Z"/><path class="cls-2" d="M81.479,42.00539c-.28394-.02246-.64392-.03692-.14734-.11719C80.38194,41.93386,80.51732,42.066,81.479,42.00539Z"/><path class="cls-2" d="M79.05784,41.45186c-.12-.03546-.23779-.07891-.35327-.12475-.10827-.00653-.21728-.01819-.3269-.03436C78.53612,41.33,79.06932,41.51967,79.05784,41.45186Z"/><path class="cls-2" d="M84.48949,42.97408c.04187-.02136-.08362-.15564-.09205-.21442l-.31945-.1015C84.22569,42.75081,84.49962,42.91475,84.48949,42.97408Z"/><path class="cls-2" d="M84.39744,42.75966q.23127.07793.46192.16962C84.47874,42.7101,84.38975,42.71291,84.39744,42.75966Z"/><path class="cls-2" d="M82.51488,41.80556c-.08435-.001-.15918.0177-.2417.02149.12964-.00232.26037-.002.39367.00775Z"/><path class="cls-2" d="M81.74132,41.87441a3.261,3.261,0,0,1,.53186-.04736A3.19779,3.19779,0,0,0,81.74132,41.87441Z"/><polygon class="cls-2" points="86.224 44.097 86.027 43.993 85.755 43.892 86.224 44.097"/><path class="cls-2" d="M87.61766,45.53994a4.69357,4.69357,0,0,1-.64478-.72412c-.19946-.09345.11744.28735-.071.16552A7.64671,7.64671,0,0,0,87.61766,45.53994Z"/><path class="cls-2" d="M85.81175,43.70907l-.093-.2016L85.56,43.39364A.79293.79293,0,0,0,85.81175,43.70907Z"/><path class="cls-2" d="M85.71519,43.50057l.00354.0069c.16748.13043.28382.22094.33362.25982C86.00987,43.7336,85.90843,43.6534,85.71519,43.50057Z"/><path class="cls-2" d="M84.102,42.195c-.22644-.01544.06922.16253-.37622.07647C84.01964,42.32137,84.61888,42.52859,84.102,42.195Z"/><path class="cls-2" d="M84.86876,42.88772c.175.072.35034.14776.52331.23126q-.21624-.15546-.44079-.29773C84.94652,42.85116,85.0078,42.93453,84.86876,42.88772Z"/><polygon class="cls-2" points="85.552 43.235 85.628 43.236 85.392 43.119 85.552 43.235"/><path class="cls-2" d="M87.43175,45.07229a3.58756,3.58756,0,0,1,.56494.53473,7.1997,7.1997,0,0,0-.60791-.70807C87.33446,44.89205,87.19981,44.83907,87.43175,45.07229Z"/><polygon class="cls-2" points="89.665 47.883 89.659 47.834 89.637 47.835 89.665 47.883"/><path class="cls-2" d="M87.3668,44.848a1.24734,1.24734,0,0,0-.38427-.32507c.132.11176.26831.2348.40625.376C87.41307,44.90212,87.42284,44.89773,87.3668,44.848Z"/><path class="cls-2" d="M88.51427,46.39681c-.05713-.10779-.12952-.225-.20643-.34778A1.09886,1.09886,0,0,0,88.51427,46.39681Z"/><path class="cls-2" d="M86.715,44.36294l-.02869-.01941C86.72655,44.41067,86.72716,44.39608,86.715,44.36294Z"/><path class="cls-2" d="M86.715,44.36294a2.9392,2.9392,0,0,0,.26758.16,3.531,3.531,0,0,0-.3053-.23358A.40567.40567,0,0,1,86.715,44.36294Z"/><path class="cls-2" d="M89.118,46.98232l-.13648-.17126a3.20784,3.20784,0,0,1,.31348.6958c.2351.27539.29907.3247.34228.32782-.17834-.30786-.36828-.611-.57458-.90485Z"/><path class="cls-2" d="M88.82774,46.15786c-.41894-.50415-.35608-.3017-.64636-.566.69751.78491-.23462-.1944.20142.42633-.14588-.1554-.26856-.286-.38611-.41119.1123.15118.22156.29626.31115.442l-.00988-.0227-.0033-.00354.002-.00031c-.01794-.04327-.021-.06.00489-.01581l.01538.01538a.11865.11865,0,0,1,.061.01062c.173.24787.00818.05439-.061-.01062-.00623.00068-.01526-.00244-.02027.00043l.00135.00385q.3545.382.68359.78473a6.4949,6.4949,0,0,0-.60315-.77875C88.57323,46.09359,88.93577,46.48818,88.82774,46.15786Z"/><path class="cls-2" d="M84.71409,42.22414c.02552.02356.02076.02979.01954.0379C84.80125,42.28145,84.829,42.28542,84.71409,42.22414Z"/><path class="cls-2" d="M84.62694,42.35335l.073.02051a2.21277,2.21277,0,0,1,.67994.601,1.27512,1.27512,0,0,0-.30689-.48822,1.14358,1.14358,0,0,1-.369-.14209c-.17968-.12713.02368-.04589.02967-.08252C84.58421,42.2181,84.22117,42.10219,84.62694,42.35335Z"/><path class="cls-2" d="M87.35094,44.30306l-.02259.05627c-.349-.36328-.31884-.23559-.39331-.24609.22742.18463.45227.3747.66944.57434Z"/><path class="cls-2" d="M89.66966,47.99337l-.15661-.03888c.133.11078.25207.23016.38085.34778Z"/><polygon class="cls-2" points="90.078 48.971 90.25 49.21 90.184 48.967 90.078 48.971"/><path class="cls-2" d="M71.12547,58.74941c-.40625-.0965-.8761-.18372-.81714-.0802l.1333.09705A2.31788,2.31788,0,0,1,71.12547,58.74941Z"/><path class="cls-2" d="M75.22313,66.8229c-.1659-.00183-.2605.00738-.22913.038C75.155,66.8611,75.22533,66.84755,75.22313,66.8229Z"/><path class="cls-2" d="M85.57689,59.24087l.16076-.04438.6449-.35339A2.83992,2.83992,0,0,0,85.57689,59.24087Z"/><path class="cls-2" d="M80.40867,33.96132a3.96908,3.96908,0,0,1,.47913-.02179A2.20055,2.20055,0,0,0,80.40867,33.96132Z"/><path class="cls-2" d="M90.83079,53.17922c.02649-.22083-.00561-.03632,0,0Z"/><path class="cls-2" d="M90.9182,52.85055l-.0625.28137A2.22623,2.22623,0,0,0,90.9182,52.85055Z"/><path class="cls-2" d="M90.86265,52.89089l.0282-.19342C90.87327,52.66817,90.86534,52.69259,90.86265,52.89089Z"/><path class="cls-2" d="M90.78575,53.486c.022-.1253.04285-.24218.07-.35406-.01429.04229-.0232.05945-.02491.0473Z"/><path class="cls-2" d="M99.2921,53.06063c-.00623-.35809-.01135-.71869-.04175-1.07654-.03064.147-.07031.29334-.11292.43842-.09423-.4679-.08728-.99714-.1947-.49494a6.20663,6.20663,0,0,0-.24695-2.29223c-.22448-.93427-.58606-1.78412-.6267-2.005-.346-.57172-.60206-1.16266-.9701-1.87494.06763.18988-.02124.36768-.32678-.24469.42651.05048-.50012-1.16369-.61853-1.756.16528.489-1.169-1.58478-.89648-.8136-.32361-.47412.08-.10223-.12037-.49872a43.90531,43.90531,0,0,0-3.123-3.53894c-.04932.01441.11328.25507-.199.057-.16943-.25507-.33886-.5138-.52148-.763-.271-.20465-.39429-.01135-.77722-.514.04467.08362.11.20795-.07361.07788a14.15367,14.15367,0,0,0-4.33655-2.62652,24.373,24.373,0,0,0-5.01184-1.29132c.472.10845.15625.08892-.2063.09606.23523.02112-.006.10865.04028.16834a6.85635,6.85635,0,0,0-1.47668-.03351,5.07437,5.07437,0,0,1-.87183.33777c-.3634.144-.69433.3371-.71814.44574.13123-.08771.26551-.17413.40393-.25159-.23864.22986.00745.20533.29773.20478.02869-.00074.05774.00061.087.00055a3.9643,3.9643,0,0,0-1.1626.71075,3.01067,3.01067,0,0,0-1.10962,2.45734,3.64574,3.64574,0,0,0,.89527,2.36743,2.98722,2.98722,0,0,0,1.87524.92871,11.23006,11.23006,0,0,0,2.44385.08148,6.36015,6.36015,0,0,1,3.08716.80823,12.09308,12.09308,0,0,1,3.6438,2.91253c.37658.42231.709.84339,1.02014,1.26386l-.03076.04828c.16235.22058.29528.35577.23986.2359.1471.20843.28247.41663.41346.62463-.3136-.311-.37342.13056-.30738.5835.04383-.007.08582-.03375.39234.40533-.03064-.1914-.493-1.09094-.18189-.74835a1.69259,1.69259,0,0,1,.38318.85675c-.01269-.28277.40918.46894.58643.55213a9.66027,9.66027,0,0,1,.385,1.06176l-.07911.15454.15284.17511-.05591-.273a8.27069,8.27069,0,0,1,.3291,1.92151,7.08748,7.08748,0,0,1-.07007,1.298c-.01025-.011-.02307-.007-.04138.03412-.01807.13507-.02478.27276-.05249.40679-.172.34131-.01184-.77478-.15149-.28192.01184-.54364-.06909-1.12774-.07849-1.86944l.13476-.15686a1.96476,1.96476,0,0,0,.00794.70691c-.0614-.30036.10632-1.18586-.18005-1.48731.00988.179-.00379.35986-.00476.53607-.1565-.51831-.47559-1.09582-.66712-1.71582-.03308.32691.07153.13752.05225.62451.04272-.22137.17321.17029.25659.54206.08826.36932.135.71844.19751.38373-.12586.49292.03857.82379-.14185,1.42212.05091-.01728.10437-.20936.059.31451a.48373.48373,0,0,1,.03467.1181l-.00732.035.00879-.02839c.00537.02338.00671.02558.00317-.01055a1.12347,1.12347,0,0,1,.09253-.26532,4.258,4.258,0,0,1-.04236,1.4237c-.11267.304-.01855-.14471-.11938.00989-.00977.14642-.02112.29462-.04517.441-.11243.01306-.48572.70947-.269.00384a5.72076,5.72076,0,0,1-.26746.6026c-.22681.32233-.52832.757-.69665,1.04883-.20325.23731-.41553.69886-.29883.43231a9.389,9.389,0,0,1-.69471.81727l-.02636-.01374a13.14752,13.14752,0,0,1-1.54614,1.27051.17517.17517,0,0,0,.06848-.08417l-.70252.34473a3.54619,3.54619,0,0,0,.59668-.23682,4.36524,4.36524,0,0,1-1.24158.59021,4.2651,4.2651,0,0,1-1.21936.48511l-.13671-.06268c-.42749.167-1.34034.16729-1.52393.27356a18.42483,18.42483,0,0,0-3.11279-.08289l-.03894.12653c-.57215-.00147-1.09278-.05463-1.8147-.11682l.02478.11785a25.42563,25.42563,0,0,1-2.54712-.56634.60583.60583,0,0,1,.25891.02289c-1.10242-.35883-2.34582-.31055-3.37732-.54987a2.28251,2.28251,0,0,1-.68506-.03564.43162.43162,0,0,0,.07019-.00244.85214.85214,0,0,0-.11609-.00409l-.394-.05225a2.94027,2.94027,0,0,0,.33167.05371,7.27332,7.27332,0,0,0-.86939.07111l-.14612-.108-.07483.01007c-.32324-.01587-.24914.0794-.07287.1546a3.0504,3.0504,0,0,0-.4148.11157c-.28015-.1485-.81921.18121-1.197.06879a8.10336,8.10336,0,0,0-1.572.70312,3.01624,3.01624,0,0,0-.94446.37787l-.198-.0824c-.21252.15863-.41271.33484-.61083.50873-.45716.11933-.66053.15845-.29432-.15149a13.38015,13.38015,0,0,0-1.49743,1.12525l-.01282-.10834c-.29248.17456-.66357.5896-.877.63647a9.63526,9.63526,0,0,0-1.97583,1.35431,12.98321,12.98321,0,0,0-2.43006,2.36707c.23438-.10077.06873.08209-.10254.35333-.17907.26575-.31787.67352-.20385.738-.09046.11828-.1493.47168-.17884.06213a3.68759,3.68759,0,0,0,.21436,1.44238,2.09891,2.09891,0,0,0,.58765.90375c.01123.14148-.21167-.13483-.18519-.02161a1.45366,1.45366,0,0,1,.27637.36121c.033.11151-.14123-.08868-.26294-.21655.66382.89276.92652.77118,1.11414.70361a1.63675,1.63675,0,0,0,.86645.766c.10413.15949.30139.41718-.21924.01612a5.0715,5.0715,0,0,0,1.04053.76879c.48145.27375,1.03968.337,1.06458.25409a1.27464,1.27464,0,0,0,.6709-.014,2.31876,2.31876,0,0,0,.88244-.31684,3.77534,3.77534,0,0,0,.67444-.53729l-.17615.12091c.09851-.34448.44739-.45514.90052-.873l-.00049.02643c1.17065-.80023.41943-.45361,1.60473-1.19757l-.13354-.04779c-.05664-.2876,1.06543-.63891,1.673-1.15784l-.2782.10645c.31507-.32947,1.21387-.37994,1.59314-.53809.09107-.0227-.11035.09772-.21325.1781,1.02966-.36962.04223-.22143.7622-.59252.16712.02685-.0946.26135.40357.09887.13428-.00793.47583-.18841.913-.32275a2.98267,2.98267,0,0,1,1.33936-.151c-.1676-.06012-.34082-.11994.04675-.18109a21.38317,21.38317,0,0,0,2.17481.18432c.07592.02735.10351.048.1051.06452a14.08314,14.08314,0,0,0,1.82422.02441c.371.49347,2.97607.056,2.9281.44544l1.47241.09924-.03919.03595a3.94244,3.94244,0,0,0,1.60108-.19629c.21716.01733.05969.05926.04211.08a8.48234,8.48234,0,0,0,2.64832-.23578l.13086.1134a11.06121,11.06121,0,0,0,3.33447-.6311c-.00854.01758-.02808.04931-.12707.10009.7174-.30047,1.60571-.56787,2.35046-.89642.74414-.32348,1.335-.69385,1.44458-1.03778q.39276-.32785.76172-.67706c-1.07215.74035.04126-.26923-.43445-.01477.39246-.31293,1.11377-.70276.64417-.28992l-.09095.04291c-.01782.34942,1.28809-.978,1.35462-.85773a13.106,13.106,0,0,0,3.87365-6.42816c-.0791.0788-.15734.15643-.24316.231.07434-.27246.13013-.5495.19348-.82483.06995-.21265.20349-.26984.06934.32721a1.765,1.765,0,0,0,.052-1.04175c.199-1.17261.1615.4881.201.12781.02148-.16553.02808-.33228.04272-.49817l-.03295.10968a4.96222,4.96222,0,0,1-.06092-1.17456c.04077-.45838.11426-.23426.12244-.41584C99.29918,53.341,99.30553,53.27932,99.2921,53.06063Zm-9.22742-5.65326c.14087.23035.27.46033.39087.69006A3.726,3.726,0,0,1,90.06468,47.40737Zm.50989.9212.00329.00128.01978.03785C90.58958,48.35494,90.58287,48.34121,90.57457,48.32857Zm-.47852,7.1847-.00378.01849C89.85216,55.82046,89.9409,55.72024,90.09605,55.51327Zm-1.97644,2.58331c.64-.59863.3794-.14227.47779-.26129a3.275,3.275,0,0,0,.939-1.15876,4.53819,4.53819,0,0,1,.67969-1.04962c.37781-.39215.24341.113.38476.06055a5.1792,5.1792,0,0,1-1.00146,1.24835c.15332-.13263.28857-.28186.43384-.42474a2.772,2.772,0,0,1-.60926.77057,1.45,1.45,0,0,0,.17591-.1446,10.28662,10.28662,0,0,1-.77271.77131,11.612,11.612,0,0,1-1.88183,1.36431A16.47268,16.47268,0,0,1,88.11961,58.09658Zm-4.80884,2.336c-.02172.03772.0564.069.12256.089-.22119.03149-.447.05084-.67382.0675C82.94334,60.5309,83.13951,60.47567,83.31077,60.43258Zm-4.795-.2569c.04236.01147.35547.09589.70374.18982.34521.08234.72705.13177.8684.1853.07764.02851.09253.05921.08533.09052-.28357-.00739-.55456-.01807-.79993-.03559-.02392-.00164-.05419-.00592-.07885-.00781l-.00293-.18939-.1189.17737c-.254-.02222-.5376-.0567-.84631-.10163A.3552.3552,0,0,1,78.51573,60.17568Zm-4.35364-.83984.1847.11926.809.06024a9.48393,9.48393,0,0,1-.978.15759c-.45655-.08777-.80713-.14685-1.04163-.17364-.12268-.01923-.24695-.01648-.37-.03168A3.74394,3.74394,0,0,1,74.16209,59.33584Zm-7.052.47863a.22668.22668,0,0,0-.04834.0625C67.04246,59.85445,66.95091,59.87331,67.11009,59.81447Zm-1.81641.86194c-.02221.07569.04187.13825.11377.20355-.18286.08991-.36523.17566-.54882.27369C65.00218,60.99367,65.14232,60.83181,65.29368,60.67641Zm-5.55,9.58435c-.063-.109.04248-.06738.20739-.00036l-.15527-.10462c-.08313-.12536-.0874-.17535-.05994-.19464.11524.12464.22925.24146.34229.3523l-.12708-.053.2118.14032c.04882.04657.09729.09112.14563.13513a2.9801,2.9801,0,0,0,.23584.34942A8.31235,8.31235,0,0,1,59.74364,70.26076Zm39.46643-16.849c-.03382-.37841-.00269-.2727.032-.16778Z"/><path class="cls-2" d="M75.62779,59.3937c.07922.02582.16333.03717.241.06762A2.38144,2.38144,0,0,0,75.62779,59.3937Z"/><path class="cls-2" d="M90.77843,50.90725c-.02564.01623-.04944.11548-.07813-.03455.03723.15851.083.31671.10938.47766A2.56,2.56,0,0,1,90.77843,50.90725Z"/><path class="cls-2" d="M90.98814,50.32955c.08325-.06342-.02649-.37421-.16858-.71027l.02076.061C90.67235,49.62624,90.844,49.97072,90.98814,50.32955Z"/><path class="cls-2" d="M90.78917,49.54049l-.12329-.31348C90.5963,49.20894,90.70714,49.357,90.78917,49.54049Z"/><path class="cls-2" d="M90.76341,53.91573c.07117-.14929-.10046-.13-.03869-.20788C90.6627,53.50185,90.57847,54.78115,90.76341,53.91573Z"/><path class="cls-2" d="M91.45763,52.87551c.03027-.19537.047-.39325.06079-.59143-.02088.00891-.03443-.06653-.04541-.15869C91.48167,52.491,91.42052,52.8865,91.45763,52.87551Z"/><path class="cls-2" d="M91.473,52.12539a1.95057,1.95057,0,0,0-.04468-.47425C91.43773,51.75185,91.45787,51.965,91.473,52.12539Z"/><path class="cls-2" d="M88.125,58.45308c.1062-.11883.28247-.28418.17884-.25366q-.24024.21863-.4939.42316C87.78087,58.69625,87.942,58.61483,88.125,58.45308Z"/><path class="cls-2" d="M78.42528,34.23922a4.66605,4.66605,0,0,0-.54126.19958,2.95008,2.95008,0,0,1,.36938-.089Z"/><path class="cls-2" d="M77.366,34.8669l-.17053.32788a1.28225,1.28225,0,0,1,.374-.27551C77.50169,34.89907,77.43309,34.88051,77.366,34.8669Z"/></g></g></svg>