<svg xmlns="http://www.w3.org/2000/svg" viewBox="0 0 104.16942 117.48159"><defs><style>.cls-1{fill:#1d1d1b;}.cls-2{fill:#c66e6e;}</style></defs><title>Question_02</title><g id="Layer_2" data-name="Layer 2"><g id="Layer_1-2" data-name="Layer 1"><path class="cls-1" d="M103.12094,52.5457a50,50,0,1,0-60.06738,48.98584l4.34289,6.32794,5.72449,8.34107,5.72442-8.34107,4.3429-6.32788A50.01724,50.01724,0,0,0,103.12094,52.5457Z"/><path class="cls-2" d="M100.66942,52.91179c.058-.4627-.36859-.29681-.44055-.36608C100.28587,53.313,100.77922,52.89458,100.66942,52.91179Z"/><path class="cls-2" d="M100.94078,60.67324l-.15051-.16461a9.14241,9.14241,0,0,1,.21362,1.2041A7.5598,7.5598,0,0,0,100.94078,60.67324Z"/><path class="cls-2" d="M99.16154,67.72552c.86957-.44935.75446-2.53657,1.21424-3.74894l.20508-.17187-.43171-.7c-.1427.77014-.17413,1.69323-.34948,2.524A9.00968,9.00968,0,0,1,99.16154,67.72552Z"/><path class="cls-2" d="M96.3759,70.75759c.34534-.10629-.09229.84479.41748-.77686a1.36912,1.36912,0,0,1-.12647.12046C96.61253,70.24318,96.53111,70.43639,96.3759,70.75759Z"/><path class="cls-2" d="M96.66691,70.10119c.26673-.69214-.403.36053,0,0Z"/><path class="cls-2" d="M95.42107,73.30431l.22674-.97629c-.23767.11472-.67572.86255-.63269.5264C94.67686,73.79574,94.91466,73.69311,95.42107,73.30431Z"/><path class="cls-2" d="M95.454,74.36889l.14368-.50345C95.49455,73.91457,95.41118,74.02285,95.454,74.36889Z"/><path class="cls-2" d="M95.90074,72.80544l-.303,1.06c.16895-.07486.38422.01257.159-.47827C95.90526,73.55944,95.823,73.27776,95.90074,72.80544Z"/><path class="cls-2" d="M96.25731,72.29491c.35241-.44613.71979-1.07672.56219-.0516C97.46214,70.43874,96.8867,70.51375,96.25731,72.29491Z"/><path class="cls-2" d="M99.74852,68.3164l.43182-.66922-.02649-.70676C100.16594,67.29384,99.52171,68.29134,99.74852,68.3164Z"/><path class="cls-2" d="M92.06731,78.3966c.09362.13617.51269-.05429.71521-.011l.242-.70905C92.73674,77.93667,92.28038,78.4804,92.06731,78.3966Z"/><path class="cls-2" d="M92.78252,78.38561l-.36664,1.06989C92.96391,78.64358,92.956,78.42476,92.78252,78.38561Z"/><polygon class="cls-2" points="96.075 74.892 96.426 73.033 95.919 75.209 96.075 74.892"/><polygon class="cls-2" points="89.632 81.707 89.723 81.004 89.484 82.201 89.632 81.707"/><path class="cls-2" d="M87.90153,83.81457c.08344-.52848-.77679.12771-.59295-.34531a7.25953,7.25953,0,0,0-.91309,1.789A4.47823,4.47823,0,0,1,87.90153,83.81457Z"/><path class="cls-2" d="M85.928,86.14586a6.92306,6.92306,0,0,0,.46747-.88763A3.66739,3.66739,0,0,0,85.928,86.14586Z"/><path class="cls-2" d="M91.2426,80.90978a1.2278,1.2278,0,0,0-.8631.42157l.59766-.08179Z"/><path class="cls-2" d="M90.99718,81.24575l-.02.00381-.58.727Z"/><path class="cls-2" d="M91.30968,80.82439l-.06708.08539C91.30125,80.90185,91.3278,80.89022,91.30968,80.82439Z"/><path class="cls-2" d="M94.32756,77.24822c-.14105.66812-.66138,1.97046.35882,1.03931C94.68974,77.73559,94.1096,78.26357,94.32756,77.24822Z"/><path class="cls-2" d="M92.06547,80.71175c.25769-.297.53968-.57828.77924-.88983-.10559-.044-.35327.04065-.28021-.29758C92.43071,79.93947,92.231,80.31225,92.06547,80.71175Z"/><polygon class="cls-2" points="91.827 81.251 92.065 80.712 91.773 81.038 91.827 81.251"/><path class="cls-2" d="M87.602,85.02086a3.85887,3.85887,0,0,1-.99969,1.35752,8.02282,8.02282,0,0,0,1.48535-1.36026C88.05144,84.85747,88.065,84.48165,87.602,85.02086Z"/><path class="cls-2" d="M89.33928,83.26473l-.05615.09872C89.35655,83.33587,89.40239,83.30248,89.33928,83.26473Z"/><polygon class="cls-2" points="81.984 90.387 82.109 90.387 82.082 90.314 81.984 90.387"/><path class="cls-2" d="M88.22093,84.9887a1.68281,1.68281,0,0,0,.613-.913,11.40668,11.40668,0,0,1-.74634.94245C88.10417,85.09032,88.12822,85.12337,88.22093,84.9887Z"/><path class="cls-2" d="M84.83574,87.4489a8.17017,8.17017,0,0,0,.78656-.41876C85.344,87.10631,84.82707,87.304,84.83574,87.4489Z"/><path class="cls-2" d="M89.08073,83.41167l.03553-.06784C88.9373,83.40542,88.985,83.41955,89.08073,83.41167Z"/><path class="cls-2" d="M89.08073,83.41167a3.39379,3.39379,0,0,0-.24676.664,6.02131,6.02131,0,0,0,.44916-.71222A.74532.74532,0,0,1,89.08073,83.41167Z"/><path class="cls-2" d="M82.07432,93.7307c-.077-.191.12738-.542.48572-.906a3.52709,3.52709,0,0,1,1.44983-.97547c.7359-.96441-.6991-1.48825-1.90137-1.462.07666.159.179.28421-.59588,1.19708.44317-.07373,2.344-1.219,1.78723-.31708-1.11633,1.13031-1.074.71949-1.83179.96424.83283.0379-1.25311,1.69748-.57007,2.11453l1.02539-.99048C82.01115,93.43255,81.689,93.86391,82.07432,93.7307Z"/><path class="cls-2" d="M83.85405,89.05141l.34021-.332a5.60554,5.60554,0,0,1-1.6211.6004c-.49029.63684-.5299.85669-.49163.99463l1.86157-1.409Z"/><path class="cls-2" d="M85.75139,87.26742c.028.56579-.69324,1.49786.136,1.35656,1.01557-.99792.4795-.94635.96222-1.65735-1.57775,1.63178.30524-.61682-1.05181.32477a10.0477,10.0477,0,0,1,.80444-.913c-.33112.2395-.65943.45926-.98.65176l.05572-.01562.00666-.00821.00311.00641c.107-.027.15277-.02518.05212.02679a.165.165,0,0,1-.02795.03839.40934.40934,0,0,1,.03778.18778c-.53381.38086-.15057-.01194-.03778-.18778a.28946.28946,0,0,0-.02417-.06518l-.00977.0018c-.49359.56384-.9707,1.15228-1.48376,1.70486A10.81384,10.81384,0,0,0,85.75139,87.26742Z"/><path class="cls-2" d="M94.80321,79.83608a.10521.10521,0,0,1-.12378.00855C94.64238,80.00188,94.64152,80.07079,94.80321,79.83608Z"/><path class="cls-2" d="M94.07133,80.50667a1.36338,1.36338,0,0,1,.30512-.83416c.36383-.33319.17157.115.303.17212.08441-.347.36212-1.15079-.36878-.38682l-.03888.17109c-.597.73419-1.76538,1.36264-1.718,1.195A2.932,2.932,0,0,0,94.07133,80.50667Z"/><path class="cls-2" d="M90.09849,84.27065l-1.12481,1.56854.93268-.48037-.2005-.11219C90.5056,84.488,90.13866,84.48382,90.09849,84.27065Z"/><polygon class="cls-2" points="81.688 90.349 81.604 89.834 81.15 91.018 81.688 90.349"/><polygon class="cls-2" points="79.747 91.794 79.598 91.417 79.202 91.968 79.747 91.794"/><path class="cls-2" d="M5.03575,31.79729l.159-.59085A3.63018,3.63018,0,0,0,5.03575,31.79729Z"/><path class="cls-2" d="M3.46843,35.88384l.14813.16248C3.58385,35.82247,3.53752,35.71856,3.46843,35.88384Z"/><path class="cls-2" d="M36.78593,97.13292c-.31421-.30346-.62671-.6596-.86792-.88336-.23144-.24878-.39721-.35891-.4378-.133l.06073.50174A3.91264,3.91264,0,0,1,36.78593,97.13292Z"/><path class="cls-2" d="M6.25566,70.23919l-.02856.27462.60467.37366C6.65776,70.69167,6.46153,70.47091,6.25566,70.23919Z"/><path class="cls-2" d="M4.34782,70.30214l-.08459-1.18576A6.41238,6.41238,0,0,0,4.34782,70.30214Z"/><path class="cls-2" d="M18.82262,12.40047l.24462-.817C18.23662,12.33819,18.748,12.17586,18.82262,12.40047Z"/><path class="cls-2" d="M57.56987,105.51992a9.56725,9.56725,0,0,0-1.23975,1.344C57.03,106.2842,57.73717,105.91469,57.56987,105.51992Z"/><path class="cls-2" d="M8.69084,35.08419c.04236-.34558.01-.51492-.083-.54184C8.55705,34.89828,8.56706,35.113,8.69084,35.08419Z"/><path class="cls-2" d="M55.146,108.59188c.10809-.08078.19721-.17182.301-.25833a9.12082,9.12082,0,0,1,.88311-1.46967A3.09426,3.09426,0,0,0,55.146,108.59188Z"/><path class="cls-2" d="M95.71751,21.976c.02191.062.05982.12833.07532.18759C95.852,22.14486,95.80253,22.07284,95.71751,21.976Z"/><path class="cls-2" d="M100.69365,45.82857c-.06116-.22192-.11792-.58972-.17645-.93576A3.59783,3.59783,0,0,0,100.69365,45.82857Z"/><path class="cls-2" d="M71.11967,96.24532c.4563-.23459.05579-.07733,0,0Z"/><path class="cls-2" d="M74.13017,96.78411a.28972.28972,0,0,0-.10376.27685A.37081.37081,0,0,1,74.13017,96.78411Z"/><path class="cls-2" d="M54.2877,114.6144l-.02734.03723C54.37877,114.62932,54.3582,114.63064,54.2877,114.6144Z"/><path class="cls-2" d="M71.901,96.113a4.73053,4.73053,0,0,0-.64953.14837A4.89577,4.89577,0,0,0,71.901,96.113Z"/><path class="cls-2" d="M71.72508,95.96682l.42536-.14331C72.1801,95.73119,72.11,95.71258,71.72508,95.96682Z"/><path class="cls-2" d="M70.47764,96.55785a5.72838,5.72838,0,0,1,.77381-.29645c-.10315.01392-.15088.00843-.13178-.01608Z"/><path class="cls-2" d="M56.2653,1.38839c.03583.01553.07758.02646.11634.04706C56.95311,1.28411,56.70537,1.30031,56.2653,1.38839Z"/><path class="cls-2" d="M22.3549,94.48058c.02326.01285.04084.01233.06275.023l-.05616-.0639Z"/><path class="cls-2" d="M20.57024,93.476a2.35947,2.35947,0,0,1,1.79125.96366l.23035-1.4137Q21.59722,93.26368,20.57024,93.476Z"/><path class="cls-2" d="M10.03361,22.59316a10.3688,10.3688,0,0,0-1.12921.97107,7.96683,7.96683,0,0,1,.71021-1.92944c.14306-.348.06439-.3798-.57154.01526.247.23748.16492.64379-.07556,1.13476a14.27244,14.27244,0,0,1-.90545,1.73895c-.703,1.22162-1.402,2.44583-.85743,2.855a9.4077,9.4077,0,0,0-.68322.70468c.12994-.23815.07831-.31494.20752-.55038-1.3833,1.36572.27514,1.68372-.90973,3.70023-.44782.69174-.87775,1.13339-.78345.56405-.1778.58893-.23486,1.22483-.35535,1.82956-.20709.48831-.38318.28317-.176-.206l-.85694,2.65759-.03088-.03207c.05737.44043.07,1.38156.12323,1.849-.36206.62335-.05029-.38117-.25726-.2565l-.06537,1.57022c-.496.51519-.50885-.80622-.192-1.82788-1.66565,1.02975.00794,1.324-1.53375,4.15805L1.888,40.07482a3.12628,3.12628,0,0,0-.98175,1.44287C.67314,42.10424.55241,42.80486.175,43.60076c.15436-.17911.58167-.96411.9773-1.47006.40936-.50522.80688-.73041.79724.12121a3.78337,3.78337,0,0,0-.18323,1.99472c-.47784-.06927-.49548.82856-.63391,1.92768l-.6236-.15284c-.00506,1.22052.33649,1.15821.59162,1.88791A2.03605,2.03605,0,0,1,.02708,49.77779c-.20971,2.15375.86756-1.44281.86115,1.09848-.39044,1.76737.00873,3.03446.46857,5.11447-.16388,1.25043-.40009-.1893-.56269.26667.19068.35577.36316.70947.56848,1.05691.02283.26676-.14453.196-.22906.15952.31787.89691.64624.017,1.00812,1.42114.761.26666-.69336,3.10382.56854,4.69946-.081.46927-.42951-.12408-.64215.05939a12.45734,12.45734,0,0,0,2.07867,3.71l.11652,1.75253c.09381-1.35281,1.06274.02341,1.99243,1.12281.0387-.47742.12262-.89676.14215-1.164a21.65529,21.65529,0,0,0,1.1023,1.87835c.00189.278-.28376.16333-.66834-.0661.10565.117.208.22672.2945.309.07782.80271-.41456.58033-.9632.19129.01392-.29474.0376-.589.064-.874-.5802-.35418-1.15766-.69235-1.46528-.45986a3.67414,3.67414,0,0,1,.42792.6217c-.15375-.09567-.27752-.14822-.31177-.06394-.034.09385.18842.261.48029.53867l-.4671.734.31036.00912c.246.95826.46381,1.93924.74512,2.89975a46.25639,46.25639,0,0,1,5.34485,5.24411c-.86865-.395-.80927.31818-1.34986.62238A2.43625,2.43625,0,0,0,9.05968,79.035c-.25245-.28286-.55225-.56958-.80433-.90261a5.85027,5.85027,0,0,1-.64129-1.10379c.35675.83416.00812.80358-.18982.64694a29.62877,29.62877,0,0,0,2.10052,2.35568c-.46576.21164.03016.75851.29145,1.56152.2619-.54394.67791-.12732,1.2171.47455a22.26,22.26,0,0,0,1.66693,1.82688c-.218.26907-.67188.23959-1.53479-1.0355.4433,1.80268,2.21442,1.04944,2.771,2.69629-.254-.27148-.35108-.44967-.56665-.46274.78595.47306,2.03576,2.18763,1.48266,2.01987l-.25427-.27276c.39227.48117.90466,1.07406,1.46558,1.68649.59185.58212,1.2644,1.15231,1.892,1.66855a12.15246,12.15246,0,0,0,1.73578,1.23327c.52374.25357.92883.36325,1.13532.25586a3.89738,3.89738,0,0,1-1.13672.62494q1.33209.14712,2.61767.25446a23.52612,23.52612,0,0,0,2.56086.12506c-.74494.37481-.50592,2.64474-2.451,1.81561A5.80959,5.80959,0,0,0,24.57982,95.921c-.2843-.31439-.24372-1.43176.24621-1.18549a10.27324,10.27324,0,0,0,1.83557,2.52265c-.45-.42746.7287-1.08408,1.52442-.60413-.21387.07782-.48724,1.02258-.85364.95661l2.60907.15329c-.605-.10178-.5332.79437-.20294,1.338-.14588-.2656,1.87652.87778,2.50537,1.04062l-.818-.64908c2.40411,1.25244,3.01086-.33426,5.43408.53586a.872.872,0,0,0,.02038,1.669c.389-.185,1.23914-.57824,2.27338-1.00067a11.74328,11.74328,0,0,1,1.64862-.5654,4.64957,4.64957,0,0,1,1.94934-.13769c.15448.15188.29053.29877.418.44369l.6015.054c.13153.123.25714.26047.3891.39453l.80963.84836c-.387-.181-.89038-.42584-1.39276-.62067-.0636-.02331-.124-.05069-.19018-.06851l-.27027.05325-.52606.11533c-.34253.08072-.66553.16925-.95294.26565a21.99085,21.99085,0,0,1-3.51294.79429c.89825.52645.16162.44992,1.64477.799.44672.43033-.93011.2493-1.37585.15509l1.712.5332.85589.26529.136.08276c.10589-.29065.451-.49887.67633-.34384.13324.05768.25116.09918.41308.17707.20765.14456.37763.20648.4748.10058-.10285-.09848-.23938-.24618-.31446-.30426l-.202-.14029q-.196-.13175-.36853-.22919a4.6044,4.6044,0,0,0-.46912.05976l-.18463.045a.49961.49961,0,0,1-.1806.00006l-.24439-.0162c.00165-.17246.16651-.34061.44623-.4856a2.01381,2.01381,0,0,1,.80139-.43085q.13871-.03831.29578-.0668l.16107-.02566a.40985.40985,0,0,1,.118.05316,2.91966,2.91966,0,0,1,.48267.34637,5.81156,5.81156,0,0,1,1.04,1.2764c.1253.65533-1.24536.30026-1.40186.46841a5.57491,5.57491,0,0,1,1.64441,1.905l-.87311-.637c.5484,1.24591,1.97,1.29556,2.35053,2.98392.27838.48165.22357,1.85565.60589,1.70956.12049-1.18008,1.97705-2.66873,2.79328-2.49747a24.33161,24.33161,0,0,1,1.08239,3.54282c.01313.5506-.42791.54138-.962.37768-.49036-.09988-.98157-.21975-.97455.247a.601.601,0,0,1,.40759.09369,3.30765,3.30765,0,0,1,.48114.34769c.329.75656-.62713.09152.46436,1.53531.5805-.35892,1.97424,2.97839.79651.14227.98761,1.09476.90283,1.56314,2.01916,3.13718-.16156-.67432.25305-.85648.64405-.95069a20.54823,20.54823,0,0,1,.84667-2.33725.39481.39481,0,0,0,.32007.42075c1.4538-2.00964,2.57624-3.09814,3.89179-5.00458.25946-.08648,1.07049-.91516,1.03717-.34811a3.32843,3.32843,0,0,1,.47925-1.34894c1.28552-.83151-.84552,1.39414.34784.90671-.27442-.29993.618-1.86609,1.00225-2.86347-.68548-.08242-1.45623,1.91468-1.84179,2.91312-.69843-.47345-.40125-2.46823.67712-4.729.93994-1.73981.93207-.39423,1.02619-.74369a9.702,9.702,0,0,0,.66363-1.00189c.17053-.29977.36719-.67258.49738-.96982.13946-.31076.25219-.60388.35449-.88906a2.692,2.692,0,0,1,.574-.42951,7.30539,7.30539,0,0,1,.64044-.38165c.11872-.0622.24445-.12323.37977-.18274l.34552-.15024a4.74413,4.74413,0,0,1,1.659-.31073c1.2926.23145.34363,1.01627.70215,1.32629a5.77214,5.77214,0,0,1-1.91974.386,8.34223,8.34223,0,0,0-1.77.20838l1.5426-.12442c-.467.37182-1.58123.48168-1.86016,1.09591a1.93546,1.93546,0,0,0,.42175-.36093l.06219-.06546.10328-.01324.21637-.03162.47015-.08231c.64258-.12127,1.46826-.31717,2.33911-.52566a26.76258,26.76258,0,0,0,2.65326-.75687,22.59927,22.59927,0,0,1,2.42682-.62143c.41443-.34463,1.13208-.894.67438-.919-.26581.14025-.52448.3-.79737.42474-.47271-.077-.11444-.324.18292-.6026.303-.26715.57721-.49.02729-.35581a10.69613,10.69613,0,0,1,3.56823-2.2153l.55311.39493c-.11-.12985-1.119.19806-1.47821.53153.5299-.46622,2.65533-.45859,2.95147-1.51618l-1.224.18936a14.66833,14.66833,0,0,1,3.12262-2.719c-.86969-.14972-.24182.2507-1.46319.20364,1.22668.32947-3.22657,1.73117-1.53321,1.857a2.74366,2.74366,0,0,0-1.55633.208,4.15307,4.15307,0,0,1-1.75189.275c.12237.167.60168.15573-.53485.55173a1.21589,1.21589,0,0,1-.16932.27035L71.901,96.113l.07013-.00507c-.03564.049-.03741.0567.02582-.00244a1.44431,1.44431,0,0,1,.68622.03156c-.36163.661-2.132,1.4779-2.69354,1.86227-.72113.14664.20678-.31638-.24292-.38974l-.807.65811c-.24646-.39056-2.03949-.08459-.53265-.88391l-1.433.475a7.123,7.123,0,0,0-2.80963.56454,4.89059,4.89059,0,0,0-.86218.24957c-.341.12406-.63623.25376-.85541.35614-.43738.20475-.60193.30841-.1651.018-.7793.03549-1.00268.84637-1.38061,1.41022l-.52484.88772-.30024.5604-.10565-.0445c-1.44214,2.00122-2.25964,4.60663-4.52337,6.47263-.18824.37439-.37513.758-.62635,1.18225-.12561.2121-.26727.43432-.43329.67059a1.53621,1.53621,0,0,1-.26214.29318,2.77825,2.77825,0,0,1-.31146-.233c-.04206.18125-.23218.28653-.35267.3498-.12622.07165-.20056.1271-.2146.50527a4.85789,4.85789,0,0,0-.12561-.48925c-.08038-.48893-.13433-.514-.26818-.59653a1.24486,1.24486,0,0,1-.21112-.14072.50705.50705,0,0,1-.089-.09909c-.11524-.16931-.24488-.37317-.33551-.53933l-.45838.2286a27.45808,27.45808,0,0,0-2.59979-3.22452l-.31378.33487c-1.08509-.93039-1.74634-3.10794-3.02027-4.88308.22541.02551.50183.50769.63837.88955a5.7701,5.7701,0,0,0-1.10919-2.18817l-.4914-.67486-.25109-.327c-.09278-.09518-.26777-.07126-.39734-.11136l-1.67676-.26944-.40051-.0585-.24207-.0184-.48138-.04035c-.31916-.02969-.6341-.06656-.94007-.11993a3.47362,3.47362,0,0,1-1.66327-.65372,2.2903,2.2903,0,0,1-1.28979-.45151.44609.44609,0,0,0,.13971.02335c-.05286-.024-.13349-.05273-.21686-.0805-.20972-.1539-.421-.32166-.65729-.47883a3.19,3.19,0,0,0,.53943.43976,12.53382,12.53382,0,0,0-1.7088-.40008l-.07562-.55432-.14057-.04782c-.50634-.42066-.55163.00344-.37811.47729A4.1726,4.1726,0,0,0,34.123,96.965c-.15918-.92169-1.6778-.4596-1.968-1.49408-.5816.19552-2.99353-1.28916-3.741-.71619.03613-.10651-.1073-.24551.20813-.07989A6.12952,6.12952,0,0,0,26.787,93.59627l.07459-.68622-1.79242-.20516c-.60279-.84955-.79712-1.238.2716-1.09333-2.29077-.78341-1.63458-.92184-3.65472-1.58435l.3302-.24313c-.58362-.39771-1.74744-.8049-1.84332-1.34-.32013-.82721-1.76722-2.1311-3.21277-3.87485-.37244-.42431-.75757-.86312-1.14673-1.30645-.3429-.4802-.68927-.96521-1.03162-1.44458a13.95242,13.95242,0,0,1-1.67529-2.88129c-.55865,1.29681-.55817-1.86093-1.4093-1.51508.10913-.34228-.05426-.89016.49859-.46609a7.25657,7.25657,0,0,1-1.17816-2.16736,3.38273,3.38273,0,0,0-1.23431-1.62067c.14215-.32568.56653.21225.61786-.0429-.12494-.11908-.52649-.46414-.44361-.73542.07209-.25988.31293.18238.58338.40632-.884-1.84772-1.70862-1.73615-2.51776-1.56846a2.39047,2.39047,0,0,0-1.07959-2.15853c.13073-.44928.20251-1.12754.68664.092-.17029-.73188-1.03467-4.38352-1.5982-4.3165a2.18309,2.18309,0,0,0-.2948-1.19751c-.15674-.818-.24207-1.26328-.3266-1.70456-.09412-.43918-.19538-.87235-.31482-1.68146l-.04346.46695c-.84631-.51913-.35022-1.33237-.61749-2.631l.08362.02869a8.04386,8.04386,0,0,0-.04755-2.17173,5.00455,5.00455,0,0,1,.11932-2.139l-.472.1759c-.51288-.124-.41986-.80539-.18591-1.655a6.11948,6.11948,0,0,0,.48541-2.73831l-.30518.61386c-.15222-.48587.23187-1.13754.674-1.76105.22431-.30783.45294-.62161.65753-.90243a2.56887,2.56887,0,0,0,.46552-.76587c.11993-.18891.0943.33291.11719.61777.97284-2.31662-.576-.38193-.44355-2.21012.3852-.27884.78772.55338,1.0318-.63351a1.6455,1.6455,0,0,0,.07856-.82782,9.65723,9.65723,0,0,1-.04493-1.4,5.595,5.595,0,0,1,.66565-2.92437c-.34185.28277-.686.57556-.66253-.30686a3.73579,3.73579,0,0,1,.39093-1.0556c.2182-.35892.45251-.74426.68268-1.12286a3.12755,3.12755,0,0,0,.61206-2.23121c.12316-.1297.20788-.16265.27044-.14477A11.50887,11.50887,0,0,1,9.154,32.525a5.06379,5.06379,0,0,0,.33679-1.82159c.4718-.0253.8291-.4068,1.12237-.958a15.78262,15.78262,0,0,0,.90723-1.8909c.56055-1.341,1.06073-2.61722,1.68628-2.17727l1.77008-2.50647.0758.15945a6.87961,6.87961,0,0,0,1.64789-2.98975c.38593-.26974.267.07276.30194.15342a15.70074,15.70074,0,0,0,2.09729-2.08734,13.18075,13.18075,0,0,0,1.48993-2.24344l.51618.20044a2.40708,2.40708,0,0,1,.71179-.66025c.18994-.13535.40118-.29288.6449-.44721l.81518-.45889a20.69366,20.69366,0,0,0,1.78284-1.129c.60107-.4147,1.13934-.939,1.68024-1.39569a.42008.42008,0,0,1-.14136.3451,9.74458,9.74458,0,0,1,2.12823-1.35972,16.00946,16.00946,0,0,1,2.37531-1.00018c1.55591-.53467,2.78845-1.08972,2.95788-2.17337.578-.42313,1.19635-.76669,1.80158-1.15823-2.631.81234.102-.871-1.073-.76059,1.004-.48007,2.84509-.46161,1.6181.08633l-.22717-.013c-.13782,1.04282,3.31384-.86856,3.45813-.13061,5.12116-1.63211,10.43421-1.51947,15.33673-1.33255l-.55-.76044,1.74762.13058c.44873.193.57184.60175-.65826.50956.62024.44671,2.09259-.24335,2.15143-.39963,1.20221.24734.93078.48465.47522.57495-.46155.13226-1.12457.26077-.75708.28216a6.61669,6.61669,0,0,1,1.0003.03449l-.21393-.11954a3.99166,3.99166,0,0,1,2.4231-.214c.9115.287.405.51795.76587.60141-.01086.05069.10748.09339.55524.10529a14.357,14.357,0,0,1,2.10815.51773l-.71924-.78214c1.004-.03427,2.00031.547,1.16278-.34411a4.74732,4.74732,0,0,0,1.75482.95395c.40229.14786.84546.28885,1.30744.42523.44757.18262.91394.36063,1.37793.53174l2.58154.9237a4.63376,4.63376,0,0,1,1.42249.73627,8.74505,8.74505,0,0,1,2.02826.57977,10.47287,10.47287,0,0,1,2.05468,1.0676c-.29632-.321-.20233-1.02295,1.01563-.18964-.56506.44031-.07.91178.6217,1.44684.68683.54264,1.60938,1.11341,1.771,1.88883-.46491-1.14466,3.34936,2.30917,2.59961.61483.90314.80976-.24829.44059.28375,1.23078a15.38323,15.38323,0,0,1,3.49487,3.04358c1.091,1.24572,2.0708,2.68429,3.33069,3.90454.1676-.06479-.00122-.69571.67792-.27133l.4198,2.03189c.4787.49569,1.20111-.08826,1.46649,1.28335.01434-.22732.03461-.57226.36243-.22839a11.0691,11.0691,0,0,1,.61572,1.15628l.60626,1.16385c.41681.76846.8581,1.52383,1.31568,2.2738q.58979,1.17806,1.183,2.36286c.37927.79663.8645,1.55188,1.16522,2.3872a22.72318,22.72318,0,0,1,2.15082,10.32584c.19507-.98743.3216-.37588.44306.3374.0097-.47784.43042-.05935.65185-.18823l-.21771,2.99554c.684.47519.20056,3.13367.84857,3.41666l-.16125-.93225c.80993,1.23505,1.568-1.85309,2.53076-1.76758a2.09225,2.09225,0,0,1-.2594-1.24075,14.28675,14.28675,0,0,1,.10736-1.54947,4.82176,4.82176,0,0,0-.647-3.44272c.07361-.56036.39441.38428.54847.06207a3.93378,3.93378,0,0,1-.97022-2.58694l.13715.12549c-.26514-.93094-.46582-1.73471-.63135-2.48645-.21619-.736-.4256-1.411-.61188-2.11219a30.26028,30.26028,0,0,0-1.57464-4.92l-.28815.49326a5.36928,5.36928,0,0,1-.3869-1.5643c-1.10852-.64664,1.10766,2.3919-.03424,1.84674.1485-.7443-.49475-2.2782-1.27429-3.67212-.81177-1.37876-1.58387-2.71784-1.347-3.38086-.75909-1.23956-.22156.65262-.99976-.56269l.01526-.475-.53149-.07413c-.51172-.79095-.501-1.39517-.32172-1.57468a5.69174,5.69174,0,0,0,.618.67383c-.47693-1.19552-2.16546-2.757-2.38855-3.11612a12.32588,12.32588,0,0,1,.72888,1.21152c-.61718-.77841-1.38275-1.49963-2.10247-2.29224-.73987-.77377-1.43952-1.62216-2.22907-2.37478-.811-.731-1.62732-1.45105-2.44128-2.11859-.41107-.32868-.8039-.66553-1.22675-.94486-.43377-.26611-.8648-.51443-1.29138-.73971l.09314.34915a7.96048,7.96048,0,0,1-2.14551-1.53394,9.15675,9.15675,0,0,0-.78357-.73092,14.151,14.151,0,0,0-1.53869-.92023l.127.01486a6.83547,6.83547,0,0,1-2.16724-.9538c.81775.18949-1.04577-1.228-.00231-.9342-3.01551-1.05279-1.5716-.39719-3.77759-.558l-.2724-.54227a7.00624,7.00624,0,0,1-.91535-.0033,13.54756,13.54756,0,0,1-1.45813-.35486c1.32874.14841-.73626-.87179.78461-.76171a9.13271,9.13271,0,0,0-3.66937-1.38865c-1.00037-.20651-1.80286-.21936-2.387-1.00677-1.74334.61121,2.63471,1.2659,1.74421,1.26733.57672.51462-1.42554.4079-2.38929.06757a4.34383,4.34383,0,0,1-1.40869-1.0459,5.88885,5.88885,0,0,0-1.03528-.71893A6.33963,6.33963,0,0,0,61.93333,1.401c.26386.04544.29541-.02832.55915.01666-.95862-.41207-2.00367.05149-3.16962-.555-.75018.48163-1.59283-.21145-1.86078.57266a17.51026,17.51026,0,0,1,2.44562.09519c-1.40735-.06159-2.75885.84134-4.97882.27789a4.52442,4.52442,0,0,1,1.33642-.42c-.6546-.26691-1.28692.08993-1.96875-.184C54.51726.438,57.2769,1.14409,58.82408.69509c-.6925-.44464-2.88464.40448-2.0661-.42847A2.24186,2.24186,0,0,1,54.7675.611,3.76715,3.76715,0,0,0,52.257.82338l.11286-.48043a5.346,5.346,0,0,1-1.411.35693l.94574-.663c-1.46186.60382-2.903-.32831-4.32135.062,2.997-.20078.723.52615,2.00494.79986a6.22565,6.22565,0,0,1-1.91742.19272A2.65932,2.65932,0,0,1,46.63341.81218C46.01482.541,45.31315.22878,43.27147.65886c.54907-.153,2.13476-.03942,1.30255.31034A11.4495,11.4495,0,0,1,42.19365.82927c-2.648.77765.51269.37238-.55664.94626-1.03046-.33288-1.24579.56211-2.33637,1.03424l-.13714-.46283c-1.54932.23188-1.67255.53833-1.7508.83558-.08325.28915-.1264.55474-1.48205.85119l.88678-1.0358-1.31073.66263.09845-.6203A9.39007,9.39007,0,0,1,32.248,4.4829c.46033.156.1637.8913-1.04919,1.492-.9599.14431.27356-.64115-1.44257.26275a1.46,1.46,0,0,1,1.48767-.979c.01178-.18024.26538-.4635.2832-.64429a10.82384,10.82384,0,0,0-2.97961,1.35794,3.084,3.084,0,0,1,.74487-.235l-1.11871.91848L27.13194,7.67739c-.46972.07306-.244-.23413-.01452-.53977-.4657.34327-.69147.73951-1.38617,1.21039-.01978-.44662-.28046-.7626.66095-1.54959L24.29344,8.584a3.71106,3.71106,0,0,0-.78973.11658c-.29084.07456-.528.11334-.426-.05255a8.81166,8.81166,0,0,0-1.99988,1.81183,14.77929,14.77929,0,0,1-2.24743,2.051,1.7514,1.7514,0,0,1-.41083.6492c-.72205.59537-1.47315,1.08615-2.20581,1.66782a7.56488,7.56488,0,0,0-1.90924,2.34189l-1.37757.47153c-1.05157,1.39813,1.81116-.67991.0763,1.62921-1.06751,1.74783-.92951.22674-1.52039.67743a14.37235,14.37235,0,0,1-.72894,1.9747,7.33331,7.33331,0,0,1-1.59106,2.12069A5.9653,5.9653,0,0,1,10.03361,22.59316ZM1.96434,42.2134c-.03265-.42481-.10754-1.29053.23743-1.52216C2.63145,41.2727,2.25963,41.55446,1.96434,42.2134ZM6.5648,73.39766a1.74644,1.74644,0,0,1-.40045-1.22818A3.61687,3.61687,0,0,1,6.5648,73.39766Zm59.363,25.045a.21367.21367,0,0,0-.03284.03229C65.03087,98.49666,65.33909,98.49621,65.92778,98.44268Zm1.73352-.301c.146-.1217.11365-.1813.02313-.22128-.07763.15607-.44732.29279-.87958.40674C66.958,98.40761,67.199,98.4164,67.6613,98.14165ZM61.58293,5.26946l-.31744-.176C62.057,5.07338,61.81975,5.16417,61.58293,5.26946Z"/><path class="cls-2" d="M4.56847,70.30974a.452.452,0,0,1,.19335-.25579C4.637,69.92934,4.54747,69.957,4.56847,70.30974Z"/><path class="cls-2" d="M18.7783,12.55068l.05207-.03989a.20653.20653,0,0,0-.00775-.11032Z"/><path class="cls-2" d="M48.61473,113.11214a1.78449,1.78449,0,0,1-.30658-.88669c-.05444.025-.078.08686-.05041.20411a1.14945,1.14945,0,0,0,.08233.21966C48.40294,112.76836,48.49913,112.92989,48.61473,113.11214Z"/><path class="cls-2" d="M75.777,93.74953l-.90851.64459a2.3511,2.3511,0,0,1,.94861-.34277C75.74107,93.96444,75.4785,93.9229,75.777,93.74953Z"/><path class="cls-2" d="M85.59776,90.60256c.0954-.15189.28369-.22769.363-.39383l-.18128-.137C85.237,90.5523,84.94163,90.996,85.59776,90.60256Z"/><path class="cls-2" d="M77.47642,94.64394c.27234.29117.87049-.12082,1.48224-.65533a1.05587,1.05587,0,0,1-.1181.07885C78.73784,93.45934,78.13982,94.09618,77.47642,94.64394Z"/><path class="cls-2" d="M79.10618,93.87365a4.77687,4.77687,0,0,1,.61152-.42032C79.67149,93.21074,79.44273,93.57976,79.10618,93.87365Z"/><path class="cls-2" d="M69.66942,97.16436c.38769-.02277.037-.56079.29248-.474C70.1754,96.07036,67.84813,98.07793,69.66942,97.16436Z"/><polygon class="cls-2" points="78.73 95.48 78.217 95.19 78.02 95.76 78.73 95.48"/><path class="cls-2" d="M72.80241,98.07287l1.24921-.40345c-.05335-.06817.07733-.1802.24689-.29666C73.55748,97.6838,72.71556,97.949,72.80241,98.07287Z"/><path class="cls-2" d="M74.29851,97.37276a2.96485,2.96485,0,0,0,.91662-.50808C75.01951,96.97777,74.577,97.17763,74.29851,97.37276Z"/><polygon class="cls-2" points="77.23 96.477 76.84 96.573 76.01 96.988 77.23 96.477"/><path class="cls-2" d="M60.62718,104.43831l-.69238,1.26261c.05908.21759.36658-.045.61218-.5235C60.64238,104.82689,60.88841,104.351,60.62718,104.43831Z"/><path class="cls-2" d="M64.10332,102.23488a1.22528,1.22528,0,0,1-.37952-.07754.46535.46535,0,0,0-.28583-.06287l.37537.55072C63.81975,102.40151,63.99162,102.373,64.10332,102.23488Z"/><path class="cls-2" d="M61.96562,105.16918c.0614.21524-.76892,1.99441.22662.47494C62.13359,105.42757,62.82768,104.16338,61.96562,105.16918Z"/><polygon class="cls-2" points="48.665 110.175 48.878 110.471 49.688 109.852 48.665 110.175"/><path class="cls-2" d="M33.70463,101.54928c1.5987.83184.62165-.44349,2.03449.37164.47241-.09131-1.154-.66177-.67828-.71741C33.95775,101.11248,33.50053,100.72573,33.70463,101.54928Z"/><path class="cls-2" d="M35.06084,101.20351a5.5543,5.5543,0,0,0,.56591.03186A2.52419,2.52419,0,0,0,35.06084,101.20351Z"/><polygon class="cls-2" points="100.524 49.686 100.365 50.732 100.673 50.047 100.524 49.686"/><path class="cls-2" d="M101.38139,51.66445l-.63611.25665.62024.62461C101.32426,52.30749,101.24425,51.84807,101.38139,51.66445Z"/><path class="cls-2" d="M.18925,45.16372l.14154.10922c.19434-.1554.24762-.42194.3559-.956Z"/><polygon class="cls-2" points="5.084 30.23 4.955 30.468 5.705 30.263 5.084 30.23"/><path class="cls-2" d="M11.44823,18.60265c-.34717.42075-.62885,1.01407-.976,1.4361C11.10313,19.01992,12.10423,18.94744,11.44823,18.60265Z"/><path class="cls-2" d="M45.44554,76.97085c.008-.05079-.09631-.03254-.1153-.04023C45.35539,77.01742,45.47276,76.9681,45.44554,76.97085Z"/><polygon class="cls-2" points="45.716 77.759 45.84 77.855 45.761 77.766 45.716 77.759"/><path class="cls-2" d="M45.74913,78.04c.06134.15784.2196.32709.21387.45056.1408-.12653-.1186-.24609-.09418-.3963l.03363-.03174Z"/><path class="cls-2" d="M45.75285,78.92849l-.00781.024a.45878.45878,0,0,1,.03308.0766C45.82854,78.97414,45.87321,79.087,45.75285,78.92849Z"/><path class="cls-2" d="M45.745,78.95247c-.04254-.0755-.02789.07575,0,0Z"/><path class="cls-2" d="M45.828,79.33187c.0877.08618.11.04272.13617-.04785l-.10938-.06793C45.83024,79.25637,45.87248,79.35018,45.828,79.33187Z"/><path class="cls-2" d="M46.12913,79.30782l-.05175-.03485C46.06731,79.29049,46.06981,79.30691,46.12913,79.30782Z"/><path class="cls-2" d="M46.03282,79.23482c.0506-.01788-.00494-.01288-.06305-.03979l.10761.07794C46.09428,79.24434,46.14372,79.21425,46.03282,79.23482Z"/><path class="cls-2" d="M45.96,79.12191c.00329-.07245-.00769-.15424.09527-.0857C45.94212,78.86306,45.83971,78.94417,45.96,79.12191Z"/><path class="cls-2" d="M46.14805,78.45931l.02326-.08868-.07831-.04029C46.13182,78.35036,46.09746,78.48379,46.14805,78.45931Z"/><path class="cls-2" d="M46.278,79.91341c.03418-.01794.05694-.09143.0907-.12713l-.08393-.038C46.28825,79.79769,46.31908,79.874,46.278,79.91341Z"/><path class="cls-2" d="M46.3687,79.78628l.12512.054C46.43437,79.75216,46.39787,79.75557,46.3687,79.78628Z"/><path class="cls-2" d="M46.32939,79.25045l-.021-.02985-.2149-.097C46.1718,79.169,46.24876,79.2123,46.32939,79.25045Z"/><polygon class="cls-2" points="46.465 80.283 46.647 80.284 46.577 80.275 46.465 80.283"/><path class="cls-2" d="M46.80192,80.4847c-.0877.01636-.03607.13654-.1062.131a.44406.44406,0,0,0,.25019.05628A.22354.22354,0,0,1,46.80192,80.4847Z"/><path class="cls-2" d="M46.58879,80.15l.04913-.10632-.02929-.03638A.16293.16293,0,0,0,46.58879,80.15Z"/><path class="cls-2" d="M46.63945,80.04012l-.00153.00354.06195.07959Z"/><path class="cls-2" d="M46.61143,79.4609c-.087.00372-.08361.0982-.21612.06659C46.48448,79.55013,46.61534,79.62374,46.61143,79.4609Z"/><path class="cls-2" d="M46.52373,79.81252l.142.05579-.059-.11048C46.5861,79.7773,46.568,79.82088,46.52373,79.81252Z"/><polygon class="cls-2" points="46.666 79.868 46.689 79.909 46.731 79.892 46.666 79.868"/><path class="cls-2" d="M46.98894,80.463a.32262.32262,0,0,1,.17114.07874.97907.97907,0,0,0-.13452-.16852C46.99534,80.39071,46.93132,80.41256,46.98894,80.463Z"/><polygon class="cls-2" points="47.673 80.952 47.675 80.93 47.663 80.944 47.673 80.952"/><path class="cls-2" d="M46.92161,80.29854a.52435.52435,0,0,1,.10395.07465c.01361-.00787.02112-.01453.00531-.02252C47.00737,80.29928,46.96666,80.29622,46.92161,80.29854Z"/><path class="cls-2" d="M47.22075,80.66121c-.0022.04425.0083.12055.03412.10547A.86158.86158,0,0,0,47.22075,80.66121Z"/><path class="cls-2" d="M46.82548,80.29384l-.009-.00256C46.8123,80.32021,46.81883,80.31075,46.82548,80.29384Z"/><path class="cls-2" d="M46.82548,80.29384a.27037.27037,0,0,0,.09613.0047.41141.41141,0,0,0-.08746-.03851A.13215.13215,0,0,1,46.82548,80.29384Z"/><path class="cls-2" d="M47.49211,80.78237l-.047-.0221a.514.514,0,0,1,.05982.21454c.09863.01221.13379-.00769.15765-.03106l-.193-.16059Z"/><path class="cls-2" d="M47.26878,80.61648c.09931-.05445.221-.01764.239-.15216-.11377-.08472-.13349.00366-.22968-.01777.19275.13514-.09039,0-.00268.15937a.48062.48062,0,0,1-.11536-.06421.79624.79624,0,0,1,.06067.1195l.00024-.00878-.0011-.00049.00128-.0011c.001-.01709.00379-.02551.00745-.01184l.00519.00165a.16136.16136,0,0,1,.03455-.02369c.03747.06281-.00989.02857-.03455.02369l-.01264.01019-.00018.00159.22412.10784A.667.667,0,0,0,47.26878,80.61648Z"/><path class="cls-2" d="M46.87279,79.52852c-.02161-.00323-.06379.01282-.08759-.03552-.00244-.05554.04114-.03119.06763-.05481-.04151-.00665-.12995-.04053-.10993.06989l.02143.0036a.42874.42874,0,0,1-.02417.26806A.97875.97875,0,0,0,46.87279,79.52852Z"/><path class="cls-2" d="M47.23143,80.02248l-.036.04315c-.06091-.08892-.09192-.02655-.13269-.00537l.17187.095Z"/><polygon class="cls-2" points="47.573 81.087 47.762 81.022 47.661 81.01 47.573 81.087"/><polygon class="cls-2" points="47.827 81.223 47.919 81.21 47.889 81.145 47.827 81.223"/><path class="cls-2" d="M54.22429,81.31807l-.07581-.082a.1649.1649,0,0,1-.13476.05555C54.131,81.33285,54.28783,81.41018,54.22429,81.31807Z"/><path class="cls-2" d="M50.42833,81.93661a.42124.42124,0,0,0,.17761.07788C50.52086,81.94674,50.45933,81.85006,50.42833,81.93661Z"/><path class="cls-2" d="M50.81779,82.02376l-.03778-.0263a.354.354,0,0,1-.17407.017C50.66832,82.06466,50.74388,82.09871,50.81779,82.02376Z"/><path class="cls-2" d="M48.75456,81.63851l-.04193-.02826C48.69914,81.62429,48.70085,81.63723,48.75456,81.63851Z"/><path class="cls-2" d="M48.82371,81.66421l.07593.02166a.23845.23845,0,0,1-.08166-.04236A.02887.02887,0,0,1,48.82371,81.66421Z"/><path class="cls-2" d="M56.784,75.53048c.05573-.31183-.15741.01507-.26153-.15711.06512-.06561.21893-.03241.18212-.16784.03754-.1012-.4118-.244-.35974-.47528-.03631.0686-.07434.13323-.16137.08026-.08521-.10126.00354-.45435-.23951-.43445a.07591.07591,0,0,1,.02558-.05036c-.10517-.054-.28278-.211-.40747-.17993.24072-.36413-.58112-.303-.32227-.57263l-.25519-.1864.03077-.02545a.304.304,0,0,0-.36658-.07874c-.022-.04779.02563-.05749.0404-.07153-.19506-.22925-.2373-.23608-.541-.19483l.04022-.12017c-.08691.03027-.28436-.3808-.61658-.36139a.087.087,0,0,1,.05133-.03858c-.34106.005-.64386-.59857-.88409-.19091l-.231.05822c.25318.09357-.08319.182.00617.27912-.10309.00372-.2295-.19165-.10083-.18628l.01477.02649c.097-.22358-.30921-.14551-.27564-.301a9.0748,9.0748,0,0,0-1.56476-.20276l.06885.17914-.1748-.00006c-.04908-.0368-.07434-.13879.0534-.139-.0755-.10144-.20556.10627-.20337.14508-.25433-.04864.07386-.22186-.00134-.21862l-.10333.02423.026.01886c-.07611.08209-.07257.16406-.22388.17608-.10077-.02227-.06689-.10449-.10589-.10547-.0019-.01281-.01587-.01635-.05921.0058l-.22748.02851.11829.12329c-.08307.087-.20532.03912-.07111.17419-.20593-.22821-.8211.13825-.92681.11261a.664.664,0,0,1-.36719.26947c.05133.00751.14514.14191.01141.18787-.11236-.32117-.29986-.00318-.52685-.13886.17279.0727-.33161.2685-.06177.36151-.11408.04786-.07813-.09826-.20075-.10784-.15734.27606-.56219.33972-.791.64324.0282.03406.11859.0373.11261.13764-.098-.006-.19312-.00464-.29242-.00385-.03247.07141.14764.21228-.052.21961.04059.0083.10083.02215.082.06842a1.87148,1.87148,0,0,0-.6117.899,3.66945,3.66945,0,0,1-.51049,1.02148c.10217-.08527.09808-.01611.08764.05969.02893-.04565.10681.01947.1673.01972-.0741.08892-.13678.18274-.206.27954.15881.07074-.01416.32953.14673.367l-.026-.09546c.10383.07367.22974.0149.36274-.04113-.00592.09466-.02826.183-.02826.28a4.1079,4.1079,0,0,0,1.43121,3.1059,4.99424,4.99424,0,0,0,.65.49933.12927.12927,0,0,1-.16839-.114c-.13025-.0033-.27167.29681-.29077.50824.0285-.03431.04992-.06269.18408-.04517-.00824-.06635-.14173-.25647-.00952-.27014.15234.049.08276.09973.11621.1864.01452-.12061.19867-.07208.29016-.17523.11835.0733.24921.1217.373.18414l.0086.01752.07239.045-.05255-.04846c.13873.06878.27106.15051.41662.20569-.01123.01208-.02874.02118-.02386.04095l.08472.0108c.03692.12879-.20209.08637-.11847.1709-.133.02863-.30756.09131-.43427-.038L48.62,81.063c-.01666.04168.059.12805.12012.10473-.09333.03174-.13672-.29028-.2912-.14819l.05511.14844c-.1383.01483-.35461.08783-.46271-.0354-.01586.16638.03815.00244.0467.21289.02087-.23578.35095.19543.31982-.082.00989.23425.1355.16235.20349.38318.01532-.04834-.01153-.10895.10132-.03632a.21476.21476,0,0,1,.04352-.03046l.00677.00684-.00445-.0083c.008-.00488.00915-.00617-.00171-.00293a.17189.17189,0,0,1-.03241-.09607c.10339-.0813.28888-.006.373-.04315.06263.04718-.04827.04455-.02722.109l.12433-.05219c-.02637.10938.13971.2359-.0545.247l.15686.05151a.31516.31516,0,0,0,.29382.11731c.07166.04212.217-.08306.13348-.00921l.26368-.02283-.00208.02808c.25141.05633.52289-.1222.79431.09259a.5216.5216,0,0,1,.30872-.02741l.02814.09662c.10534-.03357.32812.08814.36944-.0177.13526.26025.53565.00861.73.02228l-.01379-.12641a1.01387,1.01387,0,0,0,.39526-.162l-.03528-.10682c.11017-.11889.36267-.008.57044-.09149-.00049.04529-.05768.05237-.103.04.34064.16065.45593-.36078.73975-.28894A.11309.11309,0,0,1,53.9,81.27315l-.01062.01178.02258-.00958.10181.01624a.2981.2981,0,0,0-.09021-.0224.49868.49868,0,0,0,.1416-.1247l.08337.09155.01233-.01068c.08142.00592.01941-.07574-.05578-.13775a.31214.31214,0,0,0,.0418-.1059c.1449.13989.11506-.14642.28711-.00861-.01544-.10949.24292-.25122.14344-.44653.018.02118.04119.02039.01385.04273.07257-.02332.14661-.048.16242-.13428l.1181.10144-.00452-.2608c.1333.01232.2013.02563.20093.17865.06128-.29206.10382-.17646.12677-.44324l.06085.07879c.04926-.05316.03809-.22351.12464-.197.25592.02088.55114-.56085.90661-.84417-.29315-.072.21112-.11225.02051-.236.07318.01056.13538-.02746.15643.0633.03876-.22815.24573-.268.12476-.48267.07452,0,.07672.08051.12347.07367-.00634-.02246-.02984-.0885.01575-.09753.04578-.00885.0448.05169.059.09662.06848-.23224-.1297-.31629-.31543-.38813.11877-.079.12274-.14087.01386-.24627.07049-.02167.15209-.0719.145.068.0326-.0694.18323-.45422.02088-.481.04376-.019.02148-.1051.005-.12628a1.20551,1.20551,0,0,0,.02558-.3512l-.02735.046c-.18921-.06646-.04437-.13519-.07031-.26751l.01984.0028c.11395-.31506-.06757-.12176.04889-.44134l-.11628.03375c-.25665.01544.11066-.28631-.03454-.44177l-.05048.07751c-.10553-.0642.26868-.35229.26136-.46814C56.727,75.45363,56.75828,75.505,56.784,75.53048Zm-6.87311-3.42365.0401.025C49.87846,72.18,49.89506,72.14547,49.91093,72.10683Zm-1.75909,8.461.0119-.00952.01636.01263Zm1.28552,1.18884L49.443,81.752C49.5189,81.819,49.49242,81.79342,49.43736,81.75667Zm.7807-.12475c-.19568.02405-.062-.147-.09887-.12207-.33558-.09235-.36994.313-.63343.09344-.08166-.15838.06311-.25989.06183-.36.15558-.01453.20172.13849.30451.15136l-.10932-.08691c.05609-.033.15857-.04871.204.00018a.21076.21076,0,0,0-.10065-.06756,5.69465,5.69465,0,0,0,.75226.09332A.62209.62209,0,0,1,50.21806,81.63192Zm1.14911-.163a.2487.2487,0,0,0-.03723-.12353l-.003-.00049c.05591-.0025.11-.00922.16528-.01312A.36234.36234,0,0,1,51.36717,81.469Zm.64966-.11688a.16087.16087,0,0,1-.01782-.06055c.05523-.00842.10949-.01928.16412-.02917l.03882.19281-.014-.19922c.05646-.0105.10889-.03015.16461-.04224a1.20368,1.20368,0,0,1,.04456.3526A1.361,1.361,0,0,1,52.01683,81.35207Zm1.22192-.09851-.12762.14618c.01648-.10388.04327-.264.07153-.42761.08331-.03229.16162-.07617.24317-.11255a.746.746,0,0,1-.11811.45569Zm1.48084-1.18085c.01648-.01361.035-.0224.05133-.03619.01379-.01166.02264-.02472.03625-.03638.01746.08289.043.16187.0578.24616A1.0507,1.0507,0,0,0,54.71959,80.07271ZM56.25792,77.939l.02722.04638a.10272.10272,0,0,1-.10834.00531c.00952-.03168.02576-.06146.03437-.09338l.04675.04169-.037-.0683c.00287-.01093.009-.021.01172-.032a.84178.84178,0,0,0,.12884-.05322l.03107.22235C56.3607,78.02511,56.31364,77.98879,56.25792,77.939Z"/><path class="cls-2" d="M48.3065,81.41659c-.01037.02636-.00775.07379-.043.05755l.12464.02716C48.3311,81.482,48.32451,81.44723,48.3065,81.41659Z"/><path class="cls-2" d="M47.77232,80.291l-.03161.04644c.05517.03986.119.03333.07989-.02887C47.79924,80.31038,47.79375,80.289,47.77232,80.291Z"/><path class="cls-2" d="M48.35142,81.06771c.03986-.09369-.03942-.09509-.11706-.12061l.01214.00714C48.1552,81.06435,48.25279,81.07064,48.35142,81.06771Z"/><path class="cls-2" d="M48.21672,80.94063a.18884.18884,0,0,1-.06488-.03534C48.1143,80.94924,48.17174,80.93087,48.21672,80.94063Z"/><path class="cls-2" d="M49.02574,81.64791c-.02924-.03784-.06653.11413-.07458.06756C48.86729,81.8232,49.2559,81.6559,49.02574,81.64791Z"/><polygon class="cls-2" points="48.456 80.745 48.419 80.867 48.505 80.799 48.456 80.745"/><path class="cls-2" d="M48.81157,81.03219c.06756.03381.136.087.14691.05175l-.09991-.07782C48.852,81.02608,48.83256,81.03194,48.81157,81.03219Z"/><path class="cls-2" d="M50.29747,81.35488c-.035.02716-.08606.03619-.07117.08026l.1369-.02106C50.381,81.37276,50.34819,81.343,50.29747,81.35488Z"/><polygon class="cls-2" points="45.451 76.618 45.393 76.73 45.481 76.66 45.451 76.618"/><path class="cls-2" d="M45.4691,76.863l.14532.06762c-.00665-.02465-.01953-.07312.01752-.09124Z"/><path class="cls-2" d="M36.51555,29.5483c.03357.43372.14734.18732.11877.20081C36.63768,29.49557,36.53526,29.58681,36.51555,29.5483Z"/><path class="cls-2" d="M38.97429,32.92287a4.04346,4.04346,0,0,0,.59021.12744,3.85681,3.85681,0,0,1-.5069-.1347Z"/><path class="cls-2" d="M40.74858,33.25582l-.11139-.04077c-.10052.04706-.20489.08795-.31293.12665a3.05416,3.05416,0,0,0,1.34717-.2074,5.83375,5.83375,0,0,0,1.00488-.55188,4.86488,4.86488,0,0,0-.80609.40271A2.23655,2.23655,0,0,1,40.74858,33.25582Z"/><path class="cls-2" d="M44.02074,31.85152l.0697-.04742.25525-.27173C44.2108,31.57357,44.58794,31.18355,44.02074,31.85152Z"/><path class="cls-2" d="M44.09044,31.8041c-.26325.28271.21655-.14289,0,0Z"/><path class="cls-2" d="M44.93236,30.85238c.077-.04114.30249-.266.24286-.159.24939-.28949.17627-.27-.0401-.1618A2.81616,2.81616,0,0,0,44.93236,30.85238Z"/><path class="cls-2" d="M45.33678,30.1802l-.14789.15814C45.23015,30.32741,45.272,30.29409,45.33678,30.1802Z"/><path class="cls-2" d="M45.05546,30.49288c-.01025-.06274-.04309.03467-.13073.19324a3.22548,3.22548,0,0,1,.26416-.34778C45.128,30.35659,45.0786,30.31954,45.05546,30.49288Z"/><path class="cls-2" d="M44.54845,30.915c-.5979.73926-.40918.72613.18554-.032C44.52824,31.08,44.27788,31.33907,44.54845,30.915Z"/><path class="cls-2" d="M42.13823,32.72378c.1333-.09357.6297-.36536.57135-.40186-.10626.06592-.2171.12494-.32813.18066Q42.266,32.6173,42.13823,32.72378Z"/><path class="cls-2" d="M47.46037,29.28048c.0119-.04547-.17181-.04114-.22131-.074l-.28833.171C47.11821,29.32876,47.42284,29.23342,47.46037,29.28048Z"/><path class="cls-2" d="M47.23906,29.20644q.21213-.12075.434-.23187C47.25615,29.11287,47.19908,29.18111,47.23906,29.20644Z"/><path class="cls-2" d="M44.81077,30.6a3.62612,3.62612,0,0,1,.58631-.71717l-.12293.094A3.47274,3.47274,0,0,0,44.81077,30.6Z"/><polygon class="cls-2" points="49.244 28.811 48.988 28.947 49.453 28.733 49.244 28.811"/><path class="cls-2" d="M50.564,28.81551a7.67039,7.67039,0,0,0,.89337-.1626,4.69092,4.69092,0,0,1-.9696-.00061C50.28526,28.739,50.78032,28.75588,50.564,28.81551Z"/><path class="cls-2" d="M48.8889,28.78255l-.21234-.06476-.19055.04273A.79246.79246,0,0,0,48.8889,28.78255Z"/><path class="cls-2" d="M48.66905,28.71584l.00751.002.41595-.07617Z"/><path class="cls-2" d="M46.42772,29.38289c.23279-.18615.78619-.49548.1933-.33172C46.45878,29.21,46.78844,29.10763,46.42772,29.38289Z"/><path class="cls-2" d="M47.65361,28.83407c.01923.02337.12213.0332-.00531.10583.17023-.08288.34344-.16315.52087-.23675C47.99589,28.74178,47.82408,28.78579,47.65361,28.83407Z"/><polygon class="cls-2" points="48.414 28.605 48.169 28.703 48.362 28.661 48.414 28.605"/><path class="cls-2" d="M50.98448,28.48055a3.58345,3.58345,0,0,1,.77509-.06592,7.20407,7.20407,0,0,0-.933-.01745C50.78526,28.43313,50.65611,28.49837,50.98448,28.48055Z"/><polygon class="cls-2" points="54.569 28.683 54.528 28.656 54.514 28.672 54.569 28.683"/><path class="cls-2" d="M50.77385,28.37978a1.24546,1.24546,0,0,0-.49829.0705c.17126-.02417.35382-.04407.551-.0531C50.84508,28.38119,50.84825,28.371,50.77385,28.37978Z"/><path class="cls-2" d="M52.69359,28.55385c-.11847-.02911-.25421-.053-.397-.07733A1.10005,1.10005,0,0,0,52.69359,28.55385Z"/><path class="cls-2" d="M49.978,28.54348l-.03357.00854C50.02141,28.56655,50.01091,28.55642,49.978,28.54348Z"/><path class="cls-2" d="M49.978,28.54348a2.93911,2.93911,0,0,0,.29755-.0932,3.53516,3.53516,0,0,0-.37751.07238A.40614.40614,0,0,1,49.978,28.54348Z"/><path class="cls-2" d="M53.53239,28.49282l-.21869-.01209a3.20222,3.20222,0,0,1,.728.229c.362.00781.44135-.0072.47241-.0373-.34845-.07177-.70117-.13171-1.05774-.17321Z"/><path class="cls-2" d="M52.7238,28.16091c-.65509-.02289-.46216.06494-.8526.10583,1.05.00165-.30121.04566.45227.13331-.21307.00555-.39215.01019-.5639.01458.18762.01679.36859.0318.537.06189l-.0235-.00775-.00488.00012.0011-.00165c-.04419-.01544-.05872-.02429-.00854-.01422l.02172-.00122a.1186.1186,0,0,1,.04853-.03845c.30017.03571.046.03009-.04853.03845-.00366.00513-.012.00977-.01318.01544l.00378.00153q.521-.01044,1.04065.012a6.48169,6.48169,0,0,0-.98272-.068C52.50645,28.308,53.04228,28.3,52.7238,28.16091Z"/><path class="cls-2" d="M47.05015,28.61373c.03449-.00336.03595.00433.0412.01068C47.15086,28.58687,47.17222,28.56875,47.05015,28.61373Z"/><path class="cls-2" d="M47.08848,28.76479l.064-.04083a3.02712,3.02712,0,0,1,.863-.12177,1.29458,1.29458,0,0,0-.53058-.08166,1.14412,1.14412,0,0,1-.35163.181c-.21447.04944-.01849-.04822-.04187-.07709C46.95909,28.70669,46.631,28.90053,47.08848,28.76479Z"/><path class="cls-2" d="M48.01543,28.60219l.03808.01416C48.06779,28.609,48.04948,28.60457,48.01543,28.60219Z"/><path class="cls-2" d="M49.93809,28.213c.28925-.04693.58063-.08819.87421-.11749l-.45575-.06659.027.05432C49.88011,28.102,49.99547,28.16451,49.93809,28.213Z"/><path class="cls-2" d="M54.52092,28.84487c.1712-.02551.33954-.035.513-.0528l-.37982-.0382Z"/><polygon class="cls-2" points="55.656 29.1 55.948 29.13 55.723 29.018 55.656 29.1"/><path class="cls-2" d="M50.34263,49.75362c-.3424.23908-.72015.53168-.60369.55664l.16113-.035A2.31846,2.31846,0,0,1,50.34263,49.75362Z"/><path class="cls-2" d="M60.77556,37.67367c-.08979.322-.15406.55249-.21015.75384C60.71049,38.0768,60.84929,37.786,60.77556,37.67367Z"/><path class="cls-2" d="M59.09575,52.06753c-.1117.12249-.16779.19928-.12409.19628C59.079,52.1437,59.11565,52.08223,59.09575,52.06753Z"/><path class="cls-2" d="M60.32622,39.29348,60.4,39.14406l.1654-.71655A2.84,2.84,0,0,0,60.32622,39.29348Z"/><path class="cls-2" d="M38.31987,25.95687a2.2,2.2,0,0,0-.30255.37213A3.95639,3.95639,0,0,1,38.31987,25.95687Z"/><path class="cls-2" d="M59.29771,31.33816c-.14715-.16675-.03082-.02,0,0Z"/><path class="cls-2" d="M59.11058,31.05416l.16852.23382A2.26454,2.26454,0,0,0,59.11058,31.05416Z"/><path class="cls-2" d="M59.10368,31.12246l-.12555-.14978C58.94456,30.96627,58.9575,30.98842,59.10368,31.12246Z"/><path class="cls-2" d="M59.49669,31.57583c-.0788-.0998-.15216-.19318-.21759-.28785.022.03882.02881.057.01861.05018Z"/><path class="cls-2" d="M69.2495,36.50667c-.16083,1.29291-.17353-.21-.30011.3144.02752-.50116.21661-1.299.21221-.67371l-.0285.09644c.249.24578.12714-1.61237.26117-1.58191a13.1052,13.1052,0,0,0-2.22046-7.16913c.00617.11145.012.22156.01062.33514-.15393-.23675-.32355-.46277-.487-.69324-.11218-.19372-.066-.33148.29041.166a1.76459,1.76459,0,0,0-.743-.73206c-.74292-.92877.47174.20429.22912-.065-.10919-.12622-.22925-.24213-.34338-.3634l.06.09753a4.95953,4.95953,0,0,1-.9173-.73614c-.31506-.33539-.09882-.24115-.22894-.36805.00952-.00891-.03241-.05462-.20459-.19018-.27143-.23364-.54395-.46985-.83124-.68524.08929.12066.17212.24768.25207.376-.41192-.241-.80236-.59844-.49908-.184A6.2065,6.2065,0,0,0,61.88621,23.109c-.84674-.454-1.72174-.7497-1.91369-.86633-.65692-.1222-1.26843-.32435-2.04505-.52363.18677.07593.26032.26056-.40008.08112.32147-.28479-1.20142-.40106-1.72235-.70691.475.20209-1.96082-.182-1.20392.12781-.56928-.07391-.02307-.12769-.45239-.24207a43.92636,43.92636,0,0,0-4.71979-.0238c-.0221.04639.26575.08514-.08991.18652-.3031-.04333-.609-.08905-.9165-.11853-.33307.0661-.27087.28675-.90088.23816.0921.02222.22839.05628.0091.10675a14.15289,14.15289,0,0,0-4.84626,1.48914,24.3714,24.3714,0,0,0-4.299,2.88165c.39508-.28015.17035-.05737-.06561.218.1723-.16156.07709.07672.15253.08191a6.85294,6.85294,0,0,0-1.00776,1.08,5.07889,5.07889,0,0,1-.328.87548,1.51062,1.51062,0,0,0-.14514.83264c.02185-.15637.04669-.31408.081-.46893.0127.33112.15827.13111.351-.086.01855-.02185.03894-.04272.05828-.06451a3.96519,3.96519,0,0,0-.24316,1.34082,3.01114,3.01114,0,0,0,1.09589,2.4635,3.64564,3.64564,0,0,0,2.363.907,2.98758,2.98758,0,0,0,1.94116-.78173,11.23247,11.23247,0,0,0,1.68708-1.77,6.3612,6.3612,0,0,1,2.65759-1.76648,12.09307,12.09307,0,0,1,4.59888-.78174c.56579,0,1.10132.0321,1.62225.07965l.0155.055c.27271.02564.462.01642.3357-.022.25348.02893.4989.06641.74133.107-.4408.027-.15094.36554.23108.61768.02392-.03729.03186-.08643.5636-.02307-.16327-.10449-1.1424-.358-.67963-.36231a1.69223,1.69223,0,0,1,.89447.28424c-.21942-.17877.62207.00647.80237-.07043a9.66851,9.66851,0,0,1,1.04877.41919l.06274.16193.23242.00238-.24109-.1399a8.26649,8.26649,0,0,1,1.65338,1.033,7.09742,7.09742,0,0,1,.92231.91614c-.015.00049-.02063.01257-.00214.05353.08881.10345.18713.20007.26868.30993.14032.35553-.58618-.50677-.31122-.07452-.39789-.37061-.88782-.69891-1.44763-1.18542l-.02747-.205a1.9693,1.9693,0,0,0,.533.46448c-.265-.15412-.81445-.86847-1.23-.85535.1402.11163.26611.24225.397.36023-.491-.22809-1.1344-.37421-1.72467-.64386.22193.24231.15027.03815.50092.37665-.13678-.1792.24237-.01593.57544.16913.33429.17993.626.37738.41778.108.28418.42193.64057.51941.96711,1.05224.021-.0495-.0868-.21722.274.16529a.48028.48028,0,0,1,.11121.05267l.02124.02881-.01526-.02551c.02094.01165.02344.012-.0058-.0094a1.12287,1.12287,0,0,1-.13653-.24555c.28692.08789.83807.75647,1.03454.979.15186.28631-.12036-.08246-.07208.09558.10278.10479.20581.21191.29913.32727-.06506.09259.20642.83471-.17614.20343a5.717,5.717,0,0,1,.27185.60058c.08966.38385.2135.8982.31927,1.218.04193.30957.24518.77515.12384.51068a9.382,9.382,0,0,1,.14777,1.06244l-.02783.0105A7.08559,7.08559,0,0,1,60.4,39.14406a4.2657,4.2657,0,0,1-.44928,1.23291l-.13776.06037c-.15985.43017-.767,1.11181-.80987,1.31958a18.42418,18.42418,0,0,0-2.13337,2.26831l.06855.11328c-.38178.42609-.76795.7793-1.2948,1.27685l.10449.05988a25.434,25.434,0,0,1-2.11774,1.52448.60712.60712,0,0,1,.18994-.17841c-1.00164.58405-1.79315,1.54456-2.65838,2.1554a2.28489,2.28489,0,0,1-.48255.48767.43427.43427,0,0,0,.04493-.05408.85171.85171,0,0,0-.08033.08392l-.30121.2594a2.96216,2.96216,0,0,0,.26087-.21185,7.2605,7.2605,0,0,0-.52557.69629l-.17786.03723-.04224.0625c-.22693.23071-.1065.23883.067.15729a3.04953,3.04953,0,0,0-.19275.38391c-.2973.11029-.40991.73211-.74518.93921a8.10945,8.10945,0,0,0-.5213,1.64135,3.01958,3.01958,0,0,0-.3465.95643l-.19323.093c-.023.26422-.02466.53083-.02674.7945-.21521.42059-.32123.59845-.309.11889a13.38856,13.38856,0,0,0-.15655,1.86646l-.08936-.0625a6.82055,6.82055,0,0,1-.10852,1.07812,9.6392,9.6392,0,0,0-.30383,2.3761,12.98244,12.98244,0,0,0,.14972,3.389c.08081-.242.107.00336.19555.31171.07917.31048.2912.68542.41517.64325.02807.1463.25268.42535-.07264.1748a3.68958,3.68958,0,0,0,1.2193.79987,2.1001,2.1001,0,0,0,1.06562.16278c.11309.08575-.24146.06824-.13935.12384a1.4533,1.4533,0,0,1,.45355.034c.10517.04969-.16015.04639-.33654.05219,1.108.09863,1.19214-.17841,1.26654-.3634a1.637,1.637,0,0,0,1.14843-.137c.1883.02838.51185.05261-.134.17438a5.0745,5.0745,0,0,0,1.2663-.26508c.52472-.17724.94348-.55181.89813-.62554a1.27533,1.27533,0,0,0,.436-.51014,2.31984,2.31984,0,0,0,.35076-.86956,3.77859,3.77859,0,0,0,.04773-.86091l-.027.21192c-.19159-.30274-.04206-.63684-.05243-1.25318l.01941.01807c.1817-1.40643-.05945-.615.174-1.99481l-.12452.06787c-.25238-.14917.23206-1.22052.249-2.01929l-.10571.27845c-.03626-.45441.52417-1.15882.65856-1.54718.04358-.08307-.00048.1474-.009.27764.4093-1.01452-.1372-.17889.06488-.96325.13129-.10688.13214.24463.34235-.23535.08343-.10559.176-.48053.36664-.89637a2.98407,2.98407,0,0,1,.77856-1.10016c-.15643.08515-.31634.17463-.104-.15545.369-.48413,1.28711-.98181,1.58471-1.50067.071-.03852.10474-.04535.11811-.03546A14.08969,14.08969,0,0,0,60.328,50.72207c.61517.05145,2.02221-2.18415,2.28094-1.88929l1.054-1.033.00073.05317a3.941,3.941,0,0,0,.91888-1.32569c.15747-.15057.084-.00519.08771.02185a8.47971,8.47971,0,0,0,1.58637-2.13373l.17181-.02227a11.06443,11.06443,0,0,0,1.7478-2.90888c.00745.018.01813.05371-.00982.16138.25305-.73541.64459-1.57642.89495-2.35095a2.68276,2.68276,0,0,0,.18665-1.76892Q69.26473,37.0144,69.2495,36.50667Zm-4.30616-11.404.104.13556C64.74242,25.01162,64.842,25.05874,64.94334,25.10268Zm-9.68872,3.13379a3.71853,3.71853,0,0,1-.77508-.16748C54.745,28.11721,55.00267,28.17385,55.25462,28.23647Zm.25189.065.00312-.00158.04113.01025C55.53593,28.30776,55.52141,28.30367,55.50651,28.30147Zm5.04456,5.13825.01129.01507C60.618,33.82613,60.60228,33.6932,60.55107,33.43972Zm.16467-.014c-.04132-.543.24628-.10644.30121-.24683a5.18,5.18,0,0,1,.26544,1.57819c.003-.2027-.01837-.403-.02844-.60644a2.77279,2.77279,0,0,1,.16986.96746,1.4496,1.4496,0,0,0,.0091-.22711,10.30093,10.30093,0,0,1,.06158,1.0896,11.62369,11.62369,0,0,1-.234,2.31268,16.50869,16.50869,0,0,1-.09637-1.65918c-.02088-.87615.1463-.37792.12292-.53057a3.27486,3.27486,0,0,0-.24011-1.47193A4.53768,4.53768,0,0,1,60.71574,33.42574ZM59.858,41.742c-.12439.18731-.26093.37-.40027.55163.07885-.1759.16821-.35907.24994-.51556C59.72185,41.82082,59.79851,41.77907,59.858,41.742ZM56.9351,44.78737c.2912-.20288.58222-.455.71619-.5249.07306-.03906.10577-.02966.12439-.00342-.19421.20673-.38257.40192-.55884.57337-.01721.01684-.04059.03662-.05829.05371l-.14343-.12384.05341.20672c-.18567.17493-.40027.36371-.63916.56415a.35537.35537,0,0,1-.10425-.3468C56.36186,45.16237,56.63322,44.98482,56.9351,44.78737ZM53.013,47.81869l.58338-.56373a9.50852,9.50852,0,0,1-.53327.8349c-.36932.28235-.64672.5047-.82275.66193-.096.07874-.1767.1734-.26984.25507a3.74405,3.74405,0,0,1,.83057-1.1297Zm-4.54742,5.64093a.22414.22414,0,0,0,.01453.07763C48.45042,53.5367,48.40355,53.61776,48.46556,53.45962ZM48.128,55.43953c-.05456.19629-.11206.38959-.161.5918-.02392-.21356-.05139-.4259-.06671-.64227C47.94194,55.456,48.03129,55.44985,48.128,55.43953Zm3.23316,10.47016c-.12329-.02551-.0221-.07648.13775-.155l-.18151.04632c-.14893-.02136-.189-.05145-.18506-.08477.16968-.00312.3327-.01044.49066-.02106l-.12409.05951.24555-.0647c.06726-.00543.13281-.012.19794-.0188a2.99628,2.99628,0,0,0,.41772.05646A8.30949,8.30949,0,0,1,51.36113,65.90969Z"/><path class="cls-2" d="M53.82017,46.82131c.07184-.04187.13605-.097.21021-.13452A2.38265,2.38265,0,0,0,53.82017,46.82131Z"/><path class="cls-2" d="M57.48924,29.90066c.14307.07763.29163.14874.42926.2362a2.56733,2.56733,0,0,1-.3515-.27161C57.56206,29.89528,57.62034,29.979,57.48924,29.90066Z"/><path class="cls-2" d="M57.27531,29.32436c.00806-.10437-.29693-.22931-.64227-.34686l.05933.02508C56.54027,29.09194,56.9116,29.19314,57.27531,29.32436Z"/><path class="cls-2" d="M56.2379,28.8312c-.05975.03985.12451.05566.3161.11657Z"/><path class="cls-2" d="M59.80266,31.8785c-.06409-.15247-.16394-.01154-.18085-.1095C59.42674,31.67818,60.32561,32.59243,59.80266,31.8785Z"/><path class="cls-2" d="M59.48814,30.66805c-.12561-.15265-.26227-.29669-.401-.4389-.0072.02148-.07257-.01862-.14862-.07178C59.21721,30.39419,59.47172,30.70308,59.48814,30.66805Z"/><path class="cls-2" d="M58.55473,29.87526l.38379.28211A1.94571,1.94571,0,0,0,58.55473,29.87526Z"/><path class="cls-2" d="M61.43382,36.86727c-.01813-.15833-.02417-.3999-.07037-.30225q.0032.32484-.01282.65027C61.38628,37.286,61.43278,37.11153,61.43382,36.86727Z"/><path class="cls-2" d="M36.87309,28.19625l.0318-.20191a4.66587,4.66587,0,0,0-.21118.53687A2.943,2.943,0,0,1,36.87309,28.19625Z"/><path class="cls-2" d="M36.6685,29.20278l.13123.34552a1.2835,1.2835,0,0,1,.04321-.46252C36.78282,29.12288,36.72337,29.1617,36.6685,29.20278Z"/></g></g></svg>