<svg xmlns="http://www.w3.org/2000/svg" viewBox="0 0 104.16942 117.48159"><defs><style>.cls-1{fill:#1d1d1b;}.cls-2{fill:#c66e6e;}</style></defs><title>Question_05</title><g id="Layer_2" data-name="Layer 2"><g id="Layer_1-2" data-name="Layer 1"><path class="cls-1" d="M103.12094,52.5457a50,50,0,1,0-60.06739,48.98584l4.3429,6.32794,5.72449,8.34107,5.72442-8.34107,4.3429-6.32788A50.01724,50.01724,0,0,0,103.12094,52.5457Z"/><path class="cls-2" d="M100.66942,52.91179c.0581-.4627-.36853-.29681-.44055-.36608C100.28587,53.313,100.77928,52.89458,100.66942,52.91179Z"/><path class="cls-2" d="M100.94078,60.67324l-.15051-.16461a9.1622,9.1622,0,0,1,.21362,1.2041A7.55038,7.55038,0,0,0,100.94078,60.67324Z"/><path class="cls-2" d="M99.16148,67.72552c.86963-.44935.75452-2.53657,1.21424-3.74894l.20507-.17187-.43164-.7c-.1427.77014-.17419,1.69323-.34948,2.524A9.00365,9.00365,0,0,1,99.16148,67.72552Z"/><path class="cls-2" d="M96.376,70.75759c.34522-.10629-.09241.84479.41736-.77686a1.36145,1.36145,0,0,1-.12647.12046C96.61253,70.24318,96.53111,70.43639,96.376,70.75759Z"/><path class="cls-2" d="M96.66685,70.10119c.26685-.69214-.40295.36053,0,0Z"/><path class="cls-2" d="M95.42113,73.30431l.22668-.97629c-.23767.11472-.67578.86255-.63269.5264C94.67686,73.79574,94.91466,73.69311,95.42113,73.30431Z"/><path class="cls-2" d="M95.45409,74.36889l.14355-.50345C95.49449,73.91457,95.41112,74.02285,95.45409,74.36889Z"/><path class="cls-2" d="M95.90074,72.80544l-.3031,1.06c.16907-.07486.38428.01257.15906-.47827C95.90526,73.55944,95.823,73.27776,95.90074,72.80544Z"/><path class="cls-2" d="M96.25731,72.29491c.35241-.44613.71985-1.07672.56213-.0516C97.46214,70.43874,96.8867,70.51375,96.25731,72.29491Z"/><path class="cls-2" d="M99.74852,68.3164l.43176-.66922-.02637-.70676C100.166,67.29384,99.52171,68.29134,99.74852,68.3164Z"/><path class="cls-2" d="M92.06724,78.3966c.09363.13617.51282-.05429.71521-.011l.24207-.70905C92.7368,77.93667,92.28038,78.4804,92.06724,78.3966Z"/><path class="cls-2" d="M92.78245,78.38561l-.36657,1.06989C92.964,78.64358,92.956,78.42476,92.78245,78.38561Z"/><polygon class="cls-2" points="96.075 74.892 96.426 73.033 95.919 75.209 96.075 74.892"/><polygon class="cls-2" points="89.632 81.707 89.723 81.004 89.484 82.201 89.632 81.707"/><path class="cls-2" d="M87.90159,83.81457c.08338-.52848-.77685.12771-.593-.34531a7.2616,7.2616,0,0,0-.91309,1.789A4.47857,4.47857,0,0,1,87.90159,83.81457Z"/><path class="cls-2" d="M85.92808,86.14586a6.94707,6.94707,0,0,0,.46741-.88763A3.661,3.661,0,0,0,85.92808,86.14586Z"/><path class="cls-2" d="M91.24254,80.90978a1.22771,1.22771,0,0,0-.863.42157l.59766-.08179Z"/><path class="cls-2" d="M90.99718,81.24575l-.02.00381c-.29126.36518-.49341.61847-.58.727C90.473,81.88433,90.65355,81.66442,90.99718,81.24575Z"/><path class="cls-2" d="M91.30968,80.82439l-.06714.08539C91.30125,80.90185,91.32774,80.89022,91.30968,80.82439Z"/><path class="cls-2" d="M94.3275,77.24822c-.141.66812-.66126,1.97046.35888,1.03931C94.68968,77.73559,94.1096,78.26357,94.3275,77.24822Z"/><path class="cls-2" d="M92.06541,80.71175c.25782-.297.5398-.57828.7793-.88983-.10559-.044-.35327.04065-.28015-.29758C92.43065,79.93947,92.23106,80.31225,92.06541,80.71175Z"/><polygon class="cls-2" points="91.827 81.251 92.065 80.712 91.773 81.038 91.827 81.251"/><path class="cls-2" d="M87.602,85.02086a3.85981,3.85981,0,0,1-.99975,1.35752,8.02314,8.02314,0,0,0,1.48535-1.36026C88.05138,84.85747,88.06493,84.48165,87.602,85.02086Z"/><path class="cls-2" d="M89.33922,83.26473l-.056.09872C89.35655,83.33587,89.40233,83.30248,89.33922,83.26473Z"/><polygon class="cls-2" points="81.984 90.387 82.109 90.387 82.082 90.314 81.984 90.387"/><path class="cls-2" d="M88.22093,84.9887a1.68315,1.68315,0,0,0,.613-.913,11.40668,11.40668,0,0,1-.74634.94245C88.10411,85.09032,88.12828,85.12337,88.22093,84.9887Z"/><path class="cls-2" d="M84.8358,87.4489a8.18374,8.18374,0,0,0,.7865-.41876C85.344,87.10631,84.82713,87.304,84.8358,87.4489Z"/><path class="cls-2" d="M89.08067,83.41167l.03552-.06784C88.93724,83.40542,88.985,83.41955,89.08067,83.41167Z"/><path class="cls-2" d="M89.08067,83.41167a3.39724,3.39724,0,0,0-.2467.664,6.03792,6.03792,0,0,0,.44922-.71222A.74559.74559,0,0,1,89.08067,83.41167Z"/><path class="cls-2" d="M82.07432,93.7307c-.077-.191.12732-.542.48572-.906a3.52662,3.52662,0,0,1,1.44983-.97547c.736-.96441-.6991-1.48825-1.90137-1.462.07666.159.17908.28421-.59582,1.19708.44311-.07373,2.34387-1.219,1.78711-.31708-1.11633,1.13031-1.074.71949-1.83167.96424.83277.0379-1.25317,1.69748-.57019,2.11453l1.02539-.99048C82.01109,93.43255,81.689,93.86391,82.07432,93.7307Z"/><path class="cls-2" d="M83.85411,89.05141l.34009-.332a5.60283,5.60283,0,0,1-1.6211.6004c-.49023.63684-.52978.85669-.49157.99463l1.86157-1.409Z"/><path class="cls-2" d="M85.75133,87.26742c.028.56579-.69324,1.49786.1361,1.35656,1.01551-.99792.4795-.94635.96216-1.65735-1.57776,1.63178.3053-.61682-1.05175.32477a10.03853,10.03853,0,0,1,.80444-.913c-.33118.2395-.65943.45926-.98.65176l.05566-.01562.00672-.00821.00317.00641c.10693-.027.15271-.02518.052.02679a.16153.16153,0,0,1-.028.03839.40782.40782,0,0,1,.03784.18778c-.53381.38086-.15064-.01194-.03784-.18778a.28914.28914,0,0,0-.02405-.06518l-.00989.0018c-.49353.56384-.97058,1.15228-1.48376,1.70486A10.81117,10.81117,0,0,0,85.75133,87.26742Z"/><path class="cls-2" d="M94.80321,79.83608a.10521.10521,0,0,1-.12378.00855C94.64244,80.00188,94.64146,80.07079,94.80321,79.83608Z"/><path class="cls-2" d="M94.07139,80.50667a1.36234,1.36234,0,0,1,.30506-.83416c.36377-.33319.17163.115.303.17212.08435-.347.36218-1.15079-.36878-.38682l-.03894.17109c-.59692.73419-1.76526,1.36264-1.71789,1.195A2.93245,2.93245,0,0,0,94.07139,80.50667Z"/><path class="cls-2" d="M90.09849,84.27065l-1.12475,1.56854.93262-.48037-.20044-.11219C90.5056,84.488,90.13866,84.48382,90.09849,84.27065Z"/><polygon class="cls-2" points="81.688 90.349 81.604 89.834 81.15 91.018 81.688 90.349"/><polygon class="cls-2" points="79.747 91.794 79.598 91.417 79.202 91.968 79.747 91.794"/><path class="cls-2" d="M5.03575,31.79729l.15894-.59085A3.62846,3.62846,0,0,0,5.03575,31.79729Z"/><path class="cls-2" d="M3.46849,35.88384l.14807.16248C3.58385,35.82247,3.53758,35.71856,3.46849,35.88384Z"/><path class="cls-2" d="M36.78587,97.13292c-.31421-.30346-.62658-.6596-.8678-.88336-.23144-.24878-.39721-.35891-.43786-.133l.06067.50174A3.912,3.912,0,0,1,36.78587,97.13292Z"/><path class="cls-2" d="M6.2556,70.23919l-.02844.27462c.217.13413.42016.25971.60461.37366C6.6577,70.69167,6.46153,70.47091,6.2556,70.23919Z"/><path class="cls-2" d="M4.34788,70.30214l-.08459-1.18576A6.40705,6.40705,0,0,0,4.34788,70.30214Z"/><path class="cls-2" d="M18.82262,12.40047l.24462-.817C18.23668,12.33819,18.748,12.17586,18.82262,12.40047Z"/><path class="cls-2" d="M57.56993,105.51992a9.56538,9.56538,0,0,0-1.23987,1.344C57.02989,106.2842,57.73717,105.91469,57.56993,105.51992Z"/><path class="cls-2" d="M8.69078,35.08419c.04248-.34558.01013-.51492-.083-.54184C8.557,34.89828,8.56712,35.113,8.69078,35.08419Z"/><path class="cls-2" d="M55.146,108.59188c.10815-.08078.19727-.17182.301-.25833a9.12893,9.12893,0,0,1,.88305-1.46967A3.09421,3.09421,0,0,0,55.146,108.59188Z"/><path class="cls-2" d="M95.71751,21.976c.02185.062.05982.12833.07532.18759C95.852,22.14486,95.80247,22.07284,95.71751,21.976Z"/><path class="cls-2" d="M100.69371,45.82857c-.06128-.22192-.11792-.58972-.17651-.93576A3.59614,3.59614,0,0,0,100.69371,45.82857Z"/><path class="cls-2" d="M71.11973,96.24532c.45618-.23459.05567-.07733,0,0Z"/><path class="cls-2" d="M74.13023,96.78411a.2897.2897,0,0,0-.10388.27685A.37066.37066,0,0,1,74.13023,96.78411Z"/><path class="cls-2" d="M54.2877,114.6144l-.02734.03723C54.37877,114.62932,54.35826,114.63064,54.2877,114.6144Z"/><path class="cls-2" d="M71.901,96.113a4.72854,4.72854,0,0,0-.64953.14837A4.89363,4.89363,0,0,0,71.901,96.113Z"/><path class="cls-2" d="M71.72508,95.96682l.42542-.14331C72.18016,95.73119,72.11,95.71258,71.72508,95.96682Z"/><path class="cls-2" d="M70.47764,96.55785a5.72838,5.72838,0,0,1,.77381-.29645c-.10315.01392-.15088.00843-.13172-.01608C70.98448,96.31112,70.79368,96.404,70.47764,96.55785Z"/><path class="cls-2" d="M56.26524,1.38839c.03589.01553.07764.02646.11634.04706C56.95311,1.28411,56.70543,1.30031,56.26524,1.38839Z"/><path class="cls-2" d="M22.35484,94.48058c.02332.01285.0409.01233.06287.023l-.05615-.0639Z"/><path class="cls-2" d="M20.57017,93.476a2.35988,2.35988,0,0,1,1.79139.96366l.23034-1.4137Q21.59728,93.26368,20.57017,93.476Z"/><path class="cls-2" d="M10.03368,22.59316a10.36865,10.36865,0,0,0-1.12928.97107,7.96425,7.96425,0,0,1,.71021-1.92944c.14306-.348.06445-.3798-.57154.01526.247.23748.16492.64379-.07556,1.13476a14.27986,14.27986,0,0,1-.90539,1.73895c-.70313,1.22162-1.4021,2.44583-.85742,2.855a9.394,9.394,0,0,0-.68323.70468c.12988-.23815.07825-.31494.2074-.55038-1.38331,1.36572.27514,1.68372-.90967,3.70023-.44788.69174-.87781,1.13339-.78345.56405-.17773.58893-.23486,1.22483-.35535,1.82956-.20715.48831-.38318.28317-.176-.206l-.85694,2.65759-.03088-.03207c.05737.44043.07007,1.38156.12329,1.849-.36218.62335-.05029-.38117-.25732-.2565l-.06531,1.57022c-.49609.51519-.50891-.80622-.19214-1.82788-1.66565,1.02975.00806,1.324-1.53369,4.15805l.19653-1.46442a3.1261,3.1261,0,0,0-.98169,1.44287c-.23315.58655-.35388,1.28717-.73132,2.08307.15442-.17911.58167-.96411.97742-1.47006.4093-.50522.80688-.73041.79712.12121a3.78361,3.78361,0,0,0-.18311,1.99472c-.4779-.06927-.4956.82856-.63391,1.92768l-.62366-.15284c-.005,1.22052.33655,1.15821.59156,1.88791A2.03582,2.03582,0,0,1,.02708,49.77779c-.20971,2.15375.86756-1.44281.86109,1.09848-.39038,1.76737.00879,3.03446.46863,5.11447-.164,1.25043-.40015-.1893-.56275.26667.19067.35577.36316.70947.56848,1.05691.023.26676-.14441.196-.229.15952.31787.89691.64624.017,1.00818,1.42114.761.26666-.69348,3.10382.56848,4.69946-.08106.46927-.42957-.12408-.64209.05939a12.45335,12.45335,0,0,0,2.07861,3.71l.11658,1.75253c.09375-1.35281,1.06274.02341,1.99231,1.12281.03882-.47742.12268-.89676.14221-1.164a21.6247,21.6247,0,0,0,1.1023,1.87835c.00195.278-.2837.16333-.66834-.0661.10571.117.208.22672.29443.309.07789.80271-.41442.58033-.96313.19129.01392-.29474.0376-.589.06409-.874-.5802-.35418-1.15772-.69235-1.46534-.45986a3.66747,3.66747,0,0,1,.42786.6217c-.15369-.09567-.27746-.14822-.31164-.06394-.03406.09385.18835.261.48022.53867l-.46716.734.31042.00912c.2461.95826.46387,1.93924.74512,2.89975a46.25639,46.25639,0,0,1,5.34485,5.24411c-.86865-.395-.80921.31818-1.34986.62238A2.436,2.436,0,0,0,9.05968,79.035c-.25245-.28286-.55225-.56958-.80433-.90261a5.84357,5.84357,0,0,1-.64123-1.10379c.35669.83416.00806.80358-.18994.64694a29.64133,29.64133,0,0,0,2.10058,2.35568c-.46582.21164.03016.75851.29151,1.56152.26184-.54394.67785-.12732,1.217.47455a22.24923,22.24923,0,0,0,1.667,1.82688c-.21814.26907-.67187.23959-1.53491-1.0355.44336,1.80268,2.21448,1.04944,2.771,2.69629-.2539-.27148-.35107-.44967-.56665-.46274.786.47306,2.03577,2.18763,1.48279,2.01987l-.25427-.27276c.39221.48117.90454,1.07406,1.46558,1.68649.59179.58212,1.2644,1.15231,1.89184,1.66855a12.15264,12.15264,0,0,0,1.73584,1.23327c.52368.25357.92883.36325,1.13526.25586a3.89582,3.89582,0,0,1-1.1366.62494q1.33191.14712,2.61767.25446a23.52354,23.52354,0,0,0,2.5608.12506c-.745.37481-.506,2.64474-2.45093,1.81561A5.80817,5.80817,0,0,0,24.57982,95.921c-.2843-.31439-.24365-1.43176.24621-1.18549a10.2701,10.2701,0,0,0,1.83557,2.52265c-.45-.42746.72876-1.08408,1.52442-.60413-.21387.07782-.48731,1.02258-.85364.95661l2.60913.15329c-.605-.10178-.53332.79437-.203,1.338-.14588-.2656,1.87646.87778,2.50537,1.04062l-.818-.64908c2.40405,1.25244,3.01086-.33426,5.43408.53586a.872.872,0,0,0,.02038,1.669c.389-.185,1.23914-.57824,2.27332-1.00067a11.74407,11.74407,0,0,1,1.64868-.5654,4.64946,4.64946,0,0,1,1.94934-.13769c.15454.15188.29053.29877.418.44369l.60144.054c.13159.123.2572.26047.38916.39453l.80957.84836c-.387-.181-.89038-.42584-1.3927-.62067-.0636-.02331-.124-.05069-.19018-.06851l-.27027.05325-.52612.11533c-.34253.08072-.66541.16925-.95288.26565a21.99373,21.99373,0,0,1-3.51294.79429c.89819.52645.16162.44992,1.64477.799.44678.43033-.93017.2493-1.37585.15509l1.712.5332.85583.26529.136.08276c.106-.29065.451-.49887.67627-.34384.1333.05768.25122.09918.41308.17707.20777.14456.37769.20648.47486.10058-.10279-.09848-.23938-.24618-.31446-.30426l-.2019-.14029q-.19611-.13175-.36865-.22919a4.611,4.611,0,0,0-.46912.05976l-.18457.045a.4998.4998,0,0,1-.18066.00006l-.24439-.0162c.00171-.17246.16663-.34061.44629-.4856a2.01465,2.01465,0,0,1,.80139-.43085c.09241-.02554.19129-.04794.29578-.0668l.161-.02566a.40981.40981,0,0,1,.11816.05316,2.92216,2.92216,0,0,1,.48267.34637,5.8169,5.8169,0,0,1,1.03992,1.2764c.12524.65533-1.24536.30026-1.40186.46841a5.575,5.575,0,0,1,1.64441,1.905l-.873-.637c.54834,1.24591,1.96985,1.29556,2.35047,2.98392.27844.48165.22351,1.85565.606,1.70956.12037-1.18008,1.97693-2.66873,2.79322-2.49747a24.32416,24.32416,0,0,1,1.08239,3.54282c.01319.5506-.42785.54138-.962.37768-.49036-.09988-.98157-.21975-.97449.247a.6012.6012,0,0,1,.40759.09369,3.3068,3.3068,0,0,1,.48108.34769c.3291.75656-.62719.09152.46436,1.53531.58044-.35892,1.97424,2.97839.79651.14227.98755,1.09476.90283,1.56314,2.01916,3.13718-.1615-.67432.25305-.85648.64405-.95069a20.55994,20.55994,0,0,1,.84667-2.33725.39481.39481,0,0,0,.32007.42075c1.45386-2.00964,2.5763-3.09814,3.89173-5.00458.25952-.08648,1.07055-.91516,1.03723-.34811a3.32751,3.32751,0,0,1,.47925-1.34894c1.28552-.83151-.84546,1.39414.3479.90671-.27454-.29993.61792-1.86609,1.00219-2.86347-.68554-.08242-1.45629,1.91468-1.84179,2.91312-.69849-.47345-.40125-2.46823.67712-4.729.93994-1.73981.932-.39423,1.02625-.74369a9.72021,9.72021,0,0,0,.66357-1.00189c.17053-.29977.36719-.67258.49732-.96982.13952-.31076.25231-.60388.35449-.88906a2.69176,2.69176,0,0,1,.574-.42951,7.32459,7.32459,0,0,1,.6405-.38165c.11866-.0622.24451-.12323.37977-.18274l.34545-.15024a4.74463,4.74463,0,0,1,1.65906-.31073c1.2926.23145.34363,1.01627.70215,1.32629a5.77217,5.77217,0,0,1-1.9198.386,8.3407,8.3407,0,0,0-1.7699.20838l1.54261-.12442c-.46717.37182-1.5813.48168-1.86023,1.09591a1.93407,1.93407,0,0,0,.42175-.36093l.06226-.06546.10314-.01324.21644-.03162.47009-.08231c.6427-.12127,1.46826-.31717,2.33911-.52566a26.76368,26.76368,0,0,0,2.65332-.75687,22.59707,22.59707,0,0,1,2.42688-.62143c.41443-.34463,1.132-.894.67432-.919-.26587.14025-.52442.3-.79737.42474-.47265-.077-.11438-.324.18286-.6026.303-.26715.57727-.49.02735-.35581a10.69608,10.69608,0,0,1,3.56824-2.2153l.5531.39493c-.11-.12985-1.119.19806-1.47828.53153.52991-.46622,2.6554-.45859,2.95154-1.51618l-1.224.18936a14.66871,14.66871,0,0,1,3.12268-2.719c-.86975-.14972-.24194.2507-1.46325.20364,1.22668.32947-3.22657,1.73117-1.53321,1.857a2.74337,2.74337,0,0,0-1.55627.208,4.15354,4.15354,0,0,1-1.752.275c.12243.167.60168.15573-.53479.55173a1.21878,1.21878,0,0,1-.16944.27035L71.901,96.113l.07007-.00507c-.03564.049-.03735.0567.02588-.00244a1.444,1.444,0,0,1,.68616.03156c-.36157.661-2.132,1.4779-2.69348,1.86227-.72107.14664.20678-.31638-.24292-.38974l-.80689.65811c-.24646-.39056-2.03955-.08459-.53271-.88391l-1.43311.475a7.12287,7.12287,0,0,0-2.80957.56454,4.88915,4.88915,0,0,0-.86218.24957c-.34106.12406-.63623.25376-.85535.35614-.43737.20475-.60193.30841-.16516.018-.77929.03549-1.00268.84637-1.38061,1.41022l-.52491.88772-.30017.5604-.10571-.0445c-1.442,2.00122-2.25952,4.60663-4.52331,6.47263-.18824.37439-.37513.758-.62635,1.18225-.12561.2121-.26733.43432-.43323.67059a1.54038,1.54038,0,0,1-.2622.29318,2.76666,2.76666,0,0,1-.3114-.233c-.04212.18125-.2323.28653-.35266.3498-.12635.07165-.20057.1271-.21473.50527a4.86969,4.86969,0,0,0-.12548-.48925c-.08045-.48893-.1344-.514-.26819-.59653a1.24281,1.24281,0,0,1-.21118-.14072.50514.50514,0,0,1-.089-.09909c-.11524-.16931-.24488-.37317-.33545-.53933l-.4585.2286a27.45092,27.45092,0,0,0-2.59973-3.22452l-.31372.33487c-1.08521-.93039-1.74634-3.10794-3.02039-4.88308.22547.02551.502.50769.63843.88955A5.76953,5.76953,0,0,0,45.354,100.394l-.49134-.67486-.25109-.327c-.09278-.09518-.2677-.07126-.39734-.11136l-1.67676-.26944-.40051-.0585-.24207-.0184-.48132-.04035c-.31922-.02969-.63416-.06656-.94007-.11993a3.47384,3.47384,0,0,1-1.66333-.65372,2.29063,2.29063,0,0,1-1.28979-.45151.44573.44573,0,0,0,.13965.02335c-.05274-.024-.13343-.05273-.2168-.0805-.20972-.1539-.421-.32166-.65735-.47883a3.18808,3.18808,0,0,0,.53955.43976,12.53927,12.53927,0,0,0-1.70886-.40008l-.07568-.55432-.14051-.04782c-.50634-.42066-.55163.00344-.37805.47729A4.1726,4.1726,0,0,0,34.123,96.965c-.15918-.92169-1.67786-.4596-1.968-1.49408-.58166.19552-2.99353-1.28916-3.741-.71619.03613-.10651-.1073-.24551.20813-.07989A6.12866,6.12866,0,0,0,26.787,93.59627l.07459-.68622-1.79236-.20516c-.60279-.84955-.79724-1.238.27148-1.09333-2.29065-.78341-1.63452-.92184-3.65466-1.58435l.3302-.24313c-.58362-.39771-1.74744-.8049-1.84326-1.34-.32019-.82721-1.76734-2.1311-3.21277-3.87485-.37244-.42431-.75769-.86312-1.14673-1.30645-.343-.4802-.68933-.96521-1.03162-1.44458a13.95017,13.95017,0,0,1-1.67529-2.88129c-.55871,1.29681-.55823-1.86093-1.4093-1.51508.109-.34228-.05432-.89016.49853-.46609a7.26124,7.26124,0,0,1-1.17822-2.16736,3.3826,3.3826,0,0,0-1.23425-1.62067c.14221-.32568.56653.21225.6178-.0429-.12488-.11908-.52649-.46414-.44361-.73542.07215-.25988.313.18238.58338.40632C9.657,70.948,8.83226,71.05956,8.02318,71.22725a2.39022,2.39022,0,0,0-1.07959-2.15853c.13073-.44928.20251-1.12754.68664.092-.17029-.73188-1.03467-4.38352-1.59826-4.3165a2.1825,2.1825,0,0,0-.29468-1.19751c-.15674-.818-.24207-1.26328-.32666-1.70456-.09412-.43918-.19531-.87235-.31482-1.68146l-.04346.46695c-.84631-.51913-.35022-1.33237-.61743-2.631l.08362.02869a8.05156,8.05156,0,0,0-.04761-2.17173,5.00512,5.00512,0,0,1,.11939-2.139l-.47205.1759c-.51294-.124-.41992-.80539-.18591-1.655a6.1219,6.1219,0,0,0,.48535-2.73831l-.30518.61386c-.15222-.48587.23194-1.13754.674-1.76105.22425-.30783.45288-.62161.6576-.90243a2.5712,2.5712,0,0,0,.46545-.76587c.12-.18891.09424.33291.11719.61777.97278-2.31662-.57593-.38193-.44348-2.21012.38513-.27884.78759.55338,1.03173-.63351a1.64428,1.64428,0,0,0,.0785-.82782,9.65723,9.65723,0,0,1-.04493-1.4,5.59671,5.59671,0,0,1,.66565-2.92437c-.34179.28277-.686.57556-.66247-.30686a3.73919,3.73919,0,0,1,.39087-1.0556c.21826-.35892.45251-.74426.68274-1.12286a3.12721,3.12721,0,0,0,.61206-2.23121c.12316-.1297.20788-.16265.27038-.14477A11.49993,11.49993,0,0,1,9.154,32.525a5.0631,5.0631,0,0,0,.33667-1.82159c.4718-.0253.82922-.4068,1.12243-.958a15.77346,15.77346,0,0,0,.90723-1.8909c.56055-1.341,1.06067-2.61722,1.68628-2.17727l1.77-2.50647.07593.15945a6.87933,6.87933,0,0,0,1.64782-2.98975c.38587-.26974.26709.07276.302.15342a15.70509,15.70509,0,0,0,2.09729-2.08734,13.17822,13.17822,0,0,0,1.48986-2.24344l.51612.20044a2.4087,2.4087,0,0,1,.71179-.66025c.19006-.13535.40124-.29288.645-.44721.25281-.14233.52673-.29654.81518-.45889a20.73219,20.73219,0,0,0,1.78284-1.129c.60107-.4147,1.13928-.939,1.68018-1.39569a.42008.42008,0,0,1-.14136.3451,9.747,9.747,0,0,1,2.12817-1.35972,16.01277,16.01277,0,0,1,2.37537-1.00018c1.55591-.53467,2.78845-1.08972,2.95788-2.17337.57789-.42313,1.19629-.76669,1.80152-1.15823-2.631.81234.102-.871-1.07288-.76059,1.00391-.48007,2.8451-.46161,1.618.08633l-.22717-.013c-.13782,1.04282,3.31384-.86856,3.45813-.13061,5.1211-1.63211,10.43421-1.51947,15.33667-1.33255l-.54993-.76044,1.74756.13058c.44873.193.5719.60175-.6582.50956.62024.44671,2.09265-.24335,2.15149-.39963,1.20215.24734.93066.48465.4751.57495-.46143.13226-1.12451.26077-.75708.28216a6.61694,6.61694,0,0,1,1.00036.03449l-.21386-.11954a3.99141,3.99141,0,0,1,2.42309-.214c.91138.287.40491.51795.76575.60141-.01087.05069.10754.09339.5553.10529a14.35887,14.35887,0,0,1,2.10815.51773l-.71924-.78214c1.004-.03427,2.00025.547,1.16284-.34411a4.74592,4.74592,0,0,0,1.75477.95395c.40234.14786.84545.28885,1.30749.42523.44751.18262.91382.36063,1.37781.53174.93152.33328,1.84607.66052,2.58154.9237a4.63411,4.63411,0,0,1,1.42261.73627,8.74458,8.74458,0,0,1,2.0282.57977,10.47454,10.47454,0,0,1,2.05468,1.0676c-.29626-.321-.20227-1.02295,1.01563-.18964-.56506.44031-.07.91178.6217,1.44684.68689.54264,1.60938,1.11341,1.771,1.88883-.465-1.14466,3.34936,2.30917,2.59961.61483.90307.80976-.24829.44059.28369,1.23078A15.37941,15.37941,0,0,1,86.78,18.16552c1.09107,1.24572,2.0708,2.68429,3.33069,3.90454.1676-.06479-.0011-.69571.678-.27133l.4198,2.03189c.47864.49569,1.20117-.08826,1.46643,1.28335.0144-.22732.03467-.57226.36255-.22839a11.06823,11.06823,0,0,1,.6156,1.15628l.60632,1.16385c.41687.76846.858,1.52383,1.31568,2.2738q.58979,1.17806,1.183,2.36286c.37939.79663.8645,1.55188,1.16528,2.3872a22.724,22.724,0,0,1,2.15088,10.32584c.19495-.98743.32154-.37588.443.3374.00964-.47784.43042-.05935.65185-.18823l-.21765,2.99554c.684.47519.20044,3.13367.84851,3.41666l-.16125-.93225c.80993,1.23505,1.568-1.85309,2.53076-1.76758a2.09136,2.09136,0,0,1-.2594-1.24075,14.24228,14.24228,0,0,1,.10742-1.54947,4.8218,4.8218,0,0,0-.6471-3.44272c.07361-.56036.39441.38428.54847.06207a3.93409,3.93409,0,0,1-.97022-2.58694l.13709.12549c-.26514-.93094-.46582-1.73471-.63135-2.48645-.21607-.736-.42554-1.411-.61182-2.11219a30.27208,30.27208,0,0,0-1.57458-4.92l-.28821.49326a5.372,5.372,0,0,1-.387-1.5643c-1.10852-.64664,1.10766,2.3919-.03418,1.84674.14856-.7443-.49475-2.2782-1.27429-3.67212-.81177-1.37876-1.58387-2.71784-1.347-3.38086-.759-1.23956-.22156.65262-.99976-.56269l.01526-.475-.53149-.07413c-.51172-.79095-.501-1.39517-.32178-1.57468a5.6975,5.6975,0,0,0,.618.67383c-.47693-1.19552-2.1654-2.757-2.38855-3.11612a12.34931,12.34931,0,0,1,.72888,1.21152c-.61718-.77841-1.38281-1.49963-2.10253-2.29224-.73975-.77377-1.43946-1.62216-2.229-2.37478-.811-.731-1.62732-1.45105-2.44128-2.11859-.41114-.32868-.80384-.66553-1.22669-.94486-.43383-.26611-.86486-.51443-1.29138-.73971l.09314.34915a7.96171,7.96171,0,0,1-2.14563-1.53394,9.1516,9.1516,0,0,0-.78345-.73092,14.1629,14.1629,0,0,0-1.53869-.92023l.127.01486a6.83615,6.83615,0,0,1-2.16724-.9538c.81775.18949-1.04577-1.228-.00231-.9342-3.01551-1.05279-1.57166-.39719-3.77759-.558l-.27246-.54227a7.0053,7.0053,0,0,1-.91529-.0033,13.55508,13.55508,0,0,1-1.45813-.35486c1.32874.14841-.7362-.87179.78455-.76171a9.13218,9.13218,0,0,0-3.66931-1.38865c-1.00037-.20651-1.80286-.21936-2.387-1.00677-1.74328.61121,2.63465,1.2659,1.74427,1.26733.57666.51462-1.42566.4079-2.38928.06757a4.34249,4.34249,0,0,1-1.4087-1.0459,5.88567,5.88567,0,0,0-1.0354-.71893A6.33774,6.33774,0,0,0,61.93333,1.401c.2638.04544.29541-.02832.55909.01666-.95862-.41207-2.00367.05149-3.16956-.555-.75012.48163-1.5929-.21145-1.86072.57266a17.50976,17.50976,0,0,1,2.44556.09519c-1.40735-.06159-2.75891.84134-4.97888.27789a4.52562,4.52562,0,0,1,1.33642-.42c-.65454-.26691-1.28686.08993-1.96863-.184C54.5172.438,57.27684,1.14409,58.82408.69509c-.6925-.44464-2.88464.40448-2.066-.42847A2.24211,2.24211,0,0,1,54.76744.611a3.76722,3.76722,0,0,0-2.5105.21237l.11292-.48043a5.34542,5.34542,0,0,1-1.411.35693l.94567-.663c-1.46179.60382-2.90283-.32831-4.32128.062,2.99707-.20078.723.52615,2.005.79986a6.22627,6.22627,0,0,1-1.91748.19272A2.659,2.659,0,0,1,46.63341.81218C46.01475.541,45.31322.22878,43.27147.65886c.54907-.153,2.13476-.03942,1.30261.31034A11.45071,11.45071,0,0,1,42.19359.82927c-2.64783.77765.51281.37238-.55664.94626-1.0304-.33288-1.24573.56211-2.33631,1.03424l-.13708-.46283c-1.54944.23188-1.67261.53833-1.75086.83558-.08325.28915-.12634.55474-1.48205.85119l.88684-1.0358-1.31079.66263.09839-.6203A9.3898,9.3898,0,0,1,32.248,4.4829c.46033.156.1637.8913-1.04919,1.492-.96.14431.27356-.64115-1.44251.26275a1.45978,1.45978,0,0,1,1.48755-.979c.01184-.18024.26538-.4635.28333-.64429a10.82465,10.82465,0,0,0-2.97974,1.35794,3.08562,3.08562,0,0,1,.74487-.235l-1.11865.91848L27.13194,7.67739c-.46972.07306-.244-.23413-.01452-.53977-.4657.34327-.69141.73951-1.38611,1.21039-.0199-.44662-.28052-.7626.66089-1.54959L24.29344,8.584a3.71063,3.71063,0,0,0-.78967.11658c-.2909.07456-.52808.11334-.42615-.05255a8.81006,8.81006,0,0,0-1.99976,1.81183,14.79066,14.79066,0,0,1-2.24743,2.051,1.751,1.751,0,0,1-.41089.6492c-.72205.59537-1.47315,1.08615-2.20581,1.66782a7.5667,7.5667,0,0,0-1.9093,2.34189l-1.37744.47153c-1.05164,1.39813,1.811-.67991.07617,1.62921-1.06739,1.74783-.92945.22674-1.52027.67743a14.39746,14.39746,0,0,1-.729,1.9747,7.33331,7.33331,0,0,1-1.59106,2.12069A5.96329,5.96329,0,0,1,10.03368,22.59316ZM1.96434,42.2134c-.03259-.42481-.10754-1.29053.23743-1.52216C2.63145,41.2727,2.25963,41.55446,1.96434,42.2134ZM6.5648,73.39766a1.74588,1.74588,0,0,1-.40039-1.22818A3.61819,3.61819,0,0,1,6.5648,73.39766Zm59.363,25.045a.21367.21367,0,0,0-.03284.03229C65.03087,98.49666,65.33909,98.49621,65.92784,98.44268Zm1.7334-.301c.146-.1217.11377-.1813.02319-.22128-.07763.15607-.44726.29279-.87964.40674C66.958,98.40761,67.199,98.4164,67.66124,98.14165ZM61.58287,5.26946l-.31738-.176C62.057,5.07338,61.81969,5.16417,61.58287,5.26946Z"/><path class="cls-2" d="M4.56847,70.30974a.452.452,0,0,1,.19335-.25579C4.63707,69.92934,4.54747,69.957,4.56847,70.30974Z"/><path class="cls-2" d="M18.7783,12.55068l.05213-.03989a.20707.20707,0,0,0-.00781-.11032Z"/><path class="cls-2" d="M48.61473,113.11214a1.78342,1.78342,0,0,1-.30652-.88669c-.05456.025-.078.08686-.05041.20411a1.14859,1.14859,0,0,0,.08227.21966C48.40294,112.76836,48.49913,112.92989,48.61473,113.11214Z"/><path class="cls-2" d="M75.777,93.74953l-.90845.64459a2.35081,2.35081,0,0,1,.94861-.34277C75.74107,93.96444,75.4785,93.9229,75.777,93.74953Z"/><path class="cls-2" d="M85.59776,90.60256c.09546-.15189.28369-.22769.363-.39383l-.18128-.137C85.237,90.5523,84.94163,90.996,85.59776,90.60256Z"/><path class="cls-2" d="M77.47642,94.64394c.27234.29117.87049-.12082,1.48218-.65533a1.04967,1.04967,0,0,1-.118.07885C78.73778,93.45934,78.13988,94.09618,77.47642,94.64394Z"/><path class="cls-2" d="M79.10618,93.87365a4.77747,4.77747,0,0,1,.61158-.42032C79.67149,93.21074,79.44273,93.57976,79.10618,93.87365Z"/><path class="cls-2" d="M69.66942,97.16436c.38769-.02277.037-.56079.29248-.474C70.1754,96.07036,67.84813,98.07793,69.66942,97.16436Z"/><polygon class="cls-2" points="78.73 95.48 78.217 95.19 78.02 95.76 78.73 95.48"/><path class="cls-2" d="M72.80247,98.07287l1.24915-.40345c-.05335-.06817.07739-.1802.24683-.29666C73.55748,97.6838,72.71556,97.949,72.80247,98.07287Z"/><path class="cls-2" d="M74.29845,97.37276a2.96341,2.96341,0,0,0,.91662-.50808C75.01951,96.97777,74.577,97.17763,74.29845,97.37276Z"/><polygon class="cls-2" points="77.23 96.477 76.84 96.573 76.01 96.988 77.23 96.477"/><path class="cls-2" d="M60.62718,104.43831l-.69238,1.26261c.05908.21759.36658-.045.61218-.5235C60.64232,104.82689,60.88841,104.351,60.62718,104.43831Z"/><path class="cls-2" d="M64.10338,102.23488a1.22411,1.22411,0,0,1-.37952-.07754.46569.46569,0,0,0-.28589-.06287l.37537.55072C63.81969,102.40151,63.99156,102.373,64.10338,102.23488Z"/><path class="cls-2" d="M61.96556,105.16918c.0614.21524-.7688,1.99441.22668.47494C62.13353,105.42757,62.82762,104.16338,61.96556,105.16918Z"/><polygon class="cls-2" points="48.665 110.175 48.878 110.471 49.688 109.852 48.665 110.175"/><path class="cls-2" d="M33.70457,101.54928c1.59876.83184.62171-.44349,2.03455.37164.47241-.09131-1.15393-.66177-.67835-.71741C33.95775,101.11248,33.50047,100.72573,33.70457,101.54928Z"/><path class="cls-2" d="M35.06077,101.20351a5.55785,5.55785,0,0,0,.56592.03186A2.52389,2.52389,0,0,0,35.06077,101.20351Z"/><polygon class="cls-2" points="100.524 49.686 100.365 50.732 100.673 50.047 100.524 49.686"/><path class="cls-2" d="M101.38133,51.66445l-.63611.25665.62036.62461C101.3242,52.30749,101.24425,51.84807,101.38133,51.66445Z"/><path class="cls-2" d="M.18919,45.16372l.1416.10922c.19434-.1554.24756-.42194.35584-.956Z"/><polygon class="cls-2" points="5.084 30.23 4.955 30.468 5.705 30.263 5.084 30.23"/><path class="cls-2" d="M11.44823,18.60265c-.34717.42075-.62891,1.01407-.976,1.4361C11.10313,19.01992,12.10423,18.94744,11.44823,18.60265Z"/><path class="cls-2" d="M45.863,75.353c.02857-.04267-.07373-.07007-.08765-.085C45.76158,75.35726,45.88878,75.362,45.863,75.353Z"/><polygon class="cls-2" points="45.848 76.321 45.814 76.206 45.776 76.182 45.848 76.321"/><path class="cls-2" d="M45.69188,76.94924c.181-.05542-.00379-.27313.08154-.39905l.04395-.01465-.12952-.085C45.67686,76.61953,45.74913,76.83968,45.69188,76.94924Z"/><path class="cls-2" d="M45.31676,77.25783l-.01722.0185a.44633.44633,0,0,1-.00232.08337C45.36619,77.33114,45.35911,77.45229,45.31676,77.25783Z"/><path class="cls-2" d="M45.29954,77.27633c-.00671-.08643-.05712.05688,0,0Z"/><path class="cls-2" d="M45.215,77.65529c.04321.11518.08179.08515.14368.014l-.07056-.10766C45.24888,77.58785,45.24754,77.69069,45.215,77.65529Z"/><path class="cls-2" d="M45.49815,77.7604l-.03222-.05335C45.44945,77.71865,45.44481,77.73458,45.49815,77.7604Z"/><path class="cls-2" d="M45.44163,77.65365c.05335.00506.001-.01374-.0404-.06269l.0647.11609C45.49327,77.68813,45.55076,77.68172,45.44163,77.65365Z"/><path class="cls-2" d="M45.54564,77.483c-.02967-.20471-.15674-.17431-.12256.03754C45.45665,77.4562,45.48118,77.3774,45.54564,77.483Z"/><path class="cls-2" d="M45.93138,76.92824l-.05408-.06952c.02674.03449-.06067.141-.00439.14014Z"/><path class="cls-2" d="M45.45372,78.22542c-.0177.04633-.02185.12854-.07568.14692.03857-.0019.09008-.0589.13574-.07709Z"/><path class="cls-2" d="M45.51378,78.29525l.09082.10162C45.58775,78.292,45.55321,78.27974,45.51378,78.29525Z"/><path class="cls-2" d="M45.69749,77.75686l-.15405-.17853c.052.0741.10352.14587.16052.21442Z"/><polygon class="cls-2" points="45.497 78.826 45.392 78.786 45.557 78.863 45.497 78.826"/><path class="cls-2" d="M45.61241,79.11123c-.08643-.02216-.09021.10864-.15149.074a.444.444,0,0,0,.20313.1565A.22383.22383,0,0,1,45.61241,79.11123Z"/><path class="cls-2" d="M45.56016,78.71786l.08936-.07575-.01123-.04529A.163.163,0,0,0,45.56016,78.71786Z"/><path class="cls-2" d="M45.65245,78.63955l-.00293.00256.0227.09833Z"/><path class="cls-2" d="M45.87108,78.10244c-.08045-.03321-.11719.05383-.224-.03064C45.71837,78.1299,45.806,78.25179,45.87108,78.10244Z"/><path class="cls-2" d="M45.74168,78.36977c-.02685.009-.06164.0409-.09826.01459l.10522.11047Z"/><polygon class="cls-2" points="45.798 78.543 45.749 78.495 45.752 78.541 45.798 78.543"/><path class="cls-2" d="M45.79124,79.17031a.322.322,0,0,1,.12195.14349.96592.96592,0,0,0-.051-.20947C45.8275,79.1075,45.76024,79.1003,45.79124,79.17031Z"/><polygon class="cls-2" points="46.205 79.902 46.217 79.883 46.2 79.89 46.205 79.902"/><path class="cls-2" d="M45.79942,78.99282a.52373.52373,0,0,1,.06275.11151c.01574-.0014.02539-.00427.0144-.01819C45.87681,79.02962,45.84129,79.00973,45.79942,78.99282Z"/><path class="cls-2" d="M45.9044,79.55782a.84893.84893,0,0,0,.01355-.11011C45.8972,79.487,45.87462,79.56063,45.9044,79.55782Z"/><path class="cls-2" d="M45.71422,78.948a.26946.26946,0,0,0,.0852.0448.4094.4094,0,0,0-.06311-.07178A.13081.13081,0,0,1,45.71422,78.948Z"/><path class="cls-2" d="M46.1129,79.672l-.03333-.03992a.51451.51451,0,0,1-.03613.21979c.08435.05261.12463.04938.15613.03827l-.10742-.22693Z"/><path class="cls-2" d="M46.26121,79.3901c-.0675-.1247-.12268-.05286-.2008-.11286.1178.2038-.082-.03808-.0697.14337a.48224.48224,0,0,1-.07752-.10681.79388.79388,0,0,1,.00476.13391l.00379-.00781L45.921,79.439l.00171-.00049c.00806-.015.01416-.02149.01172-.00757l.004.00366a.16136.16136,0,0,1,.04126-.0069c.00757.07276-.021.02173-.04126.0069l-.01575.00391-.001.0014.15783.1922a.664.664,0,0,0-.09924-.20465C46.09337,79.41988,46.18822,79.50454,46.26121,79.3901Z"/><path class="cls-2" d="M45.97044,78.20064l.01795.01227c-.0166.09509-.1178.24469-.13489.233a.98068.98068,0,0,0,.2262-.17193c-.01832-.01209-.06336-.01526-.06458-.06916.02124-.05139.05054-.011.08447-.02118C46.06468,78.16005,45.99876,78.09206,45.97044,78.20064Z"/><path class="cls-2" d="M46.02782,78.8362l.11584.15857.053-.12176-.05078.024C46.12816,78.79061,46.07371,78.83413,46.02782,78.8362Z"/><polygon class="cls-2" points="46.17 79.949 46.058 79.982 46.257 80.003 46.17 79.949"/><polygon class="cls-2" points="46.231 80.213 46.32 80.24 46.32 80.168 46.231 80.213"/><path class="cls-2" d="M51.99266,82.99447l-.0343-.10633a.16486.16486,0,0,1-.14563-.00641C51.90172,82.96859,52.01134,83.10482,51.99266,82.99447Z"/><path class="cls-2" d="M48.28941,81.956a.42073.42073,0,0,0,.1283.14545C48.369,82.00411,48.354,81.89052,48.28941,81.956Z"/><path class="cls-2" d="M48.60594,82.19906l-.02319-.03974a.35378.35378,0,0,1-.165-.05792C48.45311,82.17324,48.50731,82.23592,48.60594,82.19906Z"/><path class="cls-2" d="M46.89708,80.98037,46.871,80.937C46.85289,80.94411,46.84886,80.95656,46.89708,80.98037Z"/><path class="cls-2" d="M46.949,81.0328l.05981.05163a.23851.23851,0,0,1-.05627-.07281A.029.029,0,0,1,46.949,81.0328Z"/><path class="cls-2" d="M56.81761,78.49618c.07666-.076-.27063-.39478-.126-.58259-.06189.04688-.12365.08948-.18017.00483-.03467-.12775.19458-.41065-.03418-.495a.076.076,0,0,1,.04443-.03485c-.07263-.09332-.1676-.31049-.2937-.3349.37171-.22876-.39941-.51965-.051-.65509l-.15284-.27655.03858-.01013a.30391.30391,0,0,0-.2992-.22589c.00013-.05262.04737-.04132.06678-.04779-.08033-.29016-.11585-.31415-.40857-.40467l.087-.092c-.09155-.00915-.09741-.46521-.40686-.58758a.08742.08742,0,0,1,.06287-.01337c-.3114-.13922-.33179-.81409-.72144-.54565l-.234-.0445c.19019.19153-.152.13-.11193.25574-.0951-.0401-.12732-.27051-.01294-.21143l.00219.03028c.18213-.16193-.21911-.26227-.12317-.3891a9.0673,9.0673,0,0,0-1.33361-.8432l-.01307.19146-.15844-.07373c-.02906-.054-.009-.15722.10693-.10351-.02563-.12384-.2312.0097-.24548.04583-.21021-.1513.1604-.17.09082-.19879l-.10388-.0216.01562.02807c-.10364.04242-.13489.11823-.27722.06537-.082-.06262-.0166-.123-.05164-.14026.00367-.01239-.00744-.02154-.05615-.01971l-.21826-.06995.0553.16162c-.11194.04395-.20264-.05108-.13782.128-.0907-.2937-.803-.22058-.88794-.28839a.66421.66421,0,0,1-.44665.08966c.04345.02845.07189.18982-.06885.17517.03345-.33856-.27051-.12921-.41919-.3479.1261.13868-.41382.10376-.20838.30182-.12353-.0047-.02941-.12207-.13659-.18237-.259.18408-.653.07117-.98841.25006.01136.04273.09192.08374.04419.17224-.08642-.04669-.17321-.08557-.26355-.12671-.05957.05109.04444.25476-.13977.17725.03333.02466.08216.06262.04566.09662a1.87161,1.87161,0,0,0-.9336.55762,3.67119,3.67119,0,0,1-.89331.71124c.12854-.0343.09571.02667.0542.091.04554-.02917.08875.06268.14356.08838-.10474.04944-.20117.10809-.30469.16675.11426.1311-.15161.29291-.02161.39465l.01673-.09753c.06311.11059.202.11035.34631.11554-.04541.08337-.10278.154-.14355.242a4.10755,4.10755,0,0,0-.01087,3.41974,5.00342,5.00342,0,0,0,.379.72675.1293.1293,0,0,1-.10461-.17432c-.11683-.05786-.37146.15472-.47791.33844.04028-.0191.07166-.03583.18591.03656.02063-.0636-.02038-.2923.10523-.249.11755.10858.03308.12536.02685.218.064-.10327.21057.01838.337-.03662.07642.11634.1748.2154.26074.32416l.00037.01953.04675.07129-.02734-.0661c.09692.12085.18249.25061.29126.36206-.01538.00623-.035.00714-.03894.02716l.07226.04547c-.02075.13233-.2196-.00683-.17944.1051-.13269-.03009-.31738-.04681-.37781-.2174l.0979-.12171c-.03271.03076-.00036.141.06482.14557-.098-.0105-.00171-.32086-.20166-.25708l-.01257.15784c-.13172-.04486-.35852-.06976-.40467-.22705-.08447.14416.03357.01831-.04736.21271.11829-.205.236.32513.32459.06036-.08973.21661.05444.20434.02307.43329.0343-.03742.0354-.1037.10718.0097a.21343.21343,0,0,1,.05236-.00928l.0033.0091-.00061-.0094c.0094-.001.01086-.00177-.00037-.00342a.17174.17174,0,0,1,.01111-.10077c.128-.03015.26453.11627.35645.118.03686.06922-.06263.02009-.07056.08741l.13464.00506c-.06994.088.02735.27277-.15344.201l.12048.11286a.31549.31549,0,0,0,.21705.23022c.04724.06836.23193.01605.125.04785l.24877.0904-.01379.02459c.20422.157.52576.1095.6814.41864a.522.522,0,0,1,.2915.10523L48.859,82.364c.10974.014.2605.2182.34253.13959.01306.293.48218.23352.65259.32788l.04077-.12048a1.01546,1.01546,0,0,0,.42676.01959l.01306-.11175c.15-.06141.33228.1455.55591.15734-.01965.0409-.07446.0232-.11035-.00708.24121.28919.56555-.13507.7926.04969a.11314.11314,0,0,1,.14453-.00171.02436.02436,0,0,0-.01465.00616l.02454.0008.08545.05767a.2948.2948,0,0,0-.07227-.05828.49994.49994,0,0,0,.18091-.05347l.037.11816.01574-.00445c.07129.03967.04944-.06055.00745-.14844a.31444.31444,0,0,0,.08252-.07843c.07251.18793.166-.08429.264.11316.0321-.10577.32617-.12549.31824-.34448.00732.02673.02868.03582-.0055.04455.07569.0094.1532.01825.20386-.05334l.06445.14172.10572-.2384c.11572.06732.17175.10809.10693.2467.17871-.23907.16846-.11633.30176-.34851l.022.097c.067-.02747.12866-.18665.196-.12616.22326.12677.7362-.27643,1.17785-.38355-.23547-.18878.23889-.01281.118-.20538.062.0404.1344.03216.11524.12335.13122-.19061.33581-.13953.31653-.38519.0675.03143.03564.10535.08093.11883.00366-.023.01025-.09283.05542-.08178.04516.01129.0188.06573.01269.11248.16-.18176.01563-.34149-.12255-.485.141-.02155.17077-.076.11633-.21747.07312.01007.16833-.0011.1029.1228.05884-.04913.35755-.33471.22156-.42736.04773.00122.06372-.08625.05786-.11243a1.21159,1.21159,0,0,0,.17115-.30768l-.04419.03015c-.14356-.14.01672-.14129.049-.27221l.01684.01092c.23609-.23779-.01-.13892.23023-.3797l-.11963-.01843c-.23926-.09412.22094-.21295.15478-.41516l-.07849.049c-.0686-.10266.39221-.20624.43433-.31439.025-.02033.03174.03949.04431.07342.18188-.25934-.14905-.05267-.171-.25268C56.66844,78.53957,56.79393,78.63454,56.81761,78.49618Zm-4.85547-5.6728.02576.03956C51.90184,72.87606,51.93138,72.85177,51.96214,72.82338Zm-5.16052,6.932.01477-.0036.00952.01831Zm.66492,1.61981.00708-.00177C47.51427,81.46615,47.501,81.43178,47.46654,81.3752Zm.76062.21582c-.18763-.0606.00561-.15942-.03821-.15234-.2655-.22516-.46741.12793-.61389-.18219-.00733-.178.16674-.20905.20776-.30035.14722.05236.12451.21057.2124.26556l-.0625-.12494c.0647-.00622.16431.02271.18494.08618a.21173.21173,0,0,0-.06274-.10363,5.673,5.673,0,0,0,.64282.40155A.62209.62209,0,0,1,48.22716,81.591Zm1.12658.207c.05176.0213.10352.0379.15528.05767a.36257.36257,0,0,1-.17115.07172.24849.24849,0,0,0,.01831-.12775Zm.8772.65161a1.359,1.359,0,0,1-.25464-.3545.15863.15863,0,0,1,.0094-.06237c.05371.01562.10742.02862.16113.04266l-.046.19122.07117-.18658c.05554.01428.11145.01855.16711.03107A1.205,1.205,0,0,1,50.23094,82.44967Zm.93164.15612-.03662-.08508-.17725.0788c.0586-.08728.15039-.22125.245-.35767.08923.0058.17859-.001.26794.00037A.74593.74593,0,0,1,51.16258,82.60579Zm1.804-.532c.0205-.00537.04113-.00555.06176-.01117.01734-.0047.03089-.01288.0481-.0177-.019.08252-.0293.16492-.05127.24756A1.05567,1.05567,0,0,0,52.96654,82.07375Zm2.3872-1.16766c-.03613.00226-.06347-.05054-.093-.1192l.00512.05352a.10273.10273,0,0,1-.10058-.04077c.022-.02472.04931-.04492.07055-.07025l.02491.0575-.00489-.07752c.00733-.00873.01709-.01526.02417-.02405a.836.836,0,0,0,.13929.00605Z"/><path class="cls-2" d="M46.521,80.62435l.10156.07715a.1327.1327,0,0,1-.03821-.11115C46.5637,80.60982,46.54613,80.654,46.521,80.62435Z"/><path class="cls-2" d="M46.57408,79.34444l-.04822.02881c.03321.05939.09387.08038.0846.00751C46.59032,79.37337,46.59434,79.35164,46.57408,79.34444Z"/><path class="cls-2" d="M46.772,80.29287c.07568-.06824.00439-.10291-.0553-.15876l.00806.0116C46.59544,80.20711,46.68138,80.25393,46.772,80.29287Z"/><path class="cls-2" d="M46.70335,80.12081a.19123.19123,0,0,1-.04394-.05933C46.60692,80.08547,46.66673,80.093,46.70335,80.12081Z"/><path class="cls-2" d="M47.139,81.10311c-.0105-.04657-.1084.0755-.09607.02991C46.92149,81.19539,47.34447,81.20736,47.139,81.10311Z"/><polygon class="cls-2" points="47.003 80.044 46.918 80.14 47.025 80.114 47.003 80.044"/><path class="cls-2" d="M47.25792,80.4507a.04439.04439,0,0,1-.05371.00379c.04712.05914.08679.13617.11145.10889Z"/><path class="cls-2" d="M48.41588,81.37325c-.04322.00989-.09326-.00342-.09839.04279l.13306.03863C48.48411,81.4247,48.4669,81.38381,48.41588,81.37325Z"/><polygon class="cls-2" points="46.017 75.036 45.916 75.112 46.026 75.086 46.017 75.036"/><path class="cls-2" d="M45.92979,75.2651l.10327.12255c.0044-.02514.01307-.07452.05433-.07531Z"/><path class="cls-2" d="M57.76964,28.81527c.10986-.22858-.02149-.189-.0232-.23224C57.5941,28.99056,57.80113,28.815,57.76964,28.81527Z"/><path class="cls-2" d="M58.63292,32.708l-.07849-.02851a4.046,4.046,0,0,0,.48144.36426A3.85616,3.85616,0,0,1,58.63292,32.708Z"/><path class="cls-2" d="M60.02318,33.72909l-.08387-.08393c-.111.00031-.2229-.00659-.33715-.017a3.05351,3.05351,0,0,0,1.30908.37952,5.82765,5.82765,0,0,0,1.14392-.07709,4.87627,4.87627,0,0,0-.90076.02558A2.23659,2.23659,0,0,1,60.02318,33.72909Z"/><path class="cls-2" d="M63.58238,33.83425l.08313-.01361.34607-.13886C63.87181,33.66225,64.37816,33.46743,63.58238,33.83425Z"/><path class="cls-2" d="M63.66551,33.82064c-.35779.14545.25671-.03833,0,0Z"/><path class="cls-2" d="M65.14915,33.10677a2.82109,2.82109,0,0,0-.31909.20551c.08716-.00489.38648-.11383.28723-.04187C65.46556,33.11294,65.391,33.09975,65.14915,33.10677Z"/><path class="cls-2" d="M65.2794,32.95418c.042.00745.09387-.00512.20069-.08111Z"/><path class="cls-2" d="M65.09325,33.03811c.01709-.06122-.05372.01324-.20008.12017a3.21666,3.21666,0,0,1,.38623-.2041C65.21641,32.945,65.18724,32.89065,65.09325,33.03811Z"/><path class="cls-2" d="M64.45555,33.2073c-.85376.41851-.677.48608.18176.04913C64.36766,33.34841,64.03148,33.47786,64.45555,33.2073Z"/><path class="cls-2" d="M61.82139,33.73391c-.102.037-.20666.06946-.31384.09814.16028-.02868.7251-.066.6875-.12366C62.07091,33.72341,61.94554,33.73018,61.82139,33.73391Z"/><path class="cls-2" d="M67.78514,32.95192c.02991-.03619-.13855-.10974-.16956-.1604l-.33349.03357C67.45445,32.85152,67.77086,32.89339,67.78514,32.95192Z"/><path class="cls-2" d="M67.61558,32.79152q.24336-.02013.49134-.0274C67.67052,32.71383,67.59,32.75167,67.61558,32.79152Z"/><path class="cls-2" d="M65.29527,32.778a3.20533,3.20533,0,0,0-.46911.25416A3.26587,3.26587,0,0,1,65.29527,32.778Z"/><path class="cls-2" d="M65.509,32.66219c-.078.03265-.13929.07953-.21375.11578.11817-.05358.23841-.10522.36487-.14917Z"/><polygon class="cls-2" points="69.601 33.278 69.311 33.293 69.823 33.295 69.601 33.278"/><path class="cls-2" d="M70.79564,33.838a7.67753,7.67753,0,0,0,.87866.229,4.6943,4.6943,0,0,1-.879-.40912C70.57518,33.65114,71.017,33.87508,70.79564,33.838Z"/><path class="cls-2" d="M69.29039,33.10232l-.16528-.14826-.1908-.0415A.79359.79359,0,0,0,69.29039,33.10232Z"/><path class="cls-2" d="M69.11912,32.94918l.006.00488.4093.1062Z"/><path class="cls-2" d="M66.8054,32.6097c.28955-.07074.92188-.1181.31507-.21936C66.90648,32.466,67.24852,32.512,66.8054,32.6097Z"/><path class="cls-2" d="M68.099,32.72225c.18933-.00342.38025-.0033.57215.00476-.17347-.038-.34778-.07043-.52271-.09851C68.156,32.6578,68.24522,32.71,68.099,32.72225Z"/><polygon class="cls-2" points="68.864 32.77 68.934 32.741 68.671 32.727 68.864 32.77"/><path class="cls-2" d="M71.3181,33.71139a3.57833,3.57833,0,0,1,.73071.26684,7.19826,7.19826,0,0,0-.83874-.409C71.15745,33.58443,71.0128,33.58919,71.3181,33.71139Z"/><polygon class="cls-2" points="74.483 35.406 74.458 35.364 74.438 35.373 74.483 35.406"/><path class="cls-2" d="M71.16966,33.53127a1.24681,1.24681,0,0,0-.48169-.14606c.16553.05024.33948.1092.5221.184C71.23363,33.56252,71.24071,33.55465,71.16966,33.53127Z"/><path class="cls-2" d="M72.50975,34.26064a1.09843,1.09843,0,0,0,.32751.23737C72.74205,34.42171,72.629,34.34286,72.50975,34.26064Z"/><path class="cls-2" d="M70.37889,33.34438l-.03406-.00641C70.40843,33.38357,70.4033,33.37,70.37889,33.34438Z"/><path class="cls-2" d="M70.37889,33.34438a2.94811,2.94811,0,0,0,.30908.04083,3.55108,3.55108,0,0,0-.37292-.09338A.40516.40516,0,0,1,70.37889,33.34438Z"/><path class="cls-2" d="M73.62364,34.7961,73.4304,34.693a3.20453,3.20453,0,0,1,.56372.51441c.32508.15961.40332.1795.44422.16528-.28577-.21191-.58045-.41492-.88635-.60278Z"/><path class="cls-2" d="M73.03013,34.15438c-.58435-.29675-.44641-.1358-.81774-.26325.95153.44391-.29236-.08551.354.31147l-.51758-.22437c.16309.09424.32092.18414.46094.28241l-.01807-.017-.00451-.002.00171-.001c-.03357-.03265-.043-.04675-.00171-.01648l.02014.00806a.11839.11839,0,0,1,.0603-.01447c.25708.15894.029.0467-.0603.01447-.00537.00311-.01489.00378-.01843.00842l.0028.003q.4768.21012.93872.44934a6.49369,6.49369,0,0,0-.86255-.47577C72.7711,34.19625,73.26036,34.41475,73.03013,34.15438Z"/><path class="cls-2" d="M67.694,32.1744c.03272.01153.03089.0191.033.027C67.79661,32.19246,67.82371,32.18508,67.694,32.1744Z"/><path class="cls-2" d="M67.66514,32.32754l.0752-.01008a2.21038,2.21038,0,0,1,.86243.28211,1.27488,1.27488,0,0,0-.47522-.32648,1.14411,1.14411,0,0,1-.39514.01587c-.21546-.04547.00341-.05151-.0055-.08752C67.57225,32.22036,67.193,32.25789,67.66514,32.32754Z"/><path class="cls-2" d="M70.48192,33.02785c.282.07935.56372.16474.84228.26178l-.38525-.25238.00159.06061C70.47606,32.90273,70.55443,33.008,70.48192,33.02785Z"/><path class="cls-2" d="M74.531,35.50551l-.15918.02643c.166.04895.32263.11133.48743.16821Z"/><polygon class="cls-2" points="75.39 36.195 75.293 36.241 75.546 36.392 75.39 36.195"/><path class="cls-2" d="M60.99034,52.98379l.16089.03619a2.318,2.318,0,0,1,.62109-.28662C61.36107,52.80587,60.89525,52.91207,60.99034,52.98379Z"/><path class="cls-2" d="M68.54027,58.64577c.14795-.06372.20715-.104.19531-.12573C68.58263,58.58407,68.49937,58.63009,68.54027,58.64577Z"/><path class="cls-2" d="M75.23387,47.45382l.13-.10443c.14416-.18512.28247-.36268.4519-.58014A2.84085,2.84085,0,0,0,75.23387,47.45382Z"/><path class="cls-2" d="M60.8961,26.08632a2.19837,2.19837,0,0,0-.43127.21A3.95352,3.95352,0,0,1,60.8961,26.08632Z"/><path class="cls-2" d="M77.6533,39.80581c-.06323-.21326-.01953-.03119,0,0Z"/><path class="cls-2" d="M77.60326,39.46938l.05419.28308A2.24955,2.24955,0,0,0,77.60326,39.46938Z"/><path class="cls-2" d="M77.56822,39.52846l-.05078-.18878C77.48973,39.31972,77.49205,39.3453,77.56822,39.52846Z"/><path class="cls-2" d="M77.73363,40.10525c-.02954-.12378-.05664-.23932-.07618-.35279.00367.0445.0022.06378-.00415.05335Z"/><path class="cls-2" d="M66.16148,51.53939c.08289-.00775.16443-.03064.24756-.03345A2.38316,2.38316,0,0,0,66.16148,51.53939Z"/><path class="cls-2" d="M86.41637,39.63717c-.04139.10363-.08252.20593-.1316.30841-.03979-.2796-.09851-.55609-.14953-.83393-.02014-.2229.07983-.32843.19348.27289a1.7642,1.7642,0,0,0-.36548-.977c-.28235-1.15533.3418.384.23523.03766-.0459-.16052-.10584-.31622-.1582-.4743l.01318.11371a4.95948,4.95948,0,0,1-.52161-1.05408c-.14441-.437.012-.26032-.05261-.43024.01233-.00409-.00635-.06323-.10535-.25873-.1477-.32623-.29541-.65527-.4652-.97168.03015.1471.05175.29712.07019.44727-.272-.39221-.47547-.8808-.375-.37714a6.20767,6.20767,0,0,0-1.13562-2.00647c-.57666-.76855-1.24561-1.40539-1.37049-1.592-.54431-.38763-1.01367-.82861-1.634-1.33655.13745.14753.12634.34595-.397-.09509.4115-.12274-.92066-.86993-1.26416-1.36676.34558.38336-1.70154-.99127-1.14576-.39142-.485-.30688.033-.12555-.30822-.41009a43.92487,43.92487,0,0,0-4.27027-2.01038c-.03955.03278.20508.18921-.16015.13123-.2566-.167-.51477-.33728-.78125-.49359-.32984-.08045-.36646.14587-.91736-.16364.07422.059.18347.14728-.03662.10065a14.15309,14.15309,0,0,0-5.02259-.69153,24.368,24.368,0,0,0-5.11291.80194c.47632-.08759.17859.01971-.15137.17.22437-.07391.0376.10206.10376.13849a6.86009,6.86009,0,0,0-1.369.55487,5.0754,5.0754,0,0,1-.66626.65577c-.27661.2763-.50378.58483-.48254.694.08569-.13257.17468-.2652.27112-.39118-.12805.30566.08825.18561.35449.06995.026-.012.05322-.02234.08-.03394a3.96663,3.96663,0,0,0-.7854,1.11347,3.011,3.011,0,0,0-.04419,2.69592,3.646,3.646,0,0,0,1.76062,1.81824,2.98743,2.98743,0,0,0,2.08984.10894,11.22781,11.22781,0,0,0,2.27588-.89428,6.35986,6.35986,0,0,1,3.15454-.48218,12.09244,12.09244,0,0,1,4.5,1.22876c.51318.2384.98535.49316,1.43774.7558l-.00915.05645c.23645.13807.41223.20948.31372.12146.21777.13312.42456.27057.62732.40961-.4115-.16144-.291.26764-.05078.65741.03735-.0238.0653-.065.52075.21655-.104-.16357-.88513-.806-.46362-.61493.61389.37952.45324.3794.6914.63459-.12378-.25458.56177.26806.75733.27423a9.66066,9.66066,0,0,1,.77453.82208l-.01135.17334.20984.1001-.15979-.22852a8.26635,8.26635,0,0,1,1.06421,1.63349,7.0976,7.0976,0,0,1,.45044,1.21942c-.01392-.00586-.02405.00274-.02454.04767.037.13122.08545.26025.11316.39428-.02258.38153-.31811-.70654-.25085-.19873-.20472-.50378-.51075-1.00793-.81336-1.68506l.0614-.19738a1.97115,1.97115,0,0,0,.2876.64581c-.17541-.25147-.37268-1.13086-.755-1.294.08007.16028.13928.33179.20825.494-.34925-.41376-.8711-.81738-1.29285-1.31061.09912.31324.12024.0979.29553.55262-.04846-.22016.22657.0877.45056.39587.22742.304.40882.606.3335.27393.08.50244.36206.741.43359,1.36181.03992-.036.01294-.23358.179.26532a.47838.47838,0,0,1,.07861.09467l.00721.035-.00318-.02954c.01416.01935.01624.02081-.00122-.011a1.12173,1.12173,0,0,1-.02039-.28021,4.25894,4.25894,0,0,1,.52576,1.32379c.017.32367-.07446-.12555-.10571.05634.04907.13836.09741.27887.13342.42285-.098.05658-.16455.84393-.24548.11023a5.7399,5.7399,0,0,1-.00647.65924c-.08057.38586-.18494.90448-.22376,1.23914-.0924.2984-.10424.80627-.10278.51525a9.41755,9.41755,0,0,1-.31372,1.02582l-.02966-.00219a13.14137,13.14137,0,0,1-.91565,1.7796.17572.17572,0,0,0,.02954-.10456c-.217.25422-.37244.43616-.50818.5951a3.56094,3.56094,0,0,0,.45422-.45453,4.36834,4.36834,0,0,1-.90612,1.03467,4.2687,4.2687,0,0,1-.927.92883l-.15039-.0033c-.32617.32276-1.16406.68506-1.29052.85541a18.42861,18.42861,0,0,0-2.89039,1.15826l.01441.1316c-.52576.22558-1.0249.38318-1.71228.61242l.06946.09833a25.4521,25.4521,0,0,1-2.56287.49017.60692.60692,0,0,1,.24719-.08172c-1.15442.1076-2.27673.64514-3.31885.83453a2.28423,2.28423,0,0,1-.64306.239.44381.44381,0,0,0,.06348-.03009.83974.83974,0,0,0-.10816.04224c-.12219.03455-.25244.07147-.38257.10834a2.97573,2.97573,0,0,0,.32593-.08222,7.25427,7.25427,0,0,0-.77.41l-.177-.04114-.0647.03888c-.303.11365-.19714.17169-.00549.17084a3.03733,3.03733,0,0,0-.33655.267c-.31616-.02526-.6803.49121-1.07153.53778-.122.17749-1.06043.9303-1.16443,1.2688a3.021,3.021,0,0,0-.71716.72144l-.21448.00293c-.1322.22992-.2461.471-.359.70923-.37244.29077-.54358.40735-.33032-.02234a13.38471,13.38471,0,0,0-.92847,1.62671l-.05469-.0943c-.19922.27624-.37536.80432-.55273.932a9.64066,9.64066,0,0,0-1.27674,2.0268,12.98408,12.98408,0,0,0-1.29211,3.1366c.17517-.18543.09558.04809.0459.365-.05908.315-.02466.74432.10547.7583-.03614.14453.05.49225-.13953.128a3.68954,3.68954,0,0,0,.7688,1.23913,2.09887,2.09887,0,0,0,.89783.59662c.0664.12543-.24781-.03985-.17859.05359a1.4543,1.4543,0,0,1,.397.22193c.07446.08935-.16479-.02539-.32715-.09449.96326.55634,1.15625.34058,1.30176.20417a1.63652,1.63652,0,0,0,1.09924.35955c.1587.10511.442.26349-.19506.10175a5.07154,5.07154,0,0,0,1.26013.29315c.55053.06037,1.08813-.10284,1.07812-.1889a1.27435,1.27435,0,0,0,.61035-.27887,2.31988,2.31988,0,0,0,.68445-.64081,3.7713,3.7713,0,0,0,.406-.76062l-.11377.18079c-.04614-.35529.23022-.59522.48059-1.15857l.01.02453c.75732-1.19891.2052-.58276.99817-1.73572l-.14148.009c-.166-.24158.72473-1.009,1.07666-1.72638l-.21314.20807c.15857-.42737.96363-.83014,1.24915-1.12567.07458-.057-.0625.13342-.12512.248.7987-.74768-.04908-.22009.46472-.84625.16406-.04163.01684.27753.40967-.06921.12011-.06055.36206-.36164.7102-.65839a2.98284,2.98284,0,0,1,1.16968-.66968c-.17773.01129-.36047.025-.02893-.18481a21.39224,21.39224,0,0,0,2.06958-.69318c.08057-.005.114.003.12207.01758a14.07932,14.07932,0,0,0,1.68433-.701c.53625.30591,2.75427-1.12872,2.86474-.75226l1.39111-.49273-.02172.04852a3.942,3.942,0,0,0,1.39184-.81506c.2063-.07019.07837.0307.07031.05676A8.48007,8.48007,0,0,0,78.454,54.59762l.16516.05224a11.06426,11.06426,0,0,0,2.8108-1.90161c-.00086.01947-.00623.05634-.07691.14221.53943-.5603,1.24878-1.158,1.80225-1.75494.55481-.592.95031-1.16638.91467-1.52558q.23054-.45675.43066-.92358c-.69055,1.1048-.06884-.26349-.40454.15869.23609-.44287.74378-1.08679.47632-.52154l-.06653.07544c.12232.32782.79468-1.4087.90345-1.32459A13.10524,13.10524,0,0,0,86.41637,39.63717Zm-1.01575-3.10743.03723.16675C85.2567,36.36251,85.32725,36.44723,85.40062,36.52974ZM74.66087,34.81063c.22071.1557.43054.31579.63281.47882A3.71654,3.71654,0,0,1,74.66087,34.81063Zm.83374.6438.00354-.00012.03357.027C75.519,35.4728,75.50731,35.46279,75.49461,35.45443Zm2.40979,6.78534.00391.01849C77.80235,42.61849,77.8441,42.49129,77.9044,42.23977Zm-.45495,2.726a3.27331,3.27331,0,0,0,.40234-1.4361,4.53825,4.53825,0,0,1,.20789-1.23315c.19128-.50983.26818.00726.37707-.09692a5.18189,5.18189,0,0,1-.42419,1.54309c.088-.18256.15307-.37317.22973-.56195a2.772,2.772,0,0,1-.25366.949,1.45222,1.45222,0,0,0,.104-.20221,10.28179,10.28179,0,0,1-.40332,1.01416c-.12316.26508-.27893.49622-.417.74579.05164-.14832.1294-.33545.052-.271q-.134.2959-.28564.58429c.00134.04108.03357.02167.07849-.0357-.18835.31958-.38574.62982-.59961.923.10474-.34894.33594-.875.5968-1.49292C77.46458,44.5917,77.40636,45.114,77.44945,44.96578Zm-3.67176,4.51129c-.19177.11743-.3927.22571-.59558.33161.14575-.12629.304-.2547.444-.36219C73.62108,49.49123,73.70811,49.48562,73.77769,49.47707ZM69.1223,51.11214c.04346-.00635.36438-.053.72131-.10486.34961-.06128.71973-.16735.87073-.17425.08264-.00458.1084.01764.11426.04925-.26331.10566-.51636.20331-.74854.28455-.0227.008-.05224.01611-.07544.02411l-.07788-.17267-.03869.21c-.24207.08038-.51624.16119-.81727.24231A.35507.35507,0,0,1,69.1223,51.11214Zm-4.11292.99164.7666-.2655a9.51194,9.51194,0,0,1-.83544.53253c-.45374.10046-.7992.18518-1.025.2536-.11719.03021-.22754.08081-.3435.11469a3.72171,3.72171,0,0,1,1.22058-.67164ZM58.50853,55.3033a.2247.2247,0,0,0-.01953.07654C58.46226,55.36684,58.38548,55.42067,58.50853,55.3033Zm-1.14038,1.65339c-.1322.15509-.26587.30609-.39551.46887.06836-.20374.13281-.408.2102-.61066C57.19249,56.89321,57.27611,56.92531,57.36815,56.95669ZM55.88841,67.81435c-.10095-.07513.01221-.07873.19031-.08258l-.18408-.03448c-.12586-.082-.14954-.12622-.13221-.15485.15528.06866.30616.13074.45386.18762l-.13757.00171.24975.04474c.06336.02344.12562.04517.18763.06641a2.995,2.995,0,0,0,.3551.22723A8.3192,8.3192,0,0,1,55.88841,67.81435Z"/><path class="cls-2" d="M76.61888,37.74013c.097.13068.20178.25782.2898.39508a2.55374,2.55374,0,0,1-.20435-.39441C76.68724,37.76595,76.7047,37.86641,76.61888,37.74013Z"/><path class="cls-2" d="M76.66771,37.12734c.05127-.09125-.17261-.33307-.43628-.58521l.04321.0478C76.099,36.60689,76.39317,36.85506,76.66771,37.12734Z"/><path class="cls-2" d="M75.93468,36.24294c-.071.01105.08947.103.23754.239Z"/><path class="cls-2" d="M77.88353,40.50863c.0061-.16529-.1438-.07953-.11792-.17554C77.62706,40.16854,78.057,41.37642,77.88353,40.50863Z"/><path class="cls-2" d="M77.92967,38.71132c-.01562.01642-.0581-.04742-.10461-.12768.153.33221.25354.71954.28332.6947C78.0587,39.087,77.99547,38.89876,77.92967,38.71132Z"/><path class="cls-2" d="M77.59593,38.166c.04858.08868.15161.27636.22913.4176A1.946,1.946,0,0,0,77.59593,38.166Z"/><path class="cls-2" d="M58.75426,27.33791a4.67933,4.67933,0,0,0-.41761.39783,2.93121,2.93121,0,0,1,.30384-.22815Z"/><path class="cls-2" d="M58.03075,28.33419l-.02649.36859a1.282,1.282,0,0,1,.234-.40118C58.16807,28.3099,58.09776,28.32,58.03075,28.33419Z"/></g></g></svg>