<svg xmlns="http://www.w3.org/2000/svg" viewBox="0 0 104.16942 117.48159"><defs><style>.cls-1{fill:#1d1d1b;}.cls-2{fill:#c66e6e;}</style></defs><title>Question_07</title><g id="Layer_2" data-name="Layer 2"><g id="Layer_1-2" data-name="Layer 1"><path class="cls-1" d="M103.121,52.5457a50,50,0,1,0-60.06739,48.98584l4.3429,6.32794,5.72449,8.34107,5.72442-8.34107,4.3429-6.32788A50.01724,50.01724,0,0,0,103.121,52.5457Z"/><path class="cls-2" d="M100.66942,52.91179c.0581-.4627-.36853-.29681-.44055-.36608C100.28587,53.313,100.77928,52.89458,100.66942,52.91179Z"/><path class="cls-2" d="M100.94078,60.67324l-.15051-.16461a9.12271,9.12271,0,0,1,.21362,1.2041A7.55038,7.55038,0,0,0,100.94078,60.67324Z"/><path class="cls-2" d="M99.1616,67.72552c.86951-.44935.7544-2.53657,1.21424-3.74894l.20508-.17187-.43177-.7c-.1427.77014-.17407,1.69323-.34948,2.524A9.00992,9.00992,0,0,1,99.1616,67.72552Z"/><path class="cls-2" d="M96.376,70.75759c.34534-.10629-.09229.84479.41748-.77686a1.37832,1.37832,0,0,1-.12646.12046C96.61253,70.24318,96.53111,70.43639,96.376,70.75759Z"/><path class="cls-2" d="M96.667,70.10119c.26672-.69214-.40308.36053,0,0Z"/><path class="cls-2" d="M95.42113,73.30431l.22668-.97629c-.23767.11472-.67566.86255-.63269.5264C94.67686,73.79574,94.91466,73.69311,95.42113,73.30431Z"/><path class="cls-2" d="M95.45409,74.36889l.14367-.50345C95.49461,73.91457,95.41124,74.02285,95.45409,74.36889Z"/><path class="cls-2" d="M95.90074,72.80544l-.303,1.06c.169-.07486.38416.01257.15894-.47827C95.90526,73.55944,95.823,73.27776,95.90074,72.80544Z"/><path class="cls-2" d="M96.25731,72.29491c.35241-.44613.71985-1.07672.56213-.0516C97.46214,70.43874,96.8867,70.51375,96.25731,72.29491Z"/><path class="cls-2" d="M99.74852,68.3164l.43188-.66922-.02649-.70676C100.166,67.29384,99.52171,68.29134,99.74852,68.3164Z"/><path class="cls-2" d="M92.06737,78.3966c.09362.13617.51269-.05429.71521-.011l.24194-.70905C92.7368,77.93667,92.28038,78.4804,92.06737,78.3966Z"/><path class="cls-2" d="M92.78258,78.38561l-.3667,1.06989C92.964,78.64358,92.956,78.42476,92.78258,78.38561Z"/><polygon class="cls-2" points="96.075 74.892 96.426 73.033 95.919 75.209 96.075 74.892"/><polygon class="cls-2" points="89.632 81.707 89.723 81.004 89.484 82.201 89.632 81.707"/><path class="cls-2" d="M87.90159,83.81457c.08338-.52848-.77685.12771-.593-.34531a7.2616,7.2616,0,0,0-.91309,1.789A4.47857,4.47857,0,0,1,87.90159,83.81457Z"/><path class="cls-2" d="M85.92808,86.14586a6.91551,6.91551,0,0,0,.46741-.88763A3.66934,3.66934,0,0,0,85.92808,86.14586Z"/><path class="cls-2" d="M91.24254,80.90978a1.22789,1.22789,0,0,0-.863.42157l.59766-.08179Z"/><path class="cls-2" d="M90.99718,81.24575l-.02.00381c-.29126.36518-.49329.61847-.58.727C90.473,81.88433,90.65355,81.66442,90.99718,81.24575Z"/><path class="cls-2" d="M91.30968,80.82439l-.06714.08539C91.30125,80.90185,91.32786,80.89022,91.30968,80.82439Z"/><path class="cls-2" d="M94.32762,77.24822c-.14111.66812-.66138,1.97046.35876,1.03931C94.6898,77.73559,94.1096,78.26357,94.32762,77.24822Z"/><path class="cls-2" d="M92.06554,80.71175c.25769-.297.53967-.57828.77917-.88983-.10559-.044-.35327.04065-.28015-.29758C92.43077,79.93947,92.23106,80.31225,92.06554,80.71175Z"/><polygon class="cls-2" points="91.827 81.251 92.066 80.712 91.773 81.038 91.827 81.251"/><path class="cls-2" d="M87.602,85.02086a3.85981,3.85981,0,0,1-.99975,1.35752,8.019,8.019,0,0,0,1.48535-1.36026C88.0515,84.85747,88.06505,84.48165,87.602,85.02086Z"/><path class="cls-2" d="M89.33934,83.26473l-.05615.09872C89.35655,83.33587,89.40245,83.30248,89.33934,83.26473Z"/><polygon class="cls-2" points="81.984 90.387 82.109 90.387 82.082 90.314 81.984 90.387"/><path class="cls-2" d="M88.22093,84.9887a1.68247,1.68247,0,0,0,.613-.913,11.40668,11.40668,0,0,1-.74634.94245C88.10423,85.09032,88.12828,85.12337,88.22093,84.9887Z"/><path class="cls-2" d="M84.8358,87.4489a8.16956,8.16956,0,0,0,.7865-.41876C85.3441,87.10631,84.82713,87.304,84.8358,87.4489Z"/><path class="cls-2" d="M89.08079,83.41167l.03553-.06784C88.93736,83.40542,88.985,83.41955,89.08079,83.41167Z"/><path class="cls-2" d="M89.08079,83.41167a3.39033,3.39033,0,0,0-.24682.664,6.02229,6.02229,0,0,0,.44922-.71222A.74584.74584,0,0,1,89.08079,83.41167Z"/><path class="cls-2" d="M82.07432,93.7307c-.0769-.191.12745-.542.48572-.906a3.52662,3.52662,0,0,1,1.44983-.97547c.736-.96441-.6991-1.48825-1.90137-1.462.07666.159.17908.28421-.59582,1.19708.44311-.07373,2.344-1.219,1.78723-.31708-1.11645,1.13031-1.0741.71949-1.83179.96424.83277.0379-1.25317,1.69748-.57007,2.11453l1.0254-.99048C82.01121,93.43255,81.689,93.86391,82.07432,93.7307Z"/><path class="cls-2" d="M83.85411,89.05141l.34021-.332a5.60558,5.60558,0,0,1-1.62109.6004c-.49036.63684-.52991.85669-.4917.99463l1.86157-1.409Z"/><path class="cls-2" d="M85.75145,87.26742c.02795.56579-.69336,1.49786.136,1.35656,1.01563-.99792.4795-.94635.96228-1.65735-1.57775,1.63178.30518-.61682-1.05187.32477a10.05689,10.05689,0,0,1,.80444-.913c-.33106.2395-.65943.45926-.98.65176l.05578-.01562.0066-.00821.00317.00641c.10706-.027.15271-.02518.05212.02679a.16851.16851,0,0,1-.028.03839.40932.40932,0,0,1,.03772.18778c-.53381.38086-.15051-.01194-.03772-.18778a.28946.28946,0,0,0-.02417-.06518l-.00977.0018c-.49365.56384-.9707,1.15228-1.48376,1.70486A10.81705,10.81705,0,0,0,85.75145,87.26742Z"/><path class="cls-2" d="M94.80321,79.83608a.10521.10521,0,0,1-.12378.00855C94.64244,80.00188,94.64159,80.07079,94.80321,79.83608Z"/><path class="cls-2" d="M94.07139,80.50667a1.36316,1.36316,0,0,1,.30506-.83416c.36389-.33319.17163.115.303.17212.08447-.347.36218-1.15079-.36878-.38682l-.03882.17109c-.597.73419-1.76538,1.36264-1.718,1.195A2.93223,2.93223,0,0,0,94.07139,80.50667Z"/><path class="cls-2" d="M90.09849,84.27065l-1.12475,1.56854.93262-.48037-.20044-.11219C90.5056,84.488,90.13866,84.48382,90.09849,84.27065Z"/><polygon class="cls-2" points="81.688 90.349 81.604 89.834 81.15 91.018 81.688 90.349"/><polygon class="cls-2" points="79.747 91.794 79.598 91.417 79.202 91.968 79.747 91.794"/><path class="cls-2" d="M5.03575,31.79729l.15906-.59085A3.6319,3.6319,0,0,0,5.03575,31.79729Z"/><path class="cls-2" d="M3.46849,35.88384l.14807.16248C3.58385,35.82247,3.53758,35.71856,3.46849,35.88384Z"/><path class="cls-2" d="M36.786,97.13292c-.3142-.30346-.6267-.6596-.86792-.88336-.23144-.24878-.39721-.35891-.43786-.133l.06079.50174A3.91324,3.91324,0,0,1,36.786,97.13292Z"/><path class="cls-2" d="M6.25572,70.23919c-.00928.089-.019.18228-.02856.27462.217.13413.42028.25971.60461.37366C6.65782,70.69167,6.46153,70.47091,6.25572,70.23919Z"/><path class="cls-2" d="M4.34788,70.30214l-.08459-1.18576A6.40705,6.40705,0,0,0,4.34788,70.30214Z"/><path class="cls-2" d="M18.82262,12.40047l.24462-.817C18.23668,12.33819,18.748,12.17586,18.82262,12.40047Z"/><path class="cls-2" d="M57.56993,105.51992a9.5642,9.5642,0,0,0-1.23975,1.344C57.03,106.2842,57.73717,105.91469,57.56993,105.51992Z"/><path class="cls-2" d="M8.6909,35.08419c.04236-.34558.01-.51492-.083-.54184C8.55711,34.89828,8.56712,35.113,8.6909,35.08419Z"/><path class="cls-2" d="M55.1461,108.59188c.108-.08078.19715-.17182.30091-.25833a9.12143,9.12143,0,0,1,.88317-1.46967A3.093,3.093,0,0,0,55.1461,108.59188Z"/><path class="cls-2" d="M95.71751,21.976c.022.062.05982.12833.07532.18759C95.852,22.14486,95.8026,22.07284,95.71751,21.976Z"/><path class="cls-2" d="M100.69371,45.82857c-.06116-.22192-.11792-.58972-.17651-.93576A3.59614,3.59614,0,0,0,100.69371,45.82857Z"/><path class="cls-2" d="M71.11973,96.24532c.4563-.23459.05579-.07733,0,0Z"/><path class="cls-2" d="M74.13023,96.78411a.28959.28959,0,0,0-.10376.27685A.37058.37058,0,0,1,74.13023,96.78411Z"/><path class="cls-2" d="M54.2877,114.6144l-.02734.03723C54.37877,114.62932,54.35826,114.63064,54.2877,114.6144Z"/><path class="cls-2" d="M71.901,96.113a4.73252,4.73252,0,0,0-.64953.14837A4.89363,4.89363,0,0,0,71.901,96.113Z"/><path class="cls-2" d="M71.72508,95.96682l.42542-.14331C72.18016,95.73119,72.11009,95.71258,71.72508,95.96682Z"/><path class="cls-2" d="M70.47764,96.55785a5.72838,5.72838,0,0,1,.77381-.29645c-.10315.01392-.15088.00843-.13172-.01608Z"/><path class="cls-2" d="M56.26536,1.38839c.03577.01553.07752.02646.11634.04706C56.95311,1.28411,56.70543,1.30031,56.26536,1.38839Z"/><path class="cls-2" d="M22.355,94.48058c.0232.01285.04078.01233.06275.023l-.05615-.0639Z"/><path class="cls-2" d="M20.5703,93.476a2.3596,2.3596,0,0,1,1.79126.96366l.23034-1.4137Q21.59728,93.26368,20.5703,93.476Z"/><path class="cls-2" d="M10.03367,22.59316a10.36948,10.36948,0,0,0-1.12927.97107,7.96942,7.96942,0,0,1,.71021-1.92944c.14306-.348.06445-.3798-.57154.01526.24707.23748.16492.64379-.07556,1.13476a14.27986,14.27986,0,0,1-.90539,1.73895c-.703,1.22162-1.4021,2.44583-.85742,2.855a9.394,9.394,0,0,0-.68323.70468c.12988-.23815.07824-.31494.20752-.55038-1.3833,1.36572.27514,1.68372-.90979,3.70023-.44776.69174-.87769,1.13339-.78345.56405-.17773.58893-.23486,1.22483-.35535,1.82956-.207.48831-.38318.28317-.176-.206l-.85694,2.65759-.03088-.03207c.05737.44043.07007,1.38156.12329,1.849-.36206.62335-.05029-.38117-.25732-.2565l-.06531,1.57022c-.49609.51519-.50891-.80622-.192-1.82788-1.66565,1.02975.00794,1.324-1.53381,4.15805l.19666-1.46442a3.12634,3.12634,0,0,0-.98182,1.44287c-.233.58655-.35376,1.28717-.7312,2.08307.1543-.17911.58167-.96411.9773-1.47006.4093-.50522.80688-.73041.79724.12121a3.78213,3.78213,0,0,0-.18323,1.99472c-.4779-.06927-.49548.82856-.63391,1.92768l-.62366-.15284c-.005,1.22052.33655,1.15821.59168,1.88791A2.03607,2.03607,0,0,1,.02708,49.77779c-.20971,2.15375.86756-1.44281.86121,1.09848-.3905,1.76737.00867,3.03446.46851,5.11447-.16382,1.25043-.4-.1893-.56263.26667.19068.35577.36316.70947.56848,1.05691.02283.26676-.14453.196-.22912.15952.31787.89691.64624.017,1.00818,1.42114.761.26666-.69336,3.10382.56848,4.69946-.08093.46927-.42944-.12408-.64209.05939a12.456,12.456,0,0,0,2.07861,3.71l.11658,1.75253c.09375-1.35281,1.06274.02341,1.99243,1.12281.0387-.47742.12256-.89676.14209-1.164a21.65529,21.65529,0,0,0,1.1023,1.87835c.00195.278-.2837.16333-.66834-.0661.10571.117.208.22672.29456.309.07776.80271-.41455.58033-.96326.19129.01392-.29474.0376-.589.06409-.874-.5802-.35418-1.15772-.69235-1.46534-.45986a3.67376,3.67376,0,0,1,.428.6217c-.15381-.09567-.27759-.14822-.31176-.06394-.03406.09385.18835.261.48022.53867l-.46716.734.31042.00912c.2461.95826.46387,1.93924.74512,2.89975a46.25639,46.25639,0,0,1,5.34485,5.24411c-.86865-.395-.80921.31818-1.34986.62238A2.436,2.436,0,0,0,9.05968,79.035c-.25245-.28286-.55225-.56958-.80433-.90261a5.85,5.85,0,0,1-.64123-1.10379c.35669.83416.00806.80358-.18982.64694a29.64181,29.64181,0,0,0,2.10046,2.35568c-.46569.21164.03016.75851.29151,1.56152.26184-.54394.67785-.12732,1.217.47455a22.24923,22.24923,0,0,0,1.667,1.82688c-.218.26907-.67187.23959-1.53479-1.0355.44324,1.80268,2.21436,1.04944,2.771,2.69629-.254-.27148-.35108-.44967-.56665-.46274.78589.47306,2.03576,2.18763,1.48266,2.01987l-.25427-.27276c.39221.48117.90466,1.07406,1.46558,1.68649.59179.58212,1.2644,1.15231,1.892,1.66855a12.15228,12.15228,0,0,0,1.73572,1.23327c.52381.25357.92883.36325,1.13538.25586a3.89817,3.89817,0,0,1-1.13672.62494q1.33209.14712,2.61767.25446a23.525,23.525,0,0,0,2.5608.12506c-.74488.37481-.50586,2.64474-2.45093,1.81561A5.80923,5.80923,0,0,0,24.57982,95.921c-.2843-.31439-.24365-1.43176.24621-1.18549a10.27638,10.27638,0,0,0,1.83557,2.52265c-.45-.42746.72876-1.08408,1.52442-.60413-.21387.07782-.48718,1.02258-.85364.95661l2.60913.15329c-.605-.10178-.5332.79437-.203,1.338-.14588-.2656,1.87659.87778,2.50537,1.04062l-.818-.64908c2.40417,1.25244,3.01086-.33426,5.43408.53586a.872.872,0,0,0,.02038,1.669c.389-.185,1.23914-.57824,2.27332-1.00067a11.74937,11.74937,0,0,1,1.64868-.5654,4.64967,4.64967,0,0,1,1.94934-.13769c.15454.15188.29053.29877.418.44369l.60156.054c.13147.123.25708.26047.389.39453l.80969.84836c-.38708-.181-.89038-.42584-1.39282-.62067-.0636-.02331-.1239-.05069-.19018-.06851l-.27027.05325-.526.11533c-.34253.08072-.66553.16925-.953.26565a21.988,21.988,0,0,1-3.51294.79429c.89831.52645.16162.44992,1.64477.799.44678.43033-.93.2493-1.37585.15509l1.712.5332.85583.26529.136.08276c.106-.29065.451-.49887.67639-.34384.13318.05768.2511.09918.41309.17707.20764.14456.37756.20648.47473.10058-.10279-.09848-.23938-.24618-.31446-.30426l-.2019-.14029q-.19611-.13175-.36853-.22919a4.6022,4.6022,0,0,0-.46912.05976l-.18469.045a.49924.49924,0,0,1-.18054.00006l-.24439-.0162c.00159-.17246.16651-.34061.44617-.4856a2.01465,2.01465,0,0,1,.80139-.43085q.1388-.03831.29578-.0668l.16113-.02566a.41058.41058,0,0,1,.118.05316,2.92216,2.92216,0,0,1,.48267.34637,5.80978,5.80978,0,0,1,1.03992,1.2764c.12536.65533-1.24536.30026-1.40186.46841a5.57361,5.57361,0,0,1,1.64441,1.905l-.873-.637c.54834,1.24591,1.97,1.29556,2.35047,2.98392.27844.48165.22363,1.85565.606,1.70956.12049-1.18008,1.977-2.66873,2.79322-2.49747a24.32416,24.32416,0,0,1,1.08239,3.54282c.01319.5506-.42785.54138-.962.37768-.49036-.09988-.98157-.21975-.97449.247a.601.601,0,0,1,.40759.09369,3.3068,3.3068,0,0,1,.48108.34769c.3291.75656-.62719.09152.46436,1.53531.58056-.35892,1.97424,2.97839.79651.14227.98767,1.09476.90283,1.56314,2.01916,3.13718-.1615-.67432.25305-.85648.64405-.95069a20.55994,20.55994,0,0,1,.84667-2.33725.39481.39481,0,0,0,.32007.42075c1.45386-2.00964,2.5763-3.09814,3.89173-5.00458.25952-.08648,1.07055-.91516,1.03723-.34811a3.32936,3.32936,0,0,1,.47925-1.34894c1.28552-.83151-.84546,1.39414.3479.90671-.27442-.29993.618-1.86609,1.00219-2.86347-.68542-.08242-1.45617,1.91468-1.84179,2.91312-.69837-.47345-.40125-2.46823.67712-4.729.93994-1.73981.93213-.39423,1.02625-.74369a9.69887,9.69887,0,0,0,.66357-1.00189c.17053-.29977.36719-.67258.49731-.96982.13953-.31076.25232-.60388.35462-.88906a2.692,2.692,0,0,1,.574-.42951,7.304,7.304,0,0,1,.64038-.38165c.11878-.0622.24451-.12323.37977-.18274l.34558-.15024a4.74379,4.74379,0,0,1,1.65893-.31073c1.2926.23145.34363,1.01627.70215,1.32629a5.77211,5.77211,0,0,1-1.91968.386,8.34179,8.34179,0,0,0-1.77.20838l1.54261-.12442c-.46705.37182-1.5813.48168-1.86023,1.09591a1.93407,1.93407,0,0,0,.42175-.36093l.06226-.06546.10327-.01324.21631-.03162.47021-.08231c.64258-.12127,1.46826-.31717,2.33911-.52566a26.76148,26.76148,0,0,0,2.6532-.75687,22.60426,22.60426,0,0,1,2.42688-.62143c.41443-.34463,1.13208-.894.67432-.919-.26575.14025-.52442.3-.79737.42474-.47265-.077-.11438-.324.183-.6026.303-.26715.57714-.49.02722-.35581a10.69735,10.69735,0,0,1,3.56823-2.2153l.55311.39493c-.11-.12985-1.119.19806-1.47815.53153.52978-.46622,2.65527-.45859,2.95141-1.51618l-1.224.18936a14.66871,14.66871,0,0,1,3.12268-2.719c-.86975-.14972-.24182.2507-1.46325.20364,1.22668.32947-3.22657,1.73117-1.53321,1.857a2.74337,2.74337,0,0,0-1.55627.208,4.1532,4.1532,0,0,1-1.752.275c.12243.167.60168.15573-.53479.55173a1.21809,1.21809,0,0,1-.16932.27035l-.0802.01917.07019-.00507c-.03564.049-.03747.0567.02576-.00244a1.44451,1.44451,0,0,1,.68628.03156c-.36169.661-2.13208,1.4779-2.6936,1.86227-.72107.14664.20678-.31638-.24292-.38974l-.80689.65811c-.24646-.39056-2.03955-.08459-.53271-.88391l-1.43311.475a7.12332,7.12332,0,0,0-2.80957.56454,4.892,4.892,0,0,0-.86218.24957c-.34094.12406-.63623.25376-.85535.35614-.43737.20475-.60193.30841-.16516.018-.7793.03549-1.00268.84637-1.38061,1.41022l-.52478.88772-.3003.5604-.10559-.0445c-1.44214,2.00122-2.25964,4.60663-4.52343,6.47263-.18824.37439-.37513.758-.62635,1.18225-.12561.2121-.26721.43432-.43323.67059a1.536,1.536,0,0,1-.2622.29318,2.77758,2.77758,0,0,1-.3114-.233c-.04212.18125-.23218.28653-.35266.3498-.12623.07165-.20057.1271-.2146.50527a4.8972,4.8972,0,0,0-.12561-.48925c-.08045-.48893-.1344-.514-.26819-.59653a1.24281,1.24281,0,0,1-.21118-.14072.5093.5093,0,0,1-.089-.09909c-.11524-.16931-.24488-.37317-.33545-.53933l-.45838.2286a27.4529,27.4529,0,0,0-2.59985-3.22452l-.31372.33487c-1.08508-.93039-1.74634-3.10794-3.02027-4.88308.22535.02551.50184.50769.63831.88955a5.77067,5.77067,0,0,0-1.10913-2.18817l-.49146-.67486-.25109-.327c-.09278-.09518-.2677-.07126-.39734-.11136l-1.67676-.26944-.40051-.0585-.24207-.0184-.48132-.04035c-.31922-.02969-.63416-.06656-.94007-.11993a3.47384,3.47384,0,0,1-1.66333-.65372,2.29063,2.29063,0,0,1-1.28979-.45151.44648.44648,0,0,0,.13977.02335c-.05286-.024-.13355-.05273-.21692-.0805-.20972-.1539-.421-.32166-.65723-.47883a3.188,3.188,0,0,0,.53943.43976,12.53494,12.53494,0,0,0-1.70886-.40008l-.07556-.55432-.14063-.04782c-.50634-.42066-.55163.00344-.37805.47729A4.1726,4.1726,0,0,0,34.123,96.965c-.15918-.92169-1.67786-.4596-1.968-1.49408-.58154.19552-2.99353-1.28916-3.741-.71619.03613-.10651-.1073-.24551.20813-.07989A6.12866,6.12866,0,0,0,26.787,93.59627l.07459-.68622-1.79236-.20516c-.60279-.84955-.79712-1.238.2716-1.09333-2.29077-.78341-1.63464-.92184-3.65478-1.58435l.3302-.24313c-.58362-.39771-1.74744-.8049-1.84326-1.34-.32019-.82721-1.76721-2.1311-3.21277-3.87485-.37244-.42431-.75757-.86312-1.14673-1.30645-.3429-.4802-.68933-.96521-1.03162-1.44458a13.95017,13.95017,0,0,1-1.67529-2.88129c-.55871,1.29681-.55823-1.86093-1.4093-1.51508.10913-.34228-.05432-.89016.49853-.46609a7.25759,7.25759,0,0,1-1.1781-2.16736,3.38287,3.38287,0,0,0-1.23437-1.62067c.14221-.32568.56653.21225.6178-.0429-.12488-.11908-.52649-.46414-.44361-.73542.07215-.25988.313.18238.58338.40632-.88391-1.84772-1.7085-1.73615-2.5177-1.56846a2.39022,2.39022,0,0,0-1.07959-2.15853c.13073-.44928.20251-1.12754.68664.092-.17029-.73188-1.03467-4.38352-1.59814-4.3165a2.1836,2.1836,0,0,0-.2948-1.19751c-.15674-.818-.24207-1.26328-.32666-1.70456-.09412-.43918-.19531-.87235-.31482-1.68146l-.04346.46695c-.84631-.51913-.35022-1.33237-.61743-2.631l.08362.02869a8.03931,8.03931,0,0,0-.04761-2.17173,5.00512,5.00512,0,0,1,.11939-2.139l-.47205.1759c-.51294-.124-.41992-.80539-.18591-1.655a6.11859,6.11859,0,0,0,.48535-2.73831l-.30518.61386c-.15222-.48587.23194-1.13754.674-1.76105.22437-.30783.453-.62161.6576-.90243a2.56867,2.56867,0,0,0,.46545-.76587c.12-.18891.09436.33291.11719.61777.9729-2.31662-.57593-.38193-.44348-2.21012.38513-.27884.78772.55338,1.03173-.63351a1.64532,1.64532,0,0,0,.07862-.82782,9.65592,9.65592,0,0,1-.04492-1.4,5.5943,5.5943,0,0,1,.66564-2.92437c-.34191.28277-.686.57556-.66259-.30686a3.73607,3.73607,0,0,1,.391-1.0556c.21814-.35892.45251-.74426.68262-1.12286a3.12721,3.12721,0,0,0,.61206-2.23121c.12316-.1297.20788-.16265.2705-.14477A11.50887,11.50887,0,0,1,9.154,32.525a5.06646,5.06646,0,0,0,.33679-1.82159c.4718-.0253.8291-.4068,1.12231-.958a15.77346,15.77346,0,0,0,.90723-1.8909c.56055-1.341,1.06067-2.61722,1.68628-2.17727l1.77014-2.50647.07581.15945a6.87933,6.87933,0,0,0,1.64782-2.98975c.386-.26974.26709.07276.302.15342a15.70385,15.70385,0,0,0,2.09729-2.08734,13.17755,13.17755,0,0,0,1.48987-2.24344l.51624.20044a2.40547,2.40547,0,0,1,.71179-.66025c.18994-.13535.40112-.29288.6449-.44721.25281-.14233.52673-.29654.81518-.45889a20.69212,20.69212,0,0,0,1.78284-1.129c.60107-.4147,1.13928-.939,1.68018-1.39569a.42008.42008,0,0,1-.14136.3451,9.745,9.745,0,0,1,2.12829-1.35972,16.0115,16.0115,0,0,1,2.37525-1.00018c1.55591-.53467,2.78845-1.08972,2.95788-2.17337.578-.42313,1.19642-.76669,1.80164-1.15823-2.631.81234.10193-.871-1.073-.76059,1.00391-.48007,2.8451-.46161,1.618.08633l-.22717-.013c-.13782,1.04282,3.31384-.86856,3.45813-.13061C44.75963,4.47613,50.07262,4.58877,54.9752,4.77569l-.55-.76044,1.74756.13058c.44886.193.5719.60175-.6582.50956.62024.44671,2.09265-.24335,2.15149-.39963,1.20215.24734.93079.48465.47522.57495-.46155.13226-1.12463.26077-.75708.28216a6.6159,6.6159,0,0,1,1.00024.03449l-.21386-.11954a3.99154,3.99154,0,0,1,2.42309-.214c.9115.287.40491.51795.76587.60141-.01086.05069.10742.09339.55518.10529a14.35513,14.35513,0,0,1,2.10815.51773l-.71924-.78214c1.004-.03427,2.00037.547,1.16284-.34411a4.747,4.747,0,0,0,1.75476.95395c.40235.14786.84546.28885,1.3075.42523.44751.18262.91394.36063,1.37793.53174l2.58142.9237a4.63411,4.63411,0,0,1,1.42261.73627,8.74458,8.74458,0,0,1,2.0282.57977,10.4712,10.4712,0,0,1,2.05468,1.0676c-.29626-.321-.20227-1.02295,1.01563-.18964-.56506.44031-.07.91178.6217,1.44684.68689.54264,1.60938,1.11341,1.771,1.88883-.46484-1.14466,3.34936,2.30917,2.59961.61483.9032.80976-.24829.44059.28381,1.23078a15.38451,15.38451,0,0,1,3.49487,3.04358c1.091,1.24572,2.07081,2.68429,3.33069,3.90454.16761-.06479-.00122-.69571.67786-.27133l.4198,2.03189c.47876.49569,1.20117-.08826,1.46655,1.28335.01428-.22732.03455-.57226.36243-.22839a11.0691,11.0691,0,0,1,.61572,1.15628l.6062,1.16385c.41687.76846.858,1.52383,1.31568,2.2738q.58979,1.17806,1.1831,2.36286c.37927.79663.8645,1.55188,1.16516,2.3872a22.724,22.724,0,0,1,2.15088,10.32584c.19507-.98743.32154-.37588.443.3374.00976-.47784.43042-.05935.65185-.18823l-.21765,2.99554c.684.47519.20056,3.13367.84851,3.41666l-.16125-.93225c.80993,1.23505,1.568-1.85309,2.53076-1.76758a2.09314,2.09314,0,0,1-.2594-1.24075,14.30547,14.30547,0,0,1,.10742-1.54947,4.8218,4.8218,0,0,0-.6471-3.44272c.07361-.56036.39441.38428.54847.06207a3.93409,3.93409,0,0,1-.97022-2.58694l.13721.12549c-.26514-.93094-.46582-1.73471-.63135-2.48645-.21619-.736-.42566-1.411-.61194-2.11219a30.25922,30.25922,0,0,0-1.57458-4.92l-.28821.49326a5.36658,5.36658,0,0,1-.38684-1.5643c-1.10852-.64664,1.10767,2.3919-.0343,1.84674.14856-.7443-.49475-2.2782-1.27429-3.67212-.81177-1.37876-1.58387-2.71784-1.347-3.38086-.759-1.23956-.22156.65262-.99976-.56269l.01526-.475-.53149-.07413c-.51172-.79095-.501-1.39517-.32166-1.57468a5.686,5.686,0,0,0,.61792.67383c-.47693-1.19552-2.1654-2.757-2.38855-3.11612a12.3006,12.3006,0,0,1,.72888,1.21152c-.61718-.77841-1.38269-1.49963-2.10241-2.29224-.73987-.77377-1.43958-1.62216-2.22913-2.37478-.811-.731-1.62732-1.45105-2.44128-2.11859-.411-.32868-.80384-.66553-1.22669-.94486-.43383-.26611-.86487-.51443-1.29138-.73971l.09314.34915a7.95839,7.95839,0,0,1-2.14551-1.53394,9.15524,9.15524,0,0,0-.78357-.73092,14.1629,14.1629,0,0,0-1.53869-.92023l.127.01486a6.83615,6.83615,0,0,1-2.16724-.9538c.81775.18949-1.04577-1.228-.00232-.9342-3.0155-1.05279-1.57153-.39719-3.77758-.558l-.27234-.54227a7.00716,7.00716,0,0,1-.91541-.0033,13.55508,13.55508,0,0,1-1.45813-.35486c1.32874.14841-.7362-.87179.78467-.76171a9.13323,9.13323,0,0,0-3.66943-1.38865c-1.00037-.20651-1.80286-.21936-2.387-1.00677-1.74328.61121,2.63477,1.2659,1.74427,1.26733.57666.51462-1.42566.4079-2.38928.06757a4.34249,4.34249,0,0,1-1.4087-1.0459,5.88912,5.88912,0,0,0-1.03527-.71893A6.34034,6.34034,0,0,0,61.93333,1.401c.26392.04544.29541-.02832.55921.01666-.95862-.41207-2.00366.05149-3.16968-.555-.75012.48163-1.59277-.21145-1.86072.57266a17.509,17.509,0,0,1,2.44556.09519c-1.40735-.06159-2.75879.84134-4.97876.27789a4.52321,4.52321,0,0,1,1.33642-.42c-.65466-.26691-1.287.08993-1.96875-.184C54.51732.438,57.277,1.14409,58.82408.69509c-.6925-.44464-2.88464.40448-2.066-.42847A2.24186,2.24186,0,0,1,54.76756.611a3.76713,3.76713,0,0,0-2.5105.21237l.1128-.48043a5.34542,5.34542,0,0,1-1.411.35693l.9458-.663c-1.46192.60382-2.903-.32831-4.32141.062,2.99707-.20078.723.52615,2.005.79986a6.226,6.226,0,0,1-1.91748.19272A2.65961,2.65961,0,0,1,46.63341.81218C46.01488.541,45.31322.22878,43.27147.65886c.54907-.153,2.13476-.03942,1.30261.31034A11.449,11.449,0,0,1,42.19371.82927c-2.648.77765.51269.37238-.55676.94626-1.0304-.33288-1.24573.56211-2.33631,1.03424l-.13708-.46283c-1.54944.23188-1.67261.53833-1.75086.83558-.08325.28915-.12634.55474-1.48205.85119l.88684-1.0358-1.31079.66263.09851-.6203A9.39035,9.39035,0,0,1,32.248,4.4829c.46033.156.1637.8913-1.04919,1.492-.95984.14431.27356-.64115-1.44251.26275a1.45994,1.45994,0,0,1,1.48767-.979c.01172-.18024.26538-.4635.28321-.64429a10.82213,10.82213,0,0,0-2.97962,1.35794,3.0833,3.0833,0,0,1,.74475-.235l-1.11865.91848L27.13194,7.67739c-.46973.07306-.244-.23413-.01452-.53977-.4657.34327-.69141.73951-1.38611,1.21039-.0199-.44662-.28052-.7626.66089-1.54959L24.29344,8.584a3.71063,3.71063,0,0,0-.78967.11658c-.2909.07456-.52808.11334-.426-.05255a8.8104,8.8104,0,0,0-1.99988,1.81183,14.77929,14.77929,0,0,1-2.24743,2.051,1.751,1.751,0,0,1-.41089.6492c-.72205.59537-1.47315,1.08615-2.20581,1.66782a7.56475,7.56475,0,0,0-1.90918,2.34189l-1.37756.47153c-1.05164,1.39813,1.81115-.67991.07629,1.62921-1.06751,1.74783-.92957.22674-1.52039.67743a14.3657,14.3657,0,0,1-.729,1.9747,7.33331,7.33331,0,0,1-1.59106,2.12069A5.96736,5.96736,0,0,1,10.03367,22.59316ZM1.96434,42.2134c-.03259-.42481-.10754-1.29053.23743-1.52216C2.63145,41.2727,2.25963,41.55446,1.96434,42.2134ZM6.5648,73.39766a1.74644,1.74644,0,0,1-.40039-1.22818A3.61819,3.61819,0,0,1,6.5648,73.39766Zm59.363,25.045a.21367.21367,0,0,0-.03284.03229C65.03087,98.49666,65.33909,98.49621,65.92784,98.44268Zm1.73352-.301c.146-.1217.11365-.1813.02307-.22128-.07763.15607-.44726.29279-.87951.40674C66.958,98.40761,67.199,98.4164,67.66136,98.14165ZM61.583,5.26946l-.3175-.176C62.057,5.07338,61.81981,5.16417,61.583,5.26946Z"/><path class="cls-2" d="M4.56846,70.30974a.45206.45206,0,0,1,.19336-.25579C4.63707,69.92934,4.54747,69.957,4.56846,70.30974Z"/><path class="cls-2" d="M18.7783,12.55068l.05213-.03989a.20707.20707,0,0,0-.00781-.11032Z"/><path class="cls-2" d="M48.61473,113.11214a1.78342,1.78342,0,0,1-.30652-.88669c-.05444.025-.078.08686-.05041.20411a1.14859,1.14859,0,0,0,.08227.21966C48.40294,112.76836,48.49913,112.92989,48.61473,113.11214Z"/><path class="cls-2" d="M75.77708,93.74953l-.90857.64459a2.3514,2.3514,0,0,1,.94861-.34277C75.74107,93.96444,75.4785,93.9229,75.77708,93.74953Z"/><path class="cls-2" d="M85.59776,90.60256c.09546-.15189.28369-.22769.363-.39383l-.18128-.137C85.237,90.5523,84.94163,90.996,85.59776,90.60256Z"/><path class="cls-2" d="M77.47642,94.64394c.27234.29117.87049-.12082,1.4823-.65533a1.06213,1.06213,0,0,1-.11816.07885C78.7379,93.45934,78.13988,94.09618,77.47642,94.64394Z"/><path class="cls-2" d="M79.10618,93.87365a4.77747,4.77747,0,0,1,.61158-.42032C79.67149,93.21074,79.44273,93.57976,79.10618,93.87365Z"/><path class="cls-2" d="M69.66942,97.16436c.38769-.02277.037-.56079.29248-.474C70.1754,96.07036,67.84813,98.07793,69.66942,97.16436Z"/><polygon class="cls-2" points="78.73 95.48 78.217 95.19 78.02 95.76 78.73 95.48"/><path class="cls-2" d="M72.80247,98.07287l1.24915-.40345c-.05335-.06817.07739-.1802.24695-.29666C73.55748,97.6838,72.71556,97.949,72.80247,98.07287Z"/><path class="cls-2" d="M74.29857,97.37276a2.9663,2.9663,0,0,0,.91662-.50808C75.01951,96.97777,74.577,97.17763,74.29857,97.37276Z"/><polygon class="cls-2" points="77.23 96.477 76.84 96.573 76.01 96.988 77.23 96.477"/><path class="cls-2" d="M60.62718,104.43831l-.69238,1.26261c.05908.21759.36658-.045.61218-.5235C60.64244,104.82689,60.88841,104.351,60.62718,104.43831Z"/><path class="cls-2" d="M64.10338,102.23488a1.22489,1.22489,0,0,1-.37952-.07754.46552.46552,0,0,0-.28589-.06287l.37537.55072C63.81981,102.40151,63.99168,102.373,64.10338,102.23488Z"/><path class="cls-2" d="M61.96568,105.16918c.0614.21524-.76892,1.99441.22656.47494C62.13365,105.42757,62.82762,104.16338,61.96568,105.16918Z"/><polygon class="cls-2" points="48.665 110.175 48.878 110.471 49.688 109.852 48.665 110.175"/><path class="cls-2" d="M33.7047,101.54928c1.59863.83184.62158-.44349,2.03442.37164.47241-.09131-1.15393-.66177-.67822-.71741C33.95775,101.11248,33.50059,100.72573,33.7047,101.54928Z"/><path class="cls-2" d="M35.0609,101.20351a5.55347,5.55347,0,0,0,.56591.03186A2.52419,2.52419,0,0,0,35.0609,101.20351Z"/><polygon class="cls-2" points="100.524 49.686 100.365 50.732 100.673 50.047 100.524 49.686"/><path class="cls-2" d="M101.38145,51.66445l-.63611.25665.62024.62461C101.32432,52.30749,101.24425,51.84807,101.38145,51.66445Z"/><path class="cls-2" d="M.18931,45.16372l.14148.10922c.19434-.1554.24768-.42194.356-.956Z"/><polygon class="cls-2" points="5.084 30.23 4.955 30.468 5.705 30.263 5.084 30.23"/><path class="cls-2" d="M11.44823,18.60265c-.34717.42075-.62879,1.01407-.976,1.4361C11.10313,19.01992,12.10423,18.94744,11.44823,18.60265Z"/><path class="cls-2" d="M46.995,80.22878c.07324.05286.13537-.05823.1156-.03931C47.08568,80.14449,47.01475,80.22317,46.995,80.22878Z"/><polygon class="cls-2" points="47.809 80.644 47.966 80.643 47.848 80.622 47.809 80.644"/><path class="cls-2" d="M48.13585,80.81411l.007-.04578-.13465.07666c.14551.08661.37439.1225.44593.22333C48.487,80.882,48.20909,80.94741,48.13585,80.81411Z"/><path class="cls-2" d="M48.56676,81.56655a.45491.45491,0,0,1,.07324.04c.00586-.07434.11059-.01294-.08191-.06372Z"/><path class="cls-2" d="M48.56676,81.56655c-.08008-.03333.02465.07678,0,0Z"/><path class="cls-2" d="M48.81554,81.70669c.00549.04681.09643.09472.05017.10766.12219.01392.113-.034.07775-.12152Z"/><path class="cls-2" d="M49.08812,81.61l-.06214.00445C49.02879,81.63442,49.04088,81.64583,49.08812,81.61Z"/><path class="cls-2" d="M48.96727,81.61178c.02893-.04523-.01172-.00708-.0741.00744l.13281-.00476C49.02159,81.58144,49.0421,81.5273,48.96727,81.61178Z"/><path class="cls-2" d="M48.86278,81.44149c-.1958-.06677-.22657.06018-.02234.12616C48.79845,81.50857,48.73936,81.45089,48.86278,81.44149Z"/><path class="cls-2" d="M48.58067,80.92977l-.03625-.08423-.08655.01648C48.50072,80.8539,48.55589,80.98018,48.58067,80.92977Z"/><path class="cls-2" d="M49.57835,81.9955c.01587-.03515-.01135-.10705-.00683-.156l-.08948.02167C49.51512,81.898,49.58653,81.93923,49.57835,81.9955Z"/><path class="cls-2" d="M49.57152,81.8395l.13183-.03455C49.60228,81.77218,49.57567,81.79738,49.57152,81.8395Z"/><path class="cls-2" d="M48.94664,81.48684c.0896-.01252.177-.02576.264-.04535l-.035-.01056Z"/><polygon class="cls-2" points="49.953 82.171 50.097 82.06 50.037 82.096 49.953 82.171"/><path class="cls-2" d="M50.343,82.12313c-.05908.06683.05554.12976-.00317.16858a.44446.44446,0,0,0,.23181-.10968A.22353.22353,0,0,1,50.343,82.12313Z"/><path class="cls-2" d="M49.94212,81.87655l-.04541-.01062a.16263.16263,0,0,0,.07215.12463Z"/><path class="cls-2" d="M49.94115,81.87282l.001.00373.0979.02459Z"/><path class="cls-2" d="M49.56248,81.43368c-.06628.05645-.00549.12884-.12927.18548C49.51732,81.58211,49.66588,81.55959,49.56248,81.43368Z"/><path class="cls-2" d="M49.70982,81.76473l.14624-.04346-.1145-.05072C49.73729,81.69857,49.75,81.744,49.70982,81.76473Z"/><polygon class="cls-2" points="49.922 81.7 49.856 81.721 49.899 81.739 49.922 81.7"/><path class="cls-2" d="M50.47691,81.9908a.323.323,0,0,1,.18335-.04333.97894.97894,0,0,0-.20971-.04993C50.43748,81.93,50.4005,81.98659,50.47691,81.9908Z"/><polygon class="cls-2" points="51.317 81.955 51.305 81.936 51.304 81.955 51.317 81.955"/><path class="cls-2" d="M50.32262,81.90267a.527.527,0,0,1,.12793-.00513c.00585-.01458.00769-.02441-.00977-.021A.09536.09536,0,0,0,50.32262,81.90267Z"/><path class="cls-2" d="M50.87352,82.06637a.87257.87257,0,0,0-.09192-.06208C50.80711,82.04055,50.86241,82.0942,50.87352,82.06637Z"/><path class="cls-2" d="M50.244,81.95821a.26893.26893,0,0,0,.07862-.05554.41373.41373,0,0,0-.09266.02356A.13281.13281,0,0,1,50.244,81.95821Z"/><path class="cls-2" d="M51.07005,81.9327l-.05066.01147a.51471.51471,0,0,1,.1792.13221c.08533-.051.10071-.08838.10523-.12153l-.251-.00762Z"/><path class="cls-2" d="M50.792,81.93947c.04467-.10406.1632-.15.0946-.267-.14185.00324-.10291.085-.19189.12739.2351-.01221-.07129.05566.09594.12725a.47944.47944,0,0,1-.13037.02039.80342.80342,0,0,1,.12134.05682l-.00513-.007-.00122.00025.00037-.00165c-.00977-.014-.01282-.02246-.00147-.01392l.00513-.00189a.15869.15869,0,0,1,.0127-.04c.06811.02643.00976.02863-.0127.04l-.00366.01581.00085.0014.24292-.0531A.66919.66919,0,0,0,50.792,81.93947Z"/><path class="cls-2" d="M49.69517,81.38991l.01905-.01037c.07715.058.16418.21618.146.22613A.981.981,0,0,0,49.81,81.326c-.019.01074-.04236.04938-.09082.02594-.03613-.04224.01319-.04993.01953-.08478C49.70189,81.28744,49.61131,81.31521,49.69517,81.38991Z"/><path class="cls-2" d="M50.39671,81.49447l-.00171.05615c-.10278-.03259-.08886.03564-.10791.07745l.194-.03094Z"/><polygon class="cls-2" points="51.321 82.123 51.43 81.955 51.343 82.008 51.321 82.123"/><polygon class="cls-2" points="51.606 82.073 51.67 82.006 51.606 81.974 51.606 82.073"/><path class="cls-2" d="M56.70457,78.20962l-.11023-.01795a.16461.16461,0,0,1-.072.12677C56.64024,78.27871,56.81138,78.24312,56.70457,78.20962Z"/><path class="cls-2" d="M54.09434,81.03426a.42168.42168,0,0,0,.188-.048C54.17345,80.98531,54.06554,80.947,54.09434,81.03426Z"/><path class="cls-2" d="M54.45494,80.86312l-.046.00256a.35306.35306,0,0,1-.12659.12061C54.36229,80.98745,54.44285,80.96773,54.45494,80.86312Z"/><path class="cls-2" d="M52.592,81.83l-.05053.00354C52.53953,81.85286,52.54881,81.862,52.592,81.83Z"/><path class="cls-2" d="M52.66234,81.80764l.07312-.02967a.24.24,0,0,1-.09046.01691A.02921.02921,0,0,1,52.66234,81.80764Z"/><path class="cls-2" d="M56.9658,74.90639c-.11-.20367.02857-.36249-.199-.45721.05872-.04584.11011.01623.1427-.01795-.0188-.01379-.078-.05139-.04761-.0866.03064-.0351.06714.01324.106.03991-.08911-.22516-.297-.16937-.48755-.11163.04492-.13538.01-.18659-.14075-.20258.04224-.06048.07556-.15033.15613-.0357-.017-.07471-.13525-.47071-.27966-.39185.02283-.04187-.04773-.096-.07373-.1026a1.20745,1.20745,0,0,0-.19617-.29242l.00671.053c-.18994.06409-.11816-.07916-.22009-.16748l.01746-.01c-.10425-.31842-.1283-.05438-.23328-.37793l-.07092.09821c-.19263.17022-.089-.2937-.2992-.32678l.00794.09216c-.12268.01434-.00513-.443-.08228-.52979-.00671-.03149.04956-.01025.08557-.0061-.14819-.28-.11474.10883-.30285.03729.011-.09179.15259-.16034.04016-.24444-.03272-.10285-.47473.06134-.57605-.153.01355.07642.02344.15082-.07776.1626-.12952-.02734-.277-.36017-.4563-.19489a.07545.07545,0,0,1-.01074-.05535c-.11621.02215-.35278.00781-.43189.109-.03454-.43512-.64453.11915-.60656-.25274l-.3158.01025.00855-.039a.30384.30384,0,0,0-.33728.1637c-.04688-.02411-.01526-.0611-.01221-.08124-.29492-.06055-.3324-.03992-.54627.17956l-.04235-.11944c-.04981.07739-.4585-.12494-.70838.09491a.08682.08682,0,0,1,.01673-.062c-.26575.21386-.87586-.0752-.81421.39392l-.14612.18811c.25708-.08222.04651.19452.17676.21612-.079.06641-.29883-.0097-.19422-.08471l.028.01184c-.06116-.2359-.33326.07568-.40247-.06745a9.06871,9.06871,0,0,0-1.35779.80365l.16455.09876-.13781.1076c-.06128.00116-.144-.0636-.04346-.14239-.12195-.03351-.09656.21026-.07092.2395-.23035.11829-.07837-.22028-.13575-.17145l-.0664.08277.0321-.00122c-.0094.11157.04383.174-.068.27661-.09314.04455-.11707-.04114-.14844-.01783-.0094-.009-.02258-.00317-.04309.041l-.16162.16254.16907.02423c-.01184.11975-.1377.15729.05127.18109-.30286-.053-.56189.6145-.661.65936a.66415.66415,0,0,1-.12342.43848c.04517-.02576.20179.0224.12464.141-.28626-.1839-.23816.18207-.50061.215.1809-.04914-.096.41571.17395.32287-.06043.10791-.12207-.0293-.22461.03864.046.31439-.23389.61383-.22718.99389.04322.0094.11646-.0437.17347.03907-.08094.05566-.155.11523-.23279.177.01843.07629.24707.07641.09424.20508.03711-.01844.09314-.04462.10681.00341a1.8717,1.8717,0,0,0,.07153,1.085,3.66967,3.66967,0,0,1,.22669,1.1192c.02795-.13013.06738-.07312.10583-.007-.00537-.05377.09619-.05042.14392-.08753-.00366.11579.00476.22828.00977.34717.16882-.04205.19177.26837.34167.19886l-.07922-.05921c.1272-.00586.19018-.12964.2605-.25574.05359.07825.09033.16156.15014.238a4.1078,4.1078,0,0,0,3.04,1.5661,4.99846,4.99846,0,0,0,.81958-.00671.12932.12932,0,0,1-.20288.01379c-.10461.07764-.03125.40119.08386.57959.00135-.04462.00074-.08014.11719-.14892-.04724-.04725-.26953-.11487-.17383-.207.15015-.05523.12659.02765.2063.07532-.06286-.10394.11218-.17908.12073-.31671.13843-.01508.27148-.0575.40747-.08459l.01746.00848.08471-.00916-.07116-.00579c.15161-.03119.30615-.04834.45483-.09449-.00134.01642-.00952.03443.00647.047l.07336-.0437c.1084.0788-.10595.19256.012.20764-.08716.10449-.18616.26135-.3656.23749l-.06372-.14258a.103.103,0,0,0,.15905.00855c-.054.08251-.28637-.14454-.32068.06256l.13477.083c-.09973.09687-.22522.2876-.38635.257.09.14087.03161-.02154.16784.139-.12866-.19861.397-.06207.20154-.26154.152.17853.20679.0445.39624.17664-.01758-.04749-.07617-.07874.0575-.091a.21727.21727,0,0,1,.0155-.05078l.00964.00116-.00866-.00373c.00341-.00885.00341-.0105-.00318-.00128a.17194.17194,0,0,1-.08471-.05572c.03149-.12775.224-.18262.26745-.26368.07837-.00134-.01062.06488.04566.10266l.06579-.11767c.04651.10242.25537.09985.10913.22815l.1554-.056a.31529.31529,0,0,0,.30371-.08844c.0824-.011.11987-.19916.09949-.08942l.19372-.18042.01563.02344c.23279-.11041.33679-.41827.68286-.41614a.52163.52163,0,0,1,.22644-.21167l.08166.05878c.06238-.09125.31275-.13251.28016-.24139.26684.12176.42736-.32306.589-.43189l-.08875-.09113a1.01488,1.01488,0,0,0,.21167-.37109l-.09351-.06238c.01355-.16156.28077-.22967.39307-.42334.02759.036-.01318.07679-.05652.095.36731-.08319.13709-.565.405-.68322a.11315.11315,0,0,1,.06421-.1294.02444.02444,0,0,0-.0011.01587l.01184-.02148.09021-.04987a.3.3,0,0,0-.08484.03784.49861.49861,0,0,0,.03479-.18542l.12207.02081.00318-.01605c.06775-.04541-.03137-.07153-.12879-.0741a.31313.31313,0,0,0-.03222-.10925c.20031.021.00049-.18622.22094-.18353-.07959-.07679.03675-.34754-.162-.44019.02722.00562.045-.00928.03723.02515.04285-.06311.08594-.12805.04529-.20581l.15551.0072-.16406-.20276c.11255-.07233.17432-.1037.26831.01709-.13159-.26788-.02685-.20294-.173-.42731l.09643.02466c.006-.07226-.10766-.19958-.02319-.232.21448-.14118.089-.78131.19458-1.22339-.27527.12378.09729-.21845-.129-.19861C56.86766,74.916,56.89329,74.8478,56.9658,74.90639Zm-9.33154-1.29907.047-.005C47.65379,73.685,47.64561,73.6476,47.63426,73.60732Zm3.82349,7.75006a.05559.05559,0,0,1,.00354-.01471c.00671-.00055.01391.00043.02051-.00018Zm1.745.14527.00159-.00715C53.3054,81.50155,53.26878,81.49776,53.20274,81.50265Zm.53833-.579c-.1394.1394-.1394-.07764-.15307-.03534-.32129.13385-.09876.47442-.44153.46368-.16187-.07452-.11035-.24359-.173-.32172.11365-.10723.24427-.01507.33313-.06823L53.167,80.9609c.02392-.06055.095-.136.16088-.12549a.21128.21128,0,0,0-.121.00873,5.685,5.685,0,0,0,.6322-.37781A.59.59,0,0,1,53.74107,80.92367Zm.80518-.83594a.24872.24872,0,0,0-.10547-.0744l-.00269.00146c.04248-.03638.08106-.075.1222-.11206A.36374.36374,0,0,1,54.54625,80.08773Zm.43994-.49213a.16074.16074,0,0,1-.05127-.03674c.03833-.04065.07434-.08264.11133-.124l.14917.12805-.13355-.14832c.038-.043.06714-.09082.10364-.13464a1.20433,1.20433,0,0,1,.2522.25036A1.362,1.362,0,0,1,54.98619,79.5956Zm.9021-.83-.0105.19379c-.051-.092-.12854-.23468-.207-.38092.0459-.07678.08057-.15961.12244-.23852a.74669.74669,0,0,1,.1875.43188Zm.30615-4.38c-.01208-.03082-.01758-.06421-.03052-.09473l.0625.004-.07116-.031c-.00452-.01038-.00574-.022-.01038-.03241a.84988.84988,0,0,0,.06873-.12128l.16137.15607c-.01452.0332-.074.03357-.14856.02862l.05005.01978A.10278.10278,0,0,1,56.19444,74.38558Zm.13355,2.53778c.00464-.02081.01391-.03918.01831-.06012.00366-.0177.00256-.03339.0061-.051.06482.05462.13355.10113.19714.15838A1.04663,1.04663,0,0,0,56.328,76.92336Z"/><path class="cls-2" d="M52.10228,81.931c.00806.02716.03931.06287.00146.07184l.115-.05536A.13332.13332,0,0,1,52.10228,81.931Z"/><path class="cls-2" d="M51.03721,81.35714c-.01574.01452-.0332.0011-.049.01587l.00379.05609C51.06,81.42647,51.10631,81.382,51.03721,81.35714Z"/><path class="cls-2" d="M51.77037,81.6036c-.00415.14306.07654.08783.15247.02484-.02625-.09839-.0896-.05072-.16651-.023Z"/><path class="cls-2" d="M51.66563,81.62337c-.00256.05768.03138.00788.07288-.01214A.19111.19111,0,0,1,51.66563,81.62337Z"/><path class="cls-2" d="M52.7943,81.76961c.00024.13648.20336-.23462.01708-.09918C52.76512,81.65859,52.82933,81.80129,52.7943,81.76961Z"/><polygon class="cls-2" points="51.806 81.31 51.853 81.429 51.879 81.321 51.806 81.31"/><path class="cls-2" d="M52.28453,81.26766a.04424.04424,0,0,1-.021.0495c.0741-.015.16077-.01526.14771-.04974Z"/><path class="cls-2" d="M53.7213,80.66268c-.01136-.04358-.05554-.04681-.08826-.00623-.01074.04291-.04541.08155-.00659.10706Z"/><polygon class="cls-2" points="46.921 80.032 46.947 79.923 46.898 79.908 46.921 80.032"/><path class="cls-2" d="M47.1765,79.97109l-.11377.1189.15625-.0362C47.19847,80.03847,47.15843,80.0082,47.1765,79.97109Z"/><path class="cls-2" d="M10.87486,48.32064c.29358.3211.23145.05694.21729.08514C10.9387,48.20388,10.91417,48.33889,10.87486,48.32064Z"/><path class="cls-2" d="M14.89012,49.46578a4.03705,4.03705,0,0,0,.54346-.26294,3.84647,3.84647,0,0,1-.4823.206Z"/><path class="cls-2" d="M16.49327,48.6357l-.11292.03644c-.05029.099-.1073.19543-.16857.29248a3.054,3.054,0,0,0,.93371-.99292,5.83339,5.83339,0,0,0,.452-1.05353,4.86543,4.86543,0,0,0-.38721.8136A2.23618,2.23618,0,0,1,16.49327,48.6357Z"/><path class="cls-2" d="M18.20689,45.51442l.02576-.08026c.00708-.07873.01685-.186.03381-.37127C18.18553,45.17843,18.24254,44.63888,18.20689,45.51442Z"/><path class="cls-2" d="M18.23265,45.43416c-.03345.38483.08264-.246,0,0Z"/><path class="cls-2" d="M18.2722,43.78823a2.825,2.825,0,0,0,.03784.37762c.03528-.07983.07459-.39587.09339-.27484C18.42174,43.50936,18.37608,43.56966,18.2722,43.78823Z"/><path class="cls-2" d="M18.21483,43.38717l-.01917.21569C18.22142,43.56881,18.23387,43.51681,18.21483,43.38717Z"/><path class="cls-2" d="M18.18565,43.80672c-.04675-.04309-.01257.0539.016.23285a3.21589,3.21589,0,0,1-.006-.43671C18.15892,43.65468,18.09715,43.656,18.18565,43.80672Z"/><path class="cls-2" d="M18.04613,44.45156c-.016.95062.12463.8241.12634-.13953C18.1317,44.594,18.094,44.95235,18.04613,44.45156Z"/><path class="cls-2" d="M17.316,47.03676q-.02033.1615-.05542.324c.04737-.15576.27124-.67554.20276-.6684C17.42027,46.80977,17.36925,46.92446,17.316,47.03676Z"/><path class="cls-2" d="M19.11412,41.44863l-.12183.31225c.10193-.14147.28321-.40417.3418-.39025C19.31554,41.32754,19.17332,41.44405,19.11412,41.44863Z"/><path class="cls-2" d="M19.11412,41.44863q.09284-.22577.19922-.45C19.07,41.36434,19.067,41.45327,19.11412,41.44863Z"/><path class="cls-2" d="M18.04027,43.26546c-.00647.08405.00744.15979.00573.24237.00611-.12933.0149-.25982.03321-.39215Z"/><polygon class="cls-2" points="20.332 40.167 20.567 39.712 20.451 39.902 20.332 40.167"/><path class="cls-2" d="M21.49339,39.09334a7.67074,7.67074,0,0,0,.60376-.67816,4.69162,4.69162,0,0,1-.76428.5965C21.22667,39.20467,21.62706,38.91317,21.49339,39.09334Z"/><path class="cls-2" d="M20.15318,40.09878l-.20727.07971-.12378.151A.79347.79347,0,0,0,20.15318,40.09878Z"/><path class="cls-2" d="M19.93883,40.18154l.00708-.00305c.14111-.15869.239-.26886.28088-.3161Z"/><path class="cls-2" d="M18.5316,41.70681c-.03015.225.16663-.0586.05188.38043C18.65233,41.7972,18.89793,41.21267,18.5316,41.70681Z"/><path class="cls-2" d="M19.27244,40.98659c.08313-.1701.17017-.34.26465-.50726q-.169.20573-.32556.42059C19.24107,40.90658,19.32823,40.85091,19.27244,40.98659Z"/><polygon class="cls-2" points="19.664 40.328 19.669 40.251 19.537 40.479 19.664 40.328"/><path class="cls-2" d="M21.61839,38.57046a3.58691,3.58691,0,0,1,.57019-.52912,7.206,7.206,0,0,0-.74585.56067C21.43223,38.65578,21.37071,38.7867,21.61839,38.57046Z"/><polygon class="cls-2" points="24.567 36.524 24.519 36.527 24.518 36.548 24.567 36.524"/><path class="cls-2" d="M21.39049,38.62075a1.244,1.244,0,0,0-.34925.36242c.12-.12451.25171-.25262.40149-.38116C21.44749,38.578,21.44371,38.568,21.39049,38.62075Z"/><path class="cls-2" d="M22.64989,37.75942a1.1001,1.1001,0,0,0,.36047-.18353C22.899,37.62594,22.77733,37.69063,22.64989,37.75942Z"/><path class="cls-2" d="M20.86412,39.23983l-.02112.02734C20.91258,39.23122,20.89805,39.2297,20.86412,39.23983Z"/><path class="cls-2" d="M20.86412,39.23983a2.9508,2.9508,0,0,0,.17712-.25666,3.52251,3.52251,0,0,0-.25293.28943A.40491.40491,0,0,1,20.86412,39.23983Z"/><path class="cls-2" d="M23.63365,37.01131l-.17981.12519a3.20863,3.20863,0,0,1,.71472-.26789c.29-.21667.34339-.2774.34937-.32025-.31885.158-.63367.328-.94019.51483Z"/><path class="cls-2" d="M22.7921,37.2477c-.53015.38532-.3241.33569-.60657.60834.82837-.6452-.20923.22143.43848-.1734-.16455.1355-.30274.24939-.43543.3587.15821-.10229.31006-.202.46131-.28192l-.02332.00836-.00378.00311-.00013-.002c-.04443.015-.06128.017-.0155-.00592l.01636-.01434a.11894.11894,0,0,1,.01453-.06024c.25854-.15662.0548-.00458-.01453.06024.00024.00622-.00342.015-.00086.02026l.00391-.00116q.40412-.329.82727-.63128a6.4867,6.4867,0,0,0-.81616.55145C22.71153,37.4974,23.12877,37.16121,22.7921,37.2477Z"/><path class="cls-2" d="M18.60033,41.09792c.02514-.02392.031-.01874.03906-.017C18.66319,41.01467,18.66881,40.98726,18.60033,41.09792Z"/><path class="cls-2" d="M19.39256,40.4822a1.27787,1.27787,0,0,0-.50708.2746,1.14452,1.14452,0,0,1-.16565.35907c-.13855.17108-.04431-.02655-.08044-.03492-.05359.14624-.19275.501.08423.11237l.02514-.0716A2.21263,2.21263,0,0,1,19.39256,40.4822Z"/><path class="cls-2" d="M20.84556,38.60128l.05469.02618c-.38513.32471-.25574.30292-.271.37653.199-.215.40319-.427.61645-.63086Z"/><path class="cls-2" d="M24.62938,36.68014c.11914-.12555.246-.2367.3717-.35755l-.32275.2038Z"/><polygon class="cls-2" points="25.68 36.183 25.93 36.026 25.683 36.076 25.68 36.183"/><path class="cls-2" d="M34.211,55.72805c-.12268.39923-.24011.86236-.13293.8103l.10547-.12671A2.31726,2.31726,0,0,1,34.211,55.72805Z"/><path class="cls-2" d="M42.556,52.3929c.01062-.1607.00159-.23175-.02307-.23108C42.52037,52.32717,42.52342,52.4222,42.556,52.3929Z"/><path class="cls-2" d="M35.63719,41.33877l-.03393-.16321c-.09913-.21265-.19434-.41663-.3108-.66645A2.838,2.838,0,0,0,35.63719,41.33877Z"/><path class="cls-2" d="M10.076,44.8594a3.958,3.958,0,0,1,.00928-.47956A2.20177,2.20177,0,0,0,10.076,44.8594Z"/><path class="cls-2" d="M29.92845,35.70351c-.21863-.04077-.03662.00318,0,0Z"/><path class="cls-2" d="M29.60618,35.59493l.27674.08051A2.268,2.268,0,0,0,29.60618,35.59493Z"/><path class="cls-2" d="M29.64281,35.653l-.19117-.04078C29.42125,35.62789,29.44505,35.63747,29.64281,35.653Z"/><path class="cls-2" d="M30.23167,35.76827c-.12365-.03009-.23889-.05853-.34875-.09283.04126.017.05774.0271.04553.02807Z"/><path class="cls-2" d="M46.83433,65.41036a1.27568,1.27568,0,0,0,.02942-.67041,2.31892,2.31892,0,0,0-.259-.90112,3.77789,3.77789,0,0,0-.49243-.70777l.10913.1836c-.33728-.12061-.42517-.47589-.81287-.9552l.02637.00225c-.72278-1.22-.42554-.44793-1.09106-1.67889l-.0564.13013c-.29065.0379-.5686-1.10456-1.04712-1.74445l.08826.28449c-.30847-.3357-.30066-1.23584-.43384-1.62458-.01672-.09234.09045.1164.16394.22425-.30225-1.05139-.21826-.05646-.542-.799.03759-.165.25476.11139.12488-.39624.00073-.13452-.15723-.487-.26307-.932a2.98363,2.98363,0,0,1-.06384-1.34631c-.07092.16339-.14184.33239-.17773-.05841a21.38422,21.38422,0,0,0,.3247-2.15827c.03223-.074.05469-.10016.07129-.10065A14.0878,14.0878,0,0,0,42.6754,50.343c.51648-.33826.24853-2.96619.634-2.89313l.19446-1.46295.03332.04144a3.94188,3.94188,0,0,0-.09228-1.61035c.03137-.21558.063-.05579.08264-.0368a8.48341,8.48341,0,0,0-.06384-2.65809l.1217-.12329a11.0625,11.0625,0,0,0-.41394-3.36828c.017.00958.04737.03119.09168.13324-.25342-.73529-.46265-1.639-.74231-2.40357-.27466-.76343-.606-1.37707-.94214-1.50873q-.30175-.41318-.62622-.80389c.66931,1.1178-.26612-.05859-.043.4325-.28687-.41181-.62915-1.15693-.24756-.66156l.037.09356c.34753.04035-.8927-1.34875-.76831-1.40729a13.105,13.105,0,0,0-6.16382-4.28173c.07349.084.14587.16711.21472.2575-.26709-.09179-.53992-.16546-.81055-.24646-.20764-.08355-.2561-.22052.33094-.048a1.76486,1.76486,0,0,0-1.03614-.11932c-1.15722-.27442.49756-.12952.14051-.19233-.1637-.03216-.32972-.04962-.49427-.07489l.1073.03992a4.95461,4.95461,0,0,1-1.176-.01526c-.45484-.07031-.22644-.12915-.40711-.149.00208-.01281-.05908-.02313-.27832-.02392-.35766-.017-.71789-.03522-1.0769-.02808.14477.0401.28821.08917.43018.141-.473.06372-1.00062.02253-.50647.16236a6.205,6.205,0,0,0-2.30347.0979c-.94678.16363-1.81836.46936-2.04138.4956-.5929.30823-1.1991.52552-1.93372.84662.19385-.05517.36548.04505-.26538.3103.078-.42236-1.1936.42371-1.79236.50348.49866-.13324-1.65722,1.06391-.87.842-.49414.29224-.09681-.08642-.5055.08777a43.90575,43.90575,0,0,0-3.73376,2.88739c.01123.05011.262-.09656.04407.20227-.26551.15247-.53467.30481-.79517.471-.2218.25714-.03687.3927-.56323.74231.0863-.03918.2146-.09625.07287.07855A14.15469,14.15469,0,0,0,11.616,39.25a24.37523,24.37523,0,0,0-1.61316,4.91766c.1388-.464.09888-.15008.08252.21222.03638-.2334.108.013.17065-.02942a6.861,6.861,0,0,0-.12915,1.47156,5.07351,5.07351,0,0,1,.28064.89179c.12024.37194.29151.71472.39832.74542-.079-.1366-.15662-.27619-.22485-.41937.21386.25311.20532.00585.22363-.28382.00122-.02862.00439-.05749.0061-.08655a3.96733,3.96733,0,0,0,.634,1.20606,3.0109,3.0109,0,0,0,2.38037,1.26636,3.64554,3.64554,0,0,0,2.42041-.74018,2.9872,2.9872,0,0,0,1.04809-1.81122,11.22651,11.22651,0,0,0,.2395-2.43347,6.36036,6.36036,0,0,1,1.0066-3.02826A12.08921,12.08921,0,0,1,21.682,37.68111c.4458-.34839.88745-.65283,1.32727-.93609l.04614.03381c.23084-.14783.37415-.27167.25061-.22388.21778-.13348.43445-.25506.65064-.37243-.3313.2929.10571.3811.56213.34454-.00415-.04407-.02807-.08771.42993-.36517-.193.01818-1.1206.42132-.75866.133a1.69274,1.69274,0,0,1,.87988-.32684c-.283-.00574.49438-.37793.58887-.5495a9.66624,9.66624,0,0,1,1.08447-.31543l.14917.08893.18457-.14124-.27637.03833a8.26813,8.26813,0,0,1,1.93909-.20416,7.10253,7.10253,0,0,1,1.29089.154c-.01147.00958-.00854.02252.03125.0434.13355.02685.27051.04242.40247.07879.32947.19379-.77393-.03839-.29114.13288-.54162-.047-1.12988-.004-1.8706-.04273l-.14771-.14459a1.96766,1.96766,0,0,0,.70593.03784c-.30371.04181-1.17651-.18286-1.49585.08338.1792.00164.35877.027.53455.03943-.52734.12255-1.12427.40356-1.75537.55456.3241.05432.14184-.06244.62659-.0116-.21814-.057.18115-.1618.55761-.22106.37415-.064.72559-.08808.39563-.17219.48377.15754.82459.0149,1.40991.23371-.01391-.05194-.20214-.11774.31775-.03858a.48384.48384,0,0,1,.12-.02691l.03454.00958-.02783-.01068c.02368-.00372.026-.00494-.01037-.00385a1.11964,1.11964,0,0,1-.25867-.10937,4.25636,4.25636,0,0,1,1.418.1344c.296.13214-.14563.00915.00207.11969.14551.01929.29261.04028.43714.07373.00586.113.67663.53058-.01343.26874a5.72729,5.72729,0,0,1,.584.30584c.30689.24726.7212.5763,1.00147.76319.22363.21808.67053.45978.41211.32611a9.40336,9.40336,0,0,1,.77051.74615l-.01538.02545a13.14826,13.14826,0,0,1,1.16772,1.62519.175.175,0,0,0-.07959-.07379c.12756.309.21887.53021.29858.72338a3.56572,3.56572,0,0,0-.19763-.61071,4.36594,4.36594,0,0,1,.50843,1.27716,4.26166,4.26166,0,0,1,.40515,1.24811l-.07141.13244c.139.43732.0802,1.34833.17431,1.53839a18.44481,18.44481,0,0,0-.2843,3.10089l.12378.04706c-.03845.5708-.12524,1.08692-.234,1.80341l.11914-.01721a25.41178,25.41178,0,0,1-.7301,2.50518.60351.60351,0,0,1,.03955-.25647c-.4292,1.0766-.46167,2.32038-.76721,3.33417a2.28521,2.28521,0,0,1-.08.68134.4387.4387,0,0,0,.00208-.07019.83783.83783,0,0,0-.0116.11554l-.07764.38983a2.93332,2.93332,0,0,0,.07508-.32752,7.24842,7.24842,0,0,0,.01464.8722l-.11718.13891.00512.07526c-.03674.32153.06311.25378.14966.0827a3.03152,3.03152,0,0,0,.08448.42114c-.16639.27.1278.82929-.00892,1.19892a8.11531,8.11531,0,0,0,.59986,1.61432c.01977.01916.03955.04541.05932.05224-.0238.01782-.01074.11078-.05932-.05224a3.01986,3.01986,0,0,0,.31592.96691l-.095.19233c.14454.22235.30738.43347.468.64251.08948.46387.11536.66932-.17016.28388a13.38058,13.38058,0,0,0,1.02588,1.56708l-.10889.00579c.15527.30323.54529.70032.57825.91639a9.6412,9.6412,0,0,0,1.22363,2.05932,12.98185,12.98185,0,0,0,2.20471,2.57825c-.08533-.24048.0863-.06329.346.12518.25354.19593.65149.36078.72326.25122.11219.098.46094.17957.05042.1825a3.68978,3.68978,0,0,0,1.45325-.12049A2.10038,2.10038,0,0,0,43.969,68.927c.14184-.00207-.14832.20246-.03357.18335a1.44976,1.44976,0,0,1,.37829-.25244c.11341-.02557-.09765.13519-.23315.24835.93384-.60455.82959-.87457.77429-1.06616a1.63685,1.63685,0,0,0,.82056-.81512c.16577-.09357.43579-.27369.00183.2199a5.07288,5.07288,0,0,0,.83459-.98852C46.81615,65.99349,46.91551,65.44057,46.83433,65.41036ZM24.11851,36.09444c.23914-.12555.4773-.23962.71448-.34552A3.724,3.724,0,0,1,24.11851,36.09444Zm.95288-.4494.00147-.00311.03821-.017C25.09813,35.6321,25.08433,35.63772,25.07139,35.645Zm5.46631-8.331.16541.04278C30.32323,27.36605,30.43077,27.34188,30.5377,27.31405Zm1.67237,9.27368.01819.00494C32.50072,36.851,32.40648,36.75594,32.21007,36.58773Zm2.45,2.13959c-.556-.67749-.11743-.38782-.22986-.49372a3.27433,3.27433,0,0,0-1.09558-1.012,4.54,4.54,0,0,1-1.00342-.74628c-.36682-.4024.12854-.23553.08533-.38A5.17915,5.17915,0,0,1,33.5974,37.1755c-.12244-.1615-.26258-.30616-.39576-.46033a2.7716,2.7716,0,0,1,.7295.65778,1.4548,1.4548,0,0,0-.13294-.18488,10.29322,10.29322,0,0,1,.71973.82092,11.63424,11.63424,0,0,1,1.2395,1.96631A16.51485,16.51485,0,0,1,34.66,38.72732Zm.42944,15.0429c-.0271.1211-.03235.24543-.05542.36707a3.74186,3.74186,0,0,1-.04126-1.40155l.131-.17652.11255-.8034a9.48178,9.48178,0,0,1,.09387.98645C35.21324,53.192,35.13145,53.538,35.08946,53.77022Zm.66687,7.90216c.0741.027.14075-.03277.21057-.1004.07788.18829.15149.37592.23743.56537C36.05406,61.98385,35.90159,61.83346,35.75633,61.67238Zm.84119-14.05462c-.00318.0238-.0094.05383-.01294.07818l-.18921-.00927.16943.13006c-.03857.25214-.09155.5329-.15625.838a.35521.35521,0,0,1-.29577-.209l.2351-.69c.1045-.33911.17847-.717.24109-.85456.03345-.07568.06494-.08844.09583-.07922C36.659,47.10439,36.63084,47.37411,36.59752,47.61776Zm.08215-3.94037c.03626.02411.07263-.05176.0968-.11652.01709.22278.02173.44928.02368.67658C36.754,44.05031,36.71153,43.851,36.67967,43.67739Zm8.28162,24.154c-.11292.05573-.06458-.04669.01306-.207l-.1145.14825c-.1305.07483-.18055.07581-.198.04718.13171-.10687.25574-.21307.37366-.31872l-.06116.12329c.04687-.06171.10095-.13275.15344-.202.04981-.04577.09754-.09131.14465-.13684a2.99694,2.99694,0,0,0,.36377-.21271A8.31287,8.31287,0,0,1,44.96129,67.83138Z"/><path class="cls-2" d="M27.65782,35.60854c.01465.02673.11206.05682-.03943.07581.16052-.02692.32141-.06238.48364-.07825A2.55706,2.55706,0,0,1,27.65782,35.60854Z"/><path class="cls-2" d="M27.095,35.362c-.05786-.08722-.37512.00214-.71972.12213l.06225-.01672C26.37266,35.63143,26.72752,35.4825,27.095,35.362Z"/><path class="cls-2" d="M25.97386,35.61214c-.02258.06818.13245-.03283.3208-.10278Z"/><path class="cls-2" d="M30.44908,35.84347c-.20959.04852,1.06165.21545.21-.02509C30.51463,35.73769,30.52281,35.91024,30.44908,35.84347Z"/><path class="cls-2" d="M29.666,35.05825c-.193-.04291-.38941-.07233-.5863-.099.00756.02142-.06861.03009-.16126.035C29.2838,35.0093,29.67454,35.096,29.666,35.05825Z"/><path class="cls-2" d="M28.44224,35.00826l.4762-.014A1.946,1.946,0,0,0,28.44224,35.00826Z"/><path class="cls-2" d="M35.016,38.745c-.11169-.11359-.26525-.3003-.24145-.19489q.20251.25405.39026.52033C35.23643,39.10421,35.16563,38.93807,35.016,38.745Z"/><path class="cls-2" d="M10.225,46.85653a4.65312,4.65312,0,0,0,.16406.553,2.93594,2.93594,0,0,1-.06482-.37439Z"/><path class="cls-2" d="M10.84813,47.75466c-.02454.06628-.04749.13348-.06543.19958l.31616.19147A1.28357,1.28357,0,0,1,10.84813,47.75466Z"/></g></g></svg>