<svg xmlns="http://www.w3.org/2000/svg" viewBox="0 0 104.16942 117.48159"><defs><style>.cls-1{fill:#1d1d1b;}.cls-2{fill:#c66e6e;}</style></defs><title>Question_01</title><g id="Layer_2" data-name="Layer 2"><g id="Layer_1-2" data-name="Layer 1"><path class="cls-1" d="M103.12094,52.5457a50,50,0,1,0-60.06738,48.98584l4.34289,6.32794,5.72449,8.34107,5.72443-8.34107,4.34289-6.32788A50.01724,50.01724,0,0,0,103.12094,52.5457Z"/><path class="cls-2" d="M100.66942,52.91179c.058-.4627-.36859-.29681-.44055-.36608C100.28587,53.313,100.77922,52.89458,100.66942,52.91179Z"/><path class="cls-2" d="M100.94078,60.67324l-.15051-.16461a9.14241,9.14241,0,0,1,.21362,1.2041A7.5598,7.5598,0,0,0,100.94078,60.67324Z"/><path class="cls-2" d="M99.16154,67.72552c.86957-.44935.75446-2.53657,1.21424-3.74894l.20508-.17187-.43171-.7c-.1427.77014-.17413,1.69323-.34948,2.524A9.00968,9.00968,0,0,1,99.16154,67.72552Z"/><path class="cls-2" d="M96.3759,70.75759c.34534-.10629-.09229.84479.41748-.77686a1.36912,1.36912,0,0,1-.12647.12046C96.61253,70.24318,96.53111,70.43639,96.3759,70.75759Z"/><path class="cls-2" d="M96.66691,70.10119c.26673-.69214-.403.36053,0,0Z"/><path class="cls-2" d="M95.42107,73.30431l.22674-.97629c-.23767.11472-.67572.86255-.63269.5264C94.67686,73.79574,94.91466,73.69311,95.42107,73.30431Z"/><path class="cls-2" d="M95.454,74.36889l.14368-.50345C95.49455,73.91457,95.41118,74.02285,95.454,74.36889Z"/><path class="cls-2" d="M95.90074,72.80544l-.303,1.06c.16895-.07486.38422.01257.159-.47827C95.90526,73.55944,95.823,73.27776,95.90074,72.80544Z"/><path class="cls-2" d="M96.25731,72.29491c.35241-.44613.71979-1.07672.56219-.0516C97.46214,70.43874,96.8867,70.51375,96.25731,72.29491Z"/><path class="cls-2" d="M99.74852,68.3164l.43182-.66922-.02649-.70676C100.16594,67.29384,99.52171,68.29134,99.74852,68.3164Z"/><path class="cls-2" d="M92.06731,78.3966c.09362.13617.51269-.05429.71521-.011l.242-.70905C92.73674,77.93667,92.28038,78.4804,92.06731,78.3966Z"/><path class="cls-2" d="M92.78252,78.38561l-.36664,1.06989C92.96391,78.64358,92.956,78.42476,92.78252,78.38561Z"/><polygon class="cls-2" points="96.075 74.892 96.426 73.033 95.919 75.209 96.075 74.892"/><polygon class="cls-2" points="89.632 81.707 89.723 81.004 89.484 82.201 89.632 81.707"/><path class="cls-2" d="M87.90153,83.81457c.08344-.52848-.77679.12771-.59295-.34531a7.25953,7.25953,0,0,0-.91309,1.789A4.47823,4.47823,0,0,1,87.90153,83.81457Z"/><path class="cls-2" d="M85.928,86.14586a6.92306,6.92306,0,0,0,.46747-.88763A3.66739,3.66739,0,0,0,85.928,86.14586Z"/><path class="cls-2" d="M91.2426,80.90978a1.2278,1.2278,0,0,0-.8631.42157l.59766-.08179Z"/><path class="cls-2" d="M90.99718,81.24575l-.02.00381-.58.727Z"/><path class="cls-2" d="M91.30968,80.82439l-.06708.08539C91.30125,80.90185,91.3278,80.89022,91.30968,80.82439Z"/><path class="cls-2" d="M94.32756,77.24822c-.14105.66812-.66138,1.97046.35882,1.03931C94.68974,77.73559,94.1096,78.26357,94.32756,77.24822Z"/><path class="cls-2" d="M92.06547,80.71175c.25769-.297.53968-.57828.77924-.88983-.10559-.044-.35327.04065-.28021-.29758C92.43071,79.93947,92.231,80.31225,92.06547,80.71175Z"/><polygon class="cls-2" points="91.827 81.251 92.065 80.712 91.773 81.038 91.827 81.251"/><path class="cls-2" d="M87.602,85.02086a3.85887,3.85887,0,0,1-.99969,1.35752,8.02282,8.02282,0,0,0,1.48535-1.36026C88.05144,84.85747,88.065,84.48165,87.602,85.02086Z"/><path class="cls-2" d="M89.33928,83.26473l-.05615.09872C89.35655,83.33587,89.40239,83.30248,89.33928,83.26473Z"/><polygon class="cls-2" points="81.984 90.387 82.109 90.387 82.082 90.314 81.984 90.387"/><path class="cls-2" d="M88.22093,84.9887a1.68281,1.68281,0,0,0,.613-.913,11.40668,11.40668,0,0,1-.74634.94245C88.10417,85.09032,88.12822,85.12337,88.22093,84.9887Z"/><path class="cls-2" d="M84.83574,87.4489a8.17786,8.17786,0,0,0,.78662-.41876C85.344,87.10631,84.82713,87.304,84.83574,87.4489Z"/><path class="cls-2" d="M89.08073,83.41167l.03553-.06784C88.9373,83.40542,88.985,83.41955,89.08073,83.41167Z"/><path class="cls-2" d="M89.08073,83.41167a3.39379,3.39379,0,0,0-.24676.664,6.02131,6.02131,0,0,0,.44916-.71222A.74532.74532,0,0,1,89.08073,83.41167Z"/><path class="cls-2" d="M82.07432,93.7307c-.077-.191.12738-.542.48572-.906a3.52709,3.52709,0,0,1,1.44983-.97547c.7359-.96441-.6991-1.48825-1.90137-1.462.07666.159.179.28421-.59588,1.19708.44317-.07373,2.344-1.219,1.78723-.31708-1.11633,1.13031-1.074.71949-1.83179.96424.83283.0379-1.25311,1.69748-.57007,2.11453l1.02539-.99048C82.01115,93.43255,81.689,93.86391,82.07432,93.7307Z"/><path class="cls-2" d="M83.85405,89.05141l.34021-.332a5.60554,5.60554,0,0,1-1.6211.6004c-.49023.63684-.5299.85669-.49163.99463l1.86157-1.409Z"/><path class="cls-2" d="M85.75139,87.26742c.028.56579-.69324,1.49786.136,1.35656,1.01557-.99792.4795-.94635.96222-1.65735-1.57775,1.63178.30524-.61682-1.05181.32477a10.0477,10.0477,0,0,1,.80444-.913c-.33112.2395-.65943.45926-.97992.65176l.05566-.01562.00666-.00821.00311.00641c.107-.027.15277-.02518.05212.02679a.165.165,0,0,1-.02795.03839.40934.40934,0,0,1,.03778.18778c-.53381.38086-.15057-.01194-.03778-.18778a.28946.28946,0,0,0-.02417-.06518l-.00977.0018c-.49359.56384-.9707,1.15228-1.48376,1.70486A10.81384,10.81384,0,0,0,85.75139,87.26742Z"/><path class="cls-2" d="M94.80321,79.83608a.10521.10521,0,0,1-.12378.00855C94.64238,80.00188,94.64152,80.07079,94.80321,79.83608Z"/><path class="cls-2" d="M94.07133,80.50667a1.36338,1.36338,0,0,1,.30512-.83416c.36383-.33319.17157.115.303.17212.08441-.347.36212-1.15079-.36878-.38682l-.03888.17109c-.597.73419-1.76538,1.36264-1.718,1.195A2.932,2.932,0,0,0,94.07133,80.50667Z"/><path class="cls-2" d="M90.09849,84.27065l-1.12481,1.56854.93268-.48037-.2005-.11219C90.5056,84.488,90.13866,84.48382,90.09849,84.27065Z"/><polygon class="cls-2" points="81.688 90.349 81.604 89.834 81.15 91.018 81.688 90.349"/><polygon class="cls-2" points="79.747 91.794 79.598 91.417 79.202 91.968 79.747 91.794"/><path class="cls-2" d="M5.03575,31.79729l.159-.59085A3.63018,3.63018,0,0,0,5.03575,31.79729Z"/><path class="cls-2" d="M3.46843,35.88384l.14819.16248C3.58385,35.82247,3.53752,35.71856,3.46843,35.88384Z"/><path class="cls-2" d="M36.78593,97.13292c-.31421-.30346-.62671-.6596-.86792-.88336-.23144-.24878-.39721-.35891-.4378-.133l.06073.50174A3.91264,3.91264,0,0,1,36.78593,97.13292Z"/><path class="cls-2" d="M6.25566,70.23919l-.02856.27462.60467.37366C6.65776,70.69167,6.46153,70.47091,6.25566,70.23919Z"/><path class="cls-2" d="M4.34788,70.30214l-.08465-1.18576A6.40824,6.40824,0,0,0,4.34788,70.30214Z"/><path class="cls-2" d="M18.82262,12.40047l.24462-.817C18.23662,12.33819,18.748,12.17586,18.82262,12.40047Z"/><path class="cls-2" d="M57.56987,105.51992a9.56725,9.56725,0,0,0-1.23975,1.344C57.03,106.2842,57.73717,105.91469,57.56987,105.51992Z"/><path class="cls-2" d="M8.69084,35.08419c.04236-.34558.01-.51492-.083-.54184C8.55705,34.89828,8.56706,35.113,8.69084,35.08419Z"/><path class="cls-2" d="M55.146,108.59188c.10809-.08078.19721-.17182.301-.25833a9.12082,9.12082,0,0,1,.88311-1.46967A3.09426,3.09426,0,0,0,55.146,108.59188Z"/><path class="cls-2" d="M95.71751,21.976c.02191.062.05982.12833.07532.18759C95.852,22.14486,95.80253,22.07284,95.71751,21.976Z"/><path class="cls-2" d="M100.69365,45.82857c-.06116-.22192-.11792-.58972-.17645-.93576A3.59783,3.59783,0,0,0,100.69365,45.82857Z"/><path class="cls-2" d="M71.11967,96.24532c.4563-.23459.05579-.07733,0,0Z"/><path class="cls-2" d="M74.13017,96.78411a.28972.28972,0,0,0-.10376.27685A.37081.37081,0,0,1,74.13017,96.78411Z"/><path class="cls-2" d="M54.2877,114.6144l-.02734.03723C54.37877,114.62932,54.3582,114.63064,54.2877,114.6144Z"/><path class="cls-2" d="M71.901,96.113a4.73053,4.73053,0,0,0-.64953.14837A4.89363,4.89363,0,0,0,71.901,96.113Z"/><path class="cls-2" d="M71.72508,95.96682l.42536-.14331C72.1801,95.73119,72.11,95.71258,71.72508,95.96682Z"/><path class="cls-2" d="M70.47764,96.55785a5.72838,5.72838,0,0,1,.77381-.29645c-.10315.01392-.15088.00843-.13178-.01608Z"/><path class="cls-2" d="M56.2653,1.38839c.03583.01553.07758.02646.11634.04706C56.95311,1.28411,56.70537,1.30031,56.2653,1.38839Z"/><path class="cls-2" d="M22.3549,94.48058c.02326.01285.04084.01233.06275.023l-.05616-.0639Z"/><path class="cls-2" d="M20.57024,93.476a2.35947,2.35947,0,0,1,1.79125.96366l.23035-1.4137Q21.59722,93.26368,20.57024,93.476Z"/><path class="cls-2" d="M10.03361,22.59316a10.3688,10.3688,0,0,0-1.12921.97107,7.96683,7.96683,0,0,1,.71021-1.92944c.14306-.348.06439-.3798-.57154.01526.247.23748.16492.64379-.07556,1.13476a14.27244,14.27244,0,0,1-.90545,1.73895c-.703,1.22162-1.402,2.44583-.85736,2.855a9.39491,9.39491,0,0,0-.68329.70468c.12994-.23815.07831-.31494.20752-.55038-1.3833,1.36572.27514,1.68372-.90973,3.70023-.44782.69174-.87775,1.13339-.78345.56405-.1778.58893-.23486,1.22483-.35535,1.82956-.20709.48831-.38318.28317-.176-.206l-.85694,2.65759-.03082-.03207c.05731.44043.06995,1.38156.12317,1.849-.36206.62335-.05029-.38117-.25726-.2565l-.06537,1.57022c-.496.51519-.50885-.80622-.192-1.82788-1.66565,1.02975.00794,1.324-1.53375,4.15805L1.888,40.07482a3.12628,3.12628,0,0,0-.98175,1.44287C.67314,42.10424.55241,42.80486.175,43.60076c.15436-.17911.58167-.96411.9773-1.47006.40936-.50522.80694-.73041.79724.12121a3.78337,3.78337,0,0,0-.18323,1.99472c-.47784-.06927-.49548.82856-.63391,1.92768l-.6236-.15284c-.00506,1.22052.33649,1.15821.59162,1.88791A2.03605,2.03605,0,0,1,.02708,49.77779c-.20971,2.15375.86756-1.44281.86115,1.09848-.39044,1.76737.00873,3.03446.46857,5.11447-.16388,1.25043-.40009-.1893-.56269.26667.19068.35577.36316.70947.56848,1.05691.02283.26676-.14453.196-.22906.15952.31787.89691.64624.017,1.00812,1.42114.761.26666-.69336,3.10382.56854,4.69946-.081.46927-.42951-.12408-.64215.05939a12.45734,12.45734,0,0,0,2.07867,3.71l.11652,1.75253c.09381-1.35281,1.06274.02341,1.99243,1.12281.0387-.47742.12262-.89676.14215-1.164a21.65529,21.65529,0,0,0,1.1023,1.87835c.00189.278-.28376.16333-.66834-.0661.10565.117.208.22672.2945.309.07782.80271-.41456.58033-.9632.19129.01392-.29474.0376-.589.064-.874-.5802-.35418-1.15766-.69235-1.46528-.45986a3.67414,3.67414,0,0,1,.42792.6217c-.15375-.09567-.27752-.14822-.3117-.06394-.03406.09385.18835.261.48022.53867l-.4671.734.31036.00912c.246.95826.46381,1.93924.74512,2.89975a46.25639,46.25639,0,0,1,5.34485,5.24411c-.86865-.395-.80927.31818-1.34986.62238A2.436,2.436,0,0,0,9.05968,79.035c-.25245-.28286-.55225-.56958-.80433-.90261a5.85027,5.85027,0,0,1-.64129-1.10379c.35675.83416.00812.80358-.18982.64694a29.62877,29.62877,0,0,0,2.10052,2.35568c-.46576.21164.03016.75851.29145,1.56152.2619-.54394.67791-.12732,1.2171.47455a22.26,22.26,0,0,0,1.66693,1.82688c-.218.26907-.67188.23959-1.53479-1.0355.4433,1.80268,2.21442,1.04944,2.771,2.69629-.254-.27148-.35108-.44967-.56665-.46274.78595.47306,2.03576,2.18763,1.48266,2.01987l-.25421-.27276c.39221.48117.9046,1.07406,1.46552,1.68649.59191.58212,1.2644,1.15231,1.892,1.66855a12.15246,12.15246,0,0,0,1.73578,1.23327c.52374.25357.92883.36325,1.13532.25586a3.89738,3.89738,0,0,1-1.13672.62494q1.33209.14712,2.61767.25446a23.52612,23.52612,0,0,0,2.56086.12506c-.74494.37481-.50592,2.64474-2.451,1.81561A5.80959,5.80959,0,0,0,24.57982,95.921c-.2843-.31439-.24372-1.43176.24621-1.18549a10.27324,10.27324,0,0,0,1.83557,2.52265c-.45-.42746.7287-1.08408,1.52442-.60413-.21387.07782-.48724,1.02258-.85364.95661l2.60907.15329c-.605-.10178-.5332.79437-.20288,1.338-.14594-.2656,1.87646.87778,2.50531,1.04062l-.818-.64908c2.40411,1.25244,3.01086-.33426,5.43408.53586a.872.872,0,0,0,.02038,1.669c.389-.185,1.23914-.57824,2.27338-1.00067a11.74328,11.74328,0,0,1,1.64862-.5654,4.64957,4.64957,0,0,1,1.94934-.13769c.15448.15188.29053.29877.418.44369l.6015.054c.13153.123.25714.26047.3891.39453l.80963.84836c-.387-.181-.89038-.42584-1.39276-.62067-.0636-.02331-.124-.05069-.19018-.06851l-.27027.05325-.52606.11533c-.34253.08072-.66553.16925-.95294.26565a21.99085,21.99085,0,0,1-3.51294.79429c.89825.52645.16162.44992,1.64477.799.44672.43033-.93011.2493-1.37585.15509l1.712.5332.85589.26529.136.08276c.10589-.29065.451-.49887.67633-.34384.13324.05768.25116.09918.41308.17707.20765.14456.37763.20648.4748.10058-.10285-.09848-.23938-.24618-.31446-.30426l-.202-.14029q-.196-.13175-.36853-.22919a4.6066,4.6066,0,0,0-.46912.05976l-.18463.045a.49961.49961,0,0,1-.1806.00006l-.24439-.0162c.00165-.17246.16651-.34061.44623-.4856a2.01381,2.01381,0,0,1,.80139-.43085q.13871-.03831.29578-.0668l.16107-.02566a.40985.40985,0,0,1,.118.05316,2.91966,2.91966,0,0,1,.48267.34637,5.81156,5.81156,0,0,1,1.04,1.2764c.1253.65533-1.24536.30026-1.40186.46841a5.57491,5.57491,0,0,1,1.64441,1.905l-.87311-.637c.5484,1.24591,1.97,1.29556,2.35053,2.98392.27838.48165.22357,1.85565.60589,1.70956.12049-1.18008,1.97705-2.66873,2.79328-2.49747a24.33161,24.33161,0,0,1,1.08239,3.54282c.01313.5506-.42791.54138-.962.37768-.49036-.09988-.98157-.21975-.97455.247a.601.601,0,0,1,.40759.09369,3.30765,3.30765,0,0,1,.48114.34769c.3291.75656-.62713.09152.46436,1.53531.5805-.35892,1.97424,2.97839.79651.14227.98761,1.09476.90289,1.56314,2.01916,3.13718-.16156-.67432.25305-.85648.64405-.95069a20.54823,20.54823,0,0,1,.84667-2.33725.39481.39481,0,0,0,.32007.42075c1.4538-2.00964,2.57624-3.09814,3.89179-5.00458.25946-.08648,1.07049-.91516,1.03717-.34811a3.32843,3.32843,0,0,1,.47925-1.34894c1.28552-.83151-.84546,1.39414.34784.90671-.27442-.29993.618-1.86609,1.00225-2.86347-.68548-.08242-1.45623,1.91468-1.84173,2.91312-.69849-.47345-.40131-2.46823.67706-4.729.93994-1.73981.93207-.39423,1.02619-.74369a9.702,9.702,0,0,0,.66363-1.00189c.17053-.29977.36719-.67258.49738-.96982.13946-.31076.25219-.60388.35449-.88906a2.692,2.692,0,0,1,.574-.42951,7.30539,7.30539,0,0,1,.64044-.38165c.11872-.0622.24445-.12323.37977-.18274l.34552-.15024a4.74413,4.74413,0,0,1,1.659-.31073c1.2926.23145.34363,1.01627.70215,1.32629a5.77214,5.77214,0,0,1-1.91974.386,8.34223,8.34223,0,0,0-1.77.20838l1.5426-.12442c-.467.37182-1.58123.48168-1.86016,1.09591a1.93546,1.93546,0,0,0,.42175-.36093l.06219-.06546.10328-.01324.21637-.03162.47015-.08231c.64258-.12127,1.46826-.31717,2.33911-.52566a26.76258,26.76258,0,0,0,2.65326-.75687,22.59927,22.59927,0,0,1,2.42682-.62143c.41443-.34463,1.13208-.894.67438-.919-.26581.14025-.52442.3-.79737.42474-.47271-.077-.11444-.324.18292-.6026.303-.26715.57728-.49.02729-.35581a10.69613,10.69613,0,0,1,3.56823-2.2153l.55311.39493c-.11-.12985-1.119.19806-1.47821.53153.5299-.46622,2.65533-.45859,2.95147-1.51618l-1.224.18936a14.6698,14.6698,0,0,1,3.12262-2.719c-.86969-.14972-.24182.2507-1.46319.20364,1.22668.32947-3.22657,1.73117-1.53321,1.857a2.74366,2.74366,0,0,0-1.55633.208,4.15307,4.15307,0,0,1-1.75189.275c.12237.167.60168.15573-.53485.55173a1.21589,1.21589,0,0,1-.16932.27035L71.901,96.113l.07013-.00507c-.03564.049-.03741.0567.02582-.00244a1.44431,1.44431,0,0,1,.68622.03156c-.36163.661-2.132,1.4779-2.69354,1.86227-.72113.14664.20678-.31638-.24292-.38974l-.807.65811c-.24646-.39056-2.03949-.08459-.53265-.88391l-1.433.475a7.123,7.123,0,0,0-2.80963.56454,4.89059,4.89059,0,0,0-.86218.24957c-.341.12406-.63623.25376-.85541.35614-.43738.20475-.60193.30841-.1651.018-.7793.03549-1.00268.84637-1.38055,1.41022l-.5249.88772-.30024.5604-.10565-.0445c-1.44214,2.00122-2.25964,4.60663-4.52337,6.47263-.18824.37439-.37513.758-.62635,1.18225-.12561.2121-.26727.43432-.43329.67059a1.53621,1.53621,0,0,1-.26214.29318,2.77825,2.77825,0,0,1-.31146-.233c-.04206.18125-.23218.28653-.35267.3498-.12622.07165-.20056.1271-.2146.50527a4.86553,4.86553,0,0,0-.12554-.48925c-.08045-.48893-.1344-.514-.26825-.59653a1.24486,1.24486,0,0,1-.21112-.14072.50705.50705,0,0,1-.089-.09909c-.11524-.16931-.24488-.37317-.33551-.53933l-.45838.2286a27.45808,27.45808,0,0,0-2.59979-3.22452l-.31378.33487c-1.08509-.93039-1.74634-3.10794-3.02027-4.88308.22541.02551.50183.50769.63837.88955a5.7701,5.7701,0,0,0-1.10919-2.18817l-.4914-.67486-.25109-.327c-.09278-.09518-.26777-.07126-.39734-.11136l-1.67676-.26944-.40051-.0585-.24207-.0184-.48138-.04035c-.3191-.02969-.6341-.06656-.94007-.11993a3.47362,3.47362,0,0,1-1.66327-.65372,2.2903,2.2903,0,0,1-1.28979-.45151.44609.44609,0,0,0,.13971.02335c-.05286-.024-.13349-.05273-.21686-.0805-.20972-.1539-.421-.32166-.65729-.47883a3.19,3.19,0,0,0,.53943.43976,12.53382,12.53382,0,0,0-1.7088-.40008l-.07562-.55432-.14057-.04782c-.50634-.42066-.55163.00344-.37811.47729A4.1726,4.1726,0,0,0,34.123,96.965c-.15918-.92169-1.6778-.4596-1.968-1.49408-.5816.19552-2.99353-1.28916-3.741-.71619.03613-.10651-.1073-.24551.20813-.07989A6.12952,6.12952,0,0,0,26.787,93.59627l.07459-.68622-1.79242-.20516c-.60279-.84955-.79712-1.238.2716-1.09333-2.29077-.78341-1.63452-.92184-3.65472-1.58435l.3302-.24313c-.58362-.39771-1.74744-.8049-1.84332-1.34-.32013-.82721-1.76722-2.1311-3.21277-3.87485-.37244-.42431-.75757-.86312-1.14673-1.30645-.3429-.4802-.68927-.96521-1.03156-1.44458a13.95009,13.95009,0,0,1-1.67535-2.88129c-.55865,1.29681-.55817-1.86093-1.4093-1.51508.10913-.34228-.05426-.89016.49859-.46609a7.25657,7.25657,0,0,1-1.17816-2.16736,3.38273,3.38273,0,0,0-1.23431-1.62067c.14215-.32568.56653.21225.61786-.0429-.12494-.11908-.52649-.46414-.44361-.73542.07209-.25988.31293.18238.58338.40632-.884-1.84772-1.70862-1.73615-2.51776-1.56846a2.39047,2.39047,0,0,0-1.07959-2.15853c.13073-.44928.20251-1.12754.68664.092-.17022-.73188-1.03467-4.38352-1.5982-4.3165a2.18309,2.18309,0,0,0-.2948-1.19751c-.15674-.818-.24207-1.26328-.3266-1.70456-.09412-.43918-.19538-.87235-.31482-1.68146l-.04346.46695c-.84631-.51913-.35022-1.33237-.61749-2.631l.08362.02869a8.04386,8.04386,0,0,0-.04755-2.17173,5.0057,5.0057,0,0,1,.11932-2.139l-.472.1759c-.51282-.124-.41986-.80539-.18591-1.655a6.11948,6.11948,0,0,0,.48541-2.73831l-.30518.61386c-.15222-.48587.23187-1.13754.674-1.76105.22425-.30783.45288-.62161.65747-.90243a2.56887,2.56887,0,0,0,.46552-.76587c.11993-.18891.0943.33291.11719.61777.97284-2.31662-.57593-.38193-.44355-2.21012.3852-.27884.78772.55338,1.0318-.63351a1.6455,1.6455,0,0,0,.07856-.82782,9.65723,9.65723,0,0,1-.04493-1.4,5.595,5.595,0,0,1,.66565-2.92437c-.34185.28277-.686.57556-.66253-.30686a3.73763,3.73763,0,0,1,.39093-1.0556c.2182-.35892.45251-.74426.68268-1.12286a3.12755,3.12755,0,0,0,.61206-2.23121c.12316-.1297.20788-.16265.27044-.14477A11.50887,11.50887,0,0,1,9.154,32.525a5.06379,5.06379,0,0,0,.33679-1.82159c.4718-.0253.8291-.4068,1.12237-.958a15.78262,15.78262,0,0,0,.90723-1.8909c.56055-1.341,1.06073-2.61722,1.68628-2.17727l1.77008-2.50647.0758.15945a6.88062,6.88062,0,0,0,1.64795-2.98975c.38587-.26974.267.07276.30188.15342a15.70667,15.70667,0,0,0,2.09736-2.08734,13.18545,13.18545,0,0,0,1.48986-2.24344l.51618.20044a2.40708,2.40708,0,0,1,.71179-.66025c.18994-.13535.40118-.29288.6449-.44721.25293-.14233.52679-.29654.81518-.45889a20.69366,20.69366,0,0,0,1.78284-1.129c.60107-.4147,1.13934-.939,1.68024-1.39569a.42008.42008,0,0,1-.14136.3451,9.74458,9.74458,0,0,1,2.12823-1.35972,16.01213,16.01213,0,0,1,2.37531-1.00018c1.55591-.53467,2.78845-1.08972,2.95788-2.17337.578-.42313,1.19635-.76669,1.80158-1.15823-2.631.81234.102-.871-1.073-.76059,1.004-.48007,2.84509-.46161,1.6181.08633l-.22717-.013c-.13782,1.04282,3.31384-.86856,3.45813-.13061,5.12116-1.63211,10.43421-1.51947,15.33673-1.33255l-.55-.76044,1.74762.13058c.44873.193.57184.60175-.65826.50956.62024.44671,2.09259-.24335,2.15143-.39963,1.20221.24734.93078.48465.47522.57495-.46155.13226-1.12457.26077-.75708.28216a6.61669,6.61669,0,0,1,1.0003.03449l-.21393-.11954a3.99166,3.99166,0,0,1,2.4231-.214c.9115.287.405.51795.76587.60141-.01086.05069.10748.09339.55524.10529a14.357,14.357,0,0,1,2.10815.51773l-.71924-.78214c1.004-.03427,2.00031.547,1.16278-.34411a4.74732,4.74732,0,0,0,1.75482.95395c.40229.14786.84546.28885,1.30744.42523.44757.18262.91394.36063,1.37793.53174l2.58154.9237a4.63376,4.63376,0,0,1,1.42249.73627,8.74421,8.74421,0,0,1,2.02826.57977,10.47287,10.47287,0,0,1,2.05468,1.0676c-.29626-.321-.20233-1.02295,1.01563-.18964-.56506.44031-.07.91178.6217,1.44684.68683.54264,1.60938,1.11341,1.771,1.88883-.46491-1.14466,3.34936,2.30917,2.59961.61483.90314.80976-.24829.44059.28375,1.23078a15.38323,15.38323,0,0,1,3.49487,3.04358c1.091,1.24572,2.0708,2.68429,3.33069,3.90454.1676-.06479-.00122-.69571.67792-.27133l.4198,2.03189c.4787.49569,1.20117-.08826,1.46649,1.28335.01434-.22732.03461-.57226.36243-.22839a11.0691,11.0691,0,0,1,.61572,1.15628l.60626,1.16385c.41681.76846.8581,1.52383,1.31568,2.2738q.58979,1.17806,1.183,2.36286c.37927.79663.8645,1.55188,1.16522,2.3872a22.72318,22.72318,0,0,1,2.15082,10.32584c.19507-.98743.3216-.37588.44306.3374.0097-.47784.43042-.05935.65185-.18823l-.21771,2.99554c.684.47519.20056,3.13367.84857,3.41666l-.16125-.93225c.80993,1.23505,1.568-1.85309,2.53076-1.76758a2.09225,2.09225,0,0,1-.2594-1.24075,14.28675,14.28675,0,0,1,.10736-1.54947,4.82176,4.82176,0,0,0-.647-3.44272c.07361-.56036.39441.38428.54847.06207a3.93378,3.93378,0,0,1-.97022-2.58694l.13715.12549c-.26514-.93094-.46582-1.73471-.63135-2.48645-.21619-.736-.4256-1.411-.61188-2.11219a30.26028,30.26028,0,0,0-1.57464-4.92l-.28815.49326a5.36928,5.36928,0,0,1-.3869-1.5643c-1.10852-.64664,1.10766,2.3919-.03424,1.84674.1485-.7443-.49475-2.2782-1.27429-3.67212-.81177-1.37876-1.58387-2.71784-1.347-3.38086-.75909-1.23956-.22156.65262-.99976-.56269l.01526-.475-.53149-.07413c-.51172-.79095-.501-1.39517-.32172-1.57468a5.69174,5.69174,0,0,0,.618.67383c-.47693-1.19552-2.16546-2.757-2.38855-3.11612a12.32588,12.32588,0,0,1,.72888,1.21152c-.61718-.77841-1.38275-1.49963-2.10247-2.29224-.73987-.77377-1.43952-1.62216-2.22907-2.37478-.811-.731-1.62732-1.45105-2.44128-2.11859-.41107-.32868-.8039-.66553-1.22675-.94486-.43377-.26611-.8648-.51443-1.29138-.73971l.09314.34915a7.96048,7.96048,0,0,1-2.14551-1.53394,9.15675,9.15675,0,0,0-.78357-.73092,14.151,14.151,0,0,0-1.53869-.92023l.127.01486a6.83547,6.83547,0,0,1-2.16724-.9538c.81775.18949-1.04577-1.228-.00231-.9342-3.01551-1.05279-1.5716-.39719-3.77759-.558l-.2724-.54227a7.00624,7.00624,0,0,1-.91535-.0033,13.54756,13.54756,0,0,1-1.45813-.35486c1.32874.14841-.73626-.87179.78461-.76171a9.13271,9.13271,0,0,0-3.66937-1.38865c-1.00037-.20651-1.80286-.21936-2.387-1.00677-1.74334.61121,2.63471,1.2659,1.74421,1.26733.57672.51462-1.42554.4079-2.38929.06757a4.34383,4.34383,0,0,1-1.40869-1.0459,5.88885,5.88885,0,0,0-1.03528-.71893A6.33963,6.33963,0,0,0,61.93333,1.401c.26386.04544.29541-.02832.55915.01666-.95862-.41207-2.00367.05149-3.16962-.555-.75018.48163-1.59283-.21145-1.86078.57266a17.51026,17.51026,0,0,1,2.44562.09519c-1.40735-.06159-2.75885.84134-4.97882.27789a4.52442,4.52442,0,0,1,1.33642-.42c-.6546-.26691-1.28692.08993-1.96869-.184C54.51726.438,57.2769,1.14409,58.82408.69509c-.6925-.44464-2.88464.40448-2.0661-.42847A2.24186,2.24186,0,0,1,54.7675.611,3.76715,3.76715,0,0,0,52.257.82338l.11286-.48043a5.346,5.346,0,0,1-1.411.35693l.94574-.663c-1.46186.60382-2.903-.32831-4.32135.062,2.997-.20078.723.52615,2.00494.79986a6.22565,6.22565,0,0,1-1.91742.19272A2.65932,2.65932,0,0,1,46.63341.81218C46.01482.541,45.31315.22878,43.27147.65886c.54907-.153,2.13476-.03942,1.30255.31034A11.4495,11.4495,0,0,1,42.19365.82927c-2.648.77765.51269.37238-.55664.94626-1.03046-.33288-1.24579.56211-2.33637,1.03424l-.13714-.46283c-1.54932.23188-1.67255.53833-1.7508.83558-.08325.28915-.1264.55474-1.48205.85119l.88678-1.0358-1.31073.66263.09845-.6203A9.39007,9.39007,0,0,1,32.248,4.4829c.46033.156.1637.8913-1.04919,1.492-.9599.14431.27356-.64115-1.44257.26275a1.46,1.46,0,0,1,1.48767-.979c.01178-.18024.26538-.4635.2832-.64429a10.82384,10.82384,0,0,0-2.97961,1.35794,3.084,3.084,0,0,1,.74487-.235l-1.11871.91848L27.13194,7.67739c-.46972.07306-.244-.23413-.01452-.53977-.4657.34327-.69147.73951-1.38617,1.21039-.01978-.44662-.28046-.7626.66095-1.54959L24.29344,8.584a3.71106,3.71106,0,0,0-.78973.11658c-.29084.07456-.528.11334-.426-.05255a8.81166,8.81166,0,0,0-1.99988,1.81183,14.77929,14.77929,0,0,1-2.24743,2.051,1.75179,1.75179,0,0,1-.41077.6492c-.72211.59537-1.47321,1.08615-2.20587,1.66782a7.56488,7.56488,0,0,0-1.90924,2.34189l-1.37757.47153c-1.05157,1.39813,1.81116-.67991.0763,1.62921-1.06751,1.74783-.92951.22674-1.52039.67743a14.37235,14.37235,0,0,1-.72894,1.9747,7.33331,7.33331,0,0,1-1.59106,2.12069A5.9653,5.9653,0,0,1,10.03361,22.59316ZM1.96434,42.2134c-.03265-.42481-.10754-1.29053.23743-1.52216C2.63145,41.2727,2.25963,41.55446,1.96434,42.2134ZM6.5648,73.39766a1.74644,1.74644,0,0,1-.40045-1.22818A3.61556,3.61556,0,0,1,6.5648,73.39766Zm59.363,25.045a.21367.21367,0,0,0-.03284.03229C65.03087,98.49666,65.33909,98.49621,65.92778,98.44268Zm1.73352-.301c.146-.1217.11365-.1813.02313-.22128-.07763.15607-.44732.29279-.87958.40674C66.958,98.40761,67.199,98.4164,67.6613,98.14165ZM61.58293,5.26946l-.31744-.176C62.057,5.07338,61.81975,5.16417,61.58293,5.26946Z"/><path class="cls-2" d="M4.56847,70.30974a.452.452,0,0,1,.19335-.25579C4.637,69.92934,4.54747,69.957,4.56847,70.30974Z"/><path class="cls-2" d="M18.7783,12.55068l.05207-.03989a.20653.20653,0,0,0-.00775-.11032Z"/><path class="cls-2" d="M48.61473,113.11214a1.78449,1.78449,0,0,1-.30658-.88669c-.05444.025-.078.08686-.05041.20411a1.14945,1.14945,0,0,0,.08233.21966C48.40294,112.76836,48.49913,112.92989,48.61473,113.11214Z"/><path class="cls-2" d="M75.777,93.74953l-.90851.64459a2.3511,2.3511,0,0,1,.94861-.34277C75.74107,93.96444,75.4785,93.9229,75.777,93.74953Z"/><path class="cls-2" d="M85.59776,90.60256c.0954-.15189.28369-.22769.363-.39383l-.18128-.137C85.237,90.5523,84.94163,90.996,85.59776,90.60256Z"/><path class="cls-2" d="M77.47642,94.64394c.27234.29117.87049-.12082,1.48224-.65533a1.05587,1.05587,0,0,1-.1181.07885C78.73784,93.45934,78.13982,94.09618,77.47642,94.64394Z"/><path class="cls-2" d="M79.10618,93.87365a4.77747,4.77747,0,0,1,.61158-.42032C79.67149,93.21074,79.44273,93.57976,79.10618,93.87365Z"/><path class="cls-2" d="M69.66942,97.16436c.38769-.02277.037-.56079.29248-.474C70.1754,96.07036,67.84813,98.07793,69.66942,97.16436Z"/><polygon class="cls-2" points="78.73 95.48 78.217 95.19 78.02 95.76 78.73 95.48"/><path class="cls-2" d="M72.80241,98.07287l1.24921-.40345c-.05335-.06817.07733-.1802.24689-.29666C73.55748,97.6838,72.71556,97.949,72.80241,98.07287Z"/><path class="cls-2" d="M74.29851,97.37276a2.96485,2.96485,0,0,0,.91662-.50808C75.01951,96.97777,74.577,97.17763,74.29851,97.37276Z"/><polygon class="cls-2" points="77.23 96.477 76.84 96.573 76.01 96.988 77.23 96.477"/><path class="cls-2" d="M60.62718,104.43831l-.69238,1.26261c.05908.21759.36658-.045.61218-.5235C60.64238,104.82689,60.88841,104.351,60.62718,104.43831Z"/><path class="cls-2" d="M64.10332,102.23488a1.22528,1.22528,0,0,1-.37952-.07754.46535.46535,0,0,0-.28583-.06287l.37537.55072C63.81975,102.40151,63.99162,102.373,64.10332,102.23488Z"/><path class="cls-2" d="M61.96562,105.16918c.0614.21524-.76892,1.99441.22662.47494C62.13359,105.42757,62.82768,104.16338,61.96562,105.16918Z"/><polygon class="cls-2" points="48.665 110.175 48.878 110.471 49.688 109.852 48.665 110.175"/><path class="cls-2" d="M33.70463,101.54928c1.5987.83184.62165-.44349,2.03449.37164.47241-.09131-1.154-.66177-.67828-.71741C33.95775,101.11248,33.50053,100.72573,33.70463,101.54928Z"/><path class="cls-2" d="M35.06084,101.20351a5.5543,5.5543,0,0,0,.56591.03186A2.5241,2.5241,0,0,0,35.06084,101.20351Z"/><polygon class="cls-2" points="100.524 49.686 100.365 50.732 100.673 50.047 100.524 49.686"/><path class="cls-2" d="M101.38139,51.66445l-.63611.25665.62024.62461C101.32426,52.30749,101.24425,51.84807,101.38139,51.66445Z"/><path class="cls-2" d="M.18925,45.16372l.14154.10922c.19434-.1554.24762-.42194.3559-.956Z"/><polygon class="cls-2" points="5.084 30.23 4.955 30.468 5.705 30.263 5.084 30.23"/><path class="cls-2" d="M11.44823,18.60265c-.34717.42075-.62885,1.01407-.976,1.4361C11.10313,19.01992,12.10423,18.94744,11.44823,18.60265Z"/><path class="cls-2" d="M46.995,80.22878c.07324.05286.13531-.05823.1156-.03931C47.08562,80.14449,47.01469,80.22317,46.995,80.22878Z"/><polygon class="cls-2" points="47.809 80.644 47.966 80.643 47.848 80.622 47.809 80.644"/><path class="cls-2" d="M48.13579,80.81411l.007-.04578-.13464.07666c.14551.08661.37439.1225.44592.22333C48.487,80.882,48.20909,80.94741,48.13579,80.81411Z"/><path class="cls-2" d="M48.5667,81.56655a.45235.45235,0,0,1,.07324.04c.00592-.07434.11059-.01294-.08185-.06372Z"/><path class="cls-2" d="M48.5667,81.56655c-.08-.03333.02465.07678,0,0Z"/><path class="cls-2" d="M48.81554,81.70669c.00543.04681.09643.09472.05011.10766.12219.01392.113-.034.07782-.12152Z"/><path class="cls-2" d="M49.08812,81.61l-.0622.00445C49.02873,81.63442,49.04082,81.64583,49.08812,81.61Z"/><path class="cls-2" d="M48.96733,81.61178c.02881-.04523-.01184-.00708-.07422.00744l.13281-.00476C49.02159,81.58144,49.042,81.5273,48.96733,81.61178Z"/><path class="cls-2" d="M48.86272,81.44149c-.19581-.06677-.22651.06018-.02234.12616C48.79838,81.50857,48.73936,81.45089,48.86272,81.44149Z"/><path class="cls-2" d="M48.58061,80.92977l-.03625-.08423-.08655.01648C48.50072,80.8539,48.55583,80.98018,48.58061,80.92977Z"/><path class="cls-2" d="M49.57829,81.9955c.01587-.03515-.01135-.10705-.00677-.156l-.08954.02167C49.51512,81.898,49.58647,81.93923,49.57829,81.9955Z"/><path class="cls-2" d="M49.57152,81.8395l.13177-.03455C49.60222,81.77218,49.57561,81.79738,49.57152,81.8395Z"/><path class="cls-2" d="M48.94664,81.48684c.0896-.01252.177-.02576.264-.04535l-.03492-.01056Z"/><polygon class="cls-2" points="49.953 82.171 50.097 82.06 50.037 82.096 49.953 82.171"/><path class="cls-2" d="M50.34294,82.12313c-.05908.06683.0556.12976-.00311.16858a.44446.44446,0,0,0,.23181-.10968A.22366.22366,0,0,1,50.34294,82.12313Z"/><path class="cls-2" d="M49.94212,81.87655l-.04547-.01062a.16274.16274,0,0,0,.07221.12463Z"/><path class="cls-2" d="M49.94115,81.87282l.001.00373.09784.02459Z"/><path class="cls-2" d="M49.56242,81.43368c-.06622.05645-.00543.12884-.12927.18548C49.51732,81.58211,49.66582,81.55959,49.56242,81.43368Z"/><path class="cls-2" d="M49.70982,81.76473l.14624-.04346-.1145-.05072C49.73729,81.69857,49.74992,81.744,49.70982,81.76473Z"/><polygon class="cls-2" points="49.922 81.7 49.856 81.721 49.899 81.739 49.922 81.7"/><path class="cls-2" d="M50.47691,81.9908a.32271.32271,0,0,1,.18329-.04333.978.978,0,0,0-.20972-.04993C50.43748,81.93,50.4005,81.98659,50.47691,81.9908Z"/><polygon class="cls-2" points="51.317 81.955 51.305 81.936 51.304 81.955 51.317 81.955"/><path class="cls-2" d="M50.32262,81.90267a.52624.52624,0,0,1,.12786-.00513c.00586-.01458.00769-.02441-.0097-.021A.09536.09536,0,0,0,50.32262,81.90267Z"/><path class="cls-2" d="M50.87346,82.06637a.86548.86548,0,0,0-.09186-.06208C50.80711,82.04055,50.86241,82.0942,50.87346,82.06637Z"/><path class="cls-2" d="M50.24394,81.95821a.26932.26932,0,0,0,.07868-.05554.41207.41207,0,0,0-.09266.02356A.13273.13273,0,0,1,50.24394,81.95821Z"/><path class="cls-2" d="M51.07005,81.9327l-.05066.01147a.51643.51643,0,0,1,.17926.13221c.08521-.051.10065-.08838.10511-.12153l-.251-.00762Z"/><path class="cls-2" d="M50.79191,81.93947c.04474-.10406.16327-.15.09461-.267-.14179.00324-.10291.085-.19183.12739.235-.01221-.07129.05566.09594.12725a.47985.47985,0,0,1-.13043.02039.80408.80408,0,0,1,.1214.05682l-.00519-.007-.00116.00025.00031-.00165c-.00971-.014-.01276-.02246-.00147-.01392l.00513-.00189a.16156.16156,0,0,1,.01269-.04c.06818.02643.00977.02863-.01269.04l-.00366.01581.00085.0014.243-.0531A.66953.66953,0,0,0,50.79191,81.93947Z"/><path class="cls-2" d="M49.69511,81.38991l.01905-.01037c.07714.058.16424.21618.14605.22613A.981.981,0,0,0,49.81,81.326c-.019.01074-.04242.04938-.09088.02594-.03613-.04224.01318-.04993.01953-.08478C49.70183,81.28744,49.61131,81.31521,49.69511,81.38991Z"/><path class="cls-2" d="M50.39677,81.49447l-.00183.05615c-.10278-.03259-.0888.03564-.10785.07745l.19391-.03094Z"/><polygon class="cls-2" points="51.321 82.123 51.43 81.955 51.343 82.008 51.321 82.123"/><polygon class="cls-2" points="51.606 82.073 51.67 82.006 51.606 81.974 51.606 82.073"/><path class="cls-2" d="M56.70457,78.20962l-.11023-.01795a.16481.16481,0,0,1-.072.12677C56.64018,78.27871,56.81138,78.24312,56.70457,78.20962Z"/><path class="cls-2" d="M54.09434,81.03426a.42116.42116,0,0,0,.18793-.048C54.17345,80.98531,54.06547,80.947,54.09434,81.03426Z"/><path class="cls-2" d="M54.45488,80.86312l-.046.00256a.35374.35374,0,0,1-.12665.12061C54.36229,80.98745,54.44279,80.96773,54.45488,80.86312Z"/><path class="cls-2" d="M52.592,81.83l-.05047.00354C52.53953,81.85286,52.54881,81.862,52.592,81.83Z"/><path class="cls-2" d="M52.66228,81.80764l.07318-.02967a.24.24,0,0,1-.09046.01691A.0292.0292,0,0,1,52.66228,81.80764Z"/><path class="cls-2" d="M56.96574,74.90639c-.11-.20367.02857-.36249-.19891-.45721.05872-.04584.11005.01623.14264-.01795-.0188-.01379-.07794-.05139-.04761-.0866.03064-.0351.06714.01324.106.03991-.08905-.22516-.29694-.16937-.48755-.11163.04492-.13538.01-.18659-.14075-.20258.0423-.06048.07562-.15033.15619-.0357-.017-.07471-.13531-.47071-.27966-.39185.02276-.04187-.04779-.096-.07379-.1026a1.20926,1.20926,0,0,0-.19611-.29242l.00671.053c-.19.06409-.11816-.07916-.22009-.16748l.0174-.01c-.10425-.31842-.12824-.05438-.23328-.37793l-.07086.09821c-.19269.17022-.08905-.2937-.2992-.32678l.00794.09216c-.12268.01434-.00519-.443-.08228-.52979-.00671-.03149.04956-.01025.08551-.0061-.14813-.28-.11474.10883-.30279.03729.01092-.09179.15259-.16034.04016-.24444-.03278-.10285-.47473.06134-.57611-.153.01361.07642.02344.15082-.0777.1626-.12952-.02734-.277-.36017-.4563-.19489a.07581.07581,0,0,1-.0108-.05535c-.11615.02215-.35272.00781-.43189.109-.03448-.43512-.64447.11915-.6065-.25274l-.31586.01025.00861-.039a.30392.30392,0,0,0-.33734.1637c-.04676-.02411-.01526-.0611-.01221-.08124-.29486-.06055-.3324-.03992-.54627.17956l-.04229-.11944c-.04981.07739-.45856-.12494-.70838.09491a.08706.08706,0,0,1,.01666-.062c-.26568.21386-.87585-.0752-.81414.39392l-.14612.18811c.25708-.08222.04645.19452.1767.21612-.079.06641-.29883-.0097-.1941-.08471l.0279.01184c-.06122-.2359-.33326.07568-.40247-.06745a9.06935,9.06935,0,0,0-1.35785.80365l.16455.09876-.13775.1076c-.06134.00116-.14411-.0636-.04352-.14239-.12195-.03351-.09656.21026-.07092.2395-.23035.11829-.07837-.22028-.13562-.17145l-.06653.08277.0321-.00122c-.0094.11157.04382.174-.068.27661-.09308.04455-.11707-.04114-.14838-.01783-.0094-.009-.02258-.00317-.04309.041l-.16168.16254.16913.02423c-.01184.11975-.13776.15729.05121.18109-.3028-.053-.56189.6145-.66095.65936a.66415.66415,0,0,1-.12342.43848c.04511-.02576.20172.0224.12464.141-.28626-.1839-.23822.18207-.50061.215.18084-.04914-.096.41571.17395.32287-.06049.10791-.12213-.0293-.22461.03864.046.31439-.23389.61383-.22718.99389.04316.0094.1164-.0437.17347.03907-.08094.05566-.155.11523-.23279.177.01837.07629.247.07641.09424.20508.03711-.01844.09308-.04462.10675.00341a1.87114,1.87114,0,0,0,.07159,1.085,3.66967,3.66967,0,0,1,.22669,1.1192c.02795-.13013.06732-.07312.10577-.007-.00531-.05377.09619-.05042.144-.08753-.00366.11579.0047.22828.00977.34717.16876-.04205.19177.26837.34161.19886l-.07922-.05921c.12719-.00586.19018-.1297.26043-.2558.05365.07825.09046.16162.15015.238a4.108,4.108,0,0,0,3.0401,1.5661,4.99749,4.99749,0,0,0,.81952-.00671.12919.12919,0,0,1-.20276.01379c-.10467.07764-.03131.40119.0838.57959.00141-.04462.0008-.08014.11725-.14892-.0473-.04725-.26959-.11487-.17383-.207.15015-.05523.12659.02765.2063.07532-.0628-.10394.11225-.17914.12079-.31671.13843-.01508.2713-.0575.40735-.08459l.01752.00848.08471-.00916-.07116-.00579c.15167-.03119.30621-.04834.45489-.09449-.0014.01642-.00964.03443.00641.047l.07342-.0437c.10834.0788-.10607.19256.01185.20764-.08716.10449-.18616.26135-.36554.23749l-.06379-.14258a.10306.10306,0,0,0,.15912.00855c-.054.08251-.28643-.14454-.32068.06256l.13477.083c-.09979.09687-.22528.2876-.38635.257.09.14087.03155-.02154.16784.139-.12872-.19861.39692-.06207.20154-.26154.152.17853.20673.0445.39624.17664-.01764-.04749-.07617-.07874.0575-.091a.21178.21178,0,0,1,.01556-.05078l.00952.00116-.0086-.00373c.00335-.00885.00341-.0105-.00318-.00128a.17194.17194,0,0,1-.08471-.05572c.03143-.12775.22393-.18262.26739-.26368.07837-.00134-.01062.06488.04566.10266l.06585-.11767c.04651.10242.25531.09985.10913.22815l.15534-.056a.3154.3154,0,0,0,.30377-.08844c.0824-.011.11981-.19916.09949-.08942l.19366-.18042.01563.02344c.23285-.11041.33685-.41827.68292-.41614a.52143.52143,0,0,1,.22638-.21167l.08166.05878c.06238-.09125.31281-.13251.28022-.24139.26684.12176.42736-.32306.58892-.43189l-.08868-.09113a1.014,1.014,0,0,0,.21167-.37109l-.09357-.06238c.01361-.16156.28083-.22967.39313-.42334.02753.036-.01318.07679-.05652.095.36731-.08319.13709-.565.405-.68322a.11317.11317,0,0,1,.06427-.1294.02445.02445,0,0,0-.00116.01587l.0119-.02148.09021-.04987a.29926.29926,0,0,0-.08484.03784.49861.49861,0,0,0,.03479-.18542l.12207.02081.00318-.01605c.06775-.04541-.03137-.07153-.12879-.0741a.31341.31341,0,0,0-.03228-.10925c.20031.021.00055-.18622.22094-.18353-.07959-.07679.03675-.34754-.16192-.44019.02722.00562.045-.00928.03723.02515.04278-.06311.08594-.12805.04529-.20581l.15551.0072-.16412-.20276c.11261-.07233.17438-.1037.26831.01709-.13153-.26788-.02685-.20294-.173-.42731l.09643.02466c.00605-.07226-.10766-.19958-.02313-.232.21448-.14118.08893-.78131.19458-1.22339-.27527.12378.09729-.21845-.12909-.19861C56.86766,74.916,56.89323,74.8478,56.96574,74.90639Zm-.75219-.7962.16137.15607c-.01446.0332-.07391.03357-.1485.02862l.05.01978a.10273.10273,0,0,1-.08209.071c-.012-.03082-.01758-.06427-.03046-.09479l.06256.004-.07122-.031c-.00446-.01038-.0058-.022-.01038-.03241A.83807.83807,0,0,0,56.21355,74.11019Zm-8.53235-.50787c-.02747.08264-.03565.04528-.04694.005Zm3.77655,7.75506c-.00067-.004.00262-.01.00348-.01471.00671-.00055.01385.00043.02057-.00018Zm1.745.14527.00159-.00715C53.3054,81.50155,53.26872,81.49776,53.20274,81.50265Zm.53833-.579c-.1394.1394-.1394-.07764-.15307-.03534-.32129.13385-.09882.47442-.44159.46368-.16187-.07452-.11029-.24359-.17292-.32172.11365-.10723.24421-.01507.33313-.06823L53.167,80.9609c.02392-.06055.095-.136.16088-.12549a.2111.2111,0,0,0-.12091.00873,5.68372,5.68372,0,0,0,.63214-.37775A.58937.58937,0,0,1,53.74107,80.92367Zm.80512-.83594a.24893.24893,0,0,0-.10541-.0744l-.00263.00146c.04249-.03638.08094-.075.12214-.11206A.363.363,0,0,1,54.54619,80.08773Zm.43994-.49213c-.0213-.00574-.03449-.02405-.05127-.03674.03839-.04065.0744-.08252.11133-.124l.14929.128-.13373-.14826c.038-.04309.06726-.09082.1037-.1347a1.20281,1.20281,0,0,1,.2522.25036A1.36138,1.36138,0,0,1,54.98613,79.5956Zm.90216-.83-.01056.19379c-.051-.092-.12842-.23462-.20691-.38086.04578-.07678.08045-.15961.12232-.23852a.74645.74645,0,0,1,.18756.43182Zm.43976-1.84216c.00464-.02087.01379-.03924.01819-.06018.00372-.01764.00262-.03339.00616-.051.06476.05456.13348.10113.19708.15838A1.04741,1.04741,0,0,0,56.32805,76.92342Z"/><path class="cls-2" d="M52.10228,81.931c.008.02716.03931.06287.00146.07184l.115-.05536A.13325.13325,0,0,1,52.10228,81.931Z"/><path class="cls-2" d="M51.03715,81.35714c-.01574.01452-.0332.0011-.04882.01587l.00366.05609C51.06,81.42647,51.10625,81.382,51.03715,81.35714Z"/><path class="cls-2" d="M51.77031,81.6036c-.00415.14306.0766.08783.15253.02484-.02631-.09839-.0896-.05072-.16651-.023Z"/><path class="cls-2" d="M51.66557,81.62337c-.00256.05768.03144.00788.07288-.01214A.19073.19073,0,0,1,51.66557,81.62337Z"/><path class="cls-2" d="M52.79423,81.76961c.00031.13648.20343-.23462.01715-.09918C52.76512,81.65859,52.82927,81.80129,52.79423,81.76961Z"/><polygon class="cls-2" points="51.806 81.31 51.853 81.429 51.878 81.321 51.806 81.31"/><path class="cls-2" d="M52.28453,81.26766a.04432.04432,0,0,1-.021.0495c.074-.015.16071-.01526.14765-.04974Z"/><path class="cls-2" d="M53.633,80.65645c-.0108.04291-.04547.08155-.00665.10706l.09491-.10083C53.70994,80.6191,53.66569,80.61587,53.633,80.65645Z"/><polygon class="cls-2" points="46.921 80.032 46.947 79.923 46.898 79.908 46.921 80.032"/><path class="cls-2" d="M47.1765,79.97109l-.11377.1189.15619-.0362C47.19847,80.03847,47.15843,80.0082,47.1765,79.97109Z"/><path class="cls-2" d="M10.87486,48.32064c.29352.3211.23151.05694.21729.08514C10.93864,48.20388,10.91417,48.33889,10.87486,48.32064Z"/><path class="cls-2" d="M14.89012,49.46578a4.03705,4.03705,0,0,0,.54346-.26294,3.8547,3.8547,0,0,1-.4823.206Z"/><path class="cls-2" d="M16.49321,48.6357l-.11292.03644c-.05023.099-.1073.19543-.16858.29248a3.0541,3.0541,0,0,0,.93378-.99292,5.83339,5.83339,0,0,0,.452-1.05353,4.86543,4.86543,0,0,0-.38721.8136A2.23631,2.23631,0,0,1,16.49321,48.6357Z"/><path class="cls-2" d="M18.20683,45.51442l.02576-.08026.03381-.37127C18.18547,45.17843,18.24248,44.63888,18.20683,45.51442Z"/><path class="cls-2" d="M18.23259,45.43416c-.03339.38483.0827-.246,0,0Z"/><path class="cls-2" d="M18.2722,43.78823a2.82509,2.82509,0,0,0,.03778.37762c.03534-.07983.07459-.39587.09351-.27484C18.42174,43.50936,18.37608,43.56966,18.2722,43.78823Z"/><path class="cls-2" d="M18.21477,43.38717l-.01917.21569C18.22142,43.56881,18.23381,43.51681,18.21477,43.38717Z"/><path class="cls-2" d="M18.18559,43.80672c-.04669-.04309-.01257.0539.016.23285a3.23547,3.23547,0,0,1-.006-.43671C18.15886,43.65468,18.09715,43.656,18.18559,43.80672Z"/><path class="cls-2" d="M18.04607,44.45156c-.016.95062.12463.8241.12646-.13953C18.1317,44.594,18.09392,44.95235,18.04607,44.45156Z"/><path class="cls-2" d="M17.316,47.03676c-.01355.10767-.03228.21564-.05548.324.04743-.15576.27124-.67554.20282-.6684C17.42021,46.80977,17.36919,46.92446,17.316,47.03676Z"/><path class="cls-2" d="M19.11412,41.44863l-.12189.31225c.102-.14147.28333-.40417.34186-.39025C19.31547,41.32754,19.17338,41.44405,19.11412,41.44863Z"/><path class="cls-2" d="M19.11412,41.44863q.09284-.22577.19922-.45C19.07,41.36434,19.067,41.45327,19.11412,41.44863Z"/><path class="cls-2" d="M18.05876,44.04183A3.25842,3.25842,0,0,1,18.046,43.508,3.20231,3.20231,0,0,0,18.05876,44.04183Z"/><path class="cls-2" d="M18.04021,43.26546c-.00647.08411.00738.15991.00579.2425.00611-.1294.01484-.25995.03321-.39228Z"/><polygon class="cls-2" points="20.332 40.167 20.567 39.712 20.451 39.902 20.332 40.167"/><path class="cls-2" d="M21.49333,39.09334a7.67212,7.67212,0,0,0,.60382-.67816,4.695,4.695,0,0,1-.76434.5965C21.22661,39.20467,21.62712,38.91317,21.49333,39.09334Z"/><path class="cls-2" d="M20.15318,40.09878l-.20727.07971-.12378.151A.79386.79386,0,0,0,20.15318,40.09878Z"/><path class="cls-2" d="M19.93883,40.18154l.00708-.00305.28088-.3161Z"/><path class="cls-2" d="M18.53154,41.70681c-.03.225.16669-.0586.05194.38043C18.65233,41.7972,18.89787,41.21267,18.53154,41.70681Z"/><path class="cls-2" d="M19.27244,40.98659c.08313-.1701.17017-.34.26465-.50726q-.16909.20573-.32562.42059C19.24107,40.90658,19.32817,40.85091,19.27244,40.98659Z"/><polygon class="cls-2" points="19.663 40.328 19.669 40.251 19.537 40.479 19.663 40.328"/><path class="cls-2" d="M21.61839,38.57046a3.58431,3.58431,0,0,1,.57019-.52912,7.2004,7.2004,0,0,0-.74591.56067C21.43223,38.65578,21.37065,38.7867,21.61839,38.57046Z"/><polygon class="cls-2" points="24.567 36.524 24.519 36.527 24.518 36.548 24.567 36.524"/><path class="cls-2" d="M21.39043,38.62075a1.24641,1.24641,0,0,0-.34925.36242c.12006-.12451.25171-.25262.40149-.38116C21.44743,38.578,21.44365,38.568,21.39043,38.62075Z"/><path class="cls-2" d="M22.64982,37.75942a1.09943,1.09943,0,0,0,.36048-.18353C22.899,37.62594,22.77733,37.69063,22.64982,37.75942Z"/><path class="cls-2" d="M20.86412,39.23983l-.02118.02734C20.91252,39.23122,20.898,39.2297,20.86412,39.23983Z"/><path class="cls-2" d="M20.86412,39.23983a2.96257,2.96257,0,0,0,.17706-.25666,3.521,3.521,0,0,0-.25287.28943A.40323.40323,0,0,1,20.86412,39.23983Z"/><path class="cls-2" d="M23.63365,37.01131l-.17975.12519a3.205,3.205,0,0,1,.7146-.26789c.2901-.21667.34339-.2774.34937-.32025-.31879.158-.63361.328-.94019.51483Z"/><path class="cls-2" d="M22.7921,37.2477c-.53021.38532-.3241.33569-.60663.60834.82843-.6452-.20917.22143.43848-.1734l-.43537.3587c.15814-.10229.31-.202.46124-.28192l-.02331.00836-.00372.00311-.00019-.002c-.04437.015-.06122.017-.0155-.00592l.01642-.01434a.11833.11833,0,0,1,.01453-.06024c.25854-.15662.05474-.00458-.01453.06024.00024.00622-.00348.015-.00092.02026l.00391-.00116q.40412-.329.82739-.63128a6.4817,6.4817,0,0,0-.81622.55145C22.71147,37.4974,23.12871,37.16121,22.7921,37.2477Z"/><path class="cls-2" d="M18.60033,41.09792c.02514-.02392.031-.01874.03906-.017C18.66313,41.01467,18.66887,40.98726,18.60033,41.09792Z"/><path class="cls-2" d="M19.39256,40.4822a1.2771,1.2771,0,0,0-.50708.2746,1.14378,1.14378,0,0,1-.16571.35907c-.13849.17108-.04425-.02655-.08038-.03492-.05353.14624-.19275.501.08417.11237l.0252-.0716A2.2109,2.2109,0,0,1,19.39256,40.4822Z"/><path class="cls-2" d="M20.84556,38.60128l.05469.02618c-.38513.32471-.25574.30292-.271.37653.199-.215.40325-.427.61645-.63086Z"/><path class="cls-2" d="M24.62932,36.68014c.1192-.12555.246-.2367.3717-.35755l-.32275.2038Z"/><polygon class="cls-2" points="25.68 36.183 25.93 36.026 25.683 36.076 25.68 36.183"/><path class="cls-2" d="M34.211,55.72805c-.12262.39923-.24.86236-.13293.8103l.10547-.12671A2.31931,2.31931,0,0,1,34.211,55.72805Z"/><path class="cls-2" d="M42.556,52.3929c.01062-.1607.00165-.23175-.02307-.23108C42.52031,52.32717,42.52336,52.4222,42.556,52.3929Z"/><path class="cls-2" d="M35.63713,41.33877l-.03387-.16321-.31086-.66645A2.83964,2.83964,0,0,0,35.63713,41.33877Z"/><path class="cls-2" d="M10.076,44.8594a3.9704,3.9704,0,0,1,.00928-.47956A2.20244,2.20244,0,0,0,10.076,44.8594Z"/><path class="cls-2" d="M29.92845,35.70351c-.21863-.04077-.03662.00318,0,0Z"/><path class="cls-2" d="M29.60612,35.59493l.27674.08051A2.26082,2.26082,0,0,0,29.60612,35.59493Z"/><path class="cls-2" d="M29.64274,35.653l-.19116-.04078C29.42119,35.62789,29.445,35.63747,29.64274,35.653Z"/><path class="cls-2" d="M30.23161,35.76827c-.12359-.03009-.23889-.05853-.34875-.09283.04126.017.0578.0271.04559.02807Z"/><path class="cls-2" d="M46.83427,65.41036a1.27571,1.27571,0,0,0,.02948-.67041,2.32,2.32,0,0,0-.259-.90112,3.77863,3.77863,0,0,0-.49249-.70777l.10919.1836c-.33734-.12061-.42517-.47589-.81287-.9552l.02637.00225c-.72278-1.22-.42554-.44793-1.09113-1.67889l-.05639.13013c-.29065.0379-.56861-1.10456-1.04706-1.74445l.0882.28449c-.30841-.3357-.30054-1.23584-.43378-1.62458-.01679-.09234.09039.1164.16394.22425-.30225-1.05139-.21826-.05646-.542-.799.03759-.165.2547.11139.12481-.39624.00074-.13452-.15722-.487-.263-.932a2.98369,2.98369,0,0,1-.0639-1.34631c-.07086.16339-.14178.33239-.17767-.05841a21.38422,21.38422,0,0,0,.3247-2.15827c.03223-.074.05463-.10016.07123-.10065a14.07529,14.07529,0,0,0,.14246-1.81884c.51648-.33826.24859-2.96619.63409-2.89313l.1944-1.46295.03332.04144a3.94227,3.94227,0,0,0-.09222-1.61035c.03137-.21558.06305-.05579.08258-.0368a8.48174,8.48174,0,0,0-.06378-2.65809l.12164-.12329a11.06185,11.06185,0,0,0-.41388-3.36828c.017.00958.04737.03119.09162.13324-.25336-.73529-.46265-1.639-.74231-2.40357-.27466-.76343-.606-1.37707-.94208-1.50873q-.30175-.41318-.62628-.80389c.66937,1.1178-.26606-.05859-.04291.4325-.2868-.41181-.62915-1.15693-.24756-.66156l.03693.09356c.34753.04035-.89264-1.34875-.76825-1.40729a13.105,13.105,0,0,0-6.16382-4.28173c.07349.084.14587.16711.21466.2575-.267-.09179-.53986-.16546-.81055-.24646-.20764-.08355-.2561-.22052.331-.048a1.765,1.765,0,0,0-1.0362-.11932c-1.15722-.27442.49756-.12952.14057-.19233-.16376-.03216-.32978-.04962-.49433-.07489l.1073.03992a4.95454,4.95454,0,0,1-1.176-.01526c-.45478-.07031-.22638-.12915-.40705-.149.002-.01281-.05914-.02313-.27832-.02392-.35766-.017-.71789-.03522-1.0769-.02808.14471.0401.28815.08917.43018.141-.473.06372-1.00068.02253-.50654.16236a6.20462,6.20462,0,0,0-2.3034.0979c-.94684.16363-1.81836.46936-2.04138.4956-.5929.30823-1.19916.52552-1.93378.84662.19385-.05517.36548.04505-.26538.3103.078-.42236-1.1936.42371-1.79236.50348.49866-.13324-1.65716,1.06391-.87.842-.49408.29224-.09681-.08642-.5055.08777a43.915,43.915,0,0,0-3.7337,2.88739c.01117.05011.2619-.09656.044.20227-.26551.15247-.53467.30481-.79517.471-.22174.25714-.03687.3927-.56323.74231.0863-.03918.21466-.09625.07293.07855A14.15357,14.15357,0,0,0,11.616,39.25a24.37147,24.37147,0,0,0-1.61316,4.91766c.1388-.464.09888-.15008.08252.21222.03632-.2334.108.013.17059-.02942a6.861,6.861,0,0,0-.12909,1.47156,5.07351,5.07351,0,0,1,.28064.89179c.12018.37194.29145.71472.39832.74542-.079-.1366-.15662-.27619-.22491-.41937.21386.25311.20538.00585.22363-.28382.00116-.02862.00433-.05749.00616-.08655a3.96607,3.96607,0,0,0,.634,1.20606A3.01111,3.01111,0,0,0,13.825,49.14187a3.64533,3.64533,0,0,0,2.42041-.74018,2.98761,2.98761,0,0,0,1.04821-1.81122,11.23463,11.23463,0,0,0,.23951-2.43347,6.36051,6.36051,0,0,1,1.00647-3.02826,12.09274,12.09274,0,0,1,3.14233-3.44763c.44586-.34839.88757-.65283,1.32733-.93616l.04608.03388c.23072-.14777.37421-.27161.25086-.22394.21765-.13336.4342-.25494.65033-.37231-.33094.29278.10589.381.56225.34448-.00415-.04407-.02813-.08771.42987-.36517-.193.01818-1.1206.42132-.7586.133a1.69244,1.69244,0,0,1,.87982-.32684c-.283-.00574.4942-.37793.58887-.5495a9.66624,9.66624,0,0,1,1.08447-.31543l.14917.08893.18463-.14124-.27643.03833a8.269,8.269,0,0,1,1.93915-.20416,7.10122,7.10122,0,0,1,1.29083.154c-.01141.00958-.00848.02258.03125.04346.13361.02685.27057.04242.40253.07879.32947.19379-.77393-.03839-.29114.13288-.54169-.047-1.12988-.004-1.87054-.04273l-.14783-.14459a1.96766,1.96766,0,0,0,.70593.03784c-.30371.04181-1.17651-.18286-1.49585.08338.1792.00164.35883.027.53461.03943-.52734.12255-1.12427.40356-1.75543.55456.32409.05432.1419-.06244.62658-.0116-.21807-.057.18122-.1618.55762-.22106.37421-.064.72565-.08808.39563-.17219.48377.15754.82459.0149,1.41.23371-.01391-.05194-.20214-.11774.31769-.03858a.48435.48435,0,0,1,.12006-.02691l.03448.00958-.02777-.01068c.02368-.00372.02594-.00494-.01037-.00385a1.12165,1.12165,0,0,1-.25873-.10937,4.25607,4.25607,0,0,1,1.418.1344c.296.13214-.14563.00915.00213.11969.14551.01929.29261.04028.43714.07373.0058.113.67663.53058-.01349.26874a5.71474,5.71474,0,0,1,.584.30584c.307.24726.72126.5763,1.00153.76319.22369.21808.67047.45978.41205.32611a9.39446,9.39446,0,0,1,.77057.74615l-.01545.02545a13.13952,13.13952,0,0,1,1.16779,1.62519.17478.17478,0,0,0-.07965-.07379c.12756.309.21887.53021.29858.72338a3.54868,3.54868,0,0,0-.19775-.611,4.36817,4.36817,0,0,1,.50861,1.27741,4.26525,4.26525,0,0,1,.40515,1.24811l-.07141.13244c.139.43732.0802,1.34833.17431,1.53839a18.43747,18.43747,0,0,0-.2843,3.10089l.12378.04706c-.03845.5708-.12524,1.08692-.23407,1.80341l.1192-.01721a25.4284,25.4284,0,0,1-.7301,2.50518.60516.60516,0,0,1,.03949-.25647c-.4292,1.0766-.46167,2.32038-.76721,3.33417a2.28325,2.28325,0,0,1-.08.68134.43238.43238,0,0,0,.00214-.07019.84616.84616,0,0,0-.01166.11554l-.07764.38983a2.95019,2.95019,0,0,0,.07514-.32752,7.25941,7.25941,0,0,0,.01458.8722l-.11718.13891.00518.07526c-.03674.32153.06311.25378.1496.0827a3.042,3.042,0,0,0,.08447.42114c-.16632.27.12781.82929-.00885,1.19892a8.10414,8.10414,0,0,0,.59986,1.61432,3.0152,3.0152,0,0,0,.31592.96691l-.095.19233c.14454.22235.30738.43347.46808.64251.08948.46387.11536.66932-.17022.28388a13.37266,13.37266,0,0,0,1.02594,1.56708l-.109.00579c.15527.30323.54535.70032.57831.91639a9.64283,9.64283,0,0,0,1.22357,2.05932,12.98383,12.98383,0,0,0,2.20471,2.57825c-.08533-.24048.08636-.06329.346.12518.25354.19593.65149.36078.7232.25122.11219.098.461.17957.05042.1825a3.68966,3.68966,0,0,0,1.45325-.12049,2.10006,2.10006,0,0,0,.93994-.52789c.14184-.00207-.14832.20246-.03357.18335a1.45278,1.45278,0,0,1,.37829-.25244c.11341-.02557-.09765.13519-.23309.24835.93384-.60455.82953-.87457.77429-1.06616a1.6367,1.6367,0,0,0,.8205-.81512c.16589-.09357.43579-.27369.00183.2199a5.07288,5.07288,0,0,0,.83459-.98852C46.81608,65.99349,46.91545,65.44057,46.83427,65.41036ZM36.11278,48.4457l.235-.69c.1045-.33911.17853-.717.24109-.85456.03351-.07568.06513-.08844.09589-.07928-.02576.28247-.054.55225-.08728.7959-.00318.0238-.0094.05383-.01288.07818l-.18927-.00927.16937.13006c-.03857.25214-.09143.533-.15625.83808A.35528.35528,0,0,1,36.11278,48.4457Zm.66363-4.88483c.01709.22278.02173.44934.02368.6767-.0462-.1872-.08856-.38654-.12048-.56018C36.71593,43.7015,36.75224,43.62563,36.77641,43.56087ZM30.53764,27.31405l.16541.04278C30.32323,27.36605,30.43071,27.34188,30.53764,27.31405ZM24.1187,36.09432c.239-.12555.477-.23956.71417-.3454A3.71745,3.71745,0,0,1,24.1187,36.09432Zm.95269-.44928.00147-.00311.03851-.01721C25.09831,35.632,25.0844,35.63765,25.07139,35.645Zm7.13862.94269.01818.00494C32.50072,36.851,32.40648,36.75594,32.21,36.58773Zm2.45,2.13959c-.556-.67749-.11743-.38782-.22986-.49372a3.27433,3.27433,0,0,0-1.09552-1.012,4.53864,4.53864,0,0,1-1.00342-.74628c-.36688-.4024.12854-.23553.08533-.38A5.18044,5.18044,0,0,1,33.5974,37.1755c-.12244-.1615-.26258-.30616-.39582-.46033a2.77275,2.77275,0,0,1,.72956.65778,1.45774,1.45774,0,0,0-.13269-.1847,10.30145,10.30145,0,0,1,.71942.82074,11.61813,11.61813,0,0,1,1.2395,1.96631A16.51485,16.51485,0,0,1,34.66,38.72732Zm.33282,14.00842.131-.17652.11255-.8034a9.49828,9.49828,0,0,1,.09393.98645c-.11706.44977-.19885.79571-.24072,1.028-.02716.12116-.03247.24555-.0556.36725A3.74419,3.74419,0,0,1,34.99278,52.73574Zm.021,7.06824c.01977.01916.03943.04541.05926.05224C35.0493,59.874,35.0623,59.967,35.01378,59.804Zm.74255,1.8684c.0741.027.14075-.03277.21057-.1004.07788.18829.15161.376.23749.56543C36.05406,61.98385,35.90159,61.83346,35.75633,61.67238Zm9.2049,6.159c-.11286.05573-.06452-.04669.01306-.207l-.11444.14825c-.13044.07483-.18055.07581-.19806.04718.13177-.10687.25567-.21307.37359-.31872l-.06109.12329.15362-.20215c.04962-.04565.09729-.09125.14435-.13666a2.99372,2.99372,0,0,0,.364-.21277A8.3248,8.3248,0,0,1,44.96123,67.83138Z"/><path class="cls-2" d="M35.14531,51.27736c.03094-.07757.04773-.16082.08319-.23645A2.37691,2.37691,0,0,0,35.14531,51.27736Z"/><path class="cls-2" d="M27.65782,35.60854c.01459.02673.11206.05682-.03949.07581.16052-.02692.32141-.06238.48364-.07825A2.55635,2.55635,0,0,1,27.65782,35.60854Z"/><path class="cls-2" d="M27.095,35.362c-.05792-.08722-.37518.00214-.71972.12213l.06219-.01672C26.37266,35.63143,26.72752,35.4825,27.095,35.362Z"/><path class="cls-2" d="M25.9738,35.61214c-.02252.06818.13245-.03283.32086-.10278Z"/><path class="cls-2" d="M30.44908,35.84347c-.20959.04852,1.06158.21545.21-.02509C30.51463,35.73769,30.52275,35.91024,30.44908,35.84347Z"/><path class="cls-2" d="M29.66594,35.05825c-.193-.04291-.38941-.07233-.58624-.099.0075.02142-.06867.03009-.16132.035C29.2838,35.0093,29.67448,35.096,29.66594,35.05825Z"/><path class="cls-2" d="M28.44224,35.00826l.47614-.014A1.94566,1.94566,0,0,0,28.44224,35.00826Z"/><path class="cls-2" d="M34.77446,38.55013q.2026.25405.39032.52033c.07159.03375.00079-.13239-.14881-.32544C34.90428,38.63143,34.75072,38.44472,34.77446,38.55013Z"/><path class="cls-2" d="M10.2249,46.85653a4.6647,4.6647,0,0,0,.16412.553,2.93617,2.93617,0,0,1-.06488-.37439Z"/><path class="cls-2" d="M10.84813,47.75466c-.0246.06628-.04755.13348-.06549.19958l.31616.19147A1.28332,1.28332,0,0,1,10.84813,47.75466Z"/></g></g></svg>