<svg xmlns="http://www.w3.org/2000/svg" viewBox="0 0 104.16942 117.48159"><defs><style>.cls-1{fill:#1d1d1b;}.cls-2{fill:#c66e6e;}</style></defs><title>Question_06</title><g id="Layer_2" data-name="Layer 2"><g id="Layer_1-2" data-name="Layer 1"><path class="cls-1" d="M103.12093,52.5457a50,50,0,1,0-60.06738,48.98584l4.3429,6.32794,5.72448,8.34107,5.72443-8.34107,4.34289-6.32788A50.01724,50.01724,0,0,0,103.12093,52.5457Z"/><path class="cls-2" d="M100.66942,52.91179c.058-.4627-.36866-.29681-.44055-.36608C100.28587,53.313,100.77928,52.89458,100.66942,52.91179Z"/><path class="cls-2" d="M100.94078,60.67324l-.15051-.16461a9.1622,9.1622,0,0,1,.21362,1.2041A7.56925,7.56925,0,0,0,100.94078,60.67324Z"/><path class="cls-2" d="M99.16148,67.72552c.86963-.44935.75452-2.53657,1.21424-3.74894l.20507-.17187-.43164-.7c-.1427.77014-.17419,1.69323-.34948,2.524A9.00365,9.00365,0,0,1,99.16148,67.72552Z"/><path class="cls-2" d="M96.376,70.75759c.34522-.10629-.09241.84479.41736-.77686a1.36145,1.36145,0,0,1-.12647.12046C96.61253,70.24318,96.53111,70.43639,96.376,70.75759Z"/><path class="cls-2" d="M96.66685,70.10119c.26673-.69214-.40295.36053,0,0Z"/><path class="cls-2" d="M95.42113,73.30431l.22668-.97629c-.23767.11472-.67578.86255-.63269.5264C94.67686,73.79574,94.91466,73.69311,95.42113,73.30431Z"/><path class="cls-2" d="M95.45409,74.36889l.14355-.50345C95.49449,73.91457,95.41112,74.02285,95.45409,74.36889Z"/><path class="cls-2" d="M95.90074,72.80544l-.3031,1.06c.16907-.07486.38428.01257.15906-.47827C95.90526,73.55944,95.823,73.27776,95.90074,72.80544Z"/><path class="cls-2" d="M96.25731,72.29491c.35241-.44613.71972-1.07672.56213-.0516C97.46214,70.43874,96.8867,70.51375,96.25731,72.29491Z"/><path class="cls-2" d="M99.74852,68.3164l.43176-.66922-.02637-.70676C100.166,67.29384,99.52171,68.29134,99.74852,68.3164Z"/><path class="cls-2" d="M92.06724,78.3966c.09363.13617.51282-.05429.71521-.011l.24207-.70905C92.7368,77.93667,92.28038,78.4804,92.06724,78.3966Z"/><path class="cls-2" d="M92.78245,78.38561l-.36657,1.06989C92.964,78.64358,92.956,78.42476,92.78245,78.38561Z"/><polygon class="cls-2" points="96.075 74.892 96.426 73.033 95.919 75.209 96.075 74.892"/><polygon class="cls-2" points="89.632 81.707 89.723 81.004 89.484 82.201 89.632 81.707"/><path class="cls-2" d="M87.90159,83.81457c.08338-.52848-.77685.12771-.593-.34531a7.25745,7.25745,0,0,0-.91309,1.789A4.47857,4.47857,0,0,1,87.90159,83.81457Z"/><path class="cls-2" d="M85.928,86.14586a6.93189,6.93189,0,0,0,.46753-.88763A3.66543,3.66543,0,0,0,85.928,86.14586Z"/><path class="cls-2" d="M91.24254,80.90978a1.22771,1.22771,0,0,0-.863.42157l.59766-.08179Z"/><path class="cls-2" d="M90.99718,81.24575l-.02.00381c-.29126.36518-.49341.61847-.58.727C90.473,81.88433,90.65355,81.66442,90.99718,81.24575Z"/><path class="cls-2" d="M91.30968,80.82439l-.06714.08539C91.30125,80.90185,91.32774,80.89022,91.30968,80.82439Z"/><path class="cls-2" d="M94.3275,77.24822c-.141.66812-.66126,1.97046.35888,1.03931C94.68968,77.73559,94.1096,78.26357,94.3275,77.24822Z"/><path class="cls-2" d="M92.06541,80.71175c.25782-.297.5398-.57828.7793-.88983-.10559-.044-.35327.04065-.28015-.29758C92.43065,79.93947,92.23106,80.31225,92.06541,80.71175Z"/><polygon class="cls-2" points="91.827 81.251 92.065 80.712 91.773 81.038 91.827 81.251"/><path class="cls-2" d="M87.602,85.02086a3.85981,3.85981,0,0,1-.99975,1.35752,8.02314,8.02314,0,0,0,1.48535-1.36026C88.05138,84.85747,88.06493,84.48165,87.602,85.02086Z"/><path class="cls-2" d="M89.33922,83.26473l-.056.09872C89.35655,83.33587,89.40233,83.30248,89.33922,83.26473Z"/><polygon class="cls-2" points="81.984 90.387 82.109 90.387 82.082 90.314 81.984 90.387"/><path class="cls-2" d="M88.22093,84.9887a1.68315,1.68315,0,0,0,.613-.913,11.40668,11.40668,0,0,1-.74634.94245C88.10411,85.09032,88.12828,85.12337,88.22093,84.9887Z"/><path class="cls-2" d="M84.8358,87.4489a8.18374,8.18374,0,0,0,.7865-.41876C85.344,87.10631,84.82713,87.304,84.8358,87.4489Z"/><path class="cls-2" d="M89.08067,83.41167l.03552-.06784C88.93724,83.40542,88.985,83.41955,89.08067,83.41167Z"/><path class="cls-2" d="M89.08067,83.41167a3.39724,3.39724,0,0,0-.2467.664,6.03792,6.03792,0,0,0,.44922-.71222A.74559.74559,0,0,1,89.08067,83.41167Z"/><path class="cls-2" d="M82.07432,93.7307c-.077-.191.12732-.542.48572-.906a3.52662,3.52662,0,0,1,1.44983-.97547c.736-.96441-.6991-1.48825-1.90137-1.462.07666.159.17908.28421-.59582,1.19708.44311-.07373,2.34387-1.219,1.78711-.31708-1.11633,1.13031-1.074.71949-1.83179.96424.83289.0379-1.25305,1.69748-.57007,2.11453l1.02539-.99048C82.01109,93.43255,81.689,93.86391,82.07432,93.7307Z"/><path class="cls-2" d="M83.85411,89.05141l.34009-.332a5.60554,5.60554,0,0,1-1.6211.6004c-.49023.63684-.52978.85669-.49157.99463l1.86157-1.409Z"/><path class="cls-2" d="M85.75133,87.26742c.028.56579-.69324,1.49786.1361,1.35656,1.01551-.99792.4795-.94635.96216-1.65735-1.57776,1.63178.3053-.61682-1.05175.32477a10.03853,10.03853,0,0,1,.80444-.913c-.33118.2395-.65943.45926-.98.65176l.05566-.01562.00672-.00821.00305.00641c.10705-.027.15283-.02518.05212.02679a.16153.16153,0,0,1-.028.03839.40782.40782,0,0,1,.03784.18778c-.53381.38086-.15064-.01194-.03784-.18778a.28378.28378,0,0,0-.02417-.06518l-.00977.0018c-.49353.56384-.97058,1.15228-1.48376,1.70486A10.81117,10.81117,0,0,0,85.75133,87.26742Z"/><path class="cls-2" d="M94.80321,79.83608a.10521.10521,0,0,1-.12378.00855C94.64244,80.00188,94.64146,80.07079,94.80321,79.83608Z"/><path class="cls-2" d="M94.07127,80.50667a1.36359,1.36359,0,0,1,.30518-.83416c.36377-.33319.17151.115.303.17212.08435-.347.36218-1.15079-.36878-.38682l-.03894.17109c-.59692.73419-1.76538,1.36264-1.71789,1.195A2.93183,2.93183,0,0,0,94.07127,80.50667Z"/><path class="cls-2" d="M90.09849,84.27065l-1.12475,1.56854.93262-.48037-.20044-.11219C90.5056,84.488,90.13866,84.48382,90.09849,84.27065Z"/><polygon class="cls-2" points="81.688 90.349 81.604 89.834 81.15 91.018 81.688 90.349"/><polygon class="cls-2" points="79.747 91.794 79.598 91.417 79.202 91.968 79.747 91.794"/><path class="cls-2" d="M5.03575,31.79729l.15894-.59085A3.62846,3.62846,0,0,0,5.03575,31.79729Z"/><path class="cls-2" d="M3.46849,35.88384l.14807.16248C3.58385,35.82247,3.53758,35.71856,3.46849,35.88384Z"/><path class="cls-2" d="M36.78587,97.13292c-.31421-.30346-.62671-.6596-.8678-.88336-.23156-.24878-.39721-.35891-.43786-.133l.06067.50174A3.912,3.912,0,0,1,36.78587,97.13292Z"/><path class="cls-2" d="M6.2556,70.23919l-.02844.27462c.217.13413.42016.25971.60461.37366C6.6577,70.69167,6.46153,70.47091,6.2556,70.23919Z"/><path class="cls-2" d="M4.34788,70.30214l-.08459-1.18576A6.40705,6.40705,0,0,0,4.34788,70.30214Z"/><path class="cls-2" d="M18.82262,12.40047l.24462-.817C18.23668,12.33819,18.748,12.17586,18.82262,12.40047Z"/><path class="cls-2" d="M57.56993,105.51992a9.56538,9.56538,0,0,0-1.23987,1.344C57.02989,106.2842,57.73717,105.91469,57.56993,105.51992Z"/><path class="cls-2" d="M8.69078,35.08419c.04248-.34558.01013-.51492-.083-.54184C8.557,34.89828,8.56712,35.113,8.69078,35.08419Z"/><path class="cls-2" d="M55.146,108.59188c.10815-.08078.19727-.17182.301-.25833a9.12021,9.12021,0,0,1,.88305-1.46967A3.09421,3.09421,0,0,0,55.146,108.59188Z"/><path class="cls-2" d="M95.71751,21.976c.02185.062.05982.12833.07532.18759C95.852,22.14486,95.80247,22.07284,95.71751,21.976Z"/><path class="cls-2" d="M100.69371,45.82857c-.06128-.22192-.11792-.58972-.17651-.93576A3.59614,3.59614,0,0,0,100.69371,45.82857Z"/><path class="cls-2" d="M71.11973,96.24532c.45618-.23459.05567-.07733,0,0Z"/><path class="cls-2" d="M74.13023,96.78411a.2897.2897,0,0,0-.10388.27685A.37066.37066,0,0,1,74.13023,96.78411Z"/><path class="cls-2" d="M54.2877,114.6144l-.02734.03723C54.37877,114.62932,54.35826,114.63064,54.2877,114.6144Z"/><path class="cls-2" d="M71.901,96.113a4.72854,4.72854,0,0,0-.64953.14837A4.89363,4.89363,0,0,0,71.901,96.113Z"/><path class="cls-2" d="M71.72508,95.96682l.42542-.14331C72.18016,95.73119,72.11,95.71258,71.72508,95.96682Z"/><path class="cls-2" d="M70.47764,96.55785a5.72838,5.72838,0,0,1,.77381-.29645c-.10315.01392-.15088.00843-.13172-.01608C70.98448,96.31112,70.79368,96.404,70.47764,96.55785Z"/><path class="cls-2" d="M56.26524,1.38839c.03589.01553.07764.02646.11634.04706C56.95311,1.28411,56.70543,1.30031,56.26524,1.38839Z"/><path class="cls-2" d="M22.35484,94.48058c.02332.01285.0409.01233.06275.023l-.056-.0639Z"/><path class="cls-2" d="M20.57017,93.476a2.35988,2.35988,0,0,1,1.79139.96366l.23034-1.4137Q21.59728,93.26368,20.57017,93.476Z"/><path class="cls-2" d="M10.03368,22.59316a10.36865,10.36865,0,0,0-1.12928.97107,7.96425,7.96425,0,0,1,.71021-1.92944c.14306-.348.06445-.3798-.57154.01526.247.23748.16492.64379-.07556,1.13476a14.27986,14.27986,0,0,1-.90539,1.73895c-.70313,1.22162-1.4021,2.44583-.85742,2.855a9.394,9.394,0,0,0-.68323.70468c.12988-.23815.07825-.31494.2074-.55038-1.38331,1.36572.27514,1.68372-.90967,3.70023-.44788.69174-.87781,1.13339-.78345.56405-.17773.58893-.23486,1.22483-.35535,1.82956-.20715.48831-.38318.28317-.176-.206l-.85694,2.65759-.03088-.03207c.05737.44043.07007,1.38156.12329,1.849-.36218.62335-.05029-.38117-.25732-.2565L3.4171,39.20907c-.496.51519-.50879-.80622-.192-1.82788-1.66565,1.02975.00806,1.324-1.53369,4.15805l.19653-1.46442a3.1261,3.1261,0,0,0-.98169,1.44287c-.23315.58655-.35388,1.28717-.73132,2.08307.15442-.17911.58167-.96411.97742-1.47006.4093-.50522.80688-.73041.79712.12121a3.78361,3.78361,0,0,0-.18311,1.99472c-.4779-.06927-.4956.82856-.634,1.92768l-.62354-.15284c-.005,1.22052.33655,1.15821.59156,1.88791A2.03582,2.03582,0,0,1,.02708,49.77779c-.20971,2.15375.86756-1.44281.86109,1.09848-.39038,1.76737.00879,3.03446.46863,5.11447-.164,1.25043-.40015-.1893-.56275.26667.19067.35577.36316.70947.56848,1.05691.023.26676-.14441.196-.229.15952.31787.89691.64624.017,1.00818,1.42114.761.26666-.69348,3.10382.56848,4.69946-.08106.46927-.42957-.12408-.64209.05939a12.45335,12.45335,0,0,0,2.07861,3.71l.11658,1.75253c.09375-1.35281,1.06274.02341,1.99231,1.12281.0387-.47742.12268-.89676.14221-1.164a21.6247,21.6247,0,0,0,1.1023,1.87835c.00195.278-.2837.16333-.66834-.0661.10571.117.208.22672.29443.309.07789.80271-.41442.58033-.96313.19129.01392-.29474.0376-.589.06409-.874-.5802-.35418-1.15772-.69235-1.46534-.45986a3.66747,3.66747,0,0,1,.42786.6217c-.15369-.09567-.27746-.14822-.31164-.06394-.03406.09385.18835.261.48022.53867l-.46716.734.31042.00912c.2461.95826.46387,1.93924.74512,2.89975a46.25639,46.25639,0,0,1,5.34485,5.24411c-.86865-.395-.80921.31818-1.34986.62238A2.436,2.436,0,0,0,9.05968,79.035c-.25245-.28286-.55225-.56958-.80433-.90261A5.8505,5.8505,0,0,1,7.614,77.02859c.35681.83416.00818.80358-.18982.64694a29.64133,29.64133,0,0,0,2.10058,2.35568c-.46582.21164.03016.75851.29151,1.56152.26184-.54394.67785-.12732,1.217.47455a22.27082,22.27082,0,0,0,1.66687,1.82688c-.218.26907-.67175.23959-1.53479-1.0355.44336,1.80268,2.21448,1.04944,2.771,2.69629-.2539-.27148-.35107-.44967-.56665-.46274.786.47306,2.03577,2.18763,1.48279,2.01987l-.25427-.27276c.39221.48117.90454,1.07406,1.46558,1.68649.59179.58212,1.2644,1.15231,1.89184,1.66855a12.15264,12.15264,0,0,0,1.73584,1.23327c.52368.25357.92883.36325,1.13526.25586a3.895,3.895,0,0,1-1.13672.62494q1.33209.14712,2.61767.25446a23.52722,23.52722,0,0,0,2.56092.12506c-.745.37481-.506,2.64474-2.451,1.81561A5.81,5.81,0,0,0,24.57982,95.921c-.2843-.31439-.24365-1.43176.24621-1.18549a10.2701,10.2701,0,0,0,1.83557,2.52265c-.45-.42746.72876-1.08408,1.52442-.60413-.21387.07782-.48731,1.02258-.85364.95661l2.60913.15329c-.6051-.10178-.53332.79437-.203,1.338-.14588-.2656,1.87646.87778,2.50537,1.04062l-.818-.64908c2.40405,1.25244,3.01086-.33426,5.43408.53586a.872.872,0,0,0,.02038,1.669c.389-.185,1.23914-.57824,2.27332-1.00067a11.74407,11.74407,0,0,1,1.64868-.5654,4.64946,4.64946,0,0,1,1.94934-.13769c.15442.15188.29053.29877.418.44369l.60144.054c.13159.123.2572.26047.38916.39453l.80957.84836c-.387-.181-.89038-.42584-1.3927-.62067-.0636-.02331-.124-.05069-.19018-.06851l-.27027.05325-.52612.11533c-.34253.08072-.66541.16925-.95288.26565a21.99373,21.99373,0,0,1-3.51294.79429c.89819.52645.16162.44992,1.64477.799.44666.43033-.93017.2493-1.37585.15509l1.71191.5332.856.26529.136.08276c.106-.29065.451-.49887.67627-.34384.1333.05768.25122.09918.41308.17707.20777.14456.37769.20648.47486.10058-.10279-.09848-.23938-.24618-.31446-.30426l-.2019-.14029q-.19611-.13175-.36865-.22919a4.611,4.611,0,0,0-.46912.05976l-.18457.045a.4998.4998,0,0,1-.18066.00006l-.24439-.0162c.00171-.17246.16663-.34061.44629-.4856a2.01465,2.01465,0,0,1,.80139-.43085c.09241-.02554.19129-.04794.29578-.0668l.161-.02566a.40981.40981,0,0,1,.11816.05316,2.92216,2.92216,0,0,1,.48267.34637,5.8169,5.8169,0,0,1,1.03992,1.2764c.12524.65533-1.24536.30026-1.40186.46841a5.575,5.575,0,0,1,1.64441,1.905l-.873-.637c.54834,1.24591,1.96985,1.29556,2.35047,2.98392.27844.48165.22351,1.85565.60583,1.70956.12049-1.18008,1.977-2.66873,2.79334-2.49747a24.32416,24.32416,0,0,1,1.08239,3.54282c.01307.5506-.42785.54138-.962.37768-.49036-.09988-.98157-.21975-.97449.247a.6012.6012,0,0,1,.40759.09369,3.3068,3.3068,0,0,1,.48108.34769c.3291.75656-.62719.09152.46436,1.53531.58044-.35892,1.97424,2.97839.79651.14227.98755,1.09476.90283,1.56314,2.01916,3.13718-.1615-.67432.25305-.85648.64405-.95069a20.55994,20.55994,0,0,1,.84667-2.33725.39481.39481,0,0,0,.32007.42075c1.45386-2.00964,2.57618-3.09814,3.89173-5.00458.25952-.08648,1.07055-.91516,1.03723-.34811a3.32751,3.32751,0,0,1,.47925-1.34894c1.28552-.83151-.84546,1.39414.3479.90671-.27454-.29993.61792-1.86609,1.00219-2.86347-.68554-.08242-1.45629,1.91468-1.84179,2.91312-.69849-.47345-.40125-2.46823.67712-4.729.93994-1.73981.932-.39423,1.02625-.74369a9.72021,9.72021,0,0,0,.66357-1.00189c.17053-.29977.36719-.67258.49732-.96982.13952-.31076.25231-.60388.35449-.88906a2.69176,2.69176,0,0,1,.574-.42951,7.32459,7.32459,0,0,1,.6405-.38165c.11866-.0622.24451-.12323.37977-.18274l.34545-.15024a4.74463,4.74463,0,0,1,1.65906-.31073c1.2926.23145.34363,1.01627.70215,1.32629a5.77217,5.77217,0,0,1-1.9198.386,8.3407,8.3407,0,0,0-1.7699.20838l1.54248-.12442c-.467.37182-1.58117.48168-1.8601,1.09591a1.93407,1.93407,0,0,0,.42175-.36093l.06226-.06546.10314-.01324.21644-.03162.47009-.08231c.6427-.12127,1.46826-.31717,2.33911-.52566a26.76368,26.76368,0,0,0,2.65332-.75687,22.58929,22.58929,0,0,1,2.42688-.62143c.41443-.34463,1.132-.894.67432-.919-.26587.14025-.52442.3-.79737.42474-.47278-.077-.11438-.324.18286-.6026.303-.26715.57727-.49.02735-.35581a10.69608,10.69608,0,0,1,3.56824-2.2153l.5531.39493c-.11-.12985-1.119.19806-1.47828.53153.52991-.46622,2.6554-.45859,2.95154-1.51618l-1.224.18936a14.66871,14.66871,0,0,1,3.12268-2.719c-.86975-.14972-.24194.2507-1.46325.20364,1.22668.32947-3.22657,1.73117-1.53321,1.857a2.74337,2.74337,0,0,0-1.55627.208,4.15389,4.15389,0,0,1-1.752.275c.12243.167.60168.15573-.53479.55173a1.21878,1.21878,0,0,1-.16944.27035L71.901,96.113l.07007-.00507c-.03564.049-.03735.0567.02588-.00244a1.444,1.444,0,0,1,.68616.03156c-.36157.661-2.132,1.4779-2.69348,1.86227-.72107.14664.20678-.31638-.24292-.38974l-.80689.65811c-.24658-.39056-2.03955-.08459-.53271-.88391l-1.43311.475a7.12287,7.12287,0,0,0-2.80957.56454,4.88915,4.88915,0,0,0-.86218.24957c-.34106.12406-.63623.25376-.85535.35614-.4375.20475-.60193.30841-.16516.018-.77929.03549-1.00268.84637-1.38061,1.41022l-.52491.88772-.30017.5604-.10571-.0445c-1.442,2.00122-2.25952,4.60663-4.52331,6.47263-.18824.37439-.37513.758-.62635,1.18225-.12561.2121-.26733.43432-.43323.67059a1.54038,1.54038,0,0,1-.2622.29318,2.76666,2.76666,0,0,1-.3114-.233c-.04212.18125-.2323.28653-.35266.3498-.12635.07165-.20069.1271-.21473.50527a4.86969,4.86969,0,0,0-.12548-.48925c-.08045-.48893-.1344-.514-.26819-.59653a1.24281,1.24281,0,0,1-.21118-.14072.50514.50514,0,0,1-.089-.09909c-.11524-.16931-.24488-.37317-.33558-.53933l-.45837.2286a27.45092,27.45092,0,0,0-2.59973-3.22452l-.31372.33487c-1.08521-.93039-1.74634-3.10794-3.02039-4.88308.22547.02551.502.50769.63843.88955A5.76953,5.76953,0,0,0,45.354,100.394l-.49134-.67486-.25109-.327c-.09278-.09518-.2677-.07126-.39734-.11136l-1.67676-.26944-.40051-.0585-.24207-.0184-.48132-.04035c-.31922-.02969-.63416-.06656-.94007-.11993a3.47384,3.47384,0,0,1-1.66333-.65372,2.29063,2.29063,0,0,1-1.28979-.45151.44573.44573,0,0,0,.13965.02335c-.05274-.024-.13343-.05273-.2168-.0805-.20972-.1539-.421-.32166-.65735-.47883a3.18808,3.18808,0,0,0,.53955.43976,12.53927,12.53927,0,0,0-1.70886-.40008l-.07568-.55432-.14051-.04782c-.50634-.42066-.55163.00344-.37805.47729A4.17324,4.17324,0,0,0,34.123,96.965c-.15918-.92169-1.67786-.4596-1.968-1.49408-.58166.19552-2.99353-1.28916-3.741-.71619.03613-.10651-.1073-.24551.20813-.07989A6.13025,6.13025,0,0,0,26.787,93.59627l.07459-.68622-1.79236-.20516c-.60279-.84955-.79724-1.238.27148-1.09333-2.29065-.78341-1.63452-.92184-3.65466-1.58435l.3302-.24313c-.58362-.39771-1.74744-.8049-1.84326-1.34-.32019-.82721-1.76734-2.1311-3.21277-3.87485-.37244-.42431-.75769-.86312-1.14685-1.30645-.3429-.4802-.68921-.96521-1.0315-1.44458a13.95017,13.95017,0,0,1-1.67529-2.88129c-.55871,1.29681-.55823-1.86093-1.4093-1.51508.109-.34228-.05432-.89016.49853-.46609a7.26124,7.26124,0,0,1-1.17822-2.16736,3.3826,3.3826,0,0,0-1.23425-1.62067c.14221-.32568.56653.21225.6178-.0429-.12488-.11908-.52649-.46414-.44361-.73542.07215-.25988.313.18238.58338.40632C9.657,70.948,8.83226,71.05956,8.02318,71.22725a2.39047,2.39047,0,0,0-1.07959-2.15853c.13073-.44928.20251-1.12754.68664.092-.17029-.73188-1.03467-4.38352-1.59826-4.3165a2.1825,2.1825,0,0,0-.29468-1.19751c-.15674-.818-.24207-1.26328-.32666-1.70456-.09412-.43918-.19531-.87235-.31482-1.68146l-.04346.46695c-.84631-.51913-.35022-1.33237-.61743-2.631l.08362.02869a8.05156,8.05156,0,0,0-.04761-2.17173,5.00512,5.00512,0,0,1,.11939-2.139l-.47217.1759c-.51282-.124-.4198-.80539-.18579-1.655a6.1219,6.1219,0,0,0,.48535-2.73831l-.30518.61386c-.15222-.48587.23194-1.13754.674-1.76105.22425-.30783.45288-.62161.6576-.90243a2.5712,2.5712,0,0,0,.46545-.76587c.11987-.18891.09424.33291.11719.61777.97278-2.31662-.57593-.38193-.44361-2.21012.38526-.27884.78772.55338,1.03186-.63351a1.64428,1.64428,0,0,0,.0785-.82782,9.65723,9.65723,0,0,1-.04493-1.4,5.59555,5.59555,0,0,1,.66565-2.92437c-.34179.28277-.686.57556-.66247-.30686a3.73919,3.73919,0,0,1,.39087-1.0556c.21826-.35892.45251-.74426.68274-1.12286a3.12721,3.12721,0,0,0,.61206-2.23121c.12316-.1297.20788-.16265.27038-.14477A11.49993,11.49993,0,0,1,9.154,32.525a5.0631,5.0631,0,0,0,.33667-1.82159c.4718-.0253.82922-.4068,1.12243-.958a15.77346,15.77346,0,0,0,.90723-1.8909c.56055-1.341,1.06067-2.61722,1.68628-2.17727l1.77-2.50647.0758.15945a6.8786,6.8786,0,0,0,1.648-2.98975c.38587-.26974.26709.07276.302.15342a15.70509,15.70509,0,0,0,2.09729-2.08734,13.18545,13.18545,0,0,0,1.48986-2.24344l.51612.20044a2.4087,2.4087,0,0,1,.71179-.66025c.19006-.13535.40124-.29288.645-.44721.25281-.14233.52673-.29654.81518-.45889a20.73219,20.73219,0,0,0,1.78284-1.129c.601-.4147,1.13928-.939,1.68018-1.39569a.42008.42008,0,0,1-.14136.3451,9.747,9.747,0,0,1,2.12817-1.35972,16.01277,16.01277,0,0,1,2.37537-1.00018c1.55591-.53467,2.78845-1.08972,2.95788-2.17337.57789-.42313,1.19629-.76669,1.80152-1.15823-2.631.81234.102-.871-1.07288-.76059,1.00391-.48007,2.8451-.46161,1.618.08633l-.22717-.013c-.13782,1.04282,3.31384-.86856,3.45813-.13061,5.1211-1.63211,10.43421-1.51947,15.33667-1.33255l-.54993-.76044,1.74756.13058c.44873.193.5719.60175-.6582.50956.62024.44671,2.09265-.24335,2.15149-.39963,1.20215.24734.93066.48465.4751.57495-.46143.13226-1.12451.26077-.75708.28216a6.61694,6.61694,0,0,1,1.00036.03449l-.21386-.11954a3.99113,3.99113,0,0,1,2.423-.214c.9115.287.405.51795.76587.60141-.01087.05069.10754.09339.5553.10529a14.35887,14.35887,0,0,1,2.10815.51773l-.71924-.78214c1.004-.03427,2.00025.547,1.16284-.34411a4.74592,4.74592,0,0,0,1.75477.95395c.40234.14786.84545.28885,1.30749.42523.44751.18262.91382.36063,1.37781.53174.93152.33328,1.84607.66052,2.58154.9237a4.63411,4.63411,0,0,1,1.42261.73627,8.74458,8.74458,0,0,1,2.0282.57977,10.47454,10.47454,0,0,1,2.05468,1.0676c-.29626-.321-.20227-1.02295,1.01563-.18964-.56506.44031-.07.91178.6217,1.44684.68677.54264,1.60938,1.11341,1.771,1.88883-.465-1.14466,3.34936,2.30917,2.59961.61483.90307.80976-.24829.44059.28369,1.23078A15.382,15.382,0,0,1,86.78,18.16552c1.09107,1.24572,2.0708,2.68429,3.33069,3.90454.1676-.06479-.0011-.69571.678-.27133l.4198,2.03189c.47864.49569,1.20117-.08826,1.46643,1.28335.0144-.22732.03467-.57226.36255-.22839a11.06823,11.06823,0,0,1,.6156,1.15628l.60632,1.16385c.41687.76846.858,1.52383,1.31568,2.2738q.58979,1.17806,1.183,2.36286c.37939.79663.8645,1.55188,1.16528,2.3872a22.72234,22.72234,0,0,1,2.15076,10.32584c.19507-.98743.32166-.37588.44312.3374.00964-.47784.43042-.05935.65185-.18823l-.21777,2.99554c.68408.47519.20056,3.13367.84863,3.41666l-.16125-.93225c.80993,1.23505,1.568-1.85309,2.53076-1.76758a2.09136,2.09136,0,0,1-.2594-1.24075,14.24228,14.24228,0,0,1,.10742-1.54947,4.8218,4.8218,0,0,0-.6471-3.44272c.07361-.56036.39441.38428.54847.06207a3.93409,3.93409,0,0,1-.97022-2.58694l.13709.12549c-.26514-.93094-.46582-1.73471-.63135-2.48645-.21607-.736-.42554-1.411-.61182-2.11219a30.27208,30.27208,0,0,0-1.57458-4.92l-.28821.49326a5.372,5.372,0,0,1-.387-1.5643c-1.10852-.64664,1.10766,2.3919-.03418,1.84674.14856-.7443-.49475-2.2782-1.27429-3.67212-.81177-1.37876-1.58387-2.71784-1.347-3.38086-.759-1.23956-.22156.65262-.99976-.56269l.01526-.475-.53149-.07413c-.51172-.79095-.501-1.39517-.32178-1.57468a5.6975,5.6975,0,0,0,.618.67383c-.47693-1.19552-2.1654-2.757-2.38855-3.11612a12.34931,12.34931,0,0,1,.72888,1.21152c-.61718-.77841-1.38281-1.49963-2.10253-2.29224-.73975-.77377-1.43946-1.62216-2.229-2.37478-.811-.731-1.62732-1.45105-2.44128-2.11859-.41114-.32868-.80384-.66553-1.22681-.94486-.43371-.26611-.86474-.51443-1.29126-.73971l.09314.34915a7.96171,7.96171,0,0,1-2.14563-1.53394,9.1516,9.1516,0,0,0-.78345-.73092,14.1629,14.1629,0,0,0-1.53869-.92023l.127.01486a6.83615,6.83615,0,0,1-2.16724-.9538c.81775.18949-1.04577-1.228-.00231-.9342-3.01551-1.05279-1.57166-.39719-3.77759-.558l-.27246-.54227a7.0053,7.0053,0,0,1-.91529-.0033,13.54756,13.54756,0,0,1-1.45813-.35486c1.32874.14841-.7362-.87179.78455-.76171a9.13218,9.13218,0,0,0-3.66931-1.38865c-1.00037-.20651-1.80286-.21936-2.387-1.00677-1.74328.61121,2.63465,1.2659,1.74427,1.26733.57666.51462-1.42566.4079-2.38928.06757a4.34249,4.34249,0,0,1-1.4087-1.0459,5.88567,5.88567,0,0,0-1.0354-.71893A6.33774,6.33774,0,0,0,61.93333,1.401c.2638.04544.29541-.02832.55909.01666-.95862-.41207-2.00367.05149-3.16956-.555-.75012.48163-1.5929-.21145-1.86072.57266a17.50976,17.50976,0,0,1,2.44556.09519c-1.40735-.06159-2.75891.84134-4.97888.27789a4.52562,4.52562,0,0,1,1.33642-.42c-.65454-.26691-1.28686.08993-1.96863-.184C54.5172.438,57.27684,1.14409,58.82408.69509c-.6925-.44464-2.88464.40448-2.066-.42847A2.24211,2.24211,0,0,1,54.76744.611a3.76722,3.76722,0,0,0-2.5105.21237l.11292-.48043a5.34542,5.34542,0,0,1-1.411.35693l.94567-.663c-1.46179.60382-2.90283-.32831-4.32128.062,2.99694-.20078.723.52615,2.005.79986a6.22627,6.22627,0,0,1-1.91748.19272A2.659,2.659,0,0,1,46.63341.81218C46.01475.541,45.31322.22878,43.27147.65886c.54907-.153,2.13476-.03942,1.30261.31034A11.45071,11.45071,0,0,1,42.19359.82927c-2.64783.77765.51281.37238-.55664.94626-1.0304-.33288-1.24573.56211-2.33631,1.03424l-.1372-.46283c-1.54932.23188-1.67249.53833-1.75074.83558-.08325.28915-.12634.55474-1.48205.85119l.88684-1.0358-1.31079.66263.09839-.6203A9.3898,9.3898,0,0,1,32.248,4.4829c.46033.156.1637.8913-1.04919,1.492-.96.14431.27356-.64115-1.44251.26275a1.45978,1.45978,0,0,1,1.48755-.979c.01184-.18024.26538-.4635.28333-.64429a10.82465,10.82465,0,0,0-2.97974,1.35794,3.08562,3.08562,0,0,1,.74487-.235l-1.11865.91848L27.13194,7.67739c-.46972.07306-.244-.23413-.01452-.53977-.4657.34327-.69141.73951-1.38611,1.21039-.0199-.44662-.28052-.7626.66089-1.54959L24.29344,8.584a3.7125,3.7125,0,0,0-.78979.11658c-.29078.07456-.528.11334-.426-.05255a8.81291,8.81291,0,0,0-1.99988,1.81183,14.78413,14.78413,0,0,1-2.24731,2.051,1.751,1.751,0,0,1-.41089.6492c-.72205.59537-1.47315,1.08615-2.20581,1.66782a7.5667,7.5667,0,0,0-1.9093,2.34189l-1.37757.47153c-1.05151,1.39813,1.81116-.67991.0763,1.62921-1.06751,1.74783-.92945.22674-1.52039.67743a14.379,14.379,0,0,1-.72888,1.9747,7.33331,7.33331,0,0,1-1.59106,2.12069A5.96329,5.96329,0,0,1,10.03368,22.59316ZM1.96434,42.2134c-.03259-.42481-.10754-1.29053.23743-1.52216C2.63145,41.2727,2.25963,41.55446,1.96434,42.2134ZM6.5648,73.39766a1.74588,1.74588,0,0,1-.40039-1.22818A3.61819,3.61819,0,0,1,6.5648,73.39766Zm59.363,25.045a.21367.21367,0,0,0-.03284.03229C65.03087,98.49666,65.33909,98.49621,65.92784,98.44268Zm1.7334-.301c.146-.1217.11377-.1813.02319-.22128-.07763.15607-.44726.29279-.87964.40674C66.958,98.40761,67.199,98.4164,67.66124,98.14165ZM61.58287,5.26946l-.31738-.176C62.057,5.07338,61.81969,5.16417,61.58287,5.26946Z"/><path class="cls-2" d="M4.56847,70.30974a.452.452,0,0,1,.19335-.25579C4.63707,69.92934,4.54747,69.957,4.56847,70.30974Z"/><path class="cls-2" d="M18.7783,12.55068l.05213-.03989a.20707.20707,0,0,0-.00781-.11032Z"/><path class="cls-2" d="M48.61473,113.11214a1.78342,1.78342,0,0,1-.30652-.88669c-.05456.025-.07812.08686-.05041.20411a1.14859,1.14859,0,0,0,.08227.21966C48.40294,112.76836,48.49913,112.92989,48.61473,113.11214Z"/><path class="cls-2" d="M75.777,93.74953l-.90845.64459a2.35081,2.35081,0,0,1,.94861-.34277C75.74107,93.96444,75.4785,93.9229,75.777,93.74953Z"/><path class="cls-2" d="M85.59776,90.60256c.09534-.15189.28369-.22769.363-.39383l-.18128-.137C85.237,90.5523,84.94163,90.996,85.59776,90.60256Z"/><path class="cls-2" d="M77.47642,94.64394c.27234.29117.87049-.12082,1.48218-.65533a1.04967,1.04967,0,0,1-.118.07885C78.73778,93.45934,78.13988,94.09618,77.47642,94.64394Z"/><path class="cls-2" d="M79.10618,93.87365a4.77747,4.77747,0,0,1,.61158-.42032C79.67149,93.21074,79.44273,93.57976,79.10618,93.87365Z"/><path class="cls-2" d="M69.66942,97.16436c.38769-.02277.037-.56079.29248-.474C70.1754,96.07036,67.84813,98.07793,69.66942,97.16436Z"/><polygon class="cls-2" points="78.73 95.48 78.217 95.19 78.02 95.76 78.73 95.48"/><path class="cls-2" d="M72.80247,98.07287l1.24915-.40345c-.05335-.06817.07739-.1802.24683-.29666C73.55748,97.6838,72.71556,97.949,72.80247,98.07287Z"/><path class="cls-2" d="M74.29845,97.37276a2.96341,2.96341,0,0,0,.91662-.50808C75.01951,96.97777,74.577,97.17763,74.29845,97.37276Z"/><polygon class="cls-2" points="77.23 96.477 76.839 96.573 76.01 96.988 77.23 96.477"/><path class="cls-2" d="M60.62718,104.43831l-.69238,1.26261c.05908.21759.36658-.045.61218-.5235C60.64232,104.82689,60.88841,104.351,60.62718,104.43831Z"/><path class="cls-2" d="M64.10338,102.23488a1.22411,1.22411,0,0,1-.37952-.07754.46569.46569,0,0,0-.28589-.06287l.37537.55072C63.81969,102.40151,63.99156,102.373,64.10338,102.23488Z"/><path class="cls-2" d="M61.96556,105.16918c.0614.21524-.7688,1.99441.22668.47494C62.13353,105.42757,62.82762,104.16338,61.96556,105.16918Z"/><polygon class="cls-2" points="48.665 110.175 48.878 110.471 49.688 109.852 48.665 110.175"/><path class="cls-2" d="M33.70457,101.54928c1.59876.83184.62171-.44349,2.03455.37164.47241-.09131-1.15393-.66177-.67835-.71741C33.95775,101.11248,33.50047,100.72573,33.70457,101.54928Z"/><path class="cls-2" d="M35.06077,101.20351a5.55785,5.55785,0,0,0,.56592.03186A2.52389,2.52389,0,0,0,35.06077,101.20351Z"/><polygon class="cls-2" points="100.524 49.686 100.365 50.732 100.672 50.047 100.524 49.686"/><path class="cls-2" d="M101.38133,51.66445l-.63611.25665.62036.62461C101.3242,52.30749,101.24425,51.84807,101.38133,51.66445Z"/><path class="cls-2" d="M.18919,45.16372l.1416.10922c.19434-.1554.24756-.42194.35584-.956Z"/><polygon class="cls-2" points="5.084 30.23 4.955 30.468 5.705 30.263 5.084 30.23"/><path class="cls-2" d="M11.44823,18.60265c-.34717.42075-.62891,1.01407-.976,1.4361C11.10313,19.01992,12.10423,18.94744,11.44823,18.60265Z"/><path class="cls-2" d="M45.44554,76.97085c.00806-.05079-.09631-.03254-.11523-.04023C45.35545,77.01742,45.47276,76.9681,45.44554,76.97085Z"/><polygon class="cls-2" points="45.716 77.759 45.84 77.855 45.76 77.766 45.716 77.759"/><path class="cls-2" d="M45.74913,78.04c.0614.15784.2196.32709.21387.45056.14074-.12653-.11853-.24609-.09424-.3963l.03369-.03174Z"/><path class="cls-2" d="M45.75291,78.92849l-.00793.024a.45368.45368,0,0,1,.03308.0766C45.82847,78.97414,45.87327,79.087,45.75291,78.92849Z"/><path class="cls-2" d="M45.745,78.95247c-.04248-.0755-.02783.07575,0,0Z"/><path class="cls-2" d="M45.828,79.33187c.08777.08618.11.04272.1361-.04785l-.10925-.06793C45.83031,79.25637,45.87242,79.35018,45.828,79.33187Z"/><path class="cls-2" d="M46.12913,79.30782l-.05175-.03485C46.06724,79.29049,46.06981,79.30691,46.12913,79.30782Z"/><path class="cls-2" d="M46.03282,79.23482c.05054-.01788-.00488-.01288-.063-.03979l.10755.07794C46.09422,79.24434,46.14366,79.21425,46.03282,79.23482Z"/><path class="cls-2" d="M45.95994,79.12191c.0033-.07245-.00769-.15424.09534-.0857C45.94212,78.86306,45.83971,78.94417,45.95994,79.12191Z"/><path class="cls-2" d="M46.14805,78.45931l.02332-.08868-.07837-.04029C46.13182,78.35036,46.09752,78.48379,46.14805,78.45931Z"/><path class="cls-2" d="M46.27794,79.91341c.03418-.01794.057-.09143.0907-.12713l-.08387-.038C46.28819,79.79769,46.31908,79.874,46.27794,79.91341Z"/><path class="cls-2" d="M46.36864,79.78628l.12512.054C46.43443,79.75216,46.39781,79.75557,46.36864,79.78628Z"/><path class="cls-2" d="M46.32933,79.25045l-.021-.02985-.21484-.097C46.17174,79.169,46.24876,79.2123,46.32933,79.25045Z"/><polygon class="cls-2" points="46.465 80.283 46.647 80.284 46.577 80.275 46.465 80.283"/><path class="cls-2" d="M46.802,80.4847c-.08777.01636-.03614.13654-.10633.131a.44437.44437,0,0,0,.25025.05628A.22327.22327,0,0,1,46.802,80.4847Z"/><path class="cls-2" d="M46.58873,80.15l.04919-.10632-.02929-.03638A.16329.16329,0,0,0,46.58873,80.15Z"/><path class="cls-2" d="M46.63939,80.04012l-.00147.00354.06189.07959Z"/><path class="cls-2" d="M46.61143,79.4609c-.08691.00372-.08361.0982-.21606.06659C46.48448,79.55013,46.61534,79.62374,46.61143,79.4609Z"/><path class="cls-2" d="M46.52379,79.81252l.14184.05579-.059-.11048C46.58617,79.7773,46.5681,79.82088,46.52379,79.81252Z"/><polygon class="cls-2" points="46.666 79.868 46.689 79.909 46.731 79.892 46.666 79.868"/><path class="cls-2" d="M46.989,80.463a.32344.32344,0,0,1,.17114.07874.97961.97961,0,0,0-.13464-.16852C46.99534,80.39071,46.93138,80.41256,46.989,80.463Z"/><polygon class="cls-2" points="47.673 80.952 47.675 80.93 47.663 80.944 47.673 80.952"/><path class="cls-2" d="M46.92161,80.29854a.52227.52227,0,0,1,.10389.07465c.01367-.00787.02111-.01453.00537-.02252C47.00731,80.29928,46.96666,80.29622,46.92161,80.29854Z"/><path class="cls-2" d="M47.22069,80.66121c-.0022.04425.00842.12055.03418.10547A.84192.84192,0,0,0,47.22069,80.66121Z"/><path class="cls-2" d="M46.82555,80.29384l-.009-.00256C46.81236,80.32021,46.81883,80.31075,46.82555,80.29384Z"/><path class="cls-2" d="M46.82555,80.29384a.2699.2699,0,0,0,.09606.0047.41184.41184,0,0,0-.08752-.03851A.13461.13461,0,0,1,46.82555,80.29384Z"/><path class="cls-2" d="M47.49217,80.78237l-.04712-.0221a.51572.51572,0,0,1,.05994.21454c.09851.01221.13379-.00769.15759-.03106l-.193-.16059Z"/><path class="cls-2" d="M47.26878,80.61648c.09925-.05445.221-.01764.239-.15216-.11377-.08472-.13355.00366-.22962-.01777.19275.13514-.09045,0-.00281.15937a.47981.47981,0,0,1-.11523-.06421.807.807,0,0,1,.06055.1195l.00024-.00878-.0011-.00049.00135-.0011c.001-.01709.00378-.02551.00744-.01184l.00513.00165a.16176.16176,0,0,1,.03467-.02369c.03747.06281-.01.02857-.03467.02369l-.01257.01019-.00025.00159.22412.10784A.66645.66645,0,0,0,47.26878,80.61648Z"/><path class="cls-2" d="M46.87279,79.52852c-.02161-.00323-.06385.01282-.08753-.03552-.00244-.05554.04114-.03119.06763-.05481-.04163-.00665-.13-.04053-.11.06989l.02149.0036a.43008.43008,0,0,1-.02417.26806A.97678.97678,0,0,0,46.87279,79.52852Z"/><path class="cls-2" d="M47.23143,80.02248l-.036.04315c-.06091-.08892-.09192-.02655-.13269-.00537l.17187.095Z"/><polygon class="cls-2" points="47.573 81.087 47.762 81.022 47.661 81.01 47.573 81.087"/><polygon class="cls-2" points="47.827 81.223 47.919 81.21 47.889 81.145 47.827 81.223"/><path class="cls-2" d="M54.22435,81.31807l-.07593-.082a.16477.16477,0,0,1-.13476.05555C54.131,81.33285,54.28783,81.41018,54.22435,81.31807Z"/><path class="cls-2" d="M50.42833,81.93661a.42124.42124,0,0,0,.17761.07788C50.52086,81.94674,50.45933,81.85006,50.42833,81.93661Z"/><path class="cls-2" d="M50.81773,82.02376l-.03772-.0263a.354.354,0,0,1-.17407.017C50.66832,82.06466,50.74388,82.09871,50.81773,82.02376Z"/><path class="cls-2" d="M48.75462,81.63851l-.042-.02826C48.6992,81.62429,48.70079,81.63723,48.75462,81.63851Z"/><path class="cls-2" d="M48.82371,81.66421l.07593.02166a.23845.23845,0,0,1-.08166-.04236A.02887.02887,0,0,1,48.82371,81.66421Z"/><path class="cls-2" d="M56.784,75.53048c.05567-.31183-.15735.01507-.2616-.15711.06519-.06561.219-.03241.18226-.16784.03747-.1012-.41187-.244-.35987-.47528-.03625.0686-.07434.13323-.16125.08026-.08521-.10126.00342-.45435-.23963-.43445a.0762.0762,0,0,1,.02564-.05036c-.10523-.054-.28284-.211-.40747-.17993.24072-.36413-.58118-.303-.32227-.57263l-.25525-.1864.03089-.02545a.304.304,0,0,0-.36658-.07874c-.0221-.04779.02551-.05749.0404-.07153-.19519-.22925-.23742-.23608-.541-.19483l.04016-.12017c-.08691.03027-.28442-.3808-.61658-.36139a.08707.08707,0,0,1,.05127-.03858c-.34106.005-.6438-.59857-.884-.19091l-.231.05822c.25318.09357-.08313.182.00611.27912-.103.00372-.22937-.19165-.10071-.18628l.01465.02649c.097-.22358-.30921-.14551-.27564-.301a9.07337,9.07337,0,0,0-1.5647-.20276l.06885.17914-.1748-.00006c-.04908-.0368-.07434-.13879.05334-.139-.07544-.10144-.20556.10627-.20337.14508-.25427-.04864.074-.22186-.00122-.21862l-.10339.02423.026.01886c-.076.08209-.07263.16406-.22388.17608-.10071-.02227-.06689-.10449-.10595-.10547-.00184-.01281-.01587-.01635-.05921.0058l-.22742.02851.11829.12329c-.083.087-.20532.03912-.07117.17419-.20593-.22821-.821.13825-.92675.11261a.66416.66416,0,0,1-.36719.26947c.05139.00751.14514.14191.01135.18787-.1123-.32117-.2998-.00318-.52685-.13886.17285.0727-.33155.2685-.06165.36151-.11414.04786-.07825-.09826-.20081-.10784-.15734.27606-.56225.33972-.791.64324.02832.03406.11865.0373.11267.13764-.098-.006-.19312-.00464-.29236-.00385-.03259.07141.14758.21228-.05212.21961.04065.0083.10083.02215.082.06842a1.87117,1.87117,0,0,0-.61157.899,3.66976,3.66976,0,0,1-.5105,1.02148c.10217-.08527.098-.01611.08752.05969.02893-.04565.10694.01947.16736.01972-.0741.08892-.13684.18274-.206.27954.15881.07074-.014.32953.14685.367l-.026-.09546c.10388.07367.22961.0149.36267-.04113-.00586.09466-.02832.183-.02832.28a4.108,4.108,0,0,0,1.43127,3.1059,4.99775,4.99775,0,0,0,.6499.49933.12926.12926,0,0,1-.16833-.114c-.13025-.0033-.27173.29681-.29077.50824.02856-.03431.04992-.06269.18408-.04517-.00818-.06635-.14173-.25647-.00952-.27014.15234.049.08276.09973.11621.1864.0144-.12061.19873-.07214.29016-.17523.11829.07336.24914.1217.373.18414l.00866.01752.07227.045-.05261-.04852c.13879.06878.27111.15045.41674.20569-.01135.01208-.0288.02124-.02392.041l.08484.0108c.03686.12879-.20215.08637-.11853.1709-.13306.02863-.30762.09131-.43421-.038L48.62,81.063c-.01672.04168.059.12805.12012.10473-.09339.03174-.13672-.29028-.29126-.14819l.05517.14844c-.1383.01483-.35461.08783-.46264-.0354-.01587.16638.03808.00244.04663.21289.02087-.23578.35095.19543.31982-.082.00989.23425.1355.16235.20349.38318.01526-.04834-.01159-.10895.10132-.03632a.21441.21441,0,0,1,.04346-.03046l.00683.00684-.00451-.0083c.00818-.00488.00915-.00617-.00171-.00293a.17178.17178,0,0,1-.03235-.09607c.10339-.0813.28882-.006.373-.04315.0625.04718-.04834.04455-.02735.109l.12439-.05219c-.02637.10938.13965.2359-.05456.247l.157.05151a.31506.31506,0,0,0,.29382.11731c.07166.04212.217-.08306.13342-.00921l.26368-.02283-.00208.02808c.25134.05633.523-.1222.79431.09259a.52154.52154,0,0,1,.30872-.02741l.02807.09662c.10535-.03357.32813.08814.36951-.0177.13526.26025.53565.00861.73.02228l-.01379-.12641a1.01459,1.01459,0,0,0,.39526-.162l-.03528-.10682c.11011-.11889.36267-.008.57044-.09149-.00049.04529-.05774.05237-.103.04.34058.16065.45593-.36078.73975-.28894a.113.113,0,0,1,.13025-.06244l-.01062.01178.02258-.00958.10181.01624a.29748.29748,0,0,0-.09009-.0224.49844.49844,0,0,0,.14148-.1247l.08337.09155.01245-.01068c.08142.00592.01929-.07574-.05591-.13775a.31211.31211,0,0,0,.04187-.1059c.1449.13989.11512-.14642.28711-.00861-.0155-.10949.24292-.25122.14344-.44653.01794.02118.04126.02039.01391.04273.07251-.02332.14649-.048.16236-.13428l.11816.10144-.00452-.2608c.13318.01232.20118.02563.20081.17865.0614-.29206.10388-.17646.12683-.44324l.06091.07879c.0492-.05316.038-.22351.12464-.197.25586.02088.551-.56085.90649-.84417-.29309-.072.21118-.11225.02051-.236.07324.01056.1355-.02746.15649.0633.0387-.22815.24573-.268.12476-.48267.07446,0,.07666.08051.12341.07367-.00622-.02246-.02978-.0885.01587-.09753.04578-.00885.04468.05169.05884.09662.0686-.23224-.12964-.31629-.31543-.38813.11877-.079.1228-.14087.01392-.24627.07055-.02167.15209-.0719.145.068.0326-.0694.18323-.45422.02088-.481.04382-.019.02148-.1051.005-.12628a1.20133,1.20133,0,0,0,.02552-.3512l-.02735.046c-.18908-.06646-.04431-.13519-.07031-.26751l.0199.0028c.11389-.31506-.06751-.12176.04895-.44134l-.11634.03375c-.25671.01544.11072-.28631-.03454-.44177l-.05054.07751c-.10547-.0642.26868-.35229.26148-.46814C56.727,75.45363,56.75828,75.505,56.784,75.53048Zm-6.87317-3.42365.04016.025C49.87852,72.18,49.89513,72.14547,49.91087,72.10683Zm-1.759,8.461.01184-.00946.01636.01251Zm1.28552,1.18884L49.443,81.752C49.5189,81.819,49.49242,81.79342,49.43736,81.75667Zm.78064-.12475c-.19556.02405-.062-.147-.09875-.12207-.33557-.09235-.37.313-.63355.09344-.08166-.15838.06311-.25989.06189-.36.15552-.01453.20166.13849.30444.15136l-.10925-.08691c.05615-.033.15857-.04871.204.00018a.21056.21056,0,0,0-.10058-.06756,5.69463,5.69463,0,0,0,.75219.09332A.6216.6216,0,0,1,50.218,81.63192Zm1.14917-.163a.24992.24992,0,0,0-.03723-.12353l-.00305-.00049c.05591-.0025.11011-.00922.16528-.01312A.36122.36122,0,0,1,51.36717,81.469Zm.64966-.11688a.16215.16215,0,0,1-.01782-.06055c.05517-.00842.10949-.01928.16406-.02917l.03882.19281-.01392-.19922c.0564-.0105.10889-.03015.16455-.04224a1.20368,1.20368,0,0,1,.04456.3526A1.361,1.361,0,0,1,52.01683,81.35207Zm1.22192-.09851-.12768.14618c.01648-.10388.04333-.264.07153-.42761.0835-.03235.16162-.07617.24329-.11261a.74616.74616,0,0,1-.11817.45575Zm1.48084-1.18085c.01648-.01361.035-.0224.05139-.03619.01367-.01166.02258-.02466.03613-.03638.01758.08289.043.16187.05786.24616A1.0507,1.0507,0,0,0,54.71959,80.07271ZM56.25792,77.939l.02722.04638a.10284.10284,0,0,1-.1084.00531c.00952-.03168.02588-.06146.03443-.09338l.04675.04169-.037-.06836c.00293-.01093.009-.021.01172-.03193a.84675.84675,0,0,0,.12878-.05322l.03113.22235C56.3607,78.02511,56.3137,77.98879,56.25792,77.939Z"/><path class="cls-2" d="M48.3065,81.41659c-.01037.02636-.00781.07379-.04309.05755l.12476.02716C48.331,81.482,48.32445,81.44723,48.3065,81.41659Z"/><path class="cls-2" d="M47.77232,80.291l-.03161.04644c.05517.03986.119.03333.07983-.02887C47.79918,80.31038,47.79368,80.289,47.77232,80.291Z"/><path class="cls-2" d="M48.35142,81.06771c.0398-.09369-.03942-.09509-.11706-.12061l.01221.00714C48.15513,81.06435,48.25279,81.07064,48.35142,81.06771Z"/><path class="cls-2" d="M48.21666,80.94063a.18911.18911,0,0,1-.06482-.03534C48.11424,80.94924,48.17174,80.93087,48.21666,80.94063Z"/><path class="cls-2" d="M49.02574,81.64791c-.02917-.03784-.06653.11413-.07458.06756C48.86729,81.8232,49.25584,81.6559,49.02574,81.64791Z"/><polygon class="cls-2" points="48.456 80.745 48.42 80.867 48.505 80.799 48.456 80.745"/><path class="cls-2" d="M48.81151,81.03219c.06762.03381.136.087.147.05175l-.1-.07782C48.852,81.02608,48.83263,81.03194,48.81151,81.03219Z"/><path class="cls-2" d="M50.29747,81.35488c-.03491.02716-.08606.03619-.07117.08026l.13684-.02106C50.38109,81.37276,50.34813,81.343,50.29747,81.35488Z"/><polygon class="cls-2" points="45.451 76.618 45.393 76.73 45.481 76.66 45.451 76.618"/><path class="cls-2" d="M45.4691,76.863l.14539.06762c-.00672-.02465-.01966-.07312.01745-.09124Z"/><path class="cls-2" d="M36.51561,29.5483c.03345.43372.14722.18732.11877.20081C36.63768,29.49557,36.53526,29.58681,36.51561,29.5483Z"/><path class="cls-2" d="M38.97435,32.92287a4.03824,4.03824,0,0,0,.59009.12744,3.85845,3.85845,0,0,1-.50684-.1347Z"/><path class="cls-2" d="M40.74864,33.25582l-.11145-.04077c-.10046.04706-.20483.08795-.313.12665a3.05391,3.05391,0,0,0,1.34717-.2074,5.83145,5.83145,0,0,0,1.00488-.55188,4.86481,4.86481,0,0,0-.806.40271A2.23662,2.23662,0,0,1,40.74864,33.25582Z"/><path class="cls-2" d="M44.02074,31.85152l.0697-.04742.25525-.27173C44.2108,31.57357,44.58787,31.18355,44.02074,31.85152Z"/><path class="cls-2" d="M44.09044,31.8041c-.26331.28271.21655-.14289,0,0Z"/><path class="cls-2" d="M44.93236,30.85238c.077-.04114.30249-.266.24279-.159.24939-.28949.1764-.27-.04-.1618A2.82454,2.82454,0,0,0,44.93236,30.85238Z"/><path class="cls-2" d="M45.33678,30.1802l-.14795.15814C45.23021,30.32741,45.272,30.29409,45.33678,30.1802Z"/><path class="cls-2" d="M45.0554,30.49288c-.01025-.06274-.04309.03467-.13073.19324a3.24116,3.24116,0,0,1,.26416-.34778C45.128,30.35659,45.0786,30.31954,45.0554,30.49288Z"/><path class="cls-2" d="M44.54845,30.915c-.5979.73926-.40918.72613.18554-.032C44.52818,31.08,44.27782,31.33907,44.54845,30.915Z"/><path class="cls-2" d="M42.13817,32.72378c.1333-.09357.62976-.36536.57141-.40186-.1062.06592-.217.12494-.32813.18066Q42.26592,32.6173,42.13817,32.72378Z"/><path class="cls-2" d="M47.46043,29.28048c.01184-.04547-.17187-.04114-.22131-.074l-.28833.171C47.11815,29.32876,47.42284,29.23342,47.46043,29.28048Z"/><path class="cls-2" d="M47.23912,29.20644q.212-.12075.434-.23187C47.25621,29.11287,47.19908,29.18111,47.23912,29.20644Z"/><path class="cls-2" d="M44.81077,30.6a3.62824,3.62824,0,0,1,.58631-.71717l-.12293.094A3.47561,3.47561,0,0,0,44.81077,30.6Z"/><polygon class="cls-2" points="49.244 28.811 48.988 28.947 49.453 28.733 49.244 28.811"/><path class="cls-2" d="M50.564,28.81551a7.66922,7.66922,0,0,0,.89331-.1626,4.68975,4.68975,0,0,1-.96948-.00061C50.28526,28.739,50.78026,28.75588,50.564,28.81551Z"/><path class="cls-2" d="M48.8889,28.78255l-.2124-.06476-.19055.04273A.79277.79277,0,0,0,48.8889,28.78255Z"/><path class="cls-2" d="M48.66905,28.71584l.00745.002.416-.07617Z"/><path class="cls-2" d="M46.42772,29.38289c.23279-.18615.78625-.49548.19336-.33172C46.45872,29.21,46.78844,29.10763,46.42772,29.38289Z"/><path class="cls-2" d="M47.65355,28.83407c.01929.02337.12219.0332-.00525.10583.17017-.08288.34338-.16315.52087-.23675C47.99583,28.74178,47.82408,28.78579,47.65355,28.83407Z"/><polygon class="cls-2" points="48.414 28.605 48.169 28.703 48.362 28.661 48.414 28.605"/><path class="cls-2" d="M50.98448,28.48055a3.58288,3.58288,0,0,1,.775-.06592,7.20348,7.20348,0,0,0-.933-.01745C50.78526,28.43313,50.65611,28.49837,50.98448,28.48055Z"/><polygon class="cls-2" points="54.568 28.683 54.528 28.656 54.514 28.672 54.568 28.683"/><path class="cls-2" d="M50.77391,28.37978a1.24611,1.24611,0,0,0-.49841.0705c.17126-.02417.35388-.04407.551-.0531C50.84508,28.38119,50.84825,28.371,50.77391,28.37978Z"/><path class="cls-2" d="M52.69359,28.55385c-.11853-.02911-.25415-.053-.397-.07733A1.1,1.1,0,0,0,52.69359,28.55385Z"/><path class="cls-2" d="M49.978,28.54348l-.03357.00854C50.02135,28.56655,50.011,28.55642,49.978,28.54348Z"/><path class="cls-2" d="M49.978,28.54348a2.93769,2.93769,0,0,0,.29749-.0932,3.53679,3.53679,0,0,0-.37745.07238A.40614.40614,0,0,1,49.978,28.54348Z"/><path class="cls-2" d="M53.53245,28.49282l-.21875-.01209a3.20222,3.20222,0,0,1,.728.229c.36194.00781.44141-.0072.47241-.0373-.34851-.07177-.70117-.13171-1.05774-.17321Z"/><path class="cls-2" d="M52.72374,28.16091c-.655-.02289-.462.06494-.85254.10583,1.05.00165-.30115.04566.45227.13331-.21313.00555-.39209.01019-.564.01458.18762.01679.36865.0318.5371.06189l-.02356-.00775-.00488.00012.0011-.00165c-.04419-.01544-.05872-.02429-.00854-.01422l.02172-.00122a.11878.11878,0,0,1,.04847-.03845c.30029.03571.046.03009-.04847.03845-.00366.00513-.012.00977-.01318.01544l.00378.00153q.52094-.01044,1.04065.012a6.48209,6.48209,0,0,0-.98266-.068C52.50645,28.308,53.04222,28.3,52.72374,28.16091Z"/><path class="cls-2" d="M47.05015,28.61373c.03455-.00336.03589.00433.04114.01068C47.15086,28.58687,47.17222,28.56875,47.05015,28.61373Z"/><path class="cls-2" d="M48.01536,28.60219l.03809.01416C48.06785,28.609,48.04954,28.60457,48.01536,28.60219Z"/><path class="cls-2" d="M47.08848,28.76479l.064-.04083a3.02675,3.02675,0,0,1,.86291-.12177,1.294,1.294,0,0,0-.53051-.08166,1.14477,1.14477,0,0,1-.35169.181c-.21448.04944-.01843-.04822-.04187-.07709C46.95909,28.70669,46.631,28.90053,47.08848,28.76479Z"/><path class="cls-2" d="M49.93809,28.213c.28919-.04693.58069-.08819.87415-.11749l-.45569-.06659.027.05432C49.88011,28.102,49.99547,28.16451,49.93809,28.213Z"/><path class="cls-2" d="M54.52086,28.84487c.17126-.02551.3396-.035.51306-.0528l-.37976-.0382Z"/><polygon class="cls-2" points="55.656 29.1 55.948 29.13 55.723 29.018 55.656 29.1"/><path class="cls-2" d="M50.34263,49.75362c-.3424.23908-.72009.53168-.60363.55664l.16113-.035A2.31532,2.31532,0,0,1,50.34263,49.75362Z"/><path class="cls-2" d="M60.77562,37.67367c-.08985.322-.15405.55249-.21021.75384C60.71043,38.0768,60.84935,37.786,60.77562,37.67367Z"/><path class="cls-2" d="M59.09581,52.06753c-.11182.12249-.16785.19928-.12415.19628C59.079,52.1437,59.11558,52.08223,59.09581,52.06753Z"/><path class="cls-2" d="M60.32616,39.29348,60.4,39.14406c.05273-.22863.10339-.44793.1654-.71655A2.84,2.84,0,0,0,60.32616,39.29348Z"/><path class="cls-2" d="M38.31993,25.95687a2.19682,2.19682,0,0,0-.30261.37213A3.93908,3.93908,0,0,1,38.31993,25.95687Z"/><path class="cls-2" d="M59.29771,31.33816c-.14721-.16675-.03088-.02,0,0Z"/><path class="cls-2" d="M59.11058,31.05416l.16846.23382A2.24081,2.24081,0,0,0,59.11058,31.05416Z"/><path class="cls-2" d="M59.10374,31.12246l-.12561-.14978C58.94456,30.96627,58.9575,30.98842,59.10374,31.12246Z"/><path class="cls-2" d="M59.49669,31.57583c-.07886-.0998-.1521-.19318-.21765-.28785.02209.03882.02893.057.01867.05018Z"/><path class="cls-2" d="M53.82017,46.82131c.0719-.04187.13611-.097.21021-.13452A2.3915,2.3915,0,0,0,53.82017,46.82131Z"/><path class="cls-2" d="M69.2495,36.50667c-.16077,1.29291-.17359-.21-.30018.3144.02759-.50116.21668-1.299.21228-.67371l-.02844.09644c.2489.24578.12708-1.61237.26111-1.58191a13.10569,13.10569,0,0,0-2.22046-7.16913c.00611.11145.012.22156.01062.33514-.15393-.23675-.32361-.46277-.48694-.69324-.11218-.19372-.066-.33148.29041.166a1.76569,1.76569,0,0,0-.743-.73206c-.74292-.92877.4718.20429.22912-.065-.10925-.12622-.22925-.24213-.34338-.3634l.05994.09753a4.95733,4.95733,0,0,1-.91724-.73614c-.31506-.33539-.09888-.24115-.22888-.36805.0094-.00891-.03247-.05462-.20459-.19018-.27149-.23364-.54407-.46985-.8313-.68524.08923.12066.17212.24768.25207.376-.412-.241-.80236-.59844-.499-.184A6.20777,6.20777,0,0,0,61.88621,23.109c-.8468-.454-1.7218-.7497-1.91369-.86633-.657-.1222-1.26843-.32435-2.04505-.52363.18677.07593.26026.26056-.40014.08112.32153-.28479-1.20142-.40106-1.72229-.70691.475.20209-1.96082-.182-1.204.12781-.56922-.07391-.02307-.12769-.45227-.24207a43.92748,43.92748,0,0,0-4.71985-.0238c-.0221.04639.26575.08514-.09.18652-.3031-.04333-.60888-.08905-.9165-.11853-.333.0661-.27088.28675-.90088.23816.09216.02222.22839.05628.00916.10675a14.15171,14.15171,0,0,0-4.8462,1.48914,24.36965,24.36965,0,0,0-4.29907,2.88165c.39514-.28015.17041-.05737-.06555.218.17224-.16156.077.07672.15247.08191a6.85889,6.85889,0,0,0-1.00782,1.08,5.08093,5.08093,0,0,1-.32788.87548,1.51,1.51,0,0,0-.14514.83264c.02173-.15637.04663-.31408.08093-.46893.0127.33112.15821.13111.351-.086.01855-.02185.03894-.04272.05822-.06451a3.96666,3.96666,0,0,0-.24316,1.34082,3.01118,3.01118,0,0,0,1.096,2.4635,3.64561,3.64561,0,0,0,2.36291.907,2.98778,2.98778,0,0,0,1.94129-.78173,11.23251,11.23251,0,0,0,1.687-1.77,6.36033,6.36033,0,0,1,2.65759-1.76648,12.09283,12.09283,0,0,1,4.59875-.78174c.56592,0,1.10145.0321,1.62232.07965l.01562.055c.27271.02564.46192.01642.33558-.022.25354.02893.4989.06647.74145.10705-.44092.0271-.151.36554.23108.61768.0238-.03729.03186-.08643.56348-.02307-.16321-.10449-1.14234-.358-.67957-.36231a1.693,1.693,0,0,1,.89453.28424c-.21948-.17877.62207.00641.80237-.07049a9.67442,9.67442,0,0,1,1.04858.41925l.06287.16193.23242.00238-.24109-.1399a8.266,8.266,0,0,1,1.65332,1.033,7.09042,7.09042,0,0,1,.92237.91614c-.0149.00049-.02051.01257-.00208.05353.08875.10345.187.20007.26868.30993.14026.35553-.58618-.50677-.31128-.07452-.39783-.37061-.88782-.69891-1.44763-1.18542l-.02747-.205a1.97124,1.97124,0,0,0,.533.46448c-.265-.15412-.81445-.86847-1.23-.85535.14014.11163.26611.24225.397.36023-.491-.22809-1.1344-.37421-1.72473-.64386.222.24231.15027.03815.501.37665-.13684-.1792.24243-.01593.57544.16913.33423.17993.626.37738.41772.108.2843.42193.64063.51941.96717,1.05224.021-.0495-.0868-.21722.274.16529a.48028.48028,0,0,1,.11121.05267l.02124.02881-.01526-.02551c.02087.01165.02344.012-.00586-.0094a1.12454,1.12454,0,0,1-.13647-.24555c.28686.08789.83813.75647,1.03454.979.15186.28631-.12036-.08246-.072.09558.10278.10479.20581.21191.29907.32727-.06506.09259.20642.83471-.17614.20343a5.717,5.717,0,0,1,.27185.60058c.0896.38385.2135.8982.31921,1.218.042.30957.24524.77515.1239.51068a9.40931,9.40931,0,0,1,.14783,1.06244l-.028.0105A7.08453,7.08453,0,0,1,60.4,39.14406a4.26885,4.26885,0,0,1-.44922,1.23291l-.13782.06037c-.15979.43017-.76709,1.11181-.80993,1.31958a18.42876,18.42876,0,0,0-2.13331,2.26831l.06849.11328c-.38172.42609-.76783.7793-1.2948,1.27685l.10449.05988a25.42131,25.42131,0,0,1-2.11768,1.52448.60853.60853,0,0,1,.18994-.17841c-1.00158.58405-1.79309,1.54456-2.65844,2.1554a2.28466,2.28466,0,0,1-.48243.48767.43674.43674,0,0,0,.0448-.05408.86717.86717,0,0,0-.08032.08392l-.30115.2594a2.96216,2.96216,0,0,0,.26087-.21185,7.25115,7.25115,0,0,0-.52551.69629l-.17786.03723-.04236.0625c-.22693.23071-.10644.23883.067.15729a3.03331,3.03331,0,0,0-.19275.38391c-.29724.11029-.40991.73211-.74524.93921a8.10768,8.10768,0,0,0-.52124,1.64129,3.015,3.015,0,0,0-.34644.95649l-.19336.093c-.02294.26422-.02465.53083-.02673.7945-.21509.42059-.32117.59845-.309.11889a13.38763,13.38763,0,0,0-.15649,1.86646l-.08936-.0625a6.82055,6.82055,0,0,1-.10852,1.07812,9.63322,9.63322,0,0,0-.30383,2.3761,12.98247,12.98247,0,0,0,.14978,3.389c.08069-.242.10693.00336.19543.31171.07923.31048.29126.68542.41516.64325.0282.1463.25281.42535-.07263.1748a3.68973,3.68973,0,0,0,1.21936.79987,2.10013,2.10013,0,0,0,1.06568.16278c.113.08575-.24158.06824-.13941.12384a1.45388,1.45388,0,0,1,.45362.034c.1051.04969-.16028.04639-.33667.05219,1.10815.09863,1.19213-.17841,1.2666-.3634a1.637,1.637,0,0,0,1.14843-.137c.18824.02838.51185.05261-.134.17438a5.07481,5.07481,0,0,0,1.26636-.26508c.52478-.17724.94348-.55181.89807-.62554a1.27556,1.27556,0,0,0,.436-.51014,2.31726,2.31726,0,0,0,.3507-.86956,3.77168,3.77168,0,0,0,.04773-.86091l-.027.21192c-.19153-.30274-.042-.63684-.05237-1.25318l.01941.01807c.18164-1.40643-.05945-.615.174-1.99481l-.12452.06787c-.25231-.14917.23206-1.22052.249-2.01929l-.10571.27845c-.03626-.45441.52417-1.15882.65856-1.54718.04358-.08307-.00048.1474-.00891.27764.40918-1.01452-.13733-.17889.06482-.96325.13123-.10688.13221.24463.34241-.23535.08337-.10559.1759-.48053.36658-.89637a2.98338,2.98338,0,0,1,.77856-1.10016c-.15637.08515-.31628.17463-.104-.15545.369-.48413,1.28711-.98181,1.58471-1.50067.07093-.03852.10474-.04535.11817-.03546A14.10424,14.10424,0,0,0,60.328,50.72207c.61523.05145,2.02221-2.18415,2.28088-1.88929l1.054-1.033.00085.05317a3.94237,3.94237,0,0,0,.91882-1.32569c.15747-.15057.084-.00519.08777.02185a8.48374,8.48374,0,0,0,1.58631-2.13373l.17175-.02227a11.06277,11.06277,0,0,0,1.7478-2.90888c.00745.018.01819.05371-.00976.16138.25305-.73541.64465-1.57642.895-2.35095a2.68355,2.68355,0,0,0,.18665-1.76892Q69.2647,37.0144,69.2495,36.50667Zm-4.30616-11.404.104.13556C64.74242,25.01162,64.8419,25.05874,64.94334,25.10268Zm-9.68872,3.13379a3.71806,3.71806,0,0,1-.7749-.16748C54.7451,28.11727,55.00267,28.17385,55.25462,28.23647Zm.252.065L55.50975,28.3l.04077.01013C55.53587,28.30776,55.52135,28.30367,55.50658,28.30147ZM60.551,33.43972l.01135.01507C60.618,33.82613,60.60228,33.6932,60.551,33.43972Zm.16467-.014c-.04126-.543.24634-.10644.30127-.24683a5.18149,5.18149,0,0,1,.26538,1.57819c.00305-.2027-.01831-.403-.02832-.60644a2.77553,2.77553,0,0,1,.1698.96746,1.43521,1.43521,0,0,0,.009-.22711,10.26611,10.26611,0,0,1,.06165,1.0896,11.62739,11.62739,0,0,1-.234,2.31256,16.494,16.494,0,0,1-.09631-1.65906c-.021-.87615.14624-.37792.1228-.53057a3.27312,3.27312,0,0,0-.24011-1.47193A4.53729,4.53729,0,0,1,60.71568,33.42574ZM59.858,41.742c-.12439.18725-.26087.36987-.40015.55139.07886-.17585.16809-.35889.24988-.51532C59.72191,41.82082,59.79845,41.77907,59.858,41.742Zm-2.92286,3.04534c.29114-.20288.58216-.455.71607-.5249.07312-.03906.10583-.02966.12439-.00342-.19409.20673-.38257.40192-.55884.57337-.01709.01684-.04053.03662-.05835.05371l-.14331-.12384.05335.20672c-.18567.17493-.40027.36371-.63917.56421a.35533.35533,0,0,1-.10424-.34686C56.3618,45.16237,56.63316,44.98482,56.93516,44.78737Zm-3.92211,3.03132.58325-.56373a9.50525,9.50525,0,0,1-.53321.8349c-.36926.28241-.64672.5047-.82275.66193-.096.07874-.17664.1734-.2699.25507a3.74353,3.74353,0,0,1,.83069-1.1297Zm-4.54749,5.6408a.22348.22348,0,0,0,.01453.07776C48.45042,53.5367,48.4033,53.61782,48.46556,53.45949Zm-.33765,1.98c-.05444.19629-.11206.38953-.16089.59168-.02392-.2135-.05151-.42584-.06677-.64215C47.94188,55.456,48.03123,55.44985,48.12791,55.43953Zm3.23316,10.47016c-.12329-.02551-.0221-.07648.13781-.155l-.18151.04632c-.14893-.02136-.189-.05145-.18506-.08477.16968-.00312.33276-.01044.49072-.02106l-.12415.05951.24549-.0647c.06738-.00543.13281-.012.198-.0188a2.99744,2.99744,0,0,0,.41772.05646A8.3083,8.3083,0,0,1,51.36107,65.90969Z"/><path class="cls-2" d="M57.48924,29.90066c.14307.07763.29163.14874.42932.2362a2.565,2.565,0,0,1-.35156-.27161C57.562,29.89528,57.62034,29.979,57.48924,29.90066Z"/><path class="cls-2" d="M57.27537,29.32436c.00806-.10437-.297-.22931-.64233-.34686l.05933.02508C56.54027,29.09194,56.9116,29.19314,57.27537,29.32436Z"/><path class="cls-2" d="M56.2379,28.8312c-.05982.03985.12451.05566.316.11657Z"/><path class="cls-2" d="M59.80272,31.8785c-.06421-.15247-.16394-.01154-.18091-.1095C59.42674,31.67818,60.32567,32.59243,59.80272,31.8785Z"/><path class="cls-2" d="M59.48814,30.66805c-.12561-.15265-.26233-.29669-.401-.4389-.0072.02148-.07263-.01862-.14856-.07178C59.21715,30.39419,59.47166,30.70308,59.48814,30.66805Z"/><path class="cls-2" d="M58.55479,29.87526c.08142.05988.25391.18671.38379.28211A1.94922,1.94922,0,0,0,58.55479,29.87526Z"/><path class="cls-2" d="M61.43382,36.86727c-.01806-.15833-.02417-.3999-.07031-.30225q.00311.32484-.01294.65027C61.38621,37.286,61.43272,37.11153,61.43382,36.86727Z"/><path class="cls-2" d="M36.87315,28.19625l.03174-.20191a4.66587,4.66587,0,0,0-.21118.53687A2.93393,2.93393,0,0,1,36.87315,28.19625Z"/><path class="cls-2" d="M36.66844,29.20278l.13135.34552a1.28084,1.28084,0,0,1,.04321-.46252C36.78282,29.12288,36.72337,29.1617,36.66844,29.20278Z"/></g></g></svg>